<?xml version="1.0" encoding="UTF-8" standalone="no"?>
<!DOCTYPE svg PUBLIC "-//W3C//DTD SVG 1.1//EN" "http://www.w3.org/Graphics/SVG/1.1/DTD/svg11.dtd">
<svg
   xmlns:svg="http://www.w3.org/2000/svg"
   xmlns="http://www.w3.org/2000/svg"
   xmlns:xlink="http://www.w3.org/1999/xlink"
   version="1.1"
   baseProfile="full"
   id="body"
   width="800px"
   height="800px"
   viewBox="0 0 1000 1000"
   preserveAspectRatio="none">
  <defs>
    <style type="text/css"><![CDATA[
      circle{ stroke: none; }
      polygon{ stroke: black; stroke-width: 2px; fill: none; }
      line{ stroke: black; stroke-width: 2px; }
      text{ font-size:50px; }
    ]]></style>
  </defs>
  <title
     id="title1">SVG drawing</title>
<g transform="scale(0.45)"><g transform="translate(600,1050)">
  <g id="fig1">
	<polygon points="0.0,-0.0 1000.0,-0.0 500,-866.0254038" />
	<circle cx="499.4068922108" cy="-289.4820231945" r="2" />
	<circle cx="501.0764581455" cy="-664.3786843560" r="2" />
	<circle cx="421.1334785113" cy="-269.5469458728" r="2" />
	<circle cx="1000.0000000000" cy="-0.0000000000" r="2" />
	<circle cx="499.9052895631" cy="-333.2081232761" r="2" />
	<circle cx="479.8590459030" cy="-334.9999679107" r="2" />
	<circle cx="500.4943217778" cy="-413.6157599742" r="2" />
	<circle cx="631.0709533517" cy="-213.2512781323" r="2" />
	<circle cx="479.7303696908" cy="-278.9865008521" r="2" />
	<circle cx="525.7713370205" cy="-273.7258934802" r="2" />
	<circle cx="513.0771033985" cy="-422.7412036892" r="2" />
	<circle cx="998.6021060633" cy="-0.8808371698" r="2" />
	<circle cx="500.0000000000" cy="-866.0254037963" r="2" />
	<circle cx="499.3072637651" cy="-302.6134809753" r="2" />
	<circle cx="471.2871924567" cy="-264.0997745147" r="2" />
	<circle cx="651.1174355301" cy="-187.1354058062" r="2" />
	<circle cx="594.7737802392" cy="-235.6666075414" r="2" />
	<circle cx="470.2230841754" cy="-265.0324638803" r="2" />
	<circle cx="500.0000000000" cy="-866.0254038000" r="2" />
	<circle cx="499.9999127681" cy="-866.0251209399" r="2" />
	<circle cx="432.7821308108" cy="-290.0478308235" r="2" />
	<circle cx="543.8374904492" cy="-263.7283750505" r="2" />
	<circle cx="511.6464352917" cy="-300.7877886753" r="2" />
	<circle cx="378.6436001007" cy="-218.8320462922" r="2" />
	<circle cx="410.8346878518" cy="-237.6411728758" r="2" />
	<circle cx="500.1248697964" cy="-865.1646070872" r="2" />
	<circle cx="503.1702314319" cy="-361.2112998287" r="2" />
	<circle cx="499.2585324940" cy="-289.7943533745" r="2" />
	<circle cx="466.3244432933" cy="-276.4815830763" r="2" />
	<circle cx="499.9999995095" cy="-866.0253982817" r="2" />
	<circle cx="475.1274240372" cy="-277.3499830497" r="2" />
	<circle cx="521.3388523255" cy="-273.9279104165" r="2" />
	<circle cx="506.5413814044" cy="-290.7933787508" r="2" />
	<circle cx="593.1010770836" cy="-233.0274392656" r="2" />
	<circle cx="499.6068682533" cy="-775.7432007077" r="2" />
	<circle cx="0.0000000229" cy="-0.0000000164" r="2" />
	<circle cx="501.2585409329" cy="-339.4394093530" r="2" />
	<circle cx="499.9996290634" cy="-866.0202387103" r="2" />
	<circle cx="593.3604534986" cy="-233.2508601023" r="2" />
	<circle cx="329.3224243893" cy="-194.5065508753" r="2" />
	<circle cx="526.9029065793" cy="-294.5855612381" r="2" />
	<circle cx="502.6016970277" cy="-460.3916290313" r="2" />
	<circle cx="845.7309770566" cy="-81.7028082913" r="2" />
	<circle cx="202.2454622932" cy="-106.7652480188" r="2" />
	<circle cx="550.4779872826" cy="-152.2731989309" r="2" />
	<circle cx="514.5695508013" cy="-551.1471587760" r="2" />
	<circle cx="549.6256427115" cy="-262.4014098767" r="2" />
	<circle cx="372.1916893773" cy="-421.6949378309" r="2" />
	<circle cx="425.9960196712" cy="-327.5782664547" r="2" />
	<circle cx="446.6848730500" cy="-268.7365024082" r="2" />
	<circle cx="965.4521656347" cy="-23.9237006009" r="2" />
	<circle cx="998.0445020299" cy="-0.6857089163" r="2" />
	<circle cx="500.6922588067" cy="-374.2975130627" r="2" />
	<circle cx="1000.0000000000" cy="-0.0000000000" r="2" />
	<circle cx="1000.0000000000" cy="-0.0000000000" r="2" />
	<circle cx="423.3570516679" cy="-349.9118987352" r="2" />
	<circle cx="488.6232496225" cy="-296.2722112869" r="2" />
	<circle cx="507.1695366178" cy="-427.6935720632" r="2" />
	<circle cx="0.0003974902" cy="-0.0001753439" r="2" />
	<circle cx="375.1619999581" cy="-215.9483014695" r="2" />
	<circle cx="500.0000000000" cy="-866.0254038000" r="2" />
	<circle cx="280.8120253143" cy="-301.5688709406" r="2" />
	<circle cx="452.5381358892" cy="-268.6243681616" r="2" />
	<circle cx="500.0000000000" cy="-866.0254038000" r="2" />
	<circle cx="537.5815741694" cy="-289.8022750916" r="2" />
	<circle cx="243.9626345894" cy="-141.1137589194" r="2" />
	<circle cx="500.0000000000" cy="-866.0254038000" r="2" />
	<circle cx="496.0594377396" cy="-265.0207435480" r="2" />
	<circle cx="0.0000000000" cy="-0.0000000000" r="2" />
	<circle cx="473.4350227665" cy="-251.4103879582" r="2" />
	<circle cx="499.3495114721" cy="-307.1526687213" r="2" />
	<circle cx="963.9640207231" cy="-20.7479088527" r="2" />
	<circle cx="580.5527032881" cy="-241.8083312326" r="2" />
	<circle cx="492.3794114639" cy="-277.9663182758" r="2" />
	<circle cx="588.5459950193" cy="-238.7329676172" r="2" />
	<circle cx="583.8539157758" cy="-545.3536649151" r="2" />
	<circle cx="500.8010869866" cy="-294.9804560323" r="2" />
	<circle cx="565.7519659787" cy="-239.8431489079" r="2" />
	<circle cx="499.9502705412" cy="-666.2806313257" r="2" />
	<circle cx="345.0882363678" cy="-218.4615680349" r="2" />
	<circle cx="497.7505220365" cy="-215.8836955888" r="2" />
	<circle cx="481.0032241457" cy="-252.6792925738" r="2" />
	<circle cx="500.0010915541" cy="-866.0143057298" r="2" />
	<circle cx="0.0000000000" cy="-0.0000000000" r="2" />
	<circle cx="999.9997102832" cy="-0.0002434048" r="2" />
	<circle cx="500.0000000000" cy="-866.0254038000" r="2" />
	<circle cx="453.8328319895" cy="-475.8909841344" r="2" />
	<circle cx="499.7767082850" cy="-390.6548675793" r="2" />
	<circle cx="489.9197468668" cy="-286.0476193959" r="2" />
	<circle cx="498.7476654325" cy="-493.8944202571" r="2" />
	<circle cx="526.8295584002" cy="-274.1541154686" r="2" />
	<circle cx="476.6263348532" cy="-276.0143949644" r="2" />
	<circle cx="499.2968684260" cy="-443.3135626846" r="2" />
	<circle cx="534.1434929796" cy="-270.3124321683" r="2" />
	<circle cx="995.0560031574" cy="-3.2352000928" r="2" />
	<circle cx="975.6665956983" cy="-25.2102084488" r="2" />
	<circle cx="462.0765676420" cy="-267.4915529255" r="2" />
	<circle cx="485.9779669296" cy="-265.4247484630" r="2" />
	<circle cx="670.4616719997" cy="-175.8445388689" r="2" />
	<circle cx="499.6088535241" cy="-293.5775316850" r="2" />
	<circle cx="497.9211749552" cy="-850.2253085847" r="2" />
	<circle cx="114.7098719015" cy="-64.7776706693" r="2" />
	<circle cx="355.2134964112" cy="-207.7409745412" r="2" />
	<circle cx="477.5637896155" cy="-329.9038070168" r="2" />
	<circle cx="434.8943036621" cy="-246.2616580609" r="2" />
	<circle cx="480.4933643265" cy="-273.1720135631" r="2" />
	<circle cx="658.5977810698" cy="-166.6480633194" r="2" />
	<circle cx="994.7351466491" cy="-2.5457938129" r="2" />
	<circle cx="524.3932254433" cy="-268.3783889935" r="2" />
	<circle cx="505.6062909656" cy="-606.7342384083" r="2" />
	<circle cx="0.0000000000" cy="-0.0000000000" r="2" />
	<circle cx="536.1058635935" cy="-265.9075376761" r="2" />
	<circle cx="516.4830167023" cy="-265.5465208464" r="2" />
	<circle cx="522.1968335726" cy="-289.1397288086" r="2" />
	<circle cx="349.2438091479" cy="-206.4706910797" r="2" />
	<circle cx="448.8866134458" cy="-266.0205030705" r="2" />
	<circle cx="500.0000000000" cy="-866.0254038000" r="2" />
	<circle cx="499.9999999999" cy="-866.0254037987" r="2" />
	<circle cx="285.2112288067" cy="-165.0536756230" r="2" />
	<circle cx="299.4822321339" cy="-113.5250952028" r="2" />
	<circle cx="231.6651964834" cy="-128.7379647775" r="2" />
	<circle cx="0.0000000000" cy="-0.0000000000" r="2" />
	<circle cx="466.8736989157" cy="-279.3402577724" r="2" />
	<circle cx="512.1641673743" cy="-291.4202131838" r="2" />
	<circle cx="0.0000000002" cy="-0.0000000001" r="2" />
	<circle cx="1000.0000000000" cy="-0.0000000000" r="2" />
	<circle cx="999.9998919528" cy="-0.0000743675" r="2" />
	<circle cx="726.6516781711" cy="-124.4809743244" r="2" />
	<circle cx="472.9744924151" cy="-272.7981307188" r="2" />
	<circle cx="988.6558592097" cy="-1.6050431920" r="2" />
	<circle cx="411.5367892278" cy="-605.5942969024" r="2" />
	<circle cx="768.1978199463" cy="-134.4013440805" r="2" />
	<circle cx="381.0351184435" cy="-220.0089440589" r="2" />
	<circle cx="511.4431502936" cy="-294.1260053764" r="2" />
	<circle cx="566.5143812993" cy="-251.0101819717" r="2" />
	<circle cx="500.1075562513" cy="-495.3076462051" r="2" />
	<circle cx="524.7350003756" cy="-412.2241928741" r="2" />
	<circle cx="997.7928189354" cy="-1.2854118883" r="2" />
	<circle cx="1000.0000000000" cy="-0.0000000000" r="2" />
	<circle cx="999.9999999887" cy="-0.0000000065" r="2" />
	<circle cx="499.5058523073" cy="-415.6956810661" r="2" />
	<circle cx="507.7573884708" cy="-281.3644438760" r="2" />
	<circle cx="413.5370466089" cy="-238.6183453561" r="2" />
	<circle cx="221.8108843043" cy="-127.4085098240" r="2" />
	<circle cx="459.0497096192" cy="-489.8993759910" r="2" />
	<circle cx="644.7825049776" cy="-204.0463972848" r="2" />
	<circle cx="494.4396016674" cy="-381.7269558704" r="2" />
	<circle cx="1.0640984449" cy="-0.7724600472" r="2" />
	<circle cx="437.0040036582" cy="-250.2235350348" r="2" />
	<circle cx="572.9182811470" cy="-243.5614405404" r="2" />
	<circle cx="478.6351917224" cy="-287.2020921612" r="2" />
	<circle cx="0.0000000000" cy="-0.0000000000" r="2" />
	<circle cx="704.0065974843" cy="-90.1914739599" r="2" />
	<circle cx="399.9249539544" cy="-233.5605635322" r="2" />
	<circle cx="509.6134365438" cy="-292.4459981495" r="2" />
	<circle cx="522.4790574156" cy="-309.9111161721" r="2" />
	<circle cx="0.0481235065" cy="-0.0130154240" r="2" />
	<circle cx="0.0000000000" cy="-0.0000000000" r="2" />
	<circle cx="802.9897802051" cy="-74.7748079938" r="2" />
	<circle cx="372.4428825061" cy="-202.2843249875" r="2" />
	<circle cx="506.4025139739" cy="-348.4429447053" r="2" />
	<circle cx="542.3482682482" cy="-271.8285427481" r="2" />
	<circle cx="1000.0000000000" cy="-0.0000000000" r="2" />
	<circle cx="517.0079782980" cy="-256.1897104316" r="2" />
	<circle cx="496.7295875170" cy="-336.6375873550" r="2" />
	<circle cx="0.0000000000" cy="-0.0000000000" r="2" />
	<circle cx="484.9839771817" cy="-439.9059170779" r="2" />
	<circle cx="498.9421794608" cy="-414.9464463993" r="2" />
	<circle cx="999.4054869253" cy="-0.3623329330" r="2" />
	<circle cx="761.9130056410" cy="-192.5972624397" r="2" />
	<circle cx="474.8237237479" cy="-322.1694259555" r="2" />
	<circle cx="500.0758441438" cy="-381.0631829653" r="2" />
	<circle cx="516.9650582817" cy="-360.0441221411" r="2" />
	<circle cx="568.7484932269" cy="-242.6825567656" r="2" />
	<circle cx="532.2712922083" cy="-282.5609377039" r="2" />
	<circle cx="500.6374186146" cy="-287.3202017193" r="2" />
	<circle cx="583.4286300335" cy="-240.5976930659" r="2" />
	<circle cx="700.5281268686" cy="-172.1140046346" r="2" />
	<circle cx="754.9489453619" cy="-141.5091848286" r="2" />
	<circle cx="461.3819804715" cy="-571.5128803165" r="2" />
	<circle cx="999.9999996053" cy="-0.0000002279" r="2" />
	<circle cx="500.0000020138" cy="-866.0253796006" r="2" />
	<circle cx="0.0000000000" cy="-0.0000000000" r="2" />
	<circle cx="527.7028187898" cy="-276.6126196001" r="2" />
	<circle cx="187.8788314962" cy="-116.5248575773" r="2" />
	<circle cx="950.7733710737" cy="-27.0683545318" r="2" />
	<circle cx="420.2780074059" cy="-306.6778823432" r="2" />
	<circle cx="561.3212445258" cy="-245.7160646070" r="2" />
	<circle cx="595.3110034932" cy="-151.3722831681" r="2" />
	<circle cx="511.6736755127" cy="-558.2658184051" r="2" />
	<circle cx="499.9999286485" cy="-866.0170953444" r="2" />
	<circle cx="913.4829011028" cy="-41.9208525800" r="2" />
	<circle cx="999.9999999985" cy="-0.0000000009" r="2" />
	<circle cx="524.2156236686" cy="-256.5201274421" r="2" />
	<circle cx="381.1499356188" cy="-219.9849258015" r="2" />
	<circle cx="546.4521785724" cy="-305.2984864758" r="2" />
	<circle cx="574.8272688827" cy="-331.1671977464" r="2" />
	<circle cx="499.5089359031" cy="-508.7225354258" r="2" />
	<circle cx="762.5067344271" cy="-84.8383770595" r="2" />
	<circle cx="184.9052396240" cy="-106.9389194459" r="2" />
	<circle cx="702.9198344164" cy="-171.3612127500" r="2" />
	<circle cx="496.1673155042" cy="-238.2606104658" r="2" />
	<circle cx="610.0884237470" cy="-270.3850855047" r="2" />
	<circle cx="499.9999999997" cy="-866.0254037961" r="2" />
	<circle cx="660.0600762799" cy="-197.9772685691" r="2" />
	<circle cx="613.0160413729" cy="-225.0001803116" r="2" />
	<circle cx="526.7982135024" cy="-426.2936392868" r="2" />
	<circle cx="511.3874626703" cy="-263.8644000130" r="2" />
	<circle cx="436.1552604270" cy="-253.0292535501" r="2" />
	<circle cx="749.7947880133" cy="-432.8942227042" r="2" />
	<circle cx="499.4118099290" cy="-286.6202752595" r="2" />
	<circle cx="999.9383587101" cy="-0.0516625089" r="2" />
	<circle cx="500.5557705409" cy="-307.0347664855" r="2" />
	<circle cx="31.9357262679" cy="-35.2825335290" r="2" />
	<circle cx="600.5350866553" cy="-255.0934207545" r="2" />
	<circle cx="30.1363142542" cy="-12.8304348687" r="2" />
	<circle cx="628.7622534467" cy="-245.8707356652" r="2" />
	<circle cx="498.7450780610" cy="-301.8847817456" r="2" />
	<circle cx="298.3708416037" cy="-174.1588298006" r="2" />
	<circle cx="967.3352262573" cy="-14.3403462489" r="2" />
	<circle cx="513.1499865467" cy="-373.4096755987" r="2" />
	<circle cx="567.7334813714" cy="-397.5729591445" r="2" />
	<circle cx="0.0630810021" cy="-0.0643546076" r="2" />
	<circle cx="679.8814760866" cy="-179.4768422744" r="2" />
	<circle cx="999.9989053540" cy="-0.0005952401" r="2" />
	<circle cx="499.2663522313" cy="-837.6839220839" r="2" />
	<circle cx="535.3606760939" cy="-261.0460139178" r="2" />
	<circle cx="111.9617516516" cy="-128.5689587444" r="2" />
	<circle cx="500.0000000000" cy="-866.0254038000" r="2" />
	<circle cx="439.5157316137" cy="-257.4499878723" r="2" />
	<circle cx="1000.0000000000" cy="-0.0000000000" r="2" />
	<circle cx="620.6901978690" cy="-219.0242898342" r="2" />
	<circle cx="999.9999999989" cy="-0.0000000008" r="2" />
	<circle cx="395.1853492228" cy="-243.1613765270" r="2" />
	<circle cx="380.1672424145" cy="-459.5437368249" r="2" />
	<circle cx="507.8303642074" cy="-291.2306305017" r="2" />
	<circle cx="487.7673391276" cy="-283.7861964742" r="2" />
	<circle cx="460.3788173769" cy="-250.6206861059" r="2" />
	<circle cx="661.0370709234" cy="-202.3278062296" r="2" />
	<circle cx="499.8809815954" cy="-462.9646373040" r="2" />
	<circle cx="500.0873818173" cy="-740.5823308911" r="2" />
	<circle cx="500.0000000000" cy="-866.0254037998" r="2" />
	<circle cx="500.0000000000" cy="-866.0254037439" r="2" />
	<circle cx="504.7943580587" cy="-306.4711495316" r="2" />
	<circle cx="561.9489273637" cy="-525.9107730172" r="2" />
	<circle cx="0.0000000000" cy="-0.0000000000" r="2" />
	<circle cx="450.5402031659" cy="-406.9107915928" r="2" />
	<circle cx="500.0000000033" cy="-866.0254035797" r="2" />
	<circle cx="444.1559964990" cy="-275.6992353446" r="2" />
	<circle cx="622.3261739160" cy="-217.8502477761" r="2" />
	<circle cx="505.2770307720" cy="-280.3373497256" r="2" />
	<circle cx="426.8742228636" cy="-421.1193471754" r="2" />
	<circle cx="582.9827198278" cy="-173.2620391368" r="2" />
	<circle cx="529.6991118228" cy="-413.1793605666" r="2" />
	<circle cx="535.0803899465" cy="-268.8263833702" r="2" />
	<circle cx="224.0764306243" cy="-129.6318932950" r="2" />
	<circle cx="428.6336156804" cy="-198.5388615478" r="2" />
	<circle cx="498.9002408857" cy="-351.7665078787" r="2" />
	<circle cx="475.7094337987" cy="-256.7348782823" r="2" />
	<circle cx="642.8976566643" cy="-208.9464424649" r="2" />
	<circle cx="476.1982145513" cy="-385.8257743619" r="2" />
	<circle cx="904.9604630884" cy="-49.9076440907" r="2" />
	<circle cx="653.3035186549" cy="-180.4758533049" r="2" />
	<circle cx="499.1141355549" cy="-293.9573872110" r="2" />
	<circle cx="545.3059455025" cy="-238.0018257130" r="2" />
	<circle cx="1000.0000000000" cy="-0.0000000000" r="2" />
	<circle cx="375.3835528476" cy="-94.4852036508" r="2" />
	<circle cx="1000.0000000000" cy="-0.0000000000" r="2" />
	<circle cx="0.0000029900" cy="-0.0000027757" r="2" />
	<circle cx="463.3796335733" cy="-346.9339624089" r="2" />
	<circle cx="575.3882638475" cy="-250.9664376116" r="2" />
	<circle cx="500.0000000046" cy="-866.0254037820" r="2" />
	<circle cx="0.0000001188" cy="-0.0000000686" r="2" />
	<circle cx="579.4816020285" cy="-212.2061536271" r="2" />
	<circle cx="500.0000000000" cy="-866.0254038000" r="2" />
	<circle cx="502.8709551394" cy="-296.2909604646" r="2" />
	<circle cx="21.0498498030" cy="-10.1985659298" r="2" />
	<circle cx="437.1233841173" cy="-252.3312363818" r="2" />
	<circle cx="501.9130004764" cy="-287.6907178749" r="2" />
	<circle cx="966.2249522328" cy="-26.0195984919" r="2" />
	<circle cx="304.5373795219" cy="-175.6263787316" r="2" />
	<circle cx="392.0024682771" cy="-139.6837374835" r="2" />
	<circle cx="0.0019810485" cy="-0.0007407864" r="2" />
	<circle cx="501.9471383677" cy="-272.0625835400" r="2" />
	<circle cx="593.3722689784" cy="-262.8748956655" r="2" />
	<circle cx="610.9730159562" cy="-216.1051942670" r="2" />
	<circle cx="500.0659855057" cy="-329.0271016801" r="2" />
	<circle cx="492.3846838413" cy="-805.9858365558" r="2" />
	<circle cx="500.0000000000" cy="-866.0254037944" r="2" />
	<circle cx="999.9999999891" cy="-0.0000000125" r="2" />
	<circle cx="499.9830899675" cy="-400.7144595232" r="2" />
	<circle cx="500.0767786632" cy="-865.6445427699" r="2" />
	<circle cx="0.0000000004" cy="-0.0000000002" r="2" />
	<circle cx="0.0000000020" cy="-0.0000000011" r="2" />
	<circle cx="999.9499109932" cy="-0.0474156539" r="2" />
	<circle cx="292.4376277167" cy="-169.2375569141" r="2" />
	<circle cx="640.9279216951" cy="-238.5621978546" r="2" />
	<circle cx="614.8168743651" cy="-222.4329741820" r="2" />
	<circle cx="470.5364275586" cy="-296.2793263146" r="2" />
	<circle cx="500.3876155743" cy="-461.5629897109" r="2" />
	<circle cx="335.3613345301" cy="-194.1171262466" r="2" />
	<circle cx="0.0000000000" cy="-0.0000000000" r="2" />
	<circle cx="498.4675706780" cy="-355.8302443545" r="2" />
	<circle cx="489.1234736770" cy="-284.0927459101" r="2" />
	<circle cx="602.4796447925" cy="-89.4006262711" r="2" />
	<circle cx="0.0001169432" cy="-0.0000613559" r="2" />
	<circle cx="892.0064059359" cy="-61.9883227414" r="2" />
	<circle cx="500.0000004834" cy="-866.0253974841" r="2" />
	<circle cx="495.0572537211" cy="-341.4882593116" r="2" />
	<circle cx="451.8456477995" cy="-336.5412319962" r="2" />
	<circle cx="503.6330259527" cy="-289.3645432654" r="2" />
	<circle cx="0.0000000000" cy="-0.0000000000" r="2" />
	<circle cx="491.6040168448" cy="-283.6034214696" r="2" />
	<circle cx="500.0000000000" cy="-866.0254038000" r="2" />
	<circle cx="500.0000063980" cy="-866.0253553097" r="2" />
	<circle cx="496.8873107189" cy="-441.8794178347" r="2" />
	<circle cx="498.9484150763" cy="-784.9283083138" r="2" />
	<circle cx="501.5674298458" cy="-290.2627743249" r="2" />
	<circle cx="500.0106576951" cy="-865.3091321746" r="2" />
	<circle cx="500.0000000000" cy="-866.0254036376" r="2" />
	<circle cx="498.7743665161" cy="-602.2193402814" r="2" />
	<circle cx="530.6073763856" cy="-306.6962915411" r="2" />
	<circle cx="999.9115385835" cy="-0.0734751837" r="2" />
	<circle cx="0.0000000001" cy="-0.0000000001" r="2" />
	<circle cx="509.4963346183" cy="-287.0771744543" r="2" />
	<circle cx="501.9328519682" cy="-283.9527558710" r="2" />
	<circle cx="499.4610527337" cy="-284.9923034903" r="2" />
	<circle cx="0.0112469907" cy="-0.0072115823" r="2" />
	<circle cx="373.1336328057" cy="-221.3299698963" r="2" />
	<circle cx="681.6851411595" cy="-182.9309616047" r="2" />
	<circle cx="484.2132222863" cy="-273.6475686243" r="2" />
	<circle cx="691.0896482509" cy="-124.0266755744" r="2" />
	<circle cx="0.0016924437" cy="-0.0019404676" r="2" />
	<circle cx="500.0000177873" cy="-866.0252491376" r="2" />
	<circle cx="500.0000000000" cy="-866.0254038000" r="2" />
	<circle cx="999.9999999577" cy="-0.0000000258" r="2" />
	<circle cx="402.0269787881" cy="-235.7852290505" r="2" />
	<circle cx="498.0184625493" cy="-335.8997211908" r="2" />
	<circle cx="6.5231545829" cy="-3.5077576141" r="2" />
	<circle cx="483.7204851077" cy="-579.4036606376" r="2" />
	<circle cx="536.1824630457" cy="-268.5670690317" r="2" />
	<circle cx="587.2092558278" cy="-235.6257845177" r="2" />
	<circle cx="497.3806389812" cy="-253.7734151937" r="2" />
	<circle cx="998.9392641924" cy="-0.7666285730" r="2" />
	<circle cx="517.4065210927" cy="-279.4175775257" r="2" />
	<circle cx="449.5635281070" cy="-263.9177651072" r="2" />
	<circle cx="538.1607832872" cy="-378.5965879882" r="2" />
	<circle cx="178.6282460260" cy="-106.7883403154" r="2" />
	<circle cx="396.4750511955" cy="-224.1329284033" r="2" />
	<circle cx="500.0000000000" cy="-866.0254038000" r="2" />
	<circle cx="999.9997767487" cy="-0.0001737440" r="2" />
	<circle cx="500.2226338992" cy="-526.7926412789" r="2" />
	<circle cx="999.9999999996" cy="-0.0000000002" r="2" />
	<circle cx="692.6789238282" cy="-175.5626478636" r="2" />
	<circle cx="500.0000000000" cy="-866.0254038000" r="2" />
	<circle cx="543.3489999080" cy="-263.5305440416" r="2" />
	<circle cx="424.5968965315" cy="-245.0236730533" r="2" />
	<circle cx="65.0144015202" cy="-37.8106803370" r="2" />
	<circle cx="0.0000000019" cy="-0.0000000013" r="2" />
	<circle cx="350.0309970306" cy="-203.5549548465" r="2" />
	<circle cx="491.9837096738" cy="-672.1241349646" r="2" />
	<circle cx="1000.0000000000" cy="-0.0000000000" r="2" />
	<circle cx="0.0003278979" cy="-0.0001514578" r="2" />
	<circle cx="652.9989458666" cy="-587.3999692228" r="2" />
	<circle cx="621.2294445612" cy="-219.6401580945" r="2" />
	<circle cx="502.2483059781" cy="-473.3610884804" r="2" />
	<circle cx="309.6759896339" cy="-188.3060506278" r="2" />
	<circle cx="524.5491618478" cy="-421.3124389467" r="2" />
	<circle cx="528.7154857259" cy="-264.0436299962" r="2" />
	<circle cx="500.0000000000" cy="-866.0254037999" r="2" />
	<circle cx="0.0000001254" cy="-0.0000000828" r="2" />
	<circle cx="497.1396120522" cy="-303.7870663809" r="2" />
	<circle cx="626.2323818088" cy="-139.2219904448" r="2" />
	<circle cx="499.5742148612" cy="-314.2026073990" r="2" />
	<circle cx="564.5931583969" cy="-246.1313586393" r="2" />
	<circle cx="499.9253924573" cy="-475.7099080281" r="2" />
	<circle cx="733.5306980745" cy="-163.0867591054" r="2" />
	<circle cx="0.0000009046" cy="-0.0000005697" r="2" />
	<circle cx="215.3039816294" cy="-124.0517121222" r="2" />
	<circle cx="499.9999999946" cy="-866.0254037853" r="2" />
	<circle cx="490.6334086097" cy="-333.4017838593" r="2" />
	<circle cx="653.8808192261" cy="-199.1686583959" r="2" />
	<circle cx="477.1147716078" cy="-599.0941000496" r="2" />
	<circle cx="484.1339659005" cy="-279.9061743447" r="2" />
	<circle cx="745.7491940301" cy="-112.2970990752" r="2" />
	<circle cx="678.6848542137" cy="-163.2458020219" r="2" />
	<circle cx="1000.0000000000" cy="-0.0000000000" r="2" />
	<circle cx="710.2299693474" cy="-171.0389715682" r="2" />
	<circle cx="0.0000000010" cy="-0.0000000007" r="2" />
	<circle cx="507.2119427610" cy="-383.7311814554" r="2" />
	<circle cx="642.8213788565" cy="-206.4184668626" r="2" />
	<circle cx="644.7507757513" cy="-205.3212236635" r="2" />
	<circle cx="501.5614642385" cy="-318.7370399021" r="2" />
	<circle cx="999.9999999864" cy="-0.0000000065" r="2" />
	<circle cx="498.9142495527" cy="-848.5307041513" r="2" />
	<circle cx="600.5909349056" cy="-213.5190163837" r="2" />
	<circle cx="598.1537301212" cy="-232.2294760458" r="2" />
	<circle cx="1000.0000000000" cy="-0.0000000000" r="2" />
	<circle cx="496.0878877090" cy="-457.6921146570" r="2" />
	<circle cx="444.6809226973" cy="-257.4750861021" r="2" />
	<circle cx="501.5422045209" cy="-278.2026471709" r="2" />
	<circle cx="392.0700080354" cy="-226.3049641447" r="2" />
	<circle cx="0.0000000000" cy="-0.0000000000" r="2" />
	<circle cx="324.6705410181" cy="-364.3056074868" r="2" />
	<circle cx="499.8127918601" cy="-857.3388908154" r="2" />
	<circle cx="487.0148685487" cy="-318.6715853658" r="2" />
	<circle cx="173.9580529655" cy="-100.6535349705" r="2" />
	<circle cx="0.0007222392" cy="-0.0003584710" r="2" />
	<circle cx="500.0000000000" cy="-866.0254038000" r="2" />
	<circle cx="497.8956625060" cy="-290.7596602528" r="2" />
	<circle cx="5.1146815921" cy="-3.0892128050" r="2" />
	<circle cx="504.9091261034" cy="-286.0434939854" r="2" />
	<circle cx="493.3275275595" cy="-279.2655748388" r="2" />
	<circle cx="148.1017118122" cy="-58.4192620229" r="2" />
	<circle cx="499.7851087862" cy="-568.6220911897" r="2" />
	<circle cx="243.6934436353" cy="-118.8541434203" r="2" />
	<circle cx="0.2592763673" cy="-0.1133054463" r="2" />
	<circle cx="498.7089181196" cy="-301.6899121212" r="2" />
	<circle cx="498.6072487791" cy="-509.4767228789" r="2" />
	<circle cx="498.6907727455" cy="-493.5113283319" r="2" />
	<circle cx="0.0000000000" cy="-0.0000000000" r="2" />
	<circle cx="300.1269918719" cy="-172.9657983667" r="2" />
	<circle cx="489.9892407318" cy="-245.9798360272" r="2" />
	<circle cx="0.0000000000" cy="-0.0000000000" r="2" />
	<circle cx="546.6404415587" cy="-309.8584835529" r="2" />
	<circle cx="592.3153980548" cy="-242.5476358400" r="2" />
	<circle cx="0.0000000000" cy="-0.0000000000" r="2" />
	<circle cx="495.0014072164" cy="-831.7136962710" r="2" />
	<circle cx="495.5671684120" cy="-254.1353789088" r="2" />
	<circle cx="0.0000000015" cy="-0.0000000009" r="2" />
	<circle cx="503.1362856222" cy="-508.2963270659" r="2" />
	<circle cx="499.9999127681" cy="-866.0251209399" r="2" />
	<circle cx="482.9759652385" cy="-634.7730885148" r="2" />
	<circle cx="234.4236467476" cy="-155.5876869013" r="2" />
	<circle cx="1000.0000000000" cy="-0.0000000000" r="2" />
	<circle cx="505.1432160532" cy="-261.7586756414" r="2" />
	<circle cx="705.3015112166" cy="-281.6849067894" r="2" />
	<circle cx="451.6576948468" cy="-368.7013689399" r="2" />
	<circle cx="0.0000000011" cy="-0.0000000005" r="2" />
	<circle cx="500.0000000000" cy="-866.0254038000" r="2" />
	<circle cx="492.1449552405" cy="-350.7813483608" r="2" />
	<circle cx="367.8271310674" cy="-214.9524161337" r="2" />
	<circle cx="503.8113418528" cy="-289.5709323973" r="2" />
	<circle cx="403.5148231587" cy="-198.5918731462" r="2" />
	<circle cx="584.9387028712" cy="-98.9346659762" r="2" />
	<circle cx="456.8768108329" cy="-230.3980338147" r="2" />
	<circle cx="434.5273682451" cy="-287.7730357576" r="2" />
	<circle cx="483.7905049910" cy="-258.6786523146" r="2" />
	<circle cx="499.5921620443" cy="-529.0082385604" r="2" />
	<circle cx="500.0000000480" cy="-866.0254033449" r="2" />
	<circle cx="498.9966263791" cy="-486.4226144573" r="2" />
	<circle cx="686.4246122903" cy="-181.4406470012" r="2" />
	<circle cx="388.7791999437" cy="-297.0280601817" r="2" />
	<circle cx="999.9999999999" cy="-0.0000000001" r="2" />
	<circle cx="497.7167809321" cy="-857.0149312141" r="2" />
	<circle cx="999.9999999962" cy="-0.0000000028" r="2" />
	<circle cx="0.0000490526" cy="-0.0000136494" r="2" />
	<circle cx="500.0000000000" cy="-866.0254038000" r="2" />
	<circle cx="1000.0000000000" cy="-0.0000000000" r="2" />
	<circle cx="499.9980201426" cy="-340.8273996375" r="2" />
	<circle cx="345.3499912891" cy="-232.0847849699" r="2" />
	<circle cx="499.1796841689" cy="-334.5734006712" r="2" />
	<circle cx="534.9036653299" cy="-287.5826916823" r="2" />
	<circle cx="490.3050913366" cy="-293.4185947010" r="2" />
	<circle cx="819.1918889407" cy="-103.8136822131" r="2" />
	<circle cx="999.9999999999" cy="-0.0000000001" r="2" />
	<circle cx="614.0061405633" cy="-205.5693618775" r="2" />
	<circle cx="376.7697959481" cy="-263.1204408540" r="2" />
	<circle cx="496.9518510842" cy="-99.3569602654" r="2" />
	<circle cx="484.2946030595" cy="-287.8718185682" r="2" />
	<circle cx="526.0208044896" cy="-273.7045463818" r="2" />
	<circle cx="472.7395625756" cy="-286.9913122963" r="2" />
	<circle cx="252.5435565965" cy="-145.8249170692" r="2" />
	<circle cx="500.0000000020" cy="-866.0254037848" r="2" />
	<circle cx="499.9999999981" cy="-866.0254037914" r="2" />
	<circle cx="470.8776982416" cy="-295.8211523010" r="2" />
	<circle cx="912.2747139292" cy="-50.1481822334" r="2" />
	<circle cx="500.0074995243" cy="-865.9402516879" r="2" />
	<circle cx="0.0000000180" cy="-0.0000000096" r="2" />
	<circle cx="0.1150478377" cy="-0.1082592080" r="2" />
	<circle cx="464.7104397843" cy="-568.9655265301" r="2" />
	<circle cx="520.8664951646" cy="-278.4117546860" r="2" />
	<circle cx="473.2751589109" cy="-283.3485440955" r="2" />
	<circle cx="334.7986125726" cy="-193.1002079767" r="2" />
	<circle cx="484.5766546969" cy="-430.0194356979" r="2" />
	<circle cx="499.7916567753" cy="-407.5355138292" r="2" />
	<circle cx="499.9668324386" cy="-611.0844004034" r="2" />
	<circle cx="586.4893922675" cy="-239.1543494591" r="2" />
	<circle cx="235.5381942195" cy="-135.3308856704" r="2" />
	<circle cx="694.0864512945" cy="-177.3333382951" r="2" />
	<circle cx="420.6644421060" cy="-271.8524568615" r="2" />
	<circle cx="499.4209500669" cy="-855.4784240519" r="2" />
	<circle cx="499.2700372294" cy="-295.3445958662" r="2" />
	<circle cx="457.6209056858" cy="-316.1240684747" r="2" />
	<circle cx="498.8094009587" cy="-278.1683969442" r="2" />
	<circle cx="414.6496328855" cy="-536.6908367458" r="2" />
	<circle cx="490.3769905052" cy="-274.9814882439" r="2" />
	<circle cx="499.9889532543" cy="-865.9662750167" r="2" />
	<circle cx="690.6703809473" cy="-202.2716777161" r="2" />
	<circle cx="502.5301844046" cy="-485.8313875911" r="2" />
  </g>
  <g id="fig2" transform="translate(-550.0,1000)">
	<polygon points="0.0,-0.0 1000.0,-0.0 500.0,-866.0254038" />
	<line
	   id="line2-1"
	   y2="-0.0"
	   x2="500"
	   y1="-288.6751346"
	   x1="500" />
	<line
	   id="line2-2"
	   y2="-433.0127019"
	   x2="250"
	   y1="-288.6751346"
	   x1="500" />
	<line
	   id="line2-3"
	   y2="-433.0127019"
	   x2="750"
	   y1="-288.6751346"
	   x1="500" />
	<text
	   x="440"
	   y="-500"
	   id="up_2">33.2%</text>
	<text
	   x="250"
	   y="-150"
	   id="down_left_2">32.6%</text>
	<text
	   x="630"
	   y="-150"
	   id="down_right_2">34.2%</text>
  </g>
  <g id="fig3" transform="translate(550,1000)">
	<polygon points="0.0,-0.0 1000.0,-0.0 500.0,-866.0254038" />
	<polygon id="triangle3b" points="250,-144.3375673 750,-144.3375673 500,-577.3502692" />
	<line
	   id="line3-1"
	   x1="125"
	   y1="-216.5063509"
	   x2="250"
	   y2="-144.3375673" />
	<line
	   id="line3-2"
	   x1="375"
	   y1="-649.5190528"
	   x2="500"
	   y2="-577.3502692" />
	<line
	   id="line3-3"
	   x1="625"
	   y1="-649.5190528"
	   x2="500"
	   y2="-577.3502692" />
	<line
	   id="line3-4"
	   x1="875"
	   y1="-216.5063509"
	   x2="750"
	   y2="-144.3375673" />
	<line
	   id="line3-5"
	   x1="750"
	   y1="-0.0"
	   x2="750"
	   y2="-144.3375673" />
	<line
	   id="line3-6"
	   x1="250"
	   y1="-0.0"
	   x2="250"
	   y2="-144.3375673" />
	<text
	   x="500"
	   y="-660"
	   text-anchor="middle"
	   id="up_3">12.6%</text>
	<text
	   y="-50"
	   x="70"
	   id="down_left_3">12.6%</text>
	<text
	   y="-50"
	   x="770"
	   id="down_right_3">11.2%</text>
	<text
	   x="500"
	   y="-50"
	   text-anchor="middle"
	   id="down_side_3">2.2%</text>
	<text
	   x="500"
	   y="-280"
	   text-anchor="middle"
	   id="center_3">58.0%</text>
	<text
	   x="685.0"
	   y="-390.8439"
	   text-anchor="middle"
	   transform="rotate(60,665.0,-380.8439)"
	   id="right_side_3">1.4%</text>
	<text
	   x="315.0"
	   y="-390.8439"
	   text-anchor="middle"
	   transform="rotate(-60,335.0,-380.8439)"
	   id="left_side_3">2.0%</text>
  </g>
</g></g>
</svg>
