<?xml version="1.0" encoding="UTF-8" standalone="no"?>
<!DOCTYPE svg PUBLIC "-//W3C//DTD SVG 1.1//EN" "http://www.w3.org/Graphics/SVG/1.1/DTD/svg11.dtd">
<svg
   xmlns:svg="http://www.w3.org/2000/svg"
   xmlns="http://www.w3.org/2000/svg"
   xmlns:xlink="http://www.w3.org/1999/xlink"
   version="1.1"
   baseProfile="full"
   id="body"
   width="800px"
   height="800px"
   viewBox="0 0 1000 1000"
   preserveAspectRatio="none">
  <defs>
    <style type="text/css"><![CDATA[
      circle{ stroke: none; }
      polygon{ stroke: black; stroke-width: 2px; fill: none; }
      line{ stroke: black; stroke-width: 2px; }
      text{ font-size:50px; }
    ]]></style>
  </defs>
  <title
     id="title1">SVG drawing</title>
<g transform="scale(0.45)"><g transform="translate(600,1050)">
  <g id="fig1">
	<polygon points="0.0,-0.0 1000.0,-0.0 500,-866.0254038" />
	<circle cx="0.0000000000" cy="-0.0000000000" r="2" />
	<circle cx="500.0000000000" cy="-866.0254038000" r="2" />
	<circle cx="678.5117142672" cy="-149.3615345428" r="2" />
	<circle cx="314.5364511664" cy="-362.9287218341" r="2" />
	<circle cx="303.8599331848" cy="-183.9767893140" r="2" />
	<circle cx="0.0000000259" cy="-0.0000000130" r="2" />
	<circle cx="888.3036329308" cy="-63.8717532482" r="2" />
	<circle cx="365.8895415520" cy="-448.3303958626" r="2" />
	<circle cx="834.6452522536" cy="-104.4612342314" r="2" />
	<circle cx="500.0000000367" cy="-866.0210230458" r="2" />
	<circle cx="1000.0000000000" cy="-0.0000000000" r="2" />
	<circle cx="999.8530801265" cy="-0.1159946824" r="2" />
	<circle cx="0.0000000000" cy="-0.0000000000" r="2" />
	<circle cx="500.0000005554" cy="-865.9757325057" r="2" />
	<circle cx="1000.0000000000" cy="-0.0000000000" r="2" />
	<circle cx="500.0000000003" cy="-866.0253998956" r="2" />
	<circle cx="308.7264225938" cy="-228.3588994980" r="2" />
	<circle cx="999.9999995596" cy="-0.0000007204" r="2" />
	<circle cx="600.4849661299" cy="-185.5431350011" r="2" />
	<circle cx="500.0000000000" cy="-866.0254037767" r="2" />
	<circle cx="244.1776498437" cy="-96.3402338977" r="2" />
	<circle cx="500.0001660527" cy="-864.8607131793" r="2" />
	<circle cx="1000.0000000000" cy="-0.0000000000" r="2" />
	<circle cx="0.0043070965" cy="-0.0024920128" r="2" />
	<circle cx="500.0000000000" cy="-866.0254038000" r="2" />
	<circle cx="0.0373833153" cy="-0.0257455742" r="2" />
	<circle cx="500.0000000000" cy="-866.0254038000" r="2" />
	<circle cx="0.0000000000" cy="-0.0000000000" r="2" />
	<circle cx="999.8751095648" cy="-0.0643973799" r="2" />
	<circle cx="500.0000000932" cy="-866.0253989199" r="2" />
	<circle cx="0.0000000000" cy="-0.0000000000" r="2" />
	<circle cx="499.9999999985" cy="-866.0253914397" r="2" />
	<circle cx="500.1268292234" cy="-864.8692001756" r="2" />
	<circle cx="999.9999168554" cy="-0.0000324189" r="2" />
	<circle cx="500.0210308434" cy="-859.7600294250" r="2" />
	<circle cx="966.2150334348" cy="-19.9681659197" r="2" />
	<circle cx="998.0033643693" cy="-1.1346378827" r="2" />
	<circle cx="550.5567255636" cy="-418.5277327884" r="2" />
	<circle cx="1000.0000000000" cy="-0.0000000000" r="2" />
	<circle cx="0.0000001120" cy="-0.0000000719" r="2" />
	<circle cx="499.9999999987" cy="-866.0254036705" r="2" />
	<circle cx="499.9838977278" cy="-863.9458696090" r="2" />
	<circle cx="402.5991194135" cy="-514.3829115667" r="2" />
	<circle cx="570.1211131001" cy="-206.2524000970" r="2" />
	<circle cx="0.0012253423" cy="-0.0006121709" r="2" />
	<circle cx="500.0000000000" cy="-866.0254038000" r="2" />
	<circle cx="469.1440689185" cy="-642.1845672641" r="2" />
	<circle cx="1000.0000000000" cy="-0.0000000000" r="2" />
	<circle cx="999.9861787801" cy="-0.0212616382" r="2" />
	<circle cx="444.7580787686" cy="-193.8837862928" r="2" />
	<circle cx="999.4580512105" cy="-0.3143911537" r="2" />
	<circle cx="448.8705260942" cy="-279.9712660372" r="2" />
	<circle cx="676.0953840426" cy="-315.4744151210" r="2" />
	<circle cx="500.0000000000" cy="-866.0254038000" r="2" />
	<circle cx="0.0048223599" cy="-0.0027653050" r="2" />
	<circle cx="0.0000434922" cy="-0.0000206415" r="2" />
	<circle cx="0.0000000000" cy="-0.0000000000" r="2" />
	<circle cx="1000.0000000000" cy="-0.0000000000" r="2" />
	<circle cx="499.9999998523" cy="-866.0253328121" r="2" />
	<circle cx="999.9999998898" cy="-0.0000000412" r="2" />
	<circle cx="500.0000000000" cy="-866.0254038000" r="2" />
	<circle cx="999.9975065722" cy="-0.0009602612" r="2" />
	<circle cx="0.0000000000" cy="-0.0000000000" r="2" />
	<circle cx="500.0082675784" cy="-862.3059488911" r="2" />
	<circle cx="644.5449469101" cy="-491.9245572904" r="2" />
	<circle cx="999.3283222519" cy="-0.3456387053" r="2" />
	<circle cx="542.8654853810" cy="-351.5705559528" r="2" />
	<circle cx="0.0017438952" cy="-0.0000239320" r="2" />
	<circle cx="500.0000000000" cy="-866.0254038000" r="2" />
	<circle cx="513.6443470014" cy="-482.4541812379" r="2" />
	<circle cx="368.5883989182" cy="-441.1664139714" r="2" />
	<circle cx="468.2348222512" cy="-561.4630284655" r="2" />
	<circle cx="500.0000000000" cy="-866.0254038000" r="2" />
	<circle cx="499.5564610305" cy="-854.8777356002" r="2" />
	<circle cx="0.0155270696" cy="-0.0106820966" r="2" />
	<circle cx="861.2628408958" cy="-84.2138175988" r="2" />
	<circle cx="500.0000734185" cy="-865.9777032408" r="2" />
	<circle cx="0.0002403735" cy="-0.0002110162" r="2" />
	<circle cx="999.9999999643" cy="-0.0000000196" r="2" />
	<circle cx="500.0000000000" cy="-866.0254038000" r="2" />
	<circle cx="710.6923191738" cy="-163.9967875316" r="2" />
	<circle cx="499.8136797676" cy="-863.1541375530" r="2" />
	<circle cx="999.9999999874" cy="-0.0000000073" r="2" />
	<circle cx="545.3115962416" cy="-341.4123245833" r="2" />
	<circle cx="548.3381996863" cy="-194.3430350801" r="2" />
	<circle cx="0.0000222811" cy="-0.0000128617" r="2" />
	<circle cx="500.0000000000" cy="-866.0254038000" r="2" />
	<circle cx="499.9999999197" cy="-866.0254033543" r="2" />
	<circle cx="468.1176772991" cy="-657.1976232706" r="2" />
	<circle cx="994.2900597207" cy="-8.2618543923" r="2" />
	<circle cx="0.0000000000" cy="-0.0000000000" r="2" />
	<circle cx="448.8789001805" cy="-534.9547807120" r="2" />
	<circle cx="999.9999695451" cy="-0.0000169213" r="2" />
	<circle cx="0.0000000126" cy="-0.0000000090" r="2" />
	<circle cx="318.7116899861" cy="-283.3829023834" r="2" />
	<circle cx="499.9999384095" cy="-865.9850368865" r="2" />
	<circle cx="417.8381071076" cy="-497.8616382980" r="2" />
	<circle cx="1000.0000000000" cy="-0.0000000000" r="2" />
	<circle cx="1000.0000000000" cy="-0.0000000000" r="2" />
	<circle cx="499.9044104317" cy="-865.5408475421" r="2" />
	<circle cx="500.0000000000" cy="-866.0254038000" r="2" />
	<circle cx="0.0000000000" cy="-0.0000000000" r="2" />
	<circle cx="0.0000000000" cy="-0.0000000000" r="2" />
	<circle cx="0.0000000000" cy="-0.0000000000" r="2" />
	<circle cx="1000.0000000000" cy="-0.0000000000" r="2" />
	<circle cx="500.0000000000" cy="-866.0254038000" r="2" />
	<circle cx="994.4946879864" cy="-6.9398954700" r="2" />
	<circle cx="423.9094757529" cy="-226.0201500491" r="2" />
	<circle cx="499.9998938547" cy="-865.9776445550" r="2" />
	<circle cx="478.9129064331" cy="-347.7206329240" r="2" />
	<circle cx="500.0000017905" cy="-866.0252488292" r="2" />
	<circle cx="1000.0000000000" cy="-0.0000000000" r="2" />
	<circle cx="500.0000000000" cy="-866.0254038000" r="2" />
	<circle cx="500.0000000000" cy="-866.0254038000" r="2" />
	<circle cx="489.6585306137" cy="-748.9463345037" r="2" />
	<circle cx="707.2649774618" cy="-170.7945900217" r="2" />
	<circle cx="999.8877829470" cy="-0.0000000431" r="2" />
	<circle cx="999.9899155319" cy="-0.0058221613" r="2" />
	<circle cx="494.9834172770" cy="-441.7464267721" r="2" />
	<circle cx="999.9999999984" cy="-0.0000000009" r="2" />
	<circle cx="1000.0000000000" cy="-0.0000000000" r="2" />
	<circle cx="671.8203777319" cy="-168.1832538385" r="2" />
	<circle cx="0.0000004809" cy="-0.0000002728" r="2" />
	<circle cx="500.0000000000" cy="-866.0254038000" r="2" />
	<circle cx="0.0002212858" cy="-0.0000715386" r="2" />
	<circle cx="499.9999999995" cy="-866.0252592989" r="2" />
	<circle cx="499.9999997585" cy="-866.0232527826" r="2" />
	<circle cx="0.0000700759" cy="-0.0000404658" r="2" />
	<circle cx="0.0000000000" cy="-0.0000000000" r="2" />
	<circle cx="991.3463949947" cy="-4.9962514638" r="2" />
	<circle cx="1000.0000000000" cy="-0.0000000000" r="2" />
	<circle cx="415.2961553736" cy="-227.9364733082" r="2" />
	<circle cx="999.9999999954" cy="-0.0000000029" r="2" />
	<circle cx="500.0000000000" cy="-866.0254037994" r="2" />
	<circle cx="999.9999999712" cy="-0.0000000092" r="2" />
	<circle cx="499.9999999999" cy="-866.0254037996" r="2" />
	<circle cx="0.0000000520" cy="-0.0000000017" r="2" />
	<circle cx="500.0000000532" cy="-866.0253972540" r="2" />
	<circle cx="0.0000000000" cy="-0.0000000000" r="2" />
	<circle cx="1000.0000000000" cy="-0.0000000000" r="2" />
	<circle cx="868.0819623232" cy="-72.5206688159" r="2" />
	<circle cx="500.0000000000" cy="-866.0254038000" r="2" />
	<circle cx="488.0580184136" cy="-520.2222410490" r="2" />
	<circle cx="993.9193219465" cy="-5.2856214283" r="2" />
	<circle cx="500.0458132271" cy="-865.7414064662" r="2" />
	<circle cx="500.0000000000" cy="-866.0254037907" r="2" />
	<circle cx="999.9999995902" cy="-0.0000002364" r="2" />
	<circle cx="0.0000000000" cy="-0.0000000000" r="2" />
	<circle cx="1000.0000000000" cy="-0.0000000000" r="2" />
	<circle cx="582.0579537133" cy="-229.3567525546" r="2" />
	<circle cx="0.0000000000" cy="-0.0000000000" r="2" />
	<circle cx="392.0686752721" cy="-554.6316011585" r="2" />
	<circle cx="661.5179729630" cy="-151.2655726641" r="2" />
	<circle cx="0.0002085131" cy="-0.0001235827" r="2" />
	<circle cx="0.0000000000" cy="-0.0000000000" r="2" />
	<circle cx="500.0754451450" cy="-864.2706182466" r="2" />
	<circle cx="814.1543482214" cy="-168.3659369230" r="2" />
	<circle cx="1000.0000000000" cy="-0.0000000000" r="2" />
	<circle cx="999.9999999135" cy="-0.0000000499" r="2" />
	<circle cx="499.9999350421" cy="-864.6951123152" r="2" />
	<circle cx="0.0000000000" cy="-0.0000000000" r="2" />
	<circle cx="998.7633847100" cy="-0.7239330288" r="2" />
	<circle cx="499.9999997917" cy="-866.0232546972" r="2" />
	<circle cx="999.9999552908" cy="-0.0000204658" r="2" />
	<circle cx="500.0000000000" cy="-866.0254038000" r="2" />
	<circle cx="500.0000000321" cy="-866.0254019745" r="2" />
	<circle cx="500.0000000000" cy="-866.0254038000" r="2" />
	<circle cx="0.0000000000" cy="-0.0000000000" r="2" />
	<circle cx="276.7681254631" cy="-341.5741004408" r="2" />
	<circle cx="499.9999533483" cy="-866.0251472452" r="2" />
	<circle cx="1000.0000000000" cy="-0.0000000000" r="2" />
	<circle cx="18.7534256557" cy="-10.8301602145" r="2" />
	<circle cx="999.9999999511" cy="-0.0000000268" r="2" />
	<circle cx="499.9999976005" cy="-866.0251353705" r="2" />
	<circle cx="1000.0000000000" cy="-0.0000000000" r="2" />
	<circle cx="570.1831476024" cy="-302.0536847345" r="2" />
	<circle cx="571.4014877515" cy="-92.7354715884" r="2" />
	<circle cx="821.4507359715" cy="-125.9046500473" r="2" />
	<circle cx="500.0000000000" cy="-866.0254038000" r="2" />
	<circle cx="501.3196512410" cy="-474.4335157368" r="2" />
	<circle cx="0.0000095653" cy="-0.0000055239" r="2" />
	<circle cx="0.0000008720" cy="-0.0000005066" r="2" />
	<circle cx="500.0000000000" cy="-866.0254029649" r="2" />
	<circle cx="613.8449117438" cy="-367.7267022518" r="2" />
	<circle cx="999.9999863593" cy="-0.0000078565" r="2" />
	<circle cx="999.9999446656" cy="-0.0000326496" r="2" />
	<circle cx="990.8345230486" cy="-4.9469309013" r="2" />
	<circle cx="499.9968667718" cy="-863.8178817612" r="2" />
	<circle cx="226.5276551356" cy="-142.9940532868" r="2" />
	<circle cx="964.7504747942" cy="-17.6560360164" r="2" />
	<circle cx="999.8426542830" cy="-0.0913233098" r="2" />
	<circle cx="0.0000000000" cy="-0.0000000000" r="2" />
	<circle cx="499.9998385654" cy="-865.9833820183" r="2" />
	<circle cx="837.2863786344" cy="-111.8052055432" r="2" />
	<circle cx="500.0533515253" cy="-852.1670829167" r="2" />
	<circle cx="0.0037934606" cy="-0.0021897378" r="2" />
	<circle cx="0.0001725019" cy="-0.0001550052" r="2" />
	<circle cx="0.0021300131" cy="-0.0012297501" r="2" />
	<circle cx="500.6947607465" cy="-857.2426735212" r="2" />
	<circle cx="369.4630185247" cy="-152.8760799663" r="2" />
	<circle cx="0.0000011680" cy="-0.0000006767" r="2" />
	<circle cx="999.9938070731" cy="-0.0034814717" r="2" />
	<circle cx="999.9999995923" cy="-0.0000002354" r="2" />
	<circle cx="0.0000000000" cy="-0.0000000000" r="2" />
	<circle cx="1000.0000000000" cy="-0.0000000000" r="2" />
	<circle cx="500.0000000028" cy="-866.0254030209" r="2" />
	<circle cx="500.0000000000" cy="-866.0254038000" r="2" />
	<circle cx="500.0000000000" cy="-866.0254037880" r="2" />
	<circle cx="543.2563134171" cy="-464.2216328694" r="2" />
	<circle cx="500.0000000000" cy="-866.0254038000" r="2" />
	<circle cx="0.0000004004" cy="-0.0000002312" r="2" />
	<circle cx="0.0000001899" cy="-0.0000001098" r="2" />
	<circle cx="500.0000061023" cy="-866.0236138026" r="2" />
	<circle cx="0.0000000000" cy="-0.0000000000" r="2" />
	<circle cx="1000.0000000000" cy="-0.0000000000" r="2" />
	<circle cx="995.7084582525" cy="-0.0000000000" r="2" />
	<circle cx="500.0000000000" cy="-866.0254038000" r="2" />
	<circle cx="844.5965925803" cy="-93.7369896682" r="2" />
	<circle cx="502.4782399628" cy="-248.8138654406" r="2" />
	<circle cx="0.0000000000" cy="-0.0000000000" r="2" />
	<circle cx="0.0007642936" cy="-0.0005638399" r="2" />
	<circle cx="999.9985594761" cy="-0.0010440841" r="2" />
	<circle cx="974.3577912543" cy="-14.8078164794" r="2" />
	<circle cx="251.1980834457" cy="-118.9629159742" r="2" />
	<circle cx="499.9967917169" cy="-865.9404526172" r="2" />
	<circle cx="1000.0000000000" cy="-0.0000000000" r="2" />
	<circle cx="561.8438341527" cy="-532.3180637688" r="2" />
	<circle cx="0.0000002291" cy="-0.0000001424" r="2" />
	<circle cx="0.0000000002" cy="-0.0000000001" r="2" />
	<circle cx="283.4463927210" cy="-201.2444185956" r="2" />
	<circle cx="270.3209210010" cy="-203.8954624645" r="2" />
	<circle cx="0.0881454681" cy="-0.0512030292" r="2" />
	<circle cx="1000.0000000000" cy="-0.0000000000" r="2" />
	<circle cx="0.0000000000" cy="-0.0000000000" r="2" />
	<circle cx="1000.0000000000" cy="-0.0000000000" r="2" />
	<circle cx="500.0000000000" cy="-866.0254038000" r="2" />
	<circle cx="0.0566320840" cy="-0.0335914795" r="2" />
	<circle cx="500.0000339175" cy="-865.3955584460" r="2" />
	<circle cx="947.0022941890" cy="-36.4194312427" r="2" />
	<circle cx="1000.0000000000" cy="-0.0000000000" r="2" />
	<circle cx="500.0000000000" cy="-866.0254038000" r="2" />
	<circle cx="951.7504934217" cy="-23.5973146040" r="2" />
	<circle cx="110.5711135851" cy="-64.3629374728" r="2" />
	<circle cx="999.3268083720" cy="-0.3685593616" r="2" />
	<circle cx="0.0000019054" cy="-0.0000009175" r="2" />
	<circle cx="499.9998718517" cy="-865.3789097873" r="2" />
	<circle cx="0.0000000000" cy="-0.0000000000" r="2" />
	<circle cx="999.9999993824" cy="-0.0000003757" r="2" />
	<circle cx="1000.0000000000" cy="-0.0000000000" r="2" />
	<circle cx="474.8197934649" cy="-547.1666450915" r="2" />
	<circle cx="1000.0000000000" cy="-0.0000000000" r="2" />
	<circle cx="999.9980854307" cy="-0.0010948490" r="2" />
	<circle cx="499.9999630057" cy="-866.0096673000" r="2" />
	<circle cx="0.0000000090" cy="-0.0000000052" r="2" />
	<circle cx="987.9962489862" cy="-7.4313224314" r="2" />
	<circle cx="1000.0000000000" cy="-0.0000000000" r="2" />
	<circle cx="0.0000036766" cy="-0.0000021654" r="2" />
	<circle cx="0.0000000000" cy="-0.0000000000" r="2" />
	<circle cx="500.0000000000" cy="-866.0254038000" r="2" />
	<circle cx="500.0031930948" cy="-863.7436814896" r="2" />
	<circle cx="1000.0000000000" cy="-0.0000000000" r="2" />
	<circle cx="992.2472994032" cy="-4.4912721524" r="2" />
	<circle cx="999.9999999997" cy="-0.0000000002" r="2" />
	<circle cx="587.3304781428" cy="-366.7532777261" r="2" />
	<circle cx="999.7260275423" cy="-0.1767750957" r="2" />
	<circle cx="0.0260520922" cy="-0.0147464708" r="2" />
	<circle cx="500.0086634958" cy="-865.9937042506" r="2" />
	<circle cx="999.9999999883" cy="-0.0000000065" r="2" />
	<circle cx="658.7436173207" cy="-267.7436976020" r="2" />
	<circle cx="0.0000000000" cy="-0.0000000000" r="2" />
	<circle cx="499.9999999409" cy="-866.0253773351" r="2" />
	<circle cx="999.9999988773" cy="-0.0000006952" r="2" />
	<circle cx="1000.0000000000" cy="-0.0000000000" r="2" />
	<circle cx="494.6672618356" cy="-775.1358573430" r="2" />
	<circle cx="499.8298739275" cy="-865.6360024782" r="2" />
	<circle cx="1000.0000000000" cy="-0.0000000000" r="2" />
	<circle cx="447.4887279727" cy="-163.9837577017" r="2" />
	<circle cx="999.9592383921" cy="-0.0235728232" r="2" />
	<circle cx="500.0000000000" cy="-866.0254038000" r="2" />
	<circle cx="490.2019256726" cy="-748.9866982166" r="2" />
	<circle cx="999.9999999859" cy="-0.0000000064" r="2" />
	<circle cx="499.9999999913" cy="-866.0254037850" r="2" />
	<circle cx="500.0000000000" cy="-866.0254038000" r="2" />
	<circle cx="0.0000000284" cy="-0.0000000164" r="2" />
	<circle cx="999.3627119905" cy="-0.4126999100" r="2" />
	<circle cx="0.0000000000" cy="-0.0000000000" r="2" />
	<circle cx="0.0000000000" cy="-0.0000000000" r="2" />
	<circle cx="915.6128709380" cy="-68.4630777756" r="2" />
	<circle cx="443.2508993011" cy="-517.1989300390" r="2" />
	<circle cx="416.0011194389" cy="-292.2278756848" r="2" />
	<circle cx="499.9967475178" cy="-865.9894885989" r="2" />
	<circle cx="464.3166216349" cy="-385.8779862935" r="2" />
	<circle cx="9.9099914644" cy="-3.3079224948" r="2" />
	<circle cx="0.0758088989" cy="-0.0611495115" r="2" />
	<circle cx="500.0000000000" cy="-866.0254038000" r="2" />
	<circle cx="1000.0000000000" cy="-0.0000000000" r="2" />
	<circle cx="499.8648824741" cy="-737.4402418799" r="2" />
	<circle cx="1000.0000000000" cy="-0.0000000000" r="2" />
	<circle cx="999.4586725559" cy="-0.3280398108" r="2" />
	<circle cx="0.0000000000" cy="-0.0000000000" r="2" />
	<circle cx="500.0000000000" cy="-866.0254038000" r="2" />
	<circle cx="500.0000000000" cy="-866.0254038000" r="2" />
	<circle cx="499.9999999024" cy="-866.0253921458" r="2" />
	<circle cx="0.0000013622" cy="-0.0000002259" r="2" />
	<circle cx="999.9999997653" cy="-0.0000001355" r="2" />
	<circle cx="500.0000000000" cy="-866.0254038000" r="2" />
	<circle cx="0.0000000000" cy="-0.0000000000" r="2" />
	<circle cx="694.7014142325" cy="-196.8458415753" r="2" />
	<circle cx="0.0000000000" cy="-0.0000000000" r="2" />
	<circle cx="500.0000000003" cy="-866.0254036295" r="2" />
	<circle cx="0.0024794647" cy="-0.0000236321" r="2" />
	<circle cx="500.0000000000" cy="-866.0254038000" r="2" />
	<circle cx="636.0802957967" cy="-181.8890283883" r="2" />
	<circle cx="500.0000000000" cy="-866.0254038000" r="2" />
	<circle cx="507.2167278852" cy="-740.2740326424" r="2" />
	<circle cx="500.0000000000" cy="-866.0254037996" r="2" />
	<circle cx="673.3895299176" cy="-116.3485307761" r="2" />
	<circle cx="999.9999087046" cy="-0.0000529558" r="2" />
	<circle cx="499.9999999973" cy="-866.0254031166" r="2" />
	<circle cx="0.0000000000" cy="-0.0000000000" r="2" />
	<circle cx="0.1712473956" cy="-0.0988788512" r="2" />
	<circle cx="1000.0000000000" cy="-0.0000000000" r="2" />
	<circle cx="0.0000170455" cy="-0.0000101964" r="2" />
	<circle cx="499.3366892771" cy="-862.2596624670" r="2" />
	<circle cx="0.0000000967" cy="-0.0000000558" r="2" />
	<circle cx="0.0000000000" cy="-0.0000000000" r="2" />
	<circle cx="1000.0000000000" cy="-0.0000000000" r="2" />
	<circle cx="999.9999999205" cy="-0.0000000300" r="2" />
	<circle cx="503.0919831763" cy="-807.4042535938" r="2" />
	<circle cx="0.0000000010" cy="-0.0000000006" r="2" />
	<circle cx="0.0000000000" cy="-0.0000000000" r="2" />
	<circle cx="999.9999960653" cy="-0.0000022711" r="2" />
	<circle cx="0.0000000000" cy="-0.0000000000" r="2" />
	<circle cx="592.6542824755" cy="-184.6221856504" r="2" />
	<circle cx="1000.0000000000" cy="-0.0000000000" r="2" />
	<circle cx="499.9999998850" cy="-866.0254025265" r="2" />
	<circle cx="0.0000000343" cy="-0.0000000406" r="2" />
	<circle cx="500.0000000000" cy="-866.0254038000" r="2" />
	<circle cx="879.8667476588" cy="-54.6522762716" r="2" />
	<circle cx="999.9985671330" cy="-0.0010657519" r="2" />
	<circle cx="999.9996257180" cy="-0.0002539948" r="2" />
	<circle cx="993.8092923050" cy="-3.5580162072" r="2" />
	<circle cx="671.1425377752" cy="-221.0154255941" r="2" />
	<circle cx="0.0000000000" cy="-0.0000000000" r="2" />
	<circle cx="1000.0000000000" cy="-0.0000000000" r="2" />
	<circle cx="461.4098487458" cy="-517.8473127963" r="2" />
	<circle cx="105.4416298129" cy="-57.1776432385" r="2" />
	<circle cx="761.7795610681" cy="-136.9969444016" r="2" />
	<circle cx="1000.0000000000" cy="-0.0000000000" r="2" />
	<circle cx="999.9999916849" cy="-0.0000049221" r="2" />
	<circle cx="500.0000000000" cy="-866.0254038000" r="2" />
	<circle cx="0.0000000000" cy="-0.0000000000" r="2" />
	<circle cx="499.9999505041" cy="-866.0244854502" r="2" />
	<circle cx="215.1898578507" cy="-256.1487904059" r="2" />
	<circle cx="526.4246952202" cy="-686.5000934804" r="2" />
	<circle cx="499.9999999938" cy="-866.0254026440" r="2" />
	<circle cx="1.6776466896" cy="-0.9686670183" r="2" />
	<circle cx="999.9999458234" cy="-0.0000305686" r="2" />
	<circle cx="500.0000000000" cy="-866.0254037428" r="2" />
	<circle cx="500.0000000000" cy="-866.0254038000" r="2" />
	<circle cx="500.0000000000" cy="-866.0254038000" r="2" />
	<circle cx="0.0000000000" cy="-0.0000000000" r="2" />
	<circle cx="1000.0000000000" cy="-0.0000000000" r="2" />
	<circle cx="0.0018645950" cy="-0.0010761397" r="2" />
	<circle cx="0.4591384994" cy="-0.3194322505" r="2" />
	<circle cx="535.4577326584" cy="-234.3325685990" r="2" />
	<circle cx="999.9832005925" cy="-0.0100308357" r="2" />
	<circle cx="564.2566670828" cy="-344.6561517257" r="2" />
	<circle cx="898.3653354386" cy="-71.0775336937" r="2" />
	<circle cx="0.0063423838" cy="-0.0034905225" r="2" />
	<circle cx="686.0973887311" cy="-172.9098475031" r="2" />
	<circle cx="1000.0000000000" cy="-0.0000000000" r="2" />
	<circle cx="499.9822862571" cy="-848.7030651626" r="2" />
	<circle cx="529.6358815913" cy="-360.9535883102" r="2" />
	<circle cx="0.0000000000" cy="-0.0000000000" r="2" />
	<circle cx="269.4978032275" cy="-166.8680223844" r="2" />
	<circle cx="499.9999999996" cy="-866.0254031416" r="2" />
	<circle cx="500.0000281965" cy="-866.0236088679" r="2" />
	<circle cx="0.0027820154" cy="-0.0032365993" r="2" />
	<circle cx="0.0000167922" cy="-0.0000096924" r="2" />
	<circle cx="500.0000000000" cy="-866.0254038000" r="2" />
	<circle cx="500.0000000000" cy="-866.0254038000" r="2" />
	<circle cx="311.9203956428" cy="-294.1724716123" r="2" />
	<circle cx="702.5443421036" cy="-98.3798615908" r="2" />
	<circle cx="973.2383863375" cy="-8.4620372179" r="2" />
	<circle cx="999.9998779359" cy="-0.0000707556" r="2" />
	<circle cx="0.0010100263" cy="-0.0005057482" r="2" />
	<circle cx="973.8329555930" cy="-15.1084189657" r="2" />
	<circle cx="999.9999815135" cy="-0.0000319944" r="2" />
	<circle cx="1000.0000000000" cy="-0.0000000000" r="2" />
	<circle cx="999.9992940173" cy="-0.0004732819" r="2" />
	<circle cx="0.0000000000" cy="-0.0000000000" r="2" />
	<circle cx="1000.0000000000" cy="-0.0000000000" r="2" />
	<circle cx="521.6958153977" cy="-307.6037542196" r="2" />
	<circle cx="499.9967848842" cy="-859.8099875339" r="2" />
	<circle cx="1000.0000000000" cy="-0.0000000000" r="2" />
	<circle cx="999.9995077790" cy="-0.0002844331" r="2" />
	<circle cx="974.3243791970" cy="-16.7791411108" r="2" />
	<circle cx="500.0000000000" cy="-866.0254038000" r="2" />
	<circle cx="0.0000000000" cy="-0.0000000000" r="2" />
	<circle cx="477.1966574464" cy="-69.4190058652" r="2" />
	<circle cx="499.9999999953" cy="-866.0254037307" r="2" />
	<circle cx="999.9999286898" cy="-0.0000411715" r="2" />
	<circle cx="0.0000149529" cy="-0.0000086999" r="2" />
	<circle cx="1000.0000000000" cy="-0.0000000000" r="2" />
	<circle cx="1000.0000000000" cy="-0.0000000000" r="2" />
	<circle cx="13.8800298743" cy="-8.1265483054" r="2" />
	<circle cx="499.9991710544" cy="-865.9037172486" r="2" />
	<circle cx="142.8220510824" cy="-31.6273631106" r="2" />
	<circle cx="659.2664143108" cy="-114.5328686853" r="2" />
	<circle cx="500.0000000000" cy="-866.0254038000" r="2" />
	<circle cx="527.5975700123" cy="-163.5785640439" r="2" />
	<circle cx="999.2673714602" cy="-0.4445400268" r="2" />
	<circle cx="1000.0000000000" cy="-0.0000000000" r="2" />
	<circle cx="0.0009938487" cy="-0.0005679806" r="2" />
	<circle cx="500.0000000000" cy="-866.0254038000" r="2" />
	<circle cx="0.0000000000" cy="-0.0000000000" r="2" />
	<circle cx="500.0000009230" cy="-866.0251423358" r="2" />
	<circle cx="497.5709593439" cy="-826.5128403236" r="2" />
	<circle cx="353.1855526164" cy="-162.3138298209" r="2" />
	<circle cx="999.9999990517" cy="-0.0000005473" r="2" />
	<circle cx="0.0000000433" cy="-0.0000000252" r="2" />
	<circle cx="379.5920209651" cy="-220.0257853902" r="2" />
	<circle cx="0.0000000024" cy="-0.0000000000" r="2" />
	<circle cx="500.0000000001" cy="-866.0254034364" r="2" />
	<circle cx="999.9469007761" cy="-0.0306832551" r="2" />
	<circle cx="359.5072614721" cy="-157.7164646445" r="2" />
	<circle cx="500.0000000000" cy="-866.0254038000" r="2" />
	<circle cx="70.0485721393" cy="-48.8794273349" r="2" />
	<circle cx="514.6349235823" cy="-486.3887548357" r="2" />
	<circle cx="500.0000000000" cy="-866.0254038000" r="2" />
	<circle cx="0.0000000000" cy="-0.0000000000" r="2" />
	<circle cx="493.4799791861" cy="-419.9656534681" r="2" />
	<circle cx="500.0000000000" cy="-866.0254038000" r="2" />
	<circle cx="591.3783600895" cy="-323.5857280328" r="2" />
	<circle cx="0.0000000000" cy="-0.0000000000" r="2" />
	<circle cx="999.2521374108" cy="-0.4321058787" r="2" />
	<circle cx="998.2082086127" cy="-1.8016603824" r="2" />
	<circle cx="999.9995706175" cy="-0.0002681817" r="2" />
	<circle cx="476.2053467142" cy="-427.2680776471" r="2" />
	<circle cx="499.9998744451" cy="-866.0182295955" r="2" />
	<circle cx="999.9552028780" cy="-0.0492288350" r="2" />
	<circle cx="0.0000435458" cy="-0.0000251429" r="2" />
	<circle cx="500.0002137065" cy="-865.9984625817" r="2" />
	<circle cx="18.2005153600" cy="-12.7189344251" r="2" />
	<circle cx="999.9965652649" cy="-0.0010908999" r="2" />
	<circle cx="500.0000000000" cy="-866.0254037737" r="2" />
	<circle cx="735.8356442636" cy="-229.7329913203" r="2" />
	<circle cx="517.4813212376" cy="-719.3561385846" r="2" />
	<circle cx="20.4752202735" cy="-21.4053954813" r="2" />
	<circle cx="855.7189552025" cy="-77.0446610073" r="2" />
	<circle cx="999.8985004230" cy="-0.0586028275" r="2" />
	<circle cx="491.7663776222" cy="-712.5882705686" r="2" />
	<circle cx="999.9264829757" cy="-0.0424022533" r="2" />
	<circle cx="386.7793007600" cy="-524.4879045334" r="2" />
	<circle cx="0.0000000000" cy="-0.0000000000" r="2" />
	<circle cx="368.3394796580" cy="-163.8564941420" r="2" />
	<circle cx="0.5813365292" cy="-0.3357383748" r="2" />
	<circle cx="526.4922956298" cy="-566.9100765234" r="2" />
	<circle cx="511.2493167871" cy="-752.3265803796" r="2" />
	<circle cx="0.0000000000" cy="-0.0000000000" r="2" />
	<circle cx="448.8792109388" cy="-271.7994161090" r="2" />
	<circle cx="499.9999947915" cy="-866.0209206621" r="2" />
	<circle cx="483.8843984150" cy="-648.1270821885" r="2" />
	<circle cx="500.0000000000" cy="-866.0254038000" r="2" />
	<circle cx="749.4215643528" cy="-171.6774775276" r="2" />
	<circle cx="542.4144262500" cy="-474.7646257926" r="2" />
	<circle cx="1000.0000000000" cy="-0.0000000000" r="2" />
	<circle cx="1000.0000000000" cy="-0.0000000000" r="2" />
	<circle cx="500.0000000000" cy="-866.0254038000" r="2" />
	<circle cx="501.7835585109" cy="-628.8274016695" r="2" />
	<circle cx="1000.0000000000" cy="-0.0000000000" r="2" />
	<circle cx="999.9999999997" cy="-0.0000000002" r="2" />
	<circle cx="513.1378012202" cy="-767.6617735476" r="2" />
	<circle cx="999.9993468100" cy="-0.0003774852" r="2" />
	<circle cx="500.0000000000" cy="-866.0254038000" r="2" />
	<circle cx="500.0000000000" cy="-866.0254038000" r="2" />
	<circle cx="0.0000000000" cy="-0.0000000000" r="2" />
	<circle cx="500.0000000024" cy="-866.0254037958" r="2" />
	<circle cx="1000.0000000000" cy="-0.0000000000" r="2" />
	<circle cx="324.2487946071" cy="-169.7281346744" r="2" />
	<circle cx="500.0008419536" cy="-865.9044090211" r="2" />
	<circle cx="500.0000000000" cy="-866.0254038000" r="2" />
	<circle cx="0.0064027478" cy="-0.0036956564" r="2" />
	<circle cx="500.0000737525" cy="-864.9792025422" r="2" />
	<circle cx="1000.0000000000" cy="-0.0000000000" r="2" />
	<circle cx="1000.0000000000" cy="-0.0000000000" r="2" />
	<circle cx="0.1468750226" cy="-0.0856901686" r="2" />
	<circle cx="500.0000000000" cy="-866.0254038000" r="2" />
	<circle cx="1000.0000000000" cy="-0.0000000000" r="2" />
	<circle cx="0.0000000000" cy="-0.0000000000" r="2" />
	<circle cx="886.9559382487" cy="-50.7367850204" r="2" />
	<circle cx="0.0000277552" cy="-0.0000000301" r="2" />
	<circle cx="499.9999988539" cy="-866.0253224426" r="2" />
	<circle cx="0.0000000005" cy="-0.0000000003" r="2" />
	<circle cx="446.7975931174" cy="-381.7089743872" r="2" />
	<circle cx="0.0000000178" cy="-0.0000000086" r="2" />
	<circle cx="500.0291834859" cy="-865.9390240493" r="2" />
	<circle cx="143.8584095465" cy="-76.7787883982" r="2" />
	<circle cx="0.0000000000" cy="-0.0000000000" r="2" />
  </g>
  <g id="fig2" transform="translate(-550.0,1000)">
	<polygon points="0.0,-0.0 1000.0,-0.0 500.0,-866.0254038" />
	<line
	   id="line2-1"
	   y2="-0.0"
	   x2="500"
	   y1="-288.6751346"
	   x1="500" />
	<line
	   id="line2-2"
	   y2="-433.0127019"
	   x2="250"
	   y1="-288.6751346"
	   x1="500" />
	<line
	   id="line2-3"
	   y2="-433.0127019"
	   x2="750"
	   y1="-288.6751346"
	   x1="500" />
	<text
	   x="440"
	   y="-500"
	   id="up_2">35.8%</text>
	<text
	   x="250"
	   y="-150"
	   id="down_left_2">29.2%</text>
	<text
	   x="630"
	   y="-150"
	   id="down_right_2">35.0%</text>
  </g>
  <g id="fig3" transform="translate(550,1000)">
	<polygon points="0.0,-0.0 1000.0,-0.0 500.0,-866.0254038" />
	<polygon id="triangle3b" points="250,-144.3375673 750,-144.3375673 500,-577.3502692" />
	<line
	   id="line3-1"
	   x1="125"
	   y1="-216.5063509"
	   x2="250"
	   y2="-144.3375673" />
	<line
	   id="line3-2"
	   x1="375"
	   y1="-649.5190528"
	   x2="500"
	   y2="-577.3502692" />
	<line
	   id="line3-3"
	   x1="625"
	   y1="-649.5190528"
	   x2="500"
	   y2="-577.3502692" />
	<line
	   id="line3-4"
	   x1="875"
	   y1="-216.5063509"
	   x2="750"
	   y2="-144.3375673" />
	<line
	   id="line3-5"
	   x1="750"
	   y1="-0.0"
	   x2="750"
	   y2="-144.3375673" />
	<line
	   id="line3-6"
	   x1="250"
	   y1="-0.0"
	   x2="250"
	   y2="-144.3375673" />
	<text
	   x="500"
	   y="-660"
	   text-anchor="middle"
	   id="up_3">29.0%</text>
	<text
	   y="-50"
	   x="70"
	   id="down_left_3">24.2%</text>
	<text
	   y="-50"
	   x="770"
	   id="down_right_3">29.6%</text>
	<text
	   x="500"
	   y="-50"
	   text-anchor="middle"
	   id="down_side_3">1.2%</text>
	<text
	   x="500"
	   y="-280"
	   text-anchor="middle"
	   id="center_3">11.4%</text>
	<text
	   x="685.0"
	   y="-390.8439"
	   text-anchor="middle"
	   transform="rotate(60,665.0,-380.8439)"
	   id="right_side_3">1.2%</text>
	<text
	   x="315.0"
	   y="-390.8439"
	   text-anchor="middle"
	   transform="rotate(-60,335.0,-380.8439)"
	   id="left_side_3">3.4%</text>
  </g>
</g></g>
</svg>
