<?xml version="1.0" encoding="UTF-8" standalone="no"?>
<!DOCTYPE svg PUBLIC "-//W3C//DTD SVG 1.1//EN" "http://www.w3.org/Graphics/SVG/1.1/DTD/svg11.dtd">
<svg
   xmlns:svg="http://www.w3.org/2000/svg"
   xmlns="http://www.w3.org/2000/svg"
   xmlns:xlink="http://www.w3.org/1999/xlink"
   version="1.1"
   baseProfile="full"
   id="body"
   width="800px"
   height="800px"
   viewBox="0 0 1000 1000"
   preserveAspectRatio="none">
  <defs>
    <style type="text/css"><![CDATA[
      circle{ stroke: none; }
      polygon{ stroke: black; stroke-width: 2px; fill: none; }
      line{ stroke: black; stroke-width: 2px; }
      text{ font-size:50px; }
    ]]></style>
  </defs>
  <title
     id="title1">SVG drawing</title>
<g transform="scale(0.45)"><g transform="translate(600,1050)">
  <g id="fig1">
	<polygon points="0.0,-0.0 1000.0,-0.0 500,-866.0254038" />
	<circle cx="0.0000000000" cy="-0.0000000000" r="2" />
	<circle cx="500.0000000000" cy="-866.0254038000" r="2" />
	<circle cx="0.0000000000" cy="-0.0000000000" r="2" />
	<circle cx="999.9984914966" cy="-0.0008707817" r="2" />
	<circle cx="500.0000000000" cy="-866.0254038000" r="2" />
	<circle cx="9.0790079436" cy="-5.8018193839" r="2" />
	<circle cx="0.0000000000" cy="-0.0000000000" r="2" />
	<circle cx="499.9776277785" cy="-846.1062833909" r="2" />
	<circle cx="0.0000000125" cy="-0.0000000072" r="2" />
	<circle cx="919.6531655828" cy="-46.3977874376" r="2" />
	<circle cx="999.4394219172" cy="-0.3239352531" r="2" />
	<circle cx="500.0000000000" cy="-866.0254038000" r="2" />
	<circle cx="500.0000000000" cy="-866.0254038000" r="2" />
	<circle cx="0.0000027771" cy="-0.0000016050" r="2" />
	<circle cx="999.9999989382" cy="-0.0000006417" r="2" />
	<circle cx="1000.0000000000" cy="-0.0000000000" r="2" />
	<circle cx="1000.0000000000" cy="-0.0000000000" r="2" />
	<circle cx="0.0000000000" cy="-0.0000000000" r="2" />
	<circle cx="500.0000000000" cy="-866.0254038000" r="2" />
	<circle cx="0.0000000000" cy="-0.0000000000" r="2" />
	<circle cx="0.0000000000" cy="-0.0000000000" r="2" />
	<circle cx="1000.0000000000" cy="-0.0000000000" r="2" />
	<circle cx="999.9999999995" cy="-0.0000000005" r="2" />
	<circle cx="21.1629341570" cy="-12.2302481929" r="2" />
	<circle cx="500.0000000004" cy="-866.0254018382" r="2" />
	<circle cx="500.0383308309" cy="-865.3086870926" r="2" />
	<circle cx="118.4427901774" cy="-69.3044622529" r="2" />
	<circle cx="999.9999999834" cy="-0.0000000095" r="2" />
	<circle cx="500.0000000000" cy="-866.0254037998" r="2" />
	<circle cx="976.7798183411" cy="-13.3912406616" r="2" />
	<circle cx="1000.0000000000" cy="-0.0000000000" r="2" />
	<circle cx="500.0020274150" cy="-862.5685806295" r="2" />
	<circle cx="1000.0000000000" cy="-0.0000000000" r="2" />
	<circle cx="413.7006555886" cy="-686.3709298919" r="2" />
	<circle cx="500.0000000014" cy="-866.0254037513" r="2" />
	<circle cx="0.0000000661" cy="-0.0000000381" r="2" />
	<circle cx="999.9945680907" cy="-0.0031322107" r="2" />
	<circle cx="960.2476843422" cy="-6.8842327791" r="2" />
	<circle cx="500.0000000000" cy="-866.0254038000" r="2" />
	<circle cx="1000.0000000000" cy="-0.0000000000" r="2" />
	<circle cx="63.4253949889" cy="-36.6486581361" r="2" />
	<circle cx="0.0000000000" cy="-0.0000000000" r="2" />
	<circle cx="499.9978800413" cy="-789.4986544539" r="2" />
	<circle cx="245.9874736947" cy="-139.4786068039" r="2" />
	<circle cx="1000.0000000000" cy="-0.0000000000" r="2" />
	<circle cx="0.0000000000" cy="-0.0000000000" r="2" />
	<circle cx="500.0000000000" cy="-866.0254038000" r="2" />
	<circle cx="1000.0000000000" cy="-0.0000000000" r="2" />
	<circle cx="971.0143687244" cy="-16.7324187804" r="2" />
	<circle cx="1000.0000000000" cy="-0.0000000000" r="2" />
	<circle cx="1000.0000000000" cy="-0.0000000000" r="2" />
	<circle cx="0.0000000000" cy="-0.0000000000" r="2" />
	<circle cx="1000.0000000000" cy="-0.0000000000" r="2" />
	<circle cx="500.0000000000" cy="-866.0254038000" r="2" />
	<circle cx="499.9873005556" cy="-865.4756744413" r="2" />
	<circle cx="500.0000000000" cy="-866.0254038000" r="2" />
	<circle cx="1000.0000000000" cy="-0.0000000000" r="2" />
	<circle cx="500.0000000000" cy="-866.0254037970" r="2" />
	<circle cx="500.0000000000" cy="-866.0254038000" r="2" />
	<circle cx="999.9908494794" cy="-0.0052860174" r="2" />
	<circle cx="0.0000000000" cy="-0.0000000000" r="2" />
	<circle cx="500.0000000000" cy="-866.0254038000" r="2" />
	<circle cx="1000.0000000000" cy="-0.0000000000" r="2" />
	<circle cx="500.0000000000" cy="-866.0254038000" r="2" />
	<circle cx="1000.0000000000" cy="-0.0000000000" r="2" />
	<circle cx="0.0000175728" cy="-0.0000101572" r="2" />
	<circle cx="1000.0000000000" cy="-0.0000000000" r="2" />
	<circle cx="500.0000000000" cy="-866.0254038000" r="2" />
	<circle cx="499.9999999564" cy="-866.0194139372" r="2" />
	<circle cx="989.6536008537" cy="-5.9740574173" r="2" />
	<circle cx="0.0000000000" cy="-0.0000000000" r="2" />
	<circle cx="6.6518796297" cy="-3.2813452674" r="2" />
	<circle cx="999.3565596169" cy="-0.3715094204" r="2" />
	<circle cx="490.5595323925" cy="-815.5201180265" r="2" />
	<circle cx="999.9999936535" cy="-0.0000036347" r="2" />
	<circle cx="0.0000000000" cy="-0.0000000000" r="2" />
	<circle cx="499.9985690940" cy="-865.9532730127" r="2" />
	<circle cx="353.4570549593" cy="-203.9548441182" r="2" />
	<circle cx="500.0000000000" cy="-866.0254038000" r="2" />
	<circle cx="1000.0000000000" cy="-0.0000000000" r="2" />
	<circle cx="1000.0000000000" cy="-0.0000000000" r="2" />
	<circle cx="500.3672445316" cy="-288.4252813871" r="2" />
	<circle cx="999.9998157981" cy="-0.0001245986" r="2" />
	<circle cx="731.0615506443" cy="-156.4250742885" r="2" />
	<circle cx="0.0000000003" cy="-0.0000000002" r="2" />
	<circle cx="0.0005906844" cy="-0.0003414045" r="2" />
	<circle cx="0.0000000000" cy="-0.0000000000" r="2" />
	<circle cx="0.0000000000" cy="-0.0000000000" r="2" />
	<circle cx="999.8985386599" cy="-0.0585771505" r="2" />
	<circle cx="499.9999996326" cy="-866.0246057661" r="2" />
	<circle cx="500.0000000000" cy="-866.0254038000" r="2" />
	<circle cx="0.0000000000" cy="-0.0000000000" r="2" />
	<circle cx="500.0005826042" cy="-866.0206090470" r="2" />
	<circle cx="500.0059968243" cy="-402.6535084136" r="2" />
	<circle cx="946.9772999393" cy="-30.5827033738" r="2" />
	<circle cx="0.0002508028" cy="-0.0001360260" r="2" />
	<circle cx="559.7074710880" cy="-212.0087475924" r="2" />
	<circle cx="1000.0000000000" cy="-0.0000000000" r="2" />
	<circle cx="0.0000000000" cy="-0.0000000000" r="2" />
	<circle cx="500.0216913789" cy="-845.9837756305" r="2" />
	<circle cx="0.0000000000" cy="-0.0000000000" r="2" />
	<circle cx="0.0000000000" cy="-0.0000000000" r="2" />
	<circle cx="466.9656066879" cy="-708.4369899053" r="2" />
	<circle cx="0.0000003155" cy="-0.0000001819" r="2" />
	<circle cx="1000.0000000000" cy="-0.0000000000" r="2" />
	<circle cx="1000.0000000000" cy="-0.0000000000" r="2" />
	<circle cx="1000.0000000000" cy="-0.0000000000" r="2" />
	<circle cx="1000.0000000000" cy="-0.0000000000" r="2" />
	<circle cx="18.9368624264" cy="-9.8111239111" r="2" />
	<circle cx="500.0000000001" cy="-866.0254037999" r="2" />
	<circle cx="499.8906534841" cy="-864.9638668881" r="2" />
	<circle cx="534.1723897093" cy="-501.6911186258" r="2" />
	<circle cx="0.0015853662" cy="-0.0008013924" r="2" />
	<circle cx="1000.0000000000" cy="-0.0000000000" r="2" />
	<circle cx="28.2368792591" cy="-16.2994229467" r="2" />
	<circle cx="1000.0000000000" cy="-0.0000000000" r="2" />
	<circle cx="500.0000000000" cy="-866.0254038000" r="2" />
	<circle cx="500.0000000000" cy="-866.0254038000" r="2" />
	<circle cx="913.5992709987" cy="-49.8863828998" r="2" />
	<circle cx="1000.0000000000" cy="-0.0000000000" r="2" />
	<circle cx="1000.0000000000" cy="-0.0000000000" r="2" />
	<circle cx="0.4437999958" cy="-0.0869215878" r="2" />
	<circle cx="999.9999713736" cy="-0.0000140071" r="2" />
	<circle cx="1000.0000000000" cy="-0.0000000000" r="2" />
	<circle cx="687.6585800306" cy="-151.9627392073" r="2" />
	<circle cx="500.0004638237" cy="-864.0340211224" r="2" />
	<circle cx="0.0000000000" cy="-0.0000000000" r="2" />
	<circle cx="500.0000000000" cy="-866.0254038000" r="2" />
	<circle cx="2.9603017191" cy="-1.7159382182" r="2" />
	<circle cx="999.9999997933" cy="-0.0000001102" r="2" />
	<circle cx="499.9997199989" cy="-865.0050153414" r="2" />
	<circle cx="500.1914825463" cy="-861.6343663931" r="2" />
	<circle cx="0.0000002102" cy="-0.0000001213" r="2" />
	<circle cx="500.0000000000" cy="-866.0254038000" r="2" />
	<circle cx="987.3800684016" cy="-7.6571890730" r="2" />
	<circle cx="999.9999950572" cy="-0.0000029011" r="2" />
	<circle cx="0.0049999527" cy="-0.0037095081" r="2" />
	<circle cx="2.3713541501" cy="-1.3681409900" r="2" />
	<circle cx="1000.0000000000" cy="-0.0000000000" r="2" />
	<circle cx="500.0000000000" cy="-866.0254038000" r="2" />
	<circle cx="1000.0000000000" cy="-0.0000000000" r="2" />
	<circle cx="623.2081670848" cy="-217.5257431485" r="2" />
	<circle cx="500.0000000000" cy="-866.0254038000" r="2" />
	<circle cx="0.0000000000" cy="-0.0000000000" r="2" />
	<circle cx="0.0000000000" cy="-0.0000000000" r="2" />
	<circle cx="499.9999999815" cy="-866.0225091996" r="2" />
	<circle cx="500.0000000000" cy="-866.0254038000" r="2" />
	<circle cx="0.0000000000" cy="-0.0000000000" r="2" />
	<circle cx="0.0000000000" cy="-0.0000000000" r="2" />
	<circle cx="500.0447501370" cy="-864.0828070944" r="2" />
	<circle cx="499.9571898394" cy="-863.6605435236" r="2" />
	<circle cx="500.0000000000" cy="-866.0254038000" r="2" />
	<circle cx="500.0000000000" cy="-866.0254038000" r="2" />
	<circle cx="0.0000000000" cy="-0.0000000000" r="2" />
	<circle cx="0.0485854367" cy="-0.0265724768" r="2" />
	<circle cx="2.1115884200" cy="-1.7399673770" r="2" />
	<circle cx="0.0000000661" cy="-0.0000000381" r="2" />
	<circle cx="0.2338056246" cy="-0.1348167238" r="2" />
	<circle cx="500.0000000000" cy="-866.0254038000" r="2" />
	<circle cx="500.0000000003" cy="-866.0254031459" r="2" />
	<circle cx="999.9999999997" cy="-0.0000000002" r="2" />
	<circle cx="1000.0000000000" cy="-0.0000000000" r="2" />
	<circle cx="0.0000000000" cy="-0.0000000000" r="2" />
	<circle cx="500.0000000000" cy="-866.0254038000" r="2" />
	<circle cx="999.6104111969" cy="-0.2248238333" r="2" />
	<circle cx="500.0000000000" cy="-866.0254038000" r="2" />
	<circle cx="0.0000000000" cy="-0.0000000000" r="2" />
	<circle cx="989.7075189498" cy="-6.0180579252" r="2" />
	<circle cx="1000.0000000000" cy="-0.0000000000" r="2" />
	<circle cx="1000.0000000000" cy="-0.0000000000" r="2" />
	<circle cx="999.9999937893" cy="-0.0000035868" r="2" />
	<circle cx="500.0000108666" cy="-866.0253510901" r="2" />
	<circle cx="1000.0000000000" cy="-0.0000000000" r="2" />
	<circle cx="0.0000641680" cy="-0.0000418786" r="2" />
	<circle cx="500.0321500723" cy="-865.6542881947" r="2" />
	<circle cx="999.0695305732" cy="-0.5302433061" r="2" />
	<circle cx="1000.0000000000" cy="-0.0000000000" r="2" />
	<circle cx="1000.0000000000" cy="-0.0000000000" r="2" />
	<circle cx="999.9994886651" cy="-0.0002951957" r="2" />
	<circle cx="500.0000000000" cy="-866.0254038000" r="2" />
	<circle cx="0.0000000000" cy="-0.0000000000" r="2" />
	<circle cx="499.9999522366" cy="-865.9494496159" r="2" />
	<circle cx="1000.0000000000" cy="-0.0000000000" r="2" />
	<circle cx="57.8251073471" cy="-3.7188421913" r="2" />
	<circle cx="598.6998884837" cy="-231.7014676026" r="2" />
	<circle cx="999.9922861495" cy="-0.0020851624" r="2" />
	<circle cx="0.0000000000" cy="-0.0000000000" r="2" />
	<circle cx="0.1077753444" cy="-0.0622178877" r="2" />
	<circle cx="1000.0000000000" cy="-0.0000000000" r="2" />
	<circle cx="0.0000000000" cy="-0.0000000000" r="2" />
	<circle cx="500.0000000000" cy="-866.0254038000" r="2" />
	<circle cx="0.0000000000" cy="-0.0000000000" r="2" />
	<circle cx="500.0000000000" cy="-866.0254038000" r="2" />
	<circle cx="1000.0000000000" cy="-0.0000000000" r="2" />
	<circle cx="0.0000000000" cy="-0.0000000000" r="2" />
	<circle cx="0.0000000000" cy="-0.0000000000" r="2" />
	<circle cx="4.6786215171" cy="-5.6452654594" r="2" />
	<circle cx="179.6048953749" cy="-104.1290964540" r="2" />
	<circle cx="500.0003443262" cy="-865.5428399234" r="2" />
	<circle cx="500.0000000000" cy="-866.0254038000" r="2" />
	<circle cx="0.4497350644" cy="-0.2196377553" r="2" />
	<circle cx="1000.0000000000" cy="-0.0000000000" r="2" />
	<circle cx="0.0000000000" cy="-0.0000000000" r="2" />
	<circle cx="997.7825750522" cy="-1.2799862793" r="2" />
	<circle cx="499.9999999998" cy="-866.0254037873" r="2" />
	<circle cx="999.9997258581" cy="-0.0001583018" r="2" />
	<circle cx="0.0001022976" cy="-0.0000697402" r="2" />
	<circle cx="500.0000000000" cy="-866.0254038000" r="2" />
	<circle cx="999.9501153642" cy="-0.0264466755" r="2" />
	<circle cx="1000.0000000000" cy="-0.0000000000" r="2" />
	<circle cx="0.0000000005" cy="-0.0000000003" r="2" />
	<circle cx="0.0000000001" cy="-0.0000000000" r="2" />
	<circle cx="34.7981766655" cy="-20.5941868868" r="2" />
	<circle cx="0.0000000000" cy="-0.0000000000" r="2" />
	<circle cx="499.9806334226" cy="-346.2672442267" r="2" />
	<circle cx="0.0000195920" cy="-0.0000113064" r="2" />
	<circle cx="0.0000000000" cy="-0.0000000000" r="2" />
	<circle cx="500.0000093069" cy="-865.9825690458" r="2" />
	<circle cx="988.3338350320" cy="-6.7276966910" r="2" />
	<circle cx="499.9849108865" cy="-862.7170739398" r="2" />
	<circle cx="0.0001794474" cy="-0.0001035625" r="2" />
	<circle cx="1000.0000000000" cy="-0.0000000000" r="2" />
	<circle cx="1000.0000000000" cy="-0.0000000000" r="2" />
	<circle cx="0.0000000000" cy="-0.0000000000" r="2" />
	<circle cx="666.6174856160" cy="-192.3941493578" r="2" />
	<circle cx="1000.0000000000" cy="-0.0000000000" r="2" />
	<circle cx="500.0000000000" cy="-866.0254038000" r="2" />
	<circle cx="500.0000000000" cy="-866.0254037998" r="2" />
	<circle cx="1000.0000000000" cy="-0.0000000000" r="2" />
	<circle cx="500.0000000000" cy="-866.0254038000" r="2" />
	<circle cx="501.2467056008" cy="-855.5371910289" r="2" />
	<circle cx="999.9932317508" cy="-0.0039056950" r="2" />
	<circle cx="1000.0000000000" cy="-0.0000000000" r="2" />
	<circle cx="500.0000000000" cy="-866.0254038000" r="2" />
	<circle cx="0.0000000017" cy="-0.0000000010" r="2" />
	<circle cx="0.0000024424" cy="-0.0000014102" r="2" />
	<circle cx="1000.0000000000" cy="-0.0000000000" r="2" />
	<circle cx="1000.0000000000" cy="-0.0000000000" r="2" />
	<circle cx="70.5873480754" cy="-40.7262863687" r="2" />
	<circle cx="500.0000000000" cy="-866.0254038000" r="2" />
	<circle cx="0.0000000000" cy="-0.0000000000" r="2" />
	<circle cx="500.0000000000" cy="-866.0254038000" r="2" />
	<circle cx="0.0000000011" cy="-0.0000000007" r="2" />
	<circle cx="385.7822998028" cy="-459.7279685541" r="2" />
	<circle cx="0.0016192378" cy="-0.0009353575" r="2" />
	<circle cx="0.0000000000" cy="-0.0000000000" r="2" />
	<circle cx="0.0000000000" cy="-0.0000000000" r="2" />
	<circle cx="0.0000000081" cy="-0.0000000030" r="2" />
	<circle cx="500.0000000000" cy="-866.0254037999" r="2" />
	<circle cx="0.0000000000" cy="-0.0000000000" r="2" />
	<circle cx="500.0000247650" cy="-866.0253536873" r="2" />
	<circle cx="500.0000000000" cy="-866.0254038000" r="2" />
	<circle cx="477.7084117060" cy="-275.9729674720" r="2" />
	<circle cx="500.0000000000" cy="-866.0254038000" r="2" />
	<circle cx="500.0000000000" cy="-866.0254038000" r="2" />
	<circle cx="999.2707137883" cy="-0.4208313933" r="2" />
	<circle cx="500.0000000000" cy="-866.0254038000" r="2" />
	<circle cx="459.3099763828" cy="-392.3289627507" r="2" />
	<circle cx="544.9731335170" cy="-745.2074905507" r="2" />
	<circle cx="500.0000000000" cy="-866.0254038000" r="2" />
	<circle cx="999.9998071902" cy="-0.0001111175" r="2" />
	<circle cx="0.0000000000" cy="-0.0000000000" r="2" />
	<circle cx="500.0000878177" cy="-866.0242336391" r="2" />
	<circle cx="500.0000000000" cy="-866.0254038000" r="2" />
	<circle cx="499.9390855174" cy="-864.1959593731" r="2" />
	<circle cx="494.8748468430" cy="-260.6285764083" r="2" />
	<circle cx="0.0000000000" cy="-0.0000000000" r="2" />
	<circle cx="500.0000000000" cy="-866.0254038000" r="2" />
	<circle cx="0.0000000000" cy="-0.0000000000" r="2" />
	<circle cx="0.0000000000" cy="-0.0000000000" r="2" />
	<circle cx="500.0980288271" cy="-463.7634995807" r="2" />
	<circle cx="1000.0000000000" cy="-0.0000000000" r="2" />
	<circle cx="1000.0000000000" cy="-0.0000000000" r="2" />
	<circle cx="0.0000000000" cy="-0.0000000000" r="2" />
	<circle cx="500.0205228117" cy="-865.9157507643" r="2" />
	<circle cx="999.9999999992" cy="-0.0000000005" r="2" />
	<circle cx="0.0000000000" cy="-0.0000000000" r="2" />
	<circle cx="999.9999999914" cy="-0.0000000050" r="2" />
	<circle cx="0.0000000000" cy="-0.0000000000" r="2" />
	<circle cx="500.0000000000" cy="-866.0254038000" r="2" />
	<circle cx="999.9826769739" cy="-0.0099987275" r="2" />
	<circle cx="499.9999919368" cy="-864.9516243126" r="2" />
	<circle cx="0.5666582718" cy="-0.3268223765" r="2" />
	<circle cx="999.9820283359" cy="-0.0117477702" r="2" />
	<circle cx="33.3556137391" cy="-19.2650870003" r="2" />
	<circle cx="1000.0000000000" cy="-0.0000000000" r="2" />
	<circle cx="500.0000000000" cy="-866.0254038000" r="2" />
	<circle cx="0.0000000000" cy="-0.0000000000" r="2" />
	<circle cx="500.0000012942" cy="-866.0170234220" r="2" />
	<circle cx="999.9991818663" cy="-0.0004810429" r="2" />
	<circle cx="500.0000000000" cy="-866.0254038000" r="2" />
	<circle cx="500.0000000000" cy="-866.0254038000" r="2" />
	<circle cx="1000.0000000000" cy="-0.0000000000" r="2" />
	<circle cx="500.0000000000" cy="-866.0254038000" r="2" />
	<circle cx="1000.0000000000" cy="-0.0000000000" r="2" />
	<circle cx="0.0000000000" cy="-0.0000000000" r="2" />
	<circle cx="1000.0000000000" cy="-0.0000000000" r="2" />
	<circle cx="0.0062446325" cy="-0.0036144632" r="2" />
	<circle cx="0.0364307673" cy="-0.0178493785" r="2" />
	<circle cx="999.9999965369" cy="-0.0000019988" r="2" />
	<circle cx="1000.0000000000" cy="-0.0000000000" r="2" />
	<circle cx="500.0000000963" cy="-866.0138009912" r="2" />
	<circle cx="500.0000000000" cy="-866.0254038000" r="2" />
	<circle cx="0.0000000000" cy="-0.0000000000" r="2" />
	<circle cx="1000.0000000000" cy="-0.0000000000" r="2" />
	<circle cx="0.0000000000" cy="-0.0000000000" r="2" />
	<circle cx="0.0000000000" cy="-0.0000000000" r="2" />
	<circle cx="0.0000000000" cy="-0.0000000000" r="2" />
	<circle cx="500.0000000000" cy="-866.0254038000" r="2" />
	<circle cx="1000.0000000000" cy="-0.0000000000" r="2" />
	<circle cx="500.0000000000" cy="-866.0254037998" r="2" />
	<circle cx="999.9999999999" cy="-0.0000000000" r="2" />
	<circle cx="1000.0000000000" cy="-0.0000000000" r="2" />
	<circle cx="500.0000000000" cy="-866.0254038000" r="2" />
	<circle cx="500.0000000078" cy="-866.0253883550" r="2" />
	<circle cx="0.0002799165" cy="-0.0001666674" r="2" />
	<circle cx="500.0000004739" cy="-866.0254017513" r="2" />
	<circle cx="200.9704930441" cy="-116.0035206397" r="2" />
	<circle cx="999.9999827647" cy="-0.0000099483" r="2" />
	<circle cx="1000.0000000000" cy="-0.0000000000" r="2" />
	<circle cx="0.0000000000" cy="-0.0000000000" r="2" />
	<circle cx="499.9999936099" cy="-865.7328105004" r="2" />
	<circle cx="999.6487091027" cy="-0.1846878569" r="2" />
	<circle cx="999.9999979640" cy="-0.0000012430" r="2" />
	<circle cx="1000.0000000000" cy="-0.0000000000" r="2" />
	<circle cx="0.0000000000" cy="-0.0000000000" r="2" />
	<circle cx="999.9547921754" cy="-0.0260990184" r="2" />
	<circle cx="1000.0000000000" cy="-0.0000000000" r="2" />
	<circle cx="0.0000000000" cy="-0.0000000000" r="2" />
	<circle cx="500.0000000000" cy="-866.0254038000" r="2" />
	<circle cx="0.0000000000" cy="-0.0000000000" r="2" />
	<circle cx="1000.0000000000" cy="-0.0000000000" r="2" />
	<circle cx="0.0000557697" cy="-0.0000036085" r="2" />
	<circle cx="0.0000000000" cy="-0.0000000000" r="2" />
	<circle cx="500.0000000000" cy="-866.0254038000" r="2" />
	<circle cx="506.5172978138" cy="-324.1055152661" r="2" />
	<circle cx="499.9993179217" cy="-866.0145575662" r="2" />
	<circle cx="1000.0000000000" cy="-0.0000000000" r="2" />
	<circle cx="1000.0000000000" cy="-0.0000000000" r="2" />
	<circle cx="0.0000000000" cy="-0.0000000000" r="2" />
	<circle cx="999.9999958533" cy="-0.0000023959" r="2" />
	<circle cx="500.0000000000" cy="-866.0254038000" r="2" />
	<circle cx="0.0000000000" cy="-0.0000000000" r="2" />
	<circle cx="1000.0000000000" cy="-0.0000000000" r="2" />
	<circle cx="1000.0000000000" cy="-0.0000000000" r="2" />
	<circle cx="995.7521598370" cy="-3.0703767216" r="2" />
	<circle cx="500.0000000000" cy="-866.0254038000" r="2" />
	<circle cx="500.0000000163" cy="-866.0253513260" r="2" />
	<circle cx="499.9999999971" cy="-866.0253871477" r="2" />
	<circle cx="1000.0000000000" cy="-0.0000000000" r="2" />
	<circle cx="0.0000000000" cy="-0.0000000000" r="2" />
	<circle cx="1.9159484730" cy="-1.3143605193" r="2" />
	<circle cx="0.0783771660" cy="-0.0458411473" r="2" />
	<circle cx="1000.0000000000" cy="-0.0000000000" r="2" />
	<circle cx="239.9693515299" cy="-137.6135898503" r="2" />
	<circle cx="1000.0000000000" cy="-0.0000000000" r="2" />
	<circle cx="1000.0000000000" cy="-0.0000000000" r="2" />
	<circle cx="0.0000000288" cy="-0.0000000184" r="2" />
	<circle cx="500.0000000000" cy="-866.0254038000" r="2" />
	<circle cx="0.0000202776" cy="-0.0000117206" r="2" />
	<circle cx="501.5764506887" cy="-223.1807154739" r="2" />
	<circle cx="971.4570732230" cy="-16.3259158604" r="2" />
	<circle cx="500.0000000000" cy="-866.0254038000" r="2" />
	<circle cx="499.9446946722" cy="-863.5256442609" r="2" />
	<circle cx="500.0075211554" cy="-865.9101996922" r="2" />
	<circle cx="1000.0000000000" cy="-0.0000000000" r="2" />
	<circle cx="1000.0000000000" cy="-0.0000000000" r="2" />
	<circle cx="1000.0000000000" cy="-0.0000000000" r="2" />
	<circle cx="0.0184991235" cy="-0.0109240468" r="2" />
	<circle cx="0.0000000000" cy="-0.0000000000" r="2" />
	<circle cx="0.0000000000" cy="-0.0000000000" r="2" />
	<circle cx="0.0000000000" cy="-0.0000000000" r="2" />
	<circle cx="1000.0000000000" cy="-0.0000000000" r="2" />
	<circle cx="0.0006660899" cy="-0.0008452814" r="2" />
	<circle cx="999.9999262258" cy="-0.0000450374" r="2" />
	<circle cx="500.0000000000" cy="-866.0254038000" r="2" />
	<circle cx="500.0012777741" cy="-865.9700471133" r="2" />
	<circle cx="1000.0000000000" cy="-0.0000000000" r="2" />
	<circle cx="500.0119991877" cy="-865.9594003553" r="2" />
	<circle cx="500.0000000000" cy="-866.0254038000" r="2" />
	<circle cx="500.0011272876" cy="-866.0199795576" r="2" />
	<circle cx="0.0000000000" cy="-0.0000000000" r="2" />
	<circle cx="2.5412776867" cy="-1.0577364396" r="2" />
	<circle cx="1000.0000000000" cy="-0.0000000000" r="2" />
	<circle cx="500.0000000000" cy="-866.0254037942" r="2" />
	<circle cx="2.1619203481" cy="-1.4025805454" r="2" />
	<circle cx="26.9221906654" cy="-15.5127782306" r="2" />
	<circle cx="500.0000000000" cy="-866.0254038000" r="2" />
	<circle cx="4.3504348288" cy="-0.8132930459" r="2" />
	<circle cx="499.9999999342" cy="-866.0254035705" r="2" />
	<circle cx="55.3202651683" cy="-68.7804900014" r="2" />
	<circle cx="500.2276267018" cy="-852.1061766690" r="2" />
	<circle cx="1000.0000000000" cy="-0.0000000000" r="2" />
	<circle cx="500.0276982694" cy="-805.5257902949" r="2" />
	<circle cx="0.0000402073" cy="-0.0000357650" r="2" />
	<circle cx="0.0000000000" cy="-0.0000000000" r="2" />
	<circle cx="0.0000000000" cy="-0.0000000000" r="2" />
	<circle cx="499.9999999994" cy="-866.0254037786" r="2" />
	<circle cx="500.0000000000" cy="-866.0254038000" r="2" />
	<circle cx="0.0000000000" cy="-0.0000000000" r="2" />
	<circle cx="0.0000000000" cy="-0.0000000000" r="2" />
	<circle cx="999.3864897568" cy="-0.3526249760" r="2" />
	<circle cx="500.3242126893" cy="-862.3233522718" r="2" />
	<circle cx="500.0000000000" cy="-866.0254038000" r="2" />
	<circle cx="1000.0000000000" cy="-0.0000000000" r="2" />
	<circle cx="500.0808167137" cy="-855.8181572711" r="2" />
	<circle cx="0.0000000000" cy="-0.0000000000" r="2" />
	<circle cx="500.0001778194" cy="-864.9719324180" r="2" />
	<circle cx="1000.0000000000" cy="-0.0000000000" r="2" />
	<circle cx="499.9994927603" cy="-865.7808741538" r="2" />
	<circle cx="0.0000000000" cy="-0.0000000000" r="2" />
	<circle cx="1000.0000000000" cy="-0.0000000000" r="2" />
	<circle cx="0.0000000000" cy="-0.0000000000" r="2" />
	<circle cx="1000.0000000000" cy="-0.0000000000" r="2" />
	<circle cx="500.0177332488" cy="-865.9526145131" r="2" />
	<circle cx="500.0000000000" cy="-866.0254038000" r="2" />
	<circle cx="1000.0000000000" cy="-0.0000000000" r="2" />
	<circle cx="0.0000030042" cy="-0.0000026419" r="2" />
	<circle cx="1000.0000000000" cy="-0.0000000000" r="2" />
	<circle cx="500.0000000000" cy="-866.0254038000" r="2" />
	<circle cx="1000.0000000000" cy="-0.0000000000" r="2" />
	<circle cx="1000.0000000000" cy="-0.0000000000" r="2" />
	<circle cx="500.0000000000" cy="-866.0254038000" r="2" />
	<circle cx="499.9990690332" cy="-866.0214455045" r="2" />
	<circle cx="499.9999999995" cy="-866.0254037873" r="2" />
	<circle cx="7.7752913915" cy="-1.8637075645" r="2" />
	<circle cx="500.0000000000" cy="-866.0254038000" r="2" />
	<circle cx="1.2440433823" cy="-1.0686180013" r="2" />
	<circle cx="999.9997889558" cy="-0.0001387588" r="2" />
	<circle cx="500.0000000000" cy="-866.0254038000" r="2" />
	<circle cx="0.0101321929" cy="-0.0058501656" r="2" />
	<circle cx="500.0000000000" cy="-866.0254038000" r="2" />
	<circle cx="499.9999839589" cy="-866.0251826102" r="2" />
	<circle cx="499.9971729825" cy="-853.3079319184" r="2" />
	<circle cx="500.0034445598" cy="-866.0144041680" r="2" />
	<circle cx="500.0000000000" cy="-866.0254038000" r="2" />
	<circle cx="999.9999999902" cy="-0.0000000057" r="2" />
	<circle cx="0.0004303453" cy="-0.0003920682" r="2" />
	<circle cx="1000.0000000000" cy="-0.0000000000" r="2" />
	<circle cx="500.0000000000" cy="-866.0254038000" r="2" />
	<circle cx="500.4814252183" cy="-534.1262859947" r="2" />
	<circle cx="626.1098606252" cy="-274.1010616736" r="2" />
	<circle cx="473.7153090985" cy="-328.7236934537" r="2" />
	<circle cx="500.0000000000" cy="-866.0254037999" r="2" />
	<circle cx="1000.0000000000" cy="-0.0000000000" r="2" />
	<circle cx="500.0000000000" cy="-866.0254038000" r="2" />
	<circle cx="962.7017194524" cy="-21.5417610404" r="2" />
	<circle cx="500.0000003437" cy="-866.0253491454" r="2" />
	<circle cx="500.0000000545" cy="-866.0253965940" r="2" />
	<circle cx="506.4047078810" cy="-309.2098968718" r="2" />
	<circle cx="0.0000000000" cy="-0.0000000000" r="2" />
	<circle cx="0.1547461744" cy="-0.0894187915" r="2" />
	<circle cx="999.9999999988" cy="-0.0000000007" r="2" />
	<circle cx="0.1577886043" cy="-0.2385406630" r="2" />
	<circle cx="0.0000000000" cy="-0.0000000000" r="2" />
	<circle cx="500.0000000000" cy="-866.0254038000" r="2" />
	<circle cx="1000.0000000000" cy="-0.0000000000" r="2" />
	<circle cx="500.0000000000" cy="-866.0254038000" r="2" />
	<circle cx="499.8481742485" cy="-863.2942538984" r="2" />
	<circle cx="0.0000000000" cy="-0.0000000000" r="2" />
	<circle cx="0.0000000027" cy="-0.0000000015" r="2" />
	<circle cx="0.0000657863" cy="-0.0000348094" r="2" />
	<circle cx="999.9999956161" cy="-0.0000024748" r="2" />
	<circle cx="500.0000000000" cy="-866.0254038000" r="2" />
	<circle cx="500.0000806355" cy="-865.2500957897" r="2" />
	<circle cx="999.9999840898" cy="-0.0000091778" r="2" />
	<circle cx="978.3920855701" cy="-12.4783912795" r="2" />
	<circle cx="86.8803421506" cy="-44.7472307181" r="2" />
	<circle cx="500.0000000000" cy="-866.0254038000" r="2" />
	<circle cx="0.0000000000" cy="-0.0000000000" r="2" />
	<circle cx="500.0000000000" cy="-866.0254037960" r="2" />
	<circle cx="0.0000000000" cy="-0.0000000000" r="2" />
	<circle cx="999.7314459658" cy="-0.1551340760" r="2" />
	<circle cx="500.0000000000" cy="-866.0254038000" r="2" />
	<circle cx="669.9077805000" cy="-114.3283651770" r="2" />
	<circle cx="999.8077194081" cy="-0.1138752455" r="2" />
	<circle cx="0.0000000164" cy="-0.0000000098" r="2" />
	<circle cx="500.0000006295" cy="-866.0253993981" r="2" />
	<circle cx="0.0000000000" cy="-0.0000000000" r="2" />
	<circle cx="0.0000000000" cy="-0.0000000000" r="2" />
	<circle cx="0.0001995760" cy="-0.0000967020" r="2" />
	<circle cx="502.4429509415" cy="-438.6348725560" r="2" />
	<circle cx="1000.0000000000" cy="-0.0000000000" r="2" />
	<circle cx="28.2393613772" cy="-16.2983529291" r="2" />
	<circle cx="3.1902789758" cy="-1.1708187128" r="2" />
	<circle cx="82.0551083171" cy="-47.4091638261" r="2" />
	<circle cx="500.0049896505" cy="-865.9446538357" r="2" />
	<circle cx="1.7277669139" cy="-0.4901340722" r="2" />
	<circle cx="1.2428294525" cy="-0.7407091983" r="2" />
	<circle cx="500.0000000000" cy="-866.0254038000" r="2" />
	<circle cx="1000.0000000000" cy="-0.0000000000" r="2" />
	<circle cx="0.0000000000" cy="-0.0000000000" r="2" />
	<circle cx="1000.0000000000" cy="-0.0000000000" r="2" />
	<circle cx="1000.0000000000" cy="-0.0000000000" r="2" />
	<circle cx="999.9994429059" cy="-0.0002310354" r="2" />
	<circle cx="0.0000004583" cy="-0.0000002648" r="2" />
	<circle cx="4.6975954630" cy="-2.9377431471" r="2" />
	<circle cx="0.0000000000" cy="-0.0000000000" r="2" />
	<circle cx="0.0000000000" cy="-0.0000000000" r="2" />
	<circle cx="0.0000000000" cy="-0.0000000000" r="2" />
  </g>
  <g id="fig2" transform="translate(-550.0,1000)">
	<polygon points="0.0,-0.0 1000.0,-0.0 500.0,-866.0254038" />
	<line
	   id="line2-1"
	   y2="-0.0"
	   x2="500"
	   y1="-288.6751346"
	   x1="500" />
	<line
	   id="line2-2"
	   y2="-433.0127019"
	   x2="250"
	   y1="-288.6751346"
	   x1="500" />
	<line
	   id="line2-3"
	   y2="-433.0127019"
	   x2="750"
	   y1="-288.6751346"
	   x1="500" />
	<text
	   x="440"
	   y="-500"
	   id="up_2">33.6%</text>
	<text
	   x="250"
	   y="-150"
	   id="down_left_2">33.8%</text>
	<text
	   x="630"
	   y="-150"
	   id="down_right_2">32.6%</text>
  </g>
  <g id="fig3" transform="translate(550,1000)">
	<polygon points="0.0,-0.0 1000.0,-0.0 500.0,-866.0254038" />
	<polygon id="triangle3b" points="250,-144.3375673 750,-144.3375673 500,-577.3502692" />
	<line
	   id="line3-1"
	   x1="125"
	   y1="-216.5063509"
	   x2="250"
	   y2="-144.3375673" />
	<line
	   id="line3-2"
	   x1="375"
	   y1="-649.5190528"
	   x2="500"
	   y2="-577.3502692" />
	<line
	   id="line3-3"
	   x1="625"
	   y1="-649.5190528"
	   x2="500"
	   y2="-577.3502692" />
	<line
	   id="line3-4"
	   x1="875"
	   y1="-216.5063509"
	   x2="750"
	   y2="-144.3375673" />
	<line
	   id="line3-5"
	   x1="750"
	   y1="-0.0"
	   x2="750"
	   y2="-144.3375673" />
	<line
	   id="line3-6"
	   x1="250"
	   y1="-0.0"
	   x2="250"
	   y2="-144.3375673" />
	<text
	   x="500"
	   y="-660"
	   text-anchor="middle"
	   id="up_3">31.4%</text>
	<text
	   y="-50"
	   x="70"
	   id="down_left_3">33.2%</text>
	<text
	   y="-50"
	   x="770"
	   id="down_right_3">30.6%</text>
	<text
	   x="500"
	   y="-50"
	   text-anchor="middle"
	   id="down_side_3">0.2%</text>
	<text
	   x="500"
	   y="-280"
	   text-anchor="middle"
	   id="center_3">4.4%</text>
	<text
	   x="685.0"
	   y="-390.8439"
	   text-anchor="middle"
	   transform="rotate(60,665.0,-380.8439)"
	   id="right_side_3">0.0%</text>
	<text
	   x="315.0"
	   y="-390.8439"
	   text-anchor="middle"
	   transform="rotate(-60,335.0,-380.8439)"
	   id="left_side_3">0.2%</text>
  </g>
</g></g>
</svg>
