<?xml version="1.0" encoding="UTF-8" standalone="no"?>
<!DOCTYPE svg PUBLIC "-//W3C//DTD SVG 1.1//EN" "http://www.w3.org/Graphics/SVG/1.1/DTD/svg11.dtd">
<svg
   xmlns:svg="http://www.w3.org/2000/svg"
   xmlns="http://www.w3.org/2000/svg"
   xmlns:xlink="http://www.w3.org/1999/xlink"
   version="1.1"
   baseProfile="full"
   id="body"
   width="800px"
   height="800px"
   viewBox="0 0 1000 1000"
   preserveAspectRatio="none">
  <defs>
    <style type="text/css"><![CDATA[
      circle{ stroke: none; }
      polygon{ stroke: black; stroke-width: 2px; fill: none; }
      line{ stroke: black; stroke-width: 2px; }
      text{ font-size:50px; }
    ]]></style>
  </defs>
  <title
     id="title1">SVG drawing</title>
<g transform="scale(0.45)"><g transform="translate(600,1050)">
  <g id="fig1">
	<polygon points="0.0,-0.0 1000.0,-0.0 500,-866.0254038" />
	<circle cx="488.2091654429" cy="-581.6594881704" r="2" />
	<circle cx="535.4543957588" cy="-286.4958352329" r="2" />
	<circle cx="1.7550439540" cy="-0.7299890444" r="2" />
	<circle cx="500.0098325893" cy="-855.9610633322" r="2" />
	<circle cx="500.0174825633" cy="-865.7098437574" r="2" />
	<circle cx="500.0000000012" cy="-866.0254037800" r="2" />
	<circle cx="909.6627989514" cy="-52.3597789578" r="2" />
	<circle cx="586.1947895820" cy="-316.8543712494" r="2" />
	<circle cx="500.0124088199" cy="-865.8433823954" r="2" />
	<circle cx="986.2545199037" cy="-18.7658919993" r="2" />
	<circle cx="511.1592651689" cy="-277.6504477078" r="2" />
	<circle cx="499.0791465774" cy="-550.9367589184" r="2" />
	<circle cx="65.7318170320" cy="-60.9516281493" r="2" />
	<circle cx="208.8002842461" cy="-99.7189638389" r="2" />
	<circle cx="563.8015254937" cy="-222.2449178832" r="2" />
	<circle cx="840.1840139652" cy="-118.8484963814" r="2" />
	<circle cx="446.3343737578" cy="-288.3473452357" r="2" />
	<circle cx="326.2558145850" cy="-281.8160337104" r="2" />
	<circle cx="727.4076883675" cy="-393.6445688771" r="2" />
	<circle cx="455.9532920974" cy="-227.5926219458" r="2" />
	<circle cx="537.9821061184" cy="-684.8617607705" r="2" />
	<circle cx="505.0136430223" cy="-578.2374959231" r="2" />
	<circle cx="392.7968059500" cy="-244.3380628402" r="2" />
	<circle cx="811.6590779478" cy="-104.1071089658" r="2" />
	<circle cx="612.9882369566" cy="-194.3925146474" r="2" />
	<circle cx="546.2824383821" cy="-637.8991871499" r="2" />
	<circle cx="893.5343318300" cy="-35.8849167858" r="2" />
	<circle cx="500.0000219266" cy="-866.0251794785" r="2" />
	<circle cx="0.0000056069" cy="-0.0000025466" r="2" />
	<circle cx="269.5544232489" cy="-132.4450519732" r="2" />
	<circle cx="796.1575216055" cy="-143.3363529073" r="2" />
	<circle cx="967.3788242386" cy="-18.2392718547" r="2" />
	<circle cx="489.6636629814" cy="-613.4177289374" r="2" />
	<circle cx="500.0000000000" cy="-866.0254037998" r="2" />
	<circle cx="591.9163125335" cy="-379.2328686406" r="2" />
	<circle cx="777.0527420509" cy="-123.0899994050" r="2" />
	<circle cx="618.6716721522" cy="-220.0658056989" r="2" />
	<circle cx="491.1399614872" cy="-287.8066682204" r="2" />
	<circle cx="491.5993296556" cy="-707.4445459391" r="2" />
	<circle cx="949.2068610793" cy="-26.3537921629" r="2" />
	<circle cx="431.2660950245" cy="-184.0513831746" r="2" />
	<circle cx="616.7670633064" cy="-252.4612476969" r="2" />
	<circle cx="642.4345014585" cy="-140.6655583828" r="2" />
	<circle cx="270.5130957195" cy="-147.4873957365" r="2" />
	<circle cx="505.0599385044" cy="-735.1797129404" r="2" />
	<circle cx="258.0119297196" cy="-137.9343496481" r="2" />
	<circle cx="573.7835967006" cy="-335.9694551699" r="2" />
	<circle cx="854.7933575961" cy="-38.7542472378" r="2" />
	<circle cx="588.6002619239" cy="-283.7424781020" r="2" />
	<circle cx="1000.0000000000" cy="-0.0000000000" r="2" />
	<circle cx="500.0000000000" cy="-866.0254038000" r="2" />
	<circle cx="668.1083151162" cy="-229.8844827453" r="2" />
	<circle cx="627.0737367308" cy="-349.3209013607" r="2" />
	<circle cx="465.6071395846" cy="-226.1838590576" r="2" />
	<circle cx="904.6448423602" cy="-59.8792272591" r="2" />
	<circle cx="172.6011071658" cy="-103.8860657580" r="2" />
	<circle cx="832.7234261496" cy="-95.8353816219" r="2" />
	<circle cx="318.3000703855" cy="-181.0817081262" r="2" />
	<circle cx="499.9395841299" cy="-860.9135246675" r="2" />
	<circle cx="90.5384981287" cy="-79.2341092755" r="2" />
	<circle cx="0.0000000861" cy="-0.0000001253" r="2" />
	<circle cx="533.5484536484" cy="-138.2047188775" r="2" />
	<circle cx="477.2642463521" cy="-328.0678866939" r="2" />
	<circle cx="570.1660643052" cy="-180.8188902642" r="2" />
	<circle cx="938.0789397524" cy="-36.8112514397" r="2" />
	<circle cx="715.1968163676" cy="-163.9060446088" r="2" />
	<circle cx="506.1143560544" cy="-746.1562976839" r="2" />
	<circle cx="500.0000000000" cy="-866.0254037999" r="2" />
	<circle cx="159.8602378004" cy="-115.2260540669" r="2" />
	<circle cx="744.5883319682" cy="-75.1272928067" r="2" />
	<circle cx="464.3841451922" cy="-184.2737148344" r="2" />
	<circle cx="166.6922115844" cy="-96.2355715524" r="2" />
	<circle cx="970.2335336719" cy="-16.5547013281" r="2" />
	<circle cx="500.0121096558" cy="-833.4347297465" r="2" />
	<circle cx="999.9999998519" cy="-0.0000000710" r="2" />
	<circle cx="477.9681215669" cy="-251.5754526352" r="2" />
	<circle cx="511.7907297840" cy="-285.1501780344" r="2" />
	<circle cx="500.0000002239" cy="-866.0254004914" r="2" />
	<circle cx="825.5219444611" cy="-123.0024659845" r="2" />
	<circle cx="423.2128834958" cy="-206.0656850075" r="2" />
	<circle cx="429.3580767684" cy="-137.7279822238" r="2" />
	<circle cx="855.3330754810" cy="-82.7899631794" r="2" />
	<circle cx="496.4471971753" cy="-496.3350617807" r="2" />
	<circle cx="749.0862690382" cy="-124.3593113176" r="2" />
	<circle cx="422.4726961089" cy="-330.4627829456" r="2" />
	<circle cx="998.5364604081" cy="-1.1658752040" r="2" />
	<circle cx="504.9937046251" cy="-487.5113951393" r="2" />
	<circle cx="876.3746882595" cy="-83.6748740499" r="2" />
	<circle cx="805.5208804816" cy="-112.4685076333" r="2" />
	<circle cx="643.9122405872" cy="-431.3904642670" r="2" />
	<circle cx="356.7041464551" cy="-190.8069902264" r="2" />
	<circle cx="582.1783203024" cy="-255.7503174759" r="2" />
	<circle cx="852.6274505558" cy="-85.2530126093" r="2" />
	<circle cx="896.6680013156" cy="-59.5539178749" r="2" />
	<circle cx="838.4096408560" cy="-93.2839529951" r="2" />
	<circle cx="682.1942387357" cy="-112.4333569993" r="2" />
	<circle cx="450.8719984579" cy="-475.9887389525" r="2" />
	<circle cx="960.1497535259" cy="-23.4246804934" r="2" />
	<circle cx="302.3976993070" cy="-176.5627300687" r="2" />
	<circle cx="887.7256796151" cy="-115.8290936870" r="2" />
	<circle cx="663.1949447383" cy="-362.3223893592" r="2" />
	<circle cx="152.1910859508" cy="-45.3458179228" r="2" />
	<circle cx="840.7982502039" cy="-92.3437163590" r="2" />
	<circle cx="496.2102426510" cy="-382.7859127511" r="2" />
	<circle cx="57.5120009883" cy="-33.1719892843" r="2" />
	<circle cx="536.7559486042" cy="-701.8393996614" r="2" />
	<circle cx="1000.0000000000" cy="-0.0000000000" r="2" />
	<circle cx="499.7344293197" cy="-574.6333565863" r="2" />
	<circle cx="479.2795922369" cy="-505.5169749972" r="2" />
	<circle cx="507.4853607251" cy="-768.2972824859" r="2" />
	<circle cx="500.0001074763" cy="-842.1584126926" r="2" />
	<circle cx="569.8545519808" cy="-256.8544411961" r="2" />
	<circle cx="518.7050380736" cy="-490.1740068925" r="2" />
	<circle cx="269.7287432510" cy="-217.6266875542" r="2" />
	<circle cx="999.9999100629" cy="-0.0000227025" r="2" />
	<circle cx="169.9059725974" cy="-100.8202062104" r="2" />
	<circle cx="542.0576264442" cy="-476.0317913723" r="2" />
	<circle cx="0.0003134349" cy="-0.0001654775" r="2" />
	<circle cx="631.8307414498" cy="-161.9484786347" r="2" />
	<circle cx="300.3612722856" cy="-238.7800477716" r="2" />
	<circle cx="498.2334890274" cy="-657.7624740105" r="2" />
	<circle cx="422.8551749828" cy="-349.1929271844" r="2" />
	<circle cx="142.9556068073" cy="-96.9962749439" r="2" />
	<circle cx="490.6373692550" cy="-585.9351505962" r="2" />
	<circle cx="506.3284741928" cy="-178.4890831883" r="2" />
	<circle cx="478.8992306485" cy="-729.0804290694" r="2" />
	<circle cx="500.2579703083" cy="-538.5538585972" r="2" />
	<circle cx="717.1631654303" cy="-160.6119319857" r="2" />
	<circle cx="495.6487605818" cy="-378.5743408436" r="2" />
	<circle cx="461.0983168986" cy="-352.2165378211" r="2" />
	<circle cx="250.3503536631" cy="-180.2796773323" r="2" />
	<circle cx="1000.0000000000" cy="-0.0000000000" r="2" />
	<circle cx="398.6071961877" cy="-72.8935851001" r="2" />
	<circle cx="339.5440026325" cy="-117.8818053617" r="2" />
	<circle cx="644.9570667838" cy="-204.6818968682" r="2" />
	<circle cx="941.1551715208" cy="-33.4849219365" r="2" />
	<circle cx="126.6385756913" cy="-58.0485534337" r="2" />
	<circle cx="1000.0000000000" cy="-0.0000000000" r="2" />
	<circle cx="397.6675492338" cy="-458.8677580500" r="2" />
	<circle cx="479.7760052293" cy="-230.4888887037" r="2" />
	<circle cx="225.6549658937" cy="-130.2930524877" r="2" />
	<circle cx="513.8108959859" cy="-546.2003916079" r="2" />
	<circle cx="517.3223029491" cy="-633.9747307557" r="2" />
	<circle cx="542.6508580698" cy="-314.2412078881" r="2" />
	<circle cx="885.5364519609" cy="-108.9828196050" r="2" />
	<circle cx="524.7483371237" cy="-516.8558148753" r="2" />
	<circle cx="466.1124093751" cy="-330.7120513021" r="2" />
	<circle cx="500.9353531380" cy="-414.2271042787" r="2" />
	<circle cx="0.0000006623" cy="-0.0000000959" r="2" />
	<circle cx="876.9826012395" cy="-74.5733085134" r="2" />
	<circle cx="765.9660673867" cy="-136.4042684471" r="2" />
	<circle cx="146.0366160059" cy="-76.8721162061" r="2" />
	<circle cx="689.1588954349" cy="-221.6778212164" r="2" />
	<circle cx="345.3281342101" cy="-224.0004449567" r="2" />
	<circle cx="651.4076007271" cy="-203.5014617329" r="2" />
	<circle cx="746.4533349145" cy="-308.3277658359" r="2" />
	<circle cx="572.5248845454" cy="-523.4602110583" r="2" />
	<circle cx="617.4906756511" cy="-344.2962034311" r="2" />
	<circle cx="96.4095213407" cy="-82.3609269570" r="2" />
	<circle cx="509.3405151110" cy="-386.2058720563" r="2" />
	<circle cx="333.1247265759" cy="-420.9581552358" r="2" />
	<circle cx="665.4008605298" cy="-191.2297403457" r="2" />
	<circle cx="654.2077933296" cy="-326.3795014330" r="2" />
	<circle cx="396.4338960547" cy="-178.5762654684" r="2" />
	<circle cx="309.8993288755" cy="-180.1757982348" r="2" />
	<circle cx="659.6074883848" cy="-211.1028833730" r="2" />
	<circle cx="491.3891622551" cy="-182.4800086619" r="2" />
	<circle cx="470.4111537327" cy="-235.0388885603" r="2" />
	<circle cx="542.5376900713" cy="-367.2162144450" r="2" />
	<circle cx="556.5263554569" cy="-238.4077911990" r="2" />
	<circle cx="619.1893066581" cy="-312.7160473027" r="2" />
	<circle cx="68.3026192173" cy="-30.8820127950" r="2" />
	<circle cx="499.5138777146" cy="-851.9251736072" r="2" />
	<circle cx="0.0000002213" cy="-0.0000001538" r="2" />
	<circle cx="408.9223600059" cy="-267.0620739185" r="2" />
	<circle cx="678.7766689724" cy="-181.1258508544" r="2" />
	<circle cx="472.4506347248" cy="-423.9123387822" r="2" />
	<circle cx="563.2243155309" cy="-348.2311479760" r="2" />
	<circle cx="171.2457048370" cy="-108.1014299182" r="2" />
	<circle cx="493.0602681966" cy="-273.6358763182" r="2" />
	<circle cx="800.1943877099" cy="-240.4513745209" r="2" />
	<circle cx="0.0000201050" cy="-0.0000273119" r="2" />
	<circle cx="352.8158254300" cy="-42.1803505740" r="2" />
	<circle cx="267.1705656211" cy="-109.5731243492" r="2" />
	<circle cx="166.3799317847" cy="-10.7463908927" r="2" />
	<circle cx="722.9719700654" cy="-204.6142327884" r="2" />
	<circle cx="0.0000001310" cy="-0.0000001047" r="2" />
	<circle cx="376.3085652201" cy="-339.0827807495" r="2" />
	<circle cx="511.6262707384" cy="-182.6723699717" r="2" />
	<circle cx="999.8671538458" cy="-0.0952332282" r="2" />
	<circle cx="485.6716870775" cy="-244.1708449124" r="2" />
	<circle cx="858.4232501802" cy="-79.7556941475" r="2" />
	<circle cx="535.3557212155" cy="-252.8267638403" r="2" />
	<circle cx="474.2165367882" cy="-800.8584529835" r="2" />
	<circle cx="750.8282323396" cy="-209.0361954995" r="2" />
	<circle cx="7.1324429266" cy="-5.7460068500" r="2" />
	<circle cx="832.1788255488" cy="-154.3051116646" r="2" />
	<circle cx="753.3588365999" cy="-206.8082959612" r="2" />
	<circle cx="391.5076757716" cy="-190.9341950528" r="2" />
	<circle cx="503.5111571023" cy="-606.6347026708" r="2" />
	<circle cx="377.6369014288" cy="-470.4560874655" r="2" />
	<circle cx="538.4001243740" cy="-249.8733702616" r="2" />
	<circle cx="223.0294981880" cy="-140.4795575132" r="2" />
	<circle cx="433.3897860183" cy="-245.6374785454" r="2" />
	<circle cx="1000.0000000000" cy="-0.0000000000" r="2" />
	<circle cx="483.8675235149" cy="-781.8009906358" r="2" />
	<circle cx="499.1126879639" cy="-506.9265573157" r="2" />
	<circle cx="493.9153612582" cy="-221.5649632010" r="2" />
	<circle cx="499.2227306971" cy="-786.8706330393" r="2" />
	<circle cx="319.6476157249" cy="-363.5837948962" r="2" />
	<circle cx="452.3810273508" cy="-198.5738786954" r="2" />
	<circle cx="532.2592939599" cy="-131.5184077890" r="2" />
	<circle cx="502.8568298370" cy="-607.7627421785" r="2" />
	<circle cx="500.0056079522" cy="-834.5474880176" r="2" />
	<circle cx="249.2828671788" cy="-116.8474931968" r="2" />
	<circle cx="500.1266146821" cy="-555.1515166829" r="2" />
	<circle cx="547.1195794581" cy="-389.9231444012" r="2" />
	<circle cx="999.9999481919" cy="-0.0000278296" r="2" />
	<circle cx="573.6202337858" cy="-170.1565023051" r="2" />
	<circle cx="558.0076875528" cy="-109.3486285840" r="2" />
	<circle cx="843.8720976492" cy="-120.7405829763" r="2" />
	<circle cx="418.3803892990" cy="-391.7774949286" r="2" />
	<circle cx="368.2820956636" cy="-227.6985202096" r="2" />
	<circle cx="530.2196864155" cy="-491.2472344656" r="2" />
	<circle cx="246.9569659491" cy="-264.2453269302" r="2" />
	<circle cx="592.5868854915" cy="-328.6059082476" r="2" />
	<circle cx="506.3967772458" cy="-277.6698957385" r="2" />
	<circle cx="541.0888699406" cy="-248.4720432231" r="2" />
	<circle cx="999.9999426094" cy="-0.0000328105" r="2" />
	<circle cx="325.2646987173" cy="-297.8482448384" r="2" />
	<circle cx="310.2513348190" cy="-283.0356616239" r="2" />
	<circle cx="510.6978825727" cy="-716.6236638334" r="2" />
	<circle cx="535.4644120149" cy="-415.5103948210" r="2" />
	<circle cx="372.4477473092" cy="-264.7444317523" r="2" />
	<circle cx="635.6228709327" cy="-128.1762015399" r="2" />
	<circle cx="504.5558761871" cy="-788.0471653634" r="2" />
	<circle cx="286.4885701153" cy="-32.2068156144" r="2" />
	<circle cx="657.5599078423" cy="-150.3966742065" r="2" />
	<circle cx="483.1609683601" cy="-656.1343004792" r="2" />
	<circle cx="311.5235943173" cy="-219.7233922167" r="2" />
	<circle cx="655.2602731366" cy="-405.0203066128" r="2" />
	<circle cx="504.0283691988" cy="-174.9344706215" r="2" />
	<circle cx="461.0231437582" cy="-302.8149230972" r="2" />
	<circle cx="418.3627687875" cy="-292.6037884964" r="2" />
	<circle cx="0.0000005398" cy="-0.0000005415" r="2" />
	<circle cx="991.7356144210" cy="-4.6888213571" r="2" />
	<circle cx="41.9036585201" cy="-24.1320273784" r="2" />
	<circle cx="498.8565575641" cy="-411.2987844764" r="2" />
	<circle cx="500.0152058931" cy="-557.3338722425" r="2" />
	<circle cx="586.6427709204" cy="-361.0925126051" r="2" />
	<circle cx="481.4239767259" cy="-477.9366882833" r="2" />
	<circle cx="93.0506900375" cy="-54.9415994990" r="2" />
	<circle cx="494.6518982227" cy="-213.0217697259" r="2" />
	<circle cx="466.6458591700" cy="-681.5887280341" r="2" />
	<circle cx="6.4021676744" cy="-0.9113082610" r="2" />
	<circle cx="503.5362861814" cy="-826.4774117331" r="2" />
	<circle cx="490.3540450302" cy="-750.4103726264" r="2" />
	<circle cx="372.0080748429" cy="-205.4048305709" r="2" />
	<circle cx="470.1334674614" cy="-466.5723542153" r="2" />
	<circle cx="500.0000000000" cy="-866.0254038000" r="2" />
	<circle cx="813.3202464841" cy="-103.6133443472" r="2" />
	<circle cx="536.0595722302" cy="-292.8463520660" r="2" />
	<circle cx="976.9500257800" cy="-9.7233368340" r="2" />
	<circle cx="265.0669585981" cy="-152.8136316685" r="2" />
	<circle cx="611.3159741839" cy="-323.4819670291" r="2" />
	<circle cx="500.0000000002" cy="-866.0254037993" r="2" />
	<circle cx="584.8317594677" cy="-563.9576416884" r="2" />
	<circle cx="555.8236881304" cy="-577.9694220002" r="2" />
	<circle cx="553.3335025972" cy="-461.0916689949" r="2" />
	<circle cx="999.9968910622" cy="-0.0023487125" r="2" />
	<circle cx="499.9999995149" cy="-866.0253813334" r="2" />
	<circle cx="641.2954872835" cy="-206.5744597491" r="2" />
	<circle cx="838.9048453606" cy="-92.7213553708" r="2" />
	<circle cx="368.0742393631" cy="-343.4839297327" r="2" />
	<circle cx="486.9875168347" cy="-358.4455302271" r="2" />
	<circle cx="511.7659425686" cy="-234.8120622180" r="2" />
	<circle cx="528.6531547940" cy="-613.2826090853" r="2" />
	<circle cx="539.1087982896" cy="-693.3736374591" r="2" />
	<circle cx="375.8913479172" cy="-393.4267358968" r="2" />
	<circle cx="461.4275061006" cy="-438.9897177807" r="2" />
	<circle cx="564.5587587569" cy="-312.3536232661" r="2" />
	<circle cx="628.9745351944" cy="-136.0151666480" r="2" />
	<circle cx="807.3980964869" cy="-106.1409267795" r="2" />
	<circle cx="509.5774337816" cy="-728.7371057148" r="2" />
	<circle cx="499.9999306302" cy="-866.0252080412" r="2" />
	<circle cx="371.1121430377" cy="-99.6303193412" r="2" />
	<circle cx="999.9999603591" cy="-0.0000251938" r="2" />
	<circle cx="110.8946441460" cy="-84.9031235005" r="2" />
	<circle cx="1.7550439540" cy="-0.7299890444" r="2" />
	<circle cx="76.3061487563" cy="-47.9670937014" r="2" />
	<circle cx="493.4045891258" cy="-599.6030709168" r="2" />
	<circle cx="166.6414626212" cy="-96.2144258095" r="2" />
	<circle cx="999.9004367015" cy="-0.0897754451" r="2" />
	<circle cx="937.0600345983" cy="-36.3912754432" r="2" />
	<circle cx="565.2279069023" cy="-335.8301795367" r="2" />
	<circle cx="482.7965540548" cy="-327.5411659085" r="2" />
	<circle cx="802.4210227813" cy="-196.0299088800" r="2" />
	<circle cx="581.7486818496" cy="-137.1717540299" r="2" />
	<circle cx="0.0000013732" cy="-0.0000005423" r="2" />
	<circle cx="462.9471895517" cy="-700.0131127166" r="2" />
	<circle cx="402.1490250953" cy="-130.8749671271" r="2" />
	<circle cx="634.6359152578" cy="-316.7109323972" r="2" />
	<circle cx="364.9907886049" cy="-267.3076881297" r="2" />
	<circle cx="505.9278915826" cy="-515.5610042734" r="2" />
	<circle cx="963.4570253795" cy="-27.4168904020" r="2" />
	<circle cx="970.4274882646" cy="-17.0138560777" r="2" />
	<circle cx="630.9781660331" cy="-373.6741039895" r="2" />
	<circle cx="755.6145762106" cy="-71.9501667848" r="2" />
	<circle cx="947.1283868654" cy="-37.1643317003" r="2" />
	<circle cx="471.6035716291" cy="-176.3344771110" r="2" />
	<circle cx="469.1822013030" cy="-222.3483130756" r="2" />
	<circle cx="707.2247443434" cy="-330.1652074734" r="2" />
	<circle cx="816.7003088256" cy="-110.3037725742" r="2" />
	<circle cx="63.7530740795" cy="-47.2371920994" r="2" />
	<circle cx="504.9768129237" cy="-92.6667992086" r="2" />
	<circle cx="471.8402385300" cy="-184.2290571470" r="2" />
	<circle cx="440.5882986381" cy="-272.0461076234" r="2" />
	<circle cx="443.6880256128" cy="-249.3662896358" r="2" />
	<circle cx="468.9624550040" cy="-271.0782438248" r="2" />
	<circle cx="472.0349234454" cy="-701.3882487245" r="2" />
	<circle cx="693.8461869814" cy="-110.5363078072" r="2" />
	<circle cx="846.5039409314" cy="-85.4164516767" r="2" />
	<circle cx="439.9048099689" cy="-205.9146049060" r="2" />
	<circle cx="0.0228968194" cy="-0.0132928154" r="2" />
	<circle cx="693.0497581317" cy="-199.7515735587" r="2" />
	<circle cx="535.8828818380" cy="-459.6829886317" r="2" />
	<circle cx="649.2408282163" cy="-252.9512361882" r="2" />
	<circle cx="518.7139713349" cy="-356.7728777703" r="2" />
	<circle cx="382.2357004679" cy="-232.3164194432" r="2" />
	<circle cx="965.4742798376" cy="-19.2096098785" r="2" />
	<circle cx="620.0817783151" cy="-286.0655335155" r="2" />
	<circle cx="814.3519430049" cy="-163.0469162210" r="2" />
	<circle cx="606.9601095961" cy="-284.7452405088" r="2" />
	<circle cx="576.7502515409" cy="-528.0730517933" r="2" />
	<circle cx="661.9938257129" cy="-174.0023927832" r="2" />
	<circle cx="0.0000000040" cy="-0.0000000030" r="2" />
	<circle cx="654.4976687252" cy="-401.1707562477" r="2" />
	<circle cx="487.0740860930" cy="-186.6527457916" r="2" />
	<circle cx="519.4943624935" cy="-663.3819115213" r="2" />
	<circle cx="494.8139498665" cy="-90.8353169884" r="2" />
	<circle cx="550.9177669721" cy="-265.0850398125" r="2" />
	<circle cx="746.0000787526" cy="-147.2157395463" r="2" />
	<circle cx="327.6357087740" cy="-121.8808672242" r="2" />
	<circle cx="999.9999999985" cy="-0.0000000008" r="2" />
	<circle cx="304.9247320992" cy="-176.1231833475" r="2" />
	<circle cx="868.6464180490" cy="-50.0715604661" r="2" />
	<circle cx="509.2246030908" cy="-483.2863024618" r="2" />
	<circle cx="668.0513144222" cy="-103.1564474659" r="2" />
	<circle cx="334.7900434703" cy="-158.7724433742" r="2" />
	<circle cx="1000.0000000000" cy="-0.0000000000" r="2" />
	<circle cx="764.2879362254" cy="-136.0866617384" r="2" />
	<circle cx="338.6552726774" cy="-215.1382711287" r="2" />
	<circle cx="748.4742693973" cy="-106.2874540939" r="2" />
	<circle cx="517.9599258729" cy="-434.9280521333" r="2" />
	<circle cx="566.3796526881" cy="-461.1071211348" r="2" />
	<circle cx="279.9674993788" cy="-110.6920981433" r="2" />
	<circle cx="443.3410106904" cy="-188.0289346877" r="2" />
	<circle cx="548.8921213266" cy="-258.0621034915" r="2" />
	<circle cx="999.9999999980" cy="-0.0000000022" r="2" />
	<circle cx="804.0588040914" cy="-113.0461049796" r="2" />
	<circle cx="439.5569478624" cy="-271.2596984416" r="2" />
	<circle cx="499.0115725860" cy="-754.3495259886" r="2" />
	<circle cx="874.6099300483" cy="-79.6778009447" r="2" />
	<circle cx="499.9999958814" cy="-866.0253654654" r="2" />
	<circle cx="491.3534542746" cy="-182.4498126629" r="2" />
	<circle cx="543.8711366026" cy="-335.7575033097" r="2" />
	<circle cx="999.5992775459" cy="-0.1968176286" r="2" />
	<circle cx="508.7128557787" cy="-182.4845250691" r="2" />
	<circle cx="414.6264714042" cy="-136.0235081078" r="2" />
	<circle cx="448.6700674442" cy="-180.7938796107" r="2" />
	<circle cx="999.9999999191" cy="-0.0000000708" r="2" />
	<circle cx="999.9362022157" cy="-0.0376832186" r="2" />
	<circle cx="568.3378785339" cy="-209.8402935313" r="2" />
	<circle cx="999.9999999850" cy="-0.0000000157" r="2" />
	<circle cx="774.3555661841" cy="-195.1274119303" r="2" />
	<circle cx="954.0947942705" cy="-26.6725474612" r="2" />
	<circle cx="557.3987534085" cy="-506.2521164697" r="2" />
	<circle cx="527.6714136724" cy="-534.2137293611" r="2" />
	<circle cx="646.9987700852" cy="-136.8973936568" r="2" />
	<circle cx="499.9019417757" cy="-865.3384934507" r="2" />
	<circle cx="234.8032860767" cy="-97.6809233851" r="2" />
	<circle cx="151.4338995640" cy="-65.5317021417" r="2" />
	<circle cx="511.0278435714" cy="-516.6120264940" r="2" />
	<circle cx="500.4906911190" cy="-472.3848876899" r="2" />
	<circle cx="585.7019131751" cy="-310.6340105485" r="2" />
	<circle cx="500.2765411171" cy="-858.5890832265" r="2" />
	<circle cx="506.4336959054" cy="-335.2281348472" r="2" />
	<circle cx="991.0965832019" cy="-8.0985300547" r="2" />
	<circle cx="439.9977554592" cy="-193.6312411474" r="2" />
	<circle cx="551.4807969153" cy="-431.2740289569" r="2" />
	<circle cx="672.9723916686" cy="-371.0431436306" r="2" />
	<circle cx="502.8439218943" cy="-640.3906470482" r="2" />
	<circle cx="534.8604604223" cy="-244.3434784906" r="2" />
	<circle cx="999.9991988096" cy="-0.0007156515" r="2" />
	<circle cx="0.0000006532" cy="-0.0000003259" r="2" />
	<circle cx="517.5801796681" cy="-297.3632383068" r="2" />
	<circle cx="158.2891730297" cy="-202.0284349044" r="2" />
	<circle cx="518.3170744675" cy="-743.6998653445" r="2" />
	<circle cx="463.5720857759" cy="-226.1584375629" r="2" />
	<circle cx="590.7532978211" cy="-165.7075938119" r="2" />
	<circle cx="485.7501568323" cy="-741.9161385813" r="2" />
	<circle cx="786.2392089752" cy="-108.8254010398" r="2" />
	<circle cx="627.6214649001" cy="-371.2359580081" r="2" />
	<circle cx="551.0556629059" cy="-330.3526007578" r="2" />
	<circle cx="562.7078503588" cy="-359.2380636567" r="2" />
	<circle cx="329.9780852086" cy="-156.4620693832" r="2" />
	<circle cx="556.1938959090" cy="-484.3445522517" r="2" />
	<circle cx="640.3830720759" cy="-146.0202533021" r="2" />
	<circle cx="571.7364404547" cy="-647.0225605242" r="2" />
	<circle cx="392.9603522864" cy="-535.0682365674" r="2" />
	<circle cx="441.1362502689" cy="-447.0805192441" r="2" />
	<circle cx="551.3391819886" cy="-326.7370502202" r="2" />
	<circle cx="750.8660596323" cy="-73.9344654432" r="2" />
	<circle cx="296.0326218839" cy="-250.8453371857" r="2" />
	<circle cx="919.2463413820" cy="-47.9935943673" r="2" />
	<circle cx="0.0007389536" cy="-0.0002287050" r="2" />
	<circle cx="499.9642320689" cy="-654.0615454180" r="2" />
	<circle cx="730.0232790738" cy="-142.5821000685" r="2" />
	<circle cx="379.2940470065" cy="-198.4807923629" r="2" />
	<circle cx="600.9185854792" cy="-228.5475542129" r="2" />
	<circle cx="508.9286479775" cy="-414.4779975960" r="2" />
	<circle cx="501.1635040197" cy="-640.7273477926" r="2" />
	<circle cx="375.3725974644" cy="-203.4827251092" r="2" />
	<circle cx="1.1859961288" cy="-1.0058825458" r="2" />
	<circle cx="599.0469405217" cy="-364.4244454451" r="2" />
	<circle cx="543.8435939333" cy="-573.5514266457" r="2" />
	<circle cx="499.9997367207" cy="-866.0222363303" r="2" />
	<circle cx="322.1626973078" cy="-368.4475647882" r="2" />
	<circle cx="535.6306564619" cy="-301.0739665474" r="2" />
	<circle cx="585.5035654163" cy="-620.2926855510" r="2" />
	<circle cx="642.6959473186" cy="-122.6736296882" r="2" />
	<circle cx="38.3882324988" cy="-20.6752393906" r="2" />
	<circle cx="510.7676930297" cy="-380.7444342665" r="2" />
	<circle cx="0.0000052293" cy="-0.0000011420" r="2" />
	<circle cx="524.9237777640" cy="-233.6521574781" r="2" />
	<circle cx="491.9746375599" cy="-652.1117017446" r="2" />
	<circle cx="420.8375718228" cy="-425.3682508405" r="2" />
	<circle cx="497.5070069240" cy="-478.9854727967" r="2" />
	<circle cx="527.3780824887" cy="-662.6394572770" r="2" />
	<circle cx="499.8456585740" cy="-864.1530089638" r="2" />
	<circle cx="665.5591297834" cy="-173.0796296296" r="2" />
	<circle cx="560.2641743717" cy="-324.9303675297" r="2" />
	<circle cx="382.3599203561" cy="-472.0221624985" r="2" />
	<circle cx="499.9999999999" cy="-866.0254037959" r="2" />
	<circle cx="187.7811942063" cy="-108.4045713427" r="2" />
	<circle cx="235.5170571838" cy="-266.5444772729" r="2" />
	<circle cx="475.3464431163" cy="-440.3877382621" r="2" />
	<circle cx="619.2527708735" cy="-329.7829254450" r="2" />
	<circle cx="0.0000000140" cy="-0.0000000086" r="2" />
	<circle cx="372.5144534681" cy="-352.1680846912" r="2" />
	<circle cx="677.3622676396" cy="-344.9228275507" r="2" />
	<circle cx="518.1215898864" cy="-753.3461596469" r="2" />
	<circle cx="273.4566147414" cy="-191.5147445868" r="2" />
	<circle cx="494.7735742743" cy="-732.7214049933" r="2" />
	<circle cx="499.9999998332" cy="-866.0254009629" r="2" />
	<circle cx="457.5333344281" cy="-572.1046450403" r="2" />
	<circle cx="426.7964842991" cy="-491.4817584456" r="2" />
	<circle cx="500.0000000000" cy="-866.0254038000" r="2" />
	<circle cx="508.1661052903" cy="-323.8550049489" r="2" />
	<circle cx="379.4658817422" cy="-411.4941775822" r="2" />
	<circle cx="508.6745364166" cy="-377.0555211249" r="2" />
	<circle cx="694.3470179160" cy="-260.2916822178" r="2" />
	<circle cx="603.7340787410" cy="-152.9483974442" r="2" />
	<circle cx="412.7085044721" cy="-207.2576032435" r="2" />
	<circle cx="407.1173522555" cy="-141.6133186988" r="2" />
	<circle cx="534.2822894481" cy="-214.8521000808" r="2" />
	<circle cx="495.9806142901" cy="-521.6912586120" r="2" />
	<circle cx="0.0000159406" cy="-0.0000089826" r="2" />
	<circle cx="621.6805772460" cy="-433.9820668988" r="2" />
	<circle cx="484.8403893453" cy="-391.5555295719" r="2" />
	<circle cx="313.1202696960" cy="-172.2880786802" r="2" />
	<circle cx="953.0348294871" cy="-25.9737952522" r="2" />
	<circle cx="492.4826801598" cy="-413.7360730758" r="2" />
	<circle cx="499.9513014608" cy="-865.2361047586" r="2" />
	<circle cx="329.2194453056" cy="-128.0487531153" r="2" />
	<circle cx="351.0997724043" cy="-190.4714214307" r="2" />
	<circle cx="983.0216778418" cy="-11.7806525907" r="2" />
	<circle cx="500.0000000000" cy="-866.0254038000" r="2" />
	<circle cx="999.9999136436" cy="-0.0000594007" r="2" />
	<circle cx="993.4171850768" cy="-2.6288374993" r="2" />
	<circle cx="501.8107051019" cy="-246.9551938259" r="2" />
	<circle cx="346.9222403645" cy="-156.1982951295" r="2" />
	<circle cx="452.0313859524" cy="-335.1361781452" r="2" />
	<circle cx="406.8051508909" cy="-244.0389198518" r="2" />
	<circle cx="499.0891736879" cy="-812.3824738879" r="2" />
	<circle cx="0.0000000019" cy="-0.0000000016" r="2" />
	<circle cx="628.5928929095" cy="-504.4937561995" r="2" />
	<circle cx="500.0751016120" cy="-725.0909690070" r="2" />
	<circle cx="500.2080943427" cy="-839.3481777309" r="2" />
	<circle cx="558.2501285522" cy="-158.2297825405" r="2" />
	<circle cx="617.3735604954" cy="-295.2597233874" r="2" />
	<circle cx="0.0000044012" cy="-0.0000021808" r="2" />
	<circle cx="525.9901392244" cy="-396.0616971565" r="2" />
	<circle cx="253.7043781647" cy="-122.9713623214" r="2" />
	<circle cx="0.5873426408" cy="-0.9267451754" r="2" />
	<circle cx="999.9999188093" cy="-0.0000361465" r="2" />
	<circle cx="0.0000000007" cy="-0.0000000002" r="2" />
	<circle cx="533.5327131602" cy="-224.3500636943" r="2" />
	<circle cx="561.8330017401" cy="-431.1379493949" r="2" />
	<circle cx="993.4536370630" cy="-6.1534731364" r="2" />
  </g>
  <g id="fig2" transform="translate(-550.0,1000)">
	<polygon points="0.0,-0.0 1000.0,-0.0 500.0,-866.0254038" />
	<line
	   id="line2-1"
	   y2="-0.0"
	   x2="500"
	   y1="-288.6751346"
	   x1="500" />
	<line
	   id="line2-2"
	   y2="-433.0127019"
	   x2="250"
	   y1="-288.6751346"
	   x1="500" />
	<line
	   id="line2-3"
	   y2="-433.0127019"
	   x2="750"
	   y1="-288.6751346"
	   x1="500" />
	<text
	   x="440"
	   y="-500"
	   id="up_2">34.0%</text>
	<text
	   x="250"
	   y="-150"
	   id="down_left_2">29.8%</text>
	<text
	   x="630"
	   y="-150"
	   id="down_right_2">36.2%</text>
  </g>
  <g id="fig3" transform="translate(550,1000)">
	<polygon points="0.0,-0.0 1000.0,-0.0 500.0,-866.0254038" />
	<polygon id="triangle3b" points="250,-144.3375673 750,-144.3375673 500,-577.3502692" />
	<line
	   id="line3-1"
	   x1="125"
	   y1="-216.5063509"
	   x2="250"
	   y2="-144.3375673" />
	<line
	   id="line3-2"
	   x1="375"
	   y1="-649.5190528"
	   x2="500"
	   y2="-577.3502692" />
	<line
	   id="line3-3"
	   x1="625"
	   y1="-649.5190528"
	   x2="500"
	   y2="-577.3502692" />
	<line
	   id="line3-4"
	   x1="875"
	   y1="-216.5063509"
	   x2="750"
	   y2="-144.3375673" />
	<line
	   id="line3-5"
	   x1="750"
	   y1="-0.0"
	   x2="750"
	   y2="-144.3375673" />
	<line
	   id="line3-6"
	   x1="250"
	   y1="-0.0"
	   x2="250"
	   y2="-144.3375673" />
	<text
	   x="500"
	   y="-660"
	   text-anchor="middle"
	   id="up_3">14.4%</text>
	<text
	   y="-50"
	   x="70"
	   id="down_left_3">10.8%</text>
	<text
	   y="-50"
	   x="770"
	   id="down_right_3">16.4%</text>
	<text
	   x="500"
	   y="-50"
	   text-anchor="middle"
	   id="down_side_3">6.8%</text>
	<text
	   x="500"
	   y="-280"
	   text-anchor="middle"
	   id="center_3">40.8%</text>
	<text
	   x="685.0"
	   y="-390.8439"
	   text-anchor="middle"
	   transform="rotate(60,665.0,-380.8439)"
	   id="right_side_3">6.2%</text>
	<text
	   x="315.0"
	   y="-390.8439"
	   text-anchor="middle"
	   transform="rotate(-60,335.0,-380.8439)"
	   id="left_side_3">4.6%</text>
  </g>
</g></g>
</svg>
