<?xml version="1.0" encoding="UTF-8" standalone="no"?>
<!DOCTYPE svg PUBLIC "-//W3C//DTD SVG 1.1//EN" "http://www.w3.org/Graphics/SVG/1.1/DTD/svg11.dtd">
<svg
   xmlns:svg="http://www.w3.org/2000/svg"
   xmlns="http://www.w3.org/2000/svg"
   xmlns:xlink="http://www.w3.org/1999/xlink"
   version="1.1"
   baseProfile="full"
   id="body"
   width="800px"
   height="800px"
   viewBox="0 0 1000 1000"
   preserveAspectRatio="none">
  <defs>
    <style type="text/css"><![CDATA[
      circle{ stroke: none; }
      polygon{ stroke: black; stroke-width: 2px; fill: none; }
      line{ stroke: black; stroke-width: 2px; }
      text{ font-size:50px; }
    ]]></style>
  </defs>
  <title
     id="title1">SVG drawing</title>
<g transform="scale(0.45)"><g transform="translate(600,1050)">
  <g id="fig1">
	<polygon points="0.0,-0.0 1000.0,-0.0 500,-866.0254038" />
	<circle cx="465.3494982721" cy="-300.1008944018" r="2" />
	<circle cx="509.2553348046" cy="-775.6083771219" r="2" />
	<circle cx="481.2626704954" cy="-324.7348519431" r="2" />
	<circle cx="1000.0000000000" cy="-0.0000000000" r="2" />
	<circle cx="915.5444924048" cy="-57.2006636880" r="2" />
	<circle cx="500.0000343941" cy="-866.0068671555" r="2" />
	<circle cx="999.8558610082" cy="-0.0840074650" r="2" />
	<circle cx="0.0000000000" cy="-0.0000000000" r="2" />
	<circle cx="0.0002710124" cy="-0.0001564442" r="2" />
	<circle cx="491.9762414227" cy="-524.4512221134" r="2" />
	<circle cx="0.0000001620" cy="-0.0000000923" r="2" />
	<circle cx="494.7174007874" cy="-833.5670546013" r="2" />
	<circle cx="467.3146242910" cy="-276.2204523079" r="2" />
	<circle cx="0.0000000000" cy="-0.0000000000" r="2" />
	<circle cx="500.0016151155" cy="-861.1925497634" r="2" />
	<circle cx="499.0579912941" cy="-817.7653699516" r="2" />
	<circle cx="912.6324333037" cy="-50.4227990087" r="2" />
	<circle cx="499.5299144658" cy="-421.7359980753" r="2" />
	<circle cx="0.0000000000" cy="-0.0000000000" r="2" />
	<circle cx="503.3193955759" cy="-640.7924666823" r="2" />
	<circle cx="1000.0000000000" cy="-0.0000000000" r="2" />
	<circle cx="505.3833183386" cy="-838.3979808229" r="2" />
	<circle cx="428.6889955903" cy="-243.1780122200" r="2" />
	<circle cx="482.3629602665" cy="-288.0415478161" r="2" />
	<circle cx="1000.0000000000" cy="-0.0000000000" r="2" />
	<circle cx="2.5245646837" cy="-1.4571034535" r="2" />
	<circle cx="533.2821252669" cy="-268.8531299336" r="2" />
	<circle cx="891.1690524561" cy="-63.4244463724" r="2" />
	<circle cx="501.3225690052" cy="-860.1886596283" r="2" />
	<circle cx="499.9997609283" cy="-854.5442185764" r="2" />
	<circle cx="0.0000000000" cy="-0.0000000000" r="2" />
	<circle cx="457.5340926351" cy="-285.5311072538" r="2" />
	<circle cx="999.9999999851" cy="-0.0000000087" r="2" />
	<circle cx="457.5521059346" cy="-252.4476413211" r="2" />
	<circle cx="0.0000000000" cy="-0.0000000000" r="2" />
	<circle cx="997.8004385214" cy="-0.7038693822" r="2" />
	<circle cx="0.0000000000" cy="-0.0000000000" r="2" />
	<circle cx="104.4763055101" cy="-61.4698560846" r="2" />
	<circle cx="0.0000612685" cy="-0.0000353875" r="2" />
	<circle cx="501.1794137567" cy="-832.2140633913" r="2" />
	<circle cx="613.2151800163" cy="-439.0377120778" r="2" />
	<circle cx="1000.0000000000" cy="-0.0000000000" r="2" />
	<circle cx="500.0000000000" cy="-866.0254038000" r="2" />
	<circle cx="86.6792475891" cy="-28.6399923337" r="2" />
	<circle cx="999.9999999393" cy="-0.0000000379" r="2" />
	<circle cx="500.0000005777" cy="-866.0253995589" r="2" />
	<circle cx="432.8870983555" cy="-687.1790780965" r="2" />
	<circle cx="500.8836741605" cy="-863.8663611128" r="2" />
	<circle cx="68.7617202911" cy="-39.7164510051" r="2" />
	<circle cx="0.0000000000" cy="-0.0000000000" r="2" />
	<circle cx="498.5126197642" cy="-380.6268144049" r="2" />
	<circle cx="32.5924297339" cy="-18.8263728843" r="2" />
	<circle cx="503.3193955759" cy="-640.7924666823" r="2" />
	<circle cx="1000.0000000000" cy="-0.0000000000" r="2" />
	<circle cx="999.9999961538" cy="-0.0000022688" r="2" />
	<circle cx="614.7261757249" cy="-358.6916349887" r="2" />
	<circle cx="1000.0000000000" cy="-0.0000000000" r="2" />
	<circle cx="999.9995791305" cy="-0.0002511319" r="2" />
	<circle cx="987.1514432783" cy="-8.7781349700" r="2" />
	<circle cx="0.0897513164" cy="-0.0522539636" r="2" />
	<circle cx="500.0008159784" cy="-861.2476061948" r="2" />
	<circle cx="853.7958786635" cy="-152.2562871868" r="2" />
	<circle cx="500.0000000000" cy="-866.0254038000" r="2" />
	<circle cx="0.0746350591" cy="-0.0444225850" r="2" />
	<circle cx="500.0000000000" cy="-866.0254038000" r="2" />
	<circle cx="499.9663622183" cy="-859.1454079656" r="2" />
	<circle cx="985.4404566047" cy="-9.4532935888" r="2" />
	<circle cx="500.0589095668" cy="-865.4898838944" r="2" />
	<circle cx="401.8949475755" cy="-226.4482846388" r="2" />
	<circle cx="502.3925745869" cy="-832.8722958787" r="2" />
	<circle cx="1000.0000000000" cy="-0.0000000000" r="2" />
	<circle cx="999.9999858713" cy="-0.0000092423" r="2" />
	<circle cx="236.8184409386" cy="-133.5830896775" r="2" />
	<circle cx="385.2265819808" cy="-222.6166021247" r="2" />
	<circle cx="1000.0000000000" cy="-0.0000000000" r="2" />
	<circle cx="877.9849630500" cy="-71.0955114874" r="2" />
	<circle cx="999.9999937861" cy="-0.0000066455" r="2" />
	<circle cx="948.4456372041" cy="-32.2673930215" r="2" />
	<circle cx="29.1649276535" cy="-12.0945471406" r="2" />
	<circle cx="147.6753177056" cy="-84.2888029589" r="2" />
	<circle cx="500.0000000000" cy="-866.0254038000" r="2" />
	<circle cx="7.5306593576" cy="-4.8116907345" r="2" />
	<circle cx="850.5248201935" cy="-82.4737273164" r="2" />
	<circle cx="240.4075015239" cy="-138.6950497662" r="2" />
	<circle cx="17.7954477573" cy="-10.3139648125" r="2" />
	<circle cx="1000.0000000000" cy="-0.0000000000" r="2" />
	<circle cx="937.9937363724" cy="-36.0696867106" r="2" />
	<circle cx="233.0341954570" cy="-116.0462388574" r="2" />
	<circle cx="1000.0000000000" cy="-0.0000000000" r="2" />
	<circle cx="994.0159475309" cy="-3.4605301963" r="2" />
	<circle cx="890.1275787237" cy="-63.0833126701" r="2" />
	<circle cx="0.0171414193" cy="-0.0087359677" r="2" />
	<circle cx="1.3440323405" cy="-0.7737264075" r="2" />
	<circle cx="500.0000000000" cy="-866.0254038000" r="2" />
	<circle cx="0.0000280960" cy="-0.0000162292" r="2" />
	<circle cx="999.9999999402" cy="-0.0000000345" r="2" />
	<circle cx="553.4375790966" cy="-292.0471831708" r="2" />
	<circle cx="499.9940724110" cy="-830.2558758002" r="2" />
	<circle cx="596.4179319268" cy="-251.2651530837" r="2" />
	<circle cx="449.4826007330" cy="-259.5159094234" r="2" />
	<circle cx="995.8468654886" cy="-2.3977599837" r="2" />
	<circle cx="500.0000000219" cy="-866.0250915886" r="2" />
	<circle cx="999.9991628185" cy="-0.0004838790" r="2" />
	<circle cx="499.9749744611" cy="-859.3988172809" r="2" />
	<circle cx="0.0000000000" cy="-0.0000000000" r="2" />
	<circle cx="446.2370440997" cy="-280.4917959492" r="2" />
	<circle cx="499.9962901201" cy="-865.5478084783" r="2" />
	<circle cx="509.7346544702" cy="-273.9431014193" r="2" />
	<circle cx="0.5120292020" cy="-0.2941665713" r="2" />
	<circle cx="808.0532064363" cy="-110.8724912410" r="2" />
	<circle cx="0.0000000000" cy="-0.0000000000" r="2" />
	<circle cx="429.3457939037" cy="-298.2938427373" r="2" />
	<circle cx="259.4127869152" cy="-149.7626779063" r="2" />
	<circle cx="503.3310390662" cy="-218.8306323615" r="2" />
	<circle cx="383.4589187451" cy="-190.0909054119" r="2" />
	<circle cx="477.8224673608" cy="-275.8458655726" r="2" />
	<circle cx="999.9999999973" cy="-0.0000000028" r="2" />
	<circle cx="510.7945578756" cy="-198.6130288188" r="2" />
	<circle cx="413.2413616368" cy="-685.4471572334" r="2" />
	<circle cx="703.2967236639" cy="-279.2933864697" r="2" />
	<circle cx="600.9366381356" cy="-295.6926064752" r="2" />
	<circle cx="1000.0000000000" cy="-0.0000000000" r="2" />
	<circle cx="499.9968456910" cy="-865.3479167450" r="2" />
	<circle cx="500.0000000030" cy="-866.0254032711" r="2" />
	<circle cx="550.5927682571" cy="-259.1047982501" r="2" />
	<circle cx="552.4674423459" cy="-491.5990338462" r="2" />
	<circle cx="251.2628903262" cy="-101.7028421114" r="2" />
	<circle cx="0.0000000000" cy="-0.0000000000" r="2" />
	<circle cx="942.8839299424" cy="-32.8213976362" r="2" />
	<circle cx="292.7733943290" cy="-147.7398158159" r="2" />
	<circle cx="446.2863155955" cy="-246.0435742512" r="2" />
	<circle cx="445.7386103868" cy="-257.0229204301" r="2" />
	<circle cx="0.0000000000" cy="-0.0000000000" r="2" />
	<circle cx="916.3061268010" cy="-52.3108809330" r="2" />
	<circle cx="500.0000000000" cy="-866.0254038000" r="2" />
	<circle cx="510.1380560977" cy="-174.4524993373" r="2" />
	<circle cx="0.0029891318" cy="-0.0017273171" r="2" />
	<circle cx="863.0271534729" cy="-79.7356437899" r="2" />
	<circle cx="510.9935231216" cy="-645.4608912420" r="2" />
	<circle cx="5.6893262418" cy="-2.3679555708" r="2" />
	<circle cx="1000.0000000000" cy="-0.0000000000" r="2" />
	<circle cx="502.3288595701" cy="-331.7648749370" r="2" />
	<circle cx="934.2570679870" cy="-17.3089326236" r="2" />
	<circle cx="548.1528874471" cy="-260.7497156941" r="2" />
	<circle cx="999.9999999610" cy="-0.0000000263" r="2" />
	<circle cx="996.2399930872" cy="-1.8873387338" r="2" />
	<circle cx="499.9902741471" cy="-861.4990182325" r="2" />
	<circle cx="483.9203290442" cy="-253.4000668596" r="2" />
	<circle cx="1000.0000000000" cy="-0.0000000000" r="2" />
	<circle cx="999.9938046603" cy="-0.0035802872" r="2" />
	<circle cx="476.9568552020" cy="-495.8591144178" r="2" />
	<circle cx="669.2260993447" cy="-192.2979955587" r="2" />
	<circle cx="498.8024154852" cy="-282.6553106528" r="2" />
	<circle cx="476.5036367392" cy="-310.1738614726" r="2" />
	<circle cx="0.0000000000" cy="-0.0000000000" r="2" />
	<circle cx="492.2761027547" cy="-283.6886203630" r="2" />
	<circle cx="611.3362018642" cy="-222.3565254926" r="2" />
	<circle cx="23.2405960228" cy="-12.7775534647" r="2" />
	<circle cx="499.9999979907" cy="-866.0206489365" r="2" />
	<circle cx="500.1149870091" cy="-861.0947121406" r="2" />
	<circle cx="0.0003460581" cy="-0.0002004286" r="2" />
	<circle cx="502.7738674896" cy="-804.9932776882" r="2" />
	<circle cx="488.8272019481" cy="-292.5645234771" r="2" />
	<circle cx="300.5755618108" cy="-74.9583491915" r="2" />
	<circle cx="0.0000000000" cy="-0.0000000000" r="2" />
	<circle cx="499.9998147726" cy="-866.0075081675" r="2" />
	<circle cx="1000.0000000000" cy="-0.0000000000" r="2" />
	<circle cx="0.0000010780" cy="-0.0000005156" r="2" />
	<circle cx="500.0041908405" cy="-866.0001126150" r="2" />
	<circle cx="504.2234265973" cy="-287.5551164893" r="2" />
	<circle cx="0.0063628793" cy="-0.0039712913" r="2" />
	<circle cx="951.7344061187" cy="-27.8870844187" r="2" />
	<circle cx="1000.0000000000" cy="-0.0000000000" r="2" />
	<circle cx="500.0000000000" cy="-866.0254038000" r="2" />
	<circle cx="1000.0000000000" cy="-0.0000000000" r="2" />
	<circle cx="1000.0000000000" cy="-0.0000000000" r="2" />
	<circle cx="999.5047093550" cy="-0.2883573328" r="2" />
	<circle cx="500.0000000000" cy="-866.0254038000" r="2" />
	<circle cx="500.0143716614" cy="-862.7940278629" r="2" />
	<circle cx="498.0051726710" cy="-627.7847319909" r="2" />
	<circle cx="995.8657267952" cy="-3.1591927927" r="2" />
	<circle cx="500.0000000000" cy="-866.0254038000" r="2" />
	<circle cx="10.4356837403" cy="-6.0259175014" r="2" />
	<circle cx="989.7630274074" cy="-5.7640821254" r="2" />
	<circle cx="963.4534304085" cy="-21.6089937602" r="2" />
	<circle cx="998.2825756726" cy="-0.9780232473" r="2" />
	<circle cx="959.7271664308" cy="-23.2774784626" r="2" />
	<circle cx="499.7508172118" cy="-803.4015963917" r="2" />
	<circle cx="918.6538469553" cy="-40.6571930972" r="2" />
	<circle cx="999.9700011775" cy="-0.0173145451" r="2" />
	<circle cx="59.5661143689" cy="-36.4447738723" r="2" />
	<circle cx="0.0381165318" cy="-0.0220126095" r="2" />
	<circle cx="988.8395860918" cy="-6.4442999697" r="2" />
	<circle cx="658.6524765348" cy="-262.4782123884" r="2" />
	<circle cx="999.9999999919" cy="-0.0000000067" r="2" />
	<circle cx="435.0830315594" cy="-243.8476080062" r="2" />
	<circle cx="497.9259009486" cy="-856.2300465053" r="2" />
	<circle cx="950.6346500711" cy="-28.1288996729" r="2" />
	<circle cx="329.6268483287" cy="-65.6486925550" r="2" />
	<circle cx="35.0280630212" cy="-18.7851451031" r="2" />
	<circle cx="539.7786084413" cy="-267.2291358812" r="2" />
	<circle cx="499.9999999999" cy="-866.0254014298" r="2" />
	<circle cx="499.9999999966" cy="-866.0251667688" r="2" />
	<circle cx="499.9806882335" cy="-851.7968480592" r="2" />
	<circle cx="499.6585479052" cy="-861.5078069626" r="2" />
	<circle cx="38.5746564926" cy="-22.6290602149" r="2" />
	<circle cx="756.6822365988" cy="-140.2475816550" r="2" />
	<circle cx="500.0000000000" cy="-866.0254036329" r="2" />
	<circle cx="0.0513524765" cy="-0.0256980164" r="2" />
	<circle cx="499.9998530404" cy="-864.4995691465" r="2" />
	<circle cx="777.9816097897" cy="-51.8647160067" r="2" />
	<circle cx="627.1441144852" cy="-132.9114930796" r="2" />
	<circle cx="0.0000000000" cy="-0.0000000000" r="2" />
	<circle cx="500.0330568310" cy="-857.4646347329" r="2" />
	<circle cx="999.9999999528" cy="-0.0000000426" r="2" />
	<circle cx="502.1575991035" cy="-674.8613564501" r="2" />
	<circle cx="0.0000000000" cy="-0.0000000000" r="2" />
	<circle cx="199.4092983431" cy="-112.7213448969" r="2" />
	<circle cx="787.3135309930" cy="-122.7856227341" r="2" />
	<circle cx="474.9294733491" cy="-432.2967785597" r="2" />
	<circle cx="500.0000000000" cy="-866.0254038000" r="2" />
	<circle cx="500.0000000000" cy="-866.0254038000" r="2" />
	<circle cx="1000.0000000000" cy="-0.0000000000" r="2" />
	<circle cx="596.7962044151" cy="-212.7903775678" r="2" />
	<circle cx="499.9649105152" cy="-794.6007309521" r="2" />
	<circle cx="999.9999957630" cy="-0.0000024443" r="2" />
	<circle cx="499.9887077606" cy="-865.7687387072" r="2" />
	<circle cx="499.9984581874" cy="-865.7969820161" r="2" />
	<circle cx="500.0000000000" cy="-866.0254038000" r="2" />
	<circle cx="1000.0000000000" cy="-0.0000000000" r="2" />
	<circle cx="500.0000000000" cy="-866.0254038000" r="2" />
	<circle cx="500.0000000000" cy="-866.0254037980" r="2" />
	<circle cx="0.2784489172" cy="-0.2105623454" r="2" />
	<circle cx="992.6816825349" cy="-4.2265503183" r="2" />
	<circle cx="483.2994374469" cy="-278.7375268925" r="2" />
	<circle cx="500.0000000000" cy="-866.0254038000" r="2" />
	<circle cx="0.0000191569" cy="-0.0000117913" r="2" />
	<circle cx="985.3501914941" cy="-8.8466685322" r="2" />
	<circle cx="115.5161417319" cy="-66.5960080990" r="2" />
	<circle cx="0.0000000000" cy="-0.0000000000" r="2" />
	<circle cx="999.9991077016" cy="-0.0005105468" r="2" />
	<circle cx="502.4909432620" cy="-291.6546593872" r="2" />
	<circle cx="479.6794094311" cy="-324.2755431886" r="2" />
	<circle cx="68.5342830134" cy="-39.9709772839" r="2" />
	<circle cx="107.2677605832" cy="-63.8328951027" r="2" />
	<circle cx="460.6675687158" cy="-88.2712640786" r="2" />
	<circle cx="999.9999591675" cy="-0.0000235822" r="2" />
	<circle cx="43.9707396016" cy="-42.5247887519" r="2" />
	<circle cx="500.0507266540" cy="-430.9745163535" r="2" />
	<circle cx="273.9872853484" cy="-91.1300270116" r="2" />
	<circle cx="789.5675128168" cy="-121.4341110448" r="2" />
	<circle cx="0.0000000000" cy="-0.0000000000" r="2" />
	<circle cx="1000.0000000000" cy="-0.0000000000" r="2" />
	<circle cx="5.7176335464" cy="-1.1006553021" r="2" />
	<circle cx="662.0193707667" cy="-195.6688605348" r="2" />
	<circle cx="0.9791554916" cy="-0.4027010783" r="2" />
	<circle cx="106.9517560198" cy="-49.6926910645" r="2" />
	<circle cx="999.9998882408" cy="-0.0000645720" r="2" />
	<circle cx="895.1131269798" cy="-79.6431928867" r="2" />
	<circle cx="956.5089225319" cy="-25.0424105663" r="2" />
	<circle cx="498.3414315132" cy="-297.2032231925" r="2" />
	<circle cx="786.7380074685" cy="-118.5306705676" r="2" />
	<circle cx="818.9255854323" cy="-183.5726747062" r="2" />
	<circle cx="0.0000000000" cy="-0.0000000000" r="2" />
	<circle cx="502.8881447337" cy="-297.8728334881" r="2" />
	<circle cx="910.7564780430" cy="-54.5645080993" r="2" />
	<circle cx="608.8307268140" cy="-260.7875168582" r="2" />
	<circle cx="864.8051954027" cy="-81.9951118930" r="2" />
	<circle cx="499.9999910923" cy="-865.9585616584" r="2" />
	<circle cx="503.9695509885" cy="-289.3997949477" r="2" />
	<circle cx="999.9999871855" cy="-0.0000043014" r="2" />
	<circle cx="0.0000009647" cy="-0.0000009605" r="2" />
	<circle cx="500.0000001023" cy="-866.0251673905" r="2" />
	<circle cx="46.2440336746" cy="-26.5814385628" r="2" />
	<circle cx="146.9679224857" cy="-84.5158121570" r="2" />
	<circle cx="997.7114937125" cy="-1.8524335096" r="2" />
	<circle cx="999.9999787341" cy="-0.0000122817" r="2" />
	<circle cx="149.7359926609" cy="-57.0434019556" r="2" />
	<circle cx="978.8134483333" cy="-12.2995269688" r="2" />
	<circle cx="0.0000000000" cy="-0.0000000000" r="2" />
	<circle cx="890.7477252248" cy="-61.8763507367" r="2" />
	<circle cx="491.6770162027" cy="-290.4024043353" r="2" />
	<circle cx="7.9676568685" cy="-4.5839884925" r="2" />
	<circle cx="452.8530910015" cy="-363.3165376757" r="2" />
	<circle cx="600.3495577265" cy="-161.2733965504" r="2" />
	<circle cx="0.2437221693" cy="-0.3178964427" r="2" />
	<circle cx="0.0039724086" cy="-0.0022930353" r="2" />
	<circle cx="526.3606239715" cy="-421.2618835362" r="2" />
	<circle cx="519.1421334143" cy="-691.2168364278" r="2" />
	<circle cx="451.4524163315" cy="-264.1131699250" r="2" />
	<circle cx="727.9547816834" cy="-148.8816703247" r="2" />
	<circle cx="74.8039111657" cy="-8.0275427522" r="2" />
	<circle cx="397.5343230788" cy="-424.6488347715" r="2" />
	<circle cx="984.1693546167" cy="-16.8127827335" r="2" />
	<circle cx="0.0000000000" cy="-0.0000000000" r="2" />
	<circle cx="820.5908059976" cy="-283.1720668514" r="2" />
	<circle cx="499.9949993920" cy="-842.1825593224" r="2" />
	<circle cx="392.6521449443" cy="-170.1588300996" r="2" />
	<circle cx="0.0000012185" cy="-0.0000007046" r="2" />
	<circle cx="492.1394199280" cy="-389.9312804971" r="2" />
	<circle cx="9.3702490483" cy="-7.5285423931" r="2" />
	<circle cx="500.0000000000" cy="-866.0254038000" r="2" />
	<circle cx="0.0000000000" cy="-0.0000000000" r="2" />
	<circle cx="572.0441264817" cy="-515.1839991452" r="2" />
	<circle cx="499.9699336299" cy="-855.2933685238" r="2" />
	<circle cx="0.0000003762" cy="-0.0000002164" r="2" />
	<circle cx="934.1918672618" cy="-38.1643689618" r="2" />
	<circle cx="869.9740036868" cy="-73.3666352851" r="2" />
	<circle cx="708.8805479291" cy="-164.3465394470" r="2" />
	<circle cx="997.5825234101" cy="-1.3918943281" r="2" />
	<circle cx="414.5804357948" cy="-239.3624330985" r="2" />
	<circle cx="500.0126240468" cy="-848.2351836624" r="2" />
	<circle cx="499.9986790506" cy="-859.9806220711" r="2" />
	<circle cx="852.1104639966" cy="-70.5214358605" r="2" />
	<circle cx="999.6666479652" cy="-0.1472665728" r="2" />
	<circle cx="1000.0000000000" cy="-0.0000000000" r="2" />
	<circle cx="672.8092794054" cy="-215.3547848817" r="2" />
	<circle cx="501.0479295690" cy="-299.9488507522" r="2" />
	<circle cx="880.8439453330" cy="-68.9426041919" r="2" />
	<circle cx="999.9971962289" cy="-0.0033782809" r="2" />
	<circle cx="494.2684018469" cy="-337.9413790225" r="2" />
	<circle cx="785.4852233039" cy="-123.5154929230" r="2" />
	<circle cx="804.9674705316" cy="-141.0041606242" r="2" />
	<circle cx="0.0000001126" cy="-0.0000000658" r="2" />
	<circle cx="685.8079063407" cy="-224.5684408046" r="2" />
	<circle cx="958.9141002579" cy="-23.7074856435" r="2" />
	<circle cx="333.5633991151" cy="-203.6742877262" r="2" />
	<circle cx="500.0000000000" cy="-866.0254038000" r="2" />
	<circle cx="1.8806884384" cy="-1.0713863303" r="2" />
	<circle cx="400.4097663021" cy="-272.5202813119" r="2" />
	<circle cx="499.9999952911" cy="-866.0250400641" r="2" />
	<circle cx="590.3399013473" cy="-256.4558321486" r="2" />
	<circle cx="500.0367663119" cy="-612.3069893108" r="2" />
	<circle cx="235.6210903713" cy="-116.6397036091" r="2" />
	<circle cx="17.8198854794" cy="-10.3987034934" r="2" />
	<circle cx="999.4569877622" cy="-0.4431569379" r="2" />
	<circle cx="15.6392623897" cy="-8.2631663114" r="2" />
	<circle cx="0.0000001976" cy="-0.0000001092" r="2" />
	<circle cx="500.0000000000" cy="-866.0254038000" r="2" />
	<circle cx="1000.0000000000" cy="-0.0000000000" r="2" />
	<circle cx="926.3583693446" cy="-60.6982157944" r="2" />
	<circle cx="499.9999890890" cy="-866.0125525287" r="2" />
	<circle cx="1000.0000000000" cy="-0.0000000000" r="2" />
	<circle cx="482.6707362953" cy="-663.6452954675" r="2" />
	<circle cx="659.3821659619" cy="-264.7296822192" r="2" />
	<circle cx="288.4470918484" cy="-220.3969691967" r="2" />
	<circle cx="495.9191641672" cy="-725.2305401459" r="2" />
	<circle cx="100.9357090464" cy="-73.8378397768" r="2" />
	<circle cx="499.3476835104" cy="-799.3884390024" r="2" />
	<circle cx="500.5031229559" cy="-361.8733412010" r="2" />
	<circle cx="0.0953678267" cy="-0.0616343188" r="2" />
	<circle cx="0.0000000000" cy="-0.0000000000" r="2" />
	<circle cx="999.9996767609" cy="-0.0001867806" r="2" />
	<circle cx="409.6837945883" cy="-564.4342182403" r="2" />
	<circle cx="449.9302032704" cy="-523.5411107214" r="2" />
	<circle cx="143.1411644822" cy="-82.6608152214" r="2" />
	<circle cx="540.5458069075" cy="-43.3535419159" r="2" />
	<circle cx="499.7800851386" cy="-339.9619949103" r="2" />
	<circle cx="858.0248877577" cy="-80.2184836823" r="2" />
	<circle cx="4.1805867206" cy="-2.3892720368" r="2" />
	<circle cx="499.0621212692" cy="-568.4824487145" r="2" />
	<circle cx="1000.0000000000" cy="-0.0000000000" r="2" />
	<circle cx="503.3471126723" cy="-301.5200657085" r="2" />
	<circle cx="532.6471424113" cy="-273.1985998617" r="2" />
	<circle cx="999.9999977337" cy="-0.0000011947" r="2" />
	<circle cx="0.3976891923" cy="-0.2250710979" r="2" />
	<circle cx="496.7194637026" cy="-836.6694745157" r="2" />
	<circle cx="0.0098825550" cy="-0.0112147326" r="2" />
	<circle cx="500.0000000000" cy="-866.0254038000" r="2" />
	<circle cx="976.7501946040" cy="-15.9301550605" r="2" />
	<circle cx="721.9940018475" cy="-193.0110416582" r="2" />
	<circle cx="500.0072483641" cy="-791.0044567535" r="2" />
	<circle cx="1.8149626919" cy="-0.9619620058" r="2" />
	<circle cx="35.8330604376" cy="-20.7067446846" r="2" />
	<circle cx="488.5013322510" cy="-283.4158105164" r="2" />
	<circle cx="0.0000000000" cy="-0.0000000000" r="2" />
	<circle cx="999.9987195215" cy="-0.0007322641" r="2" />
	<circle cx="501.0399975369" cy="-606.9905861901" r="2" />
	<circle cx="989.4479526333" cy="-6.0305724696" r="2" />
	<circle cx="14.6602380762" cy="-10.1713738039" r="2" />
	<circle cx="0.0066365422" cy="-0.0038283215" r="2" />
	<circle cx="587.7003886826" cy="-238.1179860391" r="2" />
	<circle cx="0.0002706239" cy="-0.0001562696" r="2" />
	<circle cx="500.0069342854" cy="-692.6960717735" r="2" />
	<circle cx="991.8931064036" cy="-4.6842325501" r="2" />
	<circle cx="0.0000000000" cy="-0.0000000000" r="2" />
	<circle cx="207.9654096643" cy="-119.9795645141" r="2" />
	<circle cx="500.0003140693" cy="-865.8169776140" r="2" />
	<circle cx="499.8116872999" cy="-338.5101207327" r="2" />
	<circle cx="498.0954467540" cy="-539.0107491860" r="2" />
	<circle cx="999.9999999896" cy="-0.0000000060" r="2" />
	<circle cx="11.0118461099" cy="-6.0895712234" r="2" />
	<circle cx="999.9892355747" cy="-0.0069092156" r="2" />
	<circle cx="38.2578894328" cy="-21.5468873969" r="2" />
	<circle cx="499.9999999995" cy="-866.0254037972" r="2" />
	<circle cx="618.7519926727" cy="-207.5629482958" r="2" />
	<circle cx="477.7989362286" cy="-275.5654446335" r="2" />
	<circle cx="999.9448286832" cy="-0.0380410499" r="2" />
	<circle cx="298.4060707921" cy="-173.8501868002" r="2" />
	<circle cx="844.4569286014" cy="-89.3074851441" r="2" />
	<circle cx="537.8843289053" cy="-255.6551689383" r="2" />
	<circle cx="663.7551024552" cy="-194.1234644802" r="2" />
	<circle cx="499.9070229631" cy="-383.5036801098" r="2" />
	<circle cx="534.9616150293" cy="-267.4446858490" r="2" />
	<circle cx="999.9999999374" cy="-0.0000000362" r="2" />
	<circle cx="499.3261831006" cy="-768.9215201223" r="2" />
	<circle cx="1000.0000000000" cy="-0.0000000000" r="2" />
	<circle cx="499.5463581677" cy="-346.4034236457" r="2" />
	<circle cx="39.3427452369" cy="-5.5508191476" r="2" />
	<circle cx="500.0763033756" cy="-421.4939461951" r="2" />
	<circle cx="1000.0000000000" cy="-0.0000000000" r="2" />
	<circle cx="494.2263482081" cy="-746.2620952610" r="2" />
	<circle cx="634.6372955076" cy="-212.9450875723" r="2" />
	<circle cx="3.3360001069" cy="-1.9253187538" r="2" />
	<circle cx="78.7766135361" cy="-45.4548655917" r="2" />
	<circle cx="0.0000000000" cy="-0.0000000000" r="2" />
	<circle cx="4.2571328940" cy="-2.4577693899" r="2" />
	<circle cx="499.7453475584" cy="-705.5714859756" r="2" />
	<circle cx="500.0000001720" cy="-866.0254003863" r="2" />
	<circle cx="999.9999664448" cy="-0.0000191366" r="2" />
	<circle cx="999.9999967944" cy="-0.0000018509" r="2" />
	<circle cx="999.9792511441" cy="-0.0211705209" r="2" />
	<circle cx="1.1044339899" cy="-0.5117747076" r="2" />
	<circle cx="499.7311973160" cy="-652.2478314761" r="2" />
	<circle cx="500.5111304830" cy="-771.9133437438" r="2" />
	<circle cx="500.7642767563" cy="-706.1372044843" r="2" />
	<circle cx="202.9574636869" cy="-103.2218013324" r="2" />
	<circle cx="0.0000000000" cy="-0.0000000000" r="2" />
	<circle cx="535.7804187557" cy="-245.6701480012" r="2" />
	<circle cx="499.9998730884" cy="-866.0247192163" r="2" />
	<circle cx="390.6918702838" cy="-225.4723387599" r="2" />
	<circle cx="503.3306401067" cy="-277.6173773578" r="2" />
	<circle cx="500.0090081661" cy="-833.7830630172" r="2" />
	<circle cx="71.8204103893" cy="-42.0317095819" r="2" />
	<circle cx="500.0000000479" cy="-866.0236760836" r="2" />
	<circle cx="980.9410863429" cy="-11.6035171831" r="2" />
	<circle cx="0.0160494324" cy="-0.0092642682" r="2" />
	<circle cx="0.0002181684" cy="-0.0001259541" r="2" />
	<circle cx="498.2795050752" cy="-435.6736107587" r="2" />
	<circle cx="496.2801695430" cy="-529.6104398799" r="2" />
	<circle cx="147.6178730622" cy="-85.2096226351" r="2" />
	<circle cx="0.0586131181" cy="-0.0341155778" r="2" />
	<circle cx="0.6442261864" cy="-0.3719498434" r="2" />
	<circle cx="500.0121078352" cy="-854.8739538417" r="2" />
	<circle cx="612.8512465005" cy="-223.7169416077" r="2" />
	<circle cx="444.0875756666" cy="-730.2161071025" r="2" />
	<circle cx="491.6891792407" cy="-312.2133492460" r="2" />
	<circle cx="0.0000074457" cy="-0.0000042934" r="2" />
	<circle cx="1000.0000000000" cy="-0.0000000000" r="2" />
	<circle cx="190.8021980935" cy="-111.4687763392" r="2" />
	<circle cx="381.9161895115" cy="-210.7803860139" r="2" />
	<circle cx="501.5364642665" cy="-765.0003982631" r="2" />
	<circle cx="500.0017748964" cy="-866.0154983367" r="2" />
	<circle cx="985.4480848167" cy="-9.2574621190" r="2" />
	<circle cx="999.7590847526" cy="-0.0393748486" r="2" />
	<circle cx="500.0000000000" cy="-866.0254038000" r="2" />
	<circle cx="1.0806876029" cy="-0.6270206227" r="2" />
	<circle cx="428.0661512764" cy="-397.8219527922" r="2" />
	<circle cx="52.0869035879" cy="-31.0273780794" r="2" />
	<circle cx="500.0000338571" cy="-865.7686263757" r="2" />
	<circle cx="0.0000000000" cy="-0.0000000000" r="2" />
	<circle cx="1.0099571093" cy="-0.4879406002" r="2" />
	<circle cx="1000.0000000000" cy="-0.0000000000" r="2" />
	<circle cx="499.9969750796" cy="-866.0027280414" r="2" />
	<circle cx="499.9999287059" cy="-866.0240044561" r="2" />
	<circle cx="499.9999999969" cy="-866.0254030166" r="2" />
	<circle cx="500.0127932716" cy="-863.0192425433" r="2" />
	<circle cx="141.1023462528" cy="-86.8083262209" r="2" />
	<circle cx="999.6161743829" cy="-0.2200406744" r="2" />
	<circle cx="9.8132405506" cy="-5.6617586868" r="2" />
	<circle cx="686.1844686691" cy="-207.4628548637" r="2" />
	<circle cx="545.5547644562" cy="-267.8722181689" r="2" />
	<circle cx="500.0000000000" cy="-866.0254038000" r="2" />
	<circle cx="561.8009632728" cy="-252.8111405722" r="2" />
	<circle cx="334.8215004400" cy="-196.8985613767" r="2" />
	<circle cx="499.9420894698" cy="-848.2306603515" r="2" />
	<circle cx="498.6923434832" cy="-779.1531555079" r="2" />
	<circle cx="0.0000000012" cy="-0.0000000007" r="2" />
	<circle cx="1000.0000000000" cy="-0.0000000000" r="2" />
	<circle cx="431.8703251381" cy="-266.3560902126" r="2" />
	<circle cx="447.8556878042" cy="-292.3947801326" r="2" />
	<circle cx="687.9314680207" cy="-170.1283819352" r="2" />
	<circle cx="56.1297987161" cy="-33.4499307201" r="2" />
	<circle cx="499.6266949846" cy="-820.0713378107" r="2" />
	<circle cx="0.0000000000" cy="-0.0000000000" r="2" />
	<circle cx="370.7597447780" cy="-217.9583171109" r="2" />
	<circle cx="500.0000000000" cy="-866.0254038000" r="2" />
	<circle cx="445.0157086314" cy="-293.5600894659" r="2" />
	<circle cx="0.0471943206" cy="-0.0280031927" r="2" />
	<circle cx="999.9999999971" cy="-0.0000000017" r="2" />
	<circle cx="885.7404592392" cy="-40.8156308672" r="2" />
	<circle cx="177.8681378674" cy="-100.7996045969" r="2" />
	<circle cx="500.0000066896" cy="-866.0253739560" r="2" />
	<circle cx="499.9979517495" cy="-865.5096125375" r="2" />
	<circle cx="499.9999969750" cy="-866.0236860161" r="2" />
	<circle cx="1000.0000000000" cy="-0.0000000000" r="2" />
	<circle cx="999.9977269990" cy="-0.0013997520" r="2" />
	<circle cx="500.0000000000" cy="-866.0254038000" r="2" />
	<circle cx="0.0000000000" cy="-0.0000000000" r="2" />
	<circle cx="2.5052220926" cy="-1.9120364122" r="2" />
  </g>
  <g id="fig2" transform="translate(-550.0,1000)">
	<polygon points="0.0,-0.0 1000.0,-0.0 500.0,-866.0254038" />
	<line
	   id="line2-1"
	   y2="-0.0"
	   x2="500"
	   y1="-288.6751346"
	   x1="500" />
	<line
	   id="line2-2"
	   y2="-433.0127019"
	   x2="250"
	   y1="-288.6751346"
	   x1="500" />
	<line
	   id="line2-3"
	   y2="-433.0127019"
	   x2="750"
	   y1="-288.6751346"
	   x1="500" />
	<text
	   x="440"
	   y="-500"
	   id="up_2">30.4%</text>
	<text
	   x="250"
	   y="-150"
	   id="down_left_2">34.4%</text>
	<text
	   x="630"
	   y="-150"
	   id="down_right_2">35.2%</text>
  </g>
  <g id="fig3" transform="translate(550,1000)">
	<polygon points="0.0,-0.0 1000.0,-0.0 500.0,-866.0254038" />
	<polygon id="triangle3b" points="250,-144.3375673 750,-144.3375673 500,-577.3502692" />
	<line
	   id="line3-1"
	   x1="125"
	   y1="-216.5063509"
	   x2="250"
	   y2="-144.3375673" />
	<line
	   id="line3-2"
	   x1="375"
	   y1="-649.5190528"
	   x2="500"
	   y2="-577.3502692" />
	<line
	   id="line3-3"
	   x1="625"
	   y1="-649.5190528"
	   x2="500"
	   y2="-577.3502692" />
	<line
	   id="line3-4"
	   x1="875"
	   y1="-216.5063509"
	   x2="750"
	   y2="-144.3375673" />
	<line
	   id="line3-5"
	   x1="750"
	   y1="-0.0"
	   x2="750"
	   y2="-144.3375673" />
	<line
	   id="line3-6"
	   x1="250"
	   y1="-0.0"
	   x2="250"
	   y2="-144.3375673" />
	<text
	   x="500"
	   y="-660"
	   text-anchor="middle"
	   id="up_3">22.8%</text>
	<text
	   y="-50"
	   x="70"
	   id="down_left_3">25.4%</text>
	<text
	   y="-50"
	   x="770"
	   id="down_right_3">26.2%</text>
	<text
	   x="500"
	   y="-50"
	   text-anchor="middle"
	   id="down_side_3">1.4%</text>
	<text
	   x="500"
	   y="-280"
	   text-anchor="middle"
	   id="center_3">22.2%</text>
	<text
	   x="685.0"
	   y="-390.8439"
	   text-anchor="middle"
	   transform="rotate(60,665.0,-380.8439)"
	   id="right_side_3">1.2%</text>
	<text
	   x="315.0"
	   y="-390.8439"
	   text-anchor="middle"
	   transform="rotate(-60,335.0,-380.8439)"
	   id="left_side_3">0.8%</text>
  </g>
</g></g>
</svg>
