<?xml version="1.0" encoding="UTF-8" standalone="no"?>
<!DOCTYPE svg PUBLIC "-//W3C//DTD SVG 1.1//EN" "http://www.w3.org/Graphics/SVG/1.1/DTD/svg11.dtd">
<svg
   xmlns:svg="http://www.w3.org/2000/svg"
   xmlns="http://www.w3.org/2000/svg"
   xmlns:xlink="http://www.w3.org/1999/xlink"
   version="1.1"
   baseProfile="full"
   id="body"
   width="800px"
   height="800px"
   viewBox="0 0 1000 1000"
   preserveAspectRatio="none">
  <defs>
    <style type="text/css"><![CDATA[
      circle{ stroke: none; }
      polygon{ stroke: black; stroke-width: 2px; fill: none; }
      line{ stroke: black; stroke-width: 2px; }
      text{ font-size:50px; }
    ]]></style>
  </defs>
  <title
     id="title1">SVG drawing</title>
<g transform="scale(0.45)"><g transform="translate(600,1050)">
  <g id="fig1">
	<polygon points="0.0,-0.0 1000.0,-0.0 500,-866.0254038" />
	<circle cx="500.0000000744" cy="-866.0243778538" r="2" />
	<circle cx="62.1405192049" cy="-31.7374290364" r="2" />
	<circle cx="499.8865118715" cy="-863.8618191428" r="2" />
	<circle cx="981.4130748676" cy="-18.1479135315" r="2" />
	<circle cx="84.9455367225" cy="-49.4980458204" r="2" />
	<circle cx="467.8978019963" cy="-506.0858634323" r="2" />
	<circle cx="314.7029958335" cy="-181.7423540664" r="2" />
	<circle cx="928.2460329643" cy="-44.6510006922" r="2" />
	<circle cx="0.0136166785" cy="-0.0078680080" r="2" />
	<circle cx="998.8067319354" cy="-0.9060164728" r="2" />
	<circle cx="999.9772833633" cy="-0.0131100553" r="2" />
	<circle cx="499.9286920329" cy="-519.0980532085" r="2" />
	<circle cx="999.2840133998" cy="-0.4459291665" r="2" />
	<circle cx="994.4022446836" cy="-3.6196983125" r="2" />
	<circle cx="0.0000000001" cy="-0.0000000000" r="2" />
	<circle cx="1000.0000000000" cy="-0.0000000000" r="2" />
	<circle cx="503.4830370617" cy="-258.9386907562" r="2" />
	<circle cx="1000.0000000000" cy="-0.0000000000" r="2" />
	<circle cx="500.1091150259" cy="-850.6273659267" r="2" />
	<circle cx="500.0000008940" cy="-866.0253983454" r="2" />
	<circle cx="609.0106257552" cy="-166.4441734318" r="2" />
	<circle cx="0.0687773787" cy="-0.0400956680" r="2" />
	<circle cx="61.1711171304" cy="-35.3192015064" r="2" />
	<circle cx="511.0478274042" cy="-726.0983662745" r="2" />
	<circle cx="832.0811935971" cy="-96.9702908090" r="2" />
	<circle cx="997.6783352699" cy="-1.3341354867" r="2" />
	<circle cx="6.0844027763" cy="-3.9463066505" r="2" />
	<circle cx="0.0000000000" cy="-0.0000000000" r="2" />
	<circle cx="500.0000000000" cy="-866.0254038000" r="2" />
	<circle cx="9.0496587450" cy="-5.2249194617" r="2" />
	<circle cx="690.6395662104" cy="-345.5631913928" r="2" />
	<circle cx="683.1961184463" cy="-172.3069286108" r="2" />
	<circle cx="121.2306970060" cy="-89.6312082289" r="2" />
	<circle cx="715.8150450925" cy="-114.4495085272" r="2" />
	<circle cx="0.1488071387" cy="-0.0890464310" r="2" />
	<circle cx="445.9823200998" cy="-711.9424493047" r="2" />
	<circle cx="0.0000000000" cy="-0.0000000000" r="2" />
	<circle cx="500.0000000000" cy="-866.0254037974" r="2" />
	<circle cx="1000.0000000000" cy="-0.0000000000" r="2" />
	<circle cx="1000.0000000000" cy="-0.0000000000" r="2" />
	<circle cx="999.9350457687" cy="-0.0375011739" r="2" />
	<circle cx="999.9510870731" cy="-0.0214093954" r="2" />
	<circle cx="545.8815700801" cy="-79.5080252240" r="2" />
	<circle cx="499.8368458110" cy="-499.0694540862" r="2" />
	<circle cx="500.0000000000" cy="-866.0254038000" r="2" />
	<circle cx="999.9999995729" cy="-0.0000002457" r="2" />
	<circle cx="897.5515007743" cy="-41.9554891593" r="2" />
	<circle cx="0.0000000002" cy="-0.0000000001" r="2" />
	<circle cx="0.0018425093" cy="-0.0012197507" r="2" />
	<circle cx="506.5101203629" cy="-284.9591387857" r="2" />
	<circle cx="0.0000000000" cy="-0.0000000000" r="2" />
	<circle cx="500.0000000000" cy="-866.0254038000" r="2" />
	<circle cx="0.0016062024" cy="-0.0012246985" r="2" />
	<circle cx="500.0000000000" cy="-866.0254038000" r="2" />
	<circle cx="998.6063440589" cy="-0.8092036468" r="2" />
	<circle cx="19.4443673949" cy="-11.2232434158" r="2" />
	<circle cx="500.0000000000" cy="-866.0254038000" r="2" />
	<circle cx="962.1940635354" cy="-37.2830224220" r="2" />
	<circle cx="999.5551152660" cy="-0.4964696155" r="2" />
	<circle cx="1000.0000000000" cy="-0.0000000000" r="2" />
	<circle cx="502.1980816061" cy="-266.1019946000" r="2" />
	<circle cx="831.6910654165" cy="-204.9411548715" r="2" />
	<circle cx="141.5372483032" cy="-81.6889902093" r="2" />
	<circle cx="500.0000000000" cy="-866.0254038000" r="2" />
	<circle cx="500.0000000000" cy="-866.0254038000" r="2" />
	<circle cx="500.0003015000" cy="-866.0215282172" r="2" />
	<circle cx="397.7029605584" cy="-534.7909262575" r="2" />
	<circle cx="0.0000000000" cy="-0.0000000000" r="2" />
	<circle cx="0.0000000000" cy="-0.0000000000" r="2" />
	<circle cx="999.9943331713" cy="-0.0032551635" r="2" />
	<circle cx="499.9999993238" cy="-866.0253997486" r="2" />
	<circle cx="482.8793539844" cy="-788.7672420567" r="2" />
	<circle cx="999.9591058478" cy="-0.0236059479" r="2" />
	<circle cx="500.0000000000" cy="-866.0254038000" r="2" />
	<circle cx="1000.0000000000" cy="-0.0000000000" r="2" />
	<circle cx="224.9418605184" cy="-72.1014320035" r="2" />
	<circle cx="499.9947941185" cy="-865.9822197644" r="2" />
	<circle cx="500.0000000000" cy="-866.0254037999" r="2" />
	<circle cx="982.3468147965" cy="-10.1968149441" r="2" />
	<circle cx="1000.0000000000" cy="-0.0000000000" r="2" />
	<circle cx="1000.0000000000" cy="-0.0000000000" r="2" />
	<circle cx="4.9068642062" cy="-2.2024424525" r="2" />
	<circle cx="999.9524817990" cy="-0.0256510852" r="2" />
	<circle cx="489.4560673153" cy="-594.8901072244" r="2" />
	<circle cx="999.2361727784" cy="-0.8889548451" r="2" />
	<circle cx="500.0000000000" cy="-866.0254038000" r="2" />
	<circle cx="283.2150061534" cy="-157.6858444671" r="2" />
	<circle cx="546.4056028358" cy="-289.2574152563" r="2" />
	<circle cx="1000.0000000000" cy="-0.0000000000" r="2" />
	<circle cx="500.0011256884" cy="-865.9966563396" r="2" />
	<circle cx="0.0000000000" cy="-0.0000000000" r="2" />
	<circle cx="6.9915562318" cy="-0.4798287677" r="2" />
	<circle cx="999.9998098295" cy="-0.0001503216" r="2" />
	<circle cx="0.0323913290" cy="-0.0203224125" r="2" />
	<circle cx="590.7531642090" cy="-230.8786889130" r="2" />
	<circle cx="0.0000000000" cy="-0.0000000000" r="2" />
	<circle cx="100.1035087428" cy="-57.8799736399" r="2" />
	<circle cx="0.0000031703" cy="-0.0000018292" r="2" />
	<circle cx="1000.0000000000" cy="-0.0000000000" r="2" />
	<circle cx="0.0000000000" cy="-0.0000000000" r="2" />
	<circle cx="534.0582403840" cy="-164.3790277706" r="2" />
	<circle cx="500.0000000000" cy="-866.0254038000" r="2" />
	<circle cx="499.8172940385" cy="-864.4019891730" r="2" />
	<circle cx="356.5456039614" cy="-189.3830376179" r="2" />
	<circle cx="27.6931759359" cy="-11.4727276032" r="2" />
	<circle cx="510.1003642420" cy="-283.0260996403" r="2" />
	<circle cx="760.5946022766" cy="-139.7456475002" r="2" />
	<circle cx="100.1035087428" cy="-57.8799736399" r="2" />
	<circle cx="499.9448644974" cy="-407.8936912000" r="2" />
	<circle cx="456.2953775422" cy="-234.6414550354" r="2" />
	<circle cx="493.6963265406" cy="-834.2895644485" r="2" />
	<circle cx="33.4571235703" cy="-37.4759959408" r="2" />
	<circle cx="1000.0000000000" cy="-0.0000000000" r="2" />
	<circle cx="502.2587214617" cy="-831.9919434544" r="2" />
	<circle cx="499.9232706556" cy="-557.5040203777" r="2" />
	<circle cx="0.0000000000" cy="-0.0000000000" r="2" />
	<circle cx="38.6587673361" cy="-20.4621951497" r="2" />
	<circle cx="0.1729233194" cy="-0.0938157934" r="2" />
	<circle cx="500.0000000000" cy="-866.0254038000" r="2" />
	<circle cx="916.1523074672" cy="-26.7189146866" r="2" />
	<circle cx="500.0000000000" cy="-866.0254038000" r="2" />
	<circle cx="500.0000000000" cy="-866.0254038000" r="2" />
	<circle cx="847.4763676047" cy="-44.6257445562" r="2" />
	<circle cx="496.7350763925" cy="-817.2277677034" r="2" />
	<circle cx="625.3004753580" cy="-456.0565352935" r="2" />
	<circle cx="0.0000000000" cy="-0.0000000000" r="2" />
	<circle cx="524.7524690428" cy="-277.1249482572" r="2" />
	<circle cx="936.0805979369" cy="-4.6443265934" r="2" />
	<circle cx="499.9998616931" cy="-866.0209474798" r="2" />
	<circle cx="0.0000000000" cy="-0.0000000000" r="2" />
	<circle cx="940.4024756852" cy="-34.4262194740" r="2" />
	<circle cx="520.4666176365" cy="-208.5012513657" r="2" />
	<circle cx="500.0000000000" cy="-866.0254038000" r="2" />
	<circle cx="499.9743142678" cy="-815.5162199462" r="2" />
	<circle cx="1000.0000000000" cy="-0.0000000000" r="2" />
	<circle cx="20.9368366043" cy="-12.0853195260" r="2" />
	<circle cx="0.0000000000" cy="-0.0000000000" r="2" />
	<circle cx="500.0000000000" cy="-866.0254038000" r="2" />
	<circle cx="307.7334938270" cy="-306.7691590383" r="2" />
	<circle cx="500.0000000000" cy="-866.0254038000" r="2" />
	<circle cx="500.0000000000" cy="-866.0254038000" r="2" />
	<circle cx="499.9997466849" cy="-862.8014458458" r="2" />
	<circle cx="727.0532100190" cy="-184.2820499461" r="2" />
	<circle cx="499.9703714010" cy="-744.0844018874" r="2" />
	<circle cx="499.9763375534" cy="-844.3265828615" r="2" />
	<circle cx="4.4189738775" cy="-2.9820304119" r="2" />
	<circle cx="499.9598205594" cy="-865.6990134631" r="2" />
	<circle cx="500.0000000000" cy="-866.0254038000" r="2" />
	<circle cx="36.9654961187" cy="-21.2843025976" r="2" />
	<circle cx="999.9993886331" cy="-0.0003477939" r="2" />
	<circle cx="22.6520778738" cy="-21.9382659536" r="2" />
	<circle cx="494.9923230321" cy="-282.2223260394" r="2" />
	<circle cx="500.0000000000" cy="-866.0254038000" r="2" />
	<circle cx="1000.0000000000" cy="-0.0000000000" r="2" />
	<circle cx="1000.0000000000" cy="-0.0000000000" r="2" />
	<circle cx="499.9998503705" cy="-865.6530308977" r="2" />
	<circle cx="959.9824005159" cy="-45.2249623008" r="2" />
	<circle cx="0.0000000000" cy="-0.0000000000" r="2" />
	<circle cx="486.4648573463" cy="-39.2316576431" r="2" />
	<circle cx="1000.0000000000" cy="-0.0000000000" r="2" />
	<circle cx="730.5261730623" cy="-199.7882922751" r="2" />
	<circle cx="0.0000000000" cy="-0.0000000000" r="2" />
	<circle cx="0.0000000000" cy="-0.0000000000" r="2" />
	<circle cx="500.0000000000" cy="-866.0254038000" r="2" />
	<circle cx="999.9999948272" cy="-0.0000019537" r="2" />
	<circle cx="1000.0000000000" cy="-0.0000000000" r="2" />
	<circle cx="975.3217372596" cy="-20.5800341912" r="2" />
	<circle cx="998.9031300360" cy="-0.7571266794" r="2" />
	<circle cx="692.2927050968" cy="-183.3860715526" r="2" />
	<circle cx="500.0000000000" cy="-866.0254038000" r="2" />
	<circle cx="0.0000000000" cy="-0.0000000000" r="2" />
	<circle cx="0.8180934411" cy="-0.4721683230" r="2" />
	<circle cx="499.9999982651" cy="-865.9970045012" r="2" />
	<circle cx="15.5268942120" cy="-2.5371104593" r="2" />
	<circle cx="500.0000000000" cy="-866.0254037840" r="2" />
	<circle cx="946.0926601928" cy="-36.7135876748" r="2" />
	<circle cx="270.1375801981" cy="-144.0465078216" r="2" />
	<circle cx="1000.0000000000" cy="-0.0000000000" r="2" />
	<circle cx="500.0005075546" cy="-866.0027252662" r="2" />
	<circle cx="499.4801324135" cy="-855.2031934353" r="2" />
	<circle cx="0.0000053003" cy="-0.0000030611" r="2" />
	<circle cx="500.0000000000" cy="-866.0254038000" r="2" />
	<circle cx="0.0670003083" cy="-0.0411918934" r="2" />
	<circle cx="0.0088816106" cy="-0.0051254273" r="2" />
	<circle cx="8.5661534920" cy="-3.5515104325" r="2" />
	<circle cx="0.0000000000" cy="-0.0000000000" r="2" />
	<circle cx="0.0000000000" cy="-0.0000000000" r="2" />
	<circle cx="0.0105248010" cy="-0.0120003538" r="2" />
	<circle cx="999.8133166620" cy="-0.1077647772" r="2" />
	<circle cx="1000.0000000000" cy="-0.0000000000" r="2" />
	<circle cx="0.0005630918" cy="-0.0003193424" r="2" />
	<circle cx="500.0000000000" cy="-866.0254038000" r="2" />
	<circle cx="999.9998018457" cy="-0.0001143518" r="2" />
	<circle cx="499.9999879083" cy="-866.0252666650" r="2" />
	<circle cx="985.1784731453" cy="-8.4299923108" r="2" />
	<circle cx="238.1637693491" cy="-130.1932505936" r="2" />
	<circle cx="159.4470021774" cy="-246.6149632705" r="2" />
	<circle cx="500.0004647179" cy="-866.0207815707" r="2" />
	<circle cx="0.0000000000" cy="-0.0000000000" r="2" />
	<circle cx="500.0004416627" cy="-866.0197832864" r="2" />
	<circle cx="133.4967777366" cy="-77.0838944170" r="2" />
	<circle cx="548.1782083868" cy="-748.6176149516" r="2" />
	<circle cx="500.0000011468" cy="-866.0253734924" r="2" />
	<circle cx="878.2538805382" cy="-70.2817659922" r="2" />
	<circle cx="976.1791291218" cy="-13.7568609085" r="2" />
	<circle cx="28.2472271912" cy="-16.1790224341" r="2" />
	<circle cx="409.8446605807" cy="-236.5638309529" r="2" />
	<circle cx="999.9999911389" cy="-0.0000050485" r="2" />
	<circle cx="1000.0000000000" cy="-0.0000000000" r="2" />
	<circle cx="805.9964941007" cy="-112.0181097640" r="2" />
	<circle cx="2.6256115555" cy="-0.5815436168" r="2" />
	<circle cx="313.0659807327" cy="-357.7710561392" r="2" />
	<circle cx="999.9999814660" cy="-0.0000110551" r="2" />
	<circle cx="862.8726517516" cy="-83.1032932696" r="2" />
	<circle cx="500.0000000001" cy="-866.0254032736" r="2" />
	<circle cx="570.6992417018" cy="-247.7919574533" r="2" />
	<circle cx="419.0169343783" cy="-294.2158693179" r="2" />
	<circle cx="49.5808674864" cy="-28.6309068587" r="2" />
	<circle cx="500.0000000002" cy="-866.0253976806" r="2" />
	<circle cx="1000.0000000000" cy="-0.0000000000" r="2" />
	<circle cx="0.0000000000" cy="-0.0000000000" r="2" />
	<circle cx="915.4974583555" cy="-46.4688210465" r="2" />
	<circle cx="500.0000000000" cy="-866.0254038000" r="2" />
	<circle cx="500.0000000000" cy="-866.0254038000" r="2" />
	<circle cx="500.0000000000" cy="-866.0254038000" r="2" />
	<circle cx="335.9705389959" cy="-193.9503543912" r="2" />
	<circle cx="500.0000005297" cy="-866.0253101580" r="2" />
	<circle cx="0.0000000000" cy="-0.0000000000" r="2" />
	<circle cx="476.8276436118" cy="-247.4979129431" r="2" />
	<circle cx="976.6687713042" cy="-6.8972824124" r="2" />
	<circle cx="399.4033751178" cy="-184.7792845638" r="2" />
	<circle cx="499.9957895123" cy="-838.5114488331" r="2" />
	<circle cx="0.0116028876" cy="-0.0028326188" r="2" />
	<circle cx="499.9775081470" cy="-795.4213892412" r="2" />
	<circle cx="0.0023250928" cy="-0.0013407299" r="2" />
	<circle cx="999.3561887796" cy="-0.3735101318" r="2" />
	<circle cx="499.8755872437" cy="-292.0030526396" r="2" />
	<circle cx="500.0000000000" cy="-866.0254038000" r="2" />
	<circle cx="569.7497333105" cy="-544.6967336000" r="2" />
	<circle cx="1000.0000000000" cy="-0.0000000000" r="2" />
	<circle cx="488.4235209389" cy="-804.5310544455" r="2" />
	<circle cx="410.5174616116" cy="-223.1621446545" r="2" />
	<circle cx="0.0000008383" cy="-0.0000004834" r="2" />
	<circle cx="499.9851496170" cy="-865.9522808268" r="2" />
	<circle cx="58.3165266347" cy="-33.6766014115" r="2" />
	<circle cx="499.9999997326" cy="-866.0254012754" r="2" />
	<circle cx="153.8295469561" cy="-134.3950993819" r="2" />
	<circle cx="979.7082271910" cy="-11.7090286548" r="2" />
	<circle cx="999.8135125536" cy="-0.1076729062" r="2" />
	<circle cx="982.9138031596" cy="-21.2706753909" r="2" />
	<circle cx="500.0000000000" cy="-866.0254038000" r="2" />
	<circle cx="495.8947496302" cy="-286.1813579460" r="2" />
	<circle cx="64.7493926019" cy="-37.4082377443" r="2" />
	<circle cx="499.9735952091" cy="-552.8272384561" r="2" />
	<circle cx="1000.0000000000" cy="-0.0000000000" r="2" />
	<circle cx="500.0000000000" cy="-866.0254038000" r="2" />
	<circle cx="500.0000014517" cy="-865.9883045415" r="2" />
	<circle cx="1000.0000000000" cy="-0.0000000000" r="2" />
	<circle cx="1000.0000000000" cy="-0.0000000000" r="2" />
	<circle cx="1000.0000000000" cy="-0.0000000000" r="2" />
	<circle cx="0.0000000000" cy="-0.0000000000" r="2" />
	<circle cx="500.0000000000" cy="-866.0254038000" r="2" />
	<circle cx="500.0000000000" cy="-866.0254038000" r="2" />
	<circle cx="498.8904173428" cy="-863.1339143435" r="2" />
	<circle cx="500.0000000000" cy="-866.0254038000" r="2" />
	<circle cx="1000.0000000000" cy="-0.0000000000" r="2" />
	<circle cx="500.0000000000" cy="-866.0254038000" r="2" />
	<circle cx="911.0544378675" cy="-55.7996363480" r="2" />
	<circle cx="862.3558514153" cy="-67.4986803790" r="2" />
	<circle cx="0.0000000000" cy="-0.0000000000" r="2" />
	<circle cx="439.2853633035" cy="-276.4440654443" r="2" />
	<circle cx="0.0000040775" cy="-0.0000025919" r="2" />
	<circle cx="500.0000000000" cy="-866.0254038000" r="2" />
	<circle cx="499.9996006777" cy="-864.4166726363" r="2" />
	<circle cx="532.1018322795" cy="-141.0595817270" r="2" />
	<circle cx="500.0000000000" cy="-866.0254038000" r="2" />
	<circle cx="1000.0000000000" cy="-0.0000000000" r="2" />
	<circle cx="145.7298839241" cy="-83.0806545790" r="2" />
	<circle cx="999.9997945913" cy="-0.0001092721" r="2" />
	<circle cx="1000.0000000000" cy="-0.0000000000" r="2" />
	<circle cx="318.0503564135" cy="-189.4302423896" r="2" />
	<circle cx="500.0000000000" cy="-866.0254038000" r="2" />
	<circle cx="1000.0000000000" cy="-0.0000000000" r="2" />
	<circle cx="142.8466658065" cy="-77.6155063810" r="2" />
	<circle cx="47.8029172089" cy="-27.5931991889" r="2" />
	<circle cx="190.8204215054" cy="-98.9075415185" r="2" />
	<circle cx="1000.0000000000" cy="-0.0000000000" r="2" />
	<circle cx="848.6005624008" cy="-23.0340212177" r="2" />
	<circle cx="500.0000000000" cy="-866.0254038000" r="2" />
	<circle cx="0.0000000782" cy="-0.0000000560" r="2" />
	<circle cx="9.7780978623" cy="-3.8903997556" r="2" />
	<circle cx="703.4837886265" cy="-81.7345240562" r="2" />
	<circle cx="499.2136287265" cy="-854.5111120969" r="2" />
	<circle cx="999.9999999989" cy="-0.0000000006" r="2" />
	<circle cx="13.6970959014" cy="-12.7848948914" r="2" />
	<circle cx="5.8020671460" cy="-3.3513914826" r="2" />
	<circle cx="184.8758395419" cy="-145.2029069354" r="2" />
	<circle cx="500.0000000000" cy="-866.0254038000" r="2" />
	<circle cx="823.7230327998" cy="-84.5103758801" r="2" />
	<circle cx="710.0335682609" cy="-175.0464161655" r="2" />
	<circle cx="398.5026194543" cy="-341.7838053542" r="2" />
	<circle cx="590.2074095265" cy="-271.3418989113" r="2" />
	<circle cx="137.4283482544" cy="-67.4736582055" r="2" />
	<circle cx="0.0000000000" cy="-0.0000000000" r="2" />
	<circle cx="0.0000000176" cy="-0.0000000100" r="2" />
	<circle cx="500.0000000000" cy="-866.0254038000" r="2" />
	<circle cx="1000.0000000000" cy="-0.0000000000" r="2" />
	<circle cx="500.8095528183" cy="-863.4595851095" r="2" />
	<circle cx="1000.0000000000" cy="-0.0000000000" r="2" />
	<circle cx="999.9999999998" cy="-0.0000000001" r="2" />
	<circle cx="858.4862766822" cy="-81.7295299129" r="2" />
	<circle cx="343.2607116863" cy="-153.1027705548" r="2" />
	<circle cx="500.0000000000" cy="-866.0254038000" r="2" />
	<circle cx="499.9998731899" cy="-866.0223665479" r="2" />
	<circle cx="503.6879249972" cy="-853.2569145380" r="2" />
	<circle cx="821.4004861971" cy="-88.3715220199" r="2" />
	<circle cx="283.2391700582" cy="-149.8725766761" r="2" />
	<circle cx="500.5228234645" cy="-841.6683595592" r="2" />
	<circle cx="500.0000000000" cy="-866.0254038000" r="2" />
	<circle cx="993.9496589731" cy="-3.5365370246" r="2" />
	<circle cx="500.0000516723" cy="-865.9067232193" r="2" />
	<circle cx="0.0000000000" cy="-0.0000000000" r="2" />
	<circle cx="360.2872472102" cy="-208.1721094335" r="2" />
	<circle cx="407.7661697132" cy="-270.3996042934" r="2" />
	<circle cx="527.6551180084" cy="-272.7964440752" r="2" />
	<circle cx="376.3660758454" cy="-217.2449485344" r="2" />
	<circle cx="499.9998727913" cy="-865.6528138810" r="2" />
	<circle cx="1000.0000000000" cy="-0.0000000000" r="2" />
	<circle cx="500.1041036344" cy="-857.2285291896" r="2" />
	<circle cx="60.9869083508" cy="-30.9807959282" r="2" />
	<circle cx="844.9322143373" cy="-79.8049418793" r="2" />
	<circle cx="0.0000000000" cy="-0.0000000000" r="2" />
	<circle cx="516.2370243848" cy="-205.1143102051" r="2" />
	<circle cx="1000.0000000000" cy="-0.0000000000" r="2" />
	<circle cx="500.2929877645" cy="-862.7211895198" r="2" />
	<circle cx="500.0024806397" cy="-854.2039304826" r="2" />
	<circle cx="11.4120175764" cy="-4.4218639962" r="2" />
	<circle cx="25.1950238266" cy="-3.8718929483" r="2" />
	<circle cx="500.0000000000" cy="-866.0254038000" r="2" />
	<circle cx="106.9838380860" cy="-13.5990799731" r="2" />
	<circle cx="0.0000000000" cy="-0.0000000000" r="2" />
	<circle cx="1000.0000000000" cy="-0.0000000000" r="2" />
	<circle cx="51.9320809136" cy="-29.9801399429" r="2" />
	<circle cx="665.8911951656" cy="-114.4476210543" r="2" />
	<circle cx="0.0000000000" cy="-0.0000000000" r="2" />
	<circle cx="1000.0000000000" cy="-0.0000000000" r="2" />
	<circle cx="667.9303012062" cy="-190.8249756483" r="2" />
	<circle cx="0.0000000000" cy="-0.0000000000" r="2" />
	<circle cx="347.6686672010" cy="-447.0796668514" r="2" />
	<circle cx="490.4933745643" cy="-284.0917527432" r="2" />
	<circle cx="1000.0000000000" cy="-0.0000000000" r="2" />
	<circle cx="0.0000000000" cy="-0.0000000000" r="2" />
	<circle cx="438.9637753553" cy="-450.1171974218" r="2" />
	<circle cx="426.5349251706" cy="-324.2530441936" r="2" />
	<circle cx="0.0000000000" cy="-0.0000000000" r="2" />
	<circle cx="0.0000021759" cy="-0.0000012572" r="2" />
	<circle cx="500.0000000000" cy="-866.0254038000" r="2" />
	<circle cx="917.5890155873" cy="-47.6033185918" r="2" />
	<circle cx="1000.0000000000" cy="-0.0000000000" r="2" />
	<circle cx="766.7147970909" cy="-116.5661215654" r="2" />
	<circle cx="1000.0000000000" cy="-0.0000000000" r="2" />
	<circle cx="999.9967182295" cy="-0.0018958245" r="2" />
	<circle cx="0.3618594867" cy="-0.2089278139" r="2" />
	<circle cx="10.2289969713" cy="-5.9028291622" r="2" />
	<circle cx="103.2767998893" cy="-79.5580187931" r="2" />
	<circle cx="874.7550092732" cy="-12.9296280713" r="2" />
	<circle cx="9.1129801253" cy="-5.8616959093" r="2" />
	<circle cx="499.9986904601" cy="-861.3746204648" r="2" />
	<circle cx="500.0000000000" cy="-866.0254038000" r="2" />
	<circle cx="1000.0000000000" cy="-0.0000000000" r="2" />
	<circle cx="500.0000000000" cy="-866.0254038000" r="2" />
	<circle cx="598.0345716959" cy="-232.1030340143" r="2" />
	<circle cx="2.9518608213" cy="-2.1175167320" r="2" />
	<circle cx="0.2692206771" cy="-0.1554001001" r="2" />
	<circle cx="1000.0000000000" cy="-0.0000000000" r="2" />
	<circle cx="0.0000000000" cy="-0.0000000000" r="2" />
	<circle cx="999.9242850271" cy="-0.0429947383" r="2" />
	<circle cx="53.1401782884" cy="-30.6712873251" r="2" />
	<circle cx="26.3373368371" cy="-13.0811073647" r="2" />
	<circle cx="1000.0000000000" cy="-0.0000000000" r="2" />
	<circle cx="999.9999999969" cy="-0.0000000036" r="2" />
	<circle cx="0.0000904485" cy="-0.0000560557" r="2" />
	<circle cx="1000.0000000000" cy="-0.0000000000" r="2" />
	<circle cx="500.1434582618" cy="-835.5709638196" r="2" />
	<circle cx="0.0000000000" cy="-0.0000000000" r="2" />
	<circle cx="0.0000000000" cy="-0.0000000000" r="2" />
	<circle cx="1000.0000000000" cy="-0.0000000000" r="2" />
	<circle cx="502.8980526958" cy="-309.5847159749" r="2" />
	<circle cx="0.0000000000" cy="-0.0000000000" r="2" />
	<circle cx="466.7172613211" cy="-492.5248769319" r="2" />
	<circle cx="500.0000000000" cy="-866.0254038000" r="2" />
	<circle cx="0.0000000000" cy="-0.0000000000" r="2" />
	<circle cx="1000.0000000000" cy="-0.0000000000" r="2" />
	<circle cx="999.4197455794" cy="-0.1602627056" r="2" />
	<circle cx="103.2002523484" cy="-59.5634337130" r="2" />
	<circle cx="489.6607163728" cy="-405.7511277679" r="2" />
	<circle cx="500.0000000000" cy="-866.0254038000" r="2" />
	<circle cx="469.9471049708" cy="-645.7680182069" r="2" />
	<circle cx="499.9984229558" cy="-838.1019669432" r="2" />
	<circle cx="500.0000000000" cy="-866.0254038000" r="2" />
	<circle cx="3.7314022584" cy="-2.1611394476" r="2" />
	<circle cx="965.8710249142" cy="-19.6945822920" r="2" />
	<circle cx="1000.0000000000" cy="-0.0000000000" r="2" />
	<circle cx="1000.0000000000" cy="-0.0000000000" r="2" />
	<circle cx="1.1163823883" cy="-0.6443591365" r="2" />
	<circle cx="500.0000000000" cy="-866.0254038000" r="2" />
	<circle cx="995.3068870926" cy="-2.6552901392" r="2" />
	<circle cx="810.2282099343" cy="-18.9028634829" r="2" />
	<circle cx="506.5101203629" cy="-284.9591387857" r="2" />
	<circle cx="0.0000000000" cy="-0.0000000000" r="2" />
	<circle cx="894.4815765492" cy="-48.0967080071" r="2" />
	<circle cx="500.0000000000" cy="-866.0254038000" r="2" />
	<circle cx="459.5812920397" cy="-715.8698085284" r="2" />
	<circle cx="999.9997077955" cy="-0.0002001008" r="2" />
	<circle cx="117.1080981285" cy="-67.5907869973" r="2" />
	<circle cx="0.0000000000" cy="-0.0000000000" r="2" />
	<circle cx="0.0000000000" cy="-0.0000000000" r="2" />
	<circle cx="155.2751056047" cy="-62.3091615971" r="2" />
	<circle cx="1000.0000000000" cy="-0.0000000000" r="2" />
	<circle cx="172.7598441165" cy="-35.2011979470" r="2" />
	<circle cx="0.0014876479" cy="-0.0018235112" r="2" />
	<circle cx="0.0000000000" cy="-0.0000000000" r="2" />
	<circle cx="1000.0000000000" cy="-0.0000000000" r="2" />
	<circle cx="345.0032647020" cy="-156.4415643450" r="2" />
	<circle cx="348.2783760120" cy="-148.9111608570" r="2" />
	<circle cx="0.0000000000" cy="-0.0000000000" r="2" />
	<circle cx="999.9981623056" cy="-0.0010816664" r="2" />
	<circle cx="499.9880972421" cy="-426.0093352239" r="2" />
	<circle cx="999.9866471324" cy="-0.0074186295" r="2" />
	<circle cx="5.8464238975" cy="-0.6695129948" r="2" />
	<circle cx="500.0946222176" cy="-865.6889585896" r="2" />
	<circle cx="0.0000000463" cy="-0.0000000267" r="2" />
	<circle cx="509.2413039552" cy="-348.0431949766" r="2" />
	<circle cx="499.9999918035" cy="-866.0252815962" r="2" />
	<circle cx="500.0000002833" cy="-866.0253223365" r="2" />
	<circle cx="4.0471403550" cy="-0.9106554568" r="2" />
	<circle cx="499.9999999998" cy="-866.0254037566" r="2" />
	<circle cx="999.9962707259" cy="-0.0021506566" r="2" />
	<circle cx="500.0000000043" cy="-866.0253822193" r="2" />
	<circle cx="125.8219329954" cy="-139.6680398870" r="2" />
	<circle cx="500.0000000051" cy="-866.0254032727" r="2" />
	<circle cx="999.9999983774" cy="-0.0000009377" r="2" />
	<circle cx="500.0000000000" cy="-866.0254038000" r="2" />
	<circle cx="499.9970061024" cy="-847.5185321999" r="2" />
	<circle cx="984.1056217230" cy="-8.7154170224" r="2" />
	<circle cx="460.8725242931" cy="-780.0302026555" r="2" />
	<circle cx="499.9932684142" cy="-863.9807751466" r="2" />
	<circle cx="0.0000000000" cy="-0.0000000000" r="2" />
	<circle cx="1000.0000000000" cy="-0.0000000000" r="2" />
	<circle cx="976.5498310162" cy="-13.8483466954" r="2" />
	<circle cx="500.0000000000" cy="-866.0254038000" r="2" />
	<circle cx="499.9000775485" cy="-863.9339374344" r="2" />
	<circle cx="500.0377130877" cy="-288.7152108957" r="2" />
	<circle cx="7.4278059205" cy="-0.6036389137" r="2" />
	<circle cx="500.0000000000" cy="-866.0254038000" r="2" />
	<circle cx="763.4727912951" cy="-123.8669487068" r="2" />
	<circle cx="499.9999999850" cy="-866.0254032675" r="2" />
	<circle cx="499.9946284606" cy="-847.7525258579" r="2" />
	<circle cx="999.9965149259" cy="-0.0020126318" r="2" />
	<circle cx="0.0000000000" cy="-0.0000000000" r="2" />
	<circle cx="1000.0000000000" cy="-0.0000000000" r="2" />
	<circle cx="0.0000000000" cy="-0.0000000000" r="2" />
	<circle cx="466.2238322664" cy="-269.2464411948" r="2" />
	<circle cx="294.4735135550" cy="-47.0008537114" r="2" />
	<circle cx="500.0000000000" cy="-866.0254038000" r="2" />
	<circle cx="0.0000000000" cy="-0.0000000000" r="2" />
	<circle cx="0.0000000000" cy="-0.0000000000" r="2" />
	<circle cx="1000.0000000000" cy="-0.0000000000" r="2" />
	<circle cx="999.9999999999" cy="-0.0000000001" r="2" />
	<circle cx="226.8597840189" cy="-131.0210138787" r="2" />
	<circle cx="0.2440605922" cy="-0.2501713911" r="2" />
	<circle cx="0.0000000001" cy="-0.0000000001" r="2" />
	<circle cx="0.2705880755" cy="-0.1703830832" r="2" />
	<circle cx="494.5393035872" cy="-800.3100259101" r="2" />
	<circle cx="990.6958974180" cy="-10.0562155375" r="2" />
	<circle cx="0.2131081666" cy="-0.1230606387" r="2" />
	<circle cx="999.9648541440" cy="-0.0202709080" r="2" />
	<circle cx="499.9999859851" cy="-866.0252545947" r="2" />
	<circle cx="500.0035307250" cy="-787.1920915272" r="2" />
	<circle cx="999.8688199402" cy="-0.0757565183" r="2" />
	<circle cx="67.8626746009" cy="-16.1113281587" r="2" />
	<circle cx="1000.0000000000" cy="-0.0000000000" r="2" />
	<circle cx="499.9984272810" cy="-866.0219713645" r="2" />
	<circle cx="500.7812856236" cy="-734.2858092133" r="2" />
	<circle cx="500.0000000015" cy="-866.0254001432" r="2" />
	<circle cx="500.0000000000" cy="-866.0254038000" r="2" />
	<circle cx="502.3385351935" cy="-843.0707401636" r="2" />
	<circle cx="958.4700847743" cy="-23.9534046386" r="2" />
	<circle cx="499.9994910990" cy="-866.0163300112" r="2" />
	<circle cx="0.0000000000" cy="-0.0000000000" r="2" />
	<circle cx="457.6022371369" cy="-361.8744439404" r="2" />
	<circle cx="499.1583260547" cy="-751.8189908210" r="2" />
	<circle cx="500.0112543766" cy="-616.5741663421" r="2" />
	<circle cx="500.0000000000" cy="-866.0254038000" r="2" />
	<circle cx="1000.0000000000" cy="-0.0000000000" r="2" />
	<circle cx="0.0000000000" cy="-0.0000000000" r="2" />
	<circle cx="500.0000000000" cy="-866.0254038000" r="2" />
	<circle cx="0.0000000000" cy="-0.0000000000" r="2" />
	<circle cx="232.9542157674" cy="-300.6271514342" r="2" />
	<circle cx="475.8164626629" cy="-379.0365885359" r="2" />
  </g>
  <g id="fig2" transform="translate(-550.0,1000)">
	<polygon points="0.0,-0.0 1000.0,-0.0 500.0,-866.0254038" />
	<line
	   id="line2-1"
	   y2="-0.0"
	   x2="500"
	   y1="-288.6751346"
	   x1="500" />
	<line
	   id="line2-2"
	   y2="-433.0127019"
	   x2="250"
	   y1="-288.6751346"
	   x1="500" />
	<line
	   id="line2-3"
	   y2="-433.0127019"
	   x2="750"
	   y1="-288.6751346"
	   x1="500" />
	<text
	   x="440"
	   y="-500"
	   id="up_2">31.8%</text>
	<text
	   x="250"
	   y="-150"
	   id="down_left_2">35.0%</text>
	<text
	   x="630"
	   y="-150"
	   id="down_right_2">33.2%</text>
  </g>
  <g id="fig3" transform="translate(550,1000)">
	<polygon points="0.0,-0.0 1000.0,-0.0 500.0,-866.0254038" />
	<polygon id="triangle3b" points="250,-144.3375673 750,-144.3375673 500,-577.3502692" />
	<line
	   id="line3-1"
	   x1="125"
	   y1="-216.5063509"
	   x2="250"
	   y2="-144.3375673" />
	<line
	   id="line3-2"
	   x1="375"
	   y1="-649.5190528"
	   x2="500"
	   y2="-577.3502692" />
	<line
	   id="line3-3"
	   x1="625"
	   y1="-649.5190528"
	   x2="500"
	   y2="-577.3502692" />
	<line
	   id="line3-4"
	   x1="875"
	   y1="-216.5063509"
	   x2="750"
	   y2="-144.3375673" />
	<line
	   id="line3-5"
	   x1="750"
	   y1="-0.0"
	   x2="750"
	   y2="-144.3375673" />
	<line
	   id="line3-6"
	   x1="250"
	   y1="-0.0"
	   x2="250"
	   y2="-144.3375673" />
	<text
	   x="500"
	   y="-660"
	   text-anchor="middle"
	   id="up_3">27.8%</text>
	<text
	   y="-50"
	   x="70"
	   id="down_left_3">28.6%</text>
	<text
	   y="-50"
	   x="770"
	   id="down_right_3">27.4%</text>
	<text
	   x="500"
	   y="-50"
	   text-anchor="middle"
	   id="down_side_3">1.6%</text>
	<text
	   x="500"
	   y="-280"
	   text-anchor="middle"
	   id="center_3">12.2%</text>
	<text
	   x="685.0"
	   y="-390.8439"
	   text-anchor="middle"
	   transform="rotate(60,665.0,-380.8439)"
	   id="right_side_3">1.2%</text>
	<text
	   x="315.0"
	   y="-390.8439"
	   text-anchor="middle"
	   transform="rotate(-60,335.0,-380.8439)"
	   id="left_side_3">1.2%</text>
  </g>
</g></g>
</svg>
