<?xml version="1.0" encoding="UTF-8" standalone="no"?>
<!DOCTYPE svg PUBLIC "-//W3C//DTD SVG 1.1//EN" "http://www.w3.org/Graphics/SVG/1.1/DTD/svg11.dtd">
<svg
   xmlns:svg="http://www.w3.org/2000/svg"
   xmlns="http://www.w3.org/2000/svg"
   xmlns:xlink="http://www.w3.org/1999/xlink"
   version="1.1"
   baseProfile="full"
   id="body"
   width="800px"
   height="800px"
   viewBox="0 0 1000 1000"
   preserveAspectRatio="none">
  <defs>
    <style type="text/css"><![CDATA[
      circle{ stroke: none; }
      polygon{ stroke: black; stroke-width: 2px; fill: none; }
      line{ stroke: black; stroke-width: 2px; }
      text{ font-size:50px; }
    ]]></style>
  </defs>
  <title
     id="title1">SVG drawing</title>
<g transform="scale(0.45)"><g transform="translate(600,1050)">
  <g id="fig1">
	<polygon points="0.0,-0.0 1000.0,-0.0 500,-866.0254038" />
	<circle cx="0.5584242256" cy="-0.2692068535" r="2" />
	<circle cx="0.0000000000" cy="-0.0000000000" r="2" />
	<circle cx="1000.0000000000" cy="-0.0000000000" r="2" />
	<circle cx="516.6045968918" cy="-288.0991755523" r="2" />
	<circle cx="536.8305266573" cy="-736.9913844014" r="2" />
	<circle cx="977.5713198952" cy="-12.9513457184" r="2" />
	<circle cx="1000.0000000000" cy="-0.0000000000" r="2" />
	<circle cx="879.4647084463" cy="-92.2159339182" r="2" />
	<circle cx="1000.0000000000" cy="-0.0000000000" r="2" />
	<circle cx="992.1518670273" cy="-4.5345568396" r="2" />
	<circle cx="999.9631822867" cy="-0.0212640089" r="2" />
	<circle cx="0.0000000000" cy="-0.0000000000" r="2" />
	<circle cx="499.9999996176" cy="-866.0214050579" r="2" />
	<circle cx="500.0000000000" cy="-866.0254038000" r="2" />
	<circle cx="999.9966089787" cy="-0.0019574897" r="2" />
	<circle cx="760.5471360040" cy="-138.0118630394" r="2" />
	<circle cx="500.0137699707" cy="-417.8193360070" r="2" />
	<circle cx="1.3139204202" cy="-1.6288191141" r="2" />
	<circle cx="980.5585807337" cy="-11.2924111064" r="2" />
	<circle cx="9.4924966404" cy="-5.6724287927" r="2" />
	<circle cx="1000.0000000000" cy="-0.0000000000" r="2" />
	<circle cx="772.3936329957" cy="-191.8181601930" r="2" />
	<circle cx="1000.0000000000" cy="-0.0000000000" r="2" />
	<circle cx="337.0154022519" cy="-252.8722248696" r="2" />
	<circle cx="499.9997813322" cy="-865.7460202768" r="2" />
	<circle cx="0.6613264784" cy="-0.3819754324" r="2" />
	<circle cx="0.0000000000" cy="-0.0000000000" r="2" />
	<circle cx="499.9152701008" cy="-828.0168538347" r="2" />
	<circle cx="513.9903119974" cy="-321.6135570484" r="2" />
	<circle cx="500.0000000000" cy="-866.0254038000" r="2" />
	<circle cx="21.9163884584" cy="-2.0650016197" r="2" />
	<circle cx="1000.0000000000" cy="-0.0000000000" r="2" />
	<circle cx="7.0576828806" cy="-4.0815434484" r="2" />
	<circle cx="993.0167225283" cy="-1.4348803650" r="2" />
	<circle cx="999.9999997973" cy="-0.0000001184" r="2" />
	<circle cx="999.7194733060" cy="-0.1618905338" r="2" />
	<circle cx="500.0000000000" cy="-866.0254038000" r="2" />
	<circle cx="0.0000000000" cy="-0.0000000000" r="2" />
	<circle cx="499.9964950853" cy="-865.7268097627" r="2" />
	<circle cx="999.9999973836" cy="-0.0000013670" r="2" />
	<circle cx="0.0000000000" cy="-0.0000000000" r="2" />
	<circle cx="999.9999357196" cy="-0.0000371141" r="2" />
	<circle cx="0.0000000001" cy="-0.0000000000" r="2" />
	<circle cx="0.0000051977" cy="-0.0000032339" r="2" />
	<circle cx="1000.0000000000" cy="-0.0000000000" r="2" />
	<circle cx="391.7960768237" cy="-677.6148898598" r="2" />
	<circle cx="1.8232849006" cy="-1.1952490144" r="2" />
	<circle cx="979.8946363563" cy="-12.2634138531" r="2" />
	<circle cx="0.0000000000" cy="-0.0000000000" r="2" />
	<circle cx="0.0000000000" cy="-0.0000000000" r="2" />
	<circle cx="994.1999926823" cy="-3.3880496240" r="2" />
	<circle cx="999.9999999999" cy="-0.0000000000" r="2" />
	<circle cx="0.0000000000" cy="-0.0000000000" r="2" />
	<circle cx="1000.0000000000" cy="-0.0000000000" r="2" />
	<circle cx="0.0000000000" cy="-0.0000000000" r="2" />
	<circle cx="500.0000000000" cy="-866.0254038000" r="2" />
	<circle cx="500.0000000000" cy="-866.0254038000" r="2" />
	<circle cx="1000.0000000000" cy="-0.0000000000" r="2" />
	<circle cx="1000.0000000000" cy="-0.0000000000" r="2" />
	<circle cx="1000.0000000000" cy="-0.0000000000" r="2" />
	<circle cx="0.0000000000" cy="-0.0000000000" r="2" />
	<circle cx="0.0000000000" cy="-0.0000000000" r="2" />
	<circle cx="985.5923410560" cy="-3.6784921744" r="2" />
	<circle cx="499.9290298344" cy="-553.8193550818" r="2" />
	<circle cx="1000.0000000000" cy="-0.0000000000" r="2" />
	<circle cx="499.9999979127" cy="-866.0001843074" r="2" />
	<circle cx="1000.0000000000" cy="-0.0000000000" r="2" />
	<circle cx="1000.0000000000" cy="-0.0000000000" r="2" />
	<circle cx="491.0802390959" cy="-441.0627457756" r="2" />
	<circle cx="500.0000000000" cy="-866.0254038000" r="2" />
	<circle cx="0.0003265295" cy="-0.0001564151" r="2" />
	<circle cx="531.0867729735" cy="-215.5389614943" r="2" />
	<circle cx="1000.0000000000" cy="-0.0000000000" r="2" />
	<circle cx="500.0000420306" cy="-866.0251614970" r="2" />
	<circle cx="0.0000000000" cy="-0.0000000000" r="2" />
	<circle cx="1000.0000000000" cy="-0.0000000000" r="2" />
	<circle cx="1000.0000000000" cy="-0.0000000000" r="2" />
	<circle cx="500.0000000000" cy="-866.0254038000" r="2" />
	<circle cx="0.0000000000" cy="-0.0000000000" r="2" />
	<circle cx="500.0000000000" cy="-866.0254031209" r="2" />
	<circle cx="12.5566076027" cy="-5.4720137553" r="2" />
	<circle cx="500.0000000000" cy="-866.0254038000" r="2" />
	<circle cx="287.4278852138" cy="-369.4300786379" r="2" />
	<circle cx="0.0000000000" cy="-0.0000000000" r="2" />
	<circle cx="1000.0000000000" cy="-0.0000000000" r="2" />
	<circle cx="998.8315858509" cy="-1.0771193737" r="2" />
	<circle cx="0.0002961469" cy="-0.0001707896" r="2" />
	<circle cx="480.6989230371" cy="-676.1753128199" r="2" />
	<circle cx="503.3506196221" cy="-222.2425641031" r="2" />
	<circle cx="343.4515177558" cy="-308.8843635245" r="2" />
	<circle cx="0.0000000000" cy="-0.0000000000" r="2" />
	<circle cx="999.9998808148" cy="-0.0000728592" r="2" />
	<circle cx="861.4177926733" cy="-61.5630667821" r="2" />
	<circle cx="1000.0000000000" cy="-0.0000000000" r="2" />
	<circle cx="500.0649934905" cy="-475.2205664093" r="2" />
	<circle cx="445.6564984228" cy="-296.3377431991" r="2" />
	<circle cx="0.0000000000" cy="-0.0000000000" r="2" />
	<circle cx="1000.0000000000" cy="-0.0000000000" r="2" />
	<circle cx="561.4178699302" cy="-271.1555546266" r="2" />
	<circle cx="500.0000000000" cy="-866.0254037738" r="2" />
	<circle cx="976.3373770598" cy="-13.6605916689" r="2" />
	<circle cx="1000.0000000000" cy="-0.0000000000" r="2" />
	<circle cx="500.0000000000" cy="-866.0254038000" r="2" />
	<circle cx="1000.0000000000" cy="-0.0000000000" r="2" />
	<circle cx="0.0000000000" cy="-0.0000000000" r="2" />
	<circle cx="499.9999999470" cy="-866.0236866930" r="2" />
	<circle cx="999.9999683299" cy="-0.0000180895" r="2" />
	<circle cx="257.7514358809" cy="-439.8586380131" r="2" />
	<circle cx="0.1758549586" cy="-0.1016534301" r="2" />
	<circle cx="500.0000000000" cy="-866.0254038000" r="2" />
	<circle cx="0.6824292206" cy="-0.3939978872" r="2" />
	<circle cx="500.0000000000" cy="-866.0254038000" r="2" />
	<circle cx="500.0000000000" cy="-866.0254038000" r="2" />
	<circle cx="419.1798133926" cy="-499.8161192618" r="2" />
	<circle cx="0.0000001519" cy="-0.0000000877" r="2" />
	<circle cx="1000.0000000000" cy="-0.0000000000" r="2" />
	<circle cx="0.0000088876" cy="-0.0000051283" r="2" />
	<circle cx="500.0000000000" cy="-866.0254038000" r="2" />
	<circle cx="499.9998876918" cy="-865.5014186028" r="2" />
	<circle cx="0.0000000000" cy="-0.0000000000" r="2" />
	<circle cx="144.7179097037" cy="-30.2968817605" r="2" />
	<circle cx="500.0000000000" cy="-866.0254038000" r="2" />
	<circle cx="475.5670842371" cy="-413.6739061169" r="2" />
	<circle cx="1000.0000000000" cy="-0.0000000000" r="2" />
	<circle cx="3.3633992250" cy="-1.4136678087" r="2" />
	<circle cx="1.9614186122" cy="-1.1324686733" r="2" />
	<circle cx="1000.0000000000" cy="-0.0000000000" r="2" />
	<circle cx="500.0000000000" cy="-866.0254038000" r="2" />
	<circle cx="500.0001375357" cy="-866.0247251389" r="2" />
	<circle cx="769.6486822452" cy="-133.0548445723" r="2" />
	<circle cx="30.9830664442" cy="-35.0667261591" r="2" />
	<circle cx="1000.0000000000" cy="-0.0000000000" r="2" />
	<circle cx="498.5750944567" cy="-777.1400600236" r="2" />
	<circle cx="1000.0000000000" cy="-0.0000000000" r="2" />
	<circle cx="0.0000000000" cy="-0.0000000000" r="2" />
	<circle cx="0.0000002101" cy="-0.0000001213" r="2" />
	<circle cx="0.0000000000" cy="-0.0000000000" r="2" />
	<circle cx="0.0000000000" cy="-0.0000000000" r="2" />
	<circle cx="0.0000065908" cy="-0.0000038018" r="2" />
	<circle cx="500.0000000000" cy="-866.0254038000" r="2" />
	<circle cx="291.7617735485" cy="-139.8634846225" r="2" />
	<circle cx="500.0000000000" cy="-866.0254038000" r="2" />
	<circle cx="499.9999999082" cy="-866.0254034427" r="2" />
	<circle cx="0.0000000000" cy="-0.0000000000" r="2" />
	<circle cx="596.5101366146" cy="-313.5056185949" r="2" />
	<circle cx="1000.0000000000" cy="-0.0000000000" r="2" />
	<circle cx="500.0000000000" cy="-866.0254036940" r="2" />
	<circle cx="1000.0000000000" cy="-0.0000000000" r="2" />
	<circle cx="0.0000000000" cy="-0.0000000000" r="2" />
	<circle cx="0.0000000000" cy="-0.0000000000" r="2" />
	<circle cx="499.9895920910" cy="-864.0982717869" r="2" />
	<circle cx="999.9999387329" cy="-0.0000390250" r="2" />
	<circle cx="0.0000000000" cy="-0.0000000000" r="2" />
	<circle cx="0.0000000000" cy="-0.0000000000" r="2" />
	<circle cx="999.9143360838" cy="-0.0494414020" r="2" />
	<circle cx="0.0000000000" cy="-0.0000000000" r="2" />
	<circle cx="0.0000253419" cy="-0.0000146221" r="2" />
	<circle cx="500.0000000000" cy="-866.0254038000" r="2" />
	<circle cx="0.0000000000" cy="-0.0000000000" r="2" />
	<circle cx="1000.0000000000" cy="-0.0000000000" r="2" />
	<circle cx="0.0000000000" cy="-0.0000000000" r="2" />
	<circle cx="0.0000000000" cy="-0.0000000000" r="2" />
	<circle cx="941.5261535338" cy="-33.5353342171" r="2" />
	<circle cx="499.9957336938" cy="-531.7111458581" r="2" />
	<circle cx="0.0000177880" cy="-0.0000102696" r="2" />
	<circle cx="500.0000000000" cy="-866.0254038000" r="2" />
	<circle cx="0.0000319563" cy="-0.0000184447" r="2" />
	<circle cx="999.9997577782" cy="-0.0001398109" r="2" />
	<circle cx="500.0000000000" cy="-866.0254038000" r="2" />
	<circle cx="15.7473458354" cy="-17.0374237229" r="2" />
	<circle cx="359.3829494585" cy="-228.2770445426" r="2" />
	<circle cx="501.5289760993" cy="-847.7747879029" r="2" />
	<circle cx="0.0000000000" cy="-0.0000000000" r="2" />
	<circle cx="0.0000000000" cy="-0.0000000000" r="2" />
	<circle cx="500.0000000000" cy="-866.0254038000" r="2" />
	<circle cx="384.3034546392" cy="-549.2930286541" r="2" />
	<circle cx="500.0000000000" cy="-866.0254038000" r="2" />
	<circle cx="499.9997320050" cy="-846.8935313100" r="2" />
	<circle cx="2.8986682455" cy="-1.6803224269" r="2" />
	<circle cx="999.9637155397" cy="-0.0209402319" r="2" />
	<circle cx="499.9999994337" cy="-866.0022194220" r="2" />
	<circle cx="999.9999971661" cy="-0.0000016366" r="2" />
	<circle cx="1000.0000000000" cy="-0.0000000000" r="2" />
	<circle cx="502.5476400693" cy="-851.3789851402" r="2" />
	<circle cx="500.0000000141" cy="-866.0253255083" r="2" />
	<circle cx="570.8772916360" cy="-247.7672605110" r="2" />
	<circle cx="1000.0000000000" cy="-0.0000000000" r="2" />
	<circle cx="987.4307381556" cy="-7.2565424086" r="2" />
	<circle cx="500.0000000000" cy="-866.0254038000" r="2" />
	<circle cx="808.7440886358" cy="-329.3321703563" r="2" />
	<circle cx="1000.0000000000" cy="-0.0000000000" r="2" />
	<circle cx="0.0000000000" cy="-0.0000000000" r="2" />
	<circle cx="0.0000000000" cy="-0.0000000000" r="2" />
	<circle cx="500.0000000000" cy="-866.0254038000" r="2" />
	<circle cx="500.0000000000" cy="-866.0254038000" r="2" />
	<circle cx="487.5266838688" cy="-248.7266455026" r="2" />
	<circle cx="6.0595804310" cy="-4.2325365144" r="2" />
	<circle cx="0.0000000000" cy="-0.0000000000" r="2" />
	<circle cx="58.3438895085" cy="-34.2320626696" r="2" />
	<circle cx="999.2553837282" cy="-0.4300116194" r="2" />
	<circle cx="500.0000000000" cy="-866.0254038000" r="2" />
	<circle cx="0.0000000000" cy="-0.0000000000" r="2" />
	<circle cx="500.0000000000" cy="-866.0254038000" r="2" />
	<circle cx="500.0000000000" cy="-866.0254038000" r="2" />
	<circle cx="810.6662709709" cy="-147.2704743431" r="2" />
	<circle cx="500.0000000000" cy="-866.0254038000" r="2" />
	<circle cx="500.0000000000" cy="-866.0254038000" r="2" />
	<circle cx="500.0000000000" cy="-866.0254038000" r="2" />
	<circle cx="962.0893521376" cy="-21.7497294390" r="2" />
	<circle cx="0.1256448076" cy="-0.0724808516" r="2" />
	<circle cx="500.0000000000" cy="-866.0254038000" r="2" />
	<circle cx="0.0000000000" cy="-0.0000000000" r="2" />
	<circle cx="1000.0000000000" cy="-0.0000000000" r="2" />
	<circle cx="357.2277471332" cy="-387.4454715424" r="2" />
	<circle cx="809.6197301424" cy="-41.5945594569" r="2" />
	<circle cx="635.3537434629" cy="-291.9593759840" r="2" />
	<circle cx="500.0000000000" cy="-866.0254038000" r="2" />
	<circle cx="661.8302403446" cy="-0.9898102217" r="2" />
	<circle cx="0.0000000000" cy="-0.0000000000" r="2" />
	<circle cx="1000.0000000000" cy="-0.0000000000" r="2" />
	<circle cx="500.0000000000" cy="-866.0254038000" r="2" />
	<circle cx="500.0002968648" cy="-866.0241115341" r="2" />
	<circle cx="0.0000000000" cy="-0.0000000000" r="2" />
	<circle cx="1000.0000000000" cy="-0.0000000000" r="2" />
	<circle cx="48.3081898133" cy="-27.3113499573" r="2" />
	<circle cx="500.0000000000" cy="-866.0254037629" r="2" />
	<circle cx="0.0000000000" cy="-0.0000000000" r="2" />
	<circle cx="76.7080780646" cy="-62.4913583593" r="2" />
	<circle cx="500.0000000000" cy="-866.0254038000" r="2" />
	<circle cx="0.0000000000" cy="-0.0000000000" r="2" />
	<circle cx="0.0104454826" cy="-0.0010935721" r="2" />
	<circle cx="999.6451092926" cy="-0.6110988580" r="2" />
	<circle cx="500.0000000000" cy="-866.0254038000" r="2" />
	<circle cx="68.7466822956" cy="-35.1519267432" r="2" />
	<circle cx="1000.0000000000" cy="-0.0000000000" r="2" />
	<circle cx="549.6263008904" cy="-276.1985213988" r="2" />
	<circle cx="0.0000000000" cy="-0.0000000000" r="2" />
	<circle cx="999.9702196459" cy="-0.0165522286" r="2" />
	<circle cx="499.9643872070" cy="-856.4946450811" r="2" />
	<circle cx="500.0000000000" cy="-866.0254038000" r="2" />
	<circle cx="0.0000053967" cy="-0.0000028826" r="2" />
	<circle cx="1000.0000000000" cy="-0.0000000000" r="2" />
	<circle cx="0.0000000000" cy="-0.0000000000" r="2" />
	<circle cx="491.8099838199" cy="-832.2809292756" r="2" />
	<circle cx="0.0000000000" cy="-0.0000000000" r="2" />
	<circle cx="992.7538829596" cy="-4.1292410935" r="2" />
	<circle cx="473.3848703650" cy="-496.9549380334" r="2" />
	<circle cx="0.0000000000" cy="-0.0000000000" r="2" />
	<circle cx="499.9999999998" cy="-866.0254030663" r="2" />
	<circle cx="0.0000000009" cy="-0.0000000005" r="2" />
	<circle cx="0.0000000000" cy="-0.0000000000" r="2" />
	<circle cx="0.0048271426" cy="-0.0027875550" r="2" />
	<circle cx="999.9999999993" cy="-0.0000000004" r="2" />
	<circle cx="1000.0000000000" cy="-0.0000000000" r="2" />
	<circle cx="322.3908586054" cy="-153.7429354814" r="2" />
	<circle cx="0.0000000004" cy="-0.0000000002" r="2" />
	<circle cx="0.0000000000" cy="-0.0000000000" r="2" />
	<circle cx="500.0000000015" cy="-866.0253988701" r="2" />
	<circle cx="500.0000000000" cy="-866.0254038000" r="2" />
	<circle cx="0.0384372994" cy="-0.0222032349" r="2" />
	<circle cx="500.0000000000" cy="-866.0254038000" r="2" />
	<circle cx="0.0000000000" cy="-0.0000000000" r="2" />
	<circle cx="835.2088210242" cy="-110.5555731319" r="2" />
	<circle cx="320.0156259168" cy="-153.0537340972" r="2" />
	<circle cx="999.9997860802" cy="-0.0001234431" r="2" />
	<circle cx="999.8239363190" cy="-0.1015191411" r="2" />
	<circle cx="1000.0000000000" cy="-0.0000000000" r="2" />
	<circle cx="0.0000000000" cy="-0.0000000000" r="2" />
	<circle cx="1000.0000000000" cy="-0.0000000000" r="2" />
	<circle cx="620.4740515111" cy="-247.3300079098" r="2" />
	<circle cx="0.0000000000" cy="-0.0000000000" r="2" />
	<circle cx="1000.0000000000" cy="-0.0000000000" r="2" />
	<circle cx="999.6226858595" cy="-0.2178983108" r="2" />
	<circle cx="500.5416223873" cy="-863.7051825074" r="2" />
	<circle cx="0.0000000000" cy="-0.0000000000" r="2" />
	<circle cx="1000.0000000000" cy="-0.0000000000" r="2" />
	<circle cx="1000.0000000000" cy="-0.0000000000" r="2" />
	<circle cx="1000.0000000000" cy="-0.0000000000" r="2" />
	<circle cx="1000.0000000000" cy="-0.0000000000" r="2" />
	<circle cx="1000.0000000000" cy="-0.0000000000" r="2" />
	<circle cx="499.9965265137" cy="-865.7270775795" r="2" />
	<circle cx="913.0195569627" cy="-1.1218106261" r="2" />
	<circle cx="0.0000000000" cy="-0.0000000000" r="2" />
	<circle cx="557.5891302067" cy="-261.5865197008" r="2" />
	<circle cx="0.0000000000" cy="-0.0000000000" r="2" />
	<circle cx="500.0000000000" cy="-866.0254037536" r="2" />
	<circle cx="500.0509996868" cy="-319.0740610026" r="2" />
	<circle cx="500.0000000000" cy="-866.0254038000" r="2" />
	<circle cx="500.0000000000" cy="-866.0254038000" r="2" />
	<circle cx="1000.0000000000" cy="-0.0000000000" r="2" />
	<circle cx="22.7986677279" cy="-13.6487260514" r="2" />
	<circle cx="952.1641697416" cy="-37.2777891478" r="2" />
	<circle cx="433.9076557022" cy="-250.3265358364" r="2" />
	<circle cx="136.7365036522" cy="-49.4268303746" r="2" />
	<circle cx="499.9999998823" cy="-866.0253573149" r="2" />
	<circle cx="500.0000000093" cy="-866.0254036519" r="2" />
	<circle cx="1000.0000000000" cy="-0.0000000000" r="2" />
	<circle cx="500.0000551483" cy="-865.8697028999" r="2" />
	<circle cx="500.0000000098" cy="-866.0253536698" r="2" />
	<circle cx="500.0000000000" cy="-866.0254038000" r="2" />
	<circle cx="694.3982730208" cy="-176.5191769585" r="2" />
	<circle cx="1000.0000000000" cy="-0.0000000000" r="2" />
	<circle cx="460.2818816180" cy="-265.7519058788" r="2" />
	<circle cx="999.0279106022" cy="-0.6657175057" r="2" />
	<circle cx="983.5193392262" cy="-10.0717109973" r="2" />
	<circle cx="500.0000000000" cy="-866.0254038000" r="2" />
	<circle cx="500.0000000000" cy="-866.0254037068" r="2" />
	<circle cx="0.0000000000" cy="-0.0000000000" r="2" />
	<circle cx="499.9976201255" cy="-860.9201099259" r="2" />
	<circle cx="500.0000000000" cy="-866.0254037999" r="2" />
	<circle cx="500.0000000000" cy="-866.0254038000" r="2" />
	<circle cx="492.3193870581" cy="-694.0351688785" r="2" />
	<circle cx="999.9999997018" cy="-0.0000002309" r="2" />
	<circle cx="500.0000000000" cy="-866.0254038000" r="2" />
	<circle cx="999.6781452801" cy="-0.1859711471" r="2" />
	<circle cx="135.8014356199" cy="-177.6585044335" r="2" />
	<circle cx="1000.0000000000" cy="-0.0000000000" r="2" />
	<circle cx="500.0544949917" cy="-862.9006221242" r="2" />
	<circle cx="1000.0000000000" cy="-0.0000000000" r="2" />
	<circle cx="1000.0000000000" cy="-0.0000000000" r="2" />
	<circle cx="1000.0000000000" cy="-0.0000000000" r="2" />
	<circle cx="999.9997100683" cy="-0.0001673445" r="2" />
	<circle cx="1000.0000000000" cy="-0.0000000000" r="2" />
	<circle cx="949.4803372508" cy="-30.8404394935" r="2" />
	<circle cx="0.0000006012" cy="-0.0000003658" r="2" />
	<circle cx="245.2474765748" cy="-135.4359787572" r="2" />
	<circle cx="999.4358889252" cy="-0.1054991913" r="2" />
	<circle cx="0.0000000000" cy="-0.0000000000" r="2" />
	<circle cx="492.6796138491" cy="-687.0614104566" r="2" />
	<circle cx="501.3277229962" cy="-855.8313326758" r="2" />
	<circle cx="0.0000000006" cy="-0.0000000003" r="2" />
	<circle cx="1000.0000000000" cy="-0.0000000000" r="2" />
	<circle cx="500.0000000000" cy="-866.0254038000" r="2" />
	<circle cx="500.0000000000" cy="-866.0254038000" r="2" />
	<circle cx="500.0000000000" cy="-866.0254038000" r="2" />
	<circle cx="1000.0000000000" cy="-0.0000000000" r="2" />
	<circle cx="500.0000000000" cy="-866.0254038000" r="2" />
	<circle cx="0.0000000000" cy="-0.0000000000" r="2" />
	<circle cx="500.1155006252" cy="-385.5365485908" r="2" />
	<circle cx="1000.0000000000" cy="-0.0000000000" r="2" />
	<circle cx="500.0000000000" cy="-866.0254038000" r="2" />
	<circle cx="0.0000000000" cy="-0.0000000000" r="2" />
	<circle cx="522.5631194932" cy="-741.5558440911" r="2" />
	<circle cx="500.0000000000" cy="-866.0254038000" r="2" />
	<circle cx="0.0000000000" cy="-0.0000000000" r="2" />
	<circle cx="500.0000000000" cy="-866.0254038000" r="2" />
	<circle cx="500.0000000000" cy="-866.0254038000" r="2" />
	<circle cx="1000.0000000000" cy="-0.0000000000" r="2" />
	<circle cx="999.9999991243" cy="-0.0000004426" r="2" />
	<circle cx="973.7458776669" cy="-5.6641546402" r="2" />
	<circle cx="1000.0000000000" cy="-0.0000000000" r="2" />
	<circle cx="500.0000000000" cy="-866.0254038000" r="2" />
	<circle cx="0.0000000000" cy="-0.0000000000" r="2" />
	<circle cx="977.3944556125" cy="-14.6422194402" r="2" />
	<circle cx="500.0000000000" cy="-866.0254038000" r="2" />
	<circle cx="983.0375594618" cy="-9.2363358101" r="2" />
	<circle cx="999.9999999976" cy="-0.0000000014" r="2" />
	<circle cx="496.8043912471" cy="-833.6626620049" r="2" />
	<circle cx="999.8913603718" cy="-0.0010677792" r="2" />
	<circle cx="500.0000000000" cy="-866.0254038000" r="2" />
	<circle cx="1000.0000000000" cy="-0.0000000000" r="2" />
	<circle cx="500.0000000000" cy="-866.0254038000" r="2" />
	<circle cx="570.5358031749" cy="-404.2575868677" r="2" />
	<circle cx="500.0000000000" cy="-866.0254038000" r="2" />
	<circle cx="999.9998607610" cy="-0.0000935354" r="2" />
	<circle cx="1.1683064835" cy="-0.3905360824" r="2" />
	<circle cx="1.0322710168" cy="-0.5961157654" r="2" />
	<circle cx="0.0000000000" cy="-0.0000000000" r="2" />
	<circle cx="500.0000000000" cy="-866.0254038000" r="2" />
	<circle cx="997.7134961965" cy="-1.3205117063" r="2" />
	<circle cx="522.6920161964" cy="-261.4459567697" r="2" />
	<circle cx="500.0000000000" cy="-866.0254038000" r="2" />
	<circle cx="1000.0000000000" cy="-0.0000000000" r="2" />
	<circle cx="0.0000000000" cy="-0.0000000000" r="2" />
	<circle cx="1000.0000000000" cy="-0.0000000000" r="2" />
	<circle cx="999.8166389878" cy="-0.1059428031" r="2" />
	<circle cx="0.0000000000" cy="-0.0000000000" r="2" />
	<circle cx="1000.0000000000" cy="-0.0000000000" r="2" />
	<circle cx="500.0461561420" cy="-865.4073480344" r="2" />
	<circle cx="500.0000000000" cy="-866.0254038000" r="2" />
	<circle cx="999.9998017583" cy="-0.0001144298" r="2" />
	<circle cx="500.0000000000" cy="-866.0254038000" r="2" />
	<circle cx="500.0000000000" cy="-866.0254038000" r="2" />
	<circle cx="496.9713473638" cy="-857.9411260045" r="2" />
	<circle cx="1000.0000000000" cy="-0.0000000000" r="2" />
	<circle cx="465.6786842905" cy="-645.3756125042" r="2" />
	<circle cx="999.9999951248" cy="-0.0000028150" r="2" />
	<circle cx="499.8708457872" cy="-855.7827527752" r="2" />
	<circle cx="9.6587154389" cy="-5.3845286631" r="2" />
	<circle cx="499.9999918241" cy="-866.0253231959" r="2" />
	<circle cx="968.5249758483" cy="-15.7306299005" r="2" />
	<circle cx="499.9526507306" cy="-857.2655581354" r="2" />
	<circle cx="0.0000000000" cy="-0.0000000000" r="2" />
	<circle cx="1000.0000000000" cy="-0.0000000000" r="2" />
	<circle cx="499.9999999156" cy="-866.0254029592" r="2" />
	<circle cx="496.6153226778" cy="-835.7023303123" r="2" />
	<circle cx="502.0293177415" cy="-845.4360033984" r="2" />
	<circle cx="0.0000000000" cy="-0.0000000000" r="2" />
	<circle cx="999.9999999076" cy="-0.0000000534" r="2" />
	<circle cx="0.0000000000" cy="-0.0000000000" r="2" />
	<circle cx="999.8894701106" cy="-0.0289283594" r="2" />
	<circle cx="500.1212049508" cy="-865.7841226541" r="2" />
	<circle cx="1000.0000000000" cy="-0.0000000000" r="2" />
	<circle cx="0.0000000000" cy="-0.0000000000" r="2" />
	<circle cx="0.0000000000" cy="-0.0000000000" r="2" />
	<circle cx="500.0000000000" cy="-866.0254038000" r="2" />
	<circle cx="500.0000000000" cy="-866.0254038000" r="2" />
	<circle cx="105.8707231307" cy="-20.3590498478" r="2" />
	<circle cx="499.7510232215" cy="-861.8655561827" r="2" />
	<circle cx="1000.0000000000" cy="-0.0000000000" r="2" />
	<circle cx="1000.0000000000" cy="-0.0000000000" r="2" />
	<circle cx="0.1312383147" cy="-0.2252385657" r="2" />
	<circle cx="500.0429518776" cy="-862.9241589882" r="2" />
	<circle cx="1000.0000000000" cy="-0.0000000000" r="2" />
	<circle cx="1000.0000000000" cy="-0.0000000000" r="2" />
	<circle cx="524.1906104011" cy="-379.8856498291" r="2" />
	<circle cx="0.0000000000" cy="-0.0000000000" r="2" />
	<circle cx="499.9999999999" cy="-866.0254037906" r="2" />
	<circle cx="0.0000000000" cy="-0.0000000000" r="2" />
	<circle cx="961.5009257776" cy="-22.2391212390" r="2" />
	<circle cx="567.2117953583" cy="-253.9537286207" r="2" />
	<circle cx="40.9805939989" cy="-24.3234054804" r="2" />
	<circle cx="60.6582436838" cy="-34.6999280846" r="2" />
	<circle cx="999.9999970392" cy="-0.0000017103" r="2" />
	<circle cx="500.0000000000" cy="-866.0254038000" r="2" />
	<circle cx="0.0000000000" cy="-0.0000000000" r="2" />
	<circle cx="500.0000000000" cy="-866.0254038000" r="2" />
	<circle cx="500.0000000000" cy="-866.0254038000" r="2" />
	<circle cx="483.1446603462" cy="-410.2105037112" r="2" />
	<circle cx="521.8389135347" cy="-825.5415145812" r="2" />
	<circle cx="500.0000000000" cy="-866.0254038000" r="2" />
	<circle cx="500.0000000000" cy="-866.0254038000" r="2" />
	<circle cx="450.4468547337" cy="-759.8333448915" r="2" />
	<circle cx="500.0751025380" cy="-865.7376734693" r="2" />
	<circle cx="999.9970579699" cy="-0.0023244256" r="2" />
	<circle cx="0.2578086377" cy="-0.1488591599" r="2" />
	<circle cx="888.9561211346" cy="-151.3817341944" r="2" />
	<circle cx="1000.0000000000" cy="-0.0000000000" r="2" />
	<circle cx="0.0002314958" cy="-0.0001621746" r="2" />
	<circle cx="999.9999994126" cy="-0.0000003389" r="2" />
	<circle cx="500.0000000000" cy="-866.0254038000" r="2" />
	<circle cx="500.0000000000" cy="-866.0254038000" r="2" />
	<circle cx="1000.0000000000" cy="-0.0000000000" r="2" />
	<circle cx="492.9975825155" cy="-850.8319227187" r="2" />
	<circle cx="0.0000000000" cy="-0.0000000000" r="2" />
	<circle cx="0.0000000000" cy="-0.0000000000" r="2" />
	<circle cx="619.8175695677" cy="-650.3028056945" r="2" />
	<circle cx="695.5870499988" cy="-224.8598902570" r="2" />
	<circle cx="0.0000000000" cy="-0.0000000000" r="2" />
	<circle cx="0.0342301335" cy="-0.0094415797" r="2" />
	<circle cx="500.0000000000" cy="-866.0254038000" r="2" />
	<circle cx="1000.0000000000" cy="-0.0000000000" r="2" />
	<circle cx="1000.0000000000" cy="-0.0000000000" r="2" />
	<circle cx="0.0000000000" cy="-0.0000000000" r="2" />
	<circle cx="797.2969735160" cy="-53.6699322074" r="2" />
	<circle cx="1000.0000000000" cy="-0.0000000000" r="2" />
	<circle cx="496.3113884601" cy="-832.5084936044" r="2" />
	<circle cx="1000.0000000000" cy="-0.0000000000" r="2" />
	<circle cx="1000.0000000000" cy="-0.0000000000" r="2" />
	<circle cx="1000.0000000000" cy="-0.0000000000" r="2" />
	<circle cx="0.0000000000" cy="-0.0000000000" r="2" />
	<circle cx="0.0000000000" cy="-0.0000000000" r="2" />
	<circle cx="500.0000000000" cy="-866.0254037991" r="2" />
	<circle cx="0.0000000000" cy="-0.0000000000" r="2" />
	<circle cx="999.3632561147" cy="-0.3571450057" r="2" />
	<circle cx="500.0306636770" cy="-865.5690090815" r="2" />
	<circle cx="488.9336730360" cy="-784.3827901973" r="2" />
	<circle cx="500.0000000000" cy="-866.0254038000" r="2" />
	<circle cx="950.8790742341" cy="-38.4919469349" r="2" />
	<circle cx="0.0000000000" cy="-0.0000000000" r="2" />
	<circle cx="0.0000000000" cy="-0.0000000000" r="2" />
	<circle cx="1000.0000000000" cy="-0.0000000000" r="2" />
	<circle cx="1000.0000000000" cy="-0.0000000000" r="2" />
	<circle cx="0.0000000000" cy="-0.0000000000" r="2" />
	<circle cx="999.6265277558" cy="-0.2156158207" r="2" />
	<circle cx="999.5432600261" cy="-0.7415652762" r="2" />
	<circle cx="499.9963053777" cy="-842.7233779174" r="2" />
	<circle cx="499.9999964410" cy="-866.0252989623" r="2" />
	<circle cx="358.7270044909" cy="-7.6617228846" r="2" />
	<circle cx="1000.0000000000" cy="-0.0000000000" r="2" />
	<circle cx="840.0384629025" cy="-57.4841383573" r="2" />
	<circle cx="1000.0000000000" cy="-0.0000000000" r="2" />
	<circle cx="311.8721584925" cy="-180.0587169650" r="2" />
	<circle cx="0.0000000000" cy="-0.0000000000" r="2" />
	<circle cx="500.0000000000" cy="-866.0254038000" r="2" />
	<circle cx="499.9980842853" cy="-348.6699022802" r="2" />
	<circle cx="500.0000000000" cy="-866.0254038000" r="2" />
	<circle cx="973.0671807345" cy="-14.4899626015" r="2" />
	<circle cx="500.0000006227" cy="-866.0253744857" r="2" />
	<circle cx="0.0000000000" cy="-0.0000000000" r="2" />
	<circle cx="14.7071684280" cy="-4.5197430640" r="2" />
	<circle cx="1000.0000000000" cy="-0.0000000000" r="2" />
	<circle cx="1000.0000000000" cy="-0.0000000000" r="2" />
	<circle cx="1000.0000000000" cy="-0.0000000000" r="2" />
	<circle cx="0.0000560661" cy="-0.0000532832" r="2" />
	<circle cx="500.0000000000" cy="-866.0254038000" r="2" />
	<circle cx="0.0000000000" cy="-0.0000000000" r="2" />
	<circle cx="0.0000000000" cy="-0.0000000000" r="2" />
	<circle cx="1000.0000000000" cy="-0.0000000000" r="2" />
	<circle cx="0.0000000000" cy="-0.0000000000" r="2" />
  </g>
  <g id="fig2" transform="translate(-550.0,1000)">
	<polygon points="0.0,-0.0 1000.0,-0.0 500.0,-866.0254038" />
	<line
	   id="line2-1"
	   y2="-0.0"
	   x2="500"
	   y1="-288.6751346"
	   x1="500" />
	<line
	   id="line2-2"
	   y2="-433.0127019"
	   x2="250"
	   y1="-288.6751346"
	   x1="500" />
	<line
	   id="line2-3"
	   y2="-433.0127019"
	   x2="750"
	   y1="-288.6751346"
	   x1="500" />
	<text
	   x="440"
	   y="-500"
	   id="up_2">33.0%</text>
	<text
	   x="250"
	   y="-150"
	   id="down_left_2">31.0%</text>
	<text
	   x="630"
	   y="-150"
	   id="down_right_2">36.0%</text>
  </g>
  <g id="fig3" transform="translate(550,1000)">
	<polygon points="0.0,-0.0 1000.0,-0.0 500.0,-866.0254038" />
	<polygon id="triangle3b" points="250,-144.3375673 750,-144.3375673 500,-577.3502692" />
	<line
	   id="line3-1"
	   x1="125"
	   y1="-216.5063509"
	   x2="250"
	   y2="-144.3375673" />
	<line
	   id="line3-2"
	   x1="375"
	   y1="-649.5190528"
	   x2="500"
	   y2="-577.3502692" />
	<line
	   id="line3-3"
	   x1="625"
	   y1="-649.5190528"
	   x2="500"
	   y2="-577.3502692" />
	<line
	   id="line3-4"
	   x1="875"
	   y1="-216.5063509"
	   x2="750"
	   y2="-144.3375673" />
	<line
	   id="line3-5"
	   x1="750"
	   y1="-0.0"
	   x2="750"
	   y2="-144.3375673" />
	<line
	   id="line3-6"
	   x1="250"
	   y1="-0.0"
	   x2="250"
	   y2="-144.3375673" />
	<text
	   x="500"
	   y="-660"
	   text-anchor="middle"
	   id="up_3">29.4%</text>
	<text
	   y="-50"
	   x="70"
	   id="down_left_3">28.4%</text>
	<text
	   y="-50"
	   x="770"
	   id="down_right_3">32.6%</text>
	<text
	   x="500"
	   y="-50"
	   text-anchor="middle"
	   id="down_side_3">0.6%</text>
	<text
	   x="500"
	   y="-280"
	   text-anchor="middle"
	   id="center_3">7.4%</text>
	<text
	   x="685.0"
	   y="-390.8439"
	   text-anchor="middle"
	   transform="rotate(60,665.0,-380.8439)"
	   id="right_side_3">0.4%</text>
	<text
	   x="315.0"
	   y="-390.8439"
	   text-anchor="middle"
	   transform="rotate(-60,335.0,-380.8439)"
	   id="left_side_3">1.2%</text>
  </g>
</g></g>
</svg>
