<?xml version="1.0" encoding="UTF-8" standalone="no"?>
<!DOCTYPE svg PUBLIC "-//W3C//DTD SVG 1.1//EN" "http://www.w3.org/Graphics/SVG/1.1/DTD/svg11.dtd">
<svg
   xmlns:svg="http://www.w3.org/2000/svg"
   xmlns="http://www.w3.org/2000/svg"
   xmlns:xlink="http://www.w3.org/1999/xlink"
   version="1.1"
   baseProfile="full"
   id="body"
   width="800px"
   height="800px"
   viewBox="0 0 1000 1000"
   preserveAspectRatio="none">
  <defs>
    <style type="text/css"><![CDATA[
      circle{ stroke: none; }
      polygon{ stroke: black; stroke-width: 2px; fill: none; }
      line{ stroke: black; stroke-width: 2px; }
      text{ font-size:50px; }
    ]]></style>
  </defs>
  <title
     id="title1">SVG drawing</title>
<g transform="scale(0.45)"><g transform="translate(600,1050)">
  <g id="fig1">
	<polygon points="0.0,-0.0 1000.0,-0.0 500,-866.0254038" />
	<circle cx="0.0000000000" cy="-0.0000000000" r="2" />
	<circle cx="999.4895918183" cy="-0.2948149225" r="2" />
	<circle cx="999.9999999254" cy="-0.0000000440" r="2" />
	<circle cx="403.7090498218" cy="-115.8288365960" r="2" />
	<circle cx="499.9790649609" cy="-815.8868604770" r="2" />
	<circle cx="500.0000000000" cy="-866.0254038000" r="2" />
	<circle cx="577.5855838829" cy="-13.6361223612" r="2" />
	<circle cx="997.0869550276" cy="-1.6814049255" r="2" />
	<circle cx="522.7297717880" cy="-386.5414126478" r="2" />
	<circle cx="1000.0000000000" cy="-0.0000000000" r="2" />
	<circle cx="1000.0000000000" cy="-0.0000000000" r="2" />
	<circle cx="0.0024670344" cy="-0.0014343384" r="2" />
	<circle cx="912.3534385452" cy="-68.4422671334" r="2" />
	<circle cx="526.1405867535" cy="-700.3680610400" r="2" />
	<circle cx="170.0824932126" cy="-2.3641430017" r="2" />
	<circle cx="500.0000000000" cy="-866.0254038000" r="2" />
	<circle cx="552.7897137528" cy="-258.1770264847" r="2" />
	<circle cx="1000.0000000000" cy="-0.0000000000" r="2" />
	<circle cx="0.0000000000" cy="-0.0000000000" r="2" />
	<circle cx="500.0000000000" cy="-866.0254038000" r="2" />
	<circle cx="16.5662319753" cy="-10.6014298315" r="2" />
	<circle cx="500.0000000000" cy="-866.0254038000" r="2" />
	<circle cx="500.0000000000" cy="-866.0254038000" r="2" />
	<circle cx="0.0000000000" cy="-0.0000000000" r="2" />
	<circle cx="499.9998374454" cy="-864.6917949326" r="2" />
	<circle cx="116.9445480115" cy="-119.3593573421" r="2" />
	<circle cx="0.0000000000" cy="-0.0000000000" r="2" />
	<circle cx="500.0000000000" cy="-866.0254038000" r="2" />
	<circle cx="833.2491506479" cy="-32.1198656472" r="2" />
	<circle cx="8.3699595021" cy="-13.1448421979" r="2" />
	<circle cx="500.0000000000" cy="-866.0254038000" r="2" />
	<circle cx="1000.0000000000" cy="-0.0000000000" r="2" />
	<circle cx="0.0000000000" cy="-0.0000000000" r="2" />
	<circle cx="999.9999999952" cy="-0.0000000064" r="2" />
	<circle cx="999.6726027519" cy="-0.1889618527" r="2" />
	<circle cx="0.0000000000" cy="-0.0000000000" r="2" />
	<circle cx="928.2341125583" cy="-56.3919295157" r="2" />
	<circle cx="1000.0000000000" cy="-0.0000000000" r="2" />
	<circle cx="1000.0000000000" cy="-0.0000000000" r="2" />
	<circle cx="499.9999979595" cy="-866.0190830523" r="2" />
	<circle cx="1000.0000000000" cy="-0.0000000000" r="2" />
	<circle cx="500.0000000000" cy="-866.0254038000" r="2" />
	<circle cx="500.0000000000" cy="-866.0254038000" r="2" />
	<circle cx="1.1861467890" cy="-1.0422459740" r="2" />
	<circle cx="1000.0000000000" cy="-0.0000000000" r="2" />
	<circle cx="1000.0000000000" cy="-0.0000000000" r="2" />
	<circle cx="1.2232344970" cy="-0.7057708350" r="2" />
	<circle cx="663.7000703380" cy="-354.7243424450" r="2" />
	<circle cx="999.9999971404" cy="-0.0000016503" r="2" />
	<circle cx="496.3503751476" cy="-819.4712208676" r="2" />
	<circle cx="977.0427387469" cy="-13.2745078151" r="2" />
	<circle cx="500.0000000000" cy="-866.0254038000" r="2" />
	<circle cx="500.0000000000" cy="-866.0254038000" r="2" />
	<circle cx="0.0000000000" cy="-0.0000000000" r="2" />
	<circle cx="0.0000000000" cy="-0.0000000000" r="2" />
	<circle cx="0.0000000000" cy="-0.0000000000" r="2" />
	<circle cx="1000.0000000000" cy="-0.0000000000" r="2" />
	<circle cx="0.0000000000" cy="-0.0000000000" r="2" />
	<circle cx="1000.0000000000" cy="-0.0000000000" r="2" />
	<circle cx="999.9999999996" cy="-0.0000000002" r="2" />
	<circle cx="0.0000000000" cy="-0.0000000000" r="2" />
	<circle cx="500.0000000000" cy="-866.0254038000" r="2" />
	<circle cx="172.6221423349" cy="-150.4048678534" r="2" />
	<circle cx="500.0000000000" cy="-866.0254038000" r="2" />
	<circle cx="762.0096672332" cy="-325.2768240054" r="2" />
	<circle cx="0.0011812757" cy="-0.0006821596" r="2" />
	<circle cx="499.9999999665" cy="-866.0254033132" r="2" />
	<circle cx="0.0000000000" cy="-0.0000000000" r="2" />
	<circle cx="0.0112432313" cy="-0.0074316931" r="2" />
	<circle cx="500.0000001121" cy="-866.0252739131" r="2" />
	<circle cx="500.0000000000" cy="-866.0254038000" r="2" />
	<circle cx="1000.0000000000" cy="-0.0000000000" r="2" />
	<circle cx="1000.0000000000" cy="-0.0000000000" r="2" />
	<circle cx="999.9937852983" cy="-0.0035869580" r="2" />
	<circle cx="0.0000000000" cy="-0.0000000000" r="2" />
	<circle cx="1000.0000000000" cy="-0.0000000000" r="2" />
	<circle cx="102.1189231614" cy="-59.0131546566" r="2" />
	<circle cx="500.0000000000" cy="-866.0254038000" r="2" />
	<circle cx="500.0025012495" cy="-840.2459795810" r="2" />
	<circle cx="1000.0000000000" cy="-0.0000000000" r="2" />
	<circle cx="999.9929346831" cy="-0.0040787559" r="2" />
	<circle cx="820.5514410637" cy="-103.6031392945" r="2" />
	<circle cx="999.9999999999" cy="-0.0000000000" r="2" />
	<circle cx="1000.0000000000" cy="-0.0000000000" r="2" />
	<circle cx="500.0000000000" cy="-866.0254038000" r="2" />
	<circle cx="0.0000000000" cy="-0.0000000000" r="2" />
	<circle cx="499.7210840675" cy="-842.5463999190" r="2" />
	<circle cx="843.4813140790" cy="-147.1323009105" r="2" />
	<circle cx="1000.0000000000" cy="-0.0000000000" r="2" />
	<circle cx="121.2294055273" cy="-136.8557951200" r="2" />
	<circle cx="1000.0000000000" cy="-0.0000000000" r="2" />
	<circle cx="0.0013018566" cy="-0.0022548817" r="2" />
	<circle cx="500.0000000000" cy="-866.0254038000" r="2" />
	<circle cx="1000.0000000000" cy="-0.0000000000" r="2" />
	<circle cx="500.0000000000" cy="-866.0254038000" r="2" />
	<circle cx="0.0000000000" cy="-0.0000000000" r="2" />
	<circle cx="668.0698760126" cy="-539.9657954958" r="2" />
	<circle cx="500.0000000902" cy="-866.0253138993" r="2" />
	<circle cx="0.0000411803" cy="-0.0000237947" r="2" />
	<circle cx="999.9900552625" cy="-0.0036386484" r="2" />
	<circle cx="1000.0000000000" cy="-0.0000000000" r="2" />
	<circle cx="500.0350353482" cy="-376.5639183196" r="2" />
	<circle cx="1000.0000000000" cy="-0.0000000000" r="2" />
	<circle cx="1000.0000000000" cy="-0.0000000000" r="2" />
	<circle cx="1000.0000000000" cy="-0.0000000000" r="2" />
	<circle cx="500.0000000000" cy="-866.0254038000" r="2" />
	<circle cx="500.0000000000" cy="-866.0254038000" r="2" />
	<circle cx="499.9999754016" cy="-865.5535578760" r="2" />
	<circle cx="1000.0000000000" cy="-0.0000000000" r="2" />
	<circle cx="0.0000818442" cy="-0.0000472396" r="2" />
	<circle cx="500.0000000000" cy="-866.0254038000" r="2" />
	<circle cx="1000.0000000000" cy="-0.0000000000" r="2" />
	<circle cx="1000.0000000000" cy="-0.0000000000" r="2" />
	<circle cx="792.5900691362" cy="-119.7886966079" r="2" />
	<circle cx="499.9999743443" cy="-865.9909521837" r="2" />
	<circle cx="0.0036184352" cy="-0.0052687925" r="2" />
	<circle cx="0.0000000000" cy="-0.0000000000" r="2" />
	<circle cx="0.0000009976" cy="-0.0000007139" r="2" />
	<circle cx="999.9999960375" cy="-0.0000023502" r="2" />
	<circle cx="728.9259274740" cy="-180.4482425444" r="2" />
	<circle cx="499.5095533493" cy="-863.9415157700" r="2" />
	<circle cx="1000.0000000000" cy="-0.0000000000" r="2" />
	<circle cx="500.0000000000" cy="-866.0254038000" r="2" />
	<circle cx="133.7257845033" cy="-210.1194270932" r="2" />
	<circle cx="500.0000000000" cy="-866.0254038000" r="2" />
	<circle cx="500.0000000000" cy="-866.0254038000" r="2" />
	<circle cx="547.1677911946" cy="-758.0913022100" r="2" />
	<circle cx="500.0000000370" cy="-866.0247508730" r="2" />
	<circle cx="511.4746108479" cy="-680.0519550115" r="2" />
	<circle cx="999.9988923333" cy="-0.0005936924" r="2" />
	<circle cx="1000.0000000000" cy="-0.0000000000" r="2" />
	<circle cx="523.9279713379" cy="-796.4192310636" r="2" />
	<circle cx="499.9739963627" cy="-823.5154131781" r="2" />
	<circle cx="998.9352529419" cy="-0.2513663185" r="2" />
	<circle cx="0.0000000000" cy="-0.0000000000" r="2" />
	<circle cx="999.9999999963" cy="-0.0000000022" r="2" />
	<circle cx="0.0000000000" cy="-0.0000000000" r="2" />
	<circle cx="1000.0000000000" cy="-0.0000000000" r="2" />
	<circle cx="1000.0000000000" cy="-0.0000000000" r="2" />
	<circle cx="500.0000000000" cy="-866.0254038000" r="2" />
	<circle cx="500.0000000000" cy="-866.0254038000" r="2" />
	<circle cx="932.5885908688" cy="-38.9672829946" r="2" />
	<circle cx="1000.0000000000" cy="-0.0000000000" r="2" />
	<circle cx="999.9999999304" cy="-0.0000000324" r="2" />
	<circle cx="135.4535723636" cy="-88.2323536141" r="2" />
	<circle cx="1000.0000000000" cy="-0.0000000000" r="2" />
	<circle cx="499.2867155025" cy="-863.5359657450" r="2" />
	<circle cx="500.0000000000" cy="-866.0254038000" r="2" />
	<circle cx="502.0224546136" cy="-857.4963509024" r="2" />
	<circle cx="1000.0000000000" cy="-0.0000000000" r="2" />
	<circle cx="0.0000000000" cy="-0.0000000000" r="2" />
	<circle cx="349.8116782934" cy="-201.8882984261" r="2" />
	<circle cx="500.0000000000" cy="-866.0254038000" r="2" />
	<circle cx="121.4521131053" cy="-98.7242688893" r="2" />
	<circle cx="972.8058679508" cy="-13.3855800635" r="2" />
	<circle cx="1000.0000000000" cy="-0.0000000000" r="2" />
	<circle cx="1000.0000000000" cy="-0.0000000000" r="2" />
	<circle cx="1000.0000000000" cy="-0.0000000000" r="2" />
	<circle cx="85.4534379734" cy="-36.4672614929" r="2" />
	<circle cx="3.9558378412" cy="-2.3241042677" r="2" />
	<circle cx="2.5532654686" cy="-4.2212271993" r="2" />
	<circle cx="42.3449476412" cy="-24.4693851311" r="2" />
	<circle cx="0.0000000000" cy="-0.0000000000" r="2" />
	<circle cx="187.4999188781" cy="-108.2481494977" r="2" />
	<circle cx="500.0000000000" cy="-866.0254038000" r="2" />
	<circle cx="1000.0000000000" cy="-0.0000000000" r="2" />
	<circle cx="999.9481407223" cy="-0.0057106971" r="2" />
	<circle cx="0.0000000000" cy="-0.0000000000" r="2" />
	<circle cx="6.8142835944" cy="-3.9339514029" r="2" />
	<circle cx="999.9999999992" cy="-0.0000000005" r="2" />
	<circle cx="500.1427150416" cy="-862.8275289459" r="2" />
	<circle cx="999.9999997386" cy="-0.0000001509" r="2" />
	<circle cx="811.9356664600" cy="-108.7594279801" r="2" />
	<circle cx="1000.0000000000" cy="-0.0000000000" r="2" />
	<circle cx="0.0000001513" cy="-0.0000000736" r="2" />
	<circle cx="499.9999998660" cy="-866.0253743821" r="2" />
	<circle cx="0.2667048517" cy="-0.1668424296" r="2" />
	<circle cx="500.0000000000" cy="-866.0254038000" r="2" />
	<circle cx="999.9997959400" cy="-0.0001178813" r="2" />
	<circle cx="1000.0000000000" cy="-0.0000000000" r="2" />
	<circle cx="0.7390715944" cy="-0.4240244183" r="2" />
	<circle cx="500.0000000000" cy="-866.0254038000" r="2" />
	<circle cx="500.0000000000" cy="-866.0254038000" r="2" />
	<circle cx="0.0044982634" cy="-0.0038053885" r="2" />
	<circle cx="0.0000000000" cy="-0.0000000000" r="2" />
	<circle cx="500.0000000000" cy="-866.0254038000" r="2" />
	<circle cx="499.6774636666" cy="-864.9398246891" r="2" />
	<circle cx="58.8778519204" cy="-34.8645214882" r="2" />
	<circle cx="1000.0000000000" cy="-0.0000000000" r="2" />
	<circle cx="999.9999999767" cy="-0.0000000135" r="2" />
	<circle cx="1000.0000000000" cy="-0.0000000000" r="2" />
	<circle cx="500.0000000000" cy="-866.0254038000" r="2" />
	<circle cx="500.0000575464" cy="-866.0226302521" r="2" />
	<circle cx="500.0000000000" cy="-866.0254038000" r="2" />
	<circle cx="500.0000000000" cy="-866.0254038000" r="2" />
	<circle cx="48.7331179861" cy="-28.2337850308" r="2" />
	<circle cx="499.9999999999" cy="-866.0254036126" r="2" />
	<circle cx="500.0351712818" cy="-854.9455192243" r="2" />
	<circle cx="1000.0000000000" cy="-0.0000000000" r="2" />
	<circle cx="999.9955849190" cy="-0.0015686986" r="2" />
	<circle cx="0.0000000000" cy="-0.0000000000" r="2" />
	<circle cx="500.0000000000" cy="-866.0254038000" r="2" />
	<circle cx="1000.0000000000" cy="-0.0000000000" r="2" />
	<circle cx="999.2734768337" cy="-0.4195198847" r="2" />
	<circle cx="0.0095855279" cy="-0.0055337737" r="2" />
	<circle cx="500.0000003712" cy="-866.0189395388" r="2" />
	<circle cx="500.0000000000" cy="-866.0254037998" r="2" />
	<circle cx="500.0000000000" cy="-866.0254038000" r="2" />
	<circle cx="0.0000000000" cy="-0.0000000000" r="2" />
	<circle cx="499.9587260699" cy="-865.5617176183" r="2" />
	<circle cx="500.0000000000" cy="-866.0254038000" r="2" />
	<circle cx="0.0000000320" cy="-0.0000000109" r="2" />
	<circle cx="502.5528274335" cy="-832.7313768394" r="2" />
	<circle cx="500.0000000000" cy="-866.0254038000" r="2" />
	<circle cx="500.0000000000" cy="-866.0254038000" r="2" />
	<circle cx="1000.0000000000" cy="-0.0000000000" r="2" />
	<circle cx="0.0000003424" cy="-0.0000000966" r="2" />
	<circle cx="500.0000000000" cy="-866.0254038000" r="2" />
	<circle cx="1000.0000000000" cy="-0.0000000000" r="2" />
	<circle cx="1000.0000000000" cy="-0.0000000000" r="2" />
	<circle cx="0.0000000000" cy="-0.0000000000" r="2" />
	<circle cx="499.9999976517" cy="-866.0253748680" r="2" />
	<circle cx="1000.0000000000" cy="-0.0000000000" r="2" />
	<circle cx="500.0000000000" cy="-866.0254038000" r="2" />
	<circle cx="852.3269735712" cy="-98.7199087452" r="2" />
	<circle cx="999.9339080734" cy="-0.0331346623" r="2" />
	<circle cx="990.1826002727" cy="-5.6707338586" r="2" />
	<circle cx="500.0000003431" cy="-866.0251210009" r="2" />
	<circle cx="0.0000000000" cy="-0.0000000000" r="2" />
	<circle cx="500.0000015511" cy="-866.0144287756" r="2" />
	<circle cx="500.0012617773" cy="-866.0213043050" r="2" />
	<circle cx="500.0000651003" cy="-866.0241590042" r="2" />
	<circle cx="0.0000000000" cy="-0.0000000000" r="2" />
	<circle cx="493.1641695162" cy="-785.7504644238" r="2" />
	<circle cx="999.1766749874" cy="-0.4749479601" r="2" />
	<circle cx="0.0000000000" cy="-0.0000000000" r="2" />
	<circle cx="998.1315831907" cy="-2.2958381895" r="2" />
	<circle cx="217.9335577341" cy="-297.9066281666" r="2" />
	<circle cx="0.0000000000" cy="-0.0000000000" r="2" />
	<circle cx="0.0000000000" cy="-0.0000000000" r="2" />
	<circle cx="0.0000000000" cy="-0.0000000000" r="2" />
	<circle cx="499.9998626215" cy="-865.7866288740" r="2" />
	<circle cx="1000.0000000000" cy="-0.0000000000" r="2" />
	<circle cx="0.0000000000" cy="-0.0000000000" r="2" />
	<circle cx="500.2274301039" cy="-865.4326207704" r="2" />
	<circle cx="500.0000000000" cy="-866.0254038000" r="2" />
	<circle cx="0.0000000000" cy="-0.0000000000" r="2" />
	<circle cx="74.6521443929" cy="-43.0476161102" r="2" />
	<circle cx="500.0000000000" cy="-866.0254038000" r="2" />
	<circle cx="1000.0000000000" cy="-0.0000000000" r="2" />
	<circle cx="997.8603392845" cy="-3.7000689298" r="2" />
	<circle cx="0.0000319556" cy="-0.0000192669" r="2" />
	<circle cx="500.0000000000" cy="-866.0254038000" r="2" />
	<circle cx="994.1066965515" cy="-3.4057991701" r="2" />
	<circle cx="0.0000000000" cy="-0.0000000000" r="2" />
	<circle cx="999.3192479769" cy="-0.3928553224" r="2" />
	<circle cx="500.0000000000" cy="-866.0254038000" r="2" />
	<circle cx="1000.0000000000" cy="-0.0000000000" r="2" />
	<circle cx="1000.0000000000" cy="-0.0000000000" r="2" />
	<circle cx="512.9691165570" cy="-775.5567451482" r="2" />
	<circle cx="0.3445720313" cy="-0.4035809212" r="2" />
	<circle cx="500.0000000000" cy="-866.0254037965" r="2" />
	<circle cx="0.0000000000" cy="-0.0000000000" r="2" />
	<circle cx="499.4312708636" cy="-821.9529003436" r="2" />
	<circle cx="960.9793639715" cy="-29.0285083225" r="2" />
	<circle cx="1000.0000000000" cy="-0.0000000000" r="2" />
	<circle cx="28.5785877619" cy="-17.1798438961" r="2" />
	<circle cx="24.8468689558" cy="-14.6221462772" r="2" />
	<circle cx="1000.0000000000" cy="-0.0000000000" r="2" />
	<circle cx="500.0000000000" cy="-866.0254038000" r="2" />
	<circle cx="963.1918533086" cy="-21.2773701937" r="2" />
	<circle cx="499.6339328457" cy="-826.7322766074" r="2" />
	<circle cx="0.0000000000" cy="-0.0000000000" r="2" />
	<circle cx="500.0000000000" cy="-866.0254038000" r="2" />
	<circle cx="500.0000000007" cy="-866.0253997491" r="2" />
	<circle cx="500.0000000000" cy="-866.0254038000" r="2" />
	<circle cx="1000.0000000000" cy="-0.0000000000" r="2" />
	<circle cx="573.1895134406" cy="-28.5172711311" r="2" />
	<circle cx="0.1041368642" cy="-0.0601876283" r="2" />
	<circle cx="0.0000000002" cy="-0.0000000001" r="2" />
	<circle cx="999.7587472527" cy="-0.1275666185" r="2" />
	<circle cx="0.0000000000" cy="-0.0000000000" r="2" />
	<circle cx="1000.0000000000" cy="-0.0000000000" r="2" />
	<circle cx="500.0000000000" cy="-866.0254038000" r="2" />
	<circle cx="555.0214099085" cy="-614.2296622346" r="2" />
	<circle cx="1000.0000000000" cy="-0.0000000000" r="2" />
	<circle cx="1000.0000000000" cy="-0.0000000000" r="2" />
	<circle cx="505.3077350398" cy="-856.7328879442" r="2" />
	<circle cx="499.8493830793" cy="-779.9481404316" r="2" />
	<circle cx="0.0000000000" cy="-0.0000000000" r="2" />
	<circle cx="505.1013706728" cy="-747.0884962279" r="2" />
	<circle cx="0.0000000000" cy="-0.0000000000" r="2" />
	<circle cx="499.9998531269" cy="-865.4359521821" r="2" />
	<circle cx="0.0000000014" cy="-0.0000000005" r="2" />
	<circle cx="500.0000000009" cy="-866.0254037310" r="2" />
	<circle cx="500.0000000000" cy="-866.0254037997" r="2" />
	<circle cx="1000.0000000000" cy="-0.0000000000" r="2" />
	<circle cx="500.0000000000" cy="-866.0254038000" r="2" />
	<circle cx="0.0000000000" cy="-0.0000000000" r="2" />
	<circle cx="499.9999999934" cy="-866.0254037669" r="2" />
	<circle cx="999.9999999061" cy="-0.0000000542" r="2" />
	<circle cx="0.0000521902" cy="-0.0000289382" r="2" />
	<circle cx="0.0000000000" cy="-0.0000000000" r="2" />
	<circle cx="991.8499209263" cy="-4.7065711084" r="2" />
	<circle cx="1000.0000000000" cy="-0.0000000000" r="2" />
	<circle cx="0.0000000000" cy="-0.0000000000" r="2" />
	<circle cx="0.0208734004" cy="-0.0255512890" r="2" />
	<circle cx="1000.0000000000" cy="-0.0000000000" r="2" />
	<circle cx="499.9998292717" cy="-865.2220857921" r="2" />
	<circle cx="0.0000000000" cy="-0.0000000000" r="2" />
	<circle cx="0.0000000000" cy="-0.0000000000" r="2" />
	<circle cx="0.0000000000" cy="-0.0000000000" r="2" />
	<circle cx="294.6369993051" cy="-170.0689277814" r="2" />
	<circle cx="1000.0000000000" cy="-0.0000000000" r="2" />
	<circle cx="1000.0000000000" cy="-0.0000000000" r="2" />
	<circle cx="500.0000000000" cy="-866.0254038000" r="2" />
	<circle cx="0.0000000085" cy="-0.0000000049" r="2" />
	<circle cx="499.9999999923" cy="-866.0253930820" r="2" />
	<circle cx="0.0294021106" cy="-0.0169467715" r="2" />
	<circle cx="1000.0000000000" cy="-0.0000000000" r="2" />
	<circle cx="1000.0000000000" cy="-0.0000000000" r="2" />
	<circle cx="1000.0000000000" cy="-0.0000000000" r="2" />
	<circle cx="999.8686499767" cy="-0.0757756830" r="2" />
	<circle cx="1000.0000000000" cy="-0.0000000000" r="2" />
	<circle cx="999.9999992788" cy="-0.0000004161" r="2" />
	<circle cx="0.0000000000" cy="-0.0000000000" r="2" />
	<circle cx="500.0000000000" cy="-866.0254038000" r="2" />
	<circle cx="500.0000000077" cy="-866.0253723879" r="2" />
	<circle cx="0.0000000000" cy="-0.0000000000" r="2" />
	<circle cx="0.0000000000" cy="-0.0000000000" r="2" />
	<circle cx="500.0857950515" cy="-855.7818174626" r="2" />
	<circle cx="468.0977002174" cy="-82.5923759406" r="2" />
	<circle cx="0.0000000000" cy="-0.0000000000" r="2" />
	<circle cx="506.5647425203" cy="-809.9577641119" r="2" />
	<circle cx="972.5948284109" cy="-0.8417048062" r="2" />
	<circle cx="324.0817351347" cy="-159.0391415441" r="2" />
	<circle cx="501.5164341501" cy="-861.2246119983" r="2" />
	<circle cx="1000.0000000000" cy="-0.0000000000" r="2" />
	<circle cx="0.0000000000" cy="-0.0000000000" r="2" />
	<circle cx="106.9001970275" cy="-61.7688565196" r="2" />
	<circle cx="500.0000000000" cy="-866.0254038000" r="2" />
	<circle cx="499.9999999062" cy="-866.0181888632" r="2" />
	<circle cx="1000.0000000000" cy="-0.0000000000" r="2" />
	<circle cx="499.9999999799" cy="-866.0253493628" r="2" />
	<circle cx="0.0000000000" cy="-0.0000000000" r="2" />
	<circle cx="4.2841133574" cy="-2.4718776058" r="2" />
	<circle cx="0.0000000000" cy="-0.0000000000" r="2" />
	<circle cx="500.0000000000" cy="-866.0254038000" r="2" />
	<circle cx="0.0000000000" cy="-0.0000000000" r="2" />
	<circle cx="0.0000000000" cy="-0.0000000000" r="2" />
	<circle cx="0.0000000000" cy="-0.0000000000" r="2" />
	<circle cx="499.9724937704" cy="-525.8347946929" r="2" />
	<circle cx="0.0000000000" cy="-0.0000000000" r="2" />
	<circle cx="500.0000000000" cy="-866.0254038000" r="2" />
	<circle cx="0.0000000000" cy="-0.0000000000" r="2" />
	<circle cx="1000.0000000000" cy="-0.0000000000" r="2" />
	<circle cx="0.0000000000" cy="-0.0000000000" r="2" />
	<circle cx="999.9957454236" cy="-0.0024558610" r="2" />
	<circle cx="33.8678157651" cy="-19.9734260104" r="2" />
	<circle cx="1000.0000000000" cy="-0.0000000000" r="2" />
	<circle cx="1000.0000000000" cy="-0.0000000000" r="2" />
	<circle cx="500.0000000000" cy="-866.0254038000" r="2" />
	<circle cx="0.0001838202" cy="-0.0001060529" r="2" />
	<circle cx="500.0000000000" cy="-866.0254038000" r="2" />
	<circle cx="500.0000000000" cy="-866.0254038000" r="2" />
	<circle cx="618.4382507354" cy="-32.2269906738" r="2" />
	<circle cx="500.0000000000" cy="-866.0254038000" r="2" />
	<circle cx="999.7445288147" cy="-0.0932070268" r="2" />
	<circle cx="0.0000007214" cy="-0.0000004162" r="2" />
	<circle cx="0.0000000000" cy="-0.0000000000" r="2" />
	<circle cx="0.0000000000" cy="-0.0000000000" r="2" />
	<circle cx="487.5082932774" cy="-529.5398107464" r="2" />
	<circle cx="272.8133370387" cy="-268.5858214767" r="2" />
	<circle cx="500.0000000000" cy="-866.0254038000" r="2" />
	<circle cx="500.0000000000" cy="-866.0254038000" r="2" />
	<circle cx="594.0486445412" cy="-234.5087352784" r="2" />
	<circle cx="999.9869291398" cy="-0.0075443296" r="2" />
	<circle cx="499.9999891772" cy="-866.0146074799" r="2" />
	<circle cx="1000.0000000000" cy="-0.0000000000" r="2" />
	<circle cx="0.0000000000" cy="-0.0000000000" r="2" />
	<circle cx="0.7973129976" cy="-0.4616731555" r="2" />
	<circle cx="500.0000000000" cy="-866.0254038000" r="2" />
	<circle cx="500.0000000000" cy="-866.0254038000" r="2" />
	<circle cx="0.0000000000" cy="-0.0000000000" r="2" />
	<circle cx="1000.0000000000" cy="-0.0000000000" r="2" />
	<circle cx="0.0000000492" cy="-0.0000000348" r="2" />
	<circle cx="553.1586919218" cy="-393.3233326750" r="2" />
	<circle cx="999.9947769326" cy="-0.0033201499" r="2" />
	<circle cx="1000.0000000000" cy="-0.0000000000" r="2" />
	<circle cx="974.8876902629" cy="-14.9828278422" r="2" />
	<circle cx="0.0000000000" cy="-0.0000000000" r="2" />
	<circle cx="1000.0000000000" cy="-0.0000000000" r="2" />
	<circle cx="500.0000014756" cy="-865.7046299300" r="2" />
	<circle cx="500.0000000000" cy="-866.0254038000" r="2" />
	<circle cx="0.0000092020" cy="-0.0000049644" r="2" />
	<circle cx="500.0000000000" cy="-866.0254038000" r="2" />
	<circle cx="500.0000000000" cy="-866.0254038000" r="2" />
	<circle cx="500.0000000000" cy="-866.0254038000" r="2" />
	<circle cx="0.0000000000" cy="-0.0000000000" r="2" />
	<circle cx="253.9879482022" cy="-110.6721559589" r="2" />
	<circle cx="999.9999704975" cy="-0.0000170281" r="2" />
	<circle cx="999.9869296567" cy="-0.0075476696" r="2" />
	<circle cx="500.0077023519" cy="-847.3340504234" r="2" />
	<circle cx="1000.0000000000" cy="-0.0000000000" r="2" />
	<circle cx="0.0000001627" cy="-0.0000000939" r="2" />
	<circle cx="500.0002442707" cy="-866.0233927304" r="2" />
	<circle cx="999.9997233955" cy="-0.0001596530" r="2" />
	<circle cx="0.0000000203" cy="-0.0000000117" r="2" />
	<circle cx="500.0000000000" cy="-866.0254038000" r="2" />
	<circle cx="1000.0000000000" cy="-0.0000000000" r="2" />
	<circle cx="0.0000690157" cy="-0.0000398660" r="2" />
	<circle cx="0.0000000000" cy="-0.0000000000" r="2" />
	<circle cx="1000.0000000000" cy="-0.0000000000" r="2" />
	<circle cx="499.7658214455" cy="-426.6729022212" r="2" />
	<circle cx="0.0000000346" cy="-0.0000000295" r="2" />
	<circle cx="1000.0000000000" cy="-0.0000000000" r="2" />
	<circle cx="500.0000000000" cy="-866.0254038000" r="2" />
	<circle cx="500.0083476321" cy="-865.7229095519" r="2" />
	<circle cx="999.9999999986" cy="-0.0000000008" r="2" />
	<circle cx="499.9999867663" cy="-866.0253327013" r="2" />
	<circle cx="500.0000000000" cy="-866.0254037974" r="2" />
	<circle cx="23.8042951627" cy="-11.5438329722" r="2" />
	<circle cx="500.0000000000" cy="-866.0254038000" r="2" />
	<circle cx="999.9999986647" cy="-0.0000006999" r="2" />
	<circle cx="1000.0000000000" cy="-0.0000000000" r="2" />
	<circle cx="0.0000000000" cy="-0.0000000000" r="2" />
	<circle cx="0.0000000000" cy="-0.0000000000" r="2" />
	<circle cx="0.0000000000" cy="-0.0000000000" r="2" />
	<circle cx="501.3783641302" cy="-862.0270814547" r="2" />
	<circle cx="500.0000000000" cy="-866.0254038000" r="2" />
	<circle cx="971.4181731523" cy="-17.1690374000" r="2" />
	<circle cx="0.0000000000" cy="-0.0000000000" r="2" />
	<circle cx="1000.0000000000" cy="-0.0000000000" r="2" />
	<circle cx="0.0000000000" cy="-0.0000000000" r="2" />
	<circle cx="1000.0000000000" cy="-0.0000000000" r="2" />
	<circle cx="0.0042547941" cy="-0.0024562381" r="2" />
	<circle cx="999.9999999999" cy="-0.0000000000" r="2" />
	<circle cx="0.0000000000" cy="-0.0000000000" r="2" />
	<circle cx="0.0000000000" cy="-0.0000000000" r="2" />
	<circle cx="998.2020922634" cy="-1.0384482384" r="2" />
	<circle cx="0.0000000000" cy="-0.0000000000" r="2" />
	<circle cx="124.7742467524" cy="-91.6759752737" r="2" />
	<circle cx="0.0000000000" cy="-0.0000000000" r="2" />
	<circle cx="0.0000000000" cy="-0.0000000000" r="2" />
	<circle cx="500.0000237849" cy="-865.0666196582" r="2" />
	<circle cx="887.1388046933" cy="-65.2574491394" r="2" />
	<circle cx="999.9821664778" cy="-0.0114099954" r="2" />
	<circle cx="500.0000000000" cy="-866.0254038000" r="2" />
	<circle cx="788.6129139516" cy="-16.1509146042" r="2" />
	<circle cx="1000.0000000000" cy="-0.0000000000" r="2" />
	<circle cx="1000.0000000000" cy="-0.0000000000" r="2" />
	<circle cx="1000.0000000000" cy="-0.0000000000" r="2" />
	<circle cx="500.0000000000" cy="-866.0254038000" r="2" />
	<circle cx="1000.0000000000" cy="-0.0000000000" r="2" />
	<circle cx="0.0000000000" cy="-0.0000000000" r="2" />
	<circle cx="1000.0000000000" cy="-0.0000000000" r="2" />
	<circle cx="500.0000000000" cy="-866.0254038000" r="2" />
	<circle cx="1000.0000000000" cy="-0.0000000000" r="2" />
	<circle cx="500.0000000000" cy="-866.0254038000" r="2" />
	<circle cx="499.9999998557" cy="-866.0247598043" r="2" />
	<circle cx="999.6653617117" cy="-0.1862437562" r="2" />
	<circle cx="17.5225545909" cy="-11.5885440221" r="2" />
	<circle cx="0.0000000000" cy="-0.0000000000" r="2" />
	<circle cx="1000.0000000000" cy="-0.0000000000" r="2" />
	<circle cx="500.0490033524" cy="-794.5193589707" r="2" />
	<circle cx="0.0043286598" cy="-0.0026812275" r="2" />
	<circle cx="500.0000363720" cy="-865.4832558219" r="2" />
	<circle cx="0.0000000000" cy="-0.0000000000" r="2" />
	<circle cx="1000.0000000000" cy="-0.0000000000" r="2" />
	<circle cx="500.0000000000" cy="-866.0254038000" r="2" />
	<circle cx="999.9999999301" cy="-0.0000000396" r="2" />
	<circle cx="546.8663238845" cy="-525.4857485446" r="2" />
	<circle cx="1.0653538460" cy="-0.2514452056" r="2" />
	<circle cx="500.0000000000" cy="-866.0254038000" r="2" />
	<circle cx="500.0000000000" cy="-866.0254038000" r="2" />
	<circle cx="499.9999999992" cy="-866.0254017466" r="2" />
	<circle cx="999.9988260936" cy="-0.0006778297" r="2" />
	<circle cx="445.0235169865" cy="-614.2825509940" r="2" />
	<circle cx="1000.0000000000" cy="-0.0000000000" r="2" />
	<circle cx="0.0000000000" cy="-0.0000000000" r="2" />
	<circle cx="482.6961683868" cy="-517.6707862639" r="2" />
	<circle cx="0.0000000000" cy="-0.0000000000" r="2" />
	<circle cx="544.8513838641" cy="-705.1639654241" r="2" />
	<circle cx="500.0000000000" cy="-866.0254038000" r="2" />
	<circle cx="5.6794516404" cy="-3.2811989620" r="2" />
	<circle cx="500.0000001432" cy="-866.0210315076" r="2" />
	<circle cx="499.9999895276" cy="-866.0246873531" r="2" />
	<circle cx="500.1442007569" cy="-865.4226489982" r="2" />
	<circle cx="997.5373566343" cy="-1.4233194955" r="2" />
	<circle cx="500.0000000000" cy="-866.0254038000" r="2" />
	<circle cx="999.9999999371" cy="-0.0000001071" r="2" />
	<circle cx="0.0000487102" cy="-0.0000292323" r="2" />
	<circle cx="999.7194065632" cy="-0.1619324764" r="2" />
	<circle cx="116.3361375732" cy="-93.3944545926" r="2" />
	<circle cx="0.0000000000" cy="-0.0000000000" r="2" />
	<circle cx="500.0002062615" cy="-864.6626839585" r="2" />
	<circle cx="500.0000000000" cy="-866.0254038000" r="2" />
	<circle cx="500.0000000000" cy="-866.0254038000" r="2" />
	<circle cx="499.9319369367" cy="-756.0551828834" r="2" />
	<circle cx="499.9999901741" cy="-865.9959154654" r="2" />
  </g>
  <g id="fig2" transform="translate(-550.0,1000)">
	<polygon points="0.0,-0.0 1000.0,-0.0 500.0,-866.0254038" />
	<line
	   id="line2-1"
	   y2="-0.0"
	   x2="500"
	   y1="-288.6751346"
	   x1="500" />
	<line
	   id="line2-2"
	   y2="-433.0127019"
	   x2="250"
	   y1="-288.6751346"
	   x1="500" />
	<line
	   id="line2-3"
	   y2="-433.0127019"
	   x2="750"
	   y1="-288.6751346"
	   x1="500" />
	<text
	   x="440"
	   y="-500"
	   id="up_2">34.6%</text>
	<text
	   x="250"
	   y="-150"
	   id="down_left_2">31.4%</text>
	<text
	   x="630"
	   y="-150"
	   id="down_right_2">34.0%</text>
  </g>
  <g id="fig3" transform="translate(550,1000)">
	<polygon points="0.0,-0.0 1000.0,-0.0 500.0,-866.0254038" />
	<polygon id="triangle3b" points="250,-144.3375673 750,-144.3375673 500,-577.3502692" />
	<line
	   id="line3-1"
	   x1="125"
	   y1="-216.5063509"
	   x2="250"
	   y2="-144.3375673" />
	<line
	   id="line3-2"
	   x1="375"
	   y1="-649.5190528"
	   x2="500"
	   y2="-577.3502692" />
	<line
	   id="line3-3"
	   x1="625"
	   y1="-649.5190528"
	   x2="500"
	   y2="-577.3502692" />
	<line
	   id="line3-4"
	   x1="875"
	   y1="-216.5063509"
	   x2="750"
	   y2="-144.3375673" />
	<line
	   id="line3-5"
	   x1="750"
	   y1="-0.0"
	   x2="750"
	   y2="-144.3375673" />
	<line
	   id="line3-6"
	   x1="250"
	   y1="-0.0"
	   x2="250"
	   y2="-144.3375673" />
	<text
	   x="500"
	   y="-660"
	   text-anchor="middle"
	   id="up_3">32.8%</text>
	<text
	   y="-50"
	   x="70"
	   id="down_left_3">29.8%</text>
	<text
	   y="-50"
	   x="770"
	   id="down_right_3">32.4%</text>
	<text
	   x="500"
	   y="-50"
	   text-anchor="middle"
	   id="down_side_3">1.2%</text>
	<text
	   x="500"
	   y="-280"
	   text-anchor="middle"
	   id="center_3">2.6%</text>
	<text
	   x="685.0"
	   y="-390.8439"
	   text-anchor="middle"
	   transform="rotate(60,665.0,-380.8439)"
	   id="right_side_3">0.8%</text>
	<text
	   x="315.0"
	   y="-390.8439"
	   text-anchor="middle"
	   transform="rotate(-60,335.0,-380.8439)"
	   id="left_side_3">0.4%</text>
  </g>
</g></g>
</svg>
