<?xml version="1.0" encoding="UTF-8" standalone="no"?>
<!DOCTYPE svg PUBLIC "-//W3C//DTD SVG 1.1//EN" "http://www.w3.org/Graphics/SVG/1.1/DTD/svg11.dtd">
<svg
   xmlns:svg="http://www.w3.org/2000/svg"
   xmlns="http://www.w3.org/2000/svg"
   xmlns:xlink="http://www.w3.org/1999/xlink"
   version="1.1"
   baseProfile="full"
   id="body"
   width="800px"
   height="800px"
   viewBox="0 0 1000 1000"
   preserveAspectRatio="none">
  <defs>
    <style type="text/css"><![CDATA[
      circle{ stroke: none; }
      polygon{ stroke: black; stroke-width: 2px; fill: none; }
      line{ stroke: black; stroke-width: 2px; }
      text{ font-size:50px; }
    ]]></style>
  </defs>
  <title
     id="title1">SVG drawing</title>
<g transform="scale(0.45)"><g transform="translate(600,1050)">
  <g id="fig1">
	<polygon points="0.0,-0.0 1000.0,-0.0 500,-866.0254038" />
	<circle cx="0.0021207704" cy="-0.0011075554" r="2" />
	<circle cx="500.0000000000" cy="-866.0254038000" r="2" />
	<circle cx="499.9999999999" cy="-866.0254022706" r="2" />
	<circle cx="425.4946554570" cy="-200.1088209242" r="2" />
	<circle cx="0.0000000000" cy="-0.0000000000" r="2" />
	<circle cx="999.9344610570" cy="-0.0465003342" r="2" />
	<circle cx="0.0000000000" cy="-0.0000000000" r="2" />
	<circle cx="0.0013550974" cy="-0.0008532093" r="2" />
	<circle cx="0.0000000000" cy="-0.0000000000" r="2" />
	<circle cx="1000.0000000000" cy="-0.0000000000" r="2" />
	<circle cx="0.0053623555" cy="-0.0032147489" r="2" />
	<circle cx="999.8796819600" cy="-0.0612583680" r="2" />
	<circle cx="0.0000000000" cy="-0.0000000000" r="2" />
	<circle cx="999.9999993508" cy="-0.0000003847" r="2" />
	<circle cx="0.0000154327" cy="-0.0000159578" r="2" />
	<circle cx="499.7477638898" cy="-288.6200374383" r="2" />
	<circle cx="499.9999999125" cy="-866.0254035420" r="2" />
	<circle cx="500.0000003143" cy="-866.0254022196" r="2" />
	<circle cx="0.0001773354" cy="-0.0001023518" r="2" />
	<circle cx="500.0000000000" cy="-866.0254038000" r="2" />
	<circle cx="0.0000000001" cy="-0.0000000001" r="2" />
	<circle cx="500.0000000000" cy="-866.0254037992" r="2" />
	<circle cx="440.4522332911" cy="-607.8128308648" r="2" />
	<circle cx="999.9999999958" cy="-0.0000000025" r="2" />
	<circle cx="0.0000000000" cy="-0.0000000000" r="2" />
	<circle cx="0.0000000000" cy="-0.0000000000" r="2" />
	<circle cx="1000.0000000000" cy="-0.0000000000" r="2" />
	<circle cx="667.7179939169" cy="-193.3317550011" r="2" />
	<circle cx="999.9934909013" cy="-0.0103295040" r="2" />
	<circle cx="0.0000000000" cy="-0.0000000000" r="2" />
	<circle cx="500.0000000000" cy="-866.0254038000" r="2" />
	<circle cx="0.0000000000" cy="-0.0000000000" r="2" />
	<circle cx="289.4387217588" cy="-167.0425340059" r="2" />
	<circle cx="499.9998586202" cy="-865.5634419734" r="2" />
	<circle cx="3.2128003733" cy="-1.8544641070" r="2" />
	<circle cx="498.6682725535" cy="-853.8492775875" r="2" />
	<circle cx="0.0000000000" cy="-0.0000000000" r="2" />
	<circle cx="499.9999999998" cy="-866.0253997543" r="2" />
	<circle cx="981.2646020265" cy="-8.4939532187" r="2" />
	<circle cx="1000.0000000000" cy="-0.0000000000" r="2" />
	<circle cx="500.0000000000" cy="-866.0254038000" r="2" />
	<circle cx="500.0001361824" cy="-866.0239988212" r="2" />
	<circle cx="0.0001219588" cy="-0.0000900242" r="2" />
	<circle cx="500.0000000029" cy="-866.0253978384" r="2" />
	<circle cx="500.0000000000" cy="-866.0254038000" r="2" />
	<circle cx="500.0000000000" cy="-866.0254038000" r="2" />
	<circle cx="0.0000000000" cy="-0.0000000000" r="2" />
	<circle cx="0.0048545043" cy="-0.0028012585" r="2" />
	<circle cx="0.0000000000" cy="-0.0000000000" r="2" />
	<circle cx="1000.0000000000" cy="-0.0000000000" r="2" />
	<circle cx="0.0000000000" cy="-0.0000000000" r="2" />
	<circle cx="999.9999999999" cy="-0.0000000000" r="2" />
	<circle cx="500.0000528854" cy="-865.9109485491" r="2" />
	<circle cx="1000.0000000000" cy="-0.0000000000" r="2" />
	<circle cx="1000.0000000000" cy="-0.0000000000" r="2" />
	<circle cx="943.0406132096" cy="-32.1060920202" r="2" />
	<circle cx="833.8639529491" cy="-90.8207963595" r="2" />
	<circle cx="0.0000000000" cy="-0.0000000000" r="2" />
	<circle cx="1000.0000000000" cy="-0.0000000000" r="2" />
	<circle cx="999.9976374159" cy="-0.0016811948" r="2" />
	<circle cx="1.4531929371" cy="-0.3853704629" r="2" />
	<circle cx="0.0000000000" cy="-0.0000000000" r="2" />
	<circle cx="0.0000000000" cy="-0.0000000000" r="2" />
	<circle cx="1000.0000000000" cy="-0.0000000000" r="2" />
	<circle cx="601.2141368515" cy="-153.1008071851" r="2" />
	<circle cx="500.0000000000" cy="-866.0254038000" r="2" />
	<circle cx="1000.0000000000" cy="-0.0000000000" r="2" />
	<circle cx="500.3449725590" cy="-859.9423553530" r="2" />
	<circle cx="500.0000000000" cy="-866.0254037738" r="2" />
	<circle cx="1000.0000000000" cy="-0.0000000000" r="2" />
	<circle cx="999.9999946292" cy="-0.0000031010" r="2" />
	<circle cx="0.0000000000" cy="-0.0000000000" r="2" />
	<circle cx="500.0000000000" cy="-866.0254038000" r="2" />
	<circle cx="500.0000000000" cy="-866.0254038000" r="2" />
	<circle cx="500.0000000000" cy="-866.0254038000" r="2" />
	<circle cx="347.4064978768" cy="-583.5817670545" r="2" />
	<circle cx="0.0000000000" cy="-0.0000000000" r="2" />
	<circle cx="0.0012780611" cy="-0.0007381294" r="2" />
	<circle cx="0.0081889007" cy="-0.0047307191" r="2" />
	<circle cx="953.7066989249" cy="-23.0046883921" r="2" />
	<circle cx="500.0000000004" cy="-866.0254037718" r="2" />
	<circle cx="0.0121525598" cy="-0.0069720309" r="2" />
	<circle cx="1000.0000000000" cy="-0.0000000000" r="2" />
	<circle cx="499.9092971633" cy="-571.3718683595" r="2" />
	<circle cx="500.0000000000" cy="-866.0254038000" r="2" />
	<circle cx="499.9999999951" cy="-866.0253500322" r="2" />
	<circle cx="0.0000000000" cy="-0.0000000000" r="2" />
	<circle cx="999.6090427396" cy="-0.2255359725" r="2" />
	<circle cx="1000.0000000000" cy="-0.0000000000" r="2" />
	<circle cx="1000.0000000000" cy="-0.0000000000" r="2" />
	<circle cx="494.9399325718" cy="-751.7461204962" r="2" />
	<circle cx="499.9608642272" cy="-504.6364413454" r="2" />
	<circle cx="0.1016362441" cy="-0.0141321937" r="2" />
	<circle cx="999.9998041707" cy="-0.0001118210" r="2" />
	<circle cx="500.0088633613" cy="-865.9560474996" r="2" />
	<circle cx="0.0000000083" cy="-0.0000000048" r="2" />
	<circle cx="499.9999999994" cy="-866.0254026221" r="2" />
	<circle cx="0.0006397374" cy="-0.0005434841" r="2" />
	<circle cx="500.0000022770" cy="-866.0253194229" r="2" />
	<circle cx="500.0000000000" cy="-866.0254038000" r="2" />
	<circle cx="500.0000000000" cy="-866.0254038000" r="2" />
	<circle cx="499.9999999946" cy="-866.0248440765" r="2" />
	<circle cx="518.3563528266" cy="-760.8772250781" r="2" />
	<circle cx="500.0000000000" cy="-866.0254038000" r="2" />
	<circle cx="1000.0000000000" cy="-0.0000000000" r="2" />
	<circle cx="0.0000000000" cy="-0.0000000000" r="2" />
	<circle cx="999.9874870033" cy="-0.0076446931" r="2" />
	<circle cx="530.2404272503" cy="-603.0900634820" r="2" />
	<circle cx="0.0000000000" cy="-0.0000000000" r="2" />
	<circle cx="9.9323925249" cy="-5.7372460735" r="2" />
	<circle cx="500.0000000000" cy="-866.0254038000" r="2" />
	<circle cx="999.9872027403" cy="-0.0099129490" r="2" />
	<circle cx="55.1253466811" cy="-31.8267114035" r="2" />
	<circle cx="500.0000000000" cy="-866.0254038000" r="2" />
	<circle cx="999.9961162271" cy="-0.0031771887" r="2" />
	<circle cx="566.9573396746" cy="-158.7808023806" r="2" />
	<circle cx="0.0000000000" cy="-0.0000000000" r="2" />
	<circle cx="0.0000000000" cy="-0.0000000000" r="2" />
	<circle cx="625.3999128813" cy="-186.3014600788" r="2" />
	<circle cx="653.5183375702" cy="-198.9244587192" r="2" />
	<circle cx="500.0000000000" cy="-866.0254038000" r="2" />
	<circle cx="453.7223678048" cy="-262.1454770846" r="2" />
	<circle cx="595.4542161028" cy="-233.3333685485" r="2" />
	<circle cx="0.0000000000" cy="-0.0000000000" r="2" />
	<circle cx="0.0000000000" cy="-0.0000000000" r="2" />
	<circle cx="0.0000000000" cy="-0.0000000000" r="2" />
	<circle cx="999.9999932989" cy="-0.0000081314" r="2" />
	<circle cx="500.0000000000" cy="-866.0254038000" r="2" />
	<circle cx="999.9824143332" cy="-0.0101523500" r="2" />
	<circle cx="1000.0000000000" cy="-0.0000000000" r="2" />
	<circle cx="500.0000000000" cy="-866.0254038000" r="2" />
	<circle cx="500.0000000000" cy="-866.0254038000" r="2" />
	<circle cx="0.0129439989" cy="-0.0083050427" r="2" />
	<circle cx="500.0000001733" cy="-866.0253991516" r="2" />
	<circle cx="0.0000000238" cy="-0.0000000138" r="2" />
	<circle cx="1000.0000000000" cy="-0.0000000000" r="2" />
	<circle cx="0.0000000001" cy="-0.0000000000" r="2" />
	<circle cx="0.0000000000" cy="-0.0000000000" r="2" />
	<circle cx="512.4526805745" cy="-281.3071166513" r="2" />
	<circle cx="1000.0000000000" cy="-0.0000000000" r="2" />
	<circle cx="1000.0000000000" cy="-0.0000000000" r="2" />
	<circle cx="0.0000000000" cy="-0.0000000000" r="2" />
	<circle cx="0.2396321875" cy="-0.2161359328" r="2" />
	<circle cx="1000.0000000000" cy="-0.0000000000" r="2" />
	<circle cx="500.0836444985" cy="-556.1524068688" r="2" />
	<circle cx="0.0000000000" cy="-0.0000000000" r="2" />
	<circle cx="0.0021725699" cy="-0.0012457913" r="2" />
	<circle cx="0.1529969297" cy="-0.0973275898" r="2" />
	<circle cx="489.3929280888" cy="-824.5604579893" r="2" />
	<circle cx="0.0002414583" cy="-0.0001482671" r="2" />
	<circle cx="1000.0000000000" cy="-0.0000000000" r="2" />
	<circle cx="500.0003352170" cy="-866.0098116015" r="2" />
	<circle cx="0.0000000000" cy="-0.0000000000" r="2" />
	<circle cx="0.0014610224" cy="-0.0008425689" r="2" />
	<circle cx="0.0025250867" cy="-0.0014574848" r="2" />
	<circle cx="0.6453712711" cy="-0.3725511731" r="2" />
	<circle cx="1000.0000000000" cy="-0.0000000000" r="2" />
	<circle cx="737.6144783060" cy="-293.3147542202" r="2" />
	<circle cx="0.0000376945" cy="-0.0000217565" r="2" />
	<circle cx="999.9813069758" cy="-0.0107854202" r="2" />
	<circle cx="999.9020795180" cy="-0.0565668117" r="2" />
	<circle cx="499.9999988790" cy="-866.0253386016" r="2" />
	<circle cx="0.0230441061" cy="-0.0133179007" r="2" />
	<circle cx="500.0000000000" cy="-866.0254028313" r="2" />
	<circle cx="0.0073559559" cy="-0.0043557390" r="2" />
	<circle cx="318.5601248536" cy="-271.9123879716" r="2" />
	<circle cx="500.0000000000" cy="-866.0254037989" r="2" />
	<circle cx="1000.0000000000" cy="-0.0000000000" r="2" />
	<circle cx="0.0000000001" cy="-0.0000000000" r="2" />
	<circle cx="499.9996420958" cy="-865.1049681059" r="2" />
	<circle cx="500.0000000000" cy="-866.0254037984" r="2" />
	<circle cx="825.7107030979" cy="-108.7382265993" r="2" />
	<circle cx="514.1869888126" cy="-343.2816650796" r="2" />
	<circle cx="499.9999999977" cy="-866.0252845190" r="2" />
	<circle cx="999.9997833101" cy="-0.0001151142" r="2" />
	<circle cx="0.0001083889" cy="-0.0000625984" r="2" />
	<circle cx="0.0000000000" cy="-0.0000000000" r="2" />
	<circle cx="999.9999999998" cy="-0.0000000001" r="2" />
	<circle cx="998.0634902233" cy="-1.4205923651" r="2" />
	<circle cx="499.9992782429" cy="-866.0186089306" r="2" />
	<circle cx="0.0001989081" cy="-0.0001149209" r="2" />
	<circle cx="0.0000000159" cy="-0.0000000089" r="2" />
	<circle cx="1000.0000000000" cy="-0.0000000000" r="2" />
	<circle cx="999.9649835436" cy="-0.0128572616" r="2" />
	<circle cx="38.1510013518" cy="-10.7091703762" r="2" />
	<circle cx="500.0001069234" cy="-865.8392065779" r="2" />
	<circle cx="501.3602074354" cy="-854.1673175292" r="2" />
	<circle cx="497.7201539214" cy="-770.4015354370" r="2" />
	<circle cx="999.9999999999" cy="-0.0000000001" r="2" />
	<circle cx="999.9999999982" cy="-0.0000000009" r="2" />
	<circle cx="81.4451050569" cy="-30.8620198052" r="2" />
	<circle cx="500.0000000000" cy="-866.0254038000" r="2" />
	<circle cx="999.9999999982" cy="-0.0000000010" r="2" />
	<circle cx="690.0973055768" cy="-27.6842369992" r="2" />
	<circle cx="0.0000000000" cy="-0.0000000000" r="2" />
	<circle cx="1000.0000000000" cy="-0.0000000000" r="2" />
	<circle cx="499.9999900044" cy="-865.9463108973" r="2" />
	<circle cx="1000.0000000000" cy="-0.0000000000" r="2" />
	<circle cx="500.0000000000" cy="-866.0254038000" r="2" />
	<circle cx="904.7547790925" cy="-42.9950514465" r="2" />
	<circle cx="999.9999650338" cy="-0.0000201878" r="2" />
	<circle cx="990.0659437023" cy="-5.7380290775" r="2" />
	<circle cx="0.2759641957" cy="-0.1570355173" r="2" />
	<circle cx="999.9999999997" cy="-0.0000000002" r="2" />
	<circle cx="557.5312716495" cy="-243.6373875082" r="2" />
	<circle cx="990.0646184321" cy="-5.7341743412" r="2" />
	<circle cx="1000.0000000000" cy="-0.0000000000" r="2" />
	<circle cx="499.9999799509" cy="-865.7051237032" r="2" />
	<circle cx="0.0000000000" cy="-0.0000000000" r="2" />
	<circle cx="964.4934295985" cy="-20.4923724162" r="2" />
	<circle cx="495.4905785992" cy="-331.5568002209" r="2" />
	<circle cx="0.0005759659" cy="-0.0003324411" r="2" />
	<circle cx="1000.0000000000" cy="-0.0000000000" r="2" />
	<circle cx="500.0000034325" cy="-865.9973355380" r="2" />
	<circle cx="500.0000000000" cy="-866.0254038000" r="2" />
	<circle cx="0.0000000000" cy="-0.0000000000" r="2" />
	<circle cx="500.0000000000" cy="-866.0254038000" r="2" />
	<circle cx="249.3184883530" cy="-166.1704177700" r="2" />
	<circle cx="166.3324071150" cy="-90.9170301775" r="2" />
	<circle cx="1000.0000000000" cy="-0.0000000000" r="2" />
	<circle cx="500.0000000000" cy="-866.0254038000" r="2" />
	<circle cx="3.0492558724" cy="-1.7593122318" r="2" />
	<circle cx="999.9999999485" cy="-0.0000000323" r="2" />
	<circle cx="0.0000000000" cy="-0.0000000000" r="2" />
	<circle cx="67.4740741698" cy="-38.9666931264" r="2" />
	<circle cx="500.0089444857" cy="-844.6318825184" r="2" />
	<circle cx="1000.0000000000" cy="-0.0000000000" r="2" />
	<circle cx="0.0000000000" cy="-0.0000000000" r="2" />
	<circle cx="39.9983084163" cy="-34.0910542262" r="2" />
	<circle cx="500.2353673157" cy="-865.0136395164" r="2" />
	<circle cx="1000.0000000000" cy="-0.0000000000" r="2" />
	<circle cx="0.0158865358" cy="-0.0098002800" r="2" />
	<circle cx="0.4612538460" cy="-0.2664694157" r="2" />
	<circle cx="986.9175414817" cy="-11.6245071726" r="2" />
	<circle cx="0.0000842256" cy="-0.0000486317" r="2" />
	<circle cx="999.4950308300" cy="-0.3579257658" r="2" />
	<circle cx="432.4493015763" cy="-249.6786343861" r="2" />
	<circle cx="500.0000000000" cy="-866.0254038000" r="2" />
	<circle cx="500.0000000000" cy="-866.0254037998" r="2" />
	<circle cx="1000.0000000000" cy="-0.0000000000" r="2" />
	<circle cx="499.9912750078" cy="-850.7355083492" r="2" />
	<circle cx="0.0000000000" cy="-0.0000000000" r="2" />
	<circle cx="510.7566066068" cy="-554.9308322238" r="2" />
	<circle cx="0.0000000000" cy="-0.0000000000" r="2" />
	<circle cx="1000.0000000000" cy="-0.0000000000" r="2" />
	<circle cx="0.0000040168" cy="-0.0000023203" r="2" />
	<circle cx="0.0002822962" cy="-0.0001629741" r="2" />
	<circle cx="124.5560611084" cy="-48.1484473209" r="2" />
	<circle cx="0.0000000000" cy="-0.0000000000" r="2" />
	<circle cx="999.9999986493" cy="-0.0000007800" r="2" />
	<circle cx="500.0000000000" cy="-866.0254038000" r="2" />
	<circle cx="344.0717364883" cy="-303.5948963880" r="2" />
	<circle cx="0.0000000000" cy="-0.0000000000" r="2" />
	<circle cx="999.9977102215" cy="-0.0005793727" r="2" />
	<circle cx="31.7517401303" cy="-11.3927882449" r="2" />
	<circle cx="500.0000000000" cy="-866.0254038000" r="2" />
	<circle cx="849.1853168036" cy="-145.5462589019" r="2" />
	<circle cx="500.0000000002" cy="-866.0254037960" r="2" />
	<circle cx="1000.0000000000" cy="-0.0000000000" r="2" />
	<circle cx="592.2841000629" cy="-233.1472227297" r="2" />
	<circle cx="500.0000000000" cy="-866.0254038000" r="2" />
	<circle cx="999.9999999814" cy="-0.0000000107" r="2" />
	<circle cx="0.0000000000" cy="-0.0000000000" r="2" />
	<circle cx="490.7805714496" cy="-294.2203593058" r="2" />
	<circle cx="999.9409187300" cy="-0.0340896846" r="2" />
	<circle cx="999.9999999992" cy="-0.0000000004" r="2" />
	<circle cx="500.0000000000" cy="-866.0254038000" r="2" />
	<circle cx="0.0000000000" cy="-0.0000000000" r="2" />
	<circle cx="521.8047317451" cy="-453.3326301551" r="2" />
	<circle cx="1000.0000000000" cy="-0.0000000000" r="2" />
	<circle cx="500.0021519453" cy="-853.2562885624" r="2" />
	<circle cx="500.0000000000" cy="-866.0254037999" r="2" />
	<circle cx="500.0000922990" cy="-866.0168602072" r="2" />
	<circle cx="0.0000215477" cy="-0.0000124298" r="2" />
	<circle cx="0.0000000000" cy="-0.0000000000" r="2" />
	<circle cx="1000.0000000000" cy="-0.0000000000" r="2" />
	<circle cx="0.0000000000" cy="-0.0000000000" r="2" />
	<circle cx="0.0000000000" cy="-0.0000000000" r="2" />
	<circle cx="0.0000000000" cy="-0.0000000000" r="2" />
	<circle cx="3.2070834727" cy="-4.5219443435" r="2" />
	<circle cx="1000.0000000000" cy="-0.0000000000" r="2" />
	<circle cx="1000.0000000000" cy="-0.0000000000" r="2" />
	<circle cx="1000.0000000000" cy="-0.0000000000" r="2" />
	<circle cx="0.0001577573" cy="-0.0001594194" r="2" />
	<circle cx="500.0000000000" cy="-866.0254038000" r="2" />
	<circle cx="500.0000010758" cy="-866.0197180722" r="2" />
	<circle cx="461.4165685500" cy="-323.9625242154" r="2" />
	<circle cx="6.9894636810" cy="-5.3786040351" r="2" />
	<circle cx="0.0000000000" cy="-0.0000000000" r="2" />
	<circle cx="838.0969965718" cy="-98.5898494005" r="2" />
	<circle cx="0.0000000000" cy="-0.0000000000" r="2" />
	<circle cx="999.9997004369" cy="-0.0001731016" r="2" />
	<circle cx="961.0148469242" cy="-8.9560005840" r="2" />
	<circle cx="500.0000000000" cy="-866.0254038000" r="2" />
	<circle cx="471.0394829474" cy="-272.5360820494" r="2" />
	<circle cx="999.9877292757" cy="-0.0070822339" r="2" />
	<circle cx="999.7329042670" cy="-0.1443470444" r="2" />
	<circle cx="1000.0000000000" cy="-0.0000000000" r="2" />
	<circle cx="499.6414749255" cy="-848.6602609843" r="2" />
	<circle cx="460.9379790939" cy="-532.7023435054" r="2" />
	<circle cx="1000.0000000000" cy="-0.0000000000" r="2" />
	<circle cx="1.0185036815" cy="-0.5881359545" r="2" />
	<circle cx="307.2419767167" cy="-152.8275828938" r="2" />
	<circle cx="999.7202839405" cy="-0.0978451408" r="2" />
	<circle cx="500.0000000000" cy="-866.0254037948" r="2" />
	<circle cx="0.0002192581" cy="-0.0001265467" r="2" />
	<circle cx="500.0000000000" cy="-866.0254038000" r="2" />
	<circle cx="763.4598053796" cy="-96.0335636206" r="2" />
	<circle cx="534.0910797095" cy="-673.6116206818" r="2" />
	<circle cx="1000.0000000000" cy="-0.0000000000" r="2" />
	<circle cx="0.0013571410" cy="-0.0007831376" r="2" />
	<circle cx="0.0260893144" cy="-0.0254499192" r="2" />
	<circle cx="0.3470583871" cy="-0.2071470344" r="2" />
	<circle cx="0.0330502690" cy="-0.0012318727" r="2" />
	<circle cx="2.8294241236" cy="-1.6331492434" r="2" />
	<circle cx="500.0000000000" cy="-866.0254038000" r="2" />
	<circle cx="1000.0000000000" cy="-0.0000000000" r="2" />
	<circle cx="1000.0000000000" cy="-0.0000000000" r="2" />
	<circle cx="1000.0000000000" cy="-0.0000000000" r="2" />
	<circle cx="520.0123686444" cy="-757.3358864274" r="2" />
	<circle cx="0.0000000085" cy="-0.0000000047" r="2" />
	<circle cx="486.3364989066" cy="-520.5668037315" r="2" />
	<circle cx="500.0322094574" cy="-577.5878642504" r="2" />
	<circle cx="0.0000000000" cy="-0.0000000000" r="2" />
	<circle cx="489.2336244604" cy="-282.6756582971" r="2" />
	<circle cx="528.7447140632" cy="-271.5438207334" r="2" />
	<circle cx="571.1223014714" cy="-204.7999002316" r="2" />
	<circle cx="0.0000000005" cy="-0.0000000003" r="2" />
	<circle cx="500.0002767874" cy="-864.4578118378" r="2" />
	<circle cx="628.8408788669" cy="-535.7686891360" r="2" />
	<circle cx="499.9958882219" cy="-865.9307040533" r="2" />
	<circle cx="0.0003381205" cy="-0.0002726440" r="2" />
	<circle cx="0.0000000093" cy="-0.0000000054" r="2" />
	<circle cx="0.0067827418" cy="-0.0038065733" r="2" />
	<circle cx="499.9999980749" cy="-865.9905616851" r="2" />
	<circle cx="999.9984154719" cy="-0.0007802173" r="2" />
	<circle cx="500.0000000000" cy="-866.0254038000" r="2" />
	<circle cx="499.9999999913" cy="-866.0254037392" r="2" />
	<circle cx="0.0000002146" cy="-0.0000001240" r="2" />
	<circle cx="999.2871133758" cy="-0.5324009744" r="2" />
	<circle cx="500.0000000000" cy="-866.0254038000" r="2" />
	<circle cx="999.9999971184" cy="-0.0000016622" r="2" />
	<circle cx="499.7559601557" cy="-749.1467764436" r="2" />
	<circle cx="500.0169047016" cy="-618.9276977443" r="2" />
	<circle cx="999.9899285341" cy="-0.0045987156" r="2" />
	<circle cx="500.0000000000" cy="-866.0254038000" r="2" />
	<circle cx="964.0882254896" cy="-5.7424854770" r="2" />
	<circle cx="0.0006280389" cy="-0.0002770574" r="2" />
	<circle cx="500.0000000000" cy="-866.0254038000" r="2" />
	<circle cx="1000.0000000000" cy="-0.0000000000" r="2" />
	<circle cx="307.2207048151" cy="-152.9898553349" r="2" />
	<circle cx="1000.0000000000" cy="-0.0000000000" r="2" />
	<circle cx="999.9995584821" cy="-0.0002549372" r="2" />
	<circle cx="499.9999999999" cy="-866.0254037978" r="2" />
	<circle cx="0.0000000000" cy="-0.0000000000" r="2" />
	<circle cx="1000.0000000000" cy="-0.0000000000" r="2" />
	<circle cx="1000.0000000000" cy="-0.0000000000" r="2" />
	<circle cx="999.9994893909" cy="-0.0002947625" r="2" />
	<circle cx="1.3930892511" cy="-0.7516687664" r="2" />
	<circle cx="952.4663590516" cy="-45.8880393143" r="2" />
	<circle cx="656.6665051997" cy="-193.3864111910" r="2" />
	<circle cx="0.0000000000" cy="-0.0000000000" r="2" />
	<circle cx="0.0000000000" cy="-0.0000000000" r="2" />
	<circle cx="500.0000000055" cy="-866.0253871222" r="2" />
	<circle cx="999.9344596548" cy="-0.0465511491" r="2" />
	<circle cx="570.4771092168" cy="-462.6008544653" r="2" />
	<circle cx="999.9999987327" cy="-0.0000007321" r="2" />
	<circle cx="999.9999988004" cy="-0.0000006923" r="2" />
	<circle cx="971.5982405915" cy="-20.9712754900" r="2" />
	<circle cx="500.0000000000" cy="-866.0254037956" r="2" />
	<circle cx="500.0325648410" cy="-865.0900011975" r="2" />
	<circle cx="0.0018339899" cy="-0.0009483472" r="2" />
	<circle cx="499.9412847118" cy="-863.9534463099" r="2" />
	<circle cx="0.0000000000" cy="-0.0000000000" r="2" />
	<circle cx="0.0000000000" cy="-0.0000000000" r="2" />
	<circle cx="0.0238274706" cy="-0.0149948893" r="2" />
	<circle cx="999.9554840592" cy="-0.0386225931" r="2" />
	<circle cx="500.0063073175" cy="-741.1640160053" r="2" />
	<circle cx="999.9994612302" cy="-0.0003067806" r="2" />
	<circle cx="0.0239950427" cy="-0.0116697540" r="2" />
	<circle cx="243.2771280388" cy="-320.2252883872" r="2" />
	<circle cx="500.0000000000" cy="-866.0254038000" r="2" />
	<circle cx="0.0000000000" cy="-0.0000000000" r="2" />
	<circle cx="999.9999967513" cy="-0.0000018275" r="2" />
	<circle cx="500.0000000000" cy="-866.0254038000" r="2" />
	<circle cx="999.9999997717" cy="-0.0000001864" r="2" />
	<circle cx="499.4601604047" cy="-739.5748460783" r="2" />
	<circle cx="500.0000000000" cy="-866.0254038000" r="2" />
	<circle cx="0.0007747416" cy="-0.0004471245" r="2" />
	<circle cx="778.4098904575" cy="-276.7078868225" r="2" />
	<circle cx="0.0000000000" cy="-0.0000000000" r="2" />
	<circle cx="500.0000000000" cy="-866.0254038000" r="2" />
	<circle cx="500.0000000000" cy="-866.0254038000" r="2" />
	<circle cx="0.1889555268" cy="-0.1060655263" r="2" />
	<circle cx="500.0014667313" cy="-860.0383806755" r="2" />
	<circle cx="599.5087472132" cy="-315.9804604522" r="2" />
	<circle cx="0.0637171272" cy="-0.0367629281" r="2" />
	<circle cx="0.0000000000" cy="-0.0000000000" r="2" />
	<circle cx="0.0000000000" cy="-0.0000000000" r="2" />
	<circle cx="999.9999999287" cy="-0.0000000412" r="2" />
	<circle cx="331.1857201462" cy="-229.3621929031" r="2" />
	<circle cx="0.0000000000" cy="-0.0000000000" r="2" />
	<circle cx="0.0000000000" cy="-0.0000000000" r="2" />
	<circle cx="0.0054651574" cy="-0.0030365202" r="2" />
	<circle cx="500.0000001121" cy="-866.0253874122" r="2" />
	<circle cx="0.0000000000" cy="-0.0000000000" r="2" />
	<circle cx="500.0000000010" cy="-866.0254037794" r="2" />
	<circle cx="500.0000000000" cy="-866.0254038000" r="2" />
	<circle cx="694.4204700232" cy="-482.0295996250" r="2" />
	<circle cx="0.0000000000" cy="-0.0000000000" r="2" />
	<circle cx="0.0000000000" cy="-0.0000000000" r="2" />
	<circle cx="425.5206683046" cy="-192.2327827484" r="2" />
	<circle cx="869.9153448638" cy="-74.0941914987" r="2" />
	<circle cx="500.0000000000" cy="-866.0254038000" r="2" />
	<circle cx="500.0000000000" cy="-866.0254038000" r="2" />
	<circle cx="482.5000597755" cy="-232.6090812159" r="2" />
	<circle cx="0.0000000000" cy="-0.0000000000" r="2" />
	<circle cx="500.0000000000" cy="-866.0254038000" r="2" />
	<circle cx="500.0000000000" cy="-866.0254038000" r="2" />
	<circle cx="500.0000000000" cy="-866.0254038000" r="2" />
	<circle cx="1000.0000000000" cy="-0.0000000000" r="2" />
	<circle cx="0.0000000000" cy="-0.0000000000" r="2" />
	<circle cx="0.0000000000" cy="-0.0000000000" r="2" />
	<circle cx="56.3413649435" cy="-27.8691986063" r="2" />
	<circle cx="999.4230296959" cy="-0.3328792390" r="2" />
	<circle cx="499.9999999398" cy="-866.0254004438" r="2" />
	<circle cx="500.0000000000" cy="-866.0254038000" r="2" />
	<circle cx="0.0003416394" cy="-0.0001989482" r="2" />
	<circle cx="2.6978178398" cy="-1.6160539967" r="2" />
	<circle cx="500.0627603857" cy="-861.5072061023" r="2" />
	<circle cx="0.0444501920" cy="-0.0258545537" r="2" />
	<circle cx="0.0015912005" cy="-0.0009175483" r="2" />
	<circle cx="0.0000000000" cy="-0.0000000000" r="2" />
	<circle cx="500.0877304273" cy="-854.3826778400" r="2" />
	<circle cx="1000.0000000000" cy="-0.0000000000" r="2" />
	<circle cx="500.0000000000" cy="-866.0254038000" r="2" />
	<circle cx="500.0000745386" cy="-865.8407574905" r="2" />
	<circle cx="500.0000000000" cy="-866.0254038000" r="2" />
	<circle cx="0.0039649342" cy="-0.0037517536" r="2" />
	<circle cx="476.5473017391" cy="-275.2292069065" r="2" />
	<circle cx="0.0000000000" cy="-0.0000000000" r="2" />
	<circle cx="0.0000000000" cy="-0.0000000000" r="2" />
	<circle cx="499.9973747235" cy="-865.0475266635" r="2" />
	<circle cx="500.0000000000" cy="-866.0254037997" r="2" />
	<circle cx="500.0000000000" cy="-866.0254038000" r="2" />
	<circle cx="1000.0000000000" cy="-0.0000000000" r="2" />
	<circle cx="423.7974492459" cy="-454.1905420740" r="2" />
	<circle cx="500.0000000000" cy="-866.0254038000" r="2" />
	<circle cx="1000.0000000000" cy="-0.0000000000" r="2" />
	<circle cx="0.0098730663" cy="-0.0046924503" r="2" />
	<circle cx="0.0000000000" cy="-0.0000000000" r="2" />
	<circle cx="999.9895280304" cy="-0.0080251619" r="2" />
	<circle cx="0.0000000000" cy="-0.0000000000" r="2" />
	<circle cx="1000.0000000000" cy="-0.0000000000" r="2" />
	<circle cx="500.0000000000" cy="-866.0254038000" r="2" />
	<circle cx="499.9999993957" cy="-866.0208255186" r="2" />
	<circle cx="1000.0000000000" cy="-0.0000000000" r="2" />
	<circle cx="664.0498750226" cy="-119.7212751139" r="2" />
	<circle cx="507.7661584999" cy="-810.7110135489" r="2" />
	<circle cx="849.3011766201" cy="-145.3828748514" r="2" />
	<circle cx="999.8800984863" cy="-0.0692129612" r="2" />
	<circle cx="1000.0000000000" cy="-0.0000000000" r="2" />
	<circle cx="1000.0000000000" cy="-0.0000000000" r="2" />
	<circle cx="180.2992207061" cy="-3.2638744448" r="2" />
	<circle cx="0.0000115790" cy="-0.0000107140" r="2" />
	<circle cx="499.9999924340" cy="-866.0239091647" r="2" />
	<circle cx="987.0936212658" cy="-0.6612413215" r="2" />
	<circle cx="3.6053548286" cy="-1.6811208408" r="2" />
	<circle cx="0.0000000000" cy="-0.0000000000" r="2" />
	<circle cx="999.9956327292" cy="-0.0027249748" r="2" />
	<circle cx="500.0000000002" cy="-866.0254026673" r="2" />
	<circle cx="969.7484770789" cy="-17.2937170405" r="2" />
	<circle cx="499.9993782103" cy="-866.0204680760" r="2" />
	<circle cx="500.0000000261" cy="-866.0250721270" r="2" />
	<circle cx="195.9063937977" cy="-90.3691662130" r="2" />
	<circle cx="500.0000000000" cy="-866.0254038000" r="2" />
	<circle cx="0.0001645823" cy="-0.0000949590" r="2" />
	<circle cx="534.7888450956" cy="-268.8059155431" r="2" />
	<circle cx="328.9041976611" cy="-189.8128552267" r="2" />
	<circle cx="1000.0000000000" cy="-0.0000000000" r="2" />
	<circle cx="500.0000000000" cy="-866.0254038000" r="2" />
	<circle cx="0.0101591818" cy="-0.0060905221" r="2" />
	<circle cx="1000.0000000000" cy="-0.0000000000" r="2" />
	<circle cx="0.0019298084" cy="-0.0022436752" r="2" />
	<circle cx="1000.0000000000" cy="-0.0000000000" r="2" />
	<circle cx="0.0000732117" cy="-0.0000422685" r="2" />
	<circle cx="918.0602431991" cy="-42.6709828247" r="2" />
	<circle cx="499.9999999995" cy="-866.0253829686" r="2" />
	<circle cx="500.0000277224" cy="-866.0244825108" r="2" />
	<circle cx="1000.0000000000" cy="-0.0000000000" r="2" />
	<circle cx="0.0000000000" cy="-0.0000000000" r="2" />
	<circle cx="500.0000000000" cy="-866.0254038000" r="2" />
	<circle cx="500.0000000000" cy="-866.0254037999" r="2" />
	<circle cx="483.6591424029" cy="-129.9522375087" r="2" />
	<circle cx="0.0000000000" cy="-0.0000000000" r="2" />
	<circle cx="0.0060826552" cy="-0.0035126857" r="2" />
	<circle cx="0.1941964316" cy="-0.1205182867" r="2" />
	<circle cx="500.0000000000" cy="-866.0254038000" r="2" />
	<circle cx="0.0420584266" cy="-0.0242779988" r="2" />
	<circle cx="0.0000000000" cy="-0.0000000000" r="2" />
  </g>
  <g id="fig2" transform="translate(-550.0,1000)">
	<polygon points="0.0,-0.0 1000.0,-0.0 500.0,-866.0254038" />
	<line
	   id="line2-1"
	   y2="-0.0"
	   x2="500"
	   y1="-288.6751346"
	   x1="500" />
	<line
	   id="line2-2"
	   y2="-433.0127019"
	   x2="250"
	   y1="-288.6751346"
	   x1="500" />
	<line
	   id="line2-3"
	   y2="-433.0127019"
	   x2="750"
	   y1="-288.6751346"
	   x1="500" />
	<text
	   x="440"
	   y="-500"
	   id="up_2">31.6%</text>
	<text
	   x="250"
	   y="-150"
	   id="down_left_2">37.4%</text>
	<text
	   x="630"
	   y="-150"
	   id="down_right_2">31.0%</text>
  </g>
  <g id="fig3" transform="translate(550,1000)">
	<polygon points="0.0,-0.0 1000.0,-0.0 500.0,-866.0254038" />
	<polygon id="triangle3b" points="250,-144.3375673 750,-144.3375673 500,-577.3502692" />
	<line
	   id="line3-1"
	   x1="125"
	   y1="-216.5063509"
	   x2="250"
	   y2="-144.3375673" />
	<line
	   id="line3-2"
	   x1="375"
	   y1="-649.5190528"
	   x2="500"
	   y2="-577.3502692" />
	<line
	   id="line3-3"
	   x1="625"
	   y1="-649.5190528"
	   x2="500"
	   y2="-577.3502692" />
	<line
	   id="line3-4"
	   x1="875"
	   y1="-216.5063509"
	   x2="750"
	   y2="-144.3375673" />
	<line
	   id="line3-5"
	   x1="750"
	   y1="-0.0"
	   x2="750"
	   y2="-144.3375673" />
	<line
	   id="line3-6"
	   x1="250"
	   y1="-0.0"
	   x2="250"
	   y2="-144.3375673" />
	<text
	   x="500"
	   y="-660"
	   text-anchor="middle"
	   id="up_3">28.2%</text>
	<text
	   y="-50"
	   x="70"
	   id="down_left_3">33.6%</text>
	<text
	   y="-50"
	   x="770"
	   id="down_right_3">27.4%</text>
	<text
	   x="500"
	   y="-50"
	   text-anchor="middle"
	   id="down_side_3">0.6%</text>
	<text
	   x="500"
	   y="-280"
	   text-anchor="middle"
	   id="center_3">7.8%</text>
	<text
	   x="685.0"
	   y="-390.8439"
	   text-anchor="middle"
	   transform="rotate(60,665.0,-380.8439)"
	   id="right_side_3">1.0%</text>
	<text
	   x="315.0"
	   y="-390.8439"
	   text-anchor="middle"
	   transform="rotate(-60,335.0,-380.8439)"
	   id="left_side_3">1.4%</text>
  </g>
</g></g>
</svg>
