<?xml version="1.0" encoding="UTF-8" standalone="no"?>
<!DOCTYPE svg PUBLIC "-//W3C//DTD SVG 1.1//EN" "http://www.w3.org/Graphics/SVG/1.1/DTD/svg11.dtd">
<svg
   xmlns:svg="http://www.w3.org/2000/svg"
   xmlns="http://www.w3.org/2000/svg"
   xmlns:xlink="http://www.w3.org/1999/xlink"
   version="1.1"
   baseProfile="full"
   id="body"
   width="800px"
   height="800px"
   viewBox="0 0 1000 1000"
   preserveAspectRatio="none">
  <defs>
    <style type="text/css"><![CDATA[
      circle{ stroke: none; }
      polygon{ stroke: black; stroke-width: 2px; fill: none; }
      line{ stroke: black; stroke-width: 2px; }
      text{ font-size:50px; }
    ]]></style>
  </defs>
  <title
     id="title1">SVG drawing</title>
<g transform="scale(0.45)"><g transform="translate(600,1050)">
  <g id="fig1">
	<polygon points="0.0,-0.0 1000.0,-0.0 500,-866.0254038" />
	<circle cx="0.0000000000" cy="-0.0000000000" r="2" />
	<circle cx="445.0093453874" cy="-258.0329965838" r="2" />
	<circle cx="0.0000000000" cy="-0.0000000000" r="2" />
	<circle cx="999.9999999997" cy="-0.0000000002" r="2" />
	<circle cx="1000.0000000000" cy="-0.0000000000" r="2" />
	<circle cx="999.9999992155" cy="-0.0000001006" r="2" />
	<circle cx="1000.0000000000" cy="-0.0000000000" r="2" />
	<circle cx="924.6714320287" cy="-43.4694430015" r="2" />
	<circle cx="498.0276708599" cy="-380.8122572748" r="2" />
	<circle cx="321.2221405123" cy="-185.4577072431" r="2" />
	<circle cx="450.7176888331" cy="-256.6388197902" r="2" />
	<circle cx="499.9939539932" cy="-860.6843776401" r="2" />
	<circle cx="500.0000000000" cy="-866.0254017153" r="2" />
	<circle cx="500.0043917395" cy="-724.9711773208" r="2" />
	<circle cx="500.6461278153" cy="-771.7053203526" r="2" />
	<circle cx="0.0123058377" cy="-0.0071020036" r="2" />
	<circle cx="497.8882821191" cy="-389.1304536979" r="2" />
	<circle cx="499.9999997360" cy="-866.0209040428" r="2" />
	<circle cx="411.6169890477" cy="-237.6635580677" r="2" />
	<circle cx="976.4912686582" cy="-13.5759355618" r="2" />
	<circle cx="999.9999996166" cy="-0.0000002213" r="2" />
	<circle cx="500.0000170321" cy="-866.0243028751" r="2" />
	<circle cx="515.2039030536" cy="-309.9551216209" r="2" />
	<circle cx="425.7080969663" cy="-245.5435637305" r="2" />
	<circle cx="0.0000055138" cy="-0.0000031836" r="2" />
	<circle cx="6.1635753485" cy="-3.5586382428" r="2" />
	<circle cx="304.5429687574" cy="-178.5100366208" r="2" />
	<circle cx="499.9999990913" cy="-866.0253307611" r="2" />
	<circle cx="499.1060037133" cy="-855.5286528697" r="2" />
	<circle cx="908.7969250716" cy="-52.6539544802" r="2" />
	<circle cx="0.0001786021" cy="-0.0001031167" r="2" />
	<circle cx="574.7878000114" cy="-319.4050560892" r="2" />
	<circle cx="541.0268453154" cy="-304.1257845780" r="2" />
	<circle cx="0.0000000000" cy="-0.0000000000" r="2" />
	<circle cx="91.1119782238" cy="-52.6035213450" r="2" />
	<circle cx="0.0000000000" cy="-0.0000000000" r="2" />
	<circle cx="1000.0000000000" cy="-0.0000000000" r="2" />
	<circle cx="496.7321065907" cy="-671.8156988457" r="2" />
	<circle cx="50.7802709749" cy="-29.9188486273" r="2" />
	<circle cx="1000.0000000000" cy="-0.0000000000" r="2" />
	<circle cx="316.5022137272" cy="-182.7516909697" r="2" />
	<circle cx="0.0000000000" cy="-0.0000000000" r="2" />
	<circle cx="517.0500093365" cy="-363.0046973533" r="2" />
	<circle cx="500.0000000000" cy="-866.0254038000" r="2" />
	<circle cx="53.6996857566" cy="-31.0049179499" r="2" />
	<circle cx="499.9939124510" cy="-792.2029784694" r="2" />
	<circle cx="500.1003609991" cy="-689.9803873155" r="2" />
	<circle cx="999.3041947978" cy="-0.4017945564" r="2" />
	<circle cx="0.0005852974" cy="-0.0003378811" r="2" />
	<circle cx="500.0823201089" cy="-730.7986686524" r="2" />
	<circle cx="999.9999471932" cy="-0.0000305178" r="2" />
	<circle cx="500.0000000000" cy="-866.0254038000" r="2" />
	<circle cx="1000.0000000000" cy="-0.0000000000" r="2" />
	<circle cx="999.3282638034" cy="-0.3875442752" r="2" />
	<circle cx="420.2395644738" cy="-242.5626784245" r="2" />
	<circle cx="500.0000000000" cy="-866.0254038000" r="2" />
	<circle cx="499.9999999971" cy="-866.0253847190" r="2" />
	<circle cx="1000.0000000000" cy="-0.0000000000" r="2" />
	<circle cx="539.5979873439" cy="-265.8011993591" r="2" />
	<circle cx="817.5484049130" cy="-105.3521026542" r="2" />
	<circle cx="0.0000000000" cy="-0.0000000000" r="2" />
	<circle cx="363.8970474332" cy="-269.9713302911" r="2" />
	<circle cx="0.5874150300" cy="-0.3755617124" r="2" />
	<circle cx="0.0000000000" cy="-0.0000000000" r="2" />
	<circle cx="699.3727301447" cy="-173.5485333700" r="2" />
	<circle cx="500.0196335361" cy="-646.0180435065" r="2" />
	<circle cx="239.8513762548" cy="-138.4765159804" r="2" />
	<circle cx="420.3843476087" cy="-181.7858089769" r="2" />
	<circle cx="999.9999945310" cy="-0.0000031570" r="2" />
	<circle cx="0.0000000000" cy="-0.0000000000" r="2" />
	<circle cx="0.0000000000" cy="-0.0000000000" r="2" />
	<circle cx="499.9999999983" cy="-866.0253427273" r="2" />
	<circle cx="999.9878316923" cy="-0.0070251436" r="2" />
	<circle cx="485.7730771053" cy="-445.5209405907" r="2" />
	<circle cx="0.0000000000" cy="-0.0000000000" r="2" />
	<circle cx="999.9999999987" cy="-0.0000000007" r="2" />
	<circle cx="500.0000000000" cy="-866.0254037994" r="2" />
	<circle cx="499.9996477239" cy="-866.0224666208" r="2" />
	<circle cx="0.0000000000" cy="-0.0000000000" r="2" />
	<circle cx="500.0000000000" cy="-866.0254038000" r="2" />
	<circle cx="258.1207435266" cy="-149.0536862609" r="2" />
	<circle cx="358.5326645619" cy="-206.9845765462" r="2" />
	<circle cx="500.0000914535" cy="-858.9224148385" r="2" />
	<circle cx="500.0000000000" cy="-866.0254038000" r="2" />
	<circle cx="83.9928714025" cy="-48.3032473038" r="2" />
	<circle cx="500.0023956861" cy="-691.7762433120" r="2" />
	<circle cx="0.0000000000" cy="-0.0000000000" r="2" />
	<circle cx="514.0225042384" cy="-280.1474090127" r="2" />
	<circle cx="500.0020326283" cy="-822.0205571990" r="2" />
	<circle cx="497.3946391557" cy="-392.4270194875" r="2" />
	<circle cx="499.9809875311" cy="-363.7486521540" r="2" />
	<circle cx="1000.0000000000" cy="-0.0000000000" r="2" />
	<circle cx="1000.0000000000" cy="-0.0000000000" r="2" />
	<circle cx="0.0000000000" cy="-0.0000000000" r="2" />
	<circle cx="500.0000000000" cy="-866.0254035337" r="2" />
	<circle cx="499.9999999996" cy="-866.0254007439" r="2" />
	<circle cx="500.0000000000" cy="-866.0254038000" r="2" />
	<circle cx="999.8704123316" cy="-0.0748243585" r="2" />
	<circle cx="0.0000000000" cy="-0.0000000000" r="2" />
	<circle cx="500.0000000000" cy="-866.0254038000" r="2" />
	<circle cx="0.0000037736" cy="-0.0000021788" r="2" />
	<circle cx="0.0000001160" cy="-0.0000000670" r="2" />
	<circle cx="0.1286656234" cy="-0.0743300666" r="2" />
	<circle cx="0.0000000000" cy="-0.0000000000" r="2" />
	<circle cx="554.2685758994" cy="-339.5163838834" r="2" />
	<circle cx="790.7913185281" cy="-136.1326035360" r="2" />
	<circle cx="561.4205314367" cy="-253.2274843622" r="2" />
	<circle cx="583.1561858454" cy="-240.2673653956" r="2" />
	<circle cx="404.1362101570" cy="-200.5158918173" r="2" />
	<circle cx="492.0069752820" cy="-277.4603992261" r="2" />
	<circle cx="500.0000000000" cy="-866.0254038000" r="2" />
	<circle cx="480.7299912066" cy="-285.6090062493" r="2" />
	<circle cx="1000.0000000000" cy="-0.0000000000" r="2" />
	<circle cx="500.0000000000" cy="-866.0254038000" r="2" />
	<circle cx="500.0000000000" cy="-866.0254037998" r="2" />
	<circle cx="0.4280049567" cy="-0.2465661657" r="2" />
	<circle cx="500.0489028527" cy="-288.6619478937" r="2" />
	<circle cx="989.9394371969" cy="-5.8085351553" r="2" />
	<circle cx="1000.0000000000" cy="-0.0000000000" r="2" />
	<circle cx="500.0000000000" cy="-866.0254038000" r="2" />
	<circle cx="1000.0000000000" cy="-0.0000000000" r="2" />
	<circle cx="998.4699284177" cy="-0.8973590634" r="2" />
	<circle cx="617.2166007626" cy="-265.8744530810" r="2" />
	<circle cx="982.3029311203" cy="-10.2171708083" r="2" />
	<circle cx="5.3683983526" cy="-3.0989442120" r="2" />
	<circle cx="468.2737374473" cy="-288.7672589424" r="2" />
	<circle cx="500.0043614854" cy="-608.5777117684" r="2" />
	<circle cx="499.9996759054" cy="-845.6857620442" r="2" />
	<circle cx="496.8666403356" cy="-347.3502112554" r="2" />
	<circle cx="499.9999979126" cy="-865.5251108991" r="2" />
	<circle cx="995.8495671518" cy="-2.3955786357" r="2" />
	<circle cx="294.3459362103" cy="-122.5522811962" r="2" />
	<circle cx="495.7045589256" cy="-373.0976254191" r="2" />
	<circle cx="877.9495911489" cy="-70.4620878446" r="2" />
	<circle cx="497.3826439610" cy="-336.0230416884" r="2" />
	<circle cx="107.0188856852" cy="-62.3448874801" r="2" />
	<circle cx="999.9963239704" cy="-0.0021220849" r="2" />
	<circle cx="500.0000025582" cy="-866.0252920741" r="2" />
	<circle cx="500.0000000000" cy="-866.0254038000" r="2" />
	<circle cx="997.2575582490" cy="-1.5834028036" r="2" />
	<circle cx="999.9999532472" cy="-0.0000269874" r="2" />
	<circle cx="517.3633234688" cy="-279.1265538854" r="2" />
	<circle cx="385.7920303762" cy="-550.3438106915" r="2" />
	<circle cx="937.4779552450" cy="-36.0914028861" r="2" />
	<circle cx="497.4930678488" cy="-283.9423117500" r="2" />
	<circle cx="500.0000000000" cy="-866.0254038000" r="2" />
	<circle cx="500.0000000000" cy="-866.0254038000" r="2" />
	<circle cx="999.9999915138" cy="-0.0000048975" r="2" />
	<circle cx="500.0000000000" cy="-866.0254038000" r="2" />
	<circle cx="984.9881601066" cy="-11.2213873413" r="2" />
	<circle cx="781.8691297397" cy="-125.9455114327" r="2" />
	<circle cx="0.0000000000" cy="-0.0000000000" r="2" />
	<circle cx="0.0000012075" cy="-0.0000006972" r="2" />
	<circle cx="999.9999998629" cy="-0.0000000853" r="2" />
	<circle cx="0.0000001329" cy="-0.0000000767" r="2" />
	<circle cx="260.4844315236" cy="-217.9678750056" r="2" />
	<circle cx="500.0000000000" cy="-866.0254038000" r="2" />
	<circle cx="500.0000000437" cy="-866.0252030509" r="2" />
	<circle cx="419.2178592677" cy="-243.3929473146" r="2" />
	<circle cx="500.0000000000" cy="-866.0254038000" r="2" />
	<circle cx="150.6055661872" cy="-86.9053972698" r="2" />
	<circle cx="1000.0000000000" cy="-0.0000000000" r="2" />
	<circle cx="500.0000000000" cy="-866.0254038000" r="2" />
	<circle cx="801.0622622966" cy="-110.9295108675" r="2" />
	<circle cx="500.0015259217" cy="-853.3079558192" r="2" />
	<circle cx="499.9999999560" cy="-866.0252790024" r="2" />
	<circle cx="999.9999992313" cy="-0.0000004437" r="2" />
	<circle cx="0.0000000000" cy="-0.0000000000" r="2" />
	<circle cx="0.0000000000" cy="-0.0000000000" r="2" />
	<circle cx="0.0000000000" cy="-0.0000000000" r="2" />
	<circle cx="429.0077782857" cy="-242.5986034049" r="2" />
	<circle cx="91.6516750943" cy="-55.2125176833" r="2" />
	<circle cx="500.0356898727" cy="-701.1425734448" r="2" />
	<circle cx="487.9637576722" cy="-242.0599321896" r="2" />
	<circle cx="500.0633045882" cy="-288.7247776517" r="2" />
	<circle cx="13.8753533748" cy="-10.5361638015" r="2" />
	<circle cx="675.7286481519" cy="-191.8473720441" r="2" />
	<circle cx="1000.0000000000" cy="-0.0000000000" r="2" />
	<circle cx="0.0000000000" cy="-0.0000000000" r="2" />
	<circle cx="873.5281914914" cy="-73.0170146148" r="2" />
	<circle cx="0.0000000000" cy="-0.0000000000" r="2" />
	<circle cx="647.7111351372" cy="-203.3786897836" r="2" />
	<circle cx="0.0000002055" cy="-0.0000001187" r="2" />
	<circle cx="967.1253874008" cy="-15.6116831706" r="2" />
	<circle cx="513.1253852397" cy="-281.0913656953" r="2" />
	<circle cx="500.0112345043" cy="-650.8161917250" r="2" />
	<circle cx="500.0000000000" cy="-866.0254038000" r="2" />
	<circle cx="500.0000000000" cy="-866.0254033004" r="2" />
	<circle cx="999.9999999997" cy="-0.0000000002" r="2" />
	<circle cx="500.0000000000" cy="-866.0254037868" r="2" />
	<circle cx="3.7054559270" cy="-4.8165871478" r="2" />
	<circle cx="857.5090541141" cy="-82.2754584011" r="2" />
	<circle cx="481.9091228360" cy="-400.8259472436" r="2" />
	<circle cx="500.0000000000" cy="-866.0254038000" r="2" />
	<circle cx="500.0000011842" cy="-866.0249193652" r="2" />
	<circle cx="501.0504824231" cy="-288.0826361724" r="2" />
	<circle cx="1000.0000000000" cy="-0.0000000000" r="2" />
	<circle cx="551.4155448880" cy="-259.2663597835" r="2" />
	<circle cx="70.5662888922" cy="-40.7362880582" r="2" />
	<circle cx="1000.0000000000" cy="-0.0000000000" r="2" />
	<circle cx="0.0000000000" cy="-0.0000000000" r="2" />
	<circle cx="0.0000000000" cy="-0.0000000000" r="2" />
	<circle cx="499.9990696782" cy="-353.3567556531" r="2" />
	<circle cx="500.0000000000" cy="-866.0254038000" r="2" />
	<circle cx="0.0000000173" cy="-0.0000000100" r="2" />
	<circle cx="400.1028036127" cy="-232.9143806645" r="2" />
	<circle cx="500.0000000000" cy="-866.0254038000" r="2" />
	<circle cx="670.4709176836" cy="-190.2928384666" r="2" />
	<circle cx="1000.0000000000" cy="-0.0000000000" r="2" />
	<circle cx="1000.0000000000" cy="-0.0000000000" r="2" />
	<circle cx="999.9999998239" cy="-0.0000001108" r="2" />
	<circle cx="500.1149308359" cy="-852.3765464481" r="2" />
	<circle cx="0.0000000000" cy="-0.0000000000" r="2" />
	<circle cx="525.9320053835" cy="-305.7199574312" r="2" />
	<circle cx="1000.0000000000" cy="-0.0000000000" r="2" />
	<circle cx="507.3385855906" cy="-284.3858879326" r="2" />
	<circle cx="121.1120314988" cy="-70.1704688470" r="2" />
	<circle cx="39.5354451801" cy="-22.8287655056" r="2" />
	<circle cx="0.0000000000" cy="-0.0000000000" r="2" />
	<circle cx="999.9996775143" cy="-0.0001859820" r="2" />
	<circle cx="625.1197508914" cy="-217.1327607277" r="2" />
	<circle cx="953.8914796693" cy="-26.6084560597" r="2" />
	<circle cx="499.9835763867" cy="-864.2449552106" r="2" />
	<circle cx="998.9956710028" cy="-0.5796852879" r="2" />
	<circle cx="0.0000000000" cy="-0.0000000000" r="2" />
	<circle cx="0.0000000000" cy="-0.0000000000" r="2" />
	<circle cx="499.9927061032" cy="-403.9788344954" r="2" />
	<circle cx="1000.0000000000" cy="-0.0000000000" r="2" />
	<circle cx="499.9999999901" cy="-866.0251050542" r="2" />
	<circle cx="1000.0000000000" cy="-0.0000000000" r="2" />
	<circle cx="15.1870618526" cy="-7.9930500802" r="2" />
	<circle cx="999.9999827229" cy="-0.0000099757" r="2" />
	<circle cx="500.0000000000" cy="-866.0254038000" r="2" />
	<circle cx="208.7171819514" cy="-120.9257915859" r="2" />
	<circle cx="500.0000005155" cy="-865.9999044951" r="2" />
	<circle cx="500.0000000000" cy="-866.0254038000" r="2" />
	<circle cx="4.8641090273" cy="-2.8084506944" r="2" />
	<circle cx="500.0000000000" cy="-866.0254038000" r="2" />
	<circle cx="500.0000000000" cy="-866.0254038000" r="2" />
	<circle cx="996.5391218914" cy="-1.9980343868" r="2" />
	<circle cx="86.3465850177" cy="-60.1473593337" r="2" />
	<circle cx="0.0000000000" cy="-0.0000000000" r="2" />
	<circle cx="0.0000000000" cy="-0.0000000000" r="2" />
	<circle cx="499.9936027560" cy="-673.5182896929" r="2" />
	<circle cx="802.5216887226" cy="-114.0130188519" r="2" />
	<circle cx="0.0000000000" cy="-0.0000000000" r="2" />
	<circle cx="927.8970381101" cy="-18.2693797945" r="2" />
	<circle cx="1000.0000000000" cy="-0.0000000000" r="2" />
	<circle cx="499.9260069655" cy="-561.9508283033" r="2" />
	<circle cx="499.9229510759" cy="-288.3932870974" r="2" />
	<circle cx="640.1577707647" cy="-179.7176440899" r="2" />
	<circle cx="500.0000000000" cy="-866.0254038000" r="2" />
	<circle cx="1000.0000000000" cy="-0.0000000000" r="2" />
	<circle cx="0.0000000000" cy="-0.0000000000" r="2" />
	<circle cx="524.4262442785" cy="-474.8515208757" r="2" />
	<circle cx="999.9999999999" cy="-0.0000000000" r="2" />
	<circle cx="1000.0000000000" cy="-0.0000000000" r="2" />
	<circle cx="1.6070422200" cy="-1.0103369804" r="2" />
	<circle cx="340.5993299358" cy="-213.4190603986" r="2" />
	<circle cx="916.1331938221" cy="-48.3979100489" r="2" />
	<circle cx="1000.0000000000" cy="-0.0000000000" r="2" />
	<circle cx="0.0000000000" cy="-0.0000000000" r="2" />
	<circle cx="153.1591617205" cy="-87.2281995217" r="2" />
	<circle cx="500.0000000000" cy="-866.0254038000" r="2" />
	<circle cx="499.9995576486" cy="-864.4505150752" r="2" />
	<circle cx="999.9999977343" cy="-0.0000013120" r="2" />
	<circle cx="500.0000000000" cy="-866.0254038000" r="2" />
	<circle cx="417.7155403453" cy="-437.8051739711" r="2" />
	<circle cx="0.0000000000" cy="-0.0000000000" r="2" />
	<circle cx="500.0001980350" cy="-846.2413698759" r="2" />
	<circle cx="1.3974939125" cy="-0.8066673204" r="2" />
	<circle cx="0.0000000000" cy="-0.0000000000" r="2" />
	<circle cx="1000.0000000000" cy="-0.0000000000" r="2" />
	<circle cx="1000.0000000000" cy="-0.0000000000" r="2" />
	<circle cx="1000.0000000000" cy="-0.0000000000" r="2" />
	<circle cx="1000.0000000000" cy="-0.0000000000" r="2" />
	<circle cx="0.0131538540" cy="-0.0077800197" r="2" />
	<circle cx="500.0000002457" cy="-866.0220034553" r="2" />
	<circle cx="97.5966840914" cy="-56.3468208183" r="2" />
	<circle cx="500.0000000000" cy="-866.0254037805" r="2" />
	<circle cx="500.0000000000" cy="-866.0254038000" r="2" />
	<circle cx="612.3329679541" cy="-198.5638755124" r="2" />
	<circle cx="500.0000000000" cy="-866.0254038000" r="2" />
	<circle cx="13.7066419369" cy="-7.9557002486" r="2" />
	<circle cx="0.0022647628" cy="-0.0012859676" r="2" />
	<circle cx="499.9999943587" cy="-865.9766086032" r="2" />
	<circle cx="0.0001543387" cy="-0.0000809433" r="2" />
	<circle cx="500.0000363392" cy="-866.0243343620" r="2" />
	<circle cx="1000.0000000000" cy="-0.0000000000" r="2" />
	<circle cx="1000.0000000000" cy="-0.0000000000" r="2" />
	<circle cx="174.1568904154" cy="-100.5580862347" r="2" />
	<circle cx="500.0000000000" cy="-866.0254038000" r="2" />
	<circle cx="513.3471724063" cy="-758.8189550277" r="2" />
	<circle cx="1000.0000000000" cy="-0.0000000000" r="2" />
	<circle cx="999.9999999996" cy="-0.0000000002" r="2" />
	<circle cx="999.6289414041" cy="-0.2141965708" r="2" />
	<circle cx="999.9483291251" cy="-0.0298132112" r="2" />
	<circle cx="1000.0000000000" cy="-0.0000000000" r="2" />
	<circle cx="499.7454078025" cy="-229.4378143894" r="2" />
	<circle cx="505.2981923183" cy="-474.2141767151" r="2" />
	<circle cx="500.0000000000" cy="-866.0254037906" r="2" />
	<circle cx="567.3615710002" cy="-249.7814033054" r="2" />
	<circle cx="499.9985452802" cy="-346.7615934068" r="2" />
	<circle cx="20.4688155100" cy="-11.5113816066" r="2" />
	<circle cx="0.0000006755" cy="-0.0000003900" r="2" />
	<circle cx="500.0000000000" cy="-866.0254038000" r="2" />
	<circle cx="504.9654129519" cy="-459.0939249667" r="2" />
	<circle cx="499.9952506753" cy="-845.0237418901" r="2" />
	<circle cx="448.9036835379" cy="-259.1782684822" r="2" />
	<circle cx="500.0001121689" cy="-864.4042606407" r="2" />
	<circle cx="499.9997552649" cy="-865.0422525958" r="2" />
	<circle cx="1000.0000000000" cy="-0.0000000000" r="2" />
	<circle cx="1000.0000000000" cy="-0.0000000000" r="2" />
	<circle cx="0.0000000000" cy="-0.0000000000" r="2" />
	<circle cx="359.3139389925" cy="-206.5496625872" r="2" />
	<circle cx="1000.0000000000" cy="-0.0000000000" r="2" />
	<circle cx="0.0000000000" cy="-0.0000000000" r="2" />
	<circle cx="1000.0000000000" cy="-0.0000000000" r="2" />
	<circle cx="500.0000000000" cy="-866.0254038000" r="2" />
	<circle cx="525.4336676121" cy="-275.5657823454" r="2" />
	<circle cx="591.9807515207" cy="-237.3923941901" r="2" />
	<circle cx="499.9999999992" cy="-866.0253865571" r="2" />
	<circle cx="0.0000000000" cy="-0.0000000000" r="2" />
	<circle cx="515.2822612640" cy="-279.8712097895" r="2" />
	<circle cx="214.2522294802" cy="-123.6917188967" r="2" />
	<circle cx="999.9775627845" cy="-0.0129474217" r="2" />
	<circle cx="999.9576914286" cy="-0.0438579365" r="2" />
	<circle cx="500.8756687136" cy="-674.3013668631" r="2" />
	<circle cx="0.1600008879" cy="-0.0923643642" r="2" />
	<circle cx="564.6591671483" cy="-251.5323419114" r="2" />
	<circle cx="499.9998053892" cy="-865.9376986391" r="2" />
	<circle cx="500.0000000000" cy="-866.0254038000" r="2" />
	<circle cx="643.4649495300" cy="-248.5465436984" r="2" />
	<circle cx="500.0024333714" cy="-778.5701382726" r="2" />
	<circle cx="500.0171571600" cy="-306.0840477391" r="2" />
	<circle cx="500.0130095205" cy="-378.1532521122" r="2" />
	<circle cx="149.0713736882" cy="-86.0593316978" r="2" />
	<circle cx="567.3793203415" cy="-247.9446809176" r="2" />
	<circle cx="500.0129789287" cy="-328.0494150084" r="2" />
	<circle cx="500.0000000000" cy="-866.0254038000" r="2" />
	<circle cx="500.0000000000" cy="-866.0254038000" r="2" />
	<circle cx="588.7326036091" cy="-237.8206390623" r="2" />
	<circle cx="0.0000000005" cy="-0.0000000003" r="2" />
	<circle cx="500.0000000036" cy="-866.0253686311" r="2" />
	<circle cx="999.9999999704" cy="-0.0000000171" r="2" />
	<circle cx="1000.0000000000" cy="-0.0000000000" r="2" />
	<circle cx="0.0000000000" cy="-0.0000000000" r="2" />
	<circle cx="1000.0000000000" cy="-0.0000000000" r="2" />
	<circle cx="1000.0000000000" cy="-0.0000000000" r="2" />
	<circle cx="0.0006722673" cy="-0.0003881251" r="2" />
	<circle cx="497.1035672401" cy="-303.2092855327" r="2" />
	<circle cx="0.0000000000" cy="-0.0000000000" r="2" />
	<circle cx="0.0000000287" cy="-0.0000000166" r="2" />
	<circle cx="0.0004781336" cy="-0.0002760394" r="2" />
	<circle cx="1000.0000000000" cy="-0.0000000000" r="2" />
	<circle cx="999.9869062089" cy="-0.0075580218" r="2" />
	<circle cx="857.1329610917" cy="-82.4772335324" r="2" />
	<circle cx="5.6164010468" cy="-3.2422233761" r="2" />
	<circle cx="974.8593381672" cy="-14.5144450635" r="2" />
	<circle cx="500.0000000000" cy="-866.0254038000" r="2" />
	<circle cx="1000.0000000000" cy="-0.0000000000" r="2" />
	<circle cx="500.2335858345" cy="-780.2932893876" r="2" />
	<circle cx="500.0000000000" cy="-866.0254038000" r="2" />
	<circle cx="0.0000000000" cy="-0.0000000000" r="2" />
	<circle cx="1000.0000000000" cy="-0.0000000000" r="2" />
	<circle cx="500.0102571028" cy="-821.4267786459" r="2" />
	<circle cx="993.9291535749" cy="-3.5622335504" r="2" />
	<circle cx="815.5921860609" cy="-110.0530623134" r="2" />
	<circle cx="539.8364070448" cy="-268.0152409786" r="2" />
	<circle cx="346.7015043225" cy="-200.0875997317" r="2" />
	<circle cx="1000.0000000000" cy="-0.0000000000" r="2" />
	<circle cx="0.0000000000" cy="-0.0000000000" r="2" />
	<circle cx="499.9986977891" cy="-821.9364778686" r="2" />
	<circle cx="991.8883092163" cy="-4.1236498934" r="2" />
	<circle cx="0.0000000000" cy="-0.0000000000" r="2" />
	<circle cx="464.8214972210" cy="-359.1327818204" r="2" />
	<circle cx="0.0009834552" cy="-0.0005678048" r="2" />
	<circle cx="125.5583545367" cy="-155.0226182820" r="2" />
	<circle cx="0.0000030622" cy="-0.0000017696" r="2" />
	<circle cx="500.0001688806" cy="-862.9910768659" r="2" />
	<circle cx="0.0000039073" cy="-0.0000022561" r="2" />
	<circle cx="1000.0000000000" cy="-0.0000000000" r="2" />
	<circle cx="999.9218012415" cy="-0.0451514466" r="2" />
	<circle cx="0.0000000000" cy="-0.0000000000" r="2" />
	<circle cx="500.0000000000" cy="-866.0254038000" r="2" />
	<circle cx="45.4968941508" cy="-26.2794336735" r="2" />
	<circle cx="0.0000000000" cy="-0.0000000000" r="2" />
	<circle cx="0.0000000002" cy="-0.0000000001" r="2" />
	<circle cx="0.0000000000" cy="-0.0000000000" r="2" />
	<circle cx="500.0000000000" cy="-866.0254038000" r="2" />
	<circle cx="500.0089289171" cy="-803.8652425014" r="2" />
	<circle cx="1000.0000000000" cy="-0.0000000000" r="2" />
	<circle cx="502.2608103985" cy="-304.5446829087" r="2" />
	<circle cx="807.4587273756" cy="-105.3856431700" r="2" />
	<circle cx="997.8411214636" cy="-1.7051802034" r="2" />
	<circle cx="500.0000000000" cy="-866.0254038000" r="2" />
	<circle cx="58.2015432410" cy="-33.6143333551" r="2" />
	<circle cx="999.9981015007" cy="-0.0010958346" r="2" />
	<circle cx="500.0216075787" cy="-299.8802305443" r="2" />
	<circle cx="0.0023815357" cy="-0.0013749439" r="2" />
	<circle cx="0.7290110898" cy="-0.4208440802" r="2" />
	<circle cx="854.2804508760" cy="-110.7669260590" r="2" />
	<circle cx="609.7796400066" cy="-225.2560939702" r="2" />
	<circle cx="44.6571076162" cy="-25.7925137200" r="2" />
	<circle cx="499.9996598947" cy="-865.4892946302" r="2" />
	<circle cx="500.0000000000" cy="-866.0254038000" r="2" />
	<circle cx="0.0000000000" cy="-0.0000000000" r="2" />
	<circle cx="451.5109364560" cy="-260.8168509968" r="2" />
	<circle cx="385.2881263465" cy="-222.1419845484" r="2" />
	<circle cx="992.6558823118" cy="-4.2394291565" r="2" />
	<circle cx="499.2440879340" cy="-851.2538118372" r="2" />
	<circle cx="0.0000000000" cy="-0.0000000000" r="2" />
	<circle cx="742.9961982891" cy="-148.3891934944" r="2" />
	<circle cx="0.0000000000" cy="-0.0000000000" r="2" />
	<circle cx="0.0000000000" cy="-0.0000000000" r="2" />
	<circle cx="566.8531152063" cy="-284.5428960715" r="2" />
	<circle cx="499.9076157117" cy="-864.2033002448" r="2" />
	<circle cx="1000.0000000000" cy="-0.0000000000" r="2" />
	<circle cx="0.0000000000" cy="-0.0000000000" r="2" />
	<circle cx="352.8876970769" cy="-83.3490789070" r="2" />
	<circle cx="433.6599373487" cy="-250.3558434048" r="2" />
	<circle cx="0.0000000000" cy="-0.0000000000" r="2" />
	<circle cx="500.0005397848" cy="-346.2030067658" r="2" />
	<circle cx="412.0684086705" cy="-235.2359505474" r="2" />
	<circle cx="499.9414429534" cy="-864.5521394603" r="2" />
	<circle cx="0.0007713743" cy="-0.0004453038" r="2" />
	<circle cx="95.4851992003" cy="-55.1257543965" r="2" />
	<circle cx="465.8924631572" cy="-268.9570066297" r="2" />
	<circle cx="499.9855365715" cy="-431.8824217810" r="2" />
	<circle cx="995.4714216757" cy="-2.6307800667" r="2" />
	<circle cx="499.9294676908" cy="-369.2593582243" r="2" />
	<circle cx="567.5667335755" cy="-249.7845719216" r="2" />
	<circle cx="999.9999999916" cy="-0.0000000048" r="2" />
	<circle cx="507.0150300841" cy="-322.0805977361" r="2" />
	<circle cx="500.0000000000" cy="-866.0254037911" r="2" />
	<circle cx="0.0000000000" cy="-0.0000000000" r="2" />
	<circle cx="999.9999772949" cy="-0.0000130979" r="2" />
	<circle cx="500.0000000000" cy="-866.0254038000" r="2" />
	<circle cx="230.7586669674" cy="-141.5747285499" r="2" />
	<circle cx="395.8932463612" cy="-249.7972630400" r="2" />
	<circle cx="0.0251609153" cy="-0.0145264126" r="2" />
	<circle cx="500.5657884755" cy="-864.9226491531" r="2" />
	<circle cx="0.0000000000" cy="-0.0000000000" r="2" />
	<circle cx="0.0000017340" cy="-0.0000010009" r="2" />
	<circle cx="500.0000000000" cy="-866.0254038000" r="2" />
	<circle cx="498.9962399383" cy="-376.4705097325" r="2" />
	<circle cx="500.0000000000" cy="-866.0254038000" r="2" />
	<circle cx="521.8574109089" cy="-280.5832840017" r="2" />
	<circle cx="1000.0000000000" cy="-0.0000000000" r="2" />
	<circle cx="499.9937451093" cy="-714.9249752746" r="2" />
	<circle cx="500.0000000000" cy="-866.0254038000" r="2" />
	<circle cx="499.9938127179" cy="-761.5545856710" r="2" />
	<circle cx="499.9752546812" cy="-800.0646613912" r="2" />
	<circle cx="500.0000000000" cy="-866.0254038000" r="2" />
	<circle cx="989.4755204699" cy="-6.0759707446" r="2" />
	<circle cx="500.0000000000" cy="-866.0254038000" r="2" />
	<circle cx="0.0000000000" cy="-0.0000000000" r="2" />
	<circle cx="9.0860801491" cy="-5.2741405627" r="2" />
	<circle cx="500.1032702961" cy="-288.7260947589" r="2" />
	<circle cx="0.0000000000" cy="-0.0000000000" r="2" />
	<circle cx="1000.0000000000" cy="-0.0000000000" r="2" />
	<circle cx="0.0000000000" cy="-0.0000000000" r="2" />
	<circle cx="49.8248399795" cy="-28.7637731241" r="2" />
	<circle cx="500.2807482548" cy="-288.8452378737" r="2" />
	<circle cx="500.0000000000" cy="-866.0254038000" r="2" />
	<circle cx="519.3911796133" cy="-276.8991075900" r="2" />
	<circle cx="999.9999708348" cy="-0.0000168335" r="2" />
	<circle cx="500.0000000000" cy="-866.0254038000" r="2" />
	<circle cx="1000.0000000000" cy="-0.0000000000" r="2" />
	<circle cx="500.0000000026" cy="-866.0252353843" r="2" />
	<circle cx="499.9997581689" cy="-865.5085936139" r="2" />
	<circle cx="499.9999760988" cy="-865.1075951466" r="2" />
	<circle cx="498.4104586928" cy="-576.5085242558" r="2" />
	<circle cx="500.0000000013" cy="-866.0253838508" r="2" />
	<circle cx="999.8950637784" cy="-0.1338783808" r="2" />
	<circle cx="999.3374539042" cy="-0.3825146522" r="2" />
	<circle cx="996.4887034351" cy="-2.0271109055" r="2" />
	<circle cx="500.0000000000" cy="-866.0254038000" r="2" />
	<circle cx="1000.0000000000" cy="-0.0000000000" r="2" />
	<circle cx="944.3563576950" cy="-32.1357948404" r="2" />
	<circle cx="315.4232007145" cy="-426.3112999238" r="2" />
	<circle cx="0.0000000000" cy="-0.0000000000" r="2" />
	<circle cx="500.0000000000" cy="-866.0254037998" r="2" />
	<circle cx="499.9628269624" cy="-865.6249709977" r="2" />
	<circle cx="71.4910467153" cy="-41.2703548712" r="2" />
	<circle cx="0.0000000000" cy="-0.0000000000" r="2" />
	<circle cx="499.6443091547" cy="-641.1112014850" r="2" />
	<circle cx="0.0000000020" cy="-0.0000000012" r="2" />
	<circle cx="500.0029453351" cy="-862.8342282900" r="2" />
	<circle cx="500.0000000000" cy="-866.0254038000" r="2" />
	<circle cx="499.9760367120" cy="-508.7415064491" r="2" />
	<circle cx="500.6507172876" cy="-860.5865292159" r="2" />
	<circle cx="499.8820074859" cy="-856.5991406396" r="2" />
	<circle cx="499.9934366915" cy="-468.0060902414" r="2" />
	<circle cx="998.0846080580" cy="-1.1061031211" r="2" />
	<circle cx="20.8785884893" cy="-12.0533822730" r="2" />
	<circle cx="428.8832929891" cy="-247.6107568185" r="2" />
	<circle cx="999.9779060443" cy="-0.0127557283" r="2" />
	<circle cx="1000.0000000000" cy="-0.0000000000" r="2" />
	<circle cx="0.0000000000" cy="-0.0000000000" r="2" />
  </g>
  <g id="fig2" transform="translate(-550.0,1000)">
	<polygon points="0.0,-0.0 1000.0,-0.0 500.0,-866.0254038" />
	<line
	   id="line2-1"
	   y2="-0.0"
	   x2="500"
	   y1="-288.6751346"
	   x1="500" />
	<line
	   id="line2-2"
	   y2="-433.0127019"
	   x2="250"
	   y1="-288.6751346"
	   x1="500" />
	<line
	   id="line2-3"
	   y2="-433.0127019"
	   x2="750"
	   y1="-288.6751346"
	   x1="500" />
	<text
	   x="440"
	   y="-500"
	   id="up_2">34.4%</text>
	<text
	   x="250"
	   y="-150"
	   id="down_left_2">33.4%</text>
	<text
	   x="630"
	   y="-150"
	   id="down_right_2">32.2%</text>
  </g>
  <g id="fig3" transform="translate(550,1000)">
	<polygon points="0.0,-0.0 1000.0,-0.0 500.0,-866.0254038" />
	<polygon id="triangle3b" points="250,-144.3375673 750,-144.3375673 500,-577.3502692" />
	<line
	   id="line3-1"
	   x1="125"
	   y1="-216.5063509"
	   x2="250"
	   y2="-144.3375673" />
	<line
	   id="line3-2"
	   x1="375"
	   y1="-649.5190528"
	   x2="500"
	   y2="-577.3502692" />
	<line
	   id="line3-3"
	   x1="625"
	   y1="-649.5190528"
	   x2="500"
	   y2="-577.3502692" />
	<line
	   id="line3-4"
	   x1="875"
	   y1="-216.5063509"
	   x2="750"
	   y2="-144.3375673" />
	<line
	   id="line3-5"
	   x1="750"
	   y1="-0.0"
	   x2="750"
	   y2="-144.3375673" />
	<line
	   id="line3-6"
	   x1="250"
	   y1="-0.0"
	   x2="250"
	   y2="-144.3375673" />
	<text
	   x="500"
	   y="-660"
	   text-anchor="middle"
	   id="up_3">26.4%</text>
	<text
	   y="-50"
	   x="70"
	   id="down_left_3">26.0%</text>
	<text
	   y="-50"
	   x="770"
	   id="down_right_3">25.0%</text>
	<text
	   x="500"
	   y="-50"
	   text-anchor="middle"
	   id="down_side_3">0.4%</text>
	<text
	   x="500"
	   y="-280"
	   text-anchor="middle"
	   id="center_3">21.2%</text>
	<text
	   x="685.0"
	   y="-390.8439"
	   text-anchor="middle"
	   transform="rotate(60,665.0,-380.8439)"
	   id="right_side_3">0.0%</text>
	<text
	   x="315.0"
	   y="-390.8439"
	   text-anchor="middle"
	   transform="rotate(-60,335.0,-380.8439)"
	   id="left_side_3">1.0%</text>
  </g>
</g></g>
</svg>
