<?xml version="1.0" encoding="UTF-8" standalone="no"?>
<!DOCTYPE svg PUBLIC "-//W3C//DTD SVG 1.1//EN" "http://www.w3.org/Graphics/SVG/1.1/DTD/svg11.dtd">
<svg
   xmlns:svg="http://www.w3.org/2000/svg"
   xmlns="http://www.w3.org/2000/svg"
   xmlns:xlink="http://www.w3.org/1999/xlink"
   version="1.1"
   baseProfile="full"
   id="body"
   width="800px"
   height="800px"
   viewBox="0 0 1000 1000"
   preserveAspectRatio="none">
  <defs>
    <style type="text/css"><![CDATA[
      circle{ stroke: none; }
      polygon{ stroke: black; stroke-width: 2px; fill: none; }
      line{ stroke: black; stroke-width: 2px; }
      text{ font-size:50px; }
    ]]></style>
  </defs>
  <title
     id="title1">SVG drawing</title>
<g transform="scale(0.45)"><g transform="translate(600,1050)">
  <g id="fig1">
	<polygon points="0.0,-0.0 1000.0,-0.0 500,-866.0254038" />
	<circle cx="0.0001402046" cy="-0.0001168367" r="2" />
	<circle cx="500.0000000000" cy="-866.0254038000" r="2" />
	<circle cx="0.0047590075" cy="-0.0022173182" r="2" />
	<circle cx="500.0000000000" cy="-866.0254038000" r="2" />
	<circle cx="0.0000000000" cy="-0.0000000000" r="2" />
	<circle cx="56.7093647042" cy="-13.0444696934" r="2" />
	<circle cx="0.0006860415" cy="-0.0003960411" r="2" />
	<circle cx="822.8011053461" cy="-266.5296363837" r="2" />
	<circle cx="491.5843244704" cy="-789.9752834131" r="2" />
	<circle cx="500.0000000000" cy="-866.0254038000" r="2" />
	<circle cx="999.9998789750" cy="-0.0000609241" r="2" />
	<circle cx="0.0000000000" cy="-0.0000000000" r="2" />
	<circle cx="0.0001782149" cy="-0.0001028429" r="2" />
	<circle cx="0.0000000000" cy="-0.0000000000" r="2" />
	<circle cx="1000.0000000000" cy="-0.0000000000" r="2" />
	<circle cx="500.0062596729" cy="-866.0040021556" r="2" />
	<circle cx="999.9992703217" cy="-0.0003320838" r="2" />
	<circle cx="0.0000000000" cy="-0.0000000000" r="2" />
	<circle cx="0.0000000000" cy="-0.0000000000" r="2" />
	<circle cx="1000.0000000000" cy="-0.0000000000" r="2" />
	<circle cx="0.1085406599" cy="-0.0627188792" r="2" />
	<circle cx="499.9999971676" cy="-866.0253636609" r="2" />
	<circle cx="0.0000000104" cy="-0.0000000057" r="2" />
	<circle cx="0.0000000001" cy="-0.0000000001" r="2" />
	<circle cx="488.9689230218" cy="-262.4379906023" r="2" />
	<circle cx="0.0000000000" cy="-0.0000000000" r="2" />
	<circle cx="999.9999588596" cy="-0.0000181015" r="2" />
	<circle cx="1000.0000000000" cy="-0.0000000000" r="2" />
	<circle cx="506.5948583135" cy="-771.1055605875" r="2" />
	<circle cx="399.5066715689" cy="-51.4909031527" r="2" />
	<circle cx="79.7147094185" cy="-45.9928330800" r="2" />
	<circle cx="0.0000903677" cy="-0.0000521451" r="2" />
	<circle cx="500.0000000034" cy="-866.0253907615" r="2" />
	<circle cx="0.0000000001" cy="-0.0000000001" r="2" />
	<circle cx="999.9999666861" cy="-0.0000192332" r="2" />
	<circle cx="500.4318259168" cy="-862.1195305311" r="2" />
	<circle cx="500.0000000000" cy="-866.0254038000" r="2" />
	<circle cx="792.9006745925" cy="-119.5844698370" r="2" />
	<circle cx="977.9165770090" cy="-0.0002756418" r="2" />
	<circle cx="500.0000000000" cy="-866.0254038000" r="2" />
	<circle cx="0.0076320849" cy="-0.0044060745" r="2" />
	<circle cx="207.9113950004" cy="-128.0057056569" r="2" />
	<circle cx="1000.0000000000" cy="-0.0000000000" r="2" />
	<circle cx="0.0000000000" cy="-0.0000000000" r="2" />
	<circle cx="455.4262779094" cy="-263.0139744598" r="2" />
	<circle cx="1000.0000000000" cy="-0.0000000000" r="2" />
	<circle cx="500.0000000000" cy="-866.0254038000" r="2" />
	<circle cx="500.0000000000" cy="-866.0254038000" r="2" />
	<circle cx="500.0000000000" cy="-866.0254038000" r="2" />
	<circle cx="499.9999999526" cy="-866.0252568862" r="2" />
	<circle cx="500.0000000000" cy="-866.0254038000" r="2" />
	<circle cx="1000.0000000000" cy="-0.0000000000" r="2" />
	<circle cx="500.0000000000" cy="-866.0254038000" r="2" />
	<circle cx="999.9562650534" cy="-0.0252567343" r="2" />
	<circle cx="1000.0000000000" cy="-0.0000000000" r="2" />
	<circle cx="999.9999827664" cy="-0.0000099462" r="2" />
	<circle cx="500.0000000000" cy="-866.0254038000" r="2" />
	<circle cx="1000.0000000000" cy="-0.0000000000" r="2" />
	<circle cx="0.0000288901" cy="-0.0000166833" r="2" />
	<circle cx="1000.0000000000" cy="-0.0000000000" r="2" />
	<circle cx="1000.0000000000" cy="-0.0000000000" r="2" />
	<circle cx="999.9999999996" cy="-0.0000000002" r="2" />
	<circle cx="1000.0000000000" cy="-0.0000000000" r="2" />
	<circle cx="1000.0000000000" cy="-0.0000000000" r="2" />
	<circle cx="0.0000000000" cy="-0.0000000000" r="2" />
	<circle cx="500.0000000000" cy="-866.0254038000" r="2" />
	<circle cx="0.0000000000" cy="-0.0000000000" r="2" />
	<circle cx="1000.0000000000" cy="-0.0000000000" r="2" />
	<circle cx="0.2559941636" cy="-0.1479810645" r="2" />
	<circle cx="0.0000000000" cy="-0.0000000000" r="2" />
	<circle cx="91.1302437927" cy="-73.3239505867" r="2" />
	<circle cx="1000.0000000000" cy="-0.0000000000" r="2" />
	<circle cx="0.0000000000" cy="-0.0000000000" r="2" />
	<circle cx="499.9999850014" cy="-866.0238451371" r="2" />
	<circle cx="1000.0000000000" cy="-0.0000000000" r="2" />
	<circle cx="0.0000000309" cy="-0.0000000179" r="2" />
	<circle cx="0.0000000000" cy="-0.0000000000" r="2" />
	<circle cx="0.0000000001" cy="-0.0000000001" r="2" />
	<circle cx="1000.0000000000" cy="-0.0000000000" r="2" />
	<circle cx="1000.0000000000" cy="-0.0000000000" r="2" />
	<circle cx="1000.0000000000" cy="-0.0000000000" r="2" />
	<circle cx="500.0000000000" cy="-866.0254038000" r="2" />
	<circle cx="0.6212024478" cy="-0.3590170657" r="2" />
	<circle cx="510.1703452666" cy="-787.2050557930" r="2" />
	<circle cx="0.0000575846" cy="-0.0000332612" r="2" />
	<circle cx="499.9848905028" cy="-865.9992324182" r="2" />
	<circle cx="999.9999969998" cy="-0.0000009444" r="2" />
	<circle cx="497.3095274545" cy="-766.3421575872" r="2" />
	<circle cx="500.0000000000" cy="-866.0254038000" r="2" />
	<circle cx="1000.0000000000" cy="-0.0000000000" r="2" />
	<circle cx="0.0000000000" cy="-0.0000000000" r="2" />
	<circle cx="0.0000134396" cy="-0.0000077555" r="2" />
	<circle cx="503.3893874390" cy="-746.9234589990" r="2" />
	<circle cx="957.3228648513" cy="-26.1530274471" r="2" />
	<circle cx="0.0000000000" cy="-0.0000000000" r="2" />
	<circle cx="0.0000000000" cy="-0.0000000000" r="2" />
	<circle cx="999.9999711729" cy="-0.0000216281" r="2" />
	<circle cx="0.3758494295" cy="-0.0977826805" r="2" />
	<circle cx="772.7479862065" cy="-131.2812977419" r="2" />
	<circle cx="500.0000000000" cy="-866.0254038000" r="2" />
	<circle cx="0.0000000000" cy="-0.0000000000" r="2" />
	<circle cx="499.9999555117" cy="-865.8598779002" r="2" />
	<circle cx="1000.0000000000" cy="-0.0000000000" r="2" />
	<circle cx="1000.0000000000" cy="-0.0000000000" r="2" />
	<circle cx="999.2058631540" cy="-0.5016231045" r="2" />
	<circle cx="500.0000000000" cy="-866.0254033783" r="2" />
	<circle cx="438.2051256119" cy="-0.0050511719" r="2" />
	<circle cx="500.0002730821" cy="-865.3079575950" r="2" />
	<circle cx="500.0000000000" cy="-866.0254038000" r="2" />
	<circle cx="0.0000000000" cy="-0.0000000000" r="2" />
	<circle cx="999.9999997476" cy="-0.0000001457" r="2" />
	<circle cx="499.9999999919" cy="-866.0253718003" r="2" />
	<circle cx="500.0000000000" cy="-866.0254038000" r="2" />
	<circle cx="500.0000000000" cy="-866.0254038000" r="2" />
	<circle cx="0.0000000000" cy="-0.0000000000" r="2" />
	<circle cx="504.7143090578" cy="-800.6677455472" r="2" />
	<circle cx="999.9999530385" cy="-0.0000270870" r="2" />
	<circle cx="499.9999998932" cy="-866.0253887280" r="2" />
	<circle cx="0.0000000000" cy="-0.0000000000" r="2" />
	<circle cx="577.2449392510" cy="-303.6582674741" r="2" />
	<circle cx="1000.0000000000" cy="-0.0000000000" r="2" />
	<circle cx="999.9978557358" cy="-0.0012429187" r="2" />
	<circle cx="0.0082785064" cy="-0.0047820998" r="2" />
	<circle cx="1000.0000000000" cy="-0.0000000000" r="2" />
	<circle cx="499.9997859425" cy="-862.1324647584" r="2" />
	<circle cx="0.0001657704" cy="-0.0001159045" r="2" />
	<circle cx="999.9999975020" cy="-0.0000014430" r="2" />
	<circle cx="499.9999906269" cy="-865.9782628355" r="2" />
	<circle cx="0.4180657310" cy="-0.2414707350" r="2" />
	<circle cx="999.5301059143" cy="-0.2713600836" r="2" />
	<circle cx="999.9997372396" cy="-0.0001715952" r="2" />
	<circle cx="1000.0000000000" cy="-0.0000000000" r="2" />
	<circle cx="499.9999999996" cy="-866.0254016102" r="2" />
	<circle cx="1000.0000000000" cy="-0.0000000000" r="2" />
	<circle cx="0.0000000000" cy="-0.0000000000" r="2" />
	<circle cx="999.9999890170" cy="-0.0000063973" r="2" />
	<circle cx="0.0000012868" cy="-0.0000006881" r="2" />
	<circle cx="924.5319888026" cy="-46.9928411966" r="2" />
	<circle cx="0.0068605637" cy="-0.0039581251" r="2" />
	<circle cx="500.0000000000" cy="-866.0254038000" r="2" />
	<circle cx="499.9999850285" cy="-866.0253465338" r="2" />
	<circle cx="506.6204982968" cy="-280.7711596765" r="2" />
	<circle cx="0.0000000000" cy="-0.0000000000" r="2" />
	<circle cx="1000.0000000000" cy="-0.0000000000" r="2" />
	<circle cx="10.5256908712" cy="-8.3869203474" r="2" />
	<circle cx="500.0000000000" cy="-866.0254038000" r="2" />
	<circle cx="0.0000000000" cy="-0.0000000000" r="2" />
	<circle cx="0.0000000000" cy="-0.0000000000" r="2" />
	<circle cx="0.0000000000" cy="-0.0000000000" r="2" />
	<circle cx="1000.0000000000" cy="-0.0000000000" r="2" />
	<circle cx="499.9999995936" cy="-866.0254021876" r="2" />
	<circle cx="499.9998251439" cy="-866.0238403086" r="2" />
	<circle cx="0.0000000000" cy="-0.0000000000" r="2" />
	<circle cx="999.9997649366" cy="-0.0002402698" r="2" />
	<circle cx="240.1882023516" cy="-19.5953402135" r="2" />
	<circle cx="1000.0000000000" cy="-0.0000000000" r="2" />
	<circle cx="0.0000000000" cy="-0.0000000000" r="2" />
	<circle cx="1000.0000000000" cy="-0.0000000000" r="2" />
	<circle cx="500.0000000000" cy="-866.0254038000" r="2" />
	<circle cx="1000.0000000000" cy="-0.0000000000" r="2" />
	<circle cx="500.0000000000" cy="-866.0254038000" r="2" />
	<circle cx="999.9999999806" cy="-0.0000000112" r="2" />
	<circle cx="999.9962803921" cy="-0.0021461547" r="2" />
	<circle cx="500.0000000000" cy="-866.0254038000" r="2" />
	<circle cx="500.0004903367" cy="-866.0184130605" r="2" />
	<circle cx="500.0000000000" cy="-866.0254038000" r="2" />
	<circle cx="0.0000000000" cy="-0.0000000000" r="2" />
	<circle cx="999.9998598462" cy="-0.0001167832" r="2" />
	<circle cx="999.9999998211" cy="-0.0000001034" r="2" />
	<circle cx="500.0000000000" cy="-866.0254038000" r="2" />
	<circle cx="999.9999501999" cy="-0.0000287820" r="2" />
	<circle cx="999.9999999806" cy="-0.0000000112" r="2" />
	<circle cx="0.0000000000" cy="-0.0000000000" r="2" />
	<circle cx="0.0000000000" cy="-0.0000000000" r="2" />
	<circle cx="298.6014764017" cy="-143.3503199679" r="2" />
	<circle cx="500.0432999106" cy="-865.2553138571" r="2" />
	<circle cx="500.0000000000" cy="-866.0254038000" r="2" />
	<circle cx="3.6447781344" cy="-2.1051495154" r="2" />
	<circle cx="1000.0000000000" cy="-0.0000000000" r="2" />
	<circle cx="1000.0000000000" cy="-0.0000000000" r="2" />
	<circle cx="500.0000000000" cy="-866.0254038000" r="2" />
	<circle cx="0.0000520083" cy="-0.0000300632" r="2" />
	<circle cx="1000.0000000000" cy="-0.0000000000" r="2" />
	<circle cx="500.0000000000" cy="-866.0254037986" r="2" />
	<circle cx="1000.0000000000" cy="-0.0000000000" r="2" />
	<circle cx="1000.0000000000" cy="-0.0000000000" r="2" />
	<circle cx="500.0000000006" cy="-866.0254035227" r="2" />
	<circle cx="500.0000000000" cy="-866.0254038000" r="2" />
	<circle cx="0.0000000000" cy="-0.0000000000" r="2" />
	<circle cx="1000.0000000000" cy="-0.0000000000" r="2" />
	<circle cx="1000.0000000000" cy="-0.0000000000" r="2" />
	<circle cx="999.9999634147" cy="-0.0000210996" r="2" />
	<circle cx="500.0000000000" cy="-866.0254038000" r="2" />
	<circle cx="999.9999398326" cy="-0.0000371409" r="2" />
	<circle cx="999.9999992662" cy="-0.0000004011" r="2" />
	<circle cx="1000.0000000000" cy="-0.0000000000" r="2" />
	<circle cx="500.0000000000" cy="-866.0254038000" r="2" />
	<circle cx="500.0000000000" cy="-866.0254037999" r="2" />
	<circle cx="514.7352886053" cy="-798.1319952507" r="2" />
	<circle cx="500.0000000000" cy="-866.0254038000" r="2" />
	<circle cx="0.0000000000" cy="-0.0000000000" r="2" />
	<circle cx="0.0000000000" cy="-0.0000000000" r="2" />
	<circle cx="676.5586781600" cy="-184.9797786345" r="2" />
	<circle cx="999.9999796381" cy="-0.0000151471" r="2" />
	<circle cx="0.0000000000" cy="-0.0000000000" r="2" />
	<circle cx="999.9999999017" cy="-0.0000000426" r="2" />
	<circle cx="0.0000000000" cy="-0.0000000000" r="2" />
	<circle cx="500.0000014925" cy="-866.0251318530" r="2" />
	<circle cx="0.0000000000" cy="-0.0000000000" r="2" />
	<circle cx="500.0000000000" cy="-866.0254038000" r="2" />
	<circle cx="500.0000000000" cy="-866.0254038000" r="2" />
	<circle cx="999.9999818207" cy="-0.0000082081" r="2" />
	<circle cx="999.6349531242" cy="-0.2953010079" r="2" />
	<circle cx="500.0000000000" cy="-866.0254037999" r="2" />
	<circle cx="999.9999612844" cy="-0.0000209527" r="2" />
	<circle cx="500.0000000000" cy="-866.0254038000" r="2" />
	<circle cx="500.0000000000" cy="-866.0254038000" r="2" />
	<circle cx="500.0000077846" cy="-866.0253247436" r="2" />
	<circle cx="741.2518769407" cy="-159.0252412459" r="2" />
	<circle cx="0.0000000000" cy="-0.0000000000" r="2" />
	<circle cx="0.0000000000" cy="-0.0000000000" r="2" />
	<circle cx="0.4802273337" cy="-0.2556383891" r="2" />
	<circle cx="37.5268571952" cy="-21.6793323393" r="2" />
	<circle cx="0.0000812503" cy="-0.0000466169" r="2" />
	<circle cx="999.8151213666" cy="-0.0962076696" r="2" />
	<circle cx="1000.0000000000" cy="-0.0000000000" r="2" />
	<circle cx="0.0000000000" cy="-0.0000000000" r="2" />
	<circle cx="500.0000000000" cy="-866.0254038000" r="2" />
	<circle cx="547.4607340087" cy="-261.0749893746" r="2" />
	<circle cx="1.1125095324" cy="-0.0619971012" r="2" />
	<circle cx="500.0248502746" cy="-730.7234552682" r="2" />
	<circle cx="1000.0000000000" cy="-0.0000000000" r="2" />
	<circle cx="994.3073574450" cy="-4.2459389064" r="2" />
	<circle cx="999.9999945553" cy="-0.0000059507" r="2" />
	<circle cx="500.0000000000" cy="-866.0254037629" r="2" />
	<circle cx="499.9998857539" cy="-865.9629491536" r="2" />
	<circle cx="500.0000000000" cy="-866.0254038000" r="2" />
	<circle cx="0.0000000000" cy="-0.0000000000" r="2" />
	<circle cx="916.8716174613" cy="-11.0251149272" r="2" />
	<circle cx="1000.0000000000" cy="-0.0000000000" r="2" />
	<circle cx="500.0000000000" cy="-866.0254038000" r="2" />
	<circle cx="500.0000000000" cy="-866.0254038000" r="2" />
	<circle cx="390.7262292281" cy="-136.9907345318" r="2" />
	<circle cx="0.0009471452" cy="-0.0006042583" r="2" />
	<circle cx="500.0000000000" cy="-866.0254038000" r="2" />
	<circle cx="500.0000000000" cy="-866.0254038000" r="2" />
	<circle cx="794.6148228628" cy="-355.7272523915" r="2" />
	<circle cx="500.0000000000" cy="-866.0254038000" r="2" />
	<circle cx="1000.0000000000" cy="-0.0000000000" r="2" />
	<circle cx="500.0001748561" cy="-866.0238403085" r="2" />
	<circle cx="0.0000000000" cy="-0.0000000000" r="2" />
	<circle cx="1000.0000000000" cy="-0.0000000000" r="2" />
	<circle cx="999.9999999992" cy="-0.0000000005" r="2" />
	<circle cx="999.9949886105" cy="-0.0029227603" r="2" />
	<circle cx="1000.0000000000" cy="-0.0000000000" r="2" />
	<circle cx="5.9908037069" cy="-0.0000174198" r="2" />
	<circle cx="500.0000000000" cy="-866.0254038000" r="2" />
	<circle cx="500.0000000000" cy="-866.0254038000" r="2" />
	<circle cx="1000.0000000000" cy="-0.0000000000" r="2" />
	<circle cx="517.1628297597" cy="-758.9715179675" r="2" />
	<circle cx="263.4145873951" cy="-122.1412352195" r="2" />
	<circle cx="999.9999999999" cy="-0.0000000000" r="2" />
	<circle cx="1.6178595016" cy="-1.7810601865" r="2" />
	<circle cx="500.0000000000" cy="-866.0254038000" r="2" />
	<circle cx="0.0000000000" cy="-0.0000000000" r="2" />
	<circle cx="499.9999999895" cy="-866.0253571387" r="2" />
	<circle cx="0.0000000000" cy="-0.0000000000" r="2" />
	<circle cx="500.0000000000" cy="-866.0254038000" r="2" />
	<circle cx="0.0000000000" cy="-0.0000000000" r="2" />
	<circle cx="999.9973736182" cy="-0.0015396645" r="2" />
	<circle cx="989.2669633789" cy="-5.4915515349" r="2" />
	<circle cx="500.0000000078" cy="-866.0252433796" r="2" />
	<circle cx="999.9997013263" cy="-0.0001694147" r="2" />
	<circle cx="500.0000000000" cy="-866.0254037938" r="2" />
	<circle cx="0.0005385259" cy="-0.0008208233" r="2" />
	<circle cx="499.9999993282" cy="-866.0253659457" r="2" />
	<circle cx="1000.0000000000" cy="-0.0000000000" r="2" />
	<circle cx="494.7236599434" cy="-833.2393772492" r="2" />
	<circle cx="0.0000000000" cy="-0.0000000000" r="2" />
	<circle cx="500.0000000000" cy="-866.0254037995" r="2" />
	<circle cx="0.0000001973" cy="-0.0000001883" r="2" />
	<circle cx="500.0000002189" cy="-866.0253987586" r="2" />
	<circle cx="500.6560380713" cy="-668.9107086528" r="2" />
	<circle cx="136.7111617580" cy="-236.7647745419" r="2" />
	<circle cx="797.3611590917" cy="-78.4495604572" r="2" />
	<circle cx="1000.0000000000" cy="-0.0000000000" r="2" />
	<circle cx="500.0000000000" cy="-866.0254037999" r="2" />
	<circle cx="1000.0000000000" cy="-0.0000000000" r="2" />
	<circle cx="0.0000000000" cy="-0.0000000000" r="2" />
	<circle cx="500.0000000000" cy="-866.0254038000" r="2" />
	<circle cx="500.0012536343" cy="-865.9783974102" r="2" />
	<circle cx="904.9625579170" cy="-54.8466100146" r="2" />
	<circle cx="1000.0000000000" cy="-0.0000000000" r="2" />
	<circle cx="999.6518772611" cy="-0.2007934846" r="2" />
	<circle cx="781.4016685603" cy="-66.5288212558" r="2" />
	<circle cx="999.9856748294" cy="-0.0096055254" r="2" />
	<circle cx="518.6198805855" cy="-817.7629109341" r="2" />
	<circle cx="996.4385396535" cy="-1.4044143827" r="2" />
	<circle cx="999.9999918545" cy="-0.0000047048" r="2" />
	<circle cx="500.0000000000" cy="-866.0254038000" r="2" />
	<circle cx="999.5726035748" cy="-0.3071801152" r="2" />
	<circle cx="500.0000000000" cy="-866.0254038000" r="2" />
	<circle cx="762.4296291991" cy="-92.0858933744" r="2" />
	<circle cx="500.0000000000" cy="-866.0254038000" r="2" />
	<circle cx="15.5446449455" cy="-6.5252012183" r="2" />
	<circle cx="0.0000033108" cy="-0.0000019108" r="2" />
	<circle cx="500.0000000000" cy="-866.0254038000" r="2" />
	<circle cx="0.0000000000" cy="-0.0000000000" r="2" />
	<circle cx="500.0000000000" cy="-866.0254038000" r="2" />
	<circle cx="0.0000000000" cy="-0.0000000000" r="2" />
	<circle cx="0.0000000000" cy="-0.0000000000" r="2" />
	<circle cx="1000.0000000000" cy="-0.0000000000" r="2" />
	<circle cx="496.7271894592" cy="-835.9899143779" r="2" />
	<circle cx="518.7481590455" cy="-759.3354968693" r="2" />
	<circle cx="175.0265883124" cy="-303.1548999394" r="2" />
	<circle cx="500.0000000000" cy="-866.0254038000" r="2" />
	<circle cx="500.0000000000" cy="-866.0254038000" r="2" />
	<circle cx="1000.0000000000" cy="-0.0000000000" r="2" />
	<circle cx="1000.0000000000" cy="-0.0000000000" r="2" />
	<circle cx="499.9989641158" cy="-863.6002450465" r="2" />
	<circle cx="999.9986941794" cy="-0.0007538380" r="2" />
	<circle cx="499.9993352760" cy="-865.9701294319" r="2" />
	<circle cx="0.0000385396" cy="-0.0000231725" r="2" />
	<circle cx="1000.0000000000" cy="-0.0000000000" r="2" />
	<circle cx="0.0000000000" cy="-0.0000000000" r="2" />
	<circle cx="1000.0000000000" cy="-0.0000000000" r="2" />
	<circle cx="471.4157877037" cy="-395.6641367844" r="2" />
	<circle cx="500.0000000000" cy="-866.0254038000" r="2" />
	<circle cx="500.0000000000" cy="-866.0254038000" r="2" />
	<circle cx="999.9949720053" cy="-0.0021361542" r="2" />
	<circle cx="0.0000000000" cy="-0.0000000000" r="2" />
	<circle cx="999.9999999858" cy="-0.0000000122" r="2" />
	<circle cx="0.0000000000" cy="-0.0000000000" r="2" />
	<circle cx="499.9917178648" cy="-865.1401480522" r="2" />
	<circle cx="99.4317609225" cy="-172.2207611044" r="2" />
	<circle cx="500.0000000000" cy="-866.0254038000" r="2" />
	<circle cx="999.9999977779" cy="-0.0000013350" r="2" />
	<circle cx="0.0001311275" cy="-0.0000756763" r="2" />
	<circle cx="500.0000000000" cy="-866.0254038000" r="2" />
	<circle cx="1000.0000000000" cy="-0.0000000000" r="2" />
	<circle cx="0.0000000000" cy="-0.0000000000" r="2" />
	<circle cx="1000.0000000000" cy="-0.0000000000" r="2" />
	<circle cx="1000.0000000000" cy="-0.0000000000" r="2" />
	<circle cx="1000.0000000000" cy="-0.0000000000" r="2" />
	<circle cx="0.0917035483" cy="-0.0532281248" r="2" />
	<circle cx="1000.0000000000" cy="-0.0000000000" r="2" />
	<circle cx="0.0004376129" cy="-0.0002525672" r="2" />
	<circle cx="500.0000000000" cy="-866.0254037999" r="2" />
	<circle cx="1000.0000000000" cy="-0.0000000000" r="2" />
	<circle cx="0.0000000000" cy="-0.0000000000" r="2" />
	<circle cx="996.4066416768" cy="-1.5779938866" r="2" />
	<circle cx="484.5319987432" cy="-279.8565825242" r="2" />
	<circle cx="499.3854439893" cy="-380.2264957482" r="2" />
	<circle cx="999.5935303346" cy="-0.2344873083" r="2" />
	<circle cx="69.5048800057" cy="-40.5693400879" r="2" />
	<circle cx="0.0000000000" cy="-0.0000000000" r="2" />
	<circle cx="1000.0000000000" cy="-0.0000000000" r="2" />
	<circle cx="994.6407135680" cy="-2.6656457901" r="2" />
	<circle cx="1000.0000000000" cy="-0.0000000000" r="2" />
	<circle cx="498.9405786306" cy="-259.2068298062" r="2" />
	<circle cx="1000.0000000000" cy="-0.0000000000" r="2" />
	<circle cx="0.0000000000" cy="-0.0000000000" r="2" />
	<circle cx="999.9999741422" cy="-0.0000149431" r="2" />
	<circle cx="500.0000000000" cy="-866.0254038000" r="2" />
	<circle cx="500.0000000000" cy="-866.0254038000" r="2" />
	<circle cx="500.0000000069" cy="-866.0252412239" r="2" />
	<circle cx="1000.0000000000" cy="-0.0000000000" r="2" />
	<circle cx="999.9991474840" cy="-0.0005909465" r="2" />
	<circle cx="500.0000000000" cy="-866.0254038000" r="2" />
	<circle cx="499.9992621790" cy="-866.0102322346" r="2" />
	<circle cx="500.0000000000" cy="-866.0254038000" r="2" />
	<circle cx="999.9998726277" cy="-0.0000734685" r="2" />
	<circle cx="1000.0000000000" cy="-0.0000000000" r="2" />
	<circle cx="500.0000000000" cy="-866.0254038000" r="2" />
	<circle cx="500.0000000000" cy="-866.0254038000" r="2" />
	<circle cx="499.6412122911" cy="-703.7730600438" r="2" />
	<circle cx="0.0000078130" cy="-0.0000044297" r="2" />
	<circle cx="415.7171035587" cy="-174.0294110331" r="2" />
	<circle cx="500.0000000000" cy="-866.0254038000" r="2" />
	<circle cx="500.0000016964" cy="-866.0183605940" r="2" />
	<circle cx="1000.0000000000" cy="-0.0000000000" r="2" />
	<circle cx="0.0000079512" cy="-0.0000045917" r="2" />
	<circle cx="0.0000000000" cy="-0.0000000000" r="2" />
	<circle cx="500.0000000000" cy="-866.0254038000" r="2" />
	<circle cx="595.6545207783" cy="-555.9865992879" r="2" />
	<circle cx="1000.0000000000" cy="-0.0000000000" r="2" />
	<circle cx="0.0000000000" cy="-0.0000000000" r="2" />
	<circle cx="499.9997628130" cy="-864.8251996857" r="2" />
	<circle cx="999.9999189868" cy="-0.0000470726" r="2" />
	<circle cx="500.0000000000" cy="-866.0254038000" r="2" />
	<circle cx="0.0000011934" cy="-0.0000011581" r="2" />
	<circle cx="500.0000000000" cy="-866.0254038000" r="2" />
	<circle cx="0.0000000000" cy="-0.0000000000" r="2" />
	<circle cx="999.4196379920" cy="-0.3150396502" r="2" />
	<circle cx="157.1543242269" cy="-272.1991976548" r="2" />
	<circle cx="919.7891258074" cy="-46.3193519942" r="2" />
	<circle cx="500.0000000000" cy="-866.0254038000" r="2" />
	<circle cx="1000.0000000000" cy="-0.0000000000" r="2" />
	<circle cx="499.6869526201" cy="-822.8546581623" r="2" />
	<circle cx="500.0000000000" cy="-866.0254038000" r="2" />
	<circle cx="0.0000000000" cy="-0.0000000000" r="2" />
	<circle cx="1000.0000000000" cy="-0.0000000000" r="2" />
	<circle cx="0.0000000000" cy="-0.0000000000" r="2" />
	<circle cx="999.9999999995" cy="-0.0000000003" r="2" />
	<circle cx="362.8575659171" cy="-555.1072300162" r="2" />
	<circle cx="500.0000000000" cy="-866.0254038000" r="2" />
	<circle cx="500.0000000000" cy="-866.0254038000" r="2" />
	<circle cx="500.0000000000" cy="-866.0254038000" r="2" />
	<circle cx="500.0000000000" cy="-866.0254038000" r="2" />
	<circle cx="0.0015207338" cy="-0.0008784784" r="2" />
	<circle cx="0.0000000000" cy="-0.0000000000" r="2" />
	<circle cx="500.0000000013" cy="-866.0254037667" r="2" />
	<circle cx="999.9999999496" cy="-0.0000000291" r="2" />
	<circle cx="499.7536748434" cy="-339.1804996951" r="2" />
	<circle cx="500.0000000000" cy="-866.0254038000" r="2" />
	<circle cx="500.0000000000" cy="-866.0254038000" r="2" />
	<circle cx="500.0000000000" cy="-866.0254038000" r="2" />
	<circle cx="1000.0000000000" cy="-0.0000000000" r="2" />
	<circle cx="652.2680518427" cy="-163.1524166811" r="2" />
	<circle cx="999.8612872107" cy="-0.0801561715" r="2" />
	<circle cx="0.0000000000" cy="-0.0000000000" r="2" />
	<circle cx="0.3034233192" cy="-0.4369481746" r="2" />
	<circle cx="0.0000007178" cy="-0.0000004142" r="2" />
	<circle cx="0.0000006762" cy="-0.0000003901" r="2" />
	<circle cx="500.0000000000" cy="-866.0254037233" r="2" />
	<circle cx="0.0000000000" cy="-0.0000000000" r="2" />
	<circle cx="0.0000000000" cy="-0.0000000000" r="2" />
	<circle cx="1000.0000000000" cy="-0.0000000000" r="2" />
	<circle cx="0.0000201932" cy="-0.0000130280" r="2" />
	<circle cx="399.7343139955" cy="-448.1384818767" r="2" />
	<circle cx="500.0000000000" cy="-866.0254038000" r="2" />
	<circle cx="500.0000000000" cy="-866.0254038000" r="2" />
	<circle cx="81.0659202210" cy="-42.9182952100" r="2" />
	<circle cx="0.0000000003" cy="-0.0000000000" r="2" />
	<circle cx="999.9999999984" cy="-0.0000000006" r="2" />
	<circle cx="0.0000000000" cy="-0.0000000000" r="2" />
	<circle cx="0.0000000000" cy="-0.0000000000" r="2" />
	<circle cx="0.0000000000" cy="-0.0000000000" r="2" />
	<circle cx="500.0000000000" cy="-866.0254038000" r="2" />
	<circle cx="567.4112430605" cy="-258.4979990772" r="2" />
	<circle cx="1000.0000000000" cy="-0.0000000000" r="2" />
	<circle cx="500.0000000000" cy="-866.0254038000" r="2" />
	<circle cx="1000.0000000000" cy="-0.0000000000" r="2" />
	<circle cx="759.3470636989" cy="-144.7771094160" r="2" />
	<circle cx="456.1286229146" cy="-263.6798654885" r="2" />
	<circle cx="937.5634481145" cy="-44.3437246090" r="2" />
	<circle cx="0.0000007226" cy="-0.0000004667" r="2" />
	<circle cx="499.9999995324" cy="-866.0253838767" r="2" />
	<circle cx="500.0000000000" cy="-866.0254038000" r="2" />
	<circle cx="527.3494547083" cy="-288.7853493367" r="2" />
	<circle cx="999.9997947858" cy="-0.0001185054" r="2" />
	<circle cx="999.9823302232" cy="-0.0121804725" r="2" />
	<circle cx="999.9999390960" cy="-0.0000351455" r="2" />
	<circle cx="500.0000000000" cy="-866.0254038000" r="2" />
	<circle cx="380.4074105687" cy="-370.4265114289" r="2" />
	<circle cx="0.0000000000" cy="-0.0000000000" r="2" />
	<circle cx="999.9999998879" cy="-0.0000000656" r="2" />
	<circle cx="3.3914211761" cy="-1.9637388838" r="2" />
	<circle cx="142.1361389486" cy="-90.2969052025" r="2" />
	<circle cx="999.9969631062" cy="-0.0017551671" r="2" />
	<circle cx="935.0803952125" cy="-44.4102240596" r="2" />
	<circle cx="0.0000000000" cy="-0.0000000000" r="2" />
	<circle cx="1000.0000000000" cy="-0.0000000000" r="2" />
	<circle cx="348.9562806303" cy="-137.6648653521" r="2" />
	<circle cx="499.9999961603" cy="-866.0251860477" r="2" />
	<circle cx="999.9815716125" cy="-0.0108953391" r="2" />
	<circle cx="0.0000000000" cy="-0.0000000000" r="2" />
	<circle cx="500.0000000000" cy="-866.0254038000" r="2" />
	<circle cx="0.0000000000" cy="-0.0000000000" r="2" />
	<circle cx="1000.0000000000" cy="-0.0000000000" r="2" />
	<circle cx="500.0161568359" cy="-812.8940325124" r="2" />
	<circle cx="9.0957638058" cy="-6.0487314702" r="2" />
	<circle cx="985.0724720205" cy="-3.6197386147" r="2" />
	<circle cx="1000.0000000000" cy="-0.0000000000" r="2" />
	<circle cx="501.9982889106" cy="-852.7215509598" r="2" />
	<circle cx="0.5725555094" cy="-0.4905383334" r="2" />
	<circle cx="1000.0000000000" cy="-0.0000000000" r="2" />
	<circle cx="0.0000000000" cy="-0.0000000000" r="2" />
	<circle cx="999.9997947858" cy="-0.0001185054" r="2" />
	<circle cx="999.9999999997" cy="-0.0000000002" r="2" />
	<circle cx="83.1953162542" cy="-45.2368473885" r="2" />
	<circle cx="1000.0000000000" cy="-0.0000000000" r="2" />
	<circle cx="500.0000000000" cy="-866.0254038000" r="2" />
	<circle cx="455.7971364464" cy="-662.1193046151" r="2" />
	<circle cx="503.1922466716" cy="-860.4956899382" r="2" />
	<circle cx="500.0000000000" cy="-866.0254038000" r="2" />
	<circle cx="1000.0000000000" cy="-0.0000000000" r="2" />
	<circle cx="1000.0000000000" cy="-0.0000000000" r="2" />
	<circle cx="0.0000000000" cy="-0.0000000000" r="2" />
	<circle cx="1000.0000000000" cy="-0.0000000000" r="2" />
	<circle cx="404.1128326439" cy="-699.9435814428" r="2" />
	<circle cx="0.0002066363" cy="-0.0000846194" r="2" />
	<circle cx="1000.0000000000" cy="-0.0000000000" r="2" />
	<circle cx="0.0148786507" cy="-0.0086002668" r="2" />
	<circle cx="500.0000000000" cy="-866.0254038000" r="2" />
	<circle cx="0.0000000000" cy="-0.0000000000" r="2" />
	<circle cx="1000.0000000000" cy="-0.0000000000" r="2" />
	<circle cx="500.0002981305" cy="-866.0139408480" r="2" />
	<circle cx="0.0000000000" cy="-0.0000000000" r="2" />
	<circle cx="999.9999982935" cy="-0.0000013811" r="2" />
  </g>
  <g id="fig2" transform="translate(-550.0,1000)">
	<polygon points="0.0,-0.0 1000.0,-0.0 500.0,-866.0254038" />
	<line
	   id="line2-1"
	   y2="-0.0"
	   x2="500"
	   y1="-288.6751346"
	   x1="500" />
	<line
	   id="line2-2"
	   y2="-433.0127019"
	   x2="250"
	   y1="-288.6751346"
	   x1="500" />
	<line
	   id="line2-3"
	   y2="-433.0127019"
	   x2="750"
	   y1="-288.6751346"
	   x1="500" />
	<text
	   x="440"
	   y="-500"
	   id="up_2">33.0%</text>
	<text
	   x="250"
	   y="-150"
	   id="down_left_2">31.2%</text>
	<text
	   x="630"
	   y="-150"
	   id="down_right_2">35.8%</text>
  </g>
  <g id="fig3" transform="translate(550,1000)">
	<polygon points="0.0,-0.0 1000.0,-0.0 500.0,-866.0254038" />
	<polygon id="triangle3b" points="250,-144.3375673 750,-144.3375673 500,-577.3502692" />
	<line
	   id="line3-1"
	   x1="125"
	   y1="-216.5063509"
	   x2="250"
	   y2="-144.3375673" />
	<line
	   id="line3-2"
	   x1="375"
	   y1="-649.5190528"
	   x2="500"
	   y2="-577.3502692" />
	<line
	   id="line3-3"
	   x1="625"
	   y1="-649.5190528"
	   x2="500"
	   y2="-577.3502692" />
	<line
	   id="line3-4"
	   x1="875"
	   y1="-216.5063509"
	   x2="750"
	   y2="-144.3375673" />
	<line
	   id="line3-5"
	   x1="750"
	   y1="-0.0"
	   x2="750"
	   y2="-144.3375673" />
	<line
	   id="line3-6"
	   x1="250"
	   y1="-0.0"
	   x2="250"
	   y2="-144.3375673" />
	<text
	   x="500"
	   y="-660"
	   text-anchor="middle"
	   id="up_3">31.6%</text>
	<text
	   y="-50"
	   x="70"
	   id="down_left_3">28.2%</text>
	<text
	   y="-50"
	   x="770"
	   id="down_right_3">33.8%</text>
	<text
	   x="500"
	   y="-50"
	   text-anchor="middle"
	   id="down_side_3">1.2%</text>
	<text
	   x="500"
	   y="-280"
	   text-anchor="middle"
	   id="center_3">3.4%</text>
	<text
	   x="685.0"
	   y="-390.8439"
	   text-anchor="middle"
	   transform="rotate(60,665.0,-380.8439)"
	   id="right_side_3">0.6%</text>
	<text
	   x="315.0"
	   y="-390.8439"
	   text-anchor="middle"
	   transform="rotate(-60,335.0,-380.8439)"
	   id="left_side_3">1.2%</text>
  </g>
</g></g>
</svg>
