<?xml version="1.0" encoding="UTF-8" standalone="no"?>
<!DOCTYPE svg PUBLIC "-//W3C//DTD SVG 1.1//EN" "http://www.w3.org/Graphics/SVG/1.1/DTD/svg11.dtd">
<svg
   xmlns:svg="http://www.w3.org/2000/svg"
   xmlns="http://www.w3.org/2000/svg"
   xmlns:xlink="http://www.w3.org/1999/xlink"
   version="1.1"
   baseProfile="full"
   id="body"
   width="800px"
   height="800px"
   viewBox="0 0 1000 1000"
   preserveAspectRatio="none">
  <defs>
    <style type="text/css"><![CDATA[
      circle{ stroke: none; }
      polygon{ stroke: black; stroke-width: 2px; fill: none; }
      line{ stroke: black; stroke-width: 2px; }
      text{ font-size:50px; }
    ]]></style>
  </defs>
  <title
     id="title1">SVG drawing</title>
<g transform="scale(0.45)"><g transform="translate(600,1050)">
  <g id="fig1">
	<polygon points="0.0,-0.0 1000.0,-0.0 500,-866.0254038" />
	<circle cx="499.9999159416" cy="-866.0252582043" r="2" />
	<circle cx="500.0000000000" cy="-866.0254038000" r="2" />
	<circle cx="0.0000000000" cy="-0.0000000000" r="2" />
	<circle cx="500.0000000000" cy="-866.0254038000" r="2" />
	<circle cx="676.6234682414" cy="-22.1446993734" r="2" />
	<circle cx="499.9999999770" cy="-866.0254031078" r="2" />
	<circle cx="499.9999999999" cy="-866.0254037999" r="2" />
	<circle cx="1000.0000000000" cy="-0.0000000000" r="2" />
	<circle cx="0.0000003375" cy="-0.0000002670" r="2" />
	<circle cx="307.5014788079" cy="-138.1074000546" r="2" />
	<circle cx="0.0026829301" cy="-0.0015490909" r="2" />
	<circle cx="449.4845522464" cy="-384.0641635476" r="2" />
	<circle cx="999.9999999083" cy="-0.0000001333" r="2" />
	<circle cx="499.9999999436" cy="-866.0254034982" r="2" />
	<circle cx="0.0000000000" cy="-0.0000000000" r="2" />
	<circle cx="500.0000000000" cy="-866.0254038000" r="2" />
	<circle cx="244.2537591727" cy="-130.9334939541" r="2" />
	<circle cx="1000.0000000000" cy="-0.0000000000" r="2" />
	<circle cx="0.0000000000" cy="-0.0000000000" r="2" />
	<circle cx="51.8564468135" cy="-29.8958387361" r="2" />
	<circle cx="999.9999999609" cy="-0.0000000418" r="2" />
	<circle cx="0.0000000000" cy="-0.0000000000" r="2" />
	<circle cx="999.9999999844" cy="-0.0000000090" r="2" />
	<circle cx="500.0000000000" cy="-866.0254038000" r="2" />
	<circle cx="0.0002456485" cy="-0.0000824214" r="2" />
	<circle cx="488.5730659809" cy="-302.9674730968" r="2" />
	<circle cx="1000.0000000000" cy="-0.0000000000" r="2" />
	<circle cx="1000.0000000000" cy="-0.0000000000" r="2" />
	<circle cx="495.0567247968" cy="-499.8732024391" r="2" />
	<circle cx="1000.0000000000" cy="-0.0000000000" r="2" />
	<circle cx="599.1523371318" cy="-210.6383983562" r="2" />
	<circle cx="500.1531489146" cy="-454.9568654662" r="2" />
	<circle cx="619.3087250408" cy="-239.5372306212" r="2" />
	<circle cx="999.9999999329" cy="-0.0000000294" r="2" />
	<circle cx="1000.0000000000" cy="-0.0000000000" r="2" />
	<circle cx="487.9009822766" cy="-439.6926442948" r="2" />
	<circle cx="500.0000000000" cy="-866.0254038000" r="2" />
	<circle cx="590.8887059767" cy="-228.2186148750" r="2" />
	<circle cx="0.0000023031" cy="-0.0000024033" r="2" />
	<circle cx="496.6380781036" cy="-765.6792999240" r="2" />
	<circle cx="0.0000000000" cy="-0.0000000000" r="2" />
	<circle cx="0.0000000000" cy="-0.0000000000" r="2" />
	<circle cx="0.0000000000" cy="-0.0000000000" r="2" />
	<circle cx="0.0000000000" cy="-0.0000000000" r="2" />
	<circle cx="499.9999985360" cy="-866.0246206504" r="2" />
	<circle cx="16.6002375129" cy="-6.3566986777" r="2" />
	<circle cx="370.5002432459" cy="-1.2274671837" r="2" />
	<circle cx="0.0000000000" cy="-0.0000000000" r="2" />
	<circle cx="450.0637801241" cy="-349.9023919662" r="2" />
	<circle cx="500.0000000000" cy="-866.0254037633" r="2" />
	<circle cx="528.7203238364" cy="-524.7352681852" r="2" />
	<circle cx="540.4076054903" cy="-690.9865820413" r="2" />
	<circle cx="12.4141019395" cy="-0.0000000006" r="2" />
	<circle cx="0.0000000000" cy="-0.0000000000" r="2" />
	<circle cx="337.2586231462" cy="-193.8210339047" r="2" />
	<circle cx="0.0000000252" cy="-0.0000000237" r="2" />
	<circle cx="1000.0000000000" cy="-0.0000000000" r="2" />
	<circle cx="0.0000000122" cy="-0.0000000023" r="2" />
	<circle cx="500.0000000001" cy="-866.0254037997" r="2" />
	<circle cx="999.9999999998" cy="-0.0000000001" r="2" />
	<circle cx="0.0000000000" cy="-0.0000000000" r="2" />
	<circle cx="999.9999979977" cy="-0.0000013344" r="2" />
	<circle cx="620.8370273677" cy="-235.7002958112" r="2" />
	<circle cx="0.0000000000" cy="-0.0000000000" r="2" />
	<circle cx="999.9999999410" cy="-0.0000000314" r="2" />
	<circle cx="0.0000003054" cy="-0.0000002124" r="2" />
	<circle cx="479.9230579545" cy="-275.1828182281" r="2" />
	<circle cx="1000.0000000000" cy="-0.0000000000" r="2" />
	<circle cx="0.0000000000" cy="-0.0000000000" r="2" />
	<circle cx="1000.0000000000" cy="-0.0000000000" r="2" />
	<circle cx="833.3050172479" cy="-153.3725222902" r="2" />
	<circle cx="500.0000000000" cy="-866.0254038000" r="2" />
	<circle cx="999.9999232205" cy="-0.0000443602" r="2" />
	<circle cx="474.5460835867" cy="-549.0931346299" r="2" />
	<circle cx="629.2738966478" cy="-273.7330053269" r="2" />
	<circle cx="999.9999999961" cy="-0.0000000028" r="2" />
	<circle cx="0.0004310568" cy="-0.0002489072" r="2" />
	<circle cx="0.0000000000" cy="-0.0000000000" r="2" />
	<circle cx="0.0000000000" cy="-0.0000000000" r="2" />
	<circle cx="793.5382852166" cy="-68.1698961999" r="2" />
	<circle cx="454.4135403368" cy="-649.5678047818" r="2" />
	<circle cx="500.0000000000" cy="-866.0254037999" r="2" />
	<circle cx="506.1989862931" cy="-855.2864278345" r="2" />
	<circle cx="1000.0000000000" cy="-0.0000000000" r="2" />
	<circle cx="503.4161472492" cy="-314.7601034211" r="2" />
	<circle cx="999.9999999947" cy="-0.0000000030" r="2" />
	<circle cx="0.0000000000" cy="-0.0000000000" r="2" />
	<circle cx="0.0000000053" cy="-0.0000000028" r="2" />
	<circle cx="0.0000000505" cy="-0.0000000240" r="2" />
	<circle cx="999.6527764208" cy="-0.4517959203" r="2" />
	<circle cx="694.3784624030" cy="-375.0062431541" r="2" />
	<circle cx="999.9999999844" cy="-0.0000000090" r="2" />
	<circle cx="1000.0000000000" cy="-0.0000000000" r="2" />
	<circle cx="524.8478648746" cy="-400.2847440179" r="2" />
	<circle cx="500.0000000000" cy="-866.0254038000" r="2" />
	<circle cx="153.5275180357" cy="-82.3917219245" r="2" />
	<circle cx="0.0000000000" cy="-0.0000000000" r="2" />
	<circle cx="1000.0000000000" cy="-0.0000000000" r="2" />
	<circle cx="0.0000000003" cy="-0.0000000002" r="2" />
	<circle cx="542.9132081747" cy="-268.0673540229" r="2" />
	<circle cx="265.2908601661" cy="-171.3867685491" r="2" />
	<circle cx="634.5940227323" cy="-70.8391017519" r="2" />
	<circle cx="500.0000000000" cy="-866.0254038000" r="2" />
	<circle cx="999.7164577766" cy="-0.0000000002" r="2" />
	<circle cx="524.6591926098" cy="-823.3144293243" r="2" />
	<circle cx="0.0000000000" cy="-0.0000000000" r="2" />
	<circle cx="499.9999999999" cy="-866.0254037964" r="2" />
	<circle cx="1000.0000000000" cy="-0.0000000000" r="2" />
	<circle cx="0.0000000000" cy="-0.0000000000" r="2" />
	<circle cx="999.9999983230" cy="-0.0000005691" r="2" />
	<circle cx="1000.0000000000" cy="-0.0000000000" r="2" />
	<circle cx="499.9999999999" cy="-866.0254037964" r="2" />
	<circle cx="306.5794708943" cy="-387.1805305800" r="2" />
	<circle cx="244.6030676558" cy="-132.5427257003" r="2" />
	<circle cx="500.0000000000" cy="-866.0254038000" r="2" />
	<circle cx="500.0000000000" cy="-866.0254038000" r="2" />
	<circle cx="1000.0000000000" cy="-0.0000000000" r="2" />
	<circle cx="0.0000000000" cy="-0.0000000000" r="2" />
	<circle cx="1000.0000000000" cy="-0.0000000000" r="2" />
	<circle cx="1000.0000000000" cy="-0.0000000000" r="2" />
	<circle cx="0.0000000000" cy="-0.0000000000" r="2" />
	<circle cx="57.2631046332" cy="-0.0022229675" r="2" />
	<circle cx="123.2062296328" cy="-98.2630427513" r="2" />
	<circle cx="186.3938614410" cy="-129.5677828255" r="2" />
	<circle cx="502.6188237378" cy="-848.3972956465" r="2" />
	<circle cx="1000.0000000000" cy="-0.0000000000" r="2" />
	<circle cx="999.9999999955" cy="-0.0000000021" r="2" />
	<circle cx="500.0000000000" cy="-866.0254037991" r="2" />
	<circle cx="157.9875027715" cy="-65.8150219859" r="2" />
	<circle cx="586.2116885868" cy="-213.0167979224" r="2" />
	<circle cx="1000.0000000000" cy="-0.0000000000" r="2" />
	<circle cx="500.0000000001" cy="-866.0254037994" r="2" />
	<circle cx="0.0000000127" cy="-0.0000000120" r="2" />
	<circle cx="0.0000000000" cy="-0.0000000000" r="2" />
	<circle cx="0.0000000000" cy="-0.0000000000" r="2" />
	<circle cx="1000.0000000000" cy="-0.0000000000" r="2" />
	<circle cx="999.9999997041" cy="-0.0000001181" r="2" />
	<circle cx="11.8262676995" cy="-20.1675178419" r="2" />
	<circle cx="500.0000000012" cy="-866.0254037464" r="2" />
	<circle cx="1000.0000000000" cy="-0.0000000000" r="2" />
	<circle cx="234.6025614391" cy="-142.8264762747" r="2" />
	<circle cx="0.0000000000" cy="-0.0000000000" r="2" />
	<circle cx="999.9999999922" cy="-0.0000000025" r="2" />
	<circle cx="999.9993624869" cy="-0.0000464208" r="2" />
	<circle cx="499.9999899405" cy="-866.0253737790" r="2" />
	<circle cx="0.0000767726" cy="-0.0001329480" r="2" />
	<circle cx="500.0000000000" cy="-866.0254038000" r="2" />
	<circle cx="121.8912329102" cy="-76.4283132465" r="2" />
	<circle cx="499.9999999980" cy="-866.0254037908" r="2" />
	<circle cx="500.0000000000" cy="-866.0254037963" r="2" />
	<circle cx="999.9999983936" cy="-0.0000007621" r="2" />
	<circle cx="1000.0000000000" cy="-0.0000000000" r="2" />
	<circle cx="0.0000010811" cy="-0.0000001379" r="2" />
	<circle cx="514.4079361729" cy="-302.9687892099" r="2" />
	<circle cx="500.0000000004" cy="-866.0254037993" r="2" />
	<circle cx="981.1675206791" cy="-18.2588276614" r="2" />
	<circle cx="500.0000000000" cy="-866.0254037999" r="2" />
	<circle cx="502.5886240042" cy="-849.8264302703" r="2" />
	<circle cx="865.3987185964" cy="-125.3568766626" r="2" />
	<circle cx="0.0000000000" cy="-0.0000000000" r="2" />
	<circle cx="0.0000000000" cy="-0.0000000000" r="2" />
	<circle cx="500.0000000000" cy="-866.0254038000" r="2" />
	<circle cx="500.0000000000" cy="-866.0254038000" r="2" />
	<circle cx="1000.0000000000" cy="-0.0000000000" r="2" />
	<circle cx="499.9999999987" cy="-866.0254037242" r="2" />
	<circle cx="0.0000000000" cy="-0.0000000000" r="2" />
	<circle cx="497.4961165594" cy="-861.6885504645" r="2" />
	<circle cx="999.9999866259" cy="-0.0000106018" r="2" />
	<circle cx="0.0000000205" cy="-0.0000000093" r="2" />
	<circle cx="680.3017038416" cy="-412.2037002764" r="2" />
	<circle cx="500.0000000000" cy="-866.0254038000" r="2" />
	<circle cx="500.0000000000" cy="-866.0254038000" r="2" />
	<circle cx="500.0000000000" cy="-866.0254038000" r="2" />
	<circle cx="999.9999216674" cy="-0.0000000053" r="2" />
	<circle cx="500.0000000000" cy="-866.0254037997" r="2" />
	<circle cx="0.0000000000" cy="-0.0000000000" r="2" />
	<circle cx="500.0000000000" cy="-866.0254038000" r="2" />
	<circle cx="0.0000000000" cy="-0.0000000000" r="2" />
	<circle cx="500.0000010478" cy="-866.0254018119" r="2" />
	<circle cx="12.5436705780" cy="-21.7262744981" r="2" />
	<circle cx="500.0000000000" cy="-866.0254038000" r="2" />
	<circle cx="1000.0000000000" cy="-0.0000000000" r="2" />
	<circle cx="500.0000000000" cy="-866.0254038000" r="2" />
	<circle cx="500.0000000000" cy="-866.0254038000" r="2" />
	<circle cx="1000.0000000000" cy="-0.0000000000" r="2" />
	<circle cx="499.0525855282" cy="-860.8313678043" r="2" />
	<circle cx="708.4733279748" cy="-116.7696805426" r="2" />
	<circle cx="1000.0000000000" cy="-0.0000000000" r="2" />
	<circle cx="525.1582249995" cy="-548.7453932285" r="2" />
	<circle cx="500.0000000000" cy="-866.0254038000" r="2" />
	<circle cx="495.3589931589" cy="-71.6702967563" r="2" />
	<circle cx="0.0000000000" cy="-0.0000000000" r="2" />
	<circle cx="499.9999999116" cy="-866.0254035016" r="2" />
	<circle cx="0.0000000000" cy="-0.0000000000" r="2" />
	<circle cx="0.0000000014" cy="-0.0000000011" r="2" />
	<circle cx="999.9999999978" cy="-0.0000000017" r="2" />
	<circle cx="500.0000000000" cy="-549.2058335002" r="2" />
	<circle cx="0.0000000000" cy="-0.0000000000" r="2" />
	<circle cx="1000.0000000000" cy="-0.0000000000" r="2" />
	<circle cx="686.9196214578" cy="-400.4218893392" r="2" />
	<circle cx="0.0000000000" cy="-0.0000000000" r="2" />
	<circle cx="0.0000000000" cy="-0.0000000000" r="2" />
	<circle cx="1000.0000000000" cy="-0.0000000000" r="2" />
	<circle cx="1000.0000000000" cy="-0.0000000000" r="2" />
	<circle cx="500.0000000000" cy="-866.0254037963" r="2" />
	<circle cx="876.9263159760" cy="-77.2093753581" r="2" />
	<circle cx="500.0000000000" cy="-866.0254038000" r="2" />
	<circle cx="500.0014756551" cy="-866.0227540782" r="2" />
	<circle cx="999.9999995764" cy="-0.0000002663" r="2" />
	<circle cx="500.0000000000" cy="-866.0254038000" r="2" />
	<circle cx="1000.0000000000" cy="-0.0000000000" r="2" />
	<circle cx="749.3554039254" cy="-432.6405441828" r="2" />
	<circle cx="59.7479809031" cy="-23.8260310420" r="2" />
	<circle cx="0.0000000195" cy="-0.0000000128" r="2" />
	<circle cx="1000.0000000000" cy="-0.0000000000" r="2" />
	<circle cx="0.0000000000" cy="-0.0000000000" r="2" />
	<circle cx="500.3227365663" cy="-865.4661000236" r="2" />
	<circle cx="999.9999999904" cy="-0.0000000001" r="2" />
	<circle cx="499.9998682220" cy="-866.0232113418" r="2" />
	<circle cx="499.9999999795" cy="-866.0254037408" r="2" />
	<circle cx="500.0000000000" cy="-866.0254038000" r="2" />
	<circle cx="0.0000000000" cy="-0.0000000000" r="2" />
	<circle cx="500.0000000000" cy="-866.0254038000" r="2" />
	<circle cx="0.0000000000" cy="-0.0000000000" r="2" />
	<circle cx="0.0000001975" cy="-0.0000001694" r="2" />
	<circle cx="500.0000000000" cy="-866.0254038000" r="2" />
	<circle cx="5.2127601058" cy="-2.0298367137" r="2" />
	<circle cx="999.9957244794" cy="-0.0000000000" r="2" />
	<circle cx="863.7094147638" cy="-70.6080122863" r="2" />
	<circle cx="999.9834343144" cy="-0.0003201261" r="2" />
	<circle cx="529.3096673982" cy="-288.2956800131" r="2" />
	<circle cx="483.6171386072" cy="-300.5864091044" r="2" />
	<circle cx="1000.0000000000" cy="-0.0000000000" r="2" />
	<circle cx="0.0000000185" cy="-0.0000000149" r="2" />
	<circle cx="521.8715915294" cy="-361.6847052019" r="2" />
	<circle cx="721.6783167269" cy="-166.5825045351" r="2" />
	<circle cx="999.9999990643" cy="-0.0000014236" r="2" />
	<circle cx="513.2121067005" cy="-695.8726516171" r="2" />
	<circle cx="1000.0000000000" cy="-0.0000000000" r="2" />
	<circle cx="788.0804610916" cy="-67.1334283607" r="2" />
	<circle cx="500.0000000000" cy="-866.0254038000" r="2" />
	<circle cx="500.0000000000" cy="-866.0254038000" r="2" />
	<circle cx="499.4622313888" cy="-863.2583879689" r="2" />
	<circle cx="1000.0000000000" cy="-0.0000000000" r="2" />
	<circle cx="640.9835275635" cy="-206.8366607799" r="2" />
	<circle cx="0.0000000006" cy="-0.0000000004" r="2" />
	<circle cx="0.0007983337" cy="-0.0004608759" r="2" />
	<circle cx="499.9999478016" cy="-866.0251638324" r="2" />
	<circle cx="0.0000010274" cy="-0.0000006644" r="2" />
	<circle cx="470.6683641906" cy="-287.8626555118" r="2" />
	<circle cx="500.0000000000" cy="-866.0254038000" r="2" />
	<circle cx="980.6517991068" cy="-8.2838593906" r="2" />
	<circle cx="0.0000000068" cy="-0.0000000083" r="2" />
	<circle cx="500.0000000000" cy="-866.0254038000" r="2" />
	<circle cx="5.6254408271" cy="-6.6776359976" r="2" />
	<circle cx="500.0000000000" cy="-866.0254038000" r="2" />
	<circle cx="999.9999999666" cy="-0.0000000180" r="2" />
	<circle cx="1000.0000000000" cy="-0.0000000000" r="2" />
	<circle cx="999.9999999991" cy="-0.0000000009" r="2" />
	<circle cx="1000.0000000000" cy="-0.0000000000" r="2" />
	<circle cx="4.7695712869" cy="-0.1177388492" r="2" />
	<circle cx="0.0000000000" cy="-0.0000000000" r="2" />
	<circle cx="500.0000420505" cy="-866.0253309439" r="2" />
	<circle cx="0.0000000000" cy="-0.0000000000" r="2" />
	<circle cx="983.3835992363" cy="-7.4121280837" r="2" />
	<circle cx="999.9999999852" cy="-0.0000000083" r="2" />
	<circle cx="1000.0000000000" cy="-0.0000000000" r="2" />
	<circle cx="497.2704830307" cy="-848.2819701809" r="2" />
	<circle cx="0.0000000000" cy="-0.0000000000" r="2" />
	<circle cx="949.9751564644" cy="-28.6266146578" r="2" />
	<circle cx="999.9999948689" cy="-0.0000003192" r="2" />
	<circle cx="841.0597960585" cy="-141.9092943398" r="2" />
	<circle cx="500.0000000000" cy="-866.0254037999" r="2" />
	<circle cx="1000.0000000000" cy="-0.0000000000" r="2" />
	<circle cx="379.2483733725" cy="-220.1498879712" r="2" />
	<circle cx="502.5338240359" cy="-848.3905318418" r="2" />
	<circle cx="500.0000000000" cy="-866.0254038000" r="2" />
	<circle cx="500.0000000000" cy="-866.0254038000" r="2" />
	<circle cx="999.9999993577" cy="-0.0000008403" r="2" />
	<circle cx="0.0000000000" cy="-0.0000000000" r="2" />
	<circle cx="516.8957796396" cy="-366.5528925009" r="2" />
	<circle cx="642.3119001408" cy="-206.0294202758" r="2" />
	<circle cx="553.9384325314" cy="-747.3584770670" r="2" />
	<circle cx="500.0000000000" cy="-866.0254038000" r="2" />
	<circle cx="739.5860143468" cy="-451.0502134252" r="2" />
	<circle cx="1000.0000000000" cy="-0.0000000000" r="2" />
	<circle cx="1000.0000000000" cy="-0.0000000000" r="2" />
	<circle cx="1000.0000000000" cy="-0.0000000000" r="2" />
	<circle cx="999.9999998216" cy="-0.0000000543" r="2" />
	<circle cx="0.0000000000" cy="-0.0000000000" r="2" />
	<circle cx="500.0000000000" cy="-866.0254038000" r="2" />
	<circle cx="349.6664017669" cy="-252.9269919340" r="2" />
	<circle cx="500.0000000013" cy="-866.0254037850" r="2" />
	<circle cx="1000.0000000000" cy="-0.0000000000" r="2" />
	<circle cx="500.0000000000" cy="-866.0254038000" r="2" />
	<circle cx="0.0000000000" cy="-0.0000000000" r="2" />
	<circle cx="14.8251120156" cy="-7.5766474901" r="2" />
	<circle cx="0.0000006327" cy="-0.0000001712" r="2" />
	<circle cx="358.5042766092" cy="-129.5662737807" r="2" />
	<circle cx="1000.0000000000" cy="-0.0000000000" r="2" />
	<circle cx="11.8180673509" cy="-8.4492840741" r="2" />
	<circle cx="494.5042544337" cy="-690.5152733851" r="2" />
	<circle cx="1000.0000000000" cy="-0.0000000000" r="2" />
	<circle cx="498.7656297076" cy="-476.2558002583" r="2" />
	<circle cx="403.3071935626" cy="-273.6190483293" r="2" />
	<circle cx="0.0000000000" cy="-0.0000000000" r="2" />
	<circle cx="0.0000002706" cy="-0.0000002440" r="2" />
	<circle cx="0.0000001513" cy="-0.0000001742" r="2" />
	<circle cx="497.3851116884" cy="-849.6620746820" r="2" />
	<circle cx="0.0000000000" cy="-0.0000000000" r="2" />
	<circle cx="628.5235316249" cy="-196.8508532153" r="2" />
	<circle cx="500.0000000000" cy="-866.0254037997" r="2" />
	<circle cx="500.0000000000" cy="-866.0254038000" r="2" />
	<circle cx="366.9444541080" cy="-72.1027334094" r="2" />
	<circle cx="1000.0000000000" cy="-0.0000000000" r="2" />
	<circle cx="462.6508065170" cy="-368.5613108617" r="2" />
	<circle cx="999.9999232205" cy="-0.0000443602" r="2" />
	<circle cx="0.0000000000" cy="-0.0000000000" r="2" />
	<circle cx="500.0000000000" cy="-866.0254037996" r="2" />
	<circle cx="0.0000000000" cy="-0.0000000000" r="2" />
	<circle cx="0.0000000000" cy="-0.0000000000" r="2" />
	<circle cx="426.3406034299" cy="-275.3151370022" r="2" />
	<circle cx="0.0000565774" cy="-0.0000000073" r="2" />
	<circle cx="0.0000000000" cy="-0.0000000000" r="2" />
	<circle cx="116.3947642336" cy="-63.4140366333" r="2" />
	<circle cx="239.5632286350" cy="-139.5428676140" r="2" />
	<circle cx="501.6595034097" cy="-341.8031025099" r="2" />
	<circle cx="999.2041316758" cy="-1.3776490953" r="2" />
	<circle cx="500.0000000000" cy="-866.0254038000" r="2" />
	<circle cx="387.6398197019" cy="-120.9383792794" r="2" />
	<circle cx="500.0000000000" cy="-866.0254038000" r="2" />
	<circle cx="0.3220628753" cy="-0.0521828728" r="2" />
	<circle cx="500.0000000036" cy="-866.0254037766" r="2" />
	<circle cx="507.3194482223" cy="-804.9571697025" r="2" />
	<circle cx="595.1815850415" cy="-160.0112842676" r="2" />
	<circle cx="500.0000000000" cy="-866.0254038000" r="2" />
	<circle cx="1000.0000000000" cy="-0.0000000000" r="2" />
	<circle cx="999.9979510193" cy="-0.0028350698" r="2" />
	<circle cx="1000.0000000000" cy="-0.0000000000" r="2" />
	<circle cx="1000.0000000000" cy="-0.0000000000" r="2" />
	<circle cx="500.0000000000" cy="-866.0254038000" r="2" />
	<circle cx="1000.0000000000" cy="-0.0000000000" r="2" />
	<circle cx="1000.0000000000" cy="-0.0000000000" r="2" />
	<circle cx="1000.0000000000" cy="-0.0000000000" r="2" />
	<circle cx="999.9999998175" cy="-0.0000000880" r="2" />
	<circle cx="0.0000001736" cy="-0.0000000123" r="2" />
	<circle cx="500.0000000000" cy="-866.0254038000" r="2" />
	<circle cx="499.9996518009" cy="-866.0247738580" r="2" />
	<circle cx="0.0000000364" cy="-0.0000000186" r="2" />
	<circle cx="1000.0000000000" cy="-0.0000000000" r="2" />
	<circle cx="1000.0000000000" cy="-0.0000000000" r="2" />
	<circle cx="0.0249481349" cy="-0.0144038124" r="2" />
	<circle cx="0.0000000002" cy="-0.0000000001" r="2" />
	<circle cx="0.0000001225" cy="-0.0000000143" r="2" />
	<circle cx="500.0000000000" cy="-866.0254037950" r="2" />
	<circle cx="0.0000000000" cy="-0.0000000000" r="2" />
	<circle cx="999.9996978958" cy="-0.0002630340" r="2" />
	<circle cx="0.0000000000" cy="-0.0000000000" r="2" />
	<circle cx="1000.0000000000" cy="-0.0000000000" r="2" />
	<circle cx="0.0000000000" cy="-0.0000000000" r="2" />
	<circle cx="999.9999984779" cy="-0.0000003801" r="2" />
	<circle cx="0.0000000000" cy="-0.0000000000" r="2" />
	<circle cx="1000.0000000000" cy="-0.0000000000" r="2" />
	<circle cx="557.3224640682" cy="-442.6041536108" r="2" />
	<circle cx="767.8806219640" cy="-52.4545149069" r="2" />
	<circle cx="1.8607801286" cy="-2.5206922545" r="2" />
	<circle cx="392.9440463816" cy="-210.5309916884" r="2" />
	<circle cx="2.7102297727" cy="-4.4890857118" r="2" />
	<circle cx="500.0000000041" cy="-866.0254037871" r="2" />
	<circle cx="0.0000000000" cy="-0.0000000000" r="2" />
	<circle cx="0.0000000000" cy="-0.0000000000" r="2" />
	<circle cx="375.8771868943" cy="-217.5675460169" r="2" />
	<circle cx="243.6086084357" cy="-130.4124573741" r="2" />
	<circle cx="0.0000000000" cy="-0.0000000000" r="2" />
	<circle cx="999.9999999958" cy="-0.0000000016" r="2" />
	<circle cx="944.3584165693" cy="-34.0765925067" r="2" />
	<circle cx="0.0000000000" cy="-0.0000000000" r="2" />
	<circle cx="500.0000000000" cy="-866.0254038000" r="2" />
	<circle cx="222.5061632101" cy="-166.8761381116" r="2" />
	<circle cx="0.0000000024" cy="-0.0000000014" r="2" />
	<circle cx="500.0000000000" cy="-866.0254038000" r="2" />
	<circle cx="500.0000000057" cy="-866.0254037790" r="2" />
	<circle cx="499.9999999967" cy="-866.0254037687" r="2" />
	<circle cx="1000.0000000000" cy="-0.0000000000" r="2" />
	<circle cx="519.7726852960" cy="-710.7169015283" r="2" />
	<circle cx="13.7157812027" cy="-4.9678506533" r="2" />
	<circle cx="500.0000000000" cy="-866.0254038000" r="2" />
	<circle cx="500.0000000012" cy="-866.0254037968" r="2" />
	<circle cx="500.0000000000" cy="-866.0254038000" r="2" />
	<circle cx="500.0000000000" cy="-866.0254038000" r="2" />
	<circle cx="500.0000000000" cy="-866.0254038000" r="2" />
	<circle cx="1000.0000000000" cy="-0.0000000000" r="2" />
	<circle cx="995.4426194201" cy="-7.6752115537" r="2" />
	<circle cx="0.0000880355" cy="-0.0000240651" r="2" />
	<circle cx="501.3382687975" cy="-468.0759465500" r="2" />
	<circle cx="500.0000000000" cy="-866.0254038000" r="2" />
	<circle cx="999.9999927700" cy="-0.0000045658" r="2" />
	<circle cx="0.0000000000" cy="-0.0000000000" r="2" />
	<circle cx="30.3821818603" cy="-9.2457124720" r="2" />
	<circle cx="57.5093965798" cy="-99.6091967907" r="2" />
	<circle cx="500.0000000000" cy="-866.0254038000" r="2" />
	<circle cx="995.9279001562" cy="-0.0000006153" r="2" />
	<circle cx="874.4162959493" cy="-95.2574019651" r="2" />
	<circle cx="434.3865629248" cy="-144.1299371583" r="2" />
	<circle cx="0.0000000000" cy="-0.0000000000" r="2" />
	<circle cx="500.0000000000" cy="-866.0254037999" r="2" />
	<circle cx="1000.0000000000" cy="-0.0000000000" r="2" />
	<circle cx="0.0000000000" cy="-0.0000000000" r="2" />
	<circle cx="500.0000000000" cy="-866.0254038000" r="2" />
	<circle cx="0.0000000000" cy="-0.0000000000" r="2" />
	<circle cx="500.0000000000" cy="-866.0254038000" r="2" />
	<circle cx="999.9998984090" cy="-0.0000586058" r="2" />
	<circle cx="545.3340279934" cy="-431.3238575625" r="2" />
	<circle cx="0.0000044106" cy="-0.0000027167" r="2" />
	<circle cx="1000.0000000000" cy="-0.0000000000" r="2" />
	<circle cx="500.0000000000" cy="-866.0253191928" r="2" />
	<circle cx="0.0000000000" cy="-0.0000000000" r="2" />
	<circle cx="4.7343589957" cy="-0.7963829614" r="2" />
	<circle cx="499.9999997837" cy="-866.0254032141" r="2" />
	<circle cx="500.0000000000" cy="-866.0254037998" r="2" />
	<circle cx="0.0000000000" cy="-0.0000000000" r="2" />
	<circle cx="500.0000000030" cy="-866.0254037513" r="2" />
	<circle cx="500.0000000000" cy="-866.0254038000" r="2" />
	<circle cx="0.0000000000" cy="-0.0000000000" r="2" />
	<circle cx="1000.0000000000" cy="-0.0000000000" r="2" />
	<circle cx="0.0000000000" cy="-0.0000000000" r="2" />
	<circle cx="773.4321590243" cy="-114.1189145868" r="2" />
	<circle cx="500.0000000403" cy="-866.0254035372" r="2" />
	<circle cx="499.8863875940" cy="-865.7172948700" r="2" />
	<circle cx="500.0000000000" cy="-866.0254038000" r="2" />
	<circle cx="499.9992038660" cy="-865.6775304182" r="2" />
	<circle cx="613.1064138888" cy="-66.0838121686" r="2" />
	<circle cx="500.0000000000" cy="-866.0254038000" r="2" />
	<circle cx="1000.0000000000" cy="-0.0000000000" r="2" />
	<circle cx="1000.0000000000" cy="-0.0000000000" r="2" />
	<circle cx="0.0270426596" cy="-0.0348406272" r="2" />
	<circle cx="0.0000000000" cy="-0.0000000000" r="2" />
	<circle cx="1000.0000000000" cy="-0.0000000000" r="2" />
	<circle cx="502.8701302094" cy="-737.6942691337" r="2" />
	<circle cx="1000.0000000000" cy="-0.0000000000" r="2" />
	<circle cx="0.0000000705" cy="-0.0000000966" r="2" />
	<circle cx="1.8059739530" cy="-1.2937060068" r="2" />
	<circle cx="500.0000000000" cy="-866.0254038000" r="2" />
	<circle cx="759.2275286994" cy="-277.5940730939" r="2" />
	<circle cx="0.0000000000" cy="-0.0000000000" r="2" />
	<circle cx="0.0000000000" cy="-0.0000000000" r="2" />
	<circle cx="1000.0000000000" cy="-0.0000000000" r="2" />
	<circle cx="500.0000000000" cy="-866.0254038000" r="2" />
	<circle cx="0.0000000000" cy="-0.0000000000" r="2" />
	<circle cx="500.0000000000" cy="-866.0254038000" r="2" />
	<circle cx="999.9999995936" cy="-0.0000006676" r="2" />
	<circle cx="0.0000767522" cy="-0.0000443129" r="2" />
	<circle cx="499.9999999927" cy="-866.0254037862" r="2" />
	<circle cx="512.2338136841" cy="-664.7339106067" r="2" />
	<circle cx="500.0000000000" cy="-866.0254038000" r="2" />
	<circle cx="500.0000000000" cy="-866.0254038000" r="2" />
	<circle cx="490.6560551278" cy="-774.6935904395" r="2" />
	<circle cx="0.0000000000" cy="-0.0000000000" r="2" />
	<circle cx="5.8653045054" cy="-3.7693511308" r="2" />
	<circle cx="502.3380486958" cy="-613.4393385883" r="2" />
	<circle cx="695.6383973566" cy="-387.1098030505" r="2" />
	<circle cx="611.3698523984" cy="-495.8091767268" r="2" />
	<circle cx="999.9999982886" cy="-0.0000012402" r="2" />
	<circle cx="0.0000000000" cy="-0.0000000000" r="2" />
	<circle cx="0.0000000510" cy="-0.0000000319" r="2" />
	<circle cx="527.8730397273" cy="-323.0751458887" r="2" />
	<circle cx="735.9120737180" cy="-167.8265989190" r="2" />
	<circle cx="500.0000000009" cy="-866.0254037452" r="2" />
	<circle cx="500.0000000000" cy="-866.0254038000" r="2" />
	<circle cx="500.0000000000" cy="-866.0254038000" r="2" />
	<circle cx="500.0000000000" cy="-866.0254038000" r="2" />
	<circle cx="999.9999999801" cy="-0.0000000097" r="2" />
	<circle cx="650.5810527155" cy="-216.7670402447" r="2" />
	<circle cx="499.9999999995" cy="-866.0254037858" r="2" />
	<circle cx="659.8855009831" cy="-192.6226719457" r="2" />
	<circle cx="500.0000000000" cy="-866.0254038000" r="2" />
	<circle cx="499.9920370790" cy="-865.9950354886" r="2" />
	<circle cx="500.0000000000" cy="-866.0254038000" r="2" />
	<circle cx="500.0000000000" cy="-866.0254038000" r="2" />
	<circle cx="513.2121067005" cy="-695.8726516171" r="2" />
	<circle cx="500.0000000000" cy="-866.0254038000" r="2" />
	<circle cx="500.0000000000" cy="-866.0254038000" r="2" />
	<circle cx="500.0000000000" cy="-866.0254038000" r="2" />
	<circle cx="999.9999991943" cy="-0.0000011120" r="2" />
	<circle cx="72.9458569983" cy="-24.1124561700" r="2" />
	<circle cx="500.0000000000" cy="-866.0254038000" r="2" />
	<circle cx="500.0000002157" cy="-866.0247545058" r="2" />
	<circle cx="0.0000000000" cy="-0.0000000000" r="2" />
	<circle cx="0.0000000079" cy="-0.0000000052" r="2" />
	<circle cx="1000.0000000000" cy="-0.0000000000" r="2" />
	<circle cx="1000.0000000000" cy="-0.0000000000" r="2" />
	<circle cx="499.9999969741" cy="-866.0253985589" r="2" />
	<circle cx="500.0000000000" cy="-866.0254038000" r="2" />
	<circle cx="500.0000000009" cy="-866.0254037918" r="2" />
	<circle cx="500.0000000000" cy="-866.0254038000" r="2" />
	<circle cx="0.0014782779" cy="-0.0009826745" r="2" />
	<circle cx="505.6797240441" cy="-782.5402493768" r="2" />
	<circle cx="650.5810527155" cy="-216.7670402447" r="2" />
	<circle cx="501.2724690066" cy="-0.0000001434" r="2" />
	<circle cx="500.0000001283" cy="-866.0254034819" r="2" />
  </g>
  <g id="fig2" transform="translate(-550.0,1000)">
	<polygon points="0.0,-0.0 1000.0,-0.0 500.0,-866.0254038" />
	<line
	   id="line2-1"
	   y2="-0.0"
	   x2="500"
	   y1="-288.6751346"
	   x1="500" />
	<line
	   id="line2-2"
	   y2="-433.0127019"
	   x2="250"
	   y1="-288.6751346"
	   x1="500" />
	<line
	   id="line2-3"
	   y2="-433.0127019"
	   x2="750"
	   y1="-288.6751346"
	   x1="500" />
	<text
	   x="440"
	   y="-500"
	   id="up_2">35.8%</text>
	<text
	   x="250"
	   y="-150"
	   id="down_left_2">33.0%</text>
	<text
	   x="630"
	   y="-150"
	   id="down_right_2">31.2%</text>
  </g>
  <g id="fig3" transform="translate(550,1000)">
	<polygon points="0.0,-0.0 1000.0,-0.0 500.0,-866.0254038" />
	<polygon id="triangle3b" points="250,-144.3375673 750,-144.3375673 500,-577.3502692" />
	<line
	   id="line3-1"
	   x1="125"
	   y1="-216.5063509"
	   x2="250"
	   y2="-144.3375673" />
	<line
	   id="line3-2"
	   x1="375"
	   y1="-649.5190528"
	   x2="500"
	   y2="-577.3502692" />
	<line
	   id="line3-3"
	   x1="625"
	   y1="-649.5190528"
	   x2="500"
	   y2="-577.3502692" />
	<line
	   id="line3-4"
	   x1="875"
	   y1="-216.5063509"
	   x2="750"
	   y2="-144.3375673" />
	<line
	   id="line3-5"
	   x1="750"
	   y1="-0.0"
	   x2="750"
	   y2="-144.3375673" />
	<line
	   id="line3-6"
	   x1="250"
	   y1="-0.0"
	   x2="250"
	   y2="-144.3375673" />
	<text
	   x="500"
	   y="-660"
	   text-anchor="middle"
	   id="up_3">30.4%</text>
	<text
	   y="-50"
	   x="70"
	   id="down_left_3">29.2%</text>
	<text
	   y="-50"
	   x="770"
	   id="down_right_3">26.0%</text>
	<text
	   x="500"
	   y="-50"
	   text-anchor="middle"
	   id="down_side_3">2.4%</text>
	<text
	   x="500"
	   y="-280"
	   text-anchor="middle"
	   id="center_3">9.4%</text>
	<text
	   x="685.0"
	   y="-390.8439"
	   text-anchor="middle"
	   transform="rotate(60,665.0,-380.8439)"
	   id="right_side_3">1.8%</text>
	<text
	   x="315.0"
	   y="-390.8439"
	   text-anchor="middle"
	   transform="rotate(-60,335.0,-380.8439)"
	   id="left_side_3">0.8%</text>
  </g>
</g></g>
</svg>
