<?xml version="1.0" encoding="UTF-8" standalone="no"?>
<!DOCTYPE svg PUBLIC "-//W3C//DTD SVG 1.1//EN" "http://www.w3.org/Graphics/SVG/1.1/DTD/svg11.dtd">
<svg
   xmlns:svg="http://www.w3.org/2000/svg"
   xmlns="http://www.w3.org/2000/svg"
   xmlns:xlink="http://www.w3.org/1999/xlink"
   version="1.1"
   baseProfile="full"
   id="body"
   width="800px"
   height="800px"
   viewBox="0 0 1000 1000"
   preserveAspectRatio="none">
  <defs>
    <style type="text/css"><![CDATA[
      circle{ stroke: none; }
      polygon{ stroke: black; stroke-width: 2px; fill: none; }
      line{ stroke: black; stroke-width: 2px; }
      text{ font-size:50px; }
    ]]></style>
  </defs>
  <title
     id="title1">SVG drawing</title>
<g transform="scale(0.45)"><g transform="translate(600,1050)">
  <g id="fig1">
	<polygon points="0.0,-0.0 1000.0,-0.0 500,-866.0254038" />
	<circle cx="999.9989313015" cy="-0.0006171956" r="2" />
	<circle cx="999.9994328670" cy="-0.0003273297" r="2" />
	<circle cx="998.4607507681" cy="-0.8886859829" r="2" />
	<circle cx="999.9978135061" cy="-0.0012623591" r="2" />
	<circle cx="0.0000000000" cy="-0.0000000000" r="2" />
	<circle cx="500.0003779296" cy="-736.4294508219" r="2" />
	<circle cx="999.9999961679" cy="-0.0000022125" r="2" />
	<circle cx="0.0000000000" cy="-0.0000000000" r="2" />
	<circle cx="500.0009489338" cy="-288.6745880178" r="2" />
	<circle cx="500.0000003194" cy="-865.9492031494" r="2" />
	<circle cx="999.9998801037" cy="-0.0000692197" r="2" />
	<circle cx="0.0000000000" cy="-0.0000000000" r="2" />
	<circle cx="499.9999994012" cy="-865.9492077713" r="2" />
	<circle cx="500.0000000000" cy="-866.0254038000" r="2" />
	<circle cx="102.3987897261" cy="-59.1199688141" r="2" />
	<circle cx="500.0000002022" cy="-863.9277903739" r="2" />
	<circle cx="0.0757414587" cy="-0.0437293992" r="2" />
	<circle cx="500.0000000000" cy="-288.6751363442" r="2" />
	<circle cx="1000.0000000000" cy="-0.0000000000" r="2" />
	<circle cx="0.0000000011" cy="-0.0000000007" r="2" />
	<circle cx="500.0000000090" cy="-866.0253221798" r="2" />
	<circle cx="500.0000000000" cy="-865.9968601122" r="2" />
	<circle cx="999.9725838618" cy="-0.0158289337" r="2" />
	<circle cx="499.9998615304" cy="-288.6711203136" r="2" />
	<circle cx="1000.0000000000" cy="-0.0000000000" r="2" />
	<circle cx="499.9999788217" cy="-288.6751416619" r="2" />
	<circle cx="999.9543146233" cy="-0.0263764647" r="2" />
	<circle cx="499.9999966944" cy="-750.9527336657" r="2" />
	<circle cx="1000.0000000000" cy="-0.0000000000" r="2" />
	<circle cx="499.9994667055" cy="-728.8850100796" r="2" />
	<circle cx="999.9549738090" cy="-0.0259965153" r="2" />
	<circle cx="500.0000000000" cy="-866.0254038000" r="2" />
	<circle cx="500.0000000000" cy="-866.0254038000" r="2" />
	<circle cx="0.0659915033" cy="-0.0380994549" r="2" />
	<circle cx="500.0000000000" cy="-866.0254038000" r="2" />
	<circle cx="999.9340112980" cy="-0.0380982256" r="2" />
	<circle cx="500.0000000000" cy="-866.0254038000" r="2" />
	<circle cx="1000.0000000000" cy="-0.0000000000" r="2" />
	<circle cx="883.8173951042" cy="-67.0780309835" r="2" />
	<circle cx="912.1677892019" cy="-50.7097843515" r="2" />
	<circle cx="999.9997241639" cy="-0.0001592541" r="2" />
	<circle cx="112.3190696686" cy="-64.8473816840" r="2" />
	<circle cx="96.9219433263" cy="-55.9558654565" r="2" />
	<circle cx="1000.0000000000" cy="-0.0000000000" r="2" />
	<circle cx="999.9998026923" cy="-0.0001138994" r="2" />
	<circle cx="500.0000001685" cy="-865.9851864146" r="2" />
	<circle cx="500.0000001887" cy="-866.0126625293" r="2" />
	<circle cx="500.0000000008" cy="-866.0120925141" r="2" />
	<circle cx="0.0008125292" cy="-0.0004691139" r="2" />
	<circle cx="0.0000000000" cy="-0.0000000000" r="2" />
	<circle cx="500.0000145865" cy="-865.9080724349" r="2" />
	<circle cx="0.0000009411" cy="-0.0000005432" r="2" />
	<circle cx="1.5159980713" cy="-0.8752397393" r="2" />
	<circle cx="0.0002648133" cy="-0.0001528900" r="2" />
	<circle cx="906.5478789169" cy="-53.9545896826" r="2" />
	<circle cx="0.0005670955" cy="-0.0003273148" r="2" />
	<circle cx="0.0010688149" cy="-0.0006168797" r="2" />
	<circle cx="999.9994329404" cy="-0.0003272887" r="2" />
	<circle cx="0.0000000000" cy="-0.0000000000" r="2" />
	<circle cx="1000.0000000000" cy="-0.0000000000" r="2" />
	<circle cx="0.0000000000" cy="-0.0000000000" r="2" />
	<circle cx="0.0139939925" cy="-0.0080794356" r="2" />
	<circle cx="0.0012573744" cy="-0.0007259455" r="2" />
	<circle cx="82.1052197928" cy="-47.4034707501" r="2" />
	<circle cx="499.9999938346" cy="-865.9734214553" r="2" />
	<circle cx="0.0000000000" cy="-0.0000000000" r="2" />
	<circle cx="500.0007472416" cy="-744.6065933220" r="2" />
	<circle cx="500.0000000486" cy="-864.2480319182" r="2" />
	<circle cx="500.0000000000" cy="-866.0254038000" r="2" />
	<circle cx="1000.0000000000" cy="-0.0000000000" r="2" />
	<circle cx="0.0110347257" cy="-0.0063708256" r="2" />
	<circle cx="999.9875456839" cy="-0.0071904035" r="2" />
	<circle cx="0.0000000000" cy="-0.0000000000" r="2" />
	<circle cx="93.4480671062" cy="-53.9474882585" r="2" />
	<circle cx="118.7677683482" cy="-68.5706030281" r="2" />
	<circle cx="500.0000000012" cy="-866.0239514585" r="2" />
	<circle cx="500.0000000000" cy="-866.0254038000" r="2" />
	<circle cx="900.3441229357" cy="-57.5363309394" r="2" />
	<circle cx="500.0015361256" cy="-288.6742438274" r="2" />
	<circle cx="500.0000000000" cy="-288.6751363068" r="2" />
	<circle cx="500.0000000000" cy="-865.9968601122" r="2" />
	<circle cx="500.0000000000" cy="-866.0254038000" r="2" />
	<circle cx="0.0005670423" cy="-0.0003274867" r="2" />
	<circle cx="500.0000108701" cy="-288.6751270634" r="2" />
	<circle cx="500.0000032183" cy="-865.9795428296" r="2" />
	<circle cx="1000.0000000000" cy="-0.0000000000" r="2" />
	<circle cx="499.9998447148" cy="-288.6742516022" r="2" />
	<circle cx="499.9999999996" cy="-866.0120925141" r="2" />
	<circle cx="499.9999991293" cy="-866.0141741585" r="2" />
	<circle cx="500.0000000000" cy="-866.0254038000" r="2" />
	<circle cx="500.0000000000" cy="-866.0254037995" r="2" />
	<circle cx="499.9999963585" cy="-865.9734017438" r="2" />
	<circle cx="500.0000000090" cy="-866.0253221798" r="2" />
	<circle cx="500.0000000000" cy="-866.0254038000" r="2" />
	<circle cx="500.0000000000" cy="-866.0254038000" r="2" />
	<circle cx="499.9999999976" cy="-866.0250259619" r="2" />
	<circle cx="1000.0000000000" cy="-0.0000000000" r="2" />
	<circle cx="499.9999998113" cy="-866.0126625305" r="2" />
	<circle cx="999.9785779660" cy="-0.0123681509" r="2" />
	<circle cx="999.9781883043" cy="-0.0125930165" r="2" />
	<circle cx="917.8921052634" cy="-47.4049733608" r="2" />
	<circle cx="0.0002649412" cy="-0.0001529639" r="2" />
	<circle cx="0.0000000000" cy="-0.0000000000" r="2" />
	<circle cx="883.8230221032" cy="-67.0779443757" r="2" />
	<circle cx="0.0659915033" cy="-0.0380994549" r="2" />
	<circle cx="500.0000000000" cy="-866.0254038000" r="2" />
	<circle cx="500.0001414083" cy="-288.6711223248" r="2" />
	<circle cx="0.0010686432" cy="-0.0006171669" r="2" />
	<circle cx="0.0000000000" cy="-0.0000000000" r="2" />
	<circle cx="500.0000000000" cy="-866.0254037903" r="2" />
	<circle cx="500.0000000000" cy="-866.0254038000" r="2" />
	<circle cx="1000.0000000000" cy="-0.0000000000" r="2" />
	<circle cx="500.0000992176" cy="-752.5252176702" r="2" />
	<circle cx="894.8485461254" cy="-60.7094711970" r="2" />
	<circle cx="0.0007146400" cy="-0.0004125976" r="2" />
	<circle cx="499.9999999999" cy="-866.0252674392" r="2" />
	<circle cx="500.0000002438" cy="-865.9734111917" r="2" />
	<circle cx="999.9752804831" cy="-0.0142718460" r="2" />
	<circle cx="0.0000000000" cy="-0.0000000000" r="2" />
	<circle cx="990.1288328582" cy="-5.7000731475" r="2" />
	<circle cx="1000.0000000000" cy="-0.0000000000" r="2" />
	<circle cx="999.9987402770" cy="-0.0007270678" r="2" />
	<circle cx="999.9340116322" cy="-0.0380987715" r="2" />
	<circle cx="500.0000000000" cy="-866.0254038000" r="2" />
	<circle cx="998.2085035443" cy="-1.0343312717" r="2" />
	<circle cx="499.9999999509" cy="-866.0141747057" r="2" />
	<circle cx="903.0763695750" cy="-55.9588668634" r="2" />
	<circle cx="499.9999966726" cy="-288.6751465963" r="2" />
	<circle cx="500.0000000000" cy="-866.0254027134" r="2" />
	<circle cx="500.0000000000" cy="-866.0254038000" r="2" />
	<circle cx="900.3446756020" cy="-57.5363936941" r="2" />
	<circle cx="500.0000000000" cy="-866.0254038000" r="2" />
	<circle cx="999.9995223534" cy="-0.0002756798" r="2" />
	<circle cx="894.8558942639" cy="-60.7095327701" r="2" />
	<circle cx="500.0092754138" cy="-849.4641384269" r="2" />
	<circle cx="0.0004774960" cy="-0.0002756797" r="2" />
	<circle cx="499.9999868986" cy="-288.6751270359" r="2" />
	<circle cx="1000.0000000000" cy="-0.0000000000" r="2" />
	<circle cx="0.0214207787" cy="-0.0123671587" r="2" />
	<circle cx="999.9987424215" cy="-0.0007260628" r="2" />
	<circle cx="99.6551011613" cy="-57.5358551466" r="2" />
	<circle cx="0.0000009409" cy="-0.0000005434" r="2" />
	<circle cx="500.0000000000" cy="-866.0254038000" r="2" />
	<circle cx="0.0000000000" cy="-0.0000000000" r="2" />
	<circle cx="500.0000000000" cy="-866.0254038000" r="2" />
	<circle cx="0.0000000000" cy="-0.0000000000" r="2" />
	<circle cx="0.0274163779" cy="-0.0158288532" r="2" />
	<circle cx="1000.0000000000" cy="-0.0000000000" r="2" />
	<circle cx="500.0000000000" cy="-866.0253993750" r="2" />
	<circle cx="500.0000000000" cy="-866.0254038000" r="2" />
	<circle cx="0.0112704969" cy="-0.0065070081" r="2" />
	<circle cx="0.0000000000" cy="-0.0000000000" r="2" />
	<circle cx="1.7915053542" cy="-1.0343158115" r="2" />
	<circle cx="112.2338936358" cy="-64.7982634501" r="2" />
	<circle cx="84.9001686200" cy="-49.0171352079" r="2" />
	<circle cx="500.0000000000" cy="-865.9734144994" r="2" />
	<circle cx="500.0000000000" cy="-866.0254038000" r="2" />
	<circle cx="998.2085300118" cy="-1.0343344391" r="2" />
	<circle cx="500.0000000001" cy="-866.0252674392" r="2" />
	<circle cx="1000.0000000000" cy="-0.0000000000" r="2" />
	<circle cx="500.0000000000" cy="-866.0254038000" r="2" />
	<circle cx="0.0397117378" cy="-0.0229273459" r="2" />
	<circle cx="1000.0000000000" cy="-0.0000000000" r="2" />
	<circle cx="0.0005870878" cy="-0.0003389608" r="2" />
	<circle cx="0.0007146400" cy="-0.0004125976" r="2" />
	<circle cx="1000.0000000000" cy="-0.0000000000" r="2" />
	<circle cx="1.5160059547" cy="-0.8752587571" r="2" />
	<circle cx="0.0000000000" cy="-0.0000000000" r="2" />
	<circle cx="500.0000000000" cy="-866.0254038000" r="2" />
	<circle cx="882.5021691570" cy="-67.8374577453" r="2" />
	<circle cx="0.0000000000" cy="-0.0000000000" r="2" />
	<circle cx="500.0000000000" cy="-866.0254038000" r="2" />
	<circle cx="1000.0000000000" cy="-0.0000000000" r="2" />
	<circle cx="0.0000000000" cy="-0.0000000000" r="2" />
	<circle cx="999.9602905785" cy="-0.0229260948" r="2" />
	<circle cx="500.0000000000" cy="-866.0254038000" r="2" />
	<circle cx="0.0000000000" cy="-0.0000000000" r="2" />
	<circle cx="500.0000000000" cy="-866.0254038000" r="2" />
	<circle cx="499.9998158884" cy="-755.6791581954" r="2" />
	<circle cx="500.0000000000" cy="-866.0254038000" r="2" />
	<circle cx="500.0000000000" cy="-865.9795542468" r="2" />
	<circle cx="0.0000000000" cy="-0.0000000000" r="2" />
	<circle cx="500.0000000000" cy="-288.6710394923" r="2" />
	<circle cx="499.9999968004" cy="-865.9937410548" r="2" />
	<circle cx="1000.0000000000" cy="-0.0000000000" r="2" />
	<circle cx="0.0000000000" cy="-0.0000000000" r="2" />
	<circle cx="500.0000001230" cy="-866.0126631209" r="2" />
	<circle cx="76.2267684298" cy="-44.0092733439" r="2" />
	<circle cx="500.0000120111" cy="-288.6751334478" r="2" />
	<circle cx="499.9999999995" cy="-866.0239516735" r="2" />
	<circle cx="0.0005669199" cy="-0.0003273147" r="2" />
	<circle cx="1000.0000000000" cy="-0.0000000000" r="2" />
	<circle cx="0.0000000000" cy="-0.0000000000" r="2" />
	<circle cx="500.0000000000" cy="-866.0123897391" r="2" />
	<circle cx="500.0000000000" cy="-865.9898419817" r="2" />
	<circle cx="500.0000000037" cy="-865.9780855372" r="2" />
	<circle cx="499.9999998113" cy="-866.0126625305" r="2" />
	<circle cx="0.0409781309" cy="-0.0236591217" r="2" />
	<circle cx="500.0000081848" cy="-864.2748720575" r="2" />
	<circle cx="1.7914982041" cy="-1.0343343345" r="2" />
	<circle cx="0.0008126771" cy="-0.0004691991" r="2" />
	<circle cx="999.9990995511" cy="-0.0005197177" r="2" />
	<circle cx="499.9999999996" cy="-866.0244652442" r="2" />
	<circle cx="1000.0000000000" cy="-0.0000000000" r="2" />
	<circle cx="499.9999944897" cy="-288.6751314186" r="2" />
	<circle cx="116.1829457122" cy="-67.0782496667" r="2" />
	<circle cx="999.9999999966" cy="-0.0000000020" r="2" />
	<circle cx="1000.0000000000" cy="-0.0000000000" r="2" />
	<circle cx="0.0005670955" cy="-0.0003273148" r="2" />
	<circle cx="500.0000000000" cy="-866.0254038000" r="2" />
	<circle cx="0.0000000000" cy="-0.0000000000" r="2" />
	<circle cx="99.0081792548" cy="-57.1574447187" r="2" />
	<circle cx="0.0000000011" cy="-0.0000000007" r="2" />
	<circle cx="0.0659882770" cy="-0.0380974894" r="2" />
	<circle cx="500.0000208457" cy="-288.6751568605" r="2" />
	<circle cx="0.0000000000" cy="-0.0000000000" r="2" />
	<circle cx="920.8458079397" cy="-45.6999730648" r="2" />
	<circle cx="0.0008129404" cy="-0.0004695052" r="2" />
	<circle cx="1000.0000000000" cy="-0.0000000000" r="2" />
	<circle cx="0.0000000000" cy="-0.0000000000" r="2" />
	<circle cx="0.1016282805" cy="-0.0586753957" r="2" />
	<circle cx="998.4607511929" cy="-0.8886857062" r="2" />
	<circle cx="0.0000000000" cy="-0.0000000000" r="2" />
	<circle cx="886.3970248239" cy="-65.5886312442" r="2" />
	<circle cx="999.9549732117" cy="-0.0259965098" r="2" />
	<circle cx="0.0000009410" cy="-0.0000005433" r="2" />
	<circle cx="999.9887294860" cy="-0.0065070338" r="2" />
	<circle cx="0.0000000000" cy="-0.0000000000" r="2" />
	<circle cx="0.0000000000" cy="-0.0000000000" r="2" />
	<circle cx="0.0000066296" cy="-0.0000038276" r="2" />
	<circle cx="499.9999876805" cy="-288.6751274873" r="2" />
	<circle cx="500.0000000000" cy="-866.0254038000" r="2" />
	<circle cx="500.0013954380" cy="-288.6743281625" r="2" />
	<circle cx="116.1829457122" cy="-67.0782496667" r="2" />
	<circle cx="0.0000000000" cy="-0.0000000000" r="2" />
	<circle cx="0.0000000000" cy="-0.0000000000" r="2" />
	<circle cx="0.0000000000" cy="-0.0000000000" r="2" />
	<circle cx="1000.0000000000" cy="-0.0000000000" r="2" />
	<circle cx="499.9999286265" cy="-288.6751745551" r="2" />
	<circle cx="999.9757062483" cy="-0.0140258172" r="2" />
	<circle cx="500.0000707000" cy="-288.6751749970" r="2" />
	<circle cx="0.0000000000" cy="-0.0000000000" r="2" />
	<circle cx="1000.0000000000" cy="-0.0000000000" r="2" />
	<circle cx="1000.0000000000" cy="-0.0000000000" r="2" />
	<circle cx="499.9999999977" cy="-866.0253891828" r="2" />
	<circle cx="0.1016285818" cy="-0.0586758243" r="2" />
	<circle cx="0.0000000000" cy="-0.0000000000" r="2" />
	<circle cx="0.0110329573" cy="-0.0063698811" r="2" />
	<circle cx="886.3972671552" cy="-65.5888173473" r="2" />
	<circle cx="0.0000000000" cy="-0.0000000000" r="2" />
	<circle cx="499.9994166084" cy="-767.9918946953" r="2" />
	<circle cx="500.0005706110" cy="-747.7849977877" r="2" />
	<circle cx="500.0000000000" cy="-866.0254038000" r="2" />
	<circle cx="499.9999999988" cy="-866.0239514585" r="2" />
	<circle cx="87.8250783553" cy="-50.6970597398" r="2" />
	<circle cx="0.0115279159" cy="-0.0066556471" r="2" />
	<circle cx="999.9989158086" cy="-0.0006259581" r="2" />
	<circle cx="999.9752804474" cy="-0.0142718423" r="2" />
	<circle cx="500.0000000000" cy="-863.9278012090" r="2" />
	<circle cx="500.0000000000" cy="-866.0254038000" r="2" />
	<circle cx="499.9999896688" cy="-288.6750823390" r="2" />
	<circle cx="0.0000000000" cy="-0.0000000000" r="2" />
	<circle cx="500.0000000000" cy="-866.0248419889" r="2" />
	<circle cx="499.9999950670" cy="-740.9680658501" r="2" />
	<circle cx="499.9996600400" cy="-754.1081629454" r="2" />
	<circle cx="999.9998819080" cy="-0.0000681804" r="2" />
	<circle cx="1000.0000000000" cy="-0.0000000000" r="2" />
	<circle cx="999.9875456121" cy="-0.0071905246" r="2" />
	<circle cx="1000.0000000000" cy="-0.0000000000" r="2" />
	<circle cx="886.3971305940" cy="-65.5885854417" r="2" />
	<circle cx="500.0000035153" cy="-288.6751360995" r="2" />
	<circle cx="500.0000000000" cy="-866.0254038000" r="2" />
	<circle cx="116.1829525053" cy="-67.0782642220" r="2" />
	<circle cx="499.9999896117" cy="-288.6751386233" r="2" />
	<circle cx="500.0000054225" cy="-865.9795602989" r="2" />
	<circle cx="499.9999990072" cy="-866.0126636393" r="2" />
	<circle cx="0.0002815180" cy="-0.0001625345" r="2" />
	<circle cx="1.7915089346" cy="-1.0343158015" r="2" />
	<circle cx="499.9999995060" cy="-865.9585540313" r="2" />
	<circle cx="500.0000000977" cy="-866.0247489614" r="2" />
	<circle cx="499.9999998937" cy="-288.6710394177" r="2" />
	<circle cx="0.0010841894" cy="-0.0006259550" r="2" />
	<circle cx="0.0001973236" cy="-0.0001139249" r="2" />
	<circle cx="500.0000000083" cy="-866.0241694524" r="2" />
	<circle cx="919.4547290882" cy="-46.5065386006" r="2" />
	<circle cx="500.0000163615" cy="-288.6751238166" r="2" />
	<circle cx="0.0000000000" cy="-0.0000000000" r="2" />
	<circle cx="500.0000012648" cy="-288.6751342984" r="2" />
	<circle cx="999.9535981851" cy="-0.0267904649" r="2" />
	<circle cx="1000.0000000000" cy="-0.0000000000" r="2" />
	<circle cx="500.0000002864" cy="-864.0912191314" r="2" />
	<circle cx="999.9421058542" cy="-0.0334255213" r="2" />
	<circle cx="499.9999999986" cy="-866.0250979954" r="2" />
	<circle cx="500.0000000053" cy="-288.6765856805" r="2" />
	<circle cx="499.9999293000" cy="-288.6751733350" r="2" />
	<circle cx="499.9993005551" cy="-288.6756896115" r="2" />
	<circle cx="883.8173951043" cy="-67.0780309835" r="2" />
	<circle cx="999.9998800638" cy="-0.0000692234" r="2" />
	<circle cx="499.9994417416" cy="-288.6754569106" r="2" />
	<circle cx="0.0009001733" cy="-0.0005197106" r="2" />
	<circle cx="500.0000107305" cy="-865.9491840345" r="2" />
	<circle cx="0.0757414976" cy="-0.0437293740" r="2" />
	<circle cx="500.0000032183" cy="-865.9795428296" r="2" />
	<circle cx="77.6588378806" cy="-44.8362453363" r="2" />
	<circle cx="79.0975205199" cy="-45.6669929349" r="2" />
	<circle cx="0.0000000000" cy="-0.0000000000" r="2" />
	<circle cx="79.0963395804" cy="-45.6661568339" r="2" />
	<circle cx="499.9999999999" cy="-866.0248318891" r="2" />
	<circle cx="499.9999978030" cy="-288.6751208499" r="2" />
	<circle cx="499.9999999953" cy="-866.0247488687" r="2" />
	<circle cx="0.0000038308" cy="-0.0000022117" r="2" />
	<circle cx="999.9340117292" cy="-0.0380974958" r="2" />
	<circle cx="0.0000000000" cy="-0.0000000000" r="2" />
	<circle cx="500.0006191650" cy="-751.6962669345" r="2" />
	<circle cx="1.6508787335" cy="-0.9531442075" r="2" />
	<circle cx="1000.0000000000" cy="-0.0000000000" r="2" />
	<circle cx="500.0000000000" cy="-866.0254038000" r="2" />
	<circle cx="500.0000000000" cy="-866.0254038000" r="2" />
	<circle cx="961.1817448215" cy="-22.4062187770" r="2" />
	<circle cx="894.8473577689" cy="-60.7099053882" r="2" />
	<circle cx="918.0130985022" cy="-47.3351590662" r="2" />
	<circle cx="999.9543146299" cy="-0.0263764619" r="2" />
	<circle cx="999.9549788866" cy="-0.0259858329" r="2" />
	<circle cx="500.0003724452" cy="-750.9532661431" r="2" />
	<circle cx="500.0000000000" cy="-866.0254038000" r="2" />
	<circle cx="1000.0000000000" cy="-0.0000000000" r="2" />
	<circle cx="0.0014213666" cy="-0.0008206264" r="2" />
	<circle cx="499.9997964763" cy="-733.3571859213" r="2" />
	<circle cx="0.0010686432" cy="-0.0006171669" r="2" />
	<circle cx="886.3968597464" cy="-65.5887920673" r="2" />
	<circle cx="1000.0000000000" cy="-0.0000000000" r="2" />
	<circle cx="0.0004859524" cy="-0.0002805647" r="2" />
	<circle cx="0.0000000000" cy="-0.0000000000" r="2" />
	<circle cx="85.0787061146" cy="-49.1202292166" r="2" />
	<circle cx="499.9999999999" cy="-866.0252674397" r="2" />
	<circle cx="0.0000000000" cy="-0.0000000000" r="2" />
	<circle cx="1.6750531873" cy="-0.9670924086" r="2" />
	<circle cx="500.0000000000" cy="-866.0254038000" r="2" />
	<circle cx="0.0003054310" cy="-0.0001763396" r="2" />
	<circle cx="38.8090786915" cy="-22.4064320299" r="2" />
	<circle cx="499.9999999995" cy="-866.0239516735" r="2" />
	<circle cx="878.6479208032" cy="-70.0588265357" r="2" />
	<circle cx="499.9999846391" cy="-736.4293444093" r="2" />
	<circle cx="500.0000000000" cy="-866.0254038000" r="2" />
	<circle cx="0.0000000000" cy="-0.0000000000" r="2" />
	<circle cx="999.9999979760" cy="-0.0000011682" r="2" />
	<circle cx="0.0274165113" cy="-0.0158289302" r="2" />
	<circle cx="0.0450237942" cy="-0.0259944997" r="2" />
	<circle cx="500.0000000000" cy="-866.0254038000" r="2" />
	<circle cx="0.0450292281" cy="-0.0259974496" r="2" />
	<circle cx="0.0000000000" cy="-0.0000000000" r="2" />
	<circle cx="999.9999979763" cy="-0.0000011687" r="2" />
	<circle cx="84.8875140363" cy="-49.0172907755" r="2" />
	<circle cx="0.0450240466" cy="-0.0259946452" r="2" />
	<circle cx="81.9848296577" cy="-47.3338740552" r="2" />
	<circle cx="79.0971345653" cy="-45.6669821646" r="2" />
	<circle cx="500.0000000003" cy="-866.0250510420" r="2" />
	<circle cx="500.0000000000" cy="-866.0254038000" r="2" />
	<circle cx="500.0000000000" cy="-866.0254038000" r="2" />
	<circle cx="500.0000004551" cy="-865.9734118554" r="2" />
	<circle cx="999.9989315281" cy="-0.0006168886" r="2" />
	<circle cx="999.9999843809" cy="-0.0000090176" r="2" />
	<circle cx="500.0000005579" cy="-288.6751318213" r="2" />
	<circle cx="113.6031421284" cy="-65.5887959511" r="2" />
	<circle cx="0.0008126771" cy="-0.0004691991" r="2" />
	<circle cx="499.9999892928" cy="-863.9567535260" r="2" />
	<circle cx="500.0000000000" cy="-866.0254038000" r="2" />
	<circle cx="0.0000000000" cy="-0.0000000000" r="2" />
	<circle cx="499.9999999415" cy="-866.0126641912" r="2" />
	<circle cx="999.9549708913" cy="-0.0259969502" r="2" />
	<circle cx="499.9999999998" cy="-866.0244654015" r="2" />
	<circle cx="1000.0000000000" cy="-0.0000000000" r="2" />
	<circle cx="0.0000000000" cy="-0.0000000000" r="2" />
	<circle cx="1000.0000000000" cy="-0.0000000000" r="2" />
	<circle cx="904.4372243709" cy="-55.1732756103" r="2" />
	<circle cx="999.8983751141" cy="-0.0586678178" r="2" />
	<circle cx="499.9999869189" cy="-288.6751408600" r="2" />
	<circle cx="0.0000000000" cy="-0.0000000000" r="2" />
	<circle cx="1000.0000000000" cy="-0.0000000000" r="2" />
	<circle cx="500.0000000000" cy="-866.0254038000" r="2" />
	<circle cx="1000.0000000000" cy="-0.0000000000" r="2" />
	<circle cx="500.0000030170" cy="-736.3304764124" r="2" />
	<circle cx="0.0002230875" cy="-0.0001287997" r="2" />
	<circle cx="1.6750531873" cy="-0.9670924086" r="2" />
	<circle cx="0.0008578194" cy="-0.0004952622" r="2" />
	<circle cx="1000.0000000000" cy="-0.0000000000" r="2" />
	<circle cx="0.0002758362" cy="-0.0001592540" r="2" />
	<circle cx="499.9999892930" cy="-863.9567536439" r="2" />
	<circle cx="500.0000000000" cy="-866.0254038000" r="2" />
	<circle cx="0.0000000000" cy="-0.0000000000" r="2" />
	<circle cx="499.9999955463" cy="-734.8478104980" r="2" />
	<circle cx="500.0000002438" cy="-865.9734111917" r="2" />
	<circle cx="1000.0000000000" cy="-0.0000000000" r="2" />
	<circle cx="500.0000000000" cy="-866.0254038000" r="2" />
	<circle cx="500.0000000000" cy="-866.0254038000" r="2" />
	<circle cx="999.9549731322" cy="-0.0259960887" r="2" />
	<circle cx="0.0005671268" cy="-0.0003273347" r="2" />
	<circle cx="1000.0000000000" cy="-0.0000000000" r="2" />
	<circle cx="500.0000000000" cy="-767.9912330527" r="2" />
	<circle cx="0.0000000000" cy="-0.0000000000" r="2" />
	<circle cx="898.2017717318" cy="-58.7790670667" r="2" />
	<circle cx="499.9999524836" cy="-288.6751633015" r="2" />
	<circle cx="499.9999999996" cy="-866.0254017414" r="2" />
	<circle cx="500.0000677827" cy="-288.6751726708" r="2" />
	<circle cx="0.0000000000" cy="-0.0000000000" r="2" />
	<circle cx="500.0008406310" cy="-288.6754554356" r="2" />
	<circle cx="999.9994129299" cy="-0.0003389607" r="2" />
	<circle cx="500.0000000000" cy="-866.0250259565" r="2" />
	<circle cx="499.9992527584" cy="-744.6066017005" r="2" />
	<circle cx="500.0000000000" cy="-865.9734145074" r="2" />
	<circle cx="1000.0000000000" cy="-0.0000000000" r="2" />
	<circle cx="500.0000000000" cy="-866.0254038000" r="2" />
	<circle cx="0.0000000000" cy="-0.0000000000" r="2" />
	<circle cx="1000.0000000000" cy="-0.0000000000" r="2" />
	<circle cx="1000.0000000000" cy="-0.0000000000" r="2" />
	<circle cx="1000.0000000000" cy="-0.0000000000" r="2" />
	<circle cx="77.6588888758" cy="-44.8363788444" r="2" />
	<circle cx="0.0000000000" cy="-0.0000000000" r="2" />
	<circle cx="500.0001383697" cy="-288.6711177674" r="2" />
	<circle cx="499.9999944897" cy="-288.6751314186" r="2" />
	<circle cx="500.0005833916" cy="-767.9918941729" r="2" />
	<circle cx="0.0247195569" cy="-0.0142718428" r="2" />
	<circle cx="0.0247195604" cy="-0.0142718449" r="2" />
	<circle cx="0.0000000000" cy="-0.0000000000" r="2" />
	<circle cx="0.0000000000" cy="-0.0000000000" r="2" />
	<circle cx="0.0397094123" cy="-0.0229260789" r="2" />
	<circle cx="0.0000000000" cy="-0.0000000000" r="2" />
	<circle cx="499.9999999998" cy="-866.0244652391" r="2" />
	<circle cx="113.6029414191" cy="-65.5887346197" r="2" />
	<circle cx="500.0000000000" cy="-866.0254038000" r="2" />
	<circle cx="500.0000001414" cy="-288.6751299808" r="2" />
	<circle cx="1000.0000000000" cy="-0.0000000000" r="2" />
	<circle cx="999.9998819411" cy="-0.0000681611" r="2" />
	<circle cx="0.0000000000" cy="-0.0000000000" r="2" />
	<circle cx="96.9236347168" cy="-55.9588754886" r="2" />
	<circle cx="0.1016284173" cy="-0.0586739069" r="2" />
	<circle cx="883.8230221031" cy="-67.0779443757" r="2" />
	<circle cx="999.9999999989" cy="-0.0000000007" r="2" />
	<circle cx="499.9999999999" cy="-866.0245786058" r="2" />
	<circle cx="920.8474763832" cy="-45.6990009484" r="2" />
	<circle cx="1000.0000000000" cy="-0.0000000000" r="2" />
	<circle cx="0.0002648473" cy="-0.0001529006" r="2" />
	<circle cx="999.9785792891" cy="-0.0123671586" r="2" />
	<circle cx="0.0008125343" cy="-0.0004691169" r="2" />
	<circle cx="998.1834166599" cy="-1.0488012890" r="2" />
	<circle cx="500.0000473749" cy="-288.6751629520" r="2" />
	<circle cx="1000.0000000000" cy="-0.0000000000" r="2" />
	<circle cx="500.0000000000" cy="-866.0254038000" r="2" />
	<circle cx="500.0000123195" cy="-288.6751413312" r="2" />
	<circle cx="0.0000000000" cy="-0.0000000000" r="2" />
	<circle cx="500.0000000000" cy="-866.0250919541" r="2" />
	<circle cx="499.9999836385" cy="-288.6751406891" r="2" />
	<circle cx="500.0000211783" cy="-288.6751549140" r="2" />
	<circle cx="999.9549765444" cy="-0.0259946503" r="2" />
	<circle cx="961.1865188185" cy="-22.4144851463" r="2" />
	<circle cx="499.9999998843" cy="-866.0006692784" r="2" />
	<circle cx="0.0000000000" cy="-0.0000000000" r="2" />
	<circle cx="500.0000030946" cy="-288.6751353118" r="2" />
	<circle cx="0.0000000000" cy="-0.0000000000" r="2" />
	<circle cx="0.0450291514" cy="-0.0259978761" r="2" />
	<circle cx="0.0000000000" cy="-0.0000000000" r="2" />
	<circle cx="500.0000000011" cy="-865.9968601100" r="2" />
	<circle cx="500.0000000000" cy="-866.0254038000" r="2" />
	<circle cx="1000.0000000000" cy="-0.0000000000" r="2" />
	<circle cx="1000.0000000000" cy="-0.0000000000" r="2" />
	<circle cx="999.9991874691" cy="-0.0004691169" r="2" />
	<circle cx="500.0000000000" cy="-866.0254038000" r="2" />
	<circle cx="500.0000000000" cy="-866.0254038000" r="2" />
	<circle cx="0.1016328902" cy="-0.0586783133" r="2" />
	<circle cx="0.0000000000" cy="-0.0000000000" r="2" />
	<circle cx="499.9960347882" cy="-288.6728488852" r="2" />
	<circle cx="99.6516353705" cy="-57.5289437681" r="2" />
	<circle cx="0.0659882770" cy="-0.0380974894" r="2" />
	<circle cx="500.0000022798" cy="-288.6751358625" r="2" />
	<circle cx="0.0000017824" cy="-0.0000010291" r="2" />
	<circle cx="500.0000000000" cy="-866.0254038000" r="2" />
	<circle cx="500.0000000000" cy="-866.0254038000" r="2" />
	<circle cx="1000.0000000000" cy="-0.0000000000" r="2" />
	<circle cx="0.0000000000" cy="-0.0000000000" r="2" />
	<circle cx="912.1682814774" cy="-50.7101947374" r="2" />
	<circle cx="0.0659908504" cy="-0.0381005925" r="2" />
	<circle cx="999.9989158086" cy="-0.0006259581" r="2" />
	<circle cx="500.0000000000" cy="-866.0254038000" r="2" />
	<circle cx="0.0000000000" cy="-0.0000000000" r="2" />
	<circle cx="999.9998705955" cy="-0.0000747041" r="2" />
	<circle cx="0.0000000000" cy="-0.0000000000" r="2" />
	<circle cx="499.9964534148" cy="-288.6771822219" r="2" />
	<circle cx="999.9602956508" cy="-0.0229170556" r="2" />
	<circle cx="0.0139939956" cy="-0.0080794368" r="2" />
	<circle cx="999.9994818100" cy="-0.0002991573" r="2" />
	<circle cx="0.0000000000" cy="-0.0000000000" r="2" />
	<circle cx="0.0000074103" cy="-0.0000042783" r="2" />
	<circle cx="1000.0000000000" cy="-0.0000000000" r="2" />
	<circle cx="0.0013876383" cy="-0.0008011534" r="2" />
	<circle cx="0.0000000000" cy="-0.0000000000" r="2" />
	<circle cx="1000.0000000000" cy="-0.0000000000" r="2" />
	<circle cx="0.0659883714" cy="-0.0380987730" r="2" />
	<circle cx="999.9999996406" cy="-0.0000002075" r="2" />
	<circle cx="500.0000000000" cy="-747.7842132054" r="2" />
	<circle cx="500.0000000000" cy="-865.9788493269" r="2" />
  </g>
  <g id="fig2" transform="translate(-550.0,1000)">
	<polygon points="0.0,-0.0 1000.0,-0.0 500.0,-866.0254038" />
	<line
	   id="line2-1"
	   y2="-0.0"
	   x2="500"
	   y1="-288.6751346"
	   x1="500" />
	<line
	   id="line2-2"
	   y2="-433.0127019"
	   x2="250"
	   y1="-288.6751346"
	   x1="500" />
	<line
	   id="line2-3"
	   y2="-433.0127019"
	   x2="750"
	   y1="-288.6751346"
	   x1="500" />
	<text
	   x="440"
	   y="-500"
	   id="up_2">31.2%</text>
	<text
	   x="250"
	   y="-150"
	   id="down_left_2">37.4%</text>
	<text
	   x="630"
	   y="-150"
	   id="down_right_2">31.4%</text>
  </g>
  <g id="fig3" transform="translate(550,1000)">
	<polygon points="0.0,-0.0 1000.0,-0.0 500.0,-866.0254038" />
	<polygon id="triangle3b" points="250,-144.3375673 750,-144.3375673 500,-577.3502692" />
	<line
	   id="line3-1"
	   x1="125"
	   y1="-216.5063509"
	   x2="250"
	   y2="-144.3375673" />
	<line
	   id="line3-2"
	   x1="375"
	   y1="-649.5190528"
	   x2="500"
	   y2="-577.3502692" />
	<line
	   id="line3-3"
	   x1="625"
	   y1="-649.5190528"
	   x2="500"
	   y2="-577.3502692" />
	<line
	   id="line3-4"
	   x1="875"
	   y1="-216.5063509"
	   x2="750"
	   y2="-144.3375673" />
	<line
	   id="line3-5"
	   x1="750"
	   y1="-0.0"
	   x2="750"
	   y2="-144.3375673" />
	<line
	   id="line3-6"
	   x1="250"
	   y1="-0.0"
	   x2="250"
	   y2="-144.3375673" />
	<text
	   x="500"
	   y="-660"
	   text-anchor="middle"
	   id="up_3">29.2%</text>
	<text
	   y="-50"
	   x="70"
	   id="down_left_3">34.0%</text>
	<text
	   y="-50"
	   x="770"
	   id="down_right_3">27.6%</text>
	<text
	   x="500"
	   y="-50"
	   text-anchor="middle"
	   id="down_side_3">0.0%</text>
	<text
	   x="500"
	   y="-280"
	   text-anchor="middle"
	   id="center_3">9.2%</text>
	<text
	   x="685.0"
	   y="-390.8439"
	   text-anchor="middle"
	   transform="rotate(60,665.0,-380.8439)"
	   id="right_side_3">0.0%</text>
	<text
	   x="315.0"
	   y="-390.8439"
	   text-anchor="middle"
	   transform="rotate(-60,335.0,-380.8439)"
	   id="left_side_3">0.0%</text>
  </g>
</g></g>
</svg>
