<?xml version="1.0" encoding="UTF-8" standalone="no"?>
<!DOCTYPE svg PUBLIC "-//W3C//DTD SVG 1.1//EN" "http://www.w3.org/Graphics/SVG/1.1/DTD/svg11.dtd">
<svg
   xmlns:svg="http://www.w3.org/2000/svg"
   xmlns="http://www.w3.org/2000/svg"
   xmlns:xlink="http://www.w3.org/1999/xlink"
   version="1.1"
   baseProfile="full"
   id="body"
   width="800px"
   height="800px"
   viewBox="0 0 1000 1000"
   preserveAspectRatio="none">
  <defs>
    <style type="text/css"><![CDATA[
      circle{ stroke: none; }
      polygon{ stroke: black; stroke-width: 2px; fill: none; }
      line{ stroke: black; stroke-width: 2px; }
      text{ font-size:50px; }
    ]]></style>
  </defs>
  <title
     id="title1">SVG drawing</title>
<g transform="scale(0.45)"><g transform="translate(600,1050)">
  <g id="fig1">
	<polygon points="0.0,-0.0 1000.0,-0.0 500,-866.0254038" />
	<circle cx="658.3522989982" cy="-195.9407393289" r="2" />
	<circle cx="3.1020616611" cy="-0.7515549395" r="2" />
	<circle cx="631.7041242333" cy="-212.7832989587" r="2" />
	<circle cx="1000.0000000000" cy="-0.0000000000" r="2" />
	<circle cx="500.0000000000" cy="-866.0254038000" r="2" />
	<circle cx="0.0000026896" cy="-0.0000000753" r="2" />
	<circle cx="500.0000000039" cy="-866.0254037713" r="2" />
	<circle cx="500.0427189114" cy="-865.9514094929" r="2" />
	<circle cx="0.0000000000" cy="-0.0000000000" r="2" />
	<circle cx="0.0000000000" cy="-0.0000000000" r="2" />
	<circle cx="1000.0000000000" cy="-0.0000000000" r="2" />
	<circle cx="1000.0000000000" cy="-0.0000000000" r="2" />
	<circle cx="501.4762242148" cy="-863.4682858910" r="2" />
	<circle cx="0.0000000000" cy="-0.0000000000" r="2" />
	<circle cx="762.8364838547" cy="-367.4480697031" r="2" />
	<circle cx="1000.0000000000" cy="-0.0000000000" r="2" />
	<circle cx="0.0000000000" cy="-0.0000000000" r="2" />
	<circle cx="0.0000000000" cy="-0.0000000000" r="2" />
	<circle cx="3.4055511630" cy="-1.5206545381" r="2" />
	<circle cx="1000.0000000000" cy="-0.0000000000" r="2" />
	<circle cx="1000.0000000000" cy="-0.0000000000" r="2" />
	<circle cx="2.1605666275" cy="-0.2589916838" r="2" />
	<circle cx="2.6483732536" cy="-1.4706886968" r="2" />
	<circle cx="499.8067887301" cy="-289.4165160555" r="2" />
	<circle cx="0.0000000000" cy="-0.0000000000" r="2" />
	<circle cx="500.0000000000" cy="-866.0254038000" r="2" />
	<circle cx="1000.0000000000" cy="-0.0000000000" r="2" />
	<circle cx="999.9334657174" cy="-0.0001287027" r="2" />
	<circle cx="0.0051022848" cy="-0.0029414993" r="2" />
	<circle cx="0.0067855964" cy="-0.0039150919" r="2" />
	<circle cx="48.0927515979" cy="-82.0298221525" r="2" />
	<circle cx="1000.0000000000" cy="-0.0000000000" r="2" />
	<circle cx="0.0000000000" cy="-0.0000000000" r="2" />
	<circle cx="500.0220092008" cy="-849.2083156280" r="2" />
	<circle cx="499.9999046108" cy="-866.0252369039" r="2" />
	<circle cx="499.6564237489" cy="-288.9326229843" r="2" />
	<circle cx="500.0000000000" cy="-866.0254038000" r="2" />
	<circle cx="1000.0000000000" cy="-0.0000000000" r="2" />
	<circle cx="500.1614821500" cy="-392.6075345428" r="2" />
	<circle cx="500.0003834961" cy="-866.0245573304" r="2" />
	<circle cx="500.0000000000" cy="-866.0254038000" r="2" />
	<circle cx="1000.0000000000" cy="-0.0000000000" r="2" />
	<circle cx="499.9999996390" cy="-866.0242223308" r="2" />
	<circle cx="291.6580610234" cy="-193.2875393573" r="2" />
	<circle cx="500.0000000000" cy="-866.0254038000" r="2" />
	<circle cx="500.0000000000" cy="-866.0254038000" r="2" />
	<circle cx="1000.0000000000" cy="-0.0000000000" r="2" />
	<circle cx="1000.0000000000" cy="-0.0000000000" r="2" />
	<circle cx="1000.0000000000" cy="-0.0000000000" r="2" />
	<circle cx="500.0000000000" cy="-866.0254038000" r="2" />
	<circle cx="1000.0000000000" cy="-0.0000000000" r="2" />
	<circle cx="524.3132103244" cy="-398.8785848354" r="2" />
	<circle cx="0.0000000020" cy="-0.0000000012" r="2" />
	<circle cx="1000.0000000000" cy="-0.0000000000" r="2" />
	<circle cx="500.0000000000" cy="-866.0254038000" r="2" />
	<circle cx="500.0000000000" cy="-866.0254035485" r="2" />
	<circle cx="499.9999999998" cy="-866.0253996479" r="2" />
	<circle cx="499.8826219761" cy="-427.7652014051" r="2" />
	<circle cx="0.0000000000" cy="-0.0000000000" r="2" />
	<circle cx="999.9982902083" cy="-0.0010038633" r="2" />
	<circle cx="500.0000000000" cy="-866.0254038000" r="2" />
	<circle cx="0.0263116063" cy="-0.0311125449" r="2" />
	<circle cx="959.3220984071" cy="-0.4110525619" r="2" />
	<circle cx="500.0000000000" cy="-866.0254038000" r="2" />
	<circle cx="444.8612031635" cy="-769.8041293317" r="2" />
	<circle cx="500.0000000000" cy="-866.0254037924" r="2" />
	<circle cx="0.0000000000" cy="-0.0000000000" r="2" />
	<circle cx="1000.0000000000" cy="-0.0000000000" r="2" />
	<circle cx="999.9744844583" cy="-0.0012844233" r="2" />
	<circle cx="1000.0000000000" cy="-0.0000000000" r="2" />
	<circle cx="407.8507543490" cy="-247.8311069476" r="2" />
	<circle cx="0.0000000000" cy="-0.0000000000" r="2" />
	<circle cx="0.0000000000" cy="-0.0000000000" r="2" />
	<circle cx="1000.0000000000" cy="-0.0000000000" r="2" />
	<circle cx="0.0000000000" cy="-0.0000000000" r="2" />
	<circle cx="1000.0000000000" cy="-0.0000000000" r="2" />
	<circle cx="500.8290374053" cy="-779.9554167780" r="2" />
	<circle cx="496.8398801269" cy="-859.9086890969" r="2" />
	<circle cx="499.9998837123" cy="-865.2603339452" r="2" />
	<circle cx="17.4094612068" cy="-28.8702037320" r="2" />
	<circle cx="466.0711321174" cy="-269.3938664624" r="2" />
	<circle cx="0.0000000001" cy="-0.0000000001" r="2" />
	<circle cx="1000.0000000000" cy="-0.0000000000" r="2" />
	<circle cx="999.9999999993" cy="-0.0000000004" r="2" />
	<circle cx="512.3398421597" cy="-375.5016955947" r="2" />
	<circle cx="499.9999999978" cy="-866.0253958609" r="2" />
	<circle cx="0.0000000000" cy="-0.0000000000" r="2" />
	<circle cx="499.9999999887" cy="-866.0251166520" r="2" />
	<circle cx="0.0000108791" cy="-0.0000159171" r="2" />
	<circle cx="1000.0000000000" cy="-0.0000000000" r="2" />
	<circle cx="0.0000000005" cy="-0.0000000000" r="2" />
	<circle cx="999.9999999973" cy="-0.0000000016" r="2" />
	<circle cx="500.0000000000" cy="-866.0254038000" r="2" />
	<circle cx="999.9999999965" cy="-0.0000000023" r="2" />
	<circle cx="1000.0000000000" cy="-0.0000000000" r="2" />
	<circle cx="0.0000005726" cy="-0.0000003289" r="2" />
	<circle cx="0.0000000000" cy="-0.0000000000" r="2" />
	<circle cx="999.8799840508" cy="-0.1841040608" r="2" />
	<circle cx="0.0000000000" cy="-0.0000000000" r="2" />
	<circle cx="0.0000000000" cy="-0.0000000000" r="2" />
	<circle cx="500.0000000000" cy="-866.0254038000" r="2" />
	<circle cx="500.0000000000" cy="-866.0254038000" r="2" />
	<circle cx="0.0000000000" cy="-0.0000000000" r="2" />
	<circle cx="0.0000022406" cy="-0.0000002017" r="2" />
	<circle cx="500.0000026564" cy="-866.0175620540" r="2" />
	<circle cx="500.0000000000" cy="-866.0254038000" r="2" />
	<circle cx="0.0000000003" cy="-0.0000000002" r="2" />
	<circle cx="500.0000000000" cy="-866.0254038000" r="2" />
	<circle cx="0.0000000000" cy="-0.0000000000" r="2" />
	<circle cx="999.9999999992" cy="-0.0000000004" r="2" />
	<circle cx="0.0035462431" cy="-0.0023399607" r="2" />
	<circle cx="500.0000000000" cy="-866.0254038000" r="2" />
	<circle cx="1000.0000000000" cy="-0.0000000000" r="2" />
	<circle cx="0.0000000000" cy="-0.0000000000" r="2" />
	<circle cx="499.9999999981" cy="-866.0254037954" r="2" />
	<circle cx="500.0000000000" cy="-866.0254038000" r="2" />
	<circle cx="999.9094040953" cy="-0.0000118387" r="2" />
	<circle cx="500.0000365992" cy="-866.0228980186" r="2" />
	<circle cx="0.0000000000" cy="-0.0000000000" r="2" />
	<circle cx="370.6418537366" cy="-391.1789861580" r="2" />
	<circle cx="1000.0000000000" cy="-0.0000000000" r="2" />
	<circle cx="0.0000000000" cy="-0.0000000000" r="2" />
	<circle cx="1000.0000000000" cy="-0.0000000000" r="2" />
	<circle cx="0.0000000000" cy="-0.0000000000" r="2" />
	<circle cx="999.9999999563" cy="-0.0000000253" r="2" />
	<circle cx="0.0070745537" cy="-0.0059449527" r="2" />
	<circle cx="500.0000000000" cy="-866.0254038000" r="2" />
	<circle cx="999.9960819703" cy="-0.0067371719" r="2" />
	<circle cx="0.9411265439" cy="-0.9815383452" r="2" />
	<circle cx="999.9839589071" cy="-0.0003676845" r="2" />
	<circle cx="999.5199167188" cy="-0.2326920046" r="2" />
	<circle cx="500.0000000000" cy="-866.0254038000" r="2" />
	<circle cx="498.5016199733" cy="-863.4271411942" r="2" />
	<circle cx="500.0000000000" cy="-866.0254038000" r="2" />
	<circle cx="500.4625805731" cy="-864.8735027920" r="2" />
	<circle cx="500.0629401232" cy="-865.9144063071" r="2" />
	<circle cx="689.6819561312" cy="-163.1301835109" r="2" />
	<circle cx="0.0000000000" cy="-0.0000000000" r="2" />
	<circle cx="500.0000000000" cy="-866.0254035083" r="2" />
	<circle cx="1000.0000000000" cy="-0.0000000000" r="2" />
	<circle cx="0.0000000000" cy="-0.0000000000" r="2" />
	<circle cx="499.9999999999" cy="-866.0254037235" r="2" />
	<circle cx="500.0000000041" cy="-866.0254022578" r="2" />
	<circle cx="0.0000000000" cy="-0.0000000000" r="2" />
	<circle cx="500.0298735662" cy="-865.7970009471" r="2" />
	<circle cx="999.9931031101" cy="-0.0039873814" r="2" />
	<circle cx="997.5375171578" cy="-3.4212513206" r="2" />
	<circle cx="0.0000000000" cy="-0.0000000000" r="2" />
	<circle cx="500.0000000000" cy="-866.0254038000" r="2" />
	<circle cx="500.0000000000" cy="-866.0254038000" r="2" />
	<circle cx="500.0000000000" cy="-866.0254038000" r="2" />
	<circle cx="500.0000000000" cy="-866.0254037889" r="2" />
	<circle cx="1000.0000000000" cy="-0.0000000000" r="2" />
	<circle cx="0.0000000000" cy="-0.0000000000" r="2" />
	<circle cx="0.0000000014" cy="-0.0000000008" r="2" />
	<circle cx="500.0000000000" cy="-866.0254037998" r="2" />
	<circle cx="500.0000000117" cy="-866.0254037398" r="2" />
	<circle cx="0.0000000000" cy="-0.0000000000" r="2" />
	<circle cx="0.0000000000" cy="-0.0000000000" r="2" />
	<circle cx="931.6359661628" cy="-116.6348004809" r="2" />
	<circle cx="0.0000002230" cy="-0.0000000745" r="2" />
	<circle cx="999.9999995628" cy="-0.0000001828" r="2" />
	<circle cx="500.0000000000" cy="-866.0254038000" r="2" />
	<circle cx="0.0000000000" cy="-0.0000000000" r="2" />
	<circle cx="1000.0000000000" cy="-0.0000000000" r="2" />
	<circle cx="500.0000000000" cy="-866.0254038000" r="2" />
	<circle cx="0.0000000000" cy="-0.0000000000" r="2" />
	<circle cx="500.0000000000" cy="-866.0254038000" r="2" />
	<circle cx="0.0099300577" cy="-0.0169690922" r="2" />
	<circle cx="0.0000000000" cy="-0.0000000000" r="2" />
	<circle cx="0.5840799738" cy="-0.3373095580" r="2" />
	<circle cx="500.0000000000" cy="-866.0254038000" r="2" />
	<circle cx="500.0000000000" cy="-866.0254037999" r="2" />
	<circle cx="4.9764047479" cy="-2.8741648809" r="2" />
	<circle cx="1000.0000000000" cy="-0.0000000000" r="2" />
	<circle cx="2.6226007331" cy="-0.2480800244" r="2" />
	<circle cx="999.0530891423" cy="-0.2163271397" r="2" />
	<circle cx="500.0192228790" cy="-865.9918190032" r="2" />
	<circle cx="500.0000000000" cy="-866.0254038000" r="2" />
	<circle cx="999.9999998361" cy="-0.0000001743" r="2" />
	<circle cx="1000.0000000000" cy="-0.0000000000" r="2" />
	<circle cx="1000.0000000000" cy="-0.0000000000" r="2" />
	<circle cx="997.3520897276" cy="-4.2910524777" r="2" />
	<circle cx="1000.0000000000" cy="-0.0000000000" r="2" />
	<circle cx="0.0000000000" cy="-0.0000000000" r="2" />
	<circle cx="500.0000000000" cy="-866.0254038000" r="2" />
	<circle cx="483.8446958299" cy="-817.4026890013" r="2" />
	<circle cx="0.0000000000" cy="-0.0000000000" r="2" />
	<circle cx="500.0074441184" cy="-844.8246877027" r="2" />
	<circle cx="500.0000003474" cy="-866.0243770152" r="2" />
	<circle cx="0.0000000000" cy="-0.0000000000" r="2" />
	<circle cx="418.5463318926" cy="-713.8243212109" r="2" />
	<circle cx="0.0000000000" cy="-0.0000000000" r="2" />
	<circle cx="1000.0000000000" cy="-0.0000000000" r="2" />
	<circle cx="999.9999999996" cy="-0.0000000003" r="2" />
	<circle cx="0.0000000000" cy="-0.0000000000" r="2" />
	<circle cx="999.5730919310" cy="-0.2517392708" r="2" />
	<circle cx="999.9991360704" cy="-0.0006161963" r="2" />
	<circle cx="498.4906618344" cy="-833.8372684929" r="2" />
	<circle cx="0.0000000000" cy="-0.0000000000" r="2" />
	<circle cx="500.0000000000" cy="-866.0254038000" r="2" />
	<circle cx="0.0000000000" cy="-0.0000000000" r="2" />
	<circle cx="0.3017912332" cy="-0.1911423970" r="2" />
	<circle cx="1000.0000000000" cy="-0.0000000000" r="2" />
	<circle cx="500.0158709014" cy="-651.3315879130" r="2" />
	<circle cx="0.0000000000" cy="-0.0000000000" r="2" />
	<circle cx="999.8558609344" cy="-0.0831976319" r="2" />
	<circle cx="310.3177294924" cy="-163.1300279500" r="2" />
	<circle cx="997.2862347716" cy="-1.5652782533" r="2" />
	<circle cx="999.9999999984" cy="-0.0000000003" r="2" />
	<circle cx="999.9999390666" cy="-0.0000292863" r="2" />
	<circle cx="500.2060475419" cy="-411.8152397027" r="2" />
	<circle cx="0.0002235514" cy="-0.0001172192" r="2" />
	<circle cx="0.0000000000" cy="-0.0000000000" r="2" />
	<circle cx="1000.0000000000" cy="-0.0000000000" r="2" />
	<circle cx="999.9999999658" cy="-0.0000000197" r="2" />
	<circle cx="0.0000000000" cy="-0.0000000000" r="2" />
	<circle cx="500.0000000000" cy="-866.0254038000" r="2" />
	<circle cx="0.0000000000" cy="-0.0000000000" r="2" />
	<circle cx="1000.0000000000" cy="-0.0000000000" r="2" />
	<circle cx="500.0000000000" cy="-866.0254037978" r="2" />
	<circle cx="311.7958021150" cy="-3.4903513283" r="2" />
	<circle cx="986.2235364125" cy="-11.9211048214" r="2" />
	<circle cx="499.9626997368" cy="-861.6821217571" r="2" />
	<circle cx="679.9423301157" cy="-185.6571892524" r="2" />
	<circle cx="107.5974728571" cy="-61.4975997942" r="2" />
	<circle cx="499.9285024687" cy="-288.7958872724" r="2" />
	<circle cx="503.4979735311" cy="-859.9657583239" r="2" />
	<circle cx="493.6432608242" cy="-284.7138808254" r="2" />
	<circle cx="499.9989251603" cy="-866.0205950331" r="2" />
	<circle cx="958.8694726253" cy="-23.7415466615" r="2" />
	<circle cx="499.9999999980" cy="-866.0253589887" r="2" />
	<circle cx="499.3018452948" cy="-864.5888147568" r="2" />
	<circle cx="1.4423094737" cy="-0.4937614338" r="2" />
	<circle cx="500.0000114426" cy="-865.9992322937" r="2" />
	<circle cx="997.9466233820" cy="-1.0393987511" r="2" />
	<circle cx="0.0000000000" cy="-0.0000000000" r="2" />
	<circle cx="500.0000000000" cy="-866.0254037984" r="2" />
	<circle cx="502.5127046449" cy="-302.9450385907" r="2" />
	<circle cx="626.9101914449" cy="-215.5069885136" r="2" />
	<circle cx="500.0000000000" cy="-866.0254038000" r="2" />
	<circle cx="999.9999999999" cy="-0.0000000000" r="2" />
	<circle cx="0.0000000000" cy="-0.0000000000" r="2" />
	<circle cx="500.2531482189" cy="-865.1441906400" r="2" />
	<circle cx="0.0000000000" cy="-0.0000000000" r="2" />
	<circle cx="500.0264797928" cy="-865.9787314232" r="2" />
	<circle cx="30.4444532381" cy="-51.7410341539" r="2" />
	<circle cx="942.6936572289" cy="-2.7206634875" r="2" />
	<circle cx="0.0004414876" cy="-0.0004145652" r="2" />
	<circle cx="1000.0000000000" cy="-0.0000000000" r="2" />
	<circle cx="500.0000000000" cy="-866.0254038000" r="2" />
	<circle cx="499.9999995128" cy="-866.0253992375" r="2" />
	<circle cx="1000.0000000000" cy="-0.0000000000" r="2" />
	<circle cx="1000.0000000000" cy="-0.0000000000" r="2" />
	<circle cx="0.0000000007" cy="-0.0000000004" r="2" />
	<circle cx="500.0000000000" cy="-866.0254038000" r="2" />
	<circle cx="0.0000000000" cy="-0.0000000000" r="2" />
	<circle cx="500.0181916334" cy="-789.8601118933" r="2" />
	<circle cx="500.0000000043" cy="-866.0254022574" r="2" />
	<circle cx="0.0000000000" cy="-0.0000000000" r="2" />
	<circle cx="999.9999999994" cy="-0.0000000004" r="2" />
	<circle cx="0.0000000000" cy="-0.0000000000" r="2" />
	<circle cx="499.9999998927" cy="-866.0254035171" r="2" />
	<circle cx="500.0000000000" cy="-866.0254038000" r="2" />
	<circle cx="499.9997667932" cy="-866.0247201195" r="2" />
	<circle cx="500.0000000000" cy="-866.0254038000" r="2" />
	<circle cx="0.0149333736" cy="-0.0086218853" r="2" />
	<circle cx="987.1100405491" cy="-6.3633012719" r="2" />
	<circle cx="0.0000000000" cy="-0.0000000000" r="2" />
	<circle cx="500.0000000000" cy="-866.0254037388" r="2" />
	<circle cx="999.9999986692" cy="-0.0000000033" r="2" />
	<circle cx="1000.0000000000" cy="-0.0000000000" r="2" />
	<circle cx="499.9998282026" cy="-865.9910727888" r="2" />
	<circle cx="0.0000000000" cy="-0.0000000000" r="2" />
	<circle cx="1000.0000000000" cy="-0.0000000000" r="2" />
	<circle cx="500.0000000000" cy="-866.0254037993" r="2" />
	<circle cx="999.9999999940" cy="-0.0000000035" r="2" />
	<circle cx="493.2523367257" cy="-854.3372260080" r="2" />
	<circle cx="999.8799840508" cy="-0.1841040608" r="2" />
	<circle cx="999.9999999983" cy="-0.0000000008" r="2" />
	<circle cx="500.0000000000" cy="-866.0254037993" r="2" />
	<circle cx="498.1873413027" cy="-862.8843963984" r="2" />
	<circle cx="500.0000000000" cy="-866.0254038000" r="2" />
	<circle cx="500.0000000000" cy="-866.0254038000" r="2" />
	<circle cx="3.1860430354" cy="-2.8669896152" r="2" />
	<circle cx="830.6847593311" cy="-0.0118843045" r="2" />
	<circle cx="0.0000004254" cy="-0.0000000156" r="2" />
	<circle cx="1000.0000000000" cy="-0.0000000000" r="2" />
	<circle cx="1000.0000000000" cy="-0.0000000000" r="2" />
	<circle cx="500.0000000000" cy="-866.0254037999" r="2" />
	<circle cx="0.0000003937" cy="-0.0000002315" r="2" />
	<circle cx="1000.0000000000" cy="-0.0000000000" r="2" />
	<circle cx="1000.0000000000" cy="-0.0000000000" r="2" />
	<circle cx="0.0000000000" cy="-0.0000000000" r="2" />
	<circle cx="0.0000000000" cy="-0.0000000000" r="2" />
	<circle cx="499.4748541939" cy="-851.0752138209" r="2" />
	<circle cx="0.0000000000" cy="-0.0000000000" r="2" />
	<circle cx="500.0011405923" cy="-860.2788045877" r="2" />
	<circle cx="1000.0000000000" cy="-0.0000000000" r="2" />
	<circle cx="999.4685858176" cy="-0.0941718353" r="2" />
	<circle cx="1000.0000000000" cy="-0.0000000000" r="2" />
	<circle cx="961.0718237469" cy="-67.3762770189" r="2" />
	<circle cx="0.0000000000" cy="-0.0000000000" r="2" />
	<circle cx="12.2447342253" cy="-1.9423616157" r="2" />
	<circle cx="0.0000000000" cy="-0.0000000000" r="2" />
	<circle cx="1000.0000000000" cy="-0.0000000000" r="2" />
	<circle cx="500.0000000000" cy="-866.0254038000" r="2" />
	<circle cx="500.0000000000" cy="-866.0254038000" r="2" />
	<circle cx="999.9938232316" cy="-0.0005416247" r="2" />
	<circle cx="500.0000000000" cy="-866.0254038000" r="2" />
	<circle cx="0.0000000000" cy="-0.0000000000" r="2" />
	<circle cx="500.0000000000" cy="-866.0254038000" r="2" />
	<circle cx="500.0000000000" cy="-866.0254038000" r="2" />
	<circle cx="373.6374036207" cy="-316.2299801564" r="2" />
	<circle cx="0.0000000000" cy="-0.0000000000" r="2" />
	<circle cx="500.0000000000" cy="-866.0254038000" r="2" />
	<circle cx="500.0000000000" cy="-866.0254038000" r="2" />
	<circle cx="0.0000000000" cy="-0.0000000000" r="2" />
	<circle cx="500.0000000000" cy="-866.0254038000" r="2" />
	<circle cx="500.0000047318" cy="-866.0253927539" r="2" />
	<circle cx="500.0000000000" cy="-866.0254038000" r="2" />
	<circle cx="999.9999998896" cy="-0.0000000636" r="2" />
	<circle cx="0.0157044666" cy="-0.0090741724" r="2" />
	<circle cx="999.9999999803" cy="-0.0000000114" r="2" />
	<circle cx="1000.0000000000" cy="-0.0000000000" r="2" />
	<circle cx="500.0000000000" cy="-866.0254038000" r="2" />
	<circle cx="481.5130172854" cy="-552.5906858636" r="2" />
	<circle cx="1000.0000000000" cy="-0.0000000000" r="2" />
	<circle cx="0.0000000001" cy="-0.0000000001" r="2" />
	<circle cx="1000.0000000000" cy="-0.0000000000" r="2" />
	<circle cx="1000.0000000000" cy="-0.0000000000" r="2" />
	<circle cx="1000.0000000000" cy="-0.0000000000" r="2" />
	<circle cx="499.9999987207" cy="-866.0254014335" r="2" />
	<circle cx="1000.0000000000" cy="-0.0000000000" r="2" />
	<circle cx="999.9985080774" cy="-0.0008611536" r="2" />
	<circle cx="1000.0000000000" cy="-0.0000000000" r="2" />
	<circle cx="499.9999976434" cy="-866.0231500076" r="2" />
	<circle cx="798.8713034991" cy="-322.4379412174" r="2" />
	<circle cx="999.9999054776" cy="-0.0000545196" r="2" />
	<circle cx="1000.0000000000" cy="-0.0000000000" r="2" />
	<circle cx="500.0000000000" cy="-866.0254038000" r="2" />
	<circle cx="500.0000000000" cy="-866.0254038000" r="2" />
	<circle cx="500.0000000002" cy="-866.0253975688" r="2" />
	<circle cx="103.9059126007" cy="-163.3237732070" r="2" />
	<circle cx="0.0003687735" cy="-0.0002024999" r="2" />
	<circle cx="1000.0000000000" cy="-0.0000000000" r="2" />
	<circle cx="881.9552251563" cy="-53.7646305699" r="2" />
	<circle cx="999.9999609041" cy="-0.0000171537" r="2" />
	<circle cx="1000.0000000000" cy="-0.0000000000" r="2" />
	<circle cx="500.0000000000" cy="-866.0254038000" r="2" />
	<circle cx="500.0000000000" cy="-866.0254038000" r="2" />
	<circle cx="997.8876641101" cy="-0.0073124588" r="2" />
	<circle cx="1000.0000000000" cy="-0.0000000000" r="2" />
	<circle cx="500.0000000000" cy="-866.0254038000" r="2" />
	<circle cx="499.9950108974" cy="-845.4442291105" r="2" />
	<circle cx="2.2574880700" cy="-1.5052523377" r="2" />
	<circle cx="499.9999977268" cy="-866.0252802697" r="2" />
	<circle cx="499.9999980792" cy="-866.0253542721" r="2" />
	<circle cx="0.0000000000" cy="-0.0000000000" r="2" />
	<circle cx="999.9999999987" cy="-0.0000000008" r="2" />
	<circle cx="13.5453703700" cy="-0.7876917500" r="2" />
	<circle cx="0.0000000000" cy="-0.0000000000" r="2" />
	<circle cx="500.0000972348" cy="-865.2478662568" r="2" />
	<circle cx="465.7955605636" cy="-805.8784602603" r="2" />
	<circle cx="0.0000000000" cy="-0.0000000000" r="2" />
	<circle cx="0.0000000000" cy="-0.0000000000" r="2" />
	<circle cx="0.0000451233" cy="-0.0000290276" r="2" />
	<circle cx="500.0328718801" cy="-865.1919769279" r="2" />
	<circle cx="0.0000000000" cy="-0.0000000000" r="2" />
	<circle cx="500.0000000000" cy="-866.0254038000" r="2" />
	<circle cx="538.1245128987" cy="-0.7896634953" r="2" />
	<circle cx="999.9999997473" cy="-0.0000001460" r="2" />
	<circle cx="576.5149979720" cy="-0.0898342705" r="2" />
	<circle cx="1000.0000000000" cy="-0.0000000000" r="2" />
	<circle cx="486.0674054400" cy="-837.6851747566" r="2" />
	<circle cx="998.9169106530" cy="-0.6251280242" r="2" />
	<circle cx="164.8840801909" cy="-285.5373448951" r="2" />
	<circle cx="1000.0000000000" cy="-0.0000000000" r="2" />
	<circle cx="0.0000000000" cy="-0.0000000000" r="2" />
	<circle cx="0.0000001682" cy="-0.0000001066" r="2" />
	<circle cx="0.0000000000" cy="-0.0000000000" r="2" />
	<circle cx="0.0000000000" cy="-0.0000000000" r="2" />
	<circle cx="0.0000000000" cy="-0.0000000000" r="2" />
	<circle cx="1000.0000000000" cy="-0.0000000000" r="2" />
	<circle cx="999.5912084436" cy="-0.2361332948" r="2" />
	<circle cx="0.0000000000" cy="-0.0000000000" r="2" />
	<circle cx="0.0000000000" cy="-0.0000000000" r="2" />
	<circle cx="0.0000000000" cy="-0.0000000000" r="2" />
	<circle cx="415.3881756872" cy="-719.4496540013" r="2" />
	<circle cx="500.0000000000" cy="-866.0254038000" r="2" />
	<circle cx="0.0000000000" cy="-0.0000000000" r="2" />
	<circle cx="499.9999999978" cy="-866.0253958609" r="2" />
	<circle cx="0.0000016763" cy="-0.0000009151" r="2" />
	<circle cx="1000.0000000000" cy="-0.0000000000" r="2" />
	<circle cx="997.0431339027" cy="-1.6191158201" r="2" />
	<circle cx="499.9999999991" cy="-866.0254037981" r="2" />
	<circle cx="175.4563719033" cy="-6.0706003619" r="2" />
	<circle cx="1000.0000000000" cy="-0.0000000000" r="2" />
	<circle cx="42.8245984295" cy="-3.8665891166" r="2" />
	<circle cx="0.0000000000" cy="-0.0000000000" r="2" />
	<circle cx="500.0000000000" cy="-866.0254038000" r="2" />
	<circle cx="1000.0000000000" cy="-0.0000000000" r="2" />
	<circle cx="500.0002348706" cy="-866.0191195464" r="2" />
	<circle cx="1000.0000000000" cy="-0.0000000000" r="2" />
	<circle cx="500.0000000000" cy="-866.0254038000" r="2" />
	<circle cx="999.9999999998" cy="-0.0000000001" r="2" />
	<circle cx="0.0000000000" cy="-0.0000000000" r="2" />
	<circle cx="500.0000000000" cy="-866.0254038000" r="2" />
	<circle cx="501.8958559158" cy="-862.7415807309" r="2" />
	<circle cx="499.9998630096" cy="-866.0250074076" r="2" />
	<circle cx="1000.0000000000" cy="-0.0000000000" r="2" />
	<circle cx="500.0000000000" cy="-866.0254038000" r="2" />
	<circle cx="0.0000000000" cy="-0.0000000000" r="2" />
	<circle cx="478.0898839632" cy="-275.9450805482" r="2" />
	<circle cx="101.9525236589" cy="-171.6388629493" r="2" />
	<circle cx="500.0000000052" cy="-866.0254037088" r="2" />
	<circle cx="499.9816897516" cy="-295.6847760586" r="2" />
	<circle cx="1000.0000000000" cy="-0.0000000000" r="2" />
	<circle cx="0.0000007749" cy="-0.0000004477" r="2" />
	<circle cx="999.9999999920" cy="-0.0000000042" r="2" />
	<circle cx="1000.0000000000" cy="-0.0000000000" r="2" />
	<circle cx="500.0000000000" cy="-866.0254038000" r="2" />
	<circle cx="1000.0000000000" cy="-0.0000000000" r="2" />
	<circle cx="10.3854801763" cy="-17.9747988914" r="2" />
	<circle cx="1000.0000000000" cy="-0.0000000000" r="2" />
	<circle cx="500.0000000000" cy="-866.0254038000" r="2" />
	<circle cx="0.0073630159" cy="-0.0122155292" r="2" />
	<circle cx="7.5523585291" cy="-4.3613313342" r="2" />
	<circle cx="500.0000000000" cy="-866.0254038000" r="2" />
	<circle cx="996.2205160977" cy="-2.1391663172" r="2" />
	<circle cx="999.9999988516" cy="-0.0000006628" r="2" />
	<circle cx="0.0000000000" cy="-0.0000000000" r="2" />
	<circle cx="500.0000000000" cy="-866.0254038000" r="2" />
	<circle cx="500.0000000000" cy="-866.0254038000" r="2" />
	<circle cx="500.0000000000" cy="-866.0254038000" r="2" />
	<circle cx="500.0000000000" cy="-866.0254038000" r="2" />
	<circle cx="512.9118833710" cy="-281.1807764654" r="2" />
	<circle cx="0.0000504151" cy="-0.0000290735" r="2" />
	<circle cx="500.0000000000" cy="-866.0254038000" r="2" />
	<circle cx="1000.0000000000" cy="-0.0000000000" r="2" />
	<circle cx="499.8729530606" cy="-288.6729122506" r="2" />
	<circle cx="0.0000000000" cy="-0.0000000000" r="2" />
	<circle cx="999.9999999562" cy="-0.0000000252" r="2" />
	<circle cx="0.0000000000" cy="-0.0000000000" r="2" />
	<circle cx="757.9230025015" cy="-249.5598775653" r="2" />
	<circle cx="1000.0000000000" cy="-0.0000000000" r="2" />
	<circle cx="550.7152205595" cy="-237.4353240844" r="2" />
	<circle cx="1000.0000000000" cy="-0.0000000000" r="2" />
	<circle cx="500.0000000000" cy="-866.0254038000" r="2" />
	<circle cx="999.9996919451" cy="-0.0000735529" r="2" />
	<circle cx="500.0000000000" cy="-866.0254038000" r="2" />
	<circle cx="999.9944407535" cy="-0.0029385725" r="2" />
	<circle cx="500.0000000003" cy="-866.0254037994" r="2" />
	<circle cx="1000.0000000000" cy="-0.0000000000" r="2" />
	<circle cx="0.0000000000" cy="-0.0000000000" r="2" />
	<circle cx="999.9821043907" cy="-0.0099322688" r="2" />
	<circle cx="0.0000000199" cy="-0.0000000115" r="2" />
	<circle cx="0.0000000000" cy="-0.0000000000" r="2" />
	<circle cx="500.0000000000" cy="-866.0254038000" r="2" />
	<circle cx="978.8696414572" cy="-2.0097792084" r="2" />
	<circle cx="0.0000000006" cy="-0.0000000003" r="2" />
	<circle cx="499.9999956008" cy="-866.0041348099" r="2" />
	<circle cx="999.9999432589" cy="-0.0000116273" r="2" />
	<circle cx="1000.0000000000" cy="-0.0000000000" r="2" />
	<circle cx="500.0000000000" cy="-866.0254038000" r="2" />
	<circle cx="500.0001723265" cy="-866.0248841429" r="2" />
	<circle cx="0.0000000000" cy="-0.0000000000" r="2" />
	<circle cx="0.0000000000" cy="-0.0000000000" r="2" />
	<circle cx="500.0000000000" cy="-866.0254038000" r="2" />
	<circle cx="0.0000000000" cy="-0.0000000000" r="2" />
	<circle cx="500.0000000000" cy="-866.0254038000" r="2" />
	<circle cx="500.0000000000" cy="-866.0254038000" r="2" />
	<circle cx="0.0000000000" cy="-0.0000000000" r="2" />
	<circle cx="999.9999998865" cy="-0.0000000656" r="2" />
	<circle cx="2.7392222196" cy="-1.5819110343" r="2" />
	<circle cx="0.0000000000" cy="-0.0000000000" r="2" />
	<circle cx="1000.0000000000" cy="-0.0000000000" r="2" />
	<circle cx="500.3347344616" cy="-864.9685538110" r="2" />
	<circle cx="0.0000006086" cy="-0.0000005291" r="2" />
	<circle cx="998.2601016901" cy="-0.9143321113" r="2" />
	<circle cx="939.9272473806" cy="-34.7113132814" r="2" />
	<circle cx="500.0000000000" cy="-866.0254038000" r="2" />
	<circle cx="1000.0000000000" cy="-0.0000000000" r="2" />
	<circle cx="999.9999999987" cy="-0.0000000007" r="2" />
	<circle cx="0.0000000005" cy="-0.0000000003" r="2" />
	<circle cx="999.9999131185" cy="-0.0000457314" r="2" />
	<circle cx="1000.0000000000" cy="-0.0000000000" r="2" />
	<circle cx="945.8210579266" cy="-30.0221429272" r="2" />
	<circle cx="998.6073872998" cy="-0.8047033712" r="2" />
	<circle cx="0.0000000001" cy="-0.0000000001" r="2" />
	<circle cx="500.0000000000" cy="-866.0254038000" r="2" />
	<circle cx="499.9999971321" cy="-866.0081672614" r="2" />
	<circle cx="0.0000000000" cy="-0.0000000000" r="2" />
	<circle cx="4.0865785514" cy="-0.8150471831" r="2" />
	<circle cx="499.9999616051" cy="-866.0211883668" r="2" />
	<circle cx="1000.0000000000" cy="-0.0000000000" r="2" />
	<circle cx="500.0000000000" cy="-866.0254038000" r="2" />
	<circle cx="999.8490845210" cy="-0.1958893698" r="2" />
	<circle cx="0.0000000000" cy="-0.0000000000" r="2" />
	<circle cx="1000.0000000000" cy="-0.0000000000" r="2" />
  </g>
  <g id="fig2" transform="translate(-550.0,1000)">
	<polygon points="0.0,-0.0 1000.0,-0.0 500.0,-866.0254038" />
	<line
	   id="line2-1"
	   y2="-0.0"
	   x2="500"
	   y1="-288.6751346"
	   x1="500" />
	<line
	   id="line2-2"
	   y2="-433.0127019"
	   x2="250"
	   y1="-288.6751346"
	   x1="500" />
	<line
	   id="line2-3"
	   y2="-433.0127019"
	   x2="750"
	   y1="-288.6751346"
	   x1="500" />
	<text
	   x="440"
	   y="-500"
	   id="up_2">34.8%</text>
	<text
	   x="250"
	   y="-150"
	   id="down_left_2">31.8%</text>
	<text
	   x="630"
	   y="-150"
	   id="down_right_2">33.4%</text>
  </g>
  <g id="fig3" transform="translate(550,1000)">
	<polygon points="0.0,-0.0 1000.0,-0.0 500.0,-866.0254038" />
	<polygon id="triangle3b" points="250,-144.3375673 750,-144.3375673 500,-577.3502692" />
	<line
	   id="line3-1"
	   x1="125"
	   y1="-216.5063509"
	   x2="250"
	   y2="-144.3375673" />
	<line
	   id="line3-2"
	   x1="375"
	   y1="-649.5190528"
	   x2="500"
	   y2="-577.3502692" />
	<line
	   id="line3-3"
	   x1="625"
	   y1="-649.5190528"
	   x2="500"
	   y2="-577.3502692" />
	<line
	   id="line3-4"
	   x1="875"
	   y1="-216.5063509"
	   x2="750"
	   y2="-144.3375673" />
	<line
	   id="line3-5"
	   x1="750"
	   y1="-0.0"
	   x2="750"
	   y2="-144.3375673" />
	<line
	   id="line3-6"
	   x1="250"
	   y1="-0.0"
	   x2="250"
	   y2="-144.3375673" />
	<text
	   x="500"
	   y="-660"
	   text-anchor="middle"
	   id="up_3">32.4%</text>
	<text
	   y="-50"
	   x="70"
	   id="down_left_3">29.8%</text>
	<text
	   y="-50"
	   x="770"
	   id="down_right_3">31.0%</text>
	<text
	   x="500"
	   y="-50"
	   text-anchor="middle"
	   id="down_side_3">0.6%</text>
	<text
	   x="500"
	   y="-280"
	   text-anchor="middle"
	   id="center_3">5.0%</text>
	<text
	   x="685.0"
	   y="-390.8439"
	   text-anchor="middle"
	   transform="rotate(60,665.0,-380.8439)"
	   id="right_side_3">0.6%</text>
	<text
	   x="315.0"
	   y="-390.8439"
	   text-anchor="middle"
	   transform="rotate(-60,335.0,-380.8439)"
	   id="left_side_3">0.6%</text>
  </g>
</g></g>
</svg>
