<?xml version="1.0" encoding="UTF-8" standalone="no"?>
<!DOCTYPE svg PUBLIC "-//W3C//DTD SVG 1.1//EN" "http://www.w3.org/Graphics/SVG/1.1/DTD/svg11.dtd">
<svg
   xmlns:svg="http://www.w3.org/2000/svg"
   xmlns="http://www.w3.org/2000/svg"
   xmlns:xlink="http://www.w3.org/1999/xlink"
   version="1.1"
   baseProfile="full"
   id="body"
   width="800px"
   height="800px"
   viewBox="0 0 1000 1000"
   preserveAspectRatio="none">
  <defs>
    <style type="text/css"><![CDATA[
      circle{ stroke: none; }
      polygon{ stroke: black; stroke-width: 2px; fill: none; }
      line{ stroke: black; stroke-width: 2px; }
      text{ font-size:50px; }
    ]]></style>
  </defs>
  <title
     id="title1">SVG drawing</title>
<g transform="scale(0.45)"><g transform="translate(600,1050)">
  <g id="fig1">
	<polygon points="0.0,-0.0 1000.0,-0.0 500,-866.0254038" />
	<circle cx="2.2541699438" cy="-1.3014456238" r="2" />
	<circle cx="0.0000207428" cy="-0.0000119759" r="2" />
	<circle cx="0.0390310068" cy="-0.0225346360" r="2" />
	<circle cx="500.0000000000" cy="-845.0707010655" r="2" />
	<circle cx="499.9990186505" cy="-288.6745723936" r="2" />
	<circle cx="0.0000000014" cy="-0.0000000008" r="2" />
	<circle cx="0.0000000014" cy="-0.0000000008" r="2" />
	<circle cx="500.0044516629" cy="-849.6977414776" r="2" />
	<circle cx="991.6486687366" cy="-4.8216537721" r="2" />
	<circle cx="499.9998633655" cy="-288.6753805301" r="2" />
	<circle cx="500.0002387820" cy="-863.4199904898" r="2" />
	<circle cx="499.9998410922" cy="-288.6752302502" r="2" />
	<circle cx="993.6130192426" cy="-3.6875250802" r="2" />
	<circle cx="500.0001589077" cy="-288.6752263454" r="2" />
	<circle cx="500.0000261991" cy="-288.6751497261" r="2" />
	<circle cx="500.0000000000" cy="-288.6751346000" r="2" />
	<circle cx="14.1944761863" cy="-8.1951846473" r="2" />
	<circle cx="500.0000000001" cy="-288.6756215177" r="2" />
	<circle cx="500.0000000000" cy="-865.9439462155" r="2" />
	<circle cx="500.0000096521" cy="-288.6751367189" r="2" />
	<circle cx="990.3866617020" cy="-5.5450626727" r="2" />
	<circle cx="499.9995751027" cy="-288.6753789747" r="2" />
	<circle cx="500.0000000000" cy="-288.6757498161" r="2" />
	<circle cx="499.9995745439" cy="-288.6750585065" r="2" />
	<circle cx="500.0000732528" cy="-866.0245382484" r="2" />
	<circle cx="8.2945634578" cy="-4.7944498196" r="2" />
	<circle cx="499.9995847699" cy="-288.6752198572" r="2" />
	<circle cx="999.8393968272" cy="-0.0927239748" r="2" />
	<circle cx="500.0001367803" cy="-288.6747350949" r="2" />
	<circle cx="499.9999971798" cy="-859.8777682467" r="2" />
	<circle cx="995.3849836498" cy="-2.6659463017" r="2" />
	<circle cx="500.0000012771" cy="-288.6751245520" r="2" />
	<circle cx="500.0008316448" cy="-288.6746610432" r="2" />
	<circle cx="995.3849836498" cy="-2.6659463017" r="2" />
	<circle cx="499.9999999476" cy="-865.9803589892" r="2" />
	<circle cx="499.9998594555" cy="-288.6752181579" r="2" />
	<circle cx="499.9999896573" cy="-288.6751435224" r="2" />
	<circle cx="499.9999998753" cy="-866.0244118848" r="2" />
	<circle cx="976.9627104627" cy="-13.3004891754" r="2" />
	<circle cx="5.3283077587" cy="-3.0762959319" r="2" />
	<circle cx="499.9999969486" cy="-288.6754651457" r="2" />
	<circle cx="500.0001461756" cy="-288.6755396319" r="2" />
	<circle cx="0.0007081939" cy="-0.0004962514" r="2" />
	<circle cx="499.9994417416" cy="-288.6754366241" r="2" />
	<circle cx="499.9997221538" cy="-288.6754596638" r="2" />
	<circle cx="499.9994405511" cy="-288.6749518828" r="2" />
	<circle cx="500.0000000000" cy="-866.0225948377" r="2" />
	<circle cx="499.9999999995" cy="-866.0095884102" r="2" />
	<circle cx="500.0000000000" cy="-288.6751346582" r="2" />
	<circle cx="499.9998415692" cy="-288.6746946183" r="2" />
	<circle cx="500.0000261241" cy="-288.6751496827" r="2" />
	<circle cx="499.9999936103" cy="-852.7848884440" r="2" />
	<circle cx="500.0000128780" cy="-288.6751420351" r="2" />
	<circle cx="999.9761838008" cy="-0.0137503349" r="2" />
	<circle cx="9.7432653052" cy="-5.6252768468" r="2" />
	<circle cx="499.9999992206" cy="-864.9206745395" r="2" />
	<circle cx="500.0000000000" cy="-288.6749738149" r="2" />
	<circle cx="500.0000000000" cy="-288.6751184530" r="2" />
	<circle cx="985.2307233035" cy="-8.5267995303" r="2" />
	<circle cx="988.2997781401" cy="-6.7471819242" r="2" />
	<circle cx="499.9999999895" cy="-866.0133442412" r="2" />
	<circle cx="999.9878617443" cy="-0.0070224743" r="2" />
	<circle cx="500.0002724221" cy="-288.6749669927" r="2" />
	<circle cx="500.0000000001" cy="-288.6751106051" r="2" />
	<circle cx="999.9975673671" cy="-0.0014044811" r="2" />
	<circle cx="499.9997214420" cy="-288.6749655157" r="2" />
	<circle cx="500.0000000002" cy="-866.0254012587" r="2" />
	<circle cx="499.9999739297" cy="-288.6751356952" r="2" />
	<circle cx="499.9997137149" cy="-288.6751349231" r="2" />
	<circle cx="0.0024326330" cy="-0.0014044813" r="2" />
	<circle cx="499.9994405511" cy="-288.6749518828" r="2" />
	<circle cx="500.0000517355" cy="-288.6751648934" r="2" />
	<circle cx="991.6486590646" cy="-4.8216379567" r="2" />
	<circle cx="990.2607140564" cy="-5.6256401087" r="2" />
	<circle cx="3.7960138620" cy="-2.1916284915" r="2" />
	<circle cx="500.0000000000" cy="-866.0254037826" r="2" />
	<circle cx="4.6137590130" cy="-2.6637550082" r="2" />
	<circle cx="500.0000096585" cy="-288.6751367480" r="2" />
	<circle cx="500.0000442473" cy="-288.6751540192" r="2" />
	<circle cx="500.0000029910" cy="-288.6751391257" r="2" />
	<circle cx="990.3853967937" cy="-5.5531801935" r="2" />
	<circle cx="8.9383441933" cy="-5.1605578268" r="2" />
	<circle cx="500.0000261992" cy="-288.6751497260" r="2" />
	<circle cx="500.0000000000" cy="-866.0253798289" r="2" />
	<circle cx="499.9999920255" cy="-865.9602135837" r="2" />
	<circle cx="999.0430787191" cy="-0.5523638462" r="2" />
	<circle cx="0.0008581419" cy="-0.0004954485" r="2" />
	<circle cx="0.0104529272" cy="-0.0060349936" r="2" />
	<circle cx="499.9995856578" cy="-288.6748914578" r="2" />
	<circle cx="5.3246240946" cy="-3.0748861320" r="2" />
	<circle cx="1.2163764088" cy="-0.5534215049" r="2" />
	<circle cx="0.0705440481" cy="-0.0407286252" r="2" />
	<circle cx="499.9995164912" cy="-853.3278778965" r="2" />
	<circle cx="500.0000000000" cy="-866.0063998322" r="2" />
	<circle cx="500.0002791407" cy="-288.6754463333" r="2" />
	<circle cx="499.9998657733" cy="-288.6753810644" r="2" />
	<circle cx="500.0000000000" cy="-288.6752713696" r="2" />
	<circle cx="999.9964461892" cy="-0.0020516542" r="2" />
	<circle cx="500.0000418131" cy="-288.6751645647" r="2" />
	<circle cx="499.9997087815" cy="-288.6749664649" r="2" />
	<circle cx="999.9895486556" cy="-0.0060362252" r="2" />
	<circle cx="500.0000207988" cy="-288.6751570886" r="2" />
	<circle cx="499.9995964630" cy="-288.6755176879" r="2" />
	<circle cx="983.8954314947" cy="-9.2979932976" r="2" />
	<circle cx="994.6759912138" cy="-3.0738153380" r="2" />
	<circle cx="0.0390100286" cy="-0.0225224505" r="2" />
	<circle cx="499.9997179629" cy="-288.6754470679" r="2" />
	<circle cx="500.0000000000" cy="-866.0244129032" r="2" />
	<circle cx="499.9999884905" cy="-288.6751490877" r="2" />
	<circle cx="0.0390310068" cy="-0.0225346360" r="2" />
	<circle cx="500.0000066921" cy="-288.6748123831" r="2" />
	<circle cx="499.9998616564" cy="-288.6747314670" r="2" />
	<circle cx="500.0000000000" cy="-288.6764273257" r="2" />
	<circle cx="500.0001394550" cy="-288.6753193421" r="2" />
	<circle cx="992.8963591035" cy="-4.1054334976" r="2" />
	<circle cx="499.9999946882" cy="-288.6751348905" r="2" />
	<circle cx="500.0000000000" cy="-866.0133442227" r="2" />
	<circle cx="499.9999941730" cy="-852.7848869699" r="2" />
	<circle cx="0.4250421236" cy="-0.0822224129" r="2" />
	<circle cx="500.0000000001" cy="-288.6751346000" r="2" />
	<circle cx="499.9999869959" cy="-288.6751226622" r="2" />
	<circle cx="500.0000000000" cy="-866.0063998322" r="2" />
	<circle cx="500.0001394551" cy="-288.6753193421" r="2" />
	<circle cx="500.0000000000" cy="-866.0133442228" r="2" />
	<circle cx="500.0000096584" cy="-288.6751367479" r="2" />
	<circle cx="500.0000020211" cy="-288.6751350758" r="2" />
	<circle cx="500.0000000000" cy="-851.6067273478" r="2" />
	<circle cx="500.0000000000" cy="-288.6751106051" r="2" />
	<circle cx="999.9942231154" cy="-0.0033352875" r="2" />
	<circle cx="499.9999871220" cy="-288.6751225331" r="2" />
	<circle cx="500.0004236948" cy="-288.6752156480" r="2" />
	<circle cx="499.9999868245" cy="-288.6751407878" r="2" />
	<circle cx="991.6486694553" cy="-4.8216529522" r="2" />
	<circle cx="499.9997001721" cy="-288.6748206864" r="2" />
	<circle cx="3.8001278401" cy="-2.1937259950" r="2" />
	<circle cx="500.0000025556" cy="-288.6751211817" r="2" />
	<circle cx="500.0002807249" cy="-288.6751320638" r="2" />
	<circle cx="0.0003056656" cy="-0.0001764759" r="2" />
	<circle cx="7.1065963482" cy="-4.1057406066" r="2" />
	<circle cx="499.9998607850" cy="-288.6750518077" r="2" />
	<circle cx="990.6682102260" cy="-5.3854138448" r="2" />
	<circle cx="500.0000019182" cy="-288.6751351545" r="2" />
	<circle cx="500.0000011241" cy="-864.4723980439" r="2" />
	<circle cx="499.9997239676" cy="-288.6753001485" r="2" />
	<circle cx="499.9999792459" cy="-288.6751433768" r="2" />
	<circle cx="999.9999993190" cy="-0.0000003930" r="2" />
	<circle cx="499.9997275779" cy="-288.6749735387" r="2" />
	<circle cx="500.0000000000" cy="-860.6935247294" r="2" />
	<circle cx="500.0068585333" cy="-860.7122482344" r="2" />
	<circle cx="499.9999816986" cy="-288.6751466369" r="2" />
	<circle cx="500.0000001256" cy="-866.0244118849" r="2" />
	<circle cx="500.0003052642" cy="-288.6753108444" r="2" />
	<circle cx="0.0390100244" cy="-0.0225224478" r="2" />
	<circle cx="999.9999853935" cy="-0.0000084149" r="2" />
	<circle cx="499.9999990513" cy="-839.5927614392" r="2" />
	<circle cx="500.0000020445" cy="-288.6751334198" r="2" />
	<circle cx="499.9999990938" cy="-864.9206743135" r="2" />
	<circle cx="500.0000000000" cy="-866.0063998322" r="2" />
	<circle cx="500.0002820371" cy="-288.6754610065" r="2" />
	<circle cx="500.0000000000" cy="-847.4294177310" r="2" />
	<circle cx="500.0000153534" cy="-288.6751150035" r="2" />
	<circle cx="500.0000652863" cy="-288.6751665284" r="2" />
	<circle cx="500.0001394182" cy="-288.6748362973" r="2" />
	<circle cx="8.3468689227" cy="-4.8190670195" r="2" />
	<circle cx="11.4617406394" cy="-6.6174464157" r="2" />
	<circle cx="499.9999049945" cy="-849.6308679017" r="2" />
	<circle cx="15.1761604349" cy="-8.7613788840" r="2" />
	<circle cx="500.0000014179" cy="-864.4736571910" r="2" />
	<circle cx="999.9999906219" cy="-0.0000054152" r="2" />
	<circle cx="499.9999553693" cy="-288.6751088324" r="2" />
	<circle cx="500.0004273593" cy="-288.6748944183" r="2" />
	<circle cx="500.0000096585" cy="-288.6751367480" r="2" />
	<circle cx="999.9609899758" cy="-0.0225224475" r="2" />
	<circle cx="499.9999868245" cy="-288.6751407878" r="2" />
	<circle cx="500.0000000000" cy="-288.6751351530" r="2" />
	<circle cx="993.6130192426" cy="-3.6875250802" r="2" />
	<circle cx="500.0001413077" cy="-288.6750515205" r="2" />
	<circle cx="999.9999997725" cy="-0.0000000198" r="2" />
	<circle cx="499.9995641823" cy="-288.6747417696" r="2" />
	<circle cx="500.0000012950" cy="-288.6752985158" r="2" />
	<circle cx="499.9999936277" cy="-852.7905220059" r="2" />
	<circle cx="500.0000000000" cy="-288.6747960196" r="2" />
	<circle cx="500.0001392088" cy="-288.6747294939" r="2" />
	<circle cx="500.0000025557" cy="-288.6751211818" r="2" />
	<circle cx="994.6759927352" cy="-3.0738205523" r="2" />
	<circle cx="499.9998557000" cy="-288.6748856785" r="2" />
	<circle cx="1.2163791798" cy="-0.5534224588" r="2" />
	<circle cx="500.0000030170" cy="-859.8777679215" r="2" />
	<circle cx="4.6137590130" cy="-2.6637550082" r="2" />
	<circle cx="994.6802760674" cy="-3.0713437076" r="2" />
	<circle cx="991.0616532811" cy="-5.1605545633" r="2" />
	<circle cx="2.2565206059" cy="-1.3028027793" r="2" />
	<circle cx="500.0000261991" cy="-288.6751497260" r="2" />
	<circle cx="499.9999809849" cy="-288.6750981206" r="2" />
	<circle cx="500.0001184459" cy="-288.6750662152" r="2" />
	<circle cx="500.0000000000" cy="-288.6757498161" r="2" />
	<circle cx="500.0000121264" cy="-288.6751415430" r="2" />
	<circle cx="0.0057768863" cy="-0.0033352850" r="2" />
	<circle cx="500.0000000050" cy="-866.0213008647" r="2" />
	<circle cx="500.0000000000" cy="-849.6388937944" r="2" />
	<circle cx="500.0000096585" cy="-288.6751367479" r="2" />
	<circle cx="499.9999903416" cy="-288.6751367480" r="2" />
	<circle cx="7.6110421830" cy="-4.3942372533" r="2" />
	<circle cx="500.0000000000" cy="-288.6747960196" r="2" />
	<circle cx="500.0000035015" cy="-864.9182711369" r="2" />
	<circle cx="499.9999999999" cy="-288.6749472044" r="2" />
	<circle cx="500.0000000000" cy="-866.0254037803" r="2" />
	<circle cx="500.0000517355" cy="-288.6751648935" r="2" />
	<circle cx="991.6995310577" cy="-4.7922504679" r="2" />
	<circle cx="20.2987606059" cy="-11.7207270010" r="2" />
	<circle cx="499.9998815541" cy="-288.6750662152" r="2" />
	<circle cx="499.9991652171" cy="-288.6746526379" r="2" />
	<circle cx="499.9999987050" cy="-288.6752985158" r="2" />
	<circle cx="500.0004181722" cy="-288.6750553945" r="2" />
	<circle cx="991.6966451977" cy="-4.7945299058" r="2" />
	<circle cx="5.3246240946" cy="-3.0748861320" r="2" />
	<circle cx="500.0000850188" cy="-861.6361643160" r="2" />
	<circle cx="499.9994496231" cy="-288.6752828041" r="2" />
	<circle cx="0.0024343817" cy="-0.0014054909" r="2" />
	<circle cx="499.9997210021" cy="-288.6751386161" r="2" />
	<circle cx="499.9995795634" cy="-288.6752165947" r="2" />
	<circle cx="499.9999557527" cy="-288.6751345549" r="2" />
	<circle cx="979.7010632671" cy="-11.7172959140" r="2" />
	<circle cx="499.9997001721" cy="-288.6748206864" r="2" />
	<circle cx="500.0000000000" cy="-288.6746244630" r="2" />
	<circle cx="2.2565206059" cy="-1.3028027793" r="2" />
	<circle cx="1.7310036401" cy="-0.9996444247" r="2" />
	<circle cx="499.9999999999" cy="-288.6747960196" r="2" />
	<circle cx="500.0001304257" cy="-288.6752099013" r="2" />
	<circle cx="0.0001435310" cy="-0.0000828455" r="2" />
	<circle cx="999.9999999986" cy="-0.0000000008" r="2" />
	<circle cx="500.0000128781" cy="-288.6751420352" r="2" />
	<circle cx="9.3339262623" cy="-5.3889448403" r="2" />
	<circle cx="999.8889249833" cy="-0.0641293635" r="2" />
	<circle cx="11.4666199675" cy="-6.6202633103" r="2" />
	<circle cx="500.0000000001" cy="-866.0187404257" r="2" />
	<circle cx="500.0000000000" cy="-866.0253908416" r="2" />
	<circle cx="499.9990259393" cy="-288.6745722258" r="2" />
	<circle cx="500.0000000000" cy="-863.3950064031" r="2" />
	<circle cx="500.0000000565" cy="-866.0253992543" r="2" />
	<circle cx="500.0000006078" cy="-288.6751250456" r="2" />
	<circle cx="500.0000000000" cy="-288.6751547124" r="2" />
	<circle cx="500.0000000000" cy="-866.0249864083" r="2" />
	<circle cx="7.1122951698" cy="-4.1066464834" r="2" />
	<circle cx="0.0390100286" cy="-0.0225224505" r="2" />
	<circle cx="499.9999970310" cy="-288.6751251615" r="2" />
	<circle cx="3.7939746768" cy="-2.1904523010" r="2" />
	<circle cx="991.6508884656" cy="-4.8203512245" r="2" />
	<circle cx="0.6975892056" cy="-0.5525084861" r="2" />
	<circle cx="500.0000000000" cy="-865.9803589060" r="2" />
	<circle cx="500.0004297433" cy="-288.6750465337" r="2" />
	<circle cx="500.0004208668" cy="-288.6748916124" r="2" />
	<circle cx="500.0002856364" cy="-288.6748184227" r="2" />
	<circle cx="999.9975487646" cy="-0.0014152213" r="2" />
	<circle cx="994.6738459792" cy="-3.0750601093" r="2" />
	<circle cx="500.0000000000" cy="-866.0225928185" r="2" />
	<circle cx="499.9999999930" cy="-866.0253306370" r="2" />
	<circle cx="499.9999997081" cy="-859.8827158793" r="2" />
	<circle cx="500.0000207801" cy="-288.6751465975" r="2" />
	<circle cx="499.9999999999" cy="-288.6751106051" r="2" />
	<circle cx="999.9998564416" cy="-0.0000828888" r="2" />
	<circle cx="0.0136965276" cy="-0.0079076940" r="2" />
	<circle cx="500.0000000000" cy="-866.0225948378" r="2" />
	<circle cx="990.2607140564" cy="-5.6256401087" r="2" />
	<circle cx="500.0001184459" cy="-288.6750662151" r="2" />
	<circle cx="499.9995751028" cy="-288.6753789746" r="2" />
	<circle cx="0.0057768847" cy="-0.0033352878" r="2" />
	<circle cx="12.4869443313" cy="-7.2093408627" r="2" />
	<circle cx="500.0000000475" cy="-865.9602067814" r="2" />
	<circle cx="499.9999878371" cy="-288.6751275777" r="2" />
	<circle cx="999.9435377018" cy="-0.0325984727" r="2" />
	<circle cx="500.0000130041" cy="-288.6751421079" r="2" />
	<circle cx="499.9999346600" cy="-288.6751665391" r="2" />
	<circle cx="4.6060314739" cy="-2.6658264697" r="2" />
	<circle cx="972.2883663927" cy="-15.9990014245" r="2" />
	<circle cx="500.0000207801" cy="-288.6751465975" r="2" />
	<circle cx="499.9998856615" cy="-288.6755496761" r="2" />
	<circle cx="0.0001435310" cy="-0.0000828455" r="2" />
	<circle cx="999.9999853935" cy="-0.0000084149" r="2" />
	<circle cx="500.0000641485" cy="-288.6750123355" r="2" />
	<circle cx="500.0000064964" cy="-288.6756203862" r="2" />
	<circle cx="499.9999922755" cy="-288.6751213942" r="2" />
	<circle cx="997.7440027504" cy="-1.3025006564" r="2" />
	<circle cx="0.0164678696" cy="-0.0095055102" r="2" />
	<circle cx="499.9999180634" cy="-864.4722583587" r="2" />
	<circle cx="500.0001299954" cy="-288.6745935827" r="2" />
	<circle cx="998.7836219068" cy="-0.5534205734" r="2" />
	<circle cx="500.0000009143" cy="-288.6751351279" r="2" />
	<circle cx="499.9999946028" cy="-288.6751349123" r="2" />
	<circle cx="500.0000000000" cy="-851.6095930141" r="2" />
	<circle cx="499.9999979090" cy="-288.6749750217" r="2" />
	<circle cx="1.2163791798" cy="-0.5534224588" r="2" />
	<circle cx="500.0001396482" cy="-288.6750557315" r="2" />
	<circle cx="500.0000000000" cy="-854.7750726851" r="2" />
	<circle cx="499.9999293051" cy="-288.6751733234" r="2" />
	<circle cx="499.9999793017" cy="-288.6751465502" r="2" />
	<circle cx="999.9942293483" cy="-0.0033316871" r="2" />
	<circle cx="499.9999792348" cy="-288.6751433073" r="2" />
	<circle cx="500.0000000000" cy="-288.6751347370" r="2" />
	<circle cx="500.0000001656" cy="-863.4225127342" r="2" />
	<circle cx="499.9998815542" cy="-288.6750662152" r="2" />
	<circle cx="992.3891075604" cy="-4.3944130811" r="2" />
	<circle cx="500.0000000001" cy="-288.6751346000" r="2" />
	<circle cx="5.3218633689" cy="-3.0725828398" r="2" />
	<circle cx="499.9999999943" cy="-866.0133390173" r="2" />
	<circle cx="500.0001656525" cy="-866.0246985869" r="2" />
	<circle cx="500.0000000000" cy="-866.0254002594" r="2" />
	<circle cx="499.9998856614" cy="-288.6755496761" r="2" />
	<circle cx="987.7376055007" cy="-7.0822799296" r="2" />
	<circle cx="999.0422395721" cy="-0.5529636504" r="2" />
	<circle cx="500.0001326405" cy="-288.6745780854" r="2" />
	<circle cx="997.8834090989" cy="-1.2220107035" r="2" />
	<circle cx="499.9996947357" cy="-288.6752969360" r="2" />
	<circle cx="999.9975454613" cy="-0.0014167473" r="2" />
	<circle cx="0.0024326329" cy="-0.0014044813" r="2" />
	<circle cx="1.2163780197" cy="-0.5534205734" r="2" />
	<circle cx="500.0000000000" cy="-866.0113259590" r="2" />
	<circle cx="0.0000003242" cy="-0.0000001872" r="2" />
	<circle cx="499.9999555437" cy="-288.6751089331" r="2" />
	<circle cx="500.0000036311" cy="-864.4698667935" r="2" />
	<circle cx="0.0121953256" cy="-0.0070409745" r="2" />
	<circle cx="999.9998596953" cy="-0.0000810048" r="2" />
	<circle cx="0.0008595869" cy="-0.0004962512" r="2" />
	<circle cx="999.9999616790" cy="-0.0000222295" r="2" />
	<circle cx="500.0005556480" cy="-288.6748098809" r="2" />
	<circle cx="500.0001371513" cy="-288.6752137843" r="2" />
	<circle cx="994.6802760674" cy="-3.0713437076" r="2" />
	<circle cx="500.0000020910" cy="-288.6749711060" r="2" />
	<circle cx="998.2691388837" cy="-0.9992816963" r="2" />
	<circle cx="499.9999792347" cy="-288.6751433072" r="2" />
	<circle cx="499.9999970926" cy="-288.6751250922" r="2" />
	<circle cx="500.0004319366" cy="-288.6753839787" r="2" />
	<circle cx="999.9996385281" cy="-0.0002086959" r="2" />
	<circle cx="500.0000000011" cy="-866.0253929810" r="2" />
	<circle cx="9.6124179438" cy="-5.5528437524" r="2" />
	<circle cx="499.9998605750" cy="-288.6751371200" r="2" />
	<circle cx="500.0003309687" cy="-288.6751650872" r="2" />
	<circle cx="999.9895470788" cy="-0.0060350033" r="2" />
	<circle cx="500.0000000000" cy="-288.6751106688" r="2" />
	<circle cx="997.7458299870" cy="-1.3014453893" r="2" />
	<circle cx="499.9999869960" cy="-288.6751226622" r="2" />
	<circle cx="500.0000029691" cy="-288.6751391182" r="2" />
	<circle cx="500.0001395408" cy="-288.6748945212" r="2" />
	<circle cx="500.0000819366" cy="-864.4722583781" r="2" />
	<circle cx="4.6116891817" cy="-2.6560270323" r="2" />
	<circle cx="500.0000706662" cy="-288.6751749436" r="2" />
	<circle cx="1.6122946983" cy="-0.7915080663" r="2" />
	<circle cx="500.0000261991" cy="-288.6751497261" r="2" />
	<circle cx="500.0000000000" cy="-847.3148040500" r="2" />
	<circle cx="999.9435639859" cy="-0.0325832388" r="2" />
	<circle cx="500.0000000000" cy="-288.6747960196" r="2" />
	<circle cx="0.0000000962" cy="-0.0000000555" r="2" />
	<circle cx="12.4869443313" cy="-7.2093408627" r="2" />
	<circle cx="0.0121931214" cy="-0.0070397019" r="2" />
	<circle cx="500.0000000000" cy="-851.6067235623" r="2" />
	<circle cx="499.9999846466" cy="-288.6751345056" r="2" />
	<circle cx="999.9999853681" cy="-0.0000084434" r="2" />
	<circle cx="499.9999999802" cy="-866.0253869358" r="2" />
	<circle cx="499.9999999999" cy="-288.6751081953" r="2" />
	<circle cx="500.0000000000" cy="-847.4430596625" r="2" />
	<circle cx="992.8887282339" cy="-4.1056410753" r="2" />
	<circle cx="2.2559972177" cy="-1.3025006010" r="2" />
	<circle cx="500.0000000000" cy="-851.6067235623" r="2" />
	<circle cx="991.6464274556" cy="-4.8229271705" r="2" />
	<circle cx="500.0002321141" cy="-866.0240084572" r="2" />
	<circle cx="8.3468689928" cy="-4.8190670600" r="2" />
	<circle cx="500.0000000000" cy="-851.6124832217" r="2" />
	<circle cx="994.6759912138" cy="-3.0738153380" r="2" />
	<circle cx="500.0000000000" cy="-866.0254037264" r="2" />
	<circle cx="987.5155406946" cy="-7.2079053860" r="2" />
	<circle cx="19.4636632260" cy="-11.2373398656" r="2" />
	<circle cx="499.9999945851" cy="-288.6751349274" r="2" />
	<circle cx="499.9994348643" cy="-288.6751393976" r="2" />
	<circle cx="499.9955483364" cy="-849.6977390079" r="2" />
	<circle cx="994.6760621513" cy="-3.0736889909" r="2" />
	<circle cx="994.6781382201" cy="-3.0725795607" r="2" />
	<circle cx="499.9999999315" cy="-851.6009669474" r="2" />
	<circle cx="9.1099487518" cy="-5.2596313642" r="2" />
	<circle cx="499.9996537840" cy="-854.9194154871" r="2" />
	<circle cx="996.2039854994" cy="-2.1916284900" r="2" />
	<circle cx="500.0001295864" cy="-288.6747341147" r="2" />
	<circle cx="981.8472125868" cy="-10.4798425062" r="2" />
	<circle cx="999.9999999038" cy="-0.0000000555" r="2" />
	<circle cx="499.9998603518" cy="-288.6750573757" r="2" />
	<circle cx="499.9999999602" cy="-866.0252380919" r="2" />
	<circle cx="500.0002691318" cy="-288.6756267004" r="2" />
	<circle cx="500.0000020563" cy="-288.6751334128" r="2" />
	<circle cx="499.9999793849" cy="-288.6751465022" r="2" />
	<circle cx="500.0000183013" cy="-288.6751373236" r="2" />
	<circle cx="1.6042671761" cy="-0.7775650659" r="2" />
	<circle cx="25.6558127447" cy="-14.8123903947" r="2" />
	<circle cx="997.7421715905" cy="-1.3035577852" r="2" />
	<circle cx="499.9993036223" cy="-288.6747259417" r="2" />
	<circle cx="499.9999999999" cy="-866.0225928187" r="2" />
	<circle cx="8.3491024256" cy="-4.8203673949" r="2" />
	<circle cx="500.0002715576" cy="-288.6752913839" r="2" />
	<circle cx="499.9999907057" cy="-288.6751576946" r="2" />
	<circle cx="0.0024512257" cy="-0.0014152158" r="2" />
	<circle cx="499.9995974527" cy="-288.6755479552" r="2" />
	<circle cx="500.0000000000" cy="-288.6752689547" r="2" />
	<circle cx="500.0002724222" cy="-288.6749669928" r="2" />
	<circle cx="500.0001413077" cy="-288.6750515205" r="2" />
	<circle cx="500.0002856425" cy="-288.6754592612" r="2" />
	<circle cx="499.9999882696" cy="-849.8882609619" r="2" />
	<circle cx="991.0664269704" cy="-5.1577970762" r="2" />
	<circle cx="500.0000207250" cy="-288.6751465655" r="2" />
	<circle cx="0.0057766550" cy="-0.0033348851" r="2" />
	<circle cx="14.1415940860" cy="-8.1670943632" r="2" />
	<circle cx="499.9997013746" cy="-288.6753109126" r="2" />
	<circle cx="993.1632692475" cy="-3.9471883410" r="2" />
	<circle cx="499.9995847699" cy="-288.6752198572" r="2" />
	<circle cx="1.2163791798" cy="-0.5534224588" r="2" />
	<circle cx="0.0390100297" cy="-0.0225224515" r="2" />
	<circle cx="499.9998607912" cy="-288.6747294938" r="2" />
	<circle cx="500.0000261282" cy="-288.6751496851" r="2" />
	<circle cx="989.0032234215" cy="-6.3465821954" r="2" />
	<circle cx="990.6682102260" cy="-5.3854138448" r="2" />
	<circle cx="499.9999970310" cy="-288.6751251616" r="2" />
	<circle cx="499.9999999476" cy="-865.9803589892" r="2" />
	<circle cx="499.8703067122" cy="-865.1450221797" r="2" />
	<circle cx="0.0000000000" cy="-0.0000000000" r="2" />
	<circle cx="499.9999483287" cy="-288.6751509599" r="2" />
	<circle cx="499.9999989601" cy="-288.6751352004" r="2" />
	<circle cx="499.9997221538" cy="-288.6754596639" r="2" />
	<circle cx="993.6119236998" cy="-3.6887635038" r="2" />
	<circle cx="500.0000000000" cy="-832.9020524876" r="2" />
	<circle cx="0.0238161595" cy="-0.0137502661" r="2" />
	<circle cx="0.0000501261" cy="-0.0000289677" r="2" />
	<circle cx="0.0390311206" cy="-0.0225346024" r="2" />
	<circle cx="14.7694862181" cy="-8.5271668440" r="2" />
	<circle cx="500.0002105216" cy="-288.6754167423" r="2" />
	<circle cx="499.9994392627" cy="-288.6751216249" r="2" />
	<circle cx="500.0000000000" cy="-866.0254002607" r="2" />
	<circle cx="499.9999970733" cy="-859.8777689313" r="2" />
	<circle cx="500.0000000000" cy="-855.5061746540" r="2" />
	<circle cx="990.6666670959" cy="-5.3879040801" r="2" />
	<circle cx="974.3445220282" cy="-14.8123957029" r="2" />
	<circle cx="0.0705443444" cy="-0.0407287962" r="2" />
	<circle cx="500.0000131755" cy="-288.6751314745" r="2" />
	<circle cx="500.0000000000" cy="-865.8971455886" r="2" />
	<circle cx="500.0000000000" cy="-288.6751081951" r="2" />
	<circle cx="990.8903761910" cy="-5.2595890387" r="2" />
	<circle cx="2.2724500291" cy="-1.3046009866" r="2" />
	<circle cx="0.0057766550" cy="-0.0033348851" r="2" />
	<circle cx="999.8393467329" cy="-0.0927532688" r="2" />
	<circle cx="996.8016883234" cy="-1.8457902199" r="2" />
	<circle cx="499.9998616564" cy="-288.6747314669" r="2" />
	<circle cx="499.9997612180" cy="-863.4199904572" r="2" />
	<circle cx="499.9998652011" cy="-288.6750533722" r="2" />
	<circle cx="0.0164659481" cy="-0.0095088383" r="2" />
	<circle cx="499.9998815541" cy="-288.6750662152" r="2" />
	<circle cx="2.2541698894" cy="-1.3014451746" r="2" />
	<circle cx="997.7458299870" cy="-1.3014453893" r="2" />
	<circle cx="500.0000000000" cy="-288.6757498161" r="2" />
	<circle cx="500.0000000000" cy="-288.6751375150" r="2" />
	<circle cx="500.0121058405" cy="-857.8397030885" r="2" />
	<circle cx="0.0008595595" cy="-0.0004962984" r="2" />
	<circle cx="499.9931414667" cy="-860.7122482344" r="2" />
	<circle cx="499.9999999999" cy="-288.6746505669" r="2" />
	<circle cx="999.9942293483" cy="-0.0033316871" r="2" />
	<circle cx="500.0000417707" cy="-288.6751645011" r="2" />
	<circle cx="993.1588757683" cy="-3.9497311609" r="2" />
	<circle cx="499.9999999838" cy="-851.6067208833" r="2" />
	<circle cx="0.0000000171" cy="-0.0000000099" r="2" />
	<circle cx="499.9998603448" cy="-288.6753796487" r="2" />
	<circle cx="999.9999616790" cy="-0.0000222295" r="2" />
	<circle cx="500.0000000000" cy="-288.6751346000" r="2" />
	<circle cx="499.9999999985" cy="-866.0253929726" r="2" />
	<circle cx="500.0000338967" cy="-866.0033900272" r="2" />
	<circle cx="500.0000030513" cy="-288.6754612519" r="2" />
	<circle cx="500.0000096585" cy="-288.6751367480" r="2" />
	<circle cx="18.1502116370" cy="-10.4790295746" r="2" />
	<circle cx="500.0000000000" cy="-857.2364661446" r="2" />
	<circle cx="992.3895254915" cy="-4.3928604940" r="2" />
	<circle cx="500.0000000000" cy="-288.6756154552" r="2" />
	<circle cx="986.0237766469" cy="-8.0685773594" r="2" />
	<circle cx="999.9999975166" cy="-0.0000007563" r="2" />
	<circle cx="500.0001391022" cy="-288.6745680278" r="2" />
	<circle cx="500.0000099562" cy="-288.6751380292" r="2" />
	<circle cx="500.0000000000" cy="-859.8827155684" r="2" />
	<circle cx="500.0097012364" cy="-863.3994159486" r="2" />
	<circle cx="0.0008581418" cy="-0.0004954484" r="2" />
	<circle cx="8.3524034012" cy="-4.8235005402" r="2" />
	<circle cx="993.1566682010" cy="-3.9509926951" r="2" />
	<circle cx="500.0000207801" cy="-288.6751465975" r="2" />
	<circle cx="987.5180461478" cy="-7.2064603002" r="2" />
	<circle cx="16.8028144394" cy="-9.7015393915" r="2" />
	<circle cx="14.1944761864" cy="-8.1951846473" r="2" />
	<circle cx="499.9995745345" cy="-288.6750546075" r="2" />
	<circle cx="0.0000003242" cy="-0.0000001872" r="2" />
	<circle cx="500.0000000000" cy="-858.9725747679" r="2" />
	<circle cx="0.0000030651" cy="-0.0000017696" r="2" />
	<circle cx="500.0001381662" cy="-288.6753789829" r="2" />
	<circle cx="0.0024512356" cy="-0.0014152215" r="2" />
	<circle cx="0.0705748042" cy="-0.0407463357" r="2" />
	<circle cx="500.0005361837" cy="-288.6748289497" r="2" />
	<circle cx="500.0000000000" cy="-288.6751369261" r="2" />
	<circle cx="0.1606027962" cy="-0.0927240676" r="2" />
	<circle cx="500.0001394550" cy="-288.6753193421" r="2" />
	<circle cx="499.9991585831" cy="-288.6746461225" r="2" />
  </g>
  <g id="fig2" transform="translate(-550.0,1000)">
	<polygon points="0.0,-0.0 1000.0,-0.0 500.0,-866.0254038" />
	<line
	   id="line2-1"
	   y2="-0.0"
	   x2="500"
	   y1="-288.6751346"
	   x1="500" />
	<line
	   id="line2-2"
	   y2="-433.0127019"
	   x2="250"
	   y1="-288.6751346"
	   x1="500" />
	<line
	   id="line2-3"
	   y2="-433.0127019"
	   x2="750"
	   y1="-288.6751346"
	   x1="500" />
	<text
	   x="440"
	   y="-500"
	   id="up_2">32.0%</text>
	<text
	   x="250"
	   y="-150"
	   id="down_left_2">34.6%</text>
	<text
	   x="630"
	   y="-150"
	   id="down_right_2">33.4%</text>
  </g>
  <g id="fig3" transform="translate(550,1000)">
	<polygon points="0.0,-0.0 1000.0,-0.0 500.0,-866.0254038" />
	<polygon id="triangle3b" points="250,-144.3375673 750,-144.3375673 500,-577.3502692" />
	<line
	   id="line3-1"
	   x1="125"
	   y1="-216.5063509"
	   x2="250"
	   y2="-144.3375673" />
	<line
	   id="line3-2"
	   x1="375"
	   y1="-649.5190528"
	   x2="500"
	   y2="-577.3502692" />
	<line
	   id="line3-3"
	   x1="625"
	   y1="-649.5190528"
	   x2="500"
	   y2="-577.3502692" />
	<line
	   id="line3-4"
	   x1="875"
	   y1="-216.5063509"
	   x2="750"
	   y2="-144.3375673" />
	<line
	   id="line3-5"
	   x1="750"
	   y1="-0.0"
	   x2="750"
	   y2="-144.3375673" />
	<line
	   id="line3-6"
	   x1="250"
	   y1="-0.0"
	   x2="250"
	   y2="-144.3375673" />
	<text
	   x="500"
	   y="-660"
	   text-anchor="middle"
	   id="up_3">19.0%</text>
	<text
	   y="-50"
	   x="70"
	   id="down_left_3">19.8%</text>
	<text
	   y="-50"
	   x="770"
	   id="down_right_3">18.4%</text>
	<text
	   x="500"
	   y="-50"
	   text-anchor="middle"
	   id="down_side_3">0.0%</text>
	<text
	   x="500"
	   y="-280"
	   text-anchor="middle"
	   id="center_3">42.8%</text>
	<text
	   x="685.0"
	   y="-390.8439"
	   text-anchor="middle"
	   transform="rotate(60,665.0,-380.8439)"
	   id="right_side_3">0.0%</text>
	<text
	   x="315.0"
	   y="-390.8439"
	   text-anchor="middle"
	   transform="rotate(-60,335.0,-380.8439)"
	   id="left_side_3">0.0%</text>
  </g>
</g></g>
</svg>
