<?xml version="1.0" encoding="UTF-8" standalone="no"?>
<!DOCTYPE svg PUBLIC "-//W3C//DTD SVG 1.1//EN" "http://www.w3.org/Graphics/SVG/1.1/DTD/svg11.dtd">
<svg
   xmlns:svg="http://www.w3.org/2000/svg"
   xmlns="http://www.w3.org/2000/svg"
   xmlns:xlink="http://www.w3.org/1999/xlink"
   version="1.1"
   baseProfile="full"
   id="body"
   width="800px"
   height="800px"
   viewBox="0 0 1000 1000"
   preserveAspectRatio="none">
  <defs>
    <style type="text/css"><![CDATA[
      circle{ stroke: none; }
      polygon{ stroke: black; stroke-width: 2px; fill: none; }
      line{ stroke: black; stroke-width: 2px; }
      text{ font-size:50px; }
    ]]></style>
  </defs>
  <title
     id="title1">SVG drawing</title>
<g transform="scale(0.45)"><g transform="translate(600,1050)">
  <g id="fig1">
	<polygon points="0.0,-0.0 1000.0,-0.0 500,-866.0254038" />
	<circle cx="999.9943896886" cy="-0.0032389059" r="2" />
	<circle cx="1000.0000000000" cy="-0.0000000000" r="2" />
	<circle cx="500.0000000000" cy="-866.0254038000" r="2" />
	<circle cx="499.7761547905" cy="-864.1978262064" r="2" />
	<circle cx="500.0000000000" cy="-866.0254037975" r="2" />
	<circle cx="999.9932189243" cy="-0.0033880567" r="2" />
	<circle cx="90.7427838761" cy="-53.2785798973" r="2" />
	<circle cx="0.0000000000" cy="-0.0000000000" r="2" />
	<circle cx="500.0000000000" cy="-866.0254037999" r="2" />
	<circle cx="500.0144663249" cy="-865.8575698743" r="2" />
	<circle cx="862.4621776536" cy="-113.5808730112" r="2" />
	<circle cx="499.8789114827" cy="-288.7658484608" r="2" />
	<circle cx="1000.0000000000" cy="-0.0000000000" r="2" />
	<circle cx="395.4551567535" cy="-228.2236633396" r="2" />
	<circle cx="307.9328695791" cy="-177.7833380830" r="2" />
	<circle cx="0.0000000000" cy="-0.0000000000" r="2" />
	<circle cx="500.0000000000" cy="-866.0254038000" r="2" />
	<circle cx="999.9999999916" cy="-0.0000000049" r="2" />
	<circle cx="500.0000000000" cy="-866.0254038000" r="2" />
	<circle cx="0.0000000000" cy="-0.0000000000" r="2" />
	<circle cx="999.9999999875" cy="-0.0000000072" r="2" />
	<circle cx="1.6269666363" cy="-0.3094877444" r="2" />
	<circle cx="999.2301036621" cy="-0.4445611497" r="2" />
	<circle cx="500.0000000000" cy="-866.0254038000" r="2" />
	<circle cx="999.9999994244" cy="-0.0000001544" r="2" />
	<circle cx="0.0000000000" cy="-0.0000000000" r="2" />
	<circle cx="0.0000000285" cy="-0.0000000023" r="2" />
	<circle cx="499.9999999854" cy="-866.0238973316" r="2" />
	<circle cx="500.0000000000" cy="-866.0254038000" r="2" />
	<circle cx="435.4779053654" cy="-255.9935523280" r="2" />
	<circle cx="500.0000000000" cy="-866.0254038000" r="2" />
	<circle cx="500.0000000000" cy="-866.0254038000" r="2" />
	<circle cx="500.0018704918" cy="-865.8481508488" r="2" />
	<circle cx="999.9999995992" cy="-0.0000002822" r="2" />
	<circle cx="365.6463446939" cy="-207.9240109614" r="2" />
	<circle cx="496.9394841807" cy="-759.8055772459" r="2" />
	<circle cx="500.1181669502" cy="-864.0152375789" r="2" />
	<circle cx="999.9977712565" cy="-0.0012882256" r="2" />
	<circle cx="998.8544191422" cy="-0.7249394501" r="2" />
	<circle cx="500.0000014198" cy="-866.0250453348" r="2" />
	<circle cx="25.9184985555" cy="-16.0436360892" r="2" />
	<circle cx="0.0000000000" cy="-0.0000000000" r="2" />
	<circle cx="500.0000000000" cy="-866.0254038000" r="2" />
	<circle cx="500.0892657644" cy="-379.9907330993" r="2" />
	<circle cx="190.8014839679" cy="-119.8575303428" r="2" />
	<circle cx="705.0747384497" cy="-188.5650547359" r="2" />
	<circle cx="0.1585931262" cy="-0.0915014121" r="2" />
	<circle cx="636.0699544038" cy="-209.9904146894" r="2" />
	<circle cx="500.0000000000" cy="-866.0254038000" r="2" />
	<circle cx="0.0000000000" cy="-0.0000000000" r="2" />
	<circle cx="500.0000000000" cy="-866.0254037999" r="2" />
	<circle cx="0.0007980021" cy="-0.0004607641" r="2" />
	<circle cx="990.3705703142" cy="-7.8084047338" r="2" />
	<circle cx="0.0000000000" cy="-0.0000000000" r="2" />
	<circle cx="0.0016135218" cy="-0.0009317184" r="2" />
	<circle cx="0.0000000000" cy="-0.0000000000" r="2" />
	<circle cx="0.0000000000" cy="-0.0000000000" r="2" />
	<circle cx="499.9797563069" cy="-865.3098253510" r="2" />
	<circle cx="532.4640226832" cy="-270.1289864310" r="2" />
	<circle cx="999.9999999939" cy="-0.0000000041" r="2" />
	<circle cx="0.0196157170" cy="-0.0113212485" r="2" />
	<circle cx="999.9999999875" cy="-0.0000000072" r="2" />
	<circle cx="105.0042791075" cy="-60.6487185352" r="2" />
	<circle cx="1000.0000000000" cy="-0.0000000000" r="2" />
	<circle cx="943.8054233055" cy="-38.7448142874" r="2" />
	<circle cx="500.0037249360" cy="-844.9709287473" r="2" />
	<circle cx="497.6611334838" cy="-287.1976102051" r="2" />
	<circle cx="0.0000000000" cy="-0.0000000000" r="2" />
	<circle cx="0.6723126884" cy="-0.3882464287" r="2" />
	<circle cx="542.8282440283" cy="-507.5514327713" r="2" />
	<circle cx="500.0000000000" cy="-866.0254037998" r="2" />
	<circle cx="495.2652727102" cy="-645.2489371452" r="2" />
	<circle cx="996.6698220765" cy="-2.1470693524" r="2" />
	<circle cx="270.7154414035" cy="-156.2639659203" r="2" />
	<circle cx="495.7452972662" cy="-792.0051043882" r="2" />
	<circle cx="141.0092439388" cy="-81.3041278378" r="2" />
	<circle cx="501.4776155693" cy="-614.7025873799" r="2" />
	<circle cx="474.4827422703" cy="-774.6264834295" r="2" />
	<circle cx="419.0894850511" cy="-241.9954038450" r="2" />
	<circle cx="999.9999984698" cy="-0.0000008832" r="2" />
	<circle cx="1000.0000000000" cy="-0.0000000000" r="2" />
	<circle cx="0.0000000231" cy="-0.0000000133" r="2" />
	<circle cx="136.2730992800" cy="-78.7457050549" r="2" />
	<circle cx="1000.0000000000" cy="-0.0000000000" r="2" />
	<circle cx="1000.0000000000" cy="-0.0000000000" r="2" />
	<circle cx="975.2771614655" cy="-11.3211098792" r="2" />
	<circle cx="0.0000000282" cy="-0.0000000164" r="2" />
	<circle cx="0.0000000000" cy="-0.0000000000" r="2" />
	<circle cx="0.0000003594" cy="-0.0000001867" r="2" />
	<circle cx="160.3825766030" cy="-87.2282958021" r="2" />
	<circle cx="0.0000000000" cy="-0.0000000000" r="2" />
	<circle cx="0.0000000000" cy="-0.0000000000" r="2" />
	<circle cx="0.0000000000" cy="-0.0000000000" r="2" />
	<circle cx="536.0308212407" cy="-263.2869399166" r="2" />
	<circle cx="366.9448738874" cy="-290.6015725914" r="2" />
	<circle cx="996.7553719149" cy="-2.0224354232" r="2" />
	<circle cx="0.0054438945" cy="-0.0031446831" r="2" />
	<circle cx="500.0000000000" cy="-866.0254038000" r="2" />
	<circle cx="1000.0000000000" cy="-0.0000000000" r="2" />
	<circle cx="538.9053690189" cy="-415.6612719992" r="2" />
	<circle cx="5.8843660867" cy="-6.3208134055" r="2" />
	<circle cx="500.0000000000" cy="-866.0254038000" r="2" />
	<circle cx="0.0001911655" cy="-0.0001104168" r="2" />
	<circle cx="0.0126130794" cy="-0.0063490600" r="2" />
	<circle cx="0.0000000000" cy="-0.0000000000" r="2" />
	<circle cx="0.0000000000" cy="-0.0000000000" r="2" />
	<circle cx="500.0000000007" cy="-866.0253978520" r="2" />
	<circle cx="1000.0000000000" cy="-0.0000000000" r="2" />
	<circle cx="1000.0000000000" cy="-0.0000000000" r="2" />
	<circle cx="0.0000000000" cy="-0.0000000000" r="2" />
	<circle cx="499.9615228506" cy="-559.8977474184" r="2" />
	<circle cx="499.9989832958" cy="-855.6180207639" r="2" />
	<circle cx="1000.0000000000" cy="-0.0000000000" r="2" />
	<circle cx="499.9238629759" cy="-288.7634508438" r="2" />
	<circle cx="999.8769598008" cy="-0.0710384115" r="2" />
	<circle cx="619.9862568062" cy="-186.7531724220" r="2" />
	<circle cx="499.9999979198" cy="-865.9717984507" r="2" />
	<circle cx="786.1266845436" cy="-160.1262344106" r="2" />
	<circle cx="501.5011534011" cy="-815.8838438669" r="2" />
	<circle cx="1000.0000000000" cy="-0.0000000000" r="2" />
	<circle cx="999.9999997823" cy="-0.0000001258" r="2" />
	<circle cx="998.2787408439" cy="-0.8429250674" r="2" />
	<circle cx="0.0000000000" cy="-0.0000000000" r="2" />
	<circle cx="499.9999999962" cy="-866.0254037443" r="2" />
	<circle cx="420.7277845060" cy="-242.8592314035" r="2" />
	<circle cx="664.6377513993" cy="-256.6665733804" r="2" />
	<circle cx="999.9992964623" cy="-0.0003833582" r="2" />
	<circle cx="0.2117943477" cy="-0.0936522273" r="2" />
	<circle cx="500.0000000000" cy="-866.0254038000" r="2" />
	<circle cx="500.0000000000" cy="-866.0254038000" r="2" />
	<circle cx="472.6741105754" cy="-252.0382120727" r="2" />
	<circle cx="0.1835859280" cy="-0.1068371882" r="2" />
	<circle cx="1000.0000000000" cy="-0.0000000000" r="2" />
	<circle cx="758.0026091990" cy="-144.6188204517" r="2" />
	<circle cx="1000.0000000000" cy="-0.0000000000" r="2" />
	<circle cx="500.0000000000" cy="-866.0254038000" r="2" />
	<circle cx="0.0000000000" cy="-0.0000000000" r="2" />
	<circle cx="500.0000000012" cy="-866.0253778533" r="2" />
	<circle cx="316.0381160677" cy="-224.7356823790" r="2" />
	<circle cx="599.8870819422" cy="-216.8773117852" r="2" />
	<circle cx="1000.0000000000" cy="-0.0000000000" r="2" />
	<circle cx="500.0000000000" cy="-866.0254038000" r="2" />
	<circle cx="503.3277924656" cy="-338.4665114531" r="2" />
	<circle cx="159.0058260145" cy="-54.1685308114" r="2" />
	<circle cx="499.6991027282" cy="-865.1862862757" r="2" />
	<circle cx="0.0000000000" cy="-0.0000000000" r="2" />
	<circle cx="0.0000000000" cy="-0.0000000000" r="2" />
	<circle cx="500.0000012687" cy="-866.0203147596" r="2" />
	<circle cx="0.0000000000" cy="-0.0000000000" r="2" />
	<circle cx="499.9681617258" cy="-363.9546523222" r="2" />
	<circle cx="500.0000000000" cy="-866.0254038000" r="2" />
	<circle cx="1000.0000000000" cy="-0.0000000000" r="2" />
	<circle cx="0.0000000001" cy="-0.0000000000" r="2" />
	<circle cx="0.0000000000" cy="-0.0000000000" r="2" />
	<circle cx="164.7664030098" cy="-95.0674722416" r="2" />
	<circle cx="500.0000000000" cy="-866.0253993137" r="2" />
	<circle cx="570.8756074269" cy="-424.7796649112" r="2" />
	<circle cx="1000.0000000000" cy="-0.0000000000" r="2" />
	<circle cx="0.0163388118" cy="-0.0097639489" r="2" />
	<circle cx="500.0000000561" cy="-866.0252644393" r="2" />
	<circle cx="950.9743774091" cy="-7.8399301573" r="2" />
	<circle cx="268.7541963216" cy="-154.0106833667" r="2" />
	<circle cx="133.4720709379" cy="-214.4805944924" r="2" />
	<circle cx="500.0231015715" cy="-295.5244337715" r="2" />
	<circle cx="500.0000162681" cy="-865.8568915633" r="2" />
	<circle cx="0.0240125566" cy="-0.0136906075" r="2" />
	<circle cx="500.0000000000" cy="-866.0254038000" r="2" />
	<circle cx="500.0000000000" cy="-866.0254038000" r="2" />
	<circle cx="1.7962304817" cy="-0.8281249981" r="2" />
	<circle cx="411.3872172481" cy="-250.1899412975" r="2" />
	<circle cx="0.2133918066" cy="-0.0964394321" r="2" />
	<circle cx="999.0446093740" cy="-0.5143120422" r="2" />
	<circle cx="500.0000000000" cy="-866.0254038000" r="2" />
	<circle cx="475.2104092989" cy="-274.4578706259" r="2" />
	<circle cx="999.9999999719" cy="-0.0000000164" r="2" />
	<circle cx="137.6859687452" cy="-106.8463953957" r="2" />
	<circle cx="0.0000000000" cy="-0.0000000000" r="2" />
	<circle cx="1000.0000000000" cy="-0.0000000000" r="2" />
	<circle cx="4.3300099622" cy="-2.7571280592" r="2" />
	<circle cx="0.0000000000" cy="-0.0000000000" r="2" />
	<circle cx="0.0000607788" cy="-0.0000351028" r="2" />
	<circle cx="500.0000000000" cy="-866.0254038000" r="2" />
	<circle cx="585.8990413780" cy="-239.8868546644" r="2" />
	<circle cx="1000.0000000000" cy="-0.0000000000" r="2" />
	<circle cx="475.0734229083" cy="-274.1937260481" r="2" />
	<circle cx="500.0000000000" cy="-866.0254038000" r="2" />
	<circle cx="0.0000000000" cy="-0.0000000000" r="2" />
	<circle cx="0.0000000000" cy="-0.0000000000" r="2" />
	<circle cx="500.0000000000" cy="-866.0254038000" r="2" />
	<circle cx="499.9999999618" cy="-866.0251123656" r="2" />
	<circle cx="999.9212785779" cy="-0.0454144968" r="2" />
	<circle cx="1000.0000000000" cy="-0.0000000000" r="2" />
	<circle cx="999.9867158379" cy="-0.0066065943" r="2" />
	<circle cx="760.6777212784" cy="-136.5898013194" r="2" />
	<circle cx="932.6566130892" cy="-17.9919876392" r="2" />
	<circle cx="499.3553653356" cy="-522.4076789693" r="2" />
	<circle cx="500.5456524172" cy="-864.4611050826" r="2" />
	<circle cx="361.0569042894" cy="-16.9164952987" r="2" />
	<circle cx="496.4882999610" cy="-843.1347771911" r="2" />
	<circle cx="496.2180445587" cy="-277.3521697723" r="2" />
	<circle cx="0.0000000000" cy="-0.0000000000" r="2" />
	<circle cx="0.0000000000" cy="-0.0000000000" r="2" />
	<circle cx="999.9979131640" cy="-0.0012046019" r="2" />
	<circle cx="629.7167045808" cy="-162.5483433861" r="2" />
	<circle cx="486.7115420833" cy="-261.8482429057" r="2" />
	<circle cx="0.0000000000" cy="-0.0000000000" r="2" />
	<circle cx="3.9816062036" cy="-1.6752149758" r="2" />
	<circle cx="500.0000000000" cy="-866.0254037999" r="2" />
	<circle cx="500.0000000000" cy="-866.0254038000" r="2" />
	<circle cx="0.0000000000" cy="-0.0000000000" r="2" />
	<circle cx="557.2396897091" cy="-326.3222517403" r="2" />
	<circle cx="0.0000000000" cy="-0.0000000000" r="2" />
	<circle cx="1000.0000000000" cy="-0.0000000000" r="2" />
	<circle cx="498.4203525121" cy="-328.6944959264" r="2" />
	<circle cx="500.0000000000" cy="-866.0254037931" r="2" />
	<circle cx="500.2253896334" cy="-288.8135427461" r="2" />
	<circle cx="341.7057747934" cy="-237.7011578878" r="2" />
	<circle cx="1000.0000000000" cy="-0.0000000000" r="2" />
	<circle cx="1000.0000000000" cy="-0.0000000000" r="2" />
	<circle cx="999.9999994674" cy="-0.0000003076" r="2" />
	<circle cx="999.9697641899" cy="-0.0152496634" r="2" />
	<circle cx="500.0000000000" cy="-866.0254038000" r="2" />
	<circle cx="463.3132017465" cy="-329.2899842551" r="2" />
	<circle cx="500.0000985029" cy="-865.7466437555" r="2" />
	<circle cx="500.0000000000" cy="-866.0254038000" r="2" />
	<circle cx="500.0735335481" cy="-708.3933598693" r="2" />
	<circle cx="0.0000000000" cy="-0.0000000000" r="2" />
	<circle cx="804.3225381912" cy="-75.8893747449" r="2" />
	<circle cx="1000.0000000000" cy="-0.0000000000" r="2" />
	<circle cx="473.8846995498" cy="-273.6909754717" r="2" />
	<circle cx="0.0000000004" cy="-0.0000000003" r="2" />
	<circle cx="670.1225471313" cy="-190.5335210083" r="2" />
	<circle cx="499.9804007505" cy="-865.0937477801" r="2" />
	<circle cx="999.9272839515" cy="-0.0420372907" r="2" />
	<circle cx="568.8454684950" cy="-248.8669803860" r="2" />
	<circle cx="995.6691261062" cy="-2.7606161131" r="2" />
	<circle cx="0.0327154721" cy="-0.0011653543" r="2" />
	<circle cx="999.9999858685" cy="-0.0000081614" r="2" />
	<circle cx="24.4008989578" cy="-15.3962156840" r="2" />
	<circle cx="0.0000000000" cy="-0.0000000000" r="2" />
	<circle cx="505.7377570572" cy="-288.9703145097" r="2" />
	<circle cx="466.1370999010" cy="-267.2974328608" r="2" />
	<circle cx="9.4391417188" cy="-5.4738207972" r="2" />
	<circle cx="0.0000000000" cy="-0.0000000000" r="2" />
	<circle cx="310.4353160952" cy="-214.3577536583" r="2" />
	<circle cx="0.0547583616" cy="-0.0427898030" r="2" />
	<circle cx="500.0000000000" cy="-866.0254038000" r="2" />
	<circle cx="405.6001513241" cy="-626.7703153250" r="2" />
	<circle cx="500.0000000000" cy="-866.0254038000" r="2" />
	<circle cx="500.1916186077" cy="-864.1799416839" r="2" />
	<circle cx="651.0166967236" cy="-212.8440934716" r="2" />
	<circle cx="470.0484912001" cy="-251.4565562313" r="2" />
	<circle cx="0.0000000000" cy="-0.0000000000" r="2" />
	<circle cx="500.0000000000" cy="-866.0254036709" r="2" />
	<circle cx="634.7582589525" cy="-251.2577105370" r="2" />
	<circle cx="0.0000000000" cy="-0.0000000000" r="2" />
	<circle cx="1000.0000000000" cy="-0.0000000000" r="2" />
	<circle cx="0.4626349446" cy="-0.4250264324" r="2" />
	<circle cx="0.0000000076" cy="-0.0000000044" r="2" />
	<circle cx="925.0537503890" cy="-43.2892333604" r="2" />
	<circle cx="414.8484869464" cy="-239.4641775196" r="2" />
	<circle cx="169.9650854131" cy="-74.5260394852" r="2" />
	<circle cx="1000.0000000000" cy="-0.0000000000" r="2" />
	<circle cx="1000.0000000000" cy="-0.0000000000" r="2" />
	<circle cx="1000.0000000000" cy="-0.0000000000" r="2" />
	<circle cx="0.0366813368" cy="-0.0214018249" r="2" />
	<circle cx="500.0000000000" cy="-866.0254037966" r="2" />
	<circle cx="37.8574807242" cy="-1.3966307750" r="2" />
	<circle cx="981.6751563383" cy="-10.5760227923" r="2" />
	<circle cx="958.7873476887" cy="-59.1225162838" r="2" />
	<circle cx="1000.0000000000" cy="-0.0000000000" r="2" />
	<circle cx="1000.0000000000" cy="-0.0000000000" r="2" />
	<circle cx="0.0000000000" cy="-0.0000000000" r="2" />
	<circle cx="500.0000011891" cy="-866.0253575793" r="2" />
	<circle cx="495.7615427874" cy="-280.9430202525" r="2" />
	<circle cx="500.0926178531" cy="-289.4913195794" r="2" />
	<circle cx="500.0000001045" cy="-866.0253996130" r="2" />
	<circle cx="499.7797591592" cy="-865.4145632130" r="2" />
	<circle cx="999.9999999889" cy="-0.0000000020" r="2" />
	<circle cx="0.0000000000" cy="-0.0000000000" r="2" />
	<circle cx="500.0051981806" cy="-863.6613393573" r="2" />
	<circle cx="3.3422015870" cy="-1.9322875054" r="2" />
	<circle cx="0.0000000000" cy="-0.0000000000" r="2" />
	<circle cx="0.0000081736" cy="-0.0000047194" r="2" />
	<circle cx="811.6272155241" cy="-123.0591123727" r="2" />
	<circle cx="500.0000000000" cy="-866.0254038000" r="2" />
	<circle cx="500.0000000000" cy="-866.0254038000" r="2" />
	<circle cx="999.9999999698" cy="-0.0000000041" r="2" />
	<circle cx="1.0194617083" cy="-0.5891770891" r="2" />
	<circle cx="999.9999963154" cy="-0.0000021271" r="2" />
	<circle cx="36.5033021606" cy="-9.3649853875" r="2" />
	<circle cx="1000.0000000000" cy="-0.0000000000" r="2" />
	<circle cx="982.9277902036" cy="-6.0473677150" r="2" />
	<circle cx="1000.0000000000" cy="-0.0000000000" r="2" />
	<circle cx="580.4431688635" cy="-132.8285901085" r="2" />
	<circle cx="436.5698435222" cy="-696.6652208217" r="2" />
	<circle cx="1000.0000000000" cy="-0.0000000000" r="2" />
	<circle cx="565.5068432852" cy="-250.8861304148" r="2" />
	<circle cx="500.0000000000" cy="-866.0254038000" r="2" />
	<circle cx="999.9733248999" cy="-0.0154202160" r="2" />
	<circle cx="0.0000000000" cy="-0.0000000000" r="2" />
	<circle cx="967.5308228626" cy="-7.1943957967" r="2" />
	<circle cx="552.6391791168" cy="-274.7329596731" r="2" />
	<circle cx="500.0000000000" cy="-866.0254038000" r="2" />
	<circle cx="1000.0000000000" cy="-0.0000000000" r="2" />
	<circle cx="0.0000000000" cy="-0.0000000000" r="2" />
	<circle cx="499.9999965504" cy="-866.0030368754" r="2" />
	<circle cx="57.3787276137" cy="-33.1660753291" r="2" />
	<circle cx="500.0000000004" cy="-866.0254037935" r="2" />
	<circle cx="499.9142707940" cy="-523.9977327938" r="2" />
	<circle cx="0.0000000000" cy="-0.0000000000" r="2" />
	<circle cx="0.2315201541" cy="-0.0912065208" r="2" />
	<circle cx="500.0213434943" cy="-827.2320185706" r="2" />
	<circle cx="1000.0000000000" cy="-0.0000000000" r="2" />
	<circle cx="500.0223852837" cy="-802.9692839271" r="2" />
	<circle cx="999.9807217528" cy="-0.0111326485" r="2" />
	<circle cx="499.9999714510" cy="-865.5195898043" r="2" />
	<circle cx="500.0000000000" cy="-866.0254036226" r="2" />
	<circle cx="0.0000000000" cy="-0.0000000000" r="2" />
	<circle cx="528.6763348786" cy="-271.8939319584" r="2" />
	<circle cx="500.0000000000" cy="-866.0254038000" r="2" />
	<circle cx="67.8918514587" cy="-39.2897457009" r="2" />
	<circle cx="500.1929437432" cy="-431.0683252087" r="2" />
	<circle cx="495.8966939182" cy="-704.7675964784" r="2" />
	<circle cx="469.2503766117" cy="-275.3519655658" r="2" />
	<circle cx="242.6917732815" cy="-177.2908334462" r="2" />
	<circle cx="500.0000000000" cy="-866.0254038000" r="2" />
	<circle cx="7.8309061495" cy="-4.3261423788" r="2" />
	<circle cx="500.0000000000" cy="-866.0254038000" r="2" />
	<circle cx="0.0000000000" cy="-0.0000000000" r="2" />
	<circle cx="763.3787137236" cy="-134.4762115025" r="2" />
	<circle cx="443.3717304970" cy="-256.0126325392" r="2" />
	<circle cx="904.7604374230" cy="-62.8806898981" r="2" />
	<circle cx="375.8104373088" cy="-284.9563664090" r="2" />
	<circle cx="999.9961278223" cy="-0.0032108255" r="2" />
	<circle cx="497.2478357758" cy="-287.1868128099" r="2" />
	<circle cx="1000.0000000000" cy="-0.0000000000" r="2" />
	<circle cx="961.5072381094" cy="-27.3718296783" r="2" />
	<circle cx="0.4380866071" cy="-0.2528905186" r="2" />
	<circle cx="952.7251104386" cy="-27.3107428837" r="2" />
	<circle cx="500.0000000000" cy="-866.0254038000" r="2" />
	<circle cx="593.8588076694" cy="-259.0500764307" r="2" />
	<circle cx="500.0000000000" cy="-866.0254038000" r="2" />
	<circle cx="24.6989243559" cy="-11.3166282156" r="2" />
	<circle cx="0.0000000000" cy="-0.0000000000" r="2" />
	<circle cx="135.9698524077" cy="-78.5816436740" r="2" />
	<circle cx="1000.0000000000" cy="-0.0000000000" r="2" />
	<circle cx="499.9804007505" cy="-865.0937477801" r="2" />
	<circle cx="500.0000000000" cy="-866.0254038000" r="2" />
	<circle cx="183.4686302932" cy="-105.9288591688" r="2" />
	<circle cx="0.0025175198" cy="-0.0018560131" r="2" />
	<circle cx="816.6645423123" cy="-105.9702562621" r="2" />
	<circle cx="500.0000000000" cy="-866.0254038000" r="2" />
	<circle cx="0.0000000000" cy="-0.0000000000" r="2" />
	<circle cx="962.7521363024" cy="-26.9104610567" r="2" />
	<circle cx="998.4755723912" cy="-0.6707309222" r="2" />
	<circle cx="191.6527292267" cy="-117.9921718354" r="2" />
	<circle cx="500.0540053144" cy="-865.4805298309" r="2" />
	<circle cx="500.0000000000" cy="-866.0254038000" r="2" />
	<circle cx="544.8652995762" cy="-176.9041709374" r="2" />
	<circle cx="525.9742669814" cy="-235.9040481074" r="2" />
	<circle cx="296.0395569749" cy="-170.7808077691" r="2" />
	<circle cx="499.7669834063" cy="-851.1482997925" r="2" />
	<circle cx="500.0000000000" cy="-866.0254038000" r="2" />
	<circle cx="966.6996971229" cy="-18.5925905705" r="2" />
	<circle cx="572.5476504155" cy="-246.5547363686" r="2" />
	<circle cx="1000.0000000000" cy="-0.0000000000" r="2" />
	<circle cx="0.0000000000" cy="-0.0000000000" r="2" />
	<circle cx="0.0000000008" cy="-0.0000000004" r="2" />
	<circle cx="500.0000000000" cy="-866.0254038000" r="2" />
	<circle cx="926.5011144672" cy="-42.9283968503" r="2" />
	<circle cx="433.2374011969" cy="-243.9509043726" r="2" />
	<circle cx="0.0000000000" cy="-0.0000000000" r="2" />
	<circle cx="1000.0000000000" cy="-0.0000000000" r="2" />
	<circle cx="1000.0000000000" cy="-0.0000000000" r="2" />
	<circle cx="500.0132598267" cy="-820.4238325312" r="2" />
	<circle cx="0.0027233626" cy="-0.0019777013" r="2" />
	<circle cx="485.7389962994" cy="-822.4498388200" r="2" />
	<circle cx="540.2690629072" cy="-596.4784837660" r="2" />
	<circle cx="0.0000000000" cy="-0.0000000000" r="2" />
	<circle cx="484.6399688111" cy="-279.8406354773" r="2" />
	<circle cx="370.3718452607" cy="-213.8199180230" r="2" />
	<circle cx="0.0229580720" cy="-0.0132462507" r="2" />
	<circle cx="1000.0000000000" cy="-0.0000000000" r="2" />
	<circle cx="501.1062906589" cy="-477.4889998160" r="2" />
	<circle cx="500.0000000000" cy="-866.0254038000" r="2" />
	<circle cx="999.9999890783" cy="-0.0000063117" r="2" />
	<circle cx="634.0650456768" cy="-211.2227759752" r="2" />
	<circle cx="499.9540058987" cy="-312.3663711989" r="2" />
	<circle cx="484.5045677613" cy="-279.5452047818" r="2" />
	<circle cx="86.9338001174" cy="-50.2629710793" r="2" />
	<circle cx="1000.0000000000" cy="-0.0000000000" r="2" />
	<circle cx="1000.0000000000" cy="-0.0000000000" r="2" />
	<circle cx="933.2310183264" cy="-25.8547721623" r="2" />
	<circle cx="990.1903782948" cy="-5.6637546630" r="2" />
	<circle cx="999.6628783621" cy="-0.1944701325" r="2" />
	<circle cx="500.0000000000" cy="-866.0254038000" r="2" />
	<circle cx="500.0000000000" cy="-866.0254038000" r="2" />
	<circle cx="1000.0000000000" cy="-0.0000000000" r="2" />
	<circle cx="999.9999993830" cy="-0.0000002508" r="2" />
	<circle cx="531.5759138612" cy="-330.7626868439" r="2" />
	<circle cx="500.0000000000" cy="-866.0254037983" r="2" />
	<circle cx="500.0000000000" cy="-866.0254038000" r="2" />
	<circle cx="999.5762844205" cy="-0.2447054273" r="2" />
	<circle cx="499.9997958368" cy="-866.0171847648" r="2" />
	<circle cx="32.4525140808" cy="-7.1942188912" r="2" />
	<circle cx="498.5437961749" cy="-844.1641639477" r="2" />
	<circle cx="0.0000661899" cy="-0.0000362610" r="2" />
	<circle cx="0.0000000000" cy="-0.0000000000" r="2" />
	<circle cx="528.0318085278" cy="-273.1041552620" r="2" />
	<circle cx="447.6158925936" cy="-258.3822793101" r="2" />
	<circle cx="135.2288723611" cy="-78.0484012222" r="2" />
	<circle cx="1000.0000000000" cy="-0.0000000000" r="2" />
	<circle cx="1000.0000000000" cy="-0.0000000000" r="2" />
	<circle cx="499.8973153905" cy="-288.6540062148" r="2" />
	<circle cx="0.0000000000" cy="-0.0000000000" r="2" />
	<circle cx="999.9971685264" cy="-0.0016334012" r="2" />
	<circle cx="1000.0000000000" cy="-0.0000000000" r="2" />
	<circle cx="329.9461008821" cy="-190.4154626465" r="2" />
	<circle cx="500.0000000000" cy="-866.0254038000" r="2" />
	<circle cx="656.8287623421" cy="-218.8549780904" r="2" />
	<circle cx="0.0644522397" cy="-0.0260537202" r="2" />
	<circle cx="999.9999999998" cy="-0.0000000002" r="2" />
	<circle cx="1000.0000000000" cy="-0.0000000000" r="2" />
	<circle cx="500.0000000004" cy="-866.0254037972" r="2" />
	<circle cx="719.5779673275" cy="-28.8336431203" r="2" />
	<circle cx="1000.0000000000" cy="-0.0000000000" r="2" />
	<circle cx="500.0000000000" cy="-866.0254038000" r="2" />
	<circle cx="1000.0000000000" cy="-0.0000000000" r="2" />
	<circle cx="500.0000000000" cy="-866.0254038000" r="2" />
	<circle cx="500.0000000000" cy="-866.0254038000" r="2" />
	<circle cx="999.9999999658" cy="-0.0000000211" r="2" />
	<circle cx="1000.0000000000" cy="-0.0000000000" r="2" />
	<circle cx="500.0227175852" cy="-865.8159041055" r="2" />
	<circle cx="86.9883128854" cy="-50.1533898556" r="2" />
	<circle cx="500.0000000000" cy="-866.0254038000" r="2" />
	<circle cx="500.0000000000" cy="-866.0254038000" r="2" />
	<circle cx="539.4201357214" cy="-266.1973032347" r="2" />
	<circle cx="0.0000000000" cy="-0.0000000000" r="2" />
	<circle cx="580.1887143786" cy="-243.8779195345" r="2" />
	<circle cx="1000.0000000000" cy="-0.0000000000" r="2" />
	<circle cx="499.9999021179" cy="-865.9791366436" r="2" />
	<circle cx="663.9432900620" cy="-161.7440539648" r="2" />
	<circle cx="476.0683176996" cy="-704.6394329566" r="2" />
	<circle cx="0.0000000000" cy="-0.0000000000" r="2" />
	<circle cx="499.3582660034" cy="-522.6318195446" r="2" />
	<circle cx="500.0013126523" cy="-860.7271239921" r="2" />
	<circle cx="997.2662233558" cy="-1.5787516592" r="2" />
	<circle cx="500.0000000000" cy="-866.0254038000" r="2" />
	<circle cx="0.0133843327" cy="-0.0070384843" r="2" />
	<circle cx="500.0226171281" cy="-288.6084602165" r="2" />
	<circle cx="0.0237441938" cy="-0.0129997257" r="2" />
	<circle cx="0.0000000000" cy="-0.0000000000" r="2" />
	<circle cx="1000.0000000000" cy="-0.0000000000" r="2" />
	<circle cx="118.4965053123" cy="-69.4784432638" r="2" />
	<circle cx="0.0000000000" cy="-0.0000000000" r="2" />
	<circle cx="116.6520791965" cy="-67.4349771336" r="2" />
	<circle cx="230.7378091522" cy="-133.2386845038" r="2" />
	<circle cx="500.2772282295" cy="-833.5021484672" r="2" />
	<circle cx="1000.0000000000" cy="-0.0000000000" r="2" />
	<circle cx="1000.0000000000" cy="-0.0000000000" r="2" />
	<circle cx="499.9989452164" cy="-865.9095809719" r="2" />
	<circle cx="500.0000000000" cy="-866.0254038000" r="2" />
	<circle cx="999.9999952579" cy="-0.0000027372" r="2" />
	<circle cx="1000.0000000000" cy="-0.0000000000" r="2" />
	<circle cx="583.1224565859" cy="-359.3051878791" r="2" />
	<circle cx="500.0000011471" cy="-866.0204003423" r="2" />
	<circle cx="727.0387479067" cy="-327.8374108738" r="2" />
	<circle cx="1000.0000000000" cy="-0.0000000000" r="2" />
	<circle cx="500.0000000000" cy="-866.0254038000" r="2" />
	<circle cx="998.8240874006" cy="-0.6276203225" r="2" />
	<circle cx="0.0000000000" cy="-0.0000000000" r="2" />
	<circle cx="0.0000000000" cy="-0.0000000000" r="2" />
	<circle cx="0.0000000000" cy="-0.0000000000" r="2" />
	<circle cx="500.0000000000" cy="-866.0254038000" r="2" />
	<circle cx="0.0005705853" cy="-0.0001869889" r="2" />
	<circle cx="0.0000000000" cy="-0.0000000000" r="2" />
	<circle cx="999.9999999999" cy="-0.0000000000" r="2" />
	<circle cx="1000.0000000000" cy="-0.0000000000" r="2" />
	<circle cx="0.0099100645" cy="-0.0051326529" r="2" />
	<circle cx="257.1605443578" cy="-148.5499268817" r="2" />
	<circle cx="0.0000000506" cy="-0.0000000292" r="2" />
	<circle cx="0.1263017807" cy="-0.0729340613" r="2" />
	<circle cx="0.0000000000" cy="-0.0000000000" r="2" />
	<circle cx="0.0029101298" cy="-0.0016814741" r="2" />
	<circle cx="500.0000000000" cy="-866.0254038000" r="2" />
	<circle cx="999.8435302054" cy="-0.0902296547" r="2" />
	<circle cx="593.5951891274" cy="-234.6186777282" r="2" />
	<circle cx="965.1878014023" cy="-20.1452717877" r="2" />
	<circle cx="571.8419576874" cy="-247.1558615053" r="2" />
	<circle cx="500.0000000000" cy="-866.0254038000" r="2" />
	<circle cx="999.9977655133" cy="-0.0005635811" r="2" />
	<circle cx="0.0857297472" cy="-0.0494692354" r="2" />
	<circle cx="367.8927998012" cy="-212.4486340193" r="2" />
	<circle cx="1.9327992391" cy="-1.1162005783" r="2" />
	<circle cx="500.0000000000" cy="-866.0254038000" r="2" />
	<circle cx="0.0000000000" cy="-0.0000000000" r="2" />
	<circle cx="0.0000006316" cy="-0.0000003619" r="2" />
	<circle cx="501.7692638823" cy="-306.9504148623" r="2" />
	<circle cx="519.5659925477" cy="-293.7396969080" r="2" />
  </g>
  <g id="fig2" transform="translate(-550.0,1000)">
	<polygon points="0.0,-0.0 1000.0,-0.0 500.0,-866.0254038" />
	<line
	   id="line2-1"
	   y2="-0.0"
	   x2="500"
	   y1="-288.6751346"
	   x1="500" />
	<line
	   id="line2-2"
	   y2="-433.0127019"
	   x2="250"
	   y1="-288.6751346"
	   x1="500" />
	<line
	   id="line2-3"
	   y2="-433.0127019"
	   x2="750"
	   y1="-288.6751346"
	   x1="500" />
	<text
	   x="440"
	   y="-500"
	   id="up_2">30.2%</text>
	<text
	   x="250"
	   y="-150"
	   id="down_left_2">36.6%</text>
	<text
	   x="630"
	   y="-150"
	   id="down_right_2">33.2%</text>
  </g>
  <g id="fig3" transform="translate(550,1000)">
	<polygon points="0.0,-0.0 1000.0,-0.0 500.0,-866.0254038" />
	<polygon id="triangle3b" points="250,-144.3375673 750,-144.3375673 500,-577.3502692" />
	<line
	   id="line3-1"
	   x1="125"
	   y1="-216.5063509"
	   x2="250"
	   y2="-144.3375673" />
	<line
	   id="line3-2"
	   x1="375"
	   y1="-649.5190528"
	   x2="500"
	   y2="-577.3502692" />
	<line
	   id="line3-3"
	   x1="625"
	   y1="-649.5190528"
	   x2="500"
	   y2="-577.3502692" />
	<line
	   id="line3-4"
	   x1="875"
	   y1="-216.5063509"
	   x2="750"
	   y2="-144.3375673" />
	<line
	   id="line3-5"
	   x1="750"
	   y1="-0.0"
	   x2="750"
	   y2="-144.3375673" />
	<line
	   id="line3-6"
	   x1="250"
	   y1="-0.0"
	   x2="250"
	   y2="-144.3375673" />
	<text
	   x="500"
	   y="-660"
	   text-anchor="middle"
	   id="up_3">25.0%</text>
	<text
	   y="-50"
	   x="70"
	   id="down_left_3">28.4%</text>
	<text
	   y="-50"
	   x="770"
	   id="down_right_3">26.4%</text>
	<text
	   x="500"
	   y="-50"
	   text-anchor="middle"
	   id="down_side_3">0.6%</text>
	<text
	   x="500"
	   y="-280"
	   text-anchor="middle"
	   id="center_3">18.4%</text>
	<text
	   x="685.0"
	   y="-390.8439"
	   text-anchor="middle"
	   transform="rotate(60,665.0,-380.8439)"
	   id="right_side_3">0.6%</text>
	<text
	   x="315.0"
	   y="-390.8439"
	   text-anchor="middle"
	   transform="rotate(-60,335.0,-380.8439)"
	   id="left_side_3">0.6%</text>
  </g>
</g></g>
</svg>
