<?xml version="1.0" encoding="UTF-8" standalone="no"?>
<!DOCTYPE svg PUBLIC "-//W3C//DTD SVG 1.1//EN" "http://www.w3.org/Graphics/SVG/1.1/DTD/svg11.dtd">
<svg
   xmlns:svg="http://www.w3.org/2000/svg"
   xmlns="http://www.w3.org/2000/svg"
   xmlns:xlink="http://www.w3.org/1999/xlink"
   version="1.1"
   baseProfile="full"
   id="body"
   width="800px"
   height="800px"
   viewBox="0 0 1000 1000"
   preserveAspectRatio="none">
  <defs>
    <style type="text/css"><![CDATA[
      circle{ stroke: none; }
      polygon{ stroke: black; stroke-width: 2px; fill: none; }
      line{ stroke: black; stroke-width: 2px; }
      text{ font-size:50px; }
    ]]></style>
  </defs>
  <title
     id="title1">SVG drawing</title>
<g transform="scale(0.45)"><g transform="translate(600,1050)">
  <g id="fig1">
	<polygon points="0.0,-0.0 1000.0,-0.0 500,-866.0254038" />
	<circle cx="461.3659027198" cy="-590.5090742518" r="2" />
	<circle cx="508.7999996573" cy="-282.1591941519" r="2" />
	<circle cx="988.6372719320" cy="-6.2952462725" r="2" />
	<circle cx="510.5407364466" cy="-282.2773159943" r="2" />
	<circle cx="500.0000000001" cy="-866.0254037901" r="2" />
	<circle cx="503.3693245415" cy="-276.1722343268" r="2" />
	<circle cx="473.5501452488" cy="-299.4632777164" r="2" />
	<circle cx="485.4164806693" cy="-280.0762173490" r="2" />
	<circle cx="562.2976999710" cy="-187.2026482882" r="2" />
	<circle cx="0.0000000000" cy="-0.0000000000" r="2" />
	<circle cx="545.2953774311" cy="-388.3292526899" r="2" />
	<circle cx="473.5043563984" cy="-270.9418408215" r="2" />
	<circle cx="999.9999973177" cy="-0.0000011240" r="2" />
	<circle cx="556.8841986364" cy="-300.0924200977" r="2" />
	<circle cx="887.7667285672" cy="-62.9083286860" r="2" />
	<circle cx="365.4744313265" cy="-210.9964874853" r="2" />
	<circle cx="569.4104281212" cy="-569.3579837247" r="2" />
	<circle cx="456.3956583451" cy="-262.7178765346" r="2" />
	<circle cx="500.0000000000" cy="-866.0254038000" r="2" />
	<circle cx="992.3880674354" cy="-3.8692157539" r="2" />
	<circle cx="0.1901545749" cy="-0.1271158892" r="2" />
	<circle cx="488.1498789298" cy="-424.2367472851" r="2" />
	<circle cx="0.0000000000" cy="-0.0000000000" r="2" />
	<circle cx="499.4862307672" cy="-314.7552921609" r="2" />
	<circle cx="511.4858848222" cy="-281.2018606382" r="2" />
	<circle cx="506.9256598653" cy="-314.8827025869" r="2" />
	<circle cx="509.0765822661" cy="-315.1996096073" r="2" />
	<circle cx="999.9999997295" cy="-0.0000001335" r="2" />
	<circle cx="500.0000000000" cy="-866.0254038000" r="2" />
	<circle cx="487.2580350835" cy="-281.4035966438" r="2" />
	<circle cx="1000.0000000000" cy="-0.0000000000" r="2" />
	<circle cx="500.0000000000" cy="-866.0254038000" r="2" />
	<circle cx="664.5321894248" cy="-202.2608365343" r="2" />
	<circle cx="553.7339689347" cy="-264.1771987872" r="2" />
	<circle cx="499.6289377733" cy="-471.1419741291" r="2" />
	<circle cx="325.9668972467" cy="-468.4278489764" r="2" />
	<circle cx="486.1144683844" cy="-296.9614172153" r="2" />
	<circle cx="622.9483811444" cy="-293.1442140768" r="2" />
	<circle cx="575.0313204265" cy="-258.5481533717" r="2" />
	<circle cx="0.0000000000" cy="-0.0000000000" r="2" />
	<circle cx="573.0476386709" cy="-186.1330546791" r="2" />
	<circle cx="535.7703441120" cy="-408.4922347331" r="2" />
	<circle cx="499.8803200277" cy="-806.4029445169" r="2" />
	<circle cx="485.2782181253" cy="-280.1924185812" r="2" />
	<circle cx="633.7444525899" cy="-211.1501673420" r="2" />
	<circle cx="1000.0000000000" cy="-0.0000000000" r="2" />
	<circle cx="459.0512668500" cy="-320.6858815511" r="2" />
	<circle cx="0.0000000000" cy="-0.0000000000" r="2" />
	<circle cx="0.0000000002" cy="-0.0000000001" r="2" />
	<circle cx="495.7964857962" cy="-318.8224942566" r="2" />
	<circle cx="639.1095236896" cy="-158.1567894331" r="2" />
	<circle cx="998.3281953593" cy="-1.0079363319" r="2" />
	<circle cx="390.3402897811" cy="-221.6712891677" r="2" />
	<circle cx="396.6617499435" cy="-342.8353822033" r="2" />
	<circle cx="492.0452263990" cy="-632.1590419958" r="2" />
	<circle cx="501.1797596057" cy="-823.6614357494" r="2" />
	<circle cx="499.7100926959" cy="-698.5803849869" r="2" />
	<circle cx="500.4395063581" cy="-859.6973378442" r="2" />
	<circle cx="400.0082734779" cy="-230.4898103716" r="2" />
	<circle cx="500.3471742270" cy="-552.7428304500" r="2" />
	<circle cx="482.1390100093" cy="-298.0167760077" r="2" />
	<circle cx="499.9999982168" cy="-866.0253801363" r="2" />
	<circle cx="673.6897913057" cy="-205.2567463492" r="2" />
	<circle cx="500.0000000098" cy="-866.0254036066" r="2" />
	<circle cx="514.1265068130" cy="-331.0005697251" r="2" />
	<circle cx="549.8439244879" cy="-265.5885354462" r="2" />
	<circle cx="502.7906421417" cy="-314.1032996504" r="2" />
	<circle cx="500.0125992172" cy="-863.9018294042" r="2" />
	<circle cx="499.9999992432" cy="-866.0254015501" r="2" />
	<circle cx="497.3131686274" cy="-630.2426626276" r="2" />
	<circle cx="409.0807214403" cy="-236.2671793598" r="2" />
	<circle cx="498.5958166022" cy="-838.3074090521" r="2" />
	<circle cx="513.0804710395" cy="-489.1739926471" r="2" />
	<circle cx="485.9447131609" cy="-668.7443561173" r="2" />
	<circle cx="1000.0000000000" cy="-0.0000000000" r="2" />
	<circle cx="511.1017051050" cy="-513.3673443683" r="2" />
	<circle cx="507.0735570335" cy="-297.6418467813" r="2" />
	<circle cx="1000.0000000000" cy="-0.0000000000" r="2" />
	<circle cx="328.2754372488" cy="-172.7232731897" r="2" />
	<circle cx="499.9537424797" cy="-863.8993032963" r="2" />
	<circle cx="318.4320793290" cy="-235.4520922683" r="2" />
	<circle cx="523.9987191698" cy="-293.3702030487" r="2" />
	<circle cx="499.1254622427" cy="-539.4630875438" r="2" />
	<circle cx="511.7167730991" cy="-281.9154162535" r="2" />
	<circle cx="811.6529591945" cy="-108.2599865151" r="2" />
	<circle cx="499.7034264319" cy="-320.1965625231" r="2" />
	<circle cx="439.0064158386" cy="-194.8753422825" r="2" />
	<circle cx="999.9995934459" cy="-0.0001769098" r="2" />
	<circle cx="417.1933494725" cy="-242.8558837466" r="2" />
	<circle cx="330.5338669060" cy="-229.6041412696" r="2" />
	<circle cx="0.0000000136" cy="-0.0000000110" r="2" />
	<circle cx="7.5402841147" cy="-4.6440094727" r="2" />
	<circle cx="393.3284655042" cy="-372.5886071819" r="2" />
	<circle cx="500.0935404122" cy="-809.9393316973" r="2" />
	<circle cx="519.6054762046" cy="-288.1328701815" r="2" />
	<circle cx="506.0852074095" cy="-274.5005001396" r="2" />
	<circle cx="509.5739612301" cy="-510.5687720799" r="2" />
	<circle cx="1000.0000000000" cy="-0.0000000000" r="2" />
	<circle cx="527.5926815837" cy="-217.5601554513" r="2" />
	<circle cx="475.1963298191" cy="-362.1295969450" r="2" />
	<circle cx="500.0000000073" cy="-866.0254036318" r="2" />
	<circle cx="252.0983589185" cy="-144.2710751936" r="2" />
	<circle cx="495.8176608789" cy="-288.4528846303" r="2" />
	<circle cx="884.0843515743" cy="-71.8141681553" r="2" />
	<circle cx="0.0000000003" cy="-0.0000000002" r="2" />
	<circle cx="501.0714784334" cy="-833.8966666481" r="2" />
	<circle cx="0.0000000000" cy="-0.0000000000" r="2" />
	<circle cx="600.7819175606" cy="-213.5473308476" r="2" />
	<circle cx="932.0412562200" cy="-38.4494444362" r="2" />
	<circle cx="468.0404366752" cy="-174.9025118441" r="2" />
	<circle cx="542.6194172625" cy="-272.9099169653" r="2" />
	<circle cx="999.9591658510" cy="-0.0194962207" r="2" />
	<circle cx="729.9938242338" cy="-155.9641116760" r="2" />
	<circle cx="999.7177973866" cy="-0.1816008533" r="2" />
	<circle cx="499.9686381758" cy="-461.8129831894" r="2" />
	<circle cx="0.0496930562" cy="-0.0269277452" r="2" />
	<circle cx="497.1596958572" cy="-266.1187675303" r="2" />
	<circle cx="550.6704033640" cy="-275.7757602183" r="2" />
	<circle cx="467.8837248844" cy="-270.0494600990" r="2" />
	<circle cx="501.1082401461" cy="-847.0669159074" r="2" />
	<circle cx="418.2164532200" cy="-241.4130710954" r="2" />
	<circle cx="370.6835871504" cy="-533.4926455584" r="2" />
	<circle cx="500.0000000000" cy="-866.0254038000" r="2" />
	<circle cx="620.4477622245" cy="-208.6743696097" r="2" />
	<circle cx="0.0000000047" cy="-0.0000000027" r="2" />
	<circle cx="0.0000000000" cy="-0.0000000000" r="2" />
	<circle cx="999.9999997903" cy="-0.0000001211" r="2" />
	<circle cx="318.9277918885" cy="-182.3648146508" r="2" />
	<circle cx="518.1342011019" cy="-280.1144586144" r="2" />
	<circle cx="277.3001963557" cy="-184.1934075146" r="2" />
	<circle cx="477.5519835630" cy="-128.1442204459" r="2" />
	<circle cx="440.7094544628" cy="-211.2737561382" r="2" />
	<circle cx="459.6218416307" cy="-514.5393981937" r="2" />
	<circle cx="0.0000624815" cy="-0.0000463419" r="2" />
	<circle cx="500.0000000000" cy="-866.0254038000" r="2" />
	<circle cx="499.8598639453" cy="-778.2870727262" r="2" />
	<circle cx="498.8737632112" cy="-628.6932093354" r="2" />
	<circle cx="500.0000000000" cy="-866.0254038000" r="2" />
	<circle cx="307.7241989041" cy="-138.4704965386" r="2" />
	<circle cx="428.1051429984" cy="-243.6253046006" r="2" />
	<circle cx="486.1636404891" cy="-234.3634763609" r="2" />
	<circle cx="484.6528788299" cy="-293.7066249526" r="2" />
	<circle cx="568.6606823701" cy="-251.2969321054" r="2" />
	<circle cx="548.7803906275" cy="-258.3420776343" r="2" />
	<circle cx="1000.0000000000" cy="-0.0000000000" r="2" />
	<circle cx="334.9159237027" cy="-193.1911228366" r="2" />
	<circle cx="489.0433645459" cy="-416.6840559683" r="2" />
	<circle cx="501.6819465788" cy="-316.1808145806" r="2" />
	<circle cx="0.0015205061" cy="-0.0005737686" r="2" />
	<circle cx="498.5843787173" cy="-317.1941296558" r="2" />
	<circle cx="604.6289575412" cy="-228.2427105202" r="2" />
	<circle cx="976.6092197988" cy="-13.1402104665" r="2" />
	<circle cx="439.5120032481" cy="-252.0792079356" r="2" />
	<circle cx="465.0896405595" cy="-533.4218236894" r="2" />
	<circle cx="501.5960432141" cy="-382.4822119364" r="2" />
	<circle cx="487.2590319742" cy="-447.4560550301" r="2" />
	<circle cx="779.1045516066" cy="-131.7178333960" r="2" />
	<circle cx="938.4969652929" cy="-34.0483180601" r="2" />
	<circle cx="999.9999998643" cy="-0.0000000627" r="2" />
	<circle cx="615.2961903519" cy="-221.8805754999" r="2" />
	<circle cx="411.2052519082" cy="-236.1125732721" r="2" />
	<circle cx="0.0365438730" cy="-0.0233887056" r="2" />
	<circle cx="458.8444115972" cy="-357.6369671240" r="2" />
	<circle cx="228.8546930594" cy="-121.4468349679" r="2" />
	<circle cx="761.7896864427" cy="-134.7315156679" r="2" />
	<circle cx="648.4612926476" cy="-310.1107193008" r="2" />
	<circle cx="0.0000000031" cy="-0.0000000019" r="2" />
	<circle cx="500.5657027785" cy="-300.4014623810" r="2" />
	<circle cx="532.1666603689" cy="-328.3188699122" r="2" />
	<circle cx="424.9676524290" cy="-244.0939391124" r="2" />
	<circle cx="437.0741446144" cy="-256.7421666776" r="2" />
	<circle cx="444.7722556342" cy="-260.7439115798" r="2" />
	<circle cx="502.6234201705" cy="-292.0544349196" r="2" />
	<circle cx="500.0003316254" cy="-866.0126301218" r="2" />
	<circle cx="394.9719487033" cy="-226.2949422130" r="2" />
	<circle cx="66.9724382657" cy="-38.8300161020" r="2" />
	<circle cx="335.3174831230" cy="-307.1168669793" r="2" />
	<circle cx="502.8060017278" cy="-860.5148171651" r="2" />
	<circle cx="501.5135762997" cy="-284.5170438044" r="2" />
	<circle cx="1000.0000000000" cy="-0.0000000000" r="2" />
	<circle cx="417.5651302951" cy="-240.9549722304" r="2" />
	<circle cx="918.0611824882" cy="-48.8596913940" r="2" />
	<circle cx="741.9708971045" cy="-151.4229937378" r="2" />
	<circle cx="1000.0000000000" cy="-0.0000000000" r="2" />
	<circle cx="439.0943862954" cy="-256.5601751921" r="2" />
	<circle cx="606.9993863225" cy="-226.6429542333" r="2" />
	<circle cx="234.4459891126" cy="-135.0155935634" r="2" />
	<circle cx="358.5375312798" cy="-454.7830493995" r="2" />
	<circle cx="712.8658535047" cy="-159.1936867356" r="2" />
	<circle cx="500.0000000000" cy="-866.0254038000" r="2" />
	<circle cx="11.6532976337" cy="-6.0786915526" r="2" />
	<circle cx="0.0000000000" cy="-0.0000000000" r="2" />
	<circle cx="485.9006175874" cy="-283.9394020960" r="2" />
	<circle cx="563.3280107072" cy="-271.8848764019" r="2" />
	<circle cx="457.6607799146" cy="-294.0505407063" r="2" />
	<circle cx="364.7715456766" cy="-211.1672993812" r="2" />
	<circle cx="498.9383234691" cy="-792.8451008384" r="2" />
	<circle cx="494.9380978072" cy="-290.2220020463" r="2" />
	<circle cx="478.7611880691" cy="-273.6971283636" r="2" />
	<circle cx="7.8675904371" cy="-0.0182463249" r="2" />
	<circle cx="999.9979438861" cy="-0.0014608526" r="2" />
	<circle cx="517.3464076787" cy="-426.3102925703" r="2" />
	<circle cx="604.0727469612" cy="-223.3291280775" r="2" />
	<circle cx="457.1345918699" cy="-513.8141184500" r="2" />
	<circle cx="474.0308794620" cy="-343.2017275030" r="2" />
	<circle cx="661.2074708838" cy="-196.0760319519" r="2" />
	<circle cx="500.6903121747" cy="-305.2906908678" r="2" />
	<circle cx="500.3754934517" cy="-763.8502082612" r="2" />
	<circle cx="572.6705385780" cy="-244.2457001332" r="2" />
	<circle cx="449.0137790930" cy="-428.8124884809" r="2" />
	<circle cx="432.4552883584" cy="-273.0224759601" r="2" />
	<circle cx="481.4777429122" cy="-288.3531603338" r="2" />
	<circle cx="499.8358939969" cy="-556.7502841549" r="2" />
	<circle cx="624.7457566762" cy="-110.3099809709" r="2" />
	<circle cx="498.3682047247" cy="-291.3371406677" r="2" />
	<circle cx="492.8476022866" cy="-403.0300144423" r="2" />
	<circle cx="500.0000000000" cy="-866.0254038000" r="2" />
	<circle cx="500.0000004924" cy="-866.0253996625" r="2" />
	<circle cx="805.2275940860" cy="-112.4432433728" r="2" />
	<circle cx="451.5627122257" cy="-391.2642676506" r="2" />
	<circle cx="500.0000000000" cy="-866.0254037990" r="2" />
	<circle cx="0.0059327626" cy="-0.0028488901" r="2" />
	<circle cx="0.0000000000" cy="-0.0000000000" r="2" />
	<circle cx="499.8529128732" cy="-834.1446004899" r="2" />
	<circle cx="499.2657170258" cy="-432.3999145559" r="2" />
	<circle cx="1000.0000000000" cy="-0.0000000000" r="2" />
	<circle cx="5.0031971212" cy="-2.2986241850" r="2" />
	<circle cx="500.0000000000" cy="-866.0254038000" r="2" />
	<circle cx="1000.0000000000" cy="-0.0000000000" r="2" />
	<circle cx="500.0000000000" cy="-866.0254038000" r="2" />
	<circle cx="449.6124034679" cy="-254.3644646357" r="2" />
	<circle cx="1000.0000000000" cy="-0.0000000000" r="2" />
	<circle cx="500.0405796612" cy="-312.8270037077" r="2" />
	<circle cx="175.6723214875" cy="-98.4056156445" r="2" />
	<circle cx="463.1664615595" cy="-439.5577139075" r="2" />
	<circle cx="407.4016093951" cy="-345.2986811325" r="2" />
	<circle cx="535.2117636228" cy="-396.3943309816" r="2" />
	<circle cx="500.1048391980" cy="-719.4572874500" r="2" />
	<circle cx="508.1508899184" cy="-509.9058578199" r="2" />
	<circle cx="633.4281963424" cy="-177.9261312414" r="2" />
	<circle cx="303.9981780004" cy="-174.9418933624" r="2" />
	<circle cx="768.5849644176" cy="-134.5529797910" r="2" />
	<circle cx="472.1717088971" cy="-270.5304396106" r="2" />
	<circle cx="999.8818238304" cy="-0.0972039997" r="2" />
	<circle cx="500.0000000000" cy="-866.0254038000" r="2" />
	<circle cx="210.7506387379" cy="-121.6686114288" r="2" />
	<circle cx="708.4645170723" cy="-172.4679298690" r="2" />
	<circle cx="131.4454022842" cy="-80.4310267196" r="2" />
	<circle cx="487.6230783774" cy="-278.8490819544" r="2" />
	<circle cx="0.0000000000" cy="-0.0000000000" r="2" />
	<circle cx="519.4516100403" cy="-274.6773890988" r="2" />
	<circle cx="500.0000000000" cy="-866.0254038000" r="2" />
	<circle cx="536.4441965486" cy="-195.7856314006" r="2" />
	<circle cx="534.2957716098" cy="-264.2495739464" r="2" />
	<circle cx="499.9999181105" cy="-866.0210222108" r="2" />
	<circle cx="458.2179406351" cy="-265.2387520165" r="2" />
	<circle cx="499.9470856896" cy="-343.9798417982" r="2" />
	<circle cx="504.5370837897" cy="-288.0446003730" r="2" />
	<circle cx="478.0963075402" cy="-244.7087910503" r="2" />
	<circle cx="592.0479832245" cy="-235.0262444994" r="2" />
	<circle cx="499.9812288302" cy="-865.9928911802" r="2" />
	<circle cx="486.5884617238" cy="-402.1023622050" r="2" />
	<circle cx="495.3022706199" cy="-270.4803425197" r="2" />
	<circle cx="499.7744572622" cy="-291.2981514860" r="2" />
	<circle cx="552.3259297526" cy="-258.8583585687" r="2" />
	<circle cx="583.0077733129" cy="-231.0443090725" r="2" />
	<circle cx="497.0751775726" cy="-284.7968873083" r="2" />
	<circle cx="342.1546912210" cy="-274.9721840370" r="2" />
	<circle cx="514.0604688197" cy="-282.4097892012" r="2" />
	<circle cx="500.1488647486" cy="-358.7621644951" r="2" />
	<circle cx="0.0000000006" cy="-0.0000000002" r="2" />
	<circle cx="542.4641313122" cy="-262.5191066457" r="2" />
	<circle cx="997.2877448208" cy="-1.5197899177" r="2" />
	<circle cx="633.5047927800" cy="-243.0209414058" r="2" />
	<circle cx="493.4280098366" cy="-285.4510265378" r="2" />
	<circle cx="753.6749565855" cy="-129.9308364876" r="2" />
	<circle cx="396.3670037321" cy="-244.4424257804" r="2" />
	<circle cx="507.3963506047" cy="-261.4089408055" r="2" />
	<circle cx="499.5195788492" cy="-593.0146225298" r="2" />
	<circle cx="516.8650382814" cy="-277.7471461575" r="2" />
	<circle cx="497.7536249692" cy="-318.2696591230" r="2" />
	<circle cx="499.9944523205" cy="-865.9150243246" r="2" />
	<circle cx="373.6988855155" cy="-215.8300960282" r="2" />
	<circle cx="489.7232286696" cy="-249.3086709580" r="2" />
	<circle cx="491.5546760022" cy="-497.2147272543" r="2" />
	<circle cx="521.9441329394" cy="-274.6013223029" r="2" />
	<circle cx="0.0000000004" cy="-0.0000000002" r="2" />
	<circle cx="1000.0000000000" cy="-0.0000000000" r="2" />
	<circle cx="0.0000000000" cy="-0.0000000000" r="2" />
	<circle cx="503.3802813786" cy="-291.4789342128" r="2" />
	<circle cx="485.7274306680" cy="-502.0423978329" r="2" />
	<circle cx="601.7294411494" cy="-428.0730381134" r="2" />
	<circle cx="442.7381928952" cy="-254.1558535516" r="2" />
	<circle cx="1000.0000000000" cy="-0.0000000000" r="2" />
	<circle cx="500.1431345555" cy="-789.4100015274" r="2" />
	<circle cx="511.5510762526" cy="-505.0347025514" r="2" />
	<circle cx="500.0000001295" cy="-866.0254017186" r="2" />
	<circle cx="500.0000000000" cy="-866.0254038000" r="2" />
	<circle cx="468.7943017253" cy="-220.8742693813" r="2" />
	<circle cx="216.5468997426" cy="-124.9727759697" r="2" />
	<circle cx="362.4250306976" cy="-204.8480594946" r="2" />
	<circle cx="346.8048403158" cy="-200.0696616936" r="2" />
	<circle cx="559.0709869007" cy="-249.0944520542" r="2" />
	<circle cx="0.0000000000" cy="-0.0000000000" r="2" />
	<circle cx="993.8661026369" cy="-2.0749305659" r="2" />
	<circle cx="0.0015904670" cy="-0.0012420333" r="2" />
	<circle cx="528.7820108205" cy="-510.9455852469" r="2" />
	<circle cx="548.8164439563" cy="-260.4510490374" r="2" />
	<circle cx="499.6783845197" cy="-272.2756931686" r="2" />
	<circle cx="399.9837224208" cy="-238.4881422028" r="2" />
	<circle cx="499.8185036315" cy="-333.1500774193" r="2" />
	<circle cx="505.2360832565" cy="-311.1694145580" r="2" />
	<circle cx="277.7148596442" cy="-159.5646162475" r="2" />
	<circle cx="479.9659785453" cy="-286.4742425540" r="2" />
	<circle cx="310.8176531722" cy="-179.8898018644" r="2" />
	<circle cx="492.1812672327" cy="-189.7257145301" r="2" />
	<circle cx="0.0000000000" cy="-0.0000000000" r="2" />
	<circle cx="499.4080426547" cy="-729.3836133120" r="2" />
	<circle cx="355.6031295636" cy="-364.2464777761" r="2" />
	<circle cx="494.8139479231" cy="-305.8299785916" r="2" />
	<circle cx="438.0171726963" cy="-284.5053261496" r="2" />
	<circle cx="499.2363589426" cy="-515.4672411238" r="2" />
	<circle cx="361.7606297641" cy="-234.0087919691" r="2" />
	<circle cx="500.0000000000" cy="-866.0254038000" r="2" />
	<circle cx="500.0000000000" cy="-866.0254037998" r="2" />
	<circle cx="500.2952159447" cy="-839.5136109764" r="2" />
	<circle cx="500.0000000000" cy="-866.0254038000" r="2" />
	<circle cx="512.9469550608" cy="-277.4337932676" r="2" />
	<circle cx="0.0000000000" cy="-0.0000000000" r="2" />
	<circle cx="499.9999994385" cy="-866.0253997050" r="2" />
	<circle cx="505.8097090195" cy="-419.5218421619" r="2" />
	<circle cx="999.9999277767" cy="-0.0000490134" r="2" />
	<circle cx="422.3651510782" cy="-259.3632664049" r="2" />
	<circle cx="999.9700868454" cy="-0.0197484131" r="2" />
	<circle cx="933.0983774379" cy="-38.7770996419" r="2" />
	<circle cx="500.0000000007" cy="-866.0254037854" r="2" />
	<circle cx="999.9999999967" cy="-0.0000000018" r="2" />
	<circle cx="994.1573106574" cy="-2.1715410709" r="2" />
	<circle cx="1000.0000000000" cy="-0.0000000000" r="2" />
	<circle cx="999.9999973177" cy="-0.0000011240" r="2" />
	<circle cx="757.8615246089" cy="-140.9336157085" r="2" />
	<circle cx="440.8318046051" cy="-254.2205158128" r="2" />
	<circle cx="354.7411624460" cy="-204.1061532393" r="2" />
	<circle cx="499.7043328765" cy="-578.5186811500" r="2" />
	<circle cx="333.9120427770" cy="-228.4154511465" r="2" />
	<circle cx="284.1982507791" cy="-164.0374879366" r="2" />
	<circle cx="276.3727791656" cy="-138.5069486927" r="2" />
	<circle cx="497.6308612532" cy="-302.7790566404" r="2" />
	<circle cx="458.5961496701" cy="-261.5220642691" r="2" />
	<circle cx="492.5638106762" cy="-277.1182044075" r="2" />
	<circle cx="762.0171961669" cy="-136.3414086996" r="2" />
	<circle cx="487.2939568464" cy="-196.1696713399" r="2" />
	<circle cx="0.0000136034" cy="-0.0000107625" r="2" />
	<circle cx="151.7402068250" cy="-87.7426851801" r="2" />
	<circle cx="999.2140891379" cy="-0.5871772562" r="2" />
	<circle cx="506.0655904209" cy="-280.5336171192" r="2" />
	<circle cx="529.2792389724" cy="-313.1897549109" r="2" />
	<circle cx="933.6416727314" cy="-14.4953596381" r="2" />
	<circle cx="339.5115433146" cy="-191.0352790506" r="2" />
	<circle cx="643.8701889545" cy="-146.7383792420" r="2" />
	<circle cx="500.4689123324" cy="-860.9441174934" r="2" />
	<circle cx="442.7634163745" cy="-268.7965039206" r="2" />
	<circle cx="549.7619452394" cy="-259.3524357212" r="2" />
	<circle cx="277.5178574188" cy="-186.1217586835" r="2" />
	<circle cx="278.6598410288" cy="-114.1827757850" r="2" />
	<circle cx="457.2038951708" cy="-270.5533935201" r="2" />
	<circle cx="498.6330807054" cy="-396.9384623349" r="2" />
	<circle cx="487.3547177273" cy="-547.4181089114" r="2" />
	<circle cx="505.3808413112" cy="-575.3740027159" r="2" />
	<circle cx="762.9836443095" cy="-134.5639554735" r="2" />
	<circle cx="319.1326655121" cy="-222.8597409150" r="2" />
	<circle cx="0.0000000290" cy="-0.0000000135" r="2" />
	<circle cx="491.7188694682" cy="-481.5827397129" r="2" />
	<circle cx="0.0000000000" cy="-0.0000000000" r="2" />
	<circle cx="500.0000317826" cy="-866.0252008264" r="2" />
	<circle cx="535.3409795430" cy="-274.1120247147" r="2" />
	<circle cx="492.4558967121" cy="-689.4584298662" r="2" />
	<circle cx="501.9689567010" cy="-310.7134716166" r="2" />
	<circle cx="500.0710761124" cy="-391.7598226360" r="2" />
	<circle cx="463.3229589629" cy="-270.3962096193" r="2" />
	<circle cx="0.0000000000" cy="-0.0000000000" r="2" />
	<circle cx="500.0000000000" cy="-866.0254038000" r="2" />
	<circle cx="522.9520067302" cy="-391.4088243880" r="2" />
	<circle cx="487.8406512711" cy="-424.4593850962" r="2" />
	<circle cx="1000.0000000000" cy="-0.0000000000" r="2" />
	<circle cx="999.9999996565" cy="-0.0000002206" r="2" />
	<circle cx="675.4683106786" cy="-187.5684843558" r="2" />
	<circle cx="427.2293941413" cy="-333.3348182192" r="2" />
	<circle cx="500.3923382998" cy="-577.7433848593" r="2" />
	<circle cx="1000.0000000000" cy="-0.0000000000" r="2" />
	<circle cx="516.5777629165" cy="-213.5159698336" r="2" />
	<circle cx="473.5200603673" cy="-306.0973101258" r="2" />
	<circle cx="775.3662891314" cy="-131.3793710423" r="2" />
	<circle cx="539.4377312710" cy="-265.7151770239" r="2" />
	<circle cx="2.1034046563" cy="-1.5109242270" r="2" />
	<circle cx="498.4031343425" cy="-439.9287350400" r="2" />
	<circle cx="651.6760356785" cy="-185.7429174853" r="2" />
	<circle cx="290.0912021511" cy="-195.1639424917" r="2" />
	<circle cx="500.0000000000" cy="-866.0254038000" r="2" />
	<circle cx="520.9931984610" cy="-351.4015182069" r="2" />
	<circle cx="1000.0000000000" cy="-0.0000000000" r="2" />
	<circle cx="497.5956360117" cy="-495.0769652802" r="2" />
	<circle cx="500.0000241233" cy="-866.0249482538" r="2" />
	<circle cx="581.5106385348" cy="-252.2429501533" r="2" />
	<circle cx="981.4533888835" cy="-10.4299890043" r="2" />
	<circle cx="544.1228837706" cy="-296.8588205378" r="2" />
	<circle cx="500.0000000000" cy="-866.0254038000" r="2" />
	<circle cx="457.0121633749" cy="-426.9070918908" r="2" />
	<circle cx="489.2431460967" cy="-451.2817913002" r="2" />
	<circle cx="0.0017283484" cy="-0.0010469172" r="2" />
	<circle cx="446.4220714820" cy="-257.5982909619" r="2" />
	<circle cx="0.0000000003" cy="-0.0000000001" r="2" />
	<circle cx="550.2017832458" cy="-257.5162324056" r="2" />
	<circle cx="500.0000000000" cy="-866.0254038000" r="2" />
	<circle cx="507.8240945310" cy="-283.6306452104" r="2" />
	<circle cx="500.0064118916" cy="-866.0042238538" r="2" />
	<circle cx="365.4241260695" cy="-216.9669623931" r="2" />
	<circle cx="500.1848636023" cy="-492.4236130638" r="2" />
	<circle cx="569.4104281212" cy="-569.3579837247" r="2" />
	<circle cx="499.4424435010" cy="-312.1649966339" r="2" />
	<circle cx="1.3647528615" cy="-0.7905735476" r="2" />
	<circle cx="495.6194314732" cy="-542.4048951369" r="2" />
	<circle cx="499.9413720168" cy="-467.7045617214" r="2" />
	<circle cx="1000.0000000000" cy="-0.0000000000" r="2" />
	<circle cx="659.9119721550" cy="-195.7275199437" r="2" />
	<circle cx="521.3289802088" cy="-358.4338067069" r="2" />
	<circle cx="402.1127652385" cy="-232.0816903428" r="2" />
	<circle cx="915.5517015941" cy="-3.6711538864" r="2" />
	<circle cx="0.0000000000" cy="-0.0000000000" r="2" />
	<circle cx="602.7039060679" cy="-383.9653338937" r="2" />
	<circle cx="500.0000001033" cy="-866.0254027900" r="2" />
	<circle cx="592.4149839178" cy="-231.5186198352" r="2" />
	<circle cx="494.6197473399" cy="-345.5305803840" r="2" />
	<circle cx="499.1830506187" cy="-414.3826074085" r="2" />
	<circle cx="9.8888520765" cy="-6.4066790302" r="2" />
	<circle cx="500.0000000825" cy="-866.0254033063" r="2" />
	<circle cx="641.1370041812" cy="-327.9506938026" r="2" />
	<circle cx="485.3487981637" cy="-280.1315663684" r="2" />
	<circle cx="482.6395686148" cy="-240.5490467438" r="2" />
	<circle cx="674.2729339161" cy="-178.5088192789" r="2" />
	<circle cx="960.1280994412" cy="-25.2712411692" r="2" />
	<circle cx="336.4632672582" cy="-204.7125280678" r="2" />
	<circle cx="797.9180666102" cy="-114.2922026059" r="2" />
	<circle cx="581.9525266171" cy="-242.0068391506" r="2" />
	<circle cx="464.6242866336" cy="-350.1708985334" r="2" />
	<circle cx="499.2422203455" cy="-363.8011369891" r="2" />
	<circle cx="499.9988911128" cy="-866.0195719723" r="2" />
	<circle cx="62.2477578863" cy="-35.7493745156" r="2" />
	<circle cx="438.8654439797" cy="-307.8302988687" r="2" />
	<circle cx="523.6105039991" cy="-276.3276478691" r="2" />
	<circle cx="540.6498160498" cy="-353.9065234007" r="2" />
	<circle cx="0.0000003846" cy="-0.0000002442" r="2" />
	<circle cx="378.6964720819" cy="-216.8343737645" r="2" />
	<circle cx="481.1482318023" cy="-270.1465794520" r="2" />
	<circle cx="27.7487588997" cy="-15.5568106871" r="2" />
	<circle cx="689.1926512769" cy="-65.0680240028" r="2" />
	<circle cx="0.0420178271" cy="-0.0206096277" r="2" />
	<circle cx="560.3188127478" cy="-282.1664699412" r="2" />
	<circle cx="849.4889006976" cy="-88.0549131190" r="2" />
	<circle cx="498.0333712899" cy="-693.5891996517" r="2" />
	<circle cx="500.0001361809" cy="-866.0180138279" r="2" />
	<circle cx="325.3823563676" cy="-61.8526386666" r="2" />
	<circle cx="523.4048898389" cy="-307.4937949214" r="2" />
	<circle cx="517.9223335101" cy="-235.9061743197" r="2" />
	<circle cx="504.6653183753" cy="-294.6357571140" r="2" />
	<circle cx="976.6092197988" cy="-13.1402104665" r="2" />
	<circle cx="500.6836823269" cy="-400.9721896796" r="2" />
	<circle cx="500.0000000000" cy="-866.0254038000" r="2" />
	<circle cx="696.2425199897" cy="-93.1049113961" r="2" />
	<circle cx="248.1906784338" cy="-143.2413718986" r="2" />
	<circle cx="490.3087400742" cy="-743.3705167693" r="2" />
	<circle cx="579.3501640196" cy="-239.6461847868" r="2" />
	<circle cx="491.5916244842" cy="-280.8371772637" r="2" />
	<circle cx="500.0000000000" cy="-866.0254038000" r="2" />
	<circle cx="511.1676603426" cy="-393.6079145062" r="2" />
	<circle cx="499.8705869712" cy="-480.8468670678" r="2" />
	<circle cx="495.2342062444" cy="-285.1764233834" r="2" />
	<circle cx="499.9479162415" cy="-392.9788982147" r="2" />
	<circle cx="500.0000000000" cy="-866.0254038000" r="2" />
	<circle cx="0.0000000288" cy="-0.0000000166" r="2" />
	<circle cx="27.3309138955" cy="-17.3430123355" r="2" />
	<circle cx="511.4475942924" cy="-281.3148849033" r="2" />
	<circle cx="471.6376291007" cy="-217.7891267389" r="2" />
	<circle cx="545.2600580128" cy="-261.8685776135" r="2" />
	<circle cx="500.0710216961" cy="-829.2421271967" r="2" />
	<circle cx="975.6396841664" cy="-13.6574827244" r="2" />
	<circle cx="177.1412789830" cy="-244.9854870114" r="2" />
	<circle cx="366.5356339645" cy="-204.4798808613" r="2" />
	<circle cx="999.5671960418" cy="-0.2284102825" r="2" />
	<circle cx="507.2953831581" cy="-286.3481239155" r="2" />
	<circle cx="335.0551533632" cy="-192.8034030344" r="2" />
	<circle cx="0.0000000000" cy="-0.0000000000" r="2" />
	<circle cx="501.2718560375" cy="-323.3181265375" r="2" />
	<circle cx="509.4335843884" cy="-321.1678910831" r="2" />
	<circle cx="1.6912167386" cy="-0.9324936858" r="2" />
	<circle cx="535.6776145566" cy="-299.4666937247" r="2" />
	<circle cx="31.9492817035" cy="-18.5775171199" r="2" />
	<circle cx="529.8022652482" cy="-305.5236376369" r="2" />
	<circle cx="305.5213251795" cy="-176.3794702125" r="2" />
	<circle cx="630.7603956895" cy="-330.5608035303" r="2" />
  </g>
  <g id="fig2" transform="translate(-550.0,1000)">
	<polygon points="0.0,-0.0 1000.0,-0.0 500.0,-866.0254038" />
	<line
	   id="line2-1"
	   y2="-0.0"
	   x2="500"
	   y1="-288.6751346"
	   x1="500" />
	<line
	   id="line2-2"
	   y2="-433.0127019"
	   x2="250"
	   y1="-288.6751346"
	   x1="500" />
	<line
	   id="line2-3"
	   y2="-433.0127019"
	   x2="750"
	   y1="-288.6751346"
	   x1="500" />
	<text
	   x="440"
	   y="-500"
	   id="up_2">36.2%</text>
	<text
	   x="250"
	   y="-150"
	   id="down_left_2">33.4%</text>
	<text
	   x="630"
	   y="-150"
	   id="down_right_2">30.4%</text>
  </g>
  <g id="fig3" transform="translate(550,1000)">
	<polygon points="0.0,-0.0 1000.0,-0.0 500.0,-866.0254038" />
	<polygon id="triangle3b" points="250,-144.3375673 750,-144.3375673 500,-577.3502692" />
	<line
	   id="line3-1"
	   x1="125"
	   y1="-216.5063509"
	   x2="250"
	   y2="-144.3375673" />
	<line
	   id="line3-2"
	   x1="375"
	   y1="-649.5190528"
	   x2="500"
	   y2="-577.3502692" />
	<line
	   id="line3-3"
	   x1="625"
	   y1="-649.5190528"
	   x2="500"
	   y2="-577.3502692" />
	<line
	   id="line3-4"
	   x1="875"
	   y1="-216.5063509"
	   x2="750"
	   y2="-144.3375673" />
	<line
	   id="line3-5"
	   x1="750"
	   y1="-0.0"
	   x2="750"
	   y2="-144.3375673" />
	<line
	   id="line3-6"
	   x1="250"
	   y1="-0.0"
	   x2="250"
	   y2="-144.3375673" />
	<text
	   x="500"
	   y="-660"
	   text-anchor="middle"
	   id="up_3">15.0%</text>
	<text
	   y="-50"
	   x="70"
	   id="down_left_3">11.8%</text>
	<text
	   y="-50"
	   x="770"
	   id="down_right_3">13.0%</text>
	<text
	   x="500"
	   y="-50"
	   text-anchor="middle"
	   id="down_side_3">1.8%</text>
	<text
	   x="500"
	   y="-280"
	   text-anchor="middle"
	   id="center_3">55.6%</text>
	<text
	   x="685.0"
	   y="-390.8439"
	   text-anchor="middle"
	   transform="rotate(60,665.0,-380.8439)"
	   id="right_side_3">0.8%</text>
	<text
	   x="315.0"
	   y="-390.8439"
	   text-anchor="middle"
	   transform="rotate(-60,335.0,-380.8439)"
	   id="left_side_3">2.0%</text>
  </g>
</g></g>
</svg>
