<?xml version="1.0" encoding="UTF-8" standalone="no"?>
<!DOCTYPE svg PUBLIC "-//W3C//DTD SVG 1.1//EN" "http://www.w3.org/Graphics/SVG/1.1/DTD/svg11.dtd">
<svg
   xmlns:svg="http://www.w3.org/2000/svg"
   xmlns="http://www.w3.org/2000/svg"
   xmlns:xlink="http://www.w3.org/1999/xlink"
   version="1.1"
   baseProfile="full"
   id="body"
   width="800px"
   height="800px"
   viewBox="0 0 1000 1000"
   preserveAspectRatio="none">
  <defs>
    <style type="text/css"><![CDATA[
      circle{ stroke: none; }
      polygon{ stroke: black; stroke-width: 2px; fill: none; }
      line{ stroke: black; stroke-width: 2px; }
      text{ font-size:50px; }
    ]]></style>
  </defs>
  <title
     id="title1">SVG drawing</title>
<g transform="scale(0.45)"><g transform="translate(600,1050)">
  <g id="fig1">
	<polygon points="0.0,-0.0 1000.0,-0.0 500,-866.0254038" />
	<circle cx="0.0000022403" cy="-0.0000011111" r="2" />
	<circle cx="500.0000677609" cy="-865.8069924875" r="2" />
	<circle cx="4.5047921604" cy="-3.2143661008" r="2" />
	<circle cx="1000.0000000000" cy="-0.0000000000" r="2" />
	<circle cx="500.0000000000" cy="-866.0254038000" r="2" />
	<circle cx="567.0294557399" cy="-287.6315104575" r="2" />
	<circle cx="0.0000001942" cy="-0.0000001122" r="2" />
	<circle cx="999.9999999999" cy="-0.0000000001" r="2" />
	<circle cx="500.0000000000" cy="-866.0254038000" r="2" />
	<circle cx="499.9996083702" cy="-863.8338913218" r="2" />
	<circle cx="0.0000000000" cy="-0.0000000000" r="2" />
	<circle cx="0.0000000000" cy="-0.0000000000" r="2" />
	<circle cx="1000.0000000000" cy="-0.0000000000" r="2" />
	<circle cx="336.4699631680" cy="-153.4672750305" r="2" />
	<circle cx="493.6616585269" cy="-285.0025741388" r="2" />
	<circle cx="0.0000000000" cy="-0.0000000000" r="2" />
	<circle cx="500.0000000000" cy="-866.0254038000" r="2" />
	<circle cx="0.0000000000" cy="-0.0000000000" r="2" />
	<circle cx="0.0000000002" cy="-0.0000000001" r="2" />
	<circle cx="500.0001017893" cy="-866.0250867213" r="2" />
	<circle cx="669.1678240555" cy="-201.0837917453" r="2" />
	<circle cx="500.0000000000" cy="-866.0254038000" r="2" />
	<circle cx="706.2481590532" cy="-92.3396152702" r="2" />
	<circle cx="531.3113609188" cy="-259.7793451688" r="2" />
	<circle cx="1000.0000000000" cy="-0.0000000000" r="2" />
	<circle cx="7.0648388030" cy="-4.1359956368" r="2" />
	<circle cx="0.0000000000" cy="-0.0000000000" r="2" />
	<circle cx="437.1246466561" cy="-33.2242528921" r="2" />
	<circle cx="499.9999999983" cy="-866.0254037895" r="2" />
	<circle cx="815.7676142074" cy="-91.3511606437" r="2" />
	<circle cx="391.8553364983" cy="-226.2388573566" r="2" />
	<circle cx="1000.0000000000" cy="-0.0000000000" r="2" />
	<circle cx="0.0000000000" cy="-0.0000000000" r="2" />
	<circle cx="999.9999999892" cy="-0.0000000063" r="2" />
	<circle cx="507.4161757826" cy="-549.8389934148" r="2" />
	<circle cx="999.9999999998" cy="-0.0000000001" r="2" />
	<circle cx="500.0000000000" cy="-866.0254038000" r="2" />
	<circle cx="0.0000000000" cy="-0.0000000000" r="2" />
	<circle cx="500.0000000000" cy="-866.0254038000" r="2" />
	<circle cx="0.4534876591" cy="-0.0000000000" r="2" />
	<circle cx="999.9999979928" cy="-0.0000008408" r="2" />
	<circle cx="0.0000000000" cy="-0.0000000000" r="2" />
	<circle cx="13.1172157324" cy="-8.1138204129" r="2" />
	<circle cx="0.0000000000" cy="-0.0000000000" r="2" />
	<circle cx="976.3535579957" cy="-9.9780558570" r="2" />
	<circle cx="500.0000000000" cy="-866.0254038000" r="2" />
	<circle cx="499.9999999984" cy="-866.0254037091" r="2" />
	<circle cx="0.2606928339" cy="-0.4515332335" r="2" />
	<circle cx="500.0000002379" cy="-866.0223899223" r="2" />
	<circle cx="1000.0000000000" cy="-0.0000000000" r="2" />
	<circle cx="500.0000000000" cy="-866.0254038000" r="2" />
	<circle cx="0.0000000000" cy="-0.0000000000" r="2" />
	<circle cx="500.0000000000" cy="-866.0254038000" r="2" />
	<circle cx="0.0000000000" cy="-0.0000000000" r="2" />
	<circle cx="500.0000000000" cy="-866.0254038000" r="2" />
	<circle cx="500.0000000000" cy="-866.0254038000" r="2" />
	<circle cx="0.0716398675" cy="-0.0421088984" r="2" />
	<circle cx="500.0000000000" cy="-866.0254038000" r="2" />
	<circle cx="150.1521340322" cy="-105.5991565677" r="2" />
	<circle cx="0.0000000255" cy="-0.0000000151" r="2" />
	<circle cx="499.9999992714" cy="-866.0236378946" r="2" />
	<circle cx="1000.0000000000" cy="-0.0000000000" r="2" />
	<circle cx="0.0001208569" cy="-0.0000344101" r="2" />
	<circle cx="500.0494211536" cy="-288.7220126033" r="2" />
	<circle cx="619.2821040514" cy="-219.9904984919" r="2" />
	<circle cx="500.0000000000" cy="-866.0254038000" r="2" />
	<circle cx="500.0000000000" cy="-866.0254038000" r="2" />
	<circle cx="0.0000000000" cy="-0.0000000000" r="2" />
	<circle cx="500.0000000000" cy="-866.0254038000" r="2" />
	<circle cx="999.9985915612" cy="-0.0007669287" r="2" />
	<circle cx="0.1671044753" cy="-0.0611695175" r="2" />
	<circle cx="999.2079464024" cy="-0.4577056931" r="2" />
	<circle cx="0.0000000000" cy="-0.0000000000" r="2" />
	<circle cx="999.9981583906" cy="-0.0009292742" r="2" />
	<circle cx="638.8180699545" cy="-278.8724449830" r="2" />
	<circle cx="502.7984388659" cy="-357.6891269778" r="2" />
	<circle cx="1000.0000000000" cy="-0.0000000000" r="2" />
	<circle cx="970.6184974443" cy="-16.9420968398" r="2" />
	<circle cx="500.0000000000" cy="-866.0254038000" r="2" />
	<circle cx="1000.0000000000" cy="-0.0000000000" r="2" />
	<circle cx="999.9625409063" cy="-0.0216615832" r="2" />
	<circle cx="500.0000000000" cy="-866.0254037999" r="2" />
	<circle cx="501.2078994406" cy="-288.0011726010" r="2" />
	<circle cx="999.9999824768" cy="-0.0000096624" r="2" />
	<circle cx="930.6785917346" cy="-80.2732336581" r="2" />
	<circle cx="500.0000000000" cy="-866.0254038000" r="2" />
	<circle cx="500.0000000000" cy="-866.0254038000" r="2" />
	<circle cx="1000.0000000000" cy="-0.0000000000" r="2" />
	<circle cx="500.0000000000" cy="-866.0254038000" r="2" />
	<circle cx="0.0000000000" cy="-0.0000000000" r="2" />
	<circle cx="999.9999999919" cy="-0.0000000047" r="2" />
	<circle cx="500.0000000000" cy="-866.0254038000" r="2" />
	<circle cx="500.0000000000" cy="-866.0254038000" r="2" />
	<circle cx="0.1864101665" cy="-0.1438912406" r="2" />
	<circle cx="1000.0000000000" cy="-0.0000000000" r="2" />
	<circle cx="499.9991772447" cy="-866.0182603548" r="2" />
	<circle cx="500.0000000000" cy="-866.0254038000" r="2" />
	<circle cx="1000.0000000000" cy="-0.0000000000" r="2" />
	<circle cx="0.0380381872" cy="-0.0258990725" r="2" />
	<circle cx="0.0433429606" cy="-0.0747380764" r="2" />
	<circle cx="500.0000000000" cy="-866.0254038000" r="2" />
	<circle cx="500.0000000495" cy="-866.0252377033" r="2" />
	<circle cx="499.9939380225" cy="-863.2736782886" r="2" />
	<circle cx="0.0000000000" cy="-0.0000000000" r="2" />
	<circle cx="1000.0000000000" cy="-0.0000000000" r="2" />
	<circle cx="555.5821610461" cy="-256.6021994234" r="2" />
	<circle cx="999.9990495222" cy="-0.0005487974" r="2" />
	<circle cx="0.0000000000" cy="-0.0000000000" r="2" />
	<circle cx="499.9999851499" cy="-865.8885512585" r="2" />
	<circle cx="0.0000000000" cy="-0.0000000000" r="2" />
	<circle cx="999.9999999999" cy="-0.0000000001" r="2" />
	<circle cx="500.0000000000" cy="-866.0254038000" r="2" />
	<circle cx="500.0000000000" cy="-866.0254038000" r="2" />
	<circle cx="1000.0000000000" cy="-0.0000000000" r="2" />
	<circle cx="499.8790309818" cy="-321.5456300665" r="2" />
	<circle cx="998.6745455803" cy="-0.8987411212" r="2" />
	<circle cx="1000.0000000000" cy="-0.0000000000" r="2" />
	<circle cx="472.1844688806" cy="-160.5706722896" r="2" />
	<circle cx="500.0000000000" cy="-866.0254038000" r="2" />
	<circle cx="500.0000000015" cy="-866.0254037730" r="2" />
	<circle cx="499.9999592392" cy="-866.0238214193" r="2" />
	<circle cx="1000.0000000000" cy="-0.0000000000" r="2" />
	<circle cx="999.9997383894" cy="-0.0001510214" r="2" />
	<circle cx="499.9996276033" cy="-864.5946555266" r="2" />
	<circle cx="504.0817666515" cy="-327.9061308197" r="2" />
	<circle cx="997.9705338116" cy="-0.9989649464" r="2" />
	<circle cx="494.6984934389" cy="-539.2434645269" r="2" />
	<circle cx="0.0000000000" cy="-0.0000000000" r="2" />
	<circle cx="499.9999999993" cy="-866.0254028305" r="2" />
	<circle cx="999.9999999958" cy="-0.0000000024" r="2" />
	<circle cx="500.0000000000" cy="-866.0254038000" r="2" />
	<circle cx="999.9999675062" cy="-0.0000187703" r="2" />
	<circle cx="1000.0000000000" cy="-0.0000000000" r="2" />
	<circle cx="504.4627460480" cy="-285.9639866579" r="2" />
	<circle cx="0.0000015941" cy="-0.0000007577" r="2" />
	<circle cx="538.5412621052" cy="-266.4889689798" r="2" />
	<circle cx="517.3568474996" cy="-278.7344392983" r="2" />
	<circle cx="0.0101169017" cy="-0.0158495222" r="2" />
	<circle cx="539.5722579258" cy="-296.3104204828" r="2" />
	<circle cx="0.0000000000" cy="-0.0000000000" r="2" />
	<circle cx="0.0000000000" cy="-0.0000000000" r="2" />
	<circle cx="500.0000000000" cy="-866.0254038000" r="2" />
	<circle cx="1000.0000000000" cy="-0.0000000000" r="2" />
	<circle cx="499.9999998762" cy="-866.0244022417" r="2" />
	<circle cx="999.1085687082" cy="-0.5149089078" r="2" />
	<circle cx="499.9999739193" cy="-865.9707093137" r="2" />
	<circle cx="501.6130350066" cy="-337.9324666998" r="2" />
	<circle cx="0.0000000000" cy="-0.0000000000" r="2" />
	<circle cx="500.0000000000" cy="-866.0254038000" r="2" />
	<circle cx="500.0000000000" cy="-866.0254038000" r="2" />
	<circle cx="512.7606805678" cy="-776.0437286209" r="2" />
	<circle cx="499.9999532020" cy="-866.0245085748" r="2" />
	<circle cx="0.0000000000" cy="-0.0000000000" r="2" />
	<circle cx="0.0000000000" cy="-0.0000000000" r="2" />
	<circle cx="500.0000849363" cy="-865.6957492052" r="2" />
	<circle cx="999.9999999972" cy="-0.0000000018" r="2" />
	<circle cx="959.3230443036" cy="-22.3534947448" r="2" />
	<circle cx="2.4444118009" cy="-1.4119087173" r="2" />
	<circle cx="999.9912897991" cy="-0.0050265510" r="2" />
	<circle cx="1000.0000000000" cy="-0.0000000000" r="2" />
	<circle cx="499.9999999999" cy="-866.0254032958" r="2" />
	<circle cx="999.9999999994" cy="-0.0000000003" r="2" />
	<circle cx="0.0000000000" cy="-0.0000000000" r="2" />
	<circle cx="500.0006619612" cy="-863.9869758403" r="2" />
	<circle cx="999.7467569546" cy="-0.1463420160" r="2" />
	<circle cx="0.0036144324" cy="-0.0062430852" r="2" />
	<circle cx="999.9999999883" cy="-0.0000000065" r="2" />
	<circle cx="177.7055325514" cy="-218.3942719244" r="2" />
	<circle cx="451.8375939801" cy="-230.9285647693" r="2" />
	<circle cx="999.9999911171" cy="-0.0000113210" r="2" />
	<circle cx="413.7694870232" cy="-263.5235835905" r="2" />
	<circle cx="0.0000000003" cy="-0.0000000002" r="2" />
	<circle cx="979.5367739510" cy="-15.4894397223" r="2" />
	<circle cx="0.0000000000" cy="-0.0000000000" r="2" />
	<circle cx="1000.0000000000" cy="-0.0000000000" r="2" />
	<circle cx="0.0000000000" cy="-0.0000000000" r="2" />
	<circle cx="500.0000157813" cy="-865.9846676986" r="2" />
	<circle cx="1000.0000000000" cy="-0.0000000000" r="2" />
	<circle cx="999.9999976747" cy="-0.0000013423" r="2" />
	<circle cx="167.4674022172" cy="-87.5887137124" r="2" />
	<circle cx="499.8052118825" cy="-358.9388059573" r="2" />
	<circle cx="498.1179255788" cy="-287.3032423784" r="2" />
	<circle cx="535.0309235922" cy="-269.1504732253" r="2" />
	<circle cx="500.0000000000" cy="-866.0254038000" r="2" />
	<circle cx="999.9999999952" cy="-0.0000000028" r="2" />
	<circle cx="575.3428026522" cy="-245.0831968296" r="2" />
	<circle cx="999.9999999997" cy="-0.0000000002" r="2" />
	<circle cx="0.0198018087" cy="-0.0114611844" r="2" />
	<circle cx="499.9999647905" cy="-866.0247043506" r="2" />
	<circle cx="0.0000000001" cy="-0.0000000000" r="2" />
	<circle cx="999.9928303628" cy="-0.0066706391" r="2" />
	<circle cx="500.0000000000" cy="-866.0254038000" r="2" />
	<circle cx="1000.0000000000" cy="-0.0000000000" r="2" />
	<circle cx="500.0000000002" cy="-866.0254032267" r="2" />
	<circle cx="444.1579384003" cy="-256.4552153862" r="2" />
	<circle cx="1000.0000000000" cy="-0.0000000000" r="2" />
	<circle cx="1000.0000000000" cy="-0.0000000000" r="2" />
	<circle cx="0.0000000000" cy="-0.0000000000" r="2" />
	<circle cx="1000.0000000000" cy="-0.0000000000" r="2" />
	<circle cx="1000.0000000000" cy="-0.0000000000" r="2" />
	<circle cx="0.0011353663" cy="-0.0005742373" r="2" />
	<circle cx="0.0000000000" cy="-0.0000000000" r="2" />
	<circle cx="0.0002382791" cy="-0.0001100058" r="2" />
	<circle cx="0.0002015392" cy="-0.0001163488" r="2" />
	<circle cx="500.0000000000" cy="-866.0254038000" r="2" />
	<circle cx="0.0000000000" cy="-0.0000000000" r="2" />
	<circle cx="999.9952236610" cy="-0.0027971709" r="2" />
	<circle cx="1000.0000000000" cy="-0.0000000000" r="2" />
	<circle cx="499.9999999999" cy="-866.0254037998" r="2" />
	<circle cx="999.9999978914" cy="-0.0000017671" r="2" />
	<circle cx="500.0000000000" cy="-866.0254038000" r="2" />
	<circle cx="500.0262071827" cy="-288.6828738510" r="2" />
	<circle cx="499.2104540570" cy="-287.8722898101" r="2" />
	<circle cx="500.0000000000" cy="-866.0254038000" r="2" />
	<circle cx="1000.0000000000" cy="-0.0000000000" r="2" />
	<circle cx="0.0000397873" cy="-0.0000229575" r="2" />
	<circle cx="500.0000000000" cy="-866.0254038000" r="2" />
	<circle cx="500.0000000000" cy="-866.0254038000" r="2" />
	<circle cx="0.0000000000" cy="-0.0000000000" r="2" />
	<circle cx="1000.0000000000" cy="-0.0000000000" r="2" />
	<circle cx="500.0000000000" cy="-866.0254038000" r="2" />
	<circle cx="0.0000000000" cy="-0.0000000000" r="2" />
	<circle cx="0.0000000000" cy="-0.0000000000" r="2" />
	<circle cx="999.9999999997" cy="-0.0000000002" r="2" />
	<circle cx="999.9999999991" cy="-0.0000000004" r="2" />
	<circle cx="499.9995805953" cy="-866.0156616431" r="2" />
	<circle cx="500.0000000000" cy="-866.0254038000" r="2" />
	<circle cx="1000.0000000000" cy="-0.0000000000" r="2" />
	<circle cx="500.0000000000" cy="-866.0254038000" r="2" />
	<circle cx="999.8631299112" cy="-0.0789995788" r="2" />
	<circle cx="0.0000000000" cy="-0.0000000000" r="2" />
	<circle cx="136.8480259197" cy="-44.1718192230" r="2" />
	<circle cx="504.0297099650" cy="-287.8849350671" r="2" />
	<circle cx="999.9999994439" cy="-0.0000003209" r="2" />
	<circle cx="14.2305684529" cy="-10.0399735586" r="2" />
	<circle cx="999.9999999982" cy="-0.0000000011" r="2" />
	<circle cx="500.0000000000" cy="-866.0254038000" r="2" />
	<circle cx="499.9994360756" cy="-866.0074362173" r="2" />
	<circle cx="0.0000000000" cy="-0.0000000000" r="2" />
	<circle cx="500.0000000000" cy="-866.0254038000" r="2" />
	<circle cx="999.6822513670" cy="-0.1832774449" r="2" />
	<circle cx="500.0000000000" cy="-866.0254038000" r="2" />
	<circle cx="992.6126069352" cy="-4.2655582230" r="2" />
	<circle cx="0.0000000000" cy="-0.0000000000" r="2" />
	<circle cx="500.0000000418" cy="-866.0253480484" r="2" />
	<circle cx="465.6486437294" cy="-653.7281904845" r="2" />
	<circle cx="952.8039741492" cy="-42.9034416883" r="2" />
	<circle cx="0.0000000000" cy="-0.0000000000" r="2" />
	<circle cx="500.0000000057" cy="-866.0248804153" r="2" />
	<circle cx="999.9999997100" cy="-0.0000001675" r="2" />
	<circle cx="0.0000000000" cy="-0.0000000000" r="2" />
	<circle cx="1000.0000000000" cy="-0.0000000000" r="2" />
	<circle cx="0.0000700568" cy="-0.0000404058" r="2" />
	<circle cx="0.0000000000" cy="-0.0000000000" r="2" />
	<circle cx="500.0000000000" cy="-866.0254038000" r="2" />
	<circle cx="0.0000000000" cy="-0.0000000000" r="2" />
	<circle cx="500.0000000000" cy="-866.0254038000" r="2" />
	<circle cx="499.8763903229" cy="-288.7820637104" r="2" />
	<circle cx="999.9074692740" cy="-0.0533317939" r="2" />
	<circle cx="0.0000000349" cy="-0.0000000201" r="2" />
	<circle cx="0.0000000017" cy="-0.0000000010" r="2" />
	<circle cx="500.0000000000" cy="-866.0254038000" r="2" />
	<circle cx="0.0000000000" cy="-0.0000000000" r="2" />
	<circle cx="1000.0000000000" cy="-0.0000000000" r="2" />
	<circle cx="0.0000000017" cy="-0.0000000010" r="2" />
	<circle cx="500.0000000000" cy="-866.0254038000" r="2" />
	<circle cx="0.0000000146" cy="-0.0000000085" r="2" />
	<circle cx="988.9792498113" cy="-6.7584076306" r="2" />
	<circle cx="0.0000000000" cy="-0.0000000000" r="2" />
	<circle cx="509.5730178050" cy="-811.5139667524" r="2" />
	<circle cx="1000.0000000000" cy="-0.0000000000" r="2" />
	<circle cx="500.0000000000" cy="-866.0254038000" r="2" />
	<circle cx="4.1760913222" cy="-2.0174302979" r="2" />
	<circle cx="500.0123373993" cy="-865.9666864877" r="2" />
	<circle cx="500.0000000000" cy="-866.0254038000" r="2" />
	<circle cx="500.0000000000" cy="-866.0254038000" r="2" />
	<circle cx="542.7812340472" cy="-446.7506365849" r="2" />
	<circle cx="500.0000000000" cy="-866.0254038000" r="2" />
	<circle cx="500.0000000000" cy="-866.0254038000" r="2" />
	<circle cx="500.0000250781" cy="-866.0251015361" r="2" />
	<circle cx="6.4784402412" cy="-4.5987658354" r="2" />
	<circle cx="0.0000000000" cy="-0.0000000000" r="2" />
	<circle cx="1000.0000000000" cy="-0.0000000000" r="2" />
	<circle cx="0.0000000009" cy="-0.0000000005" r="2" />
	<circle cx="500.0000000000" cy="-866.0254038000" r="2" />
	<circle cx="500.0000000012" cy="-866.0254037930" r="2" />
	<circle cx="0.0000000000" cy="-0.0000000000" r="2" />
	<circle cx="1000.0000000000" cy="-0.0000000000" r="2" />
	<circle cx="1000.0000000000" cy="-0.0000000000" r="2" />
	<circle cx="1000.0000000000" cy="-0.0000000000" r="2" />
	<circle cx="500.0000724798" cy="-865.9185824479" r="2" />
	<circle cx="500.0000000000" cy="-866.0254038000" r="2" />
	<circle cx="0.0014557414" cy="-0.0000108069" r="2" />
	<circle cx="999.7396989119" cy="-0.4508547099" r="2" />
	<circle cx="999.9999767325" cy="-0.0000120262" r="2" />
	<circle cx="1000.0000000000" cy="-0.0000000000" r="2" />
	<circle cx="500.0000000000" cy="-866.0254038000" r="2" />
	<circle cx="500.0000000000" cy="-866.0254038000" r="2" />
	<circle cx="247.2844118699" cy="-361.8807077204" r="2" />
	<circle cx="500.0000000000" cy="-866.0254038000" r="2" />
	<circle cx="499.9946426371" cy="-865.9172265898" r="2" />
	<circle cx="0.0000145604" cy="-0.0000081574" r="2" />
	<circle cx="500.0000000000" cy="-866.0254038000" r="2" />
	<circle cx="0.0000000000" cy="-0.0000000000" r="2" />
	<circle cx="500.0000000000" cy="-866.0254038000" r="2" />
	<circle cx="999.9999999304" cy="-0.0000000402" r="2" />
	<circle cx="11.0098327059" cy="-6.7475522971" r="2" />
	<circle cx="21.9824612183" cy="-12.6883234949" r="2" />
	<circle cx="214.8406463453" cy="-144.7550073253" r="2" />
	<circle cx="500.0000000000" cy="-866.0254035687" r="2" />
	<circle cx="0.0000113214" cy="-0.0000064132" r="2" />
	<circle cx="2.7531375608" cy="-1.6159393941" r="2" />
	<circle cx="0.0122224332" cy="-0.0000261619" r="2" />
	<circle cx="0.0000000131" cy="-0.0000000182" r="2" />
	<circle cx="0.0000000000" cy="-0.0000000000" r="2" />
	<circle cx="0.0000251821" cy="-0.0000145278" r="2" />
	<circle cx="999.9369186865" cy="-0.0367736003" r="2" />
	<circle cx="1000.0000000000" cy="-0.0000000000" r="2" />
	<circle cx="499.8656135968" cy="-291.8953993867" r="2" />
	<circle cx="500.0000000000" cy="-866.0254038000" r="2" />
	<circle cx="500.0000000000" cy="-866.0254038000" r="2" />
	<circle cx="0.0000000000" cy="-0.0000000000" r="2" />
	<circle cx="1000.0000000000" cy="-0.0000000000" r="2" />
	<circle cx="999.9999987377" cy="-0.0000007286" r="2" />
	<circle cx="0.0000000000" cy="-0.0000000000" r="2" />
	<circle cx="498.0078991651" cy="-771.7803629047" r="2" />
	<circle cx="905.6872981787" cy="-56.1682624978" r="2" />
	<circle cx="499.9999999999" cy="-866.0254037999" r="2" />
	<circle cx="459.3779799444" cy="-338.8665354742" r="2" />
	<circle cx="0.0000000126" cy="-0.0000000062" r="2" />
	<circle cx="743.4308602340" cy="-163.3965718033" r="2" />
	<circle cx="0.0000000000" cy="-0.0000000000" r="2" />
	<circle cx="499.9999907958" cy="-865.8913474738" r="2" />
	<circle cx="495.9157402528" cy="-326.6251764260" r="2" />
	<circle cx="999.9994415363" cy="-0.0003226421" r="2" />
	<circle cx="0.0000000035" cy="-0.0000000023" r="2" />
	<circle cx="500.4849244912" cy="-861.2108328964" r="2" />
	<circle cx="993.2742879692" cy="-3.5374487866" r="2" />
	<circle cx="499.9999999973" cy="-866.0253850149" r="2" />
	<circle cx="0.0000000668" cy="-0.0000000394" r="2" />
	<circle cx="499.9999999894" cy="-866.0252696457" r="2" />
	<circle cx="512.5963310803" cy="-281.3557639524" r="2" />
	<circle cx="499.9996589200" cy="-865.1350224197" r="2" />
	<circle cx="0.0000000000" cy="-0.0000000000" r="2" />
	<circle cx="999.9999999278" cy="-0.0000000407" r="2" />
	<circle cx="432.1129479295" cy="-178.5547548349" r="2" />
	<circle cx="499.9999999483" cy="-866.0254013407" r="2" />
	<circle cx="1000.0000000000" cy="-0.0000000000" r="2" />
	<circle cx="0.3593379016" cy="-0.1980713903" r="2" />
	<circle cx="999.9984026325" cy="-0.0009214530" r="2" />
	<circle cx="500.0000000000" cy="-866.0254038000" r="2" />
	<circle cx="499.9490014116" cy="-288.7283456152" r="2" />
	<circle cx="500.0000000000" cy="-866.0254038000" r="2" />
	<circle cx="999.9999995661" cy="-0.0000002503" r="2" />
	<circle cx="995.6297228829" cy="-2.5228427911" r="2" />
	<circle cx="0.0597254567" cy="-0.0336308766" r="2" />
	<circle cx="500.0000111904" cy="-866.0232608536" r="2" />
	<circle cx="500.0144249616" cy="-864.7241520107" r="2" />
	<circle cx="499.9999998766" cy="-866.0254034768" r="2" />
	<circle cx="500.0000000000" cy="-866.0254038000" r="2" />
	<circle cx="0.0000000000" cy="-0.0000000000" r="2" />
	<circle cx="0.0000000000" cy="-0.0000000000" r="2" />
	<circle cx="500.0000000000" cy="-866.0254038000" r="2" />
	<circle cx="500.0000000000" cy="-866.0254038000" r="2" />
	<circle cx="500.0000000000" cy="-866.0254038000" r="2" />
	<circle cx="999.9999993025" cy="-0.0000004025" r="2" />
	<circle cx="1000.0000000000" cy="-0.0000000000" r="2" />
	<circle cx="1000.0000000000" cy="-0.0000000000" r="2" />
	<circle cx="500.0000000000" cy="-866.0254038000" r="2" />
	<circle cx="0.0442180446" cy="-0.0255597795" r="2" />
	<circle cx="469.8799739979" cy="-271.3269552864" r="2" />
	<circle cx="0.0000048901" cy="-0.0000028245" r="2" />
	<circle cx="500.0000000001" cy="-866.0254037999" r="2" />
	<circle cx="1000.0000000000" cy="-0.0000000000" r="2" />
	<circle cx="593.6920231576" cy="-252.8080892890" r="2" />
	<circle cx="0.0011317025" cy="-0.0008900073" r="2" />
	<circle cx="1.3636699519" cy="-0.7860242845" r="2" />
	<circle cx="999.9999708721" cy="-0.0000249728" r="2" />
	<circle cx="500.0000000000" cy="-866.0254037999" r="2" />
	<circle cx="0.0000000001" cy="-0.0000000000" r="2" />
	<circle cx="1000.0000000000" cy="-0.0000000000" r="2" />
	<circle cx="1000.0000000000" cy="-0.0000000000" r="2" />
	<circle cx="500.0000000000" cy="-866.0254038000" r="2" />
	<circle cx="0.0000000000" cy="-0.0000000000" r="2" />
	<circle cx="414.6272055162" cy="-665.2163470176" r="2" />
	<circle cx="0.0000000000" cy="-0.0000000000" r="2" />
	<circle cx="0.0000000000" cy="-0.0000000000" r="2" />
	<circle cx="500.0000000000" cy="-866.0254038000" r="2" />
	<circle cx="500.0026848857" cy="-293.0364927356" r="2" />
	<circle cx="500.0000000000" cy="-866.0254038000" r="2" />
	<circle cx="1000.0000000000" cy="-0.0000000000" r="2" />
	<circle cx="1000.0000000000" cy="-0.0000000000" r="2" />
	<circle cx="991.1205544683" cy="-5.5546185535" r="2" />
	<circle cx="501.1574007338" cy="-864.0203386334" r="2" />
	<circle cx="1000.0000000000" cy="-0.0000000000" r="2" />
	<circle cx="1000.0000000000" cy="-0.0000000000" r="2" />
	<circle cx="829.9064348332" cy="-98.2086134426" r="2" />
	<circle cx="500.0000000000" cy="-866.0254038000" r="2" />
	<circle cx="0.0000857114" cy="-0.0000521419" r="2" />
	<circle cx="500.0000000000" cy="-866.0254038000" r="2" />
	<circle cx="500.0000000000" cy="-866.0254038000" r="2" />
	<circle cx="1000.0000000000" cy="-0.0000000000" r="2" />
	<circle cx="999.9999999221" cy="-0.0000000468" r="2" />
	<circle cx="0.0000000000" cy="-0.0000000000" r="2" />
	<circle cx="500.0000000000" cy="-866.0254038000" r="2" />
	<circle cx="0.0000000000" cy="-0.0000000000" r="2" />
	<circle cx="0.0000000000" cy="-0.0000000000" r="2" />
	<circle cx="0.1654215439" cy="-0.0955693623" r="2" />
	<circle cx="491.6110372619" cy="-283.7746713110" r="2" />
	<circle cx="578.0053740850" cy="-243.6014007765" r="2" />
	<circle cx="1000.0000000000" cy="-0.0000000000" r="2" />
	<circle cx="0.0000000000" cy="-0.0000000000" r="2" />
	<circle cx="851.9785811849" cy="-130.2693150313" r="2" />
	<circle cx="0.0528151103" cy="-0.0304988838" r="2" />
	<circle cx="499.9999999998" cy="-866.0254037996" r="2" />
	<circle cx="499.9950375519" cy="-865.8358361875" r="2" />
	<circle cx="1000.0000000000" cy="-0.0000000000" r="2" />
	<circle cx="999.9268453963" cy="-0.0270641539" r="2" />
	<circle cx="499.9015158245" cy="-380.6299998362" r="2" />
	<circle cx="0.0000000013" cy="-0.0000000008" r="2" />
	<circle cx="0.0000000000" cy="-0.0000000000" r="2" />
	<circle cx="998.9404549531" cy="-0.6338332030" r="2" />
	<circle cx="500.0000000000" cy="-866.0254038000" r="2" />
	<circle cx="500.0000000000" cy="-866.0254038000" r="2" />
	<circle cx="999.9999995078" cy="-0.0000002307" r="2" />
	<circle cx="500.0000000000" cy="-866.0254037990" r="2" />
	<circle cx="1000.0000000000" cy="-0.0000000000" r="2" />
	<circle cx="500.2835543632" cy="-865.1928103269" r="2" />
	<circle cx="387.5419881049" cy="-235.3919423342" r="2" />
	<circle cx="999.9999999284" cy="-0.0000000412" r="2" />
	<circle cx="0.0000000005" cy="-0.0000000003" r="2" />
	<circle cx="500.0000000000" cy="-866.0254038000" r="2" />
	<circle cx="0.0000000029" cy="-0.0000000016" r="2" />
	<circle cx="500.0000000000" cy="-866.0254038000" r="2" />
	<circle cx="500.0000000000" cy="-866.0254037999" r="2" />
	<circle cx="500.0000000000" cy="-866.0254038000" r="2" />
	<circle cx="0.0000000000" cy="-0.0000000000" r="2" />
	<circle cx="1000.0000000000" cy="-0.0000000000" r="2" />
	<circle cx="500.0000000000" cy="-866.0254038000" r="2" />
	<circle cx="16.1358800760" cy="-7.0118324421" r="2" />
	<circle cx="500.0000000000" cy="-866.0254038000" r="2" />
	<circle cx="999.9987855919" cy="-0.0007255203" r="2" />
	<circle cx="999.9992354682" cy="-0.0004412665" r="2" />
	<circle cx="0.0000000042" cy="-0.0000000018" r="2" />
	<circle cx="0.0000007706" cy="-0.0000004453" r="2" />
	<circle cx="0.0000000000" cy="-0.0000000000" r="2" />
	<circle cx="477.9000472946" cy="-436.3896441865" r="2" />
	<circle cx="500.0000000000" cy="-866.0254038000" r="2" />
	<circle cx="0.0000000000" cy="-0.0000000000" r="2" />
	<circle cx="0.0000000000" cy="-0.0000000000" r="2" />
	<circle cx="1000.0000000000" cy="-0.0000000000" r="2" />
	<circle cx="500.0000000000" cy="-866.0254038000" r="2" />
	<circle cx="500.0962716436" cy="-288.7806332713" r="2" />
	<circle cx="499.8739423191" cy="-301.2119866781" r="2" />
	<circle cx="500.0000000000" cy="-866.0254038000" r="2" />
	<circle cx="500.0000000000" cy="-866.0254038000" r="2" />
	<circle cx="310.5188152043" cy="-471.3657437729" r="2" />
	<circle cx="500.0000000000" cy="-866.0254038000" r="2" />
	<circle cx="500.0000000000" cy="-866.0254038000" r="2" />
	<circle cx="999.9999999999" cy="-0.0000000000" r="2" />
	<circle cx="615.5104166733" cy="-172.5852246250" r="2" />
	<circle cx="999.9999999999" cy="-0.0000000000" r="2" />
	<circle cx="499.9999999998" cy="-866.0254036490" r="2" />
	<circle cx="500.0000000001" cy="-866.0254032991" r="2" />
	<circle cx="999.9999901670" cy="-0.0000056750" r="2" />
	<circle cx="1000.0000000000" cy="-0.0000000000" r="2" />
	<circle cx="1000.0000000000" cy="-0.0000000000" r="2" />
	<circle cx="500.0000000000" cy="-866.0254037994" r="2" />
	<circle cx="0.0000000000" cy="-0.0000000000" r="2" />
	<circle cx="532.0247574960" cy="-269.9995921770" r="2" />
	<circle cx="499.7924652988" cy="-321.3828442039" r="2" />
	<circle cx="497.7211366898" cy="-826.5721172162" r="2" />
	<circle cx="0.0000000000" cy="-0.0000000000" r="2" />
	<circle cx="500.0000000000" cy="-866.0254038000" r="2" />
	<circle cx="571.9520505427" cy="-272.2762776892" r="2" />
	<circle cx="1000.0000000000" cy="-0.0000000000" r="2" />
	<circle cx="500.0000000000" cy="-866.0254038000" r="2" />
	<circle cx="500.0000000000" cy="-866.0254037371" r="2" />
	<circle cx="500.0000000000" cy="-866.0254038000" r="2" />
	<circle cx="0.0000000000" cy="-0.0000000000" r="2" />
	<circle cx="500.0000000000" cy="-866.0254038000" r="2" />
	<circle cx="998.4888719340" cy="-0.6813183377" r="2" />
	<circle cx="0.0000000000" cy="-0.0000000000" r="2" />
	<circle cx="1000.0000000000" cy="-0.0000000000" r="2" />
	<circle cx="1000.0000000000" cy="-0.0000000000" r="2" />
	<circle cx="0.0000000000" cy="-0.0000000000" r="2" />
	<circle cx="1000.0000000000" cy="-0.0000000000" r="2" />
	<circle cx="500.0000000000" cy="-866.0254038000" r="2" />
	<circle cx="500.0000012276" cy="-866.0229094612" r="2" />
	<circle cx="0.0588028373" cy="-0.0339596002" r="2" />
	<circle cx="680.0818821159" cy="-184.3341537661" r="2" />
	<circle cx="942.1046126220" cy="-35.5409427101" r="2" />
	<circle cx="999.9619652354" cy="-0.0658781447" r="2" />
	<circle cx="500.0000000016" cy="-866.0254037959" r="2" />
	<circle cx="0.0000000000" cy="-0.0000000000" r="2" />
	<circle cx="500.0000000000" cy="-866.0254038000" r="2" />
	<circle cx="0.0000000001" cy="-0.0000000001" r="2" />
	<circle cx="1000.0000000000" cy="-0.0000000000" r="2" />
	<circle cx="500.0000000000" cy="-866.0254038000" r="2" />
	<circle cx="0.0000000000" cy="-0.0000000000" r="2" />
  </g>
  <g id="fig2" transform="translate(-550.0,1000)">
	<polygon points="0.0,-0.0 1000.0,-0.0 500.0,-866.0254038" />
	<line
	   id="line2-1"
	   y2="-0.0"
	   x2="500"
	   y1="-288.6751346"
	   x1="500" />
	<line
	   id="line2-2"
	   y2="-433.0127019"
	   x2="250"
	   y1="-288.6751346"
	   x1="500" />
	<line
	   id="line2-3"
	   y2="-433.0127019"
	   x2="750"
	   y1="-288.6751346"
	   x1="500" />
	<text
	   x="440"
	   y="-500"
	   id="up_2">36.4%</text>
	<text
	   x="250"
	   y="-150"
	   id="down_left_2">31.0%</text>
	<text
	   x="630"
	   y="-150"
	   id="down_right_2">32.6%</text>
  </g>
  <g id="fig3" transform="translate(550,1000)">
	<polygon points="0.0,-0.0 1000.0,-0.0 500.0,-866.0254038" />
	<polygon id="triangle3b" points="250,-144.3375673 750,-144.3375673 500,-577.3502692" />
	<line
	   id="line3-1"
	   x1="125"
	   y1="-216.5063509"
	   x2="250"
	   y2="-144.3375673" />
	<line
	   id="line3-2"
	   x1="375"
	   y1="-649.5190528"
	   x2="500"
	   y2="-577.3502692" />
	<line
	   id="line3-3"
	   x1="625"
	   y1="-649.5190528"
	   x2="500"
	   y2="-577.3502692" />
	<line
	   id="line3-4"
	   x1="875"
	   y1="-216.5063509"
	   x2="750"
	   y2="-144.3375673" />
	<line
	   id="line3-5"
	   x1="750"
	   y1="-0.0"
	   x2="750"
	   y2="-144.3375673" />
	<line
	   id="line3-6"
	   x1="250"
	   y1="-0.0"
	   x2="250"
	   y2="-144.3375673" />
	<text
	   x="500"
	   y="-660"
	   text-anchor="middle"
	   id="up_3">32.2%</text>
	<text
	   y="-50"
	   x="70"
	   id="down_left_3">27.8%</text>
	<text
	   y="-50"
	   x="770"
	   id="down_right_3">27.8%</text>
	<text
	   x="500"
	   y="-50"
	   text-anchor="middle"
	   id="down_side_3">0.4%</text>
	<text
	   x="500"
	   y="-280"
	   text-anchor="middle"
	   id="center_3">11.0%</text>
	<text
	   x="685.0"
	   y="-390.8439"
	   text-anchor="middle"
	   transform="rotate(60,665.0,-380.8439)"
	   id="right_side_3">0.2%</text>
	<text
	   x="315.0"
	   y="-390.8439"
	   text-anchor="middle"
	   transform="rotate(-60,335.0,-380.8439)"
	   id="left_side_3">0.6%</text>
  </g>
</g></g>
</svg>
