<?xml version="1.0" encoding="UTF-8" standalone="no"?>
<!DOCTYPE svg PUBLIC "-//W3C//DTD SVG 1.1//EN" "http://www.w3.org/Graphics/SVG/1.1/DTD/svg11.dtd">
<svg
   xmlns:svg="http://www.w3.org/2000/svg"
   xmlns="http://www.w3.org/2000/svg"
   xmlns:xlink="http://www.w3.org/1999/xlink"
   version="1.1"
   baseProfile="full"
   id="body"
   width="800px"
   height="800px"
   viewBox="0 0 1000 1000"
   preserveAspectRatio="none">
  <defs>
    <style type="text/css"><![CDATA[
      circle{ stroke: none; }
      polygon{ stroke: black; stroke-width: 2px; fill: none; }
      line{ stroke: black; stroke-width: 2px; }
      text{ font-size:50px; }
    ]]></style>
  </defs>
  <title
     id="title1">SVG drawing</title>
<g transform="scale(0.45)"><g transform="translate(600,1050)">
  <g id="fig1">
	<polygon points="0.0,-0.0 1000.0,-0.0 500,-866.0254038" />
	<circle cx="0.0000000000" cy="-0.0000000000" r="2" />
	<circle cx="500.0000000000" cy="-866.0254037965" r="2" />
	<circle cx="500.0000000000" cy="-866.0254038000" r="2" />
	<circle cx="500.0000000000" cy="-866.0254038000" r="2" />
	<circle cx="995.4860710661" cy="-3.3547140846" r="2" />
	<circle cx="500.0000000000" cy="-866.0254038000" r="2" />
	<circle cx="0.0000000000" cy="-0.0000000000" r="2" />
	<circle cx="1000.0000000000" cy="-0.0000000000" r="2" />
	<circle cx="500.0000000000" cy="-866.0254038000" r="2" />
	<circle cx="63.7403501815" cy="-25.3881936187" r="2" />
	<circle cx="500.0000000000" cy="-866.0254038000" r="2" />
	<circle cx="961.9566469809" cy="-22.4390527198" r="2" />
	<circle cx="986.9543932606" cy="-17.3864220200" r="2" />
	<circle cx="0.0000000000" cy="-0.0000000000" r="2" />
	<circle cx="5.8007002857" cy="-3.2170356032" r="2" />
	<circle cx="86.4701160361" cy="-5.3036392019" r="2" />
	<circle cx="500.0000000000" cy="-866.0254038000" r="2" />
	<circle cx="382.0023260276" cy="-221.6603412882" r="2" />
	<circle cx="1000.0000000000" cy="-0.0000000000" r="2" />
	<circle cx="0.0000000000" cy="-0.0000000000" r="2" />
	<circle cx="565.3889933043" cy="-251.0595816522" r="2" />
	<circle cx="1000.0000000000" cy="-0.0000000000" r="2" />
	<circle cx="500.0577129742" cy="-288.7196120192" r="2" />
	<circle cx="999.9982319382" cy="-0.0030201478" r="2" />
	<circle cx="0.0000000000" cy="-0.0000000000" r="2" />
	<circle cx="500.0000000000" cy="-866.0254038000" r="2" />
	<circle cx="999.9632822404" cy="-0.0166466165" r="2" />
	<circle cx="1000.0000000000" cy="-0.0000000000" r="2" />
	<circle cx="499.9999697528" cy="-866.0252928628" r="2" />
	<circle cx="0.0000000192" cy="-0.0000000111" r="2" />
	<circle cx="500.0000000000" cy="-866.0254038000" r="2" />
	<circle cx="0.0000000000" cy="-0.0000000000" r="2" />
	<circle cx="500.0000000000" cy="-866.0254038000" r="2" />
	<circle cx="0.0000000000" cy="-0.0000000000" r="2" />
	<circle cx="500.0000000000" cy="-866.0254038000" r="2" />
	<circle cx="500.0000000000" cy="-866.0254038000" r="2" />
	<circle cx="0.0000002928" cy="-0.0000001689" r="2" />
	<circle cx="500.0000000000" cy="-866.0254038000" r="2" />
	<circle cx="511.3488365616" cy="-348.7705012815" r="2" />
	<circle cx="986.6467766111" cy="-7.7110549845" r="2" />
	<circle cx="977.3153336644" cy="-11.3623859779" r="2" />
	<circle cx="1000.0000000000" cy="-0.0000000000" r="2" />
	<circle cx="500.0000000000" cy="-866.0254038000" r="2" />
	<circle cx="996.9360093641" cy="-1.7684497774" r="2" />
	<circle cx="930.3136242512" cy="-44.8673039626" r="2" />
	<circle cx="500.0000000000" cy="-866.0254038000" r="2" />
	<circle cx="0.0000000000" cy="-0.0000000000" r="2" />
	<circle cx="0.0021554743" cy="-0.0012447586" r="2" />
	<circle cx="999.9994267598" cy="-0.0003311009" r="2" />
	<circle cx="1000.0000000000" cy="-0.0000000000" r="2" />
	<circle cx="500.0000000000" cy="-866.0254038000" r="2" />
	<circle cx="500.0000000000" cy="-866.0254038000" r="2" />
	<circle cx="0.0000000000" cy="-0.0000000000" r="2" />
	<circle cx="499.1289977908" cy="-864.5167837192" r="2" />
	<circle cx="500.0000000000" cy="-866.0254038000" r="2" />
	<circle cx="499.9999967456" cy="-866.0251699224" r="2" />
	<circle cx="1000.0000000000" cy="-0.0000000000" r="2" />
	<circle cx="1000.0000000000" cy="-0.0000000000" r="2" />
	<circle cx="0.0000000000" cy="-0.0000000000" r="2" />
	<circle cx="1.5193766140" cy="-0.8771103519" r="2" />
	<circle cx="1000.0000000000" cy="-0.0000000000" r="2" />
	<circle cx="991.6627771078" cy="-6.4989864640" r="2" />
	<circle cx="517.1636458404" cy="-397.4636851509" r="2" />
	<circle cx="999.9999100629" cy="-0.0000207579" r="2" />
	<circle cx="0.0000000000" cy="-0.0000000000" r="2" />
	<circle cx="0.0000000000" cy="-0.0000000000" r="2" />
	<circle cx="0.0031021268" cy="-0.0053276873" r="2" />
	<circle cx="0.0022711439" cy="-0.0013119460" r="2" />
	<circle cx="500.0000000000" cy="-866.0254038000" r="2" />
	<circle cx="0.0000000000" cy="-0.0000000000" r="2" />
	<circle cx="500.0000000000" cy="-866.0254038000" r="2" />
	<circle cx="500.0000000000" cy="-866.0254038000" r="2" />
	<circle cx="12.2239335745" cy="-6.6887733503" r="2" />
	<circle cx="378.2263852415" cy="-218.2335809372" r="2" />
	<circle cx="1000.0000000000" cy="-0.0000000000" r="2" />
	<circle cx="0.0000000015" cy="-0.0000000007" r="2" />
	<circle cx="500.0000000292" cy="-866.0253495083" r="2" />
	<circle cx="0.0531616637" cy="-0.0621810385" r="2" />
	<circle cx="500.0000000000" cy="-866.0254038000" r="2" />
	<circle cx="500.0000000000" cy="-866.0254038000" r="2" />
	<circle cx="1.0958791284" cy="-0.0000000001" r="2" />
	<circle cx="500.0000000094" cy="-866.0253757503" r="2" />
	<circle cx="500.0000000000" cy="-866.0254038000" r="2" />
	<circle cx="1000.0000000000" cy="-0.0000000000" r="2" />
	<circle cx="500.0000000000" cy="-866.0254038000" r="2" />
	<circle cx="3.6290780124" cy="-2.2155839597" r="2" />
	<circle cx="0.0000000000" cy="-0.0000000000" r="2" />
	<circle cx="500.0000000000" cy="-866.0254038000" r="2" />
	<circle cx="500.0000000000" cy="-866.0254038000" r="2" />
	<circle cx="500.0000000000" cy="-866.0254038000" r="2" />
	<circle cx="500.0000000000" cy="-866.0254038000" r="2" />
	<circle cx="466.2913502028" cy="-555.1458631299" r="2" />
	<circle cx="1000.0000000000" cy="-0.0000000000" r="2" />
	<circle cx="500.0000000000" cy="-866.0254038000" r="2" />
	<circle cx="959.7813373494" cy="-2.9126779189" r="2" />
	<circle cx="989.4822441030" cy="-1.3906253806" r="2" />
	<circle cx="999.9468631563" cy="-0.0621436199" r="2" />
	<circle cx="500.0000000000" cy="-866.0254038000" r="2" />
	<circle cx="499.9999531503" cy="-865.5957590723" r="2" />
	<circle cx="0.0000000000" cy="-0.0000000000" r="2" />
	<circle cx="0.0000000000" cy="-0.0000000000" r="2" />
	<circle cx="581.7959095641" cy="-241.5553754468" r="2" />
	<circle cx="499.8026322513" cy="-865.2605869621" r="2" />
	<circle cx="0.0000000000" cy="-0.0000000000" r="2" />
	<circle cx="500.0000000000" cy="-866.0254038000" r="2" />
	<circle cx="999.9999999948" cy="-0.0000000019" r="2" />
	<circle cx="1000.0000000000" cy="-0.0000000000" r="2" />
	<circle cx="1000.0000000000" cy="-0.0000000000" r="2" />
	<circle cx="500.0000000000" cy="-866.0254038000" r="2" />
	<circle cx="500.0000462043" cy="-866.0252921501" r="2" />
	<circle cx="0.0000000000" cy="-0.0000000000" r="2" />
	<circle cx="732.4126584255" cy="-140.2501687493" r="2" />
	<circle cx="999.9999959716" cy="-0.0000031577" r="2" />
	<circle cx="500.0018025916" cy="-816.3030234352" r="2" />
	<circle cx="500.1295395377" cy="-310.3137961313" r="2" />
	<circle cx="499.9857416638" cy="-865.3507981717" r="2" />
	<circle cx="0.4084075571" cy="-0.2357388250" r="2" />
	<circle cx="1000.0000000000" cy="-0.0000000000" r="2" />
	<circle cx="1.3189415631" cy="-0.7616084789" r="2" />
	<circle cx="1000.0000000000" cy="-0.0000000000" r="2" />
	<circle cx="0.0000000000" cy="-0.0000000000" r="2" />
	<circle cx="1000.0000000000" cy="-0.0000000000" r="2" />
	<circle cx="500.0000000004" cy="-866.0254037993" r="2" />
	<circle cx="500.0000000000" cy="-866.0254038000" r="2" />
	<circle cx="0.1094970260" cy="-0.0615449815" r="2" />
	<circle cx="1000.0000000000" cy="-0.0000000000" r="2" />
	<circle cx="499.8003367463" cy="-863.9270801033" r="2" />
	<circle cx="744.0009670941" cy="-355.6880777298" r="2" />
	<circle cx="1000.0000000000" cy="-0.0000000000" r="2" />
	<circle cx="1000.0000000000" cy="-0.0000000000" r="2" />
	<circle cx="1000.0000000000" cy="-0.0000000000" r="2" />
	<circle cx="500.0000000000" cy="-866.0254038000" r="2" />
	<circle cx="1000.0000000000" cy="-0.0000000000" r="2" />
	<circle cx="500.0000000000" cy="-866.0254038000" r="2" />
	<circle cx="0.0000000000" cy="-0.0000000000" r="2" />
	<circle cx="500.0000000000" cy="-866.0254038000" r="2" />
	<circle cx="0.0000000000" cy="-0.0000000000" r="2" />
	<circle cx="976.0234850254" cy="-13.8357531095" r="2" />
	<circle cx="674.6187379147" cy="-188.9006460849" r="2" />
	<circle cx="999.9999931559" cy="-0.0000043245" r="2" />
	<circle cx="501.7294741707" cy="-288.0076153536" r="2" />
	<circle cx="1000.0000000000" cy="-0.0000000000" r="2" />
	<circle cx="1000.0000000000" cy="-0.0000000000" r="2" />
	<circle cx="999.9999264901" cy="-0.0000956808" r="2" />
	<circle cx="0.0000065102" cy="-0.0000035460" r="2" />
	<circle cx="475.8239691828" cy="-274.9881609756" r="2" />
	<circle cx="985.5535113139" cy="-8.3110890336" r="2" />
	<circle cx="1000.0000000000" cy="-0.0000000000" r="2" />
	<circle cx="1000.0000000000" cy="-0.0000000000" r="2" />
	<circle cx="37.9593240560" cy="-21.9043783275" r="2" />
	<circle cx="641.5774388581" cy="-314.8780294414" r="2" />
	<circle cx="500.0000000000" cy="-866.0254038000" r="2" />
	<circle cx="991.5568497196" cy="-4.8746208033" r="2" />
	<circle cx="500.0000000000" cy="-866.0254038000" r="2" />
	<circle cx="0.0000000000" cy="-0.0000000000" r="2" />
	<circle cx="0.0000000000" cy="-0.0000000000" r="2" />
	<circle cx="1000.0000000000" cy="-0.0000000000" r="2" />
	<circle cx="500.0000000000" cy="-866.0254038000" r="2" />
	<circle cx="0.0000000000" cy="-0.0000000000" r="2" />
	<circle cx="0.0129231532" cy="-0.0180662110" r="2" />
	<circle cx="998.4033262257" cy="-0.9912759269" r="2" />
	<circle cx="0.0000007730" cy="-0.0000005307" r="2" />
	<circle cx="111.7637836331" cy="-64.4683964190" r="2" />
	<circle cx="499.9999969243" cy="-865.9745313332" r="2" />
	<circle cx="500.0000000000" cy="-866.0254038000" r="2" />
	<circle cx="999.9999944925" cy="-0.0000032516" r="2" />
	<circle cx="500.0000000000" cy="-866.0254038000" r="2" />
	<circle cx="500.0000000000" cy="-866.0254038000" r="2" />
	<circle cx="507.0518840710" cy="-835.9199094794" r="2" />
	<circle cx="500.0000000000" cy="-866.0254038000" r="2" />
	<circle cx="500.0000000000" cy="-866.0254038000" r="2" />
	<circle cx="703.9267270223" cy="-204.2546899092" r="2" />
	<circle cx="500.0000000000" cy="-866.0254038000" r="2" />
	<circle cx="0.0281144749" cy="-0.0173391407" r="2" />
	<circle cx="999.9988071375" cy="-0.0005160092" r="2" />
	<circle cx="500.0000000000" cy="-866.0254038000" r="2" />
	<circle cx="500.0000000000" cy="-866.0254038000" r="2" />
	<circle cx="500.0000000000" cy="-866.0254038000" r="2" />
	<circle cx="529.4115420861" cy="-811.5872853062" r="2" />
	<circle cx="489.2659512428" cy="-435.1876402930" r="2" />
	<circle cx="615.1547307047" cy="-220.9833373974" r="2" />
	<circle cx="500.0000000000" cy="-866.0254038000" r="2" />
	<circle cx="500.0823021039" cy="-865.8828217059" r="2" />
	<circle cx="500.0000000000" cy="-866.0254038000" r="2" />
	<circle cx="499.9998674027" cy="-865.9825400575" r="2" />
	<circle cx="0.0000000000" cy="-0.0000000000" r="2" />
	<circle cx="1000.0000000000" cy="-0.0000000000" r="2" />
	<circle cx="1000.0000000000" cy="-0.0000000000" r="2" />
	<circle cx="500.0000000000" cy="-866.0254038000" r="2" />
	<circle cx="1000.0000000000" cy="-0.0000000000" r="2" />
	<circle cx="0.0000000000" cy="-0.0000000000" r="2" />
	<circle cx="500.0000000000" cy="-866.0254038000" r="2" />
	<circle cx="500.0000000006" cy="-866.0254000870" r="2" />
	<circle cx="465.9806987341" cy="-268.2308840538" r="2" />
	<circle cx="0.0000000000" cy="-0.0000000000" r="2" />
	<circle cx="0.0000000000" cy="-0.0000000000" r="2" />
	<circle cx="499.9990335781" cy="-857.4045931570" r="2" />
	<circle cx="0.0000167058" cy="-0.0000096421" r="2" />
	<circle cx="999.9999999984" cy="-0.0000000010" r="2" />
	<circle cx="500.0000000000" cy="-866.0254037999" r="2" />
	<circle cx="0.0000000000" cy="-0.0000000000" r="2" />
	<circle cx="1000.0000000000" cy="-0.0000000000" r="2" />
	<circle cx="2.4765450515" cy="-0.5760340181" r="2" />
	<circle cx="483.1609140952" cy="-309.1838264610" r="2" />
	<circle cx="500.0000000000" cy="-866.0254038000" r="2" />
	<circle cx="500.0000000000" cy="-866.0254038000" r="2" />
	<circle cx="1000.0000000000" cy="-0.0000000000" r="2" />
	<circle cx="1000.0000000000" cy="-0.0000000000" r="2" />
	<circle cx="500.0000000000" cy="-866.0254038000" r="2" />
	<circle cx="500.0000000000" cy="-866.0254038000" r="2" />
	<circle cx="0.0000000000" cy="-0.0000000000" r="2" />
	<circle cx="500.0000000000" cy="-866.0254038000" r="2" />
	<circle cx="999.9632960341" cy="-0.0166344443" r="2" />
	<circle cx="499.7172764650" cy="-864.7945985312" r="2" />
	<circle cx="997.2554022420" cy="-1.5841919846" r="2" />
	<circle cx="0.0420767896" cy="-0.0236829789" r="2" />
	<circle cx="499.8754842861" cy="-860.2862132213" r="2" />
	<circle cx="0.0327475349" cy="-0.0271181505" r="2" />
	<circle cx="0.0000000000" cy="-0.0000000000" r="2" />
	<circle cx="499.9533518484" cy="-288.7086091959" r="2" />
	<circle cx="0.0000000000" cy="-0.0000000000" r="2" />
	<circle cx="0.0000972901" cy="-0.0000550420" r="2" />
	<circle cx="1000.0000000000" cy="-0.0000000000" r="2" />
	<circle cx="999.9999999999" cy="-0.0000000001" r="2" />
	<circle cx="3.8363414094" cy="-2.2131793877" r="2" />
	<circle cx="1000.0000000000" cy="-0.0000000000" r="2" />
	<circle cx="500.0000000000" cy="-866.0254038000" r="2" />
	<circle cx="0.0000000000" cy="-0.0000000000" r="2" />
	<circle cx="1000.0000000000" cy="-0.0000000000" r="2" />
	<circle cx="0.0000000000" cy="-0.0000000000" r="2" />
	<circle cx="48.4123161349" cy="-23.1269806456" r="2" />
	<circle cx="999.9999999990" cy="-0.0000000007" r="2" />
	<circle cx="500.0000000000" cy="-866.0254038000" r="2" />
	<circle cx="497.2198105534" cy="-854.6657120777" r="2" />
	<circle cx="1.5526535493" cy="-0.8961864181" r="2" />
	<circle cx="1000.0000000000" cy="-0.0000000000" r="2" />
	<circle cx="1000.0000000000" cy="-0.0000000000" r="2" />
	<circle cx="500.0000000000" cy="-866.0254038000" r="2" />
	<circle cx="500.0000000000" cy="-866.0254038000" r="2" />
	<circle cx="496.8706129159" cy="-852.4551902654" r="2" />
	<circle cx="500.0000000000" cy="-866.0254038000" r="2" />
	<circle cx="500.0000000000" cy="-866.0254038000" r="2" />
	<circle cx="1000.0000000000" cy="-0.0000000000" r="2" />
	<circle cx="0.0000000000" cy="-0.0000000000" r="2" />
	<circle cx="501.5058358204" cy="-840.6859377950" r="2" />
	<circle cx="499.9801182461" cy="-706.0494682304" r="2" />
	<circle cx="978.2718473932" cy="-12.3903297487" r="2" />
	<circle cx="499.9978283141" cy="-865.8709404699" r="2" />
	<circle cx="0.0000000000" cy="-0.0000000000" r="2" />
	<circle cx="857.8318842038" cy="-208.0768410504" r="2" />
	<circle cx="0.0000000000" cy="-0.0000000000" r="2" />
	<circle cx="999.9974859743" cy="-0.0016032152" r="2" />
	<circle cx="0.0645503971" cy="-0.0373089842" r="2" />
	<circle cx="1000.0000000000" cy="-0.0000000000" r="2" />
	<circle cx="2.3289307118" cy="-1.2148189535" r="2" />
	<circle cx="1000.0000000000" cy="-0.0000000000" r="2" />
	<circle cx="0.0000000000" cy="-0.0000000000" r="2" />
	<circle cx="499.9999967251" cy="-865.7504281243" r="2" />
	<circle cx="500.0000367460" cy="-865.5538628246" r="2" />
	<circle cx="992.7624713358" cy="-4.1789029009" r="2" />
	<circle cx="500.0000000000" cy="-866.0254038000" r="2" />
	<circle cx="500.0000000000" cy="-866.0254038000" r="2" />
	<circle cx="504.6177163047" cy="-839.3296484883" r="2" />
	<circle cx="1000.0000000000" cy="-0.0000000000" r="2" />
	<circle cx="500.0000000000" cy="-866.0254038000" r="2" />
	<circle cx="0.0415471722" cy="-0.0239978618" r="2" />
	<circle cx="500.0000000000" cy="-866.0254038000" r="2" />
	<circle cx="999.9999999973" cy="-0.0000000021" r="2" />
	<circle cx="524.7597729212" cy="-388.6441085978" r="2" />
	<circle cx="831.7008283487" cy="-88.3159458739" r="2" />
	<circle cx="0.0000000000" cy="-0.0000000000" r="2" />
	<circle cx="1000.0000000000" cy="-0.0000000000" r="2" />
	<circle cx="0.0000000000" cy="-0.0000000000" r="2" />
	<circle cx="0.0000000000" cy="-0.0000000000" r="2" />
	<circle cx="0.0000000000" cy="-0.0000000000" r="2" />
	<circle cx="0.0000000000" cy="-0.0000000000" r="2" />
	<circle cx="8.7127115463" cy="-4.4190652819" r="2" />
	<circle cx="0.0000000000" cy="-0.0000000000" r="2" />
	<circle cx="226.0011018726" cy="-131.0312186593" r="2" />
	<circle cx="0.0000000000" cy="-0.0000000000" r="2" />
	<circle cx="500.0000000000" cy="-866.0254038000" r="2" />
	<circle cx="500.0000000000" cy="-866.0254038000" r="2" />
	<circle cx="1000.0000000000" cy="-0.0000000000" r="2" />
	<circle cx="1000.0000000000" cy="-0.0000000000" r="2" />
	<circle cx="499.9999998226" cy="-866.0253843633" r="2" />
	<circle cx="65.2660320000" cy="-92.7465327544" r="2" />
	<circle cx="998.5682701155" cy="-0.8434570286" r="2" />
	<circle cx="999.8599349138" cy="-0.1260506478" r="2" />
	<circle cx="499.9990615918" cy="-859.6560273855" r="2" />
	<circle cx="0.0000000000" cy="-0.0000000000" r="2" />
	<circle cx="0.0000000126" cy="-0.0000000087" r="2" />
	<circle cx="0.0000000000" cy="-0.0000000000" r="2" />
	<circle cx="500.0000000000" cy="-866.0254038000" r="2" />
	<circle cx="1000.0000000000" cy="-0.0000000000" r="2" />
	<circle cx="500.0099681101" cy="-865.1099167686" r="2" />
	<circle cx="0.3307055748" cy="-0.1498762296" r="2" />
	<circle cx="1000.0000000000" cy="-0.0000000000" r="2" />
	<circle cx="0.0000000000" cy="-0.0000000000" r="2" />
	<circle cx="1000.0000000000" cy="-0.0000000000" r="2" />
	<circle cx="999.6715572973" cy="-0.1896299337" r="2" />
	<circle cx="0.0000000000" cy="-0.0000000000" r="2" />
	<circle cx="7.9867365326" cy="-4.6782289816" r="2" />
	<circle cx="827.9082129931" cy="-99.3432048068" r="2" />
	<circle cx="896.9727036337" cy="-3.7309393336" r="2" />
	<circle cx="1000.0000000000" cy="-0.0000000000" r="2" />
	<circle cx="9.4525438945" cy="-5.2700423429" r="2" />
	<circle cx="500.0000000000" cy="-866.0254037999" r="2" />
	<circle cx="1000.0000000000" cy="-0.0000000000" r="2" />
	<circle cx="0.0000062821" cy="-0.0000035568" r="2" />
	<circle cx="490.5989704098" cy="-661.4639686211" r="2" />
	<circle cx="500.0535629777" cy="-288.7662616390" r="2" />
	<circle cx="1000.0000000000" cy="-0.0000000000" r="2" />
	<circle cx="0.0000000004" cy="-0.0000000001" r="2" />
	<circle cx="1000.0000000000" cy="-0.0000000000" r="2" />
	<circle cx="499.8065725348" cy="-302.3822461529" r="2" />
	<circle cx="1.7864115603" cy="-1.0316109530" r="2" />
	<circle cx="517.1941048286" cy="-252.1639477615" r="2" />
	<circle cx="500.0000000000" cy="-866.0254038000" r="2" />
	<circle cx="500.0000000000" cy="-866.0254038000" r="2" />
	<circle cx="499.9998889652" cy="-866.0049496972" r="2" />
	<circle cx="0.0000000000" cy="-0.0000000000" r="2" />
	<circle cx="500.0000000000" cy="-866.0254038000" r="2" />
	<circle cx="1.7085104871" cy="-1.7985208728" r="2" />
	<circle cx="500.0536426736" cy="-865.7829928345" r="2" />
	<circle cx="0.0000020554" cy="-0.0000011132" r="2" />
	<circle cx="500.0000000000" cy="-866.0254038000" r="2" />
	<circle cx="500.0000000000" cy="-866.0254038000" r="2" />
	<circle cx="0.0515003273" cy="-0.0000940749" r="2" />
	<circle cx="500.0028908698" cy="-837.8329101445" r="2" />
	<circle cx="500.0000000000" cy="-866.0254038000" r="2" />
	<circle cx="0.0000000000" cy="-0.0000000000" r="2" />
	<circle cx="500.0000000000" cy="-866.0254038000" r="2" />
	<circle cx="0.0005735269" cy="-0.0003309329" r="2" />
	<circle cx="1000.0000000000" cy="-0.0000000000" r="2" />
	<circle cx="499.8382969514" cy="-863.6768305967" r="2" />
	<circle cx="4.4667566586" cy="-2.5799258156" r="2" />
	<circle cx="535.9337639564" cy="-267.9237288928" r="2" />
	<circle cx="0.0000000000" cy="-0.0000000000" r="2" />
	<circle cx="500.0000000000" cy="-866.0254038000" r="2" />
	<circle cx="500.0006254193" cy="-864.1739058696" r="2" />
	<circle cx="769.3234228042" cy="-126.2861474256" r="2" />
	<circle cx="471.2438123924" cy="-206.6135406986" r="2" />
	<circle cx="1000.0000000000" cy="-0.0000000000" r="2" />
	<circle cx="504.6085069614" cy="-839.3459052723" r="2" />
	<circle cx="998.7170697045" cy="-0.5480928411" r="2" />
	<circle cx="500.0000000000" cy="-866.0254038000" r="2" />
	<circle cx="999.9952723521" cy="-0.0030013625" r="2" />
	<circle cx="62.6116904383" cy="-89.7568336595" r="2" />
	<circle cx="19.2369854340" cy="-11.1052119187" r="2" />
	<circle cx="500.0000000000" cy="-866.0254038000" r="2" />
	<circle cx="995.9723814828" cy="-2.5138026354" r="2" />
	<circle cx="499.9995033637" cy="-865.8869473321" r="2" />
	<circle cx="0.0000000000" cy="-0.0000000000" r="2" />
	<circle cx="0.0000000000" cy="-0.0000000000" r="2" />
	<circle cx="499.9927210749" cy="-845.6229309755" r="2" />
	<circle cx="0.0000000000" cy="-0.0000000000" r="2" />
	<circle cx="498.5246728948" cy="-860.4860555868" r="2" />
	<circle cx="500.0000000000" cy="-866.0254038000" r="2" />
	<circle cx="499.9992300555" cy="-860.0312617522" r="2" />
	<circle cx="586.8744933847" cy="-274.5483307513" r="2" />
	<circle cx="0.0000000000" cy="-0.0000000000" r="2" />
	<circle cx="999.9999294520" cy="-0.0000417727" r="2" />
	<circle cx="504.6085069614" cy="-839.3459052723" r="2" />
	<circle cx="1000.0000000000" cy="-0.0000000000" r="2" />
	<circle cx="999.9997108917" cy="-0.0001670590" r="2" />
	<circle cx="0.0000000000" cy="-0.0000000000" r="2" />
	<circle cx="558.8061672661" cy="-90.5613684246" r="2" />
	<circle cx="500.0000000000" cy="-866.0254038000" r="2" />
	<circle cx="0.0000000000" cy="-0.0000000000" r="2" />
	<circle cx="0.0006973994" cy="-0.0004028758" r="2" />
	<circle cx="1000.0000000000" cy="-0.0000000000" r="2" />
	<circle cx="0.0000000000" cy="-0.0000000000" r="2" />
	<circle cx="1000.0000000000" cy="-0.0000000000" r="2" />
	<circle cx="0.0000000000" cy="-0.0000000000" r="2" />
	<circle cx="0.0000000000" cy="-0.0000000000" r="2" />
	<circle cx="0.0000000000" cy="-0.0000000000" r="2" />
	<circle cx="1000.0000000000" cy="-0.0000000000" r="2" />
	<circle cx="0.0000000000" cy="-0.0000000000" r="2" />
	<circle cx="500.0000000000" cy="-866.0254038000" r="2" />
	<circle cx="0.0082398341" cy="-0.0142145056" r="2" />
	<circle cx="0.0000000000" cy="-0.0000000000" r="2" />
	<circle cx="1000.0000000000" cy="-0.0000000000" r="2" />
	<circle cx="0.0000000000" cy="-0.0000000000" r="2" />
	<circle cx="1000.0000000000" cy="-0.0000000000" r="2" />
	<circle cx="499.9999999965" cy="-866.0253911213" r="2" />
	<circle cx="499.9865965499" cy="-865.9715279360" r="2" />
	<circle cx="1000.0000000000" cy="-0.0000000000" r="2" />
	<circle cx="499.7934578163" cy="-865.1118199709" r="2" />
	<circle cx="0.0505954251" cy="-0.0366696891" r="2" />
	<circle cx="0.0000000000" cy="-0.0000000000" r="2" />
	<circle cx="0.0000000000" cy="-0.0000000000" r="2" />
	<circle cx="3.4879644915" cy="-2.0133101733" r="2" />
	<circle cx="973.4342066158" cy="-15.2099442767" r="2" />
	<circle cx="0.0000000000" cy="-0.0000000000" r="2" />
	<circle cx="0.0000000000" cy="-0.0000000000" r="2" />
	<circle cx="0.0000000000" cy="-0.0000000000" r="2" />
	<circle cx="1000.0000000000" cy="-0.0000000000" r="2" />
	<circle cx="500.0000036631" cy="-866.0253692781" r="2" />
	<circle cx="0.0019651172" cy="-0.0009246241" r="2" />
	<circle cx="499.3194191964" cy="-851.8674943142" r="2" />
	<circle cx="0.0000000000" cy="-0.0000000000" r="2" />
	<circle cx="739.4804445426" cy="-150.2304441962" r="2" />
	<circle cx="500.1039481882" cy="-865.4550604822" r="2" />
	<circle cx="1000.0000000000" cy="-0.0000000000" r="2" />
	<circle cx="500.0465455227" cy="-293.8621226200" r="2" />
	<circle cx="499.8141195858" cy="-864.1497067844" r="2" />
	<circle cx="1000.0000000000" cy="-0.0000000000" r="2" />
	<circle cx="0.0000000000" cy="-0.0000000000" r="2" />
	<circle cx="0.0000000000" cy="-0.0000000000" r="2" />
	<circle cx="0.0000000000" cy="-0.0000000000" r="2" />
	<circle cx="999.9967807899" cy="-0.0019198809" r="2" />
	<circle cx="1000.0000000000" cy="-0.0000000000" r="2" />
	<circle cx="0.0000000000" cy="-0.0000000000" r="2" />
	<circle cx="999.3588890084" cy="-0.3694459400" r="2" />
	<circle cx="1000.0000000000" cy="-0.0000000000" r="2" />
	<circle cx="500.0000000000" cy="-866.0254038000" r="2" />
	<circle cx="0.0000000000" cy="-0.0000000000" r="2" />
	<circle cx="500.0000001205" cy="-866.0253842892" r="2" />
	<circle cx="833.7211067979" cy="-4.9000441391" r="2" />
	<circle cx="0.0953931457" cy="-0.0433185830" r="2" />
	<circle cx="1.1164966760" cy="-0.8371453568" r="2" />
	<circle cx="500.0000030731" cy="-866.0252770702" r="2" />
	<circle cx="1000.0000000000" cy="-0.0000000000" r="2" />
	<circle cx="0.0000000000" cy="-0.0000000000" r="2" />
	<circle cx="500.0324982794" cy="-865.9691151289" r="2" />
	<circle cx="977.2089200280" cy="-18.2384938199" r="2" />
	<circle cx="0.0000000000" cy="-0.0000000000" r="2" />
	<circle cx="1000.0000000000" cy="-0.0000000000" r="2" />
	<circle cx="0.0000000000" cy="-0.0000000000" r="2" />
	<circle cx="1000.0000000000" cy="-0.0000000000" r="2" />
	<circle cx="994.4951583186" cy="-3.2199477162" r="2" />
	<circle cx="999.9999933178" cy="-0.0000038576" r="2" />
	<circle cx="500.0067191834" cy="-842.6359569489" r="2" />
	<circle cx="980.7509170834" cy="-11.1110160548" r="2" />
	<circle cx="500.0000000000" cy="-866.0254038000" r="2" />
	<circle cx="500.0000000000" cy="-866.0254038000" r="2" />
	<circle cx="500.0000000000" cy="-866.0254038000" r="2" />
	<circle cx="997.4867821218" cy="-1.4509691903" r="2" />
	<circle cx="500.0000000000" cy="-866.0254038000" r="2" />
	<circle cx="1000.0000000000" cy="-0.0000000000" r="2" />
	<circle cx="0.0000000000" cy="-0.0000000000" r="2" />
	<circle cx="500.0000000000" cy="-866.0254038000" r="2" />
	<circle cx="0.0000000000" cy="-0.0000000000" r="2" />
	<circle cx="0.0000000000" cy="-0.0000000000" r="2" />
	<circle cx="0.0000000000" cy="-0.0000000000" r="2" />
	<circle cx="499.9998008715" cy="-865.1732947936" r="2" />
	<circle cx="1000.0000000000" cy="-0.0000000000" r="2" />
	<circle cx="500.0000000000" cy="-866.0254038000" r="2" />
	<circle cx="500.0000065092" cy="-865.8038457509" r="2" />
	<circle cx="1000.0000000000" cy="-0.0000000000" r="2" />
	<circle cx="0.0000000000" cy="-0.0000000000" r="2" />
	<circle cx="0.8593722230" cy="-0.5130961025" r="2" />
	<circle cx="0.5803926022" cy="-0.3270219349" r="2" />
	<circle cx="500.0000000000" cy="-866.0254037999" r="2" />
	<circle cx="491.4648579129" cy="-846.0346689764" r="2" />
	<circle cx="500.0000002547" cy="-866.0254001439" r="2" />
	<circle cx="0.0000000000" cy="-0.0000000000" r="2" />
	<circle cx="430.3273060337" cy="-281.7641619172" r="2" />
	<circle cx="500.0000000000" cy="-866.0254038000" r="2" />
	<circle cx="999.9999999997" cy="-0.0000000002" r="2" />
	<circle cx="500.0000000000" cy="-866.0254038000" r="2" />
	<circle cx="0.0000000000" cy="-0.0000000000" r="2" />
	<circle cx="0.0000000000" cy="-0.0000000000" r="2" />
	<circle cx="965.6075979346" cy="-16.6694492812" r="2" />
	<circle cx="69.7717010123" cy="-40.7645429805" r="2" />
	<circle cx="500.0430280418" cy="-611.5351410866" r="2" />
	<circle cx="999.6242627424" cy="-0.2944860494" r="2" />
	<circle cx="0.0000000000" cy="-0.0000000000" r="2" />
	<circle cx="499.9822062314" cy="-865.5772096426" r="2" />
	<circle cx="968.3730955200" cy="-21.4500614003" r="2" />
	<circle cx="0.0000000004" cy="-0.0000000002" r="2" />
	<circle cx="500.0000000000" cy="-866.0254038000" r="2" />
	<circle cx="0.0000000000" cy="-0.0000000000" r="2" />
	<circle cx="470.1573908389" cy="-271.5473576758" r="2" />
	<circle cx="500.0000000000" cy="-866.0254038000" r="2" />
	<circle cx="499.9744398209" cy="-865.6769003297" r="2" />
	<circle cx="999.9999880133" cy="-0.0000190521" r="2" />
	<circle cx="500.0000000000" cy="-866.0254038000" r="2" />
	<circle cx="0.0000000000" cy="-0.0000000000" r="2" />
	<circle cx="1000.0000000000" cy="-0.0000000000" r="2" />
	<circle cx="5.5418044122" cy="-3.1573555296" r="2" />
	<circle cx="3.9125985916" cy="-2.2608520383" r="2" />
	<circle cx="1000.0000000000" cy="-0.0000000000" r="2" />
	<circle cx="500.0000000000" cy="-866.0254038000" r="2" />
	<circle cx="3.3734841656" cy="-1.9485033142" r="2" />
	<circle cx="0.0000000000" cy="-0.0000000000" r="2" />
	<circle cx="999.9999999995" cy="-0.0000000003" r="2" />
	<circle cx="591.2399688367" cy="-194.0912115999" r="2" />
	<circle cx="999.9999999610" cy="-0.0000000675" r="2" />
	<circle cx="998.5652393477" cy="-0.4270168413" r="2" />
	<circle cx="500.0000000000" cy="-866.0254038000" r="2" />
	<circle cx="744.0385408687" cy="-355.6262814286" r="2" />
	<circle cx="1000.0000000000" cy="-0.0000000000" r="2" />
	<circle cx="319.9832016496" cy="-466.5271731367" r="2" />
	<circle cx="412.3694320965" cy="-238.0875448985" r="2" />
	<circle cx="460.0471938593" cy="-265.4416941435" r="2" />
	<circle cx="999.9988658999" cy="-0.0005846117" r="2" />
	<circle cx="0.0000000000" cy="-0.0000000000" r="2" />
	<circle cx="1000.0000000000" cy="-0.0000000000" r="2" />
	<circle cx="999.9231630689" cy="-0.0201648314" r="2" />
  </g>
  <g id="fig2" transform="translate(-550.0,1000)">
	<polygon points="0.0,-0.0 1000.0,-0.0 500.0,-866.0254038" />
	<line
	   id="line2-1"
	   y2="-0.0"
	   x2="500"
	   y1="-288.6751346"
	   x1="500" />
	<line
	   id="line2-2"
	   y2="-433.0127019"
	   x2="250"
	   y1="-288.6751346"
	   x1="500" />
	<line
	   id="line2-3"
	   y2="-433.0127019"
	   x2="750"
	   y1="-288.6751346"
	   x1="500" />
	<text
	   x="440"
	   y="-500"
	   id="up_2">35.2%</text>
	<text
	   x="250"
	   y="-150"
	   id="down_left_2">33.2%</text>
	<text
	   x="630"
	   y="-150"
	   id="down_right_2">31.6%</text>
  </g>
  <g id="fig3" transform="translate(550,1000)">
	<polygon points="0.0,-0.0 1000.0,-0.0 500.0,-866.0254038" />
	<polygon id="triangle3b" points="250,-144.3375673 750,-144.3375673 500,-577.3502692" />
	<line
	   id="line3-1"
	   x1="125"
	   y1="-216.5063509"
	   x2="250"
	   y2="-144.3375673" />
	<line
	   id="line3-2"
	   x1="375"
	   y1="-649.5190528"
	   x2="500"
	   y2="-577.3502692" />
	<line
	   id="line3-3"
	   x1="625"
	   y1="-649.5190528"
	   x2="500"
	   y2="-577.3502692" />
	<line
	   id="line3-4"
	   x1="875"
	   y1="-216.5063509"
	   x2="750"
	   y2="-144.3375673" />
	<line
	   id="line3-5"
	   x1="750"
	   y1="-0.0"
	   x2="750"
	   y2="-144.3375673" />
	<line
	   id="line3-6"
	   x1="250"
	   y1="-0.0"
	   x2="250"
	   y2="-144.3375673" />
	<text
	   x="500"
	   y="-660"
	   text-anchor="middle"
	   id="up_3">32.6%</text>
	<text
	   y="-50"
	   x="70"
	   id="down_left_3">31.4%</text>
	<text
	   y="-50"
	   x="770"
	   id="down_right_3">28.2%</text>
	<text
	   x="500"
	   y="-50"
	   text-anchor="middle"
	   id="down_side_3">0.4%</text>
	<text
	   x="500"
	   y="-280"
	   text-anchor="middle"
	   id="center_3">6.4%</text>
	<text
	   x="685.0"
	   y="-390.8439"
	   text-anchor="middle"
	   transform="rotate(60,665.0,-380.8439)"
	   id="right_side_3">0.6%</text>
	<text
	   x="315.0"
	   y="-390.8439"
	   text-anchor="middle"
	   transform="rotate(-60,335.0,-380.8439)"
	   id="left_side_3">0.4%</text>
  </g>
</g></g>
</svg>
