<?xml version="1.0" encoding="UTF-8" standalone="no"?>
<!DOCTYPE svg PUBLIC "-//W3C//DTD SVG 1.1//EN" "http://www.w3.org/Graphics/SVG/1.1/DTD/svg11.dtd">
<svg
   xmlns:svg="http://www.w3.org/2000/svg"
   xmlns="http://www.w3.org/2000/svg"
   xmlns:xlink="http://www.w3.org/1999/xlink"
   version="1.1"
   baseProfile="full"
   id="body"
   width="800px"
   height="800px"
   viewBox="0 0 1000 1000"
   preserveAspectRatio="none">
  <defs>
    <style type="text/css"><![CDATA[
      circle{ stroke: none; }
      polygon{ stroke: black; stroke-width: 2px; fill: none; }
      line{ stroke: black; stroke-width: 2px; }
      text{ font-size:50px; }
    ]]></style>
  </defs>
  <title
     id="title1">SVG drawing</title>
<g transform="scale(0.45)"><g transform="translate(600,1050)">
  <g id="fig1">
	<polygon points="0.0,-0.0 1000.0,-0.0 500,-866.0254038" />
	<circle cx="500.0000000000" cy="-866.0254038000" r="2" />
	<circle cx="508.2711436957" cy="-632.9662157015" r="2" />
	<circle cx="0.0000000000" cy="-0.0000000000" r="2" />
	<circle cx="999.9999794616" cy="-0.0000118547" r="2" />
	<circle cx="0.6086514427" cy="-0.3516881277" r="2" />
	<circle cx="0.0000000000" cy="-0.0000000000" r="2" />
	<circle cx="499.9999998572" cy="-866.0254011132" r="2" />
	<circle cx="499.9998781124" cy="-866.0041912854" r="2" />
	<circle cx="0.0000000645" cy="-0.0000000420" r="2" />
	<circle cx="999.9999951297" cy="-0.0000028100" r="2" />
	<circle cx="500.0069936862" cy="-836.3479264367" r="2" />
	<circle cx="500.0000000000" cy="-866.0254038000" r="2" />
	<circle cx="499.9946738343" cy="-853.7153670912" r="2" />
	<circle cx="499.9999974235" cy="-866.0253922306" r="2" />
	<circle cx="1000.0000000000" cy="-0.0000000000" r="2" />
	<circle cx="1000.0000000000" cy="-0.0000000000" r="2" />
	<circle cx="500.0000000000" cy="-866.0254038000" r="2" />
	<circle cx="3.4294226165" cy="-1.9442352265" r="2" />
	<circle cx="500.0000000000" cy="-866.0254038000" r="2" />
	<circle cx="499.9952422055" cy="-866.0005864334" r="2" />
	<circle cx="500.0324022412" cy="-770.2252200850" r="2" />
	<circle cx="0.0000006949" cy="-0.0000004011" r="2" />
	<circle cx="499.9999818549" cy="-865.9521069054" r="2" />
	<circle cx="0.0000000000" cy="-0.0000000000" r="2" />
	<circle cx="500.0122136928" cy="-865.9944355328" r="2" />
	<circle cx="509.7195300862" cy="-846.2856057518" r="2" />
	<circle cx="1000.0000000000" cy="-0.0000000000" r="2" />
	<circle cx="113.0572590172" cy="-61.7892970331" r="2" />
	<circle cx="999.9906433684" cy="-0.0010622943" r="2" />
	<circle cx="1000.0000000000" cy="-0.0000000000" r="2" />
	<circle cx="1000.0000000000" cy="-0.0000000000" r="2" />
	<circle cx="986.6579444632" cy="-3.4334389421" r="2" />
	<circle cx="0.0754000901" cy="-0.0435707344" r="2" />
	<circle cx="5.1068079849" cy="-2.9495850198" r="2" />
	<circle cx="0.0000000000" cy="-0.0000000000" r="2" />
	<circle cx="1000.0000000000" cy="-0.0000000000" r="2" />
	<circle cx="966.6606796366" cy="-13.7420328437" r="2" />
	<circle cx="500.0000000000" cy="-866.0254038000" r="2" />
	<circle cx="500.0000000000" cy="-866.0254038000" r="2" />
	<circle cx="1000.0000000000" cy="-0.0000000000" r="2" />
	<circle cx="4.6999931703" cy="-5.1320364515" r="2" />
	<circle cx="1000.0000000000" cy="-0.0000000000" r="2" />
	<circle cx="1000.0000000000" cy="-0.0000000000" r="2" />
	<circle cx="1000.0000000000" cy="-0.0000000000" r="2" />
	<circle cx="500.0000000000" cy="-866.0254038000" r="2" />
	<circle cx="500.0000000000" cy="-866.0254038000" r="2" />
	<circle cx="0.0000000000" cy="-0.0000000000" r="2" />
	<circle cx="566.4843155122" cy="-250.1446087410" r="2" />
	<circle cx="500.0000000000" cy="-866.0254038000" r="2" />
	<circle cx="500.0000000000" cy="-866.0254038000" r="2" />
	<circle cx="0.0000716138" cy="-0.0000412849" r="2" />
	<circle cx="499.9999999947" cy="-866.0253756602" r="2" />
	<circle cx="500.0000000000" cy="-866.0254038000" r="2" />
	<circle cx="1000.0000000000" cy="-0.0000000000" r="2" />
	<circle cx="0.0000000000" cy="-0.0000000000" r="2" />
	<circle cx="500.0000000000" cy="-866.0254038000" r="2" />
	<circle cx="500.0000000000" cy="-866.0254038000" r="2" />
	<circle cx="1000.0000000000" cy="-0.0000000000" r="2" />
	<circle cx="164.5812338142" cy="-2.1472170343" r="2" />
	<circle cx="500.0025766661" cy="-850.6177382839" r="2" />
	<circle cx="0.0000000000" cy="-0.0000000000" r="2" />
	<circle cx="490.0606327740" cy="-827.9055186927" r="2" />
	<circle cx="1000.0000000000" cy="-0.0000000000" r="2" />
	<circle cx="419.5692387563" cy="-722.4183361010" r="2" />
	<circle cx="914.6403148767" cy="-77.2923315887" r="2" />
	<circle cx="0.0001430793" cy="-0.0000826150" r="2" />
	<circle cx="0.0001057135" cy="-0.0000609305" r="2" />
	<circle cx="499.9999375082" cy="-866.0121171133" r="2" />
	<circle cx="1000.0000000000" cy="-0.0000000000" r="2" />
	<circle cx="498.7079811271" cy="-287.9793259513" r="2" />
	<circle cx="0.0000000000" cy="-0.0000000000" r="2" />
	<circle cx="500.0000000000" cy="-866.0254038000" r="2" />
	<circle cx="9.7813609244" cy="-0.5279017346" r="2" />
	<circle cx="999.4975975662" cy="-0.3575226178" r="2" />
	<circle cx="500.0000001186" cy="-866.0251803702" r="2" />
	<circle cx="500.0000000000" cy="-866.0254038000" r="2" />
	<circle cx="999.9982548312" cy="-0.0010069925" r="2" />
	<circle cx="999.9999999285" cy="-0.0000000330" r="2" />
	<circle cx="499.9999997912" cy="-866.0202021668" r="2" />
	<circle cx="1000.0000000000" cy="-0.0000000000" r="2" />
	<circle cx="499.9985348953" cy="-605.8212142015" r="2" />
	<circle cx="999.9933000491" cy="-0.0038665357" r="2" />
	<circle cx="0.1690884516" cy="-0.0975562966" r="2" />
	<circle cx="0.0000000000" cy="-0.0000000000" r="2" />
	<circle cx="1000.0000000000" cy="-0.0000000000" r="2" />
	<circle cx="301.7335178534" cy="-273.6046716452" r="2" />
	<circle cx="844.9757847207" cy="-81.7183939931" r="2" />
	<circle cx="3.7530891660" cy="-2.1577451820" r="2" />
	<circle cx="499.9886520527" cy="-863.5848788052" r="2" />
	<circle cx="998.3638399453" cy="-0.9438990287" r="2" />
	<circle cx="500.0000000000" cy="-866.0254038000" r="2" />
	<circle cx="1000.0000000000" cy="-0.0000000000" r="2" />
	<circle cx="1000.0000000000" cy="-0.0000000000" r="2" />
	<circle cx="500.0000000000" cy="-866.0254038000" r="2" />
	<circle cx="500.1771450076" cy="-288.7399316233" r="2" />
	<circle cx="39.0304621487" cy="-2.3487195747" r="2" />
	<circle cx="999.6767722836" cy="-0.2338957505" r="2" />
	<circle cx="1000.0000000000" cy="-0.0000000000" r="2" />
	<circle cx="0.0058677683" cy="-0.0033870937" r="2" />
	<circle cx="0.0115992653" cy="-0.0070223079" r="2" />
	<circle cx="2.2564619956" cy="-1.3012794798" r="2" />
	<circle cx="527.1500070196" cy="-800.4615665740" r="2" />
	<circle cx="0.9365174557" cy="-0.5402961116" r="2" />
	<circle cx="499.9576791688" cy="-865.8333175835" r="2" />
	<circle cx="1000.0000000000" cy="-0.0000000000" r="2" />
	<circle cx="1000.0000000000" cy="-0.0000000000" r="2" />
	<circle cx="999.9999999825" cy="-0.0000000075" r="2" />
	<circle cx="0.0000000000" cy="-0.0000000000" r="2" />
	<circle cx="862.0482465765" cy="-65.4942645572" r="2" />
	<circle cx="500.0000000000" cy="-866.0254038000" r="2" />
	<circle cx="972.5295975707" cy="-21.6128144756" r="2" />
	<circle cx="220.0852491108" cy="-135.6544889317" r="2" />
	<circle cx="999.9999998125" cy="-0.0000001084" r="2" />
	<circle cx="999.9999999228" cy="-0.0000000524" r="2" />
	<circle cx="500.0000000000" cy="-866.0254038000" r="2" />
	<circle cx="12.6879470674" cy="-1.4938751755" r="2" />
	<circle cx="1000.0000000000" cy="-0.0000000000" r="2" />
	<circle cx="135.1567863358" cy="-232.7056040652" r="2" />
	<circle cx="0.0000000000" cy="-0.0000000000" r="2" />
	<circle cx="987.3995571819" cy="-18.7483379381" r="2" />
	<circle cx="998.6251152307" cy="-0.1753969897" r="2" />
	<circle cx="499.1105683349" cy="-841.8178415887" r="2" />
	<circle cx="1000.0000000000" cy="-0.0000000000" r="2" />
	<circle cx="500.0000000000" cy="-866.0254038000" r="2" />
	<circle cx="1000.0000000000" cy="-0.0000000000" r="2" />
	<circle cx="500.1084446557" cy="-865.1438073842" r="2" />
	<circle cx="0.0000000083" cy="-0.0000000048" r="2" />
	<circle cx="0.0000000000" cy="-0.0000000000" r="2" />
	<circle cx="999.5287760931" cy="-0.2263495648" r="2" />
	<circle cx="500.0000000000" cy="-866.0254038000" r="2" />
	<circle cx="499.9991321374" cy="-852.8151553359" r="2" />
	<circle cx="0.0000000000" cy="-0.0000000000" r="2" />
	<circle cx="499.9988478460" cy="-866.0194986309" r="2" />
	<circle cx="473.2675779747" cy="-563.9843420319" r="2" />
	<circle cx="995.5703052155" cy="-1.1675630914" r="2" />
	<circle cx="0.0000000000" cy="-0.0000000000" r="2" />
	<circle cx="994.8624713512" cy="-2.9671005620" r="2" />
	<circle cx="468.2268049507" cy="-294.4254677637" r="2" />
	<circle cx="500.0000000000" cy="-866.0254037999" r="2" />
	<circle cx="3.3303072310" cy="-1.8948189468" r="2" />
	<circle cx="500.0000000000" cy="-866.0254038000" r="2" />
	<circle cx="1000.0000000000" cy="-0.0000000000" r="2" />
	<circle cx="999.2952985860" cy="-0.1006894028" r="2" />
	<circle cx="716.6523425870" cy="-166.0066629068" r="2" />
	<circle cx="310.7758771229" cy="-171.5462569219" r="2" />
	<circle cx="224.6001952337" cy="-127.2354432996" r="2" />
	<circle cx="0.0000000000" cy="-0.0000000000" r="2" />
	<circle cx="1000.0000000000" cy="-0.0000000000" r="2" />
	<circle cx="1000.0000000000" cy="-0.0000000000" r="2" />
	<circle cx="0.0000000000" cy="-0.0000000000" r="2" />
	<circle cx="999.9997946762" cy="-0.0001185600" r="2" />
	<circle cx="500.0000000000" cy="-866.0254037816" r="2" />
	<circle cx="0.0000000074" cy="-0.0000000043" r="2" />
	<circle cx="500.0000672765" cy="-865.8318824754" r="2" />
	<circle cx="999.9999443099" cy="-0.0000321278" r="2" />
	<circle cx="1000.0000000000" cy="-0.0000000000" r="2" />
	<circle cx="3.9915501975" cy="-5.5878195303" r="2" />
	<circle cx="500.0000000164" cy="-866.0251793005" r="2" />
	<circle cx="0.0000000000" cy="-0.0000000000" r="2" />
	<circle cx="0.0016062089" cy="-0.0008830783" r="2" />
	<circle cx="500.0000000000" cy="-866.0254038000" r="2" />
	<circle cx="500.0000000000" cy="-866.0254038000" r="2" />
	<circle cx="92.5753277236" cy="-53.4460694233" r="2" />
	<circle cx="0.0008528246" cy="-0.0003832704" r="2" />
	<circle cx="1000.0000000000" cy="-0.0000000000" r="2" />
	<circle cx="500.0000000000" cy="-866.0254038000" r="2" />
	<circle cx="500.0000000000" cy="-866.0254038000" r="2" />
	<circle cx="500.0077024835" cy="-842.8682661676" r="2" />
	<circle cx="500.0011452902" cy="-863.2322225705" r="2" />
	<circle cx="500.0000000045" cy="-866.0253968397" r="2" />
	<circle cx="887.7813786799" cy="-64.8234860010" r="2" />
	<circle cx="506.1758403614" cy="-725.6237226486" r="2" />
	<circle cx="0.0000000000" cy="-0.0000000000" r="2" />
	<circle cx="0.0000000000" cy="-0.0000000000" r="2" />
	<circle cx="500.0001496547" cy="-863.9840560427" r="2" />
	<circle cx="95.4711579456" cy="-94.8833104773" r="2" />
	<circle cx="500.0012875250" cy="-860.0965343474" r="2" />
	<circle cx="500.2886537588" cy="-864.7419953852" r="2" />
	<circle cx="500.0000000000" cy="-866.0254038000" r="2" />
	<circle cx="1000.0000000000" cy="-0.0000000000" r="2" />
	<circle cx="0.0000000000" cy="-0.0000000000" r="2" />
	<circle cx="865.1871533545" cy="-77.8249532302" r="2" />
	<circle cx="992.6539542512" cy="-1.6272665948" r="2" />
	<circle cx="500.0000000000" cy="-866.0254038000" r="2" />
	<circle cx="2.5467266482" cy="-1.4709485780" r="2" />
	<circle cx="0.0000000000" cy="-0.0000000000" r="2" />
	<circle cx="0.0000000000" cy="-0.0000000000" r="2" />
	<circle cx="988.0176247458" cy="-5.5203409131" r="2" />
	<circle cx="500.0000000000" cy="-866.0254038000" r="2" />
	<circle cx="500.0000081667" cy="-866.0228865570" r="2" />
	<circle cx="0.0015195677" cy="-0.0008769099" r="2" />
	<circle cx="707.8167439712" cy="-168.6900694682" r="2" />
	<circle cx="500.0025409734" cy="-859.5892718790" r="2" />
	<circle cx="578.0909555482" cy="-243.7457980233" r="2" />
	<circle cx="500.0000000000" cy="-866.0254038000" r="2" />
	<circle cx="0.0000000000" cy="-0.0000000000" r="2" />
	<circle cx="0.0100869972" cy="-0.0058216275" r="2" />
	<circle cx="998.0974265829" cy="-1.1385493257" r="2" />
	<circle cx="500.0000000000" cy="-866.0254038000" r="2" />
	<circle cx="955.1534309063" cy="-25.8921752222" r="2" />
	<circle cx="0.0000000000" cy="-0.0000000000" r="2" />
	<circle cx="500.0000000000" cy="-866.0254038000" r="2" />
	<circle cx="482.5197441675" cy="-831.0520692683" r="2" />
	<circle cx="1.3081111913" cy="-0.7558270844" r="2" />
	<circle cx="999.9785525745" cy="-0.0123856933" r="2" />
	<circle cx="415.6979436401" cy="-240.0998736223" r="2" />
	<circle cx="999.9999749788" cy="-0.0000078264" r="2" />
	<circle cx="0.0000000000" cy="-0.0000000000" r="2" />
	<circle cx="4.0096282500" cy="-3.6825873197" r="2" />
	<circle cx="1000.0000000000" cy="-0.0000000000" r="2" />
	<circle cx="999.9999999770" cy="-0.0000000133" r="2" />
	<circle cx="499.0292665928" cy="-725.0213274943" r="2" />
	<circle cx="500.0402034780" cy="-288.6719671316" r="2" />
	<circle cx="1000.0000000000" cy="-0.0000000000" r="2" />
	<circle cx="1000.0000000000" cy="-0.0000000000" r="2" />
	<circle cx="0.3810890734" cy="-0.3723222586" r="2" />
	<circle cx="0.0000000000" cy="-0.0000000000" r="2" />
	<circle cx="500.0000000000" cy="-866.0254038000" r="2" />
	<circle cx="0.0000000000" cy="-0.0000000000" r="2" />
	<circle cx="1.3735034994" cy="-0.0857048867" r="2" />
	<circle cx="1000.0000000000" cy="-0.0000000000" r="2" />
	<circle cx="0.0000000000" cy="-0.0000000000" r="2" />
	<circle cx="249.8323799613" cy="-144.2234401704" r="2" />
	<circle cx="1000.0000000000" cy="-0.0000000000" r="2" />
	<circle cx="1000.0000000000" cy="-0.0000000000" r="2" />
	<circle cx="500.0000000000" cy="-866.0254038000" r="2" />
	<circle cx="999.7070682173" cy="-0.1690949967" r="2" />
	<circle cx="500.0000000000" cy="-866.0254038000" r="2" />
	<circle cx="500.0000000000" cy="-866.0254038000" r="2" />
	<circle cx="1000.0000000000" cy="-0.0000000000" r="2" />
	<circle cx="498.8633216573" cy="-584.6697567489" r="2" />
	<circle cx="0.0000000000" cy="-0.0000000000" r="2" />
	<circle cx="500.0776707974" cy="-865.6024114376" r="2" />
	<circle cx="500.0000000000" cy="-866.0254038000" r="2" />
	<circle cx="1000.0000000000" cy="-0.0000000000" r="2" />
	<circle cx="500.0000000000" cy="-866.0254038000" r="2" />
	<circle cx="0.0000000000" cy="-0.0000000000" r="2" />
	<circle cx="763.3501947492" cy="-141.6779479457" r="2" />
	<circle cx="0.0362306083" cy="-0.0080989896" r="2" />
	<circle cx="5.1255863756" cy="-3.5816340962" r="2" />
	<circle cx="499.9877773491" cy="-865.9365928509" r="2" />
	<circle cx="0.0000000000" cy="-0.0000000000" r="2" />
	<circle cx="500.0079035637" cy="-318.1578768013" r="2" />
	<circle cx="499.9999999997" cy="-866.0253946338" r="2" />
	<circle cx="500.0000000282" cy="-866.0253498847" r="2" />
	<circle cx="500.0000000000" cy="-866.0254038000" r="2" />
	<circle cx="500.0000000000" cy="-866.0254038000" r="2" />
	<circle cx="0.0000000000" cy="-0.0000000000" r="2" />
	<circle cx="995.0548014586" cy="-2.8531330434" r="2" />
	<circle cx="499.9982732370" cy="-773.5102180532" r="2" />
	<circle cx="500.0000000000" cy="-866.0254038000" r="2" />
	<circle cx="996.6015363401" cy="-1.9621042867" r="2" />
	<circle cx="1000.0000000000" cy="-0.0000000000" r="2" />
	<circle cx="1000.0000000000" cy="-0.0000000000" r="2" />
	<circle cx="502.9101355388" cy="-849.6313200243" r="2" />
	<circle cx="0.0000000000" cy="-0.0000000000" r="2" />
	<circle cx="499.5052542971" cy="-822.9006087893" r="2" />
	<circle cx="12.5085483182" cy="-9.7632497473" r="2" />
	<circle cx="1.1080299866" cy="-0.6299769310" r="2" />
	<circle cx="0.0000000143" cy="-0.0000000082" r="2" />
	<circle cx="500.0000000000" cy="-866.0254038000" r="2" />
	<circle cx="500.0000000000" cy="-866.0254038000" r="2" />
	<circle cx="502.5063683855" cy="-732.7043388906" r="2" />
	<circle cx="500.0000000000" cy="-866.0254038000" r="2" />
	<circle cx="999.6527332661" cy="-0.2001787668" r="2" />
	<circle cx="999.9359733013" cy="-0.0369898474" r="2" />
	<circle cx="500.0000000000" cy="-866.0254037368" r="2" />
	<circle cx="500.0234037543" cy="-865.5672739305" r="2" />
	<circle cx="0.0000000000" cy="-0.0000000000" r="2" />
	<circle cx="499.9998248865" cy="-864.2705318718" r="2" />
	<circle cx="1000.0000000000" cy="-0.0000000000" r="2" />
	<circle cx="499.9981681729" cy="-850.4330166467" r="2" />
	<circle cx="0.0000000000" cy="-0.0000000000" r="2" />
	<circle cx="966.4992474784" cy="-20.6665650665" r="2" />
	<circle cx="44.8486759996" cy="-25.8933976712" r="2" />
	<circle cx="19.6282299638" cy="-33.5631744676" r="2" />
	<circle cx="0.0000000000" cy="-0.0000000000" r="2" />
	<circle cx="500.0000000000" cy="-866.0254038000" r="2" />
	<circle cx="500.0003703807" cy="-865.5994116855" r="2" />
	<circle cx="500.0000000000" cy="-866.0254038000" r="2" />
	<circle cx="500.0000000000" cy="-866.0254038000" r="2" />
	<circle cx="318.2434060055" cy="-372.5893564049" r="2" />
	<circle cx="500.0000000000" cy="-866.0254038000" r="2" />
	<circle cx="500.5207963667" cy="-818.7152410246" r="2" />
	<circle cx="122.0879188673" cy="-66.2903282139" r="2" />
	<circle cx="121.6843923347" cy="-78.8976868395" r="2" />
	<circle cx="1000.0000000000" cy="-0.0000000000" r="2" />
	<circle cx="500.0000096745" cy="-866.0152423795" r="2" />
	<circle cx="500.0000000000" cy="-866.0254038000" r="2" />
	<circle cx="499.8213591378" cy="-287.8441785428" r="2" />
	<circle cx="1000.0000000000" cy="-0.0000000000" r="2" />
	<circle cx="499.9932914683" cy="-838.1315668792" r="2" />
	<circle cx="499.9929018672" cy="-852.0893232514" r="2" />
	<circle cx="0.0000000000" cy="-0.0000000000" r="2" />
	<circle cx="998.4053974712" cy="-1.2956232573" r="2" />
	<circle cx="0.0000000000" cy="-0.0000000000" r="2" />
	<circle cx="0.0000000000" cy="-0.0000000000" r="2" />
	<circle cx="1000.0000000000" cy="-0.0000000000" r="2" />
	<circle cx="0.0014779239" cy="-0.0008536150" r="2" />
	<circle cx="1000.0000000000" cy="-0.0000000000" r="2" />
	<circle cx="0.0000000000" cy="-0.0000000000" r="2" />
	<circle cx="0.0000000000" cy="-0.0000000000" r="2" />
	<circle cx="500.0000000000" cy="-866.0254038000" r="2" />
	<circle cx="500.6785839450" cy="-859.1687660084" r="2" />
	<circle cx="500.0000046919" cy="-866.0037752452" r="2" />
	<circle cx="1000.0000000000" cy="-0.0000000000" r="2" />
	<circle cx="999.9999870448" cy="-0.0000074875" r="2" />
	<circle cx="897.1437595285" cy="-11.0951954182" r="2" />
	<circle cx="971.6387563212" cy="-16.3652676095" r="2" />
	<circle cx="57.4840278370" cy="-37.7959993503" r="2" />
	<circle cx="498.6683710499" cy="-700.9825511951" r="2" />
	<circle cx="999.9999850630" cy="-0.0000138478" r="2" />
	<circle cx="500.0824403820" cy="-773.2169298639" r="2" />
	<circle cx="500.0234289716" cy="-865.3849483576" r="2" />
	<circle cx="500.0002869408" cy="-864.9440737487" r="2" />
	<circle cx="999.8589537020" cy="-0.0423598155" r="2" />
	<circle cx="0.0004776195" cy="-0.0002754455" r="2" />
	<circle cx="999.9976630256" cy="-0.0013493684" r="2" />
	<circle cx="500.0000000000" cy="-866.0254038000" r="2" />
	<circle cx="0.0000000000" cy="-0.0000000000" r="2" />
	<circle cx="500.0000000000" cy="-866.0254038000" r="2" />
	<circle cx="0.0000000000" cy="-0.0000000000" r="2" />
	<circle cx="0.0000000000" cy="-0.0000000000" r="2" />
	<circle cx="0.0779855494" cy="-0.0450663946" r="2" />
	<circle cx="500.0000000000" cy="-866.0254038000" r="2" />
	<circle cx="0.0000000000" cy="-0.0000000000" r="2" />
	<circle cx="516.3353883996" cy="-778.6618976739" r="2" />
	<circle cx="500.0000000672" cy="-866.0252683741" r="2" />
	<circle cx="498.2289308534" cy="-744.3637315350" r="2" />
	<circle cx="0.0071553687" cy="-0.0041347337" r="2" />
	<circle cx="0.0000000000" cy="-0.0000000000" r="2" />
	<circle cx="1000.0000000000" cy="-0.0000000000" r="2" />
	<circle cx="999.9521376200" cy="-0.0009019779" r="2" />
	<circle cx="499.9548825420" cy="-552.1174619567" r="2" />
	<circle cx="539.8797921376" cy="-245.0162467028" r="2" />
	<circle cx="2.9145628911" cy="-1.6832653599" r="2" />
	<circle cx="0.0000000000" cy="-0.0000000000" r="2" />
	<circle cx="214.7411129345" cy="-65.5635631104" r="2" />
	<circle cx="727.4067439287" cy="-153.8585436551" r="2" />
	<circle cx="500.0000000000" cy="-866.0254038000" r="2" />
	<circle cx="966.9275599677" cy="-25.6311475846" r="2" />
	<circle cx="500.0000000000" cy="-866.0254038000" r="2" />
	<circle cx="0.0224421578" cy="-0.0129624340" r="2" />
	<circle cx="0.0000000000" cy="-0.0000000000" r="2" />
	<circle cx="0.0000048428" cy="-0.0000027995" r="2" />
	<circle cx="999.9999985911" cy="-0.0000004382" r="2" />
	<circle cx="1000.0000000000" cy="-0.0000000000" r="2" />
	<circle cx="1000.0000000000" cy="-0.0000000000" r="2" />
	<circle cx="0.0000108335" cy="-0.0000100143" r="2" />
	<circle cx="698.3274247355" cy="-200.1079325534" r="2" />
	<circle cx="999.8686610162" cy="-0.1208876528" r="2" />
	<circle cx="499.9999999396" cy="-866.0251123520" r="2" />
	<circle cx="505.9194428079" cy="-585.1955874626" r="2" />
	<circle cx="500.0536239733" cy="-865.1195478383" r="2" />
	<circle cx="499.9955905503" cy="-866.0111496905" r="2" />
	<circle cx="616.6257806618" cy="-442.9528766081" r="2" />
	<circle cx="25.1953254238" cy="-14.5349373669" r="2" />
	<circle cx="1000.0000000000" cy="-0.0000000000" r="2" />
	<circle cx="500.0000000000" cy="-866.0254038000" r="2" />
	<circle cx="1000.0000000000" cy="-0.0000000000" r="2" />
	<circle cx="5.0677592426" cy="-1.7231660447" r="2" />
	<circle cx="999.9999999911" cy="-0.0000000052" r="2" />
	<circle cx="1000.0000000000" cy="-0.0000000000" r="2" />
	<circle cx="1000.0000000000" cy="-0.0000000000" r="2" />
	<circle cx="0.0000000000" cy="-0.0000000000" r="2" />
	<circle cx="596.1231359905" cy="-232.9960809248" r="2" />
	<circle cx="0.0000000000" cy="-0.0000000000" r="2" />
	<circle cx="481.8219055901" cy="-789.0554688071" r="2" />
	<circle cx="500.0001229339" cy="-866.0176486189" r="2" />
	<circle cx="500.0000000000" cy="-866.0254038000" r="2" />
	<circle cx="1000.0000000000" cy="-0.0000000000" r="2" />
	<circle cx="1.0496566098" cy="-0.6057487107" r="2" />
	<circle cx="999.9999999989" cy="-0.0000000006" r="2" />
	<circle cx="1000.0000000000" cy="-0.0000000000" r="2" />
	<circle cx="500.0000000000" cy="-866.0254038000" r="2" />
	<circle cx="999.1341640832" cy="-0.4991837591" r="2" />
	<circle cx="798.1553804554" cy="-143.2767274638" r="2" />
	<circle cx="500.0618926127" cy="-691.0092662883" r="2" />
	<circle cx="994.5872044484" cy="-3.8517883189" r="2" />
	<circle cx="534.1996815271" cy="-711.3557484707" r="2" />
	<circle cx="500.0000000000" cy="-866.0254038000" r="2" />
	<circle cx="1000.0000000000" cy="-0.0000000000" r="2" />
	<circle cx="999.9916868504" cy="-0.0061785413" r="2" />
	<circle cx="499.9980891421" cy="-849.4492865461" r="2" />
	<circle cx="0.0000000000" cy="-0.0000000000" r="2" />
	<circle cx="500.0000000000" cy="-866.0254038000" r="2" />
	<circle cx="88.5077834830" cy="-69.6059056625" r="2" />
	<circle cx="500.0000000000" cy="-866.0254037988" r="2" />
	<circle cx="500.0000000000" cy="-866.0254038000" r="2" />
	<circle cx="500.0000000000" cy="-866.0254038000" r="2" />
	<circle cx="0.0000000000" cy="-0.0000000000" r="2" />
	<circle cx="588.6117123460" cy="-548.6077540492" r="2" />
	<circle cx="0.0000000000" cy="-0.0000000000" r="2" />
	<circle cx="499.9888934442" cy="-865.8026754735" r="2" />
	<circle cx="1000.0000000000" cy="-0.0000000000" r="2" />
	<circle cx="0.2099731631" cy="-0.0555764211" r="2" />
	<circle cx="500.0000000000" cy="-866.0254038000" r="2" />
	<circle cx="0.1715243889" cy="-0.0991031414" r="2" />
	<circle cx="2.5838214519" cy="-1.5053839221" r="2" />
	<circle cx="991.7733746960" cy="-4.6789070291" r="2" />
	<circle cx="1000.0000000000" cy="-0.0000000000" r="2" />
	<circle cx="632.6402577379" cy="-374.9725140621" r="2" />
	<circle cx="999.9999997708" cy="-0.0000001323" r="2" />
	<circle cx="999.9999870448" cy="-0.0000074875" r="2" />
	<circle cx="54.0654362161" cy="-31.2161828156" r="2" />
	<circle cx="0.0078539234" cy="-0.0045379207" r="2" />
	<circle cx="1000.0000000000" cy="-0.0000000000" r="2" />
	<circle cx="0.0000000000" cy="-0.0000000000" r="2" />
	<circle cx="0.1770464588" cy="-0.0918256858" r="2" />
	<circle cx="999.9773034905" cy="-0.0209842952" r="2" />
	<circle cx="1000.0000000000" cy="-0.0000000000" r="2" />
	<circle cx="515.7071084742" cy="-480.1899226877" r="2" />
	<circle cx="0.0000000000" cy="-0.0000000000" r="2" />
	<circle cx="494.1447644883" cy="-322.9842013823" r="2" />
	<circle cx="499.9999974663" cy="-866.0165897488" r="2" />
	<circle cx="0.0000000000" cy="-0.0000000000" r="2" />
	<circle cx="500.0107747557" cy="-796.6745744512" r="2" />
	<circle cx="0.1541945173" cy="-0.0890069933" r="2" />
	<circle cx="1000.0000000000" cy="-0.0000000000" r="2" />
	<circle cx="999.9978222116" cy="-0.0012576970" r="2" />
	<circle cx="500.0000000000" cy="-866.0254038000" r="2" />
	<circle cx="1000.0000000000" cy="-0.0000000000" r="2" />
	<circle cx="0.0000000000" cy="-0.0000000000" r="2" />
	<circle cx="500.0000000000" cy="-866.0254038000" r="2" />
	<circle cx="0.0257947654" cy="-0.0148868781" r="2" />
	<circle cx="284.7786830087" cy="-205.1931398675" r="2" />
	<circle cx="139.4764975994" cy="-69.8933330171" r="2" />
	<circle cx="1000.0000000000" cy="-0.0000000000" r="2" />
	<circle cx="500.0000000000" cy="-866.0254037998" r="2" />
	<circle cx="0.0000000000" cy="-0.0000000000" r="2" />
	<circle cx="988.9633892436" cy="-8.3740639730" r="2" />
	<circle cx="714.4257888586" cy="-176.4084367947" r="2" />
	<circle cx="0.0000000000" cy="-0.0000000000" r="2" />
	<circle cx="979.9404567839" cy="-11.5729009435" r="2" />
	<circle cx="500.0000000000" cy="-866.0254038000" r="2" />
	<circle cx="499.9172626794" cy="-296.9572894237" r="2" />
	<circle cx="1000.0000000000" cy="-0.0000000000" r="2" />
	<circle cx="500.0415489983" cy="-863.3299833246" r="2" />
	<circle cx="500.0000000000" cy="-866.0254038000" r="2" />
	<circle cx="1.7788297667" cy="-0.1772551987" r="2" />
	<circle cx="1000.0000000000" cy="-0.0000000000" r="2" />
	<circle cx="0.0000000000" cy="-0.0000000000" r="2" />
	<circle cx="500.0000122732" cy="-865.9857537865" r="2" />
	<circle cx="499.9999999999" cy="-866.0254035366" r="2" />
	<circle cx="999.9999999538" cy="-0.0000000267" r="2" />
	<circle cx="0.0058671356" cy="-0.0033867371" r="2" />
	<circle cx="500.0000000000" cy="-866.0254038000" r="2" />
	<circle cx="500.0000000000" cy="-866.0254038000" r="2" />
	<circle cx="500.0000000000" cy="-866.0254038000" r="2" />
	<circle cx="1000.0000000000" cy="-0.0000000000" r="2" />
	<circle cx="1000.0000000000" cy="-0.0000000000" r="2" />
	<circle cx="500.0000000034" cy="-866.0254036283" r="2" />
	<circle cx="0.0000000000" cy="-0.0000000000" r="2" />
	<circle cx="264.5551848821" cy="-145.3518915332" r="2" />
	<circle cx="991.1123616847" cy="-5.8294675782" r="2" />
	<circle cx="806.3514832282" cy="-113.9500130137" r="2" />
	<circle cx="491.7209585488" cy="-632.7170288682" r="2" />
	<circle cx="500.0000000000" cy="-866.0254038000" r="2" />
	<circle cx="999.9999999759" cy="-0.0000000140" r="2" />
	<circle cx="499.9999999943" cy="-866.0253756513" r="2" />
	<circle cx="0.0012385467" cy="-0.0007145367" r="2" />
	<circle cx="835.0889366085" cy="-105.3954123333" r="2" />
	<circle cx="499.7685756167" cy="-862.1488345274" r="2" />
	<circle cx="904.7258234658" cy="-54.7659474582" r="2" />
	<circle cx="500.0000000000" cy="-866.0254038000" r="2" />
	<circle cx="999.9999995350" cy="-0.0000002683" r="2" />
	<circle cx="500.0000000000" cy="-866.0254037857" r="2" />
	<circle cx="999.4603439723" cy="-0.2914498127" r="2" />
	<circle cx="0.0000000000" cy="-0.0000000000" r="2" />
	<circle cx="499.9995102432" cy="-864.5224216191" r="2" />
	<circle cx="500.0003858052" cy="-861.6570398775" r="2" />
	<circle cx="794.8360455834" cy="-9.5684267826" r="2" />
	<circle cx="999.9997450283" cy="-0.0001241182" r="2" />
	<circle cx="485.7134098099" cy="-699.3707023930" r="2" />
	<circle cx="17.4773281084" cy="-12.1221007699" r="2" />
	<circle cx="999.9999546364" cy="-0.0000261765" r="2" />
	<circle cx="1000.0000000000" cy="-0.0000000000" r="2" />
	<circle cx="898.4866315705" cy="-58.6354096491" r="2" />
	<circle cx="499.9981480141" cy="-860.3164872018" r="2" />
	<circle cx="0.0000000000" cy="-0.0000000000" r="2" />
	<circle cx="499.9649242291" cy="-414.4211720420" r="2" />
	<circle cx="500.0513135105" cy="-865.4091131147" r="2" />
	<circle cx="0.0001174996" cy="-0.0000678511" r="2" />
	<circle cx="646.7308899614" cy="-51.2546809751" r="2" />
	<circle cx="709.5251830406" cy="-149.4893685399" r="2" />
	<circle cx="0.0000000000" cy="-0.0000000000" r="2" />
	<circle cx="1000.0000000000" cy="-0.0000000000" r="2" />
	<circle cx="548.3240062370" cy="-234.5795832749" r="2" />
	<circle cx="500.0568586028" cy="-865.8157838202" r="2" />
	<circle cx="952.4497805017" cy="-19.8092886609" r="2" />
	<circle cx="0.0096282700" cy="-0.0055563608" r="2" />
	<circle cx="573.3732330519" cy="-600.5856718627" r="2" />
	<circle cx="0.0002956175" cy="-0.0001706771" r="2" />
	<circle cx="999.8384435201" cy="-0.0384489811" r="2" />
	<circle cx="0.0000000000" cy="-0.0000000000" r="2" />
	<circle cx="997.3533979949" cy="-2.2032887323" r="2" />
	<circle cx="0.0083144396" cy="-0.0061788381" r="2" />
	<circle cx="999.8212016034" cy="-0.0946974178" r="2" />
	<circle cx="1000.0000000000" cy="-0.0000000000" r="2" />
	<circle cx="1000.0000000000" cy="-0.0000000000" r="2" />
  </g>
  <g id="fig2" transform="translate(-550.0,1000)">
	<polygon points="0.0,-0.0 1000.0,-0.0 500.0,-866.0254038" />
	<line
	   id="line2-1"
	   y2="-0.0"
	   x2="500"
	   y1="-288.6751346"
	   x1="500" />
	<line
	   id="line2-2"
	   y2="-433.0127019"
	   x2="250"
	   y1="-288.6751346"
	   x1="500" />
	<line
	   id="line2-3"
	   y2="-433.0127019"
	   x2="750"
	   y1="-288.6751346"
	   x1="500" />
	<text
	   x="440"
	   y="-500"
	   id="up_2">35.8%</text>
	<text
	   x="250"
	   y="-150"
	   id="down_left_2">30.8%</text>
	<text
	   x="630"
	   y="-150"
	   id="down_right_2">33.4%</text>
  </g>
  <g id="fig3" transform="translate(550,1000)">
	<polygon points="0.0,-0.0 1000.0,-0.0 500.0,-866.0254038" />
	<polygon id="triangle3b" points="250,-144.3375673 750,-144.3375673 500,-577.3502692" />
	<line
	   id="line3-1"
	   x1="125"
	   y1="-216.5063509"
	   x2="250"
	   y2="-144.3375673" />
	<line
	   id="line3-2"
	   x1="375"
	   y1="-649.5190528"
	   x2="500"
	   y2="-577.3502692" />
	<line
	   id="line3-3"
	   x1="625"
	   y1="-649.5190528"
	   x2="500"
	   y2="-577.3502692" />
	<line
	   id="line3-4"
	   x1="875"
	   y1="-216.5063509"
	   x2="750"
	   y2="-144.3375673" />
	<line
	   id="line3-5"
	   x1="750"
	   y1="-0.0"
	   x2="750"
	   y2="-144.3375673" />
	<line
	   id="line3-6"
	   x1="250"
	   y1="-0.0"
	   x2="250"
	   y2="-144.3375673" />
	<text
	   x="500"
	   y="-660"
	   text-anchor="middle"
	   id="up_3">33.6%</text>
	<text
	   y="-50"
	   x="70"
	   id="down_left_3">28.8%</text>
	<text
	   y="-50"
	   x="770"
	   id="down_right_3">30.6%</text>
	<text
	   x="500"
	   y="-50"
	   text-anchor="middle"
	   id="down_side_3">0.2%</text>
	<text
	   x="500"
	   y="-280"
	   text-anchor="middle"
	   id="center_3">5.0%</text>
	<text
	   x="685.0"
	   y="-390.8439"
	   text-anchor="middle"
	   transform="rotate(60,665.0,-380.8439)"
	   id="right_side_3">0.8%</text>
	<text
	   x="315.0"
	   y="-390.8439"
	   text-anchor="middle"
	   transform="rotate(-60,335.0,-380.8439)"
	   id="left_side_3">1.0%</text>
  </g>
</g></g>
</svg>
