<?xml version="1.0" encoding="UTF-8" standalone="no"?>
<!DOCTYPE svg PUBLIC "-//W3C//DTD SVG 1.1//EN" "http://www.w3.org/Graphics/SVG/1.1/DTD/svg11.dtd">
<svg
   xmlns:svg="http://www.w3.org/2000/svg"
   xmlns="http://www.w3.org/2000/svg"
   xmlns:xlink="http://www.w3.org/1999/xlink"
   version="1.1"
   baseProfile="full"
   id="body"
   width="800px"
   height="800px"
   viewBox="0 0 1000 1000"
   preserveAspectRatio="none">
  <defs>
    <style type="text/css"><![CDATA[
      circle{ stroke: none; }
      polygon{ stroke: black; stroke-width: 2px; fill: none; }
      line{ stroke: black; stroke-width: 2px; }
      text{ font-size:50px; }
    ]]></style>
  </defs>
  <title
     id="title1">SVG drawing</title>
<g transform="scale(0.45)"><g transform="translate(600,1050)">
  <g id="fig1">
	<polygon points="0.0,-0.0 1000.0,-0.0 500,-866.0254038" />
	<circle cx="500.0001861088" cy="-838.5489203269" r="2" />
	<circle cx="500.0000000000" cy="-866.0254038000" r="2" />
	<circle cx="1000.0000000000" cy="-0.0000000000" r="2" />
	<circle cx="500.0000000000" cy="-866.0254038000" r="2" />
	<circle cx="1000.0000000000" cy="-0.0000000000" r="2" />
	<circle cx="988.6507945209" cy="-6.5515629288" r="2" />
	<circle cx="500.0000000000" cy="-866.0254038000" r="2" />
	<circle cx="267.4732269350" cy="-154.4171281408" r="2" />
	<circle cx="999.9996617257" cy="-0.0001929768" r="2" />
	<circle cx="0.0000135857" cy="-0.0000078431" r="2" />
	<circle cx="500.0000000000" cy="-866.0254037999" r="2" />
	<circle cx="0.0000008248" cy="-0.0000004760" r="2" />
	<circle cx="0.0000001695" cy="-0.0000000978" r="2" />
	<circle cx="499.9999998471" cy="-866.0123263689" r="2" />
	<circle cx="0.0213615713" cy="-0.0123334139" r="2" />
	<circle cx="500.0000617717" cy="-865.3058298569" r="2" />
	<circle cx="1000.0000000000" cy="-0.0000000000" r="2" />
	<circle cx="0.0000000000" cy="-0.0000000000" r="2" />
	<circle cx="0.7942053564" cy="-0.4585522680" r="2" />
	<circle cx="1000.0000000000" cy="-0.0000000000" r="2" />
	<circle cx="500.0000000000" cy="-866.0254038000" r="2" />
	<circle cx="904.3095749870" cy="-55.4791997712" r="2" />
	<circle cx="499.9999462630" cy="-864.4780019445" r="2" />
	<circle cx="1000.0000000000" cy="-0.0000000000" r="2" />
	<circle cx="0.0000000000" cy="-0.0000000000" r="2" />
	<circle cx="999.9967388807" cy="-0.0018492392" r="2" />
	<circle cx="499.9957861496" cy="-602.1331799800" r="2" />
	<circle cx="500.0001547780" cy="-865.9777864052" r="2" />
	<circle cx="545.5775144330" cy="-261.7910706977" r="2" />
	<circle cx="500.0000000000" cy="-866.0254038000" r="2" />
	<circle cx="1000.0000000000" cy="-0.0000000000" r="2" />
	<circle cx="575.9982103943" cy="-247.0041980808" r="2" />
	<circle cx="999.9999999986" cy="-0.0000000008" r="2" />
	<circle cx="500.0083653622" cy="-570.8448096308" r="2" />
	<circle cx="1000.0000000000" cy="-0.0000000000" r="2" />
	<circle cx="500.0000000000" cy="-866.0254038000" r="2" />
	<circle cx="500.0000000000" cy="-866.0254038000" r="2" />
	<circle cx="0.0000000000" cy="-0.0000000000" r="2" />
	<circle cx="1.1604849338" cy="-0.0757604423" r="2" />
	<circle cx="307.9906568062" cy="-160.5171785360" r="2" />
	<circle cx="0.0000000000" cy="-0.0000000000" r="2" />
	<circle cx="0.0000000000" cy="-0.0000000000" r="2" />
	<circle cx="956.6019815771" cy="-25.0561474674" r="2" />
	<circle cx="477.1993489844" cy="-793.9093144271" r="2" />
	<circle cx="1000.0000000000" cy="-0.0000000000" r="2" />
	<circle cx="1000.0000000000" cy="-0.0000000000" r="2" />
	<circle cx="500.0000000000" cy="-866.0254038000" r="2" />
	<circle cx="141.4217516607" cy="-77.9934862801" r="2" />
	<circle cx="999.9999999995" cy="-0.0000000003" r="2" />
	<circle cx="0.0000377282" cy="-0.0000217839" r="2" />
	<circle cx="999.8030973660" cy="-0.1136801530" r="2" />
	<circle cx="493.0676978917" cy="-276.4585990278" r="2" />
	<circle cx="975.6486789394" cy="-14.1984943761" r="2" />
	<circle cx="0.0000000000" cy="-0.0000000000" r="2" />
	<circle cx="504.6535368605" cy="-304.6610276116" r="2" />
	<circle cx="500.0000000000" cy="-866.0254038000" r="2" />
	<circle cx="1000.0000000000" cy="-0.0000000000" r="2" />
	<circle cx="509.3836739313" cy="-293.9066905300" r="2" />
	<circle cx="0.0000000094" cy="-0.0000000054" r="2" />
	<circle cx="279.2113411121" cy="-161.1237217168" r="2" />
	<circle cx="92.7672283676" cy="-53.5610350321" r="2" />
	<circle cx="1000.0000000000" cy="-0.0000000000" r="2" />
	<circle cx="499.9999999999" cy="-866.0254037997" r="2" />
	<circle cx="0.0000000037" cy="-0.0000000021" r="2" />
	<circle cx="499.9769658112" cy="-415.4538934522" r="2" />
	<circle cx="500.1389742970" cy="-369.3685961949" r="2" />
	<circle cx="0.2978002860" cy="-0.1323050593" r="2" />
	<circle cx="519.4821464866" cy="-277.1023459726" r="2" />
	<circle cx="500.0000000000" cy="-866.0254038000" r="2" />
	<circle cx="5.1408937267" cy="-2.9076933004" r="2" />
	<circle cx="776.0847979821" cy="-129.2685625040" r="2" />
	<circle cx="500.0000268332" cy="-862.2944973767" r="2" />
	<circle cx="0.0000000000" cy="-0.0000000000" r="2" />
	<circle cx="0.0000000000" cy="-0.0000000000" r="2" />
	<circle cx="999.8385719627" cy="-0.0820667578" r="2" />
	<circle cx="1000.0000000000" cy="-0.0000000000" r="2" />
	<circle cx="500.0939741758" cy="-839.3483858724" r="2" />
	<circle cx="997.4219340665" cy="-1.4830542357" r="2" />
	<circle cx="1000.0000000000" cy="-0.0000000000" r="2" />
	<circle cx="505.0260754593" cy="-285.1229508884" r="2" />
	<circle cx="499.9260433353" cy="-865.4206586093" r="2" />
	<circle cx="0.0000000000" cy="-0.0000000000" r="2" />
	<circle cx="0.0000000000" cy="-0.0000000000" r="2" />
	<circle cx="0.0000004516" cy="-0.0000002607" r="2" />
	<circle cx="516.7129331140" cy="-279.0315028368" r="2" />
	<circle cx="500.0000000000" cy="-866.0254038000" r="2" />
	<circle cx="257.6785454876" cy="-148.7775201305" r="2" />
	<circle cx="949.2139217832" cy="-35.8963765129" r="2" />
	<circle cx="903.7829902791" cy="-54.8432016562" r="2" />
	<circle cx="443.7547390147" cy="-357.3467755761" r="2" />
	<circle cx="0.0000000000" cy="-0.0000000000" r="2" />
	<circle cx="999.8432017136" cy="-0.0907591454" r="2" />
	<circle cx="999.9988797952" cy="-0.0006465930" r="2" />
	<circle cx="500.0218381622" cy="-344.6805940638" r="2" />
	<circle cx="500.1975389139" cy="-385.6676124913" r="2" />
	<circle cx="0.0000000000" cy="-0.0000000000" r="2" />
	<circle cx="500.0000000000" cy="-866.0254032154" r="2" />
	<circle cx="214.1447083337" cy="-123.6400501991" r="2" />
	<circle cx="1000.0000000000" cy="-0.0000000000" r="2" />
	<circle cx="0.0031110683" cy="-0.0017962863" r="2" />
	<circle cx="0.0000000000" cy="-0.0000000000" r="2" />
	<circle cx="999.9999902750" cy="-0.0000056143" r="2" />
	<circle cx="1000.0000000000" cy="-0.0000000000" r="2" />
	<circle cx="1000.0000000000" cy="-0.0000000000" r="2" />
	<circle cx="1000.0000000000" cy="-0.0000000000" r="2" />
	<circle cx="499.9999802329" cy="-866.0253665615" r="2" />
	<circle cx="0.0000000000" cy="-0.0000000000" r="2" />
	<circle cx="1000.0000000000" cy="-0.0000000000" r="2" />
	<circle cx="218.6892469161" cy="-126.4190588218" r="2" />
	<circle cx="1000.0000000000" cy="-0.0000000000" r="2" />
	<circle cx="500.0000000000" cy="-866.0254038000" r="2" />
	<circle cx="500.0000000000" cy="-866.0254038000" r="2" />
	<circle cx="999.9888682912" cy="-0.0064259742" r="2" />
	<circle cx="500.0003498774" cy="-865.9996435277" r="2" />
	<circle cx="498.8897608376" cy="-380.8169859813" r="2" />
	<circle cx="62.9439108917" cy="-21.7754554705" r="2" />
	<circle cx="0.0000000000" cy="-0.0000000000" r="2" />
	<circle cx="834.8165105212" cy="-90.9404183806" r="2" />
	<circle cx="0.0000000000" cy="-0.0000000000" r="2" />
	<circle cx="1000.0000000000" cy="-0.0000000000" r="2" />
	<circle cx="504.0591571258" cy="-516.6760514226" r="2" />
	<circle cx="499.9973590490" cy="-407.3106953214" r="2" />
	<circle cx="1000.0000000000" cy="-0.0000000000" r="2" />
	<circle cx="522.0881439163" cy="-490.2953281671" r="2" />
	<circle cx="708.6939244385" cy="-102.9186621721" r="2" />
	<circle cx="500.0000000000" cy="-866.0254038000" r="2" />
	<circle cx="499.9926316252" cy="-772.9027734514" r="2" />
	<circle cx="1000.0000000000" cy="-0.0000000000" r="2" />
	<circle cx="999.9991811035" cy="-0.0004729152" r="2" />
	<circle cx="769.2959512984" cy="-133.1730176577" r="2" />
	<circle cx="500.0000000049" cy="-866.0253419405" r="2" />
	<circle cx="499.9996961427" cy="-837.2249804878" r="2" />
	<circle cx="660.3075188320" cy="-195.9575205686" r="2" />
	<circle cx="999.9999987545" cy="-0.0000007193" r="2" />
	<circle cx="210.6777912918" cy="-121.6316241391" r="2" />
	<circle cx="500.0000000000" cy="-866.0254038000" r="2" />
	<circle cx="499.9999999997" cy="-866.0253955257" r="2" />
	<circle cx="0.0000000000" cy="-0.0000000000" r="2" />
	<circle cx="500.0192328923" cy="-288.6320882277" r="2" />
	<circle cx="1000.0000000000" cy="-0.0000000000" r="2" />
	<circle cx="500.0000000000" cy="-866.0254038000" r="2" />
	<circle cx="0.0000018536" cy="-0.0000010702" r="2" />
	<circle cx="999.9999999996" cy="-0.0000000002" r="2" />
	<circle cx="999.9999998103" cy="-0.0000001094" r="2" />
	<circle cx="0.0000000050" cy="-0.0000000029" r="2" />
	<circle cx="423.7075778158" cy="-244.6434928125" r="2" />
	<circle cx="500.0000000000" cy="-866.0254038000" r="2" />
	<circle cx="500.0000000000" cy="-866.0254038000" r="2" />
	<circle cx="0.0000000000" cy="-0.0000000000" r="2" />
	<circle cx="995.4618310534" cy="-2.8201285779" r="2" />
	<circle cx="0.0000000000" cy="-0.0000000000" r="2" />
	<circle cx="0.0000000000" cy="-0.0000000000" r="2" />
	<circle cx="51.0862004773" cy="-29.4936749065" r="2" />
	<circle cx="1000.0000000000" cy="-0.0000000000" r="2" />
	<circle cx="500.0000260363" cy="-865.3941633029" r="2" />
	<circle cx="499.0493855825" cy="-289.1344719740" r="2" />
	<circle cx="0.4801661464" cy="-0.2792790738" r="2" />
	<circle cx="500.0000000000" cy="-866.0254038000" r="2" />
	<circle cx="0.0000000000" cy="-0.0000000000" r="2" />
	<circle cx="534.8512730229" cy="-268.5603479643" r="2" />
	<circle cx="314.1121698830" cy="-186.6503488287" r="2" />
	<circle cx="513.5286958380" cy="-475.0571449345" r="2" />
	<circle cx="754.6089780461" cy="-131.7476743841" r="2" />
	<circle cx="372.5839645467" cy="-165.2969434522" r="2" />
	<circle cx="718.1076719898" cy="-331.6874633525" r="2" />
	<circle cx="0.0000000565" cy="-0.0000000326" r="2" />
	<circle cx="622.8690120421" cy="-206.5708465981" r="2" />
	<circle cx="500.0000000000" cy="-866.0254038000" r="2" />
	<circle cx="442.3904206459" cy="-255.4342870769" r="2" />
	<circle cx="578.9188875101" cy="-243.1358034603" r="2" />
	<circle cx="1000.0000000000" cy="-0.0000000000" r="2" />
	<circle cx="500.0115395229" cy="-339.9803833251" r="2" />
	<circle cx="12.7320318905" cy="-9.1097514406" r="2" />
	<circle cx="0.0000000000" cy="-0.0000000000" r="2" />
	<circle cx="1000.0000000000" cy="-0.0000000000" r="2" />
	<circle cx="510.0257224468" cy="-374.1173043117" r="2" />
	<circle cx="392.6322960695" cy="-93.9207630214" r="2" />
	<circle cx="0.0000000000" cy="-0.0000000000" r="2" />
	<circle cx="500.0000000000" cy="-866.0254038000" r="2" />
	<circle cx="0.0000000000" cy="-0.0000000000" r="2" />
	<circle cx="0.0000000000" cy="-0.0000000000" r="2" />
	<circle cx="520.1850974520" cy="-277.0377955640" r="2" />
	<circle cx="516.7472850143" cy="-646.8573413450" r="2" />
	<circle cx="1000.0000000000" cy="-0.0000000000" r="2" />
	<circle cx="0.0000000338" cy="-0.0000000195" r="2" />
	<circle cx="500.0000000000" cy="-866.0254037999" r="2" />
	<circle cx="999.9985512673" cy="-0.0008364975" r="2" />
	<circle cx="0.0000000000" cy="-0.0000000000" r="2" />
	<circle cx="1000.0000000000" cy="-0.0000000000" r="2" />
	<circle cx="520.5381978607" cy="-287.8511910348" r="2" />
	<circle cx="1000.0000000000" cy="-0.0000000000" r="2" />
	<circle cx="0.0000000000" cy="-0.0000000000" r="2" />
	<circle cx="500.0000000000" cy="-866.0254037999" r="2" />
	<circle cx="0.0000000000" cy="-0.0000000000" r="2" />
	<circle cx="111.3941668252" cy="-54.0297949236" r="2" />
	<circle cx="500.0000000000" cy="-866.0254037939" r="2" />
	<circle cx="0.0000000000" cy="-0.0000000000" r="2" />
	<circle cx="461.2672248086" cy="-440.8158894795" r="2" />
	<circle cx="500.0000000000" cy="-866.0254038000" r="2" />
	<circle cx="1000.0000000000" cy="-0.0000000000" r="2" />
	<circle cx="425.8832464186" cy="-245.8737189877" r="2" />
	<circle cx="999.9980082709" cy="-0.0011497985" r="2" />
	<circle cx="500.0000000000" cy="-866.0254038000" r="2" />
	<circle cx="21.8314371286" cy="-12.6053771737" r="2" />
	<circle cx="1000.0000000000" cy="-0.0000000000" r="2" />
	<circle cx="486.8429998240" cy="-322.0397531704" r="2" />
	<circle cx="0.0000000000" cy="-0.0000000000" r="2" />
	<circle cx="500.0000000000" cy="-866.0254038000" r="2" />
	<circle cx="500.0000000000" cy="-866.0254038000" r="2" />
	<circle cx="999.9073028014" cy="-0.0535201237" r="2" />
	<circle cx="500.0061410474" cy="-865.3164233463" r="2" />
	<circle cx="0.0000000000" cy="-0.0000000000" r="2" />
	<circle cx="500.0028166283" cy="-837.8188307526" r="2" />
	<circle cx="500.0000000000" cy="-866.0254038000" r="2" />
	<circle cx="288.9352342535" cy="-409.4822442291" r="2" />
	<circle cx="500.0000000000" cy="-866.0254038000" r="2" />
	<circle cx="420.8779243454" cy="-322.7346948075" r="2" />
	<circle cx="0.0000000000" cy="-0.0000000000" r="2" />
	<circle cx="500.0000000000" cy="-866.0254038000" r="2" />
	<circle cx="440.0940973403" cy="-254.0812077274" r="2" />
	<circle cx="500.0000000000" cy="-866.0254037953" r="2" />
	<circle cx="0.0000000000" cy="-0.0000000000" r="2" />
	<circle cx="1000.0000000000" cy="-0.0000000000" r="2" />
	<circle cx="500.0000000000" cy="-866.0254038000" r="2" />
	<circle cx="431.6059477186" cy="-257.1802309744" r="2" />
	<circle cx="1000.0000000000" cy="-0.0000000000" r="2" />
	<circle cx="500.0029215720" cy="-737.6132644375" r="2" />
	<circle cx="500.0257031972" cy="-288.6837911183" r="2" />
	<circle cx="670.0499149896" cy="-190.4963257697" r="2" />
	<circle cx="350.0184573846" cy="-146.0926579844" r="2" />
	<circle cx="842.4555669670" cy="-90.9566311015" r="2" />
	<circle cx="500.0000000000" cy="-866.0254038000" r="2" />
	<circle cx="500.0000000000" cy="-866.0254038000" r="2" />
	<circle cx="500.0000000000" cy="-866.0254038000" r="2" />
	<circle cx="1000.0000000000" cy="-0.0000000000" r="2" />
	<circle cx="0.0000000000" cy="-0.0000000000" r="2" />
	<circle cx="999.9999997459" cy="-0.0000001467" r="2" />
	<circle cx="478.4645106452" cy="-515.4580890457" r="2" />
	<circle cx="500.0000000000" cy="-866.0254038000" r="2" />
	<circle cx="971.8421349897" cy="-16.1264379951" r="2" />
	<circle cx="15.8841189735" cy="-9.1418323409" r="2" />
	<circle cx="517.9469584000" cy="-785.1519983130" r="2" />
	<circle cx="571.1979661442" cy="-343.3229771478" r="2" />
	<circle cx="500.0000000000" cy="-866.0254038000" r="2" />
	<circle cx="999.9999999892" cy="-0.0000000062" r="2" />
	<circle cx="0.0000042333" cy="-0.0000024439" r="2" />
	<circle cx="499.9999999998" cy="-866.0254025326" r="2" />
	<circle cx="453.9968332427" cy="-262.2808559747" r="2" />
	<circle cx="535.5816817072" cy="-197.1812615951" r="2" />
	<circle cx="500.0000000000" cy="-866.0254038000" r="2" />
	<circle cx="0.0000000000" cy="-0.0000000000" r="2" />
	<circle cx="500.2264571731" cy="-855.7357701633" r="2" />
	<circle cx="500.0000231684" cy="-866.0252687461" r="2" />
	<circle cx="1000.0000000000" cy="-0.0000000000" r="2" />
	<circle cx="1000.0000000000" cy="-0.0000000000" r="2" />
	<circle cx="187.9673225279" cy="-108.5339117251" r="2" />
	<circle cx="551.9090584033" cy="-269.4494468967" r="2" />
	<circle cx="90.4320234534" cy="-59.6845196590" r="2" />
	<circle cx="974.6351649789" cy="-14.6418200489" r="2" />
	<circle cx="999.9999999917" cy="-0.0000000048" r="2" />
	<circle cx="697.6280025508" cy="-174.5496416267" r="2" />
	<circle cx="499.9853058594" cy="-288.6308201501" r="2" />
	<circle cx="1000.0000000000" cy="-0.0000000000" r="2" />
	<circle cx="0.0000000000" cy="-0.0000000000" r="2" />
	<circle cx="196.2654568690" cy="-199.3686354129" r="2" />
	<circle cx="138.6719819707" cy="-80.0641954257" r="2" />
	<circle cx="999.9999815005" cy="-0.0000106804" r="2" />
	<circle cx="0.0000000000" cy="-0.0000000000" r="2" />
	<circle cx="0.0000200257" cy="-0.0000115613" r="2" />
	<circle cx="1000.0000000000" cy="-0.0000000000" r="2" />
	<circle cx="0.0000000000" cy="-0.0000000000" r="2" />
	<circle cx="516.8282468541" cy="-798.4573148355" r="2" />
	<circle cx="929.6263585276" cy="-37.9699033674" r="2" />
	<circle cx="500.0000000000" cy="-866.0254017582" r="2" />
	<circle cx="999.9997382765" cy="-0.0001510966" r="2" />
	<circle cx="0.0000000389" cy="-0.0000000225" r="2" />
	<circle cx="0.0000000000" cy="-0.0000000000" r="2" />
	<circle cx="0.0000012064" cy="-0.0000006966" r="2" />
	<circle cx="998.6598206832" cy="-0.7736543412" r="2" />
	<circle cx="1000.0000000000" cy="-0.0000000000" r="2" />
	<circle cx="999.7318664402" cy="-0.1953786620" r="2" />
	<circle cx="0.0000000000" cy="-0.0000000000" r="2" />
	<circle cx="500.0000000000" cy="-866.0254038000" r="2" />
	<circle cx="0.0010096061" cy="-0.0005828551" r="2" />
	<circle cx="500.0000000000" cy="-866.0254038000" r="2" />
	<circle cx="500.0000000000" cy="-866.0254038000" r="2" />
	<circle cx="110.4014162552" cy="-63.7439242955" r="2" />
	<circle cx="209.3897997120" cy="-72.9386311946" r="2" />
	<circle cx="999.9999939313" cy="-0.0000035043" r="2" />
	<circle cx="499.5523903937" cy="-692.9357458814" r="2" />
	<circle cx="499.9995025812" cy="-844.5593302436" r="2" />
	<circle cx="500.0000000000" cy="-866.0254037991" r="2" />
	<circle cx="499.9965861515" cy="-416.6879958478" r="2" />
	<circle cx="1000.0000000000" cy="-0.0000000000" r="2" />
	<circle cx="0.2309876795" cy="-0.1333346408" r="2" />
	<circle cx="573.0218692234" cy="-252.8233740879" r="2" />
	<circle cx="0.0000087405" cy="-0.0000050457" r="2" />
	<circle cx="1000.0000000000" cy="-0.0000000000" r="2" />
	<circle cx="0.0000016914" cy="-0.0000009769" r="2" />
	<circle cx="0.0000000005" cy="-0.0000000003" r="2" />
	<circle cx="1000.0000000000" cy="-0.0000000000" r="2" />
	<circle cx="530.5318472459" cy="-333.5935620967" r="2" />
	<circle cx="1000.0000000000" cy="-0.0000000000" r="2" />
	<circle cx="500.0000095382" cy="-865.2361178052" r="2" />
	<circle cx="500.0000000000" cy="-866.0254038000" r="2" />
	<circle cx="999.9999999884" cy="-0.0000000067" r="2" />
	<circle cx="500.0000000000" cy="-866.0254038000" r="2" />
	<circle cx="0.0299555256" cy="-0.0172040331" r="2" />
	<circle cx="1000.0000000000" cy="-0.0000000000" r="2" />
	<circle cx="0.0001841709" cy="-0.0001063342" r="2" />
	<circle cx="726.5711693622" cy="-157.8613574018" r="2" />
	<circle cx="231.4546548929" cy="-133.6204595931" r="2" />
	<circle cx="500.0001553230" cy="-866.0251347727" r="2" />
	<circle cx="500.0000000000" cy="-866.0254038000" r="2" />
	<circle cx="900.8654110220" cy="-57.2416288442" r="2" />
	<circle cx="93.6365344342" cy="-53.7607659296" r="2" />
	<circle cx="996.9480376695" cy="-1.7619549335" r="2" />
	<circle cx="499.9999999992" cy="-866.0243072651" r="2" />
	<circle cx="500.0000000000" cy="-866.0254038000" r="2" />
	<circle cx="500.0000000000" cy="-866.0254038000" r="2" />
	<circle cx="487.0088837620" cy="-214.3331393561" r="2" />
	<circle cx="504.7610177713" cy="-285.9280740967" r="2" />
	<circle cx="773.6876492666" cy="-130.6756244407" r="2" />
	<circle cx="500.0000000000" cy="-866.0254038000" r="2" />
	<circle cx="500.0000000000" cy="-866.0254038000" r="2" />
	<circle cx="505.8620005443" cy="-774.1811683837" r="2" />
	<circle cx="500.0000000000" cy="-866.0254037517" r="2" />
	<circle cx="0.0000000000" cy="-0.0000000000" r="2" />
	<circle cx="500.0000000004" cy="-866.0253398987" r="2" />
	<circle cx="512.4674403820" cy="-329.5847169747" r="2" />
	<circle cx="226.3612332906" cy="-130.6697585651" r="2" />
	<circle cx="351.0482879061" cy="-483.4172583723" r="2" />
	<circle cx="999.9999999466" cy="-0.0000000308" r="2" />
	<circle cx="0.0000019956" cy="-0.0000011523" r="2" />
	<circle cx="539.7386089693" cy="-265.7363706567" r="2" />
	<circle cx="499.9999824643" cy="-865.9738143693" r="2" />
	<circle cx="1000.0000000000" cy="-0.0000000000" r="2" />
	<circle cx="13.3466301140" cy="-7.7071987715" r="2" />
	<circle cx="0.0001170042" cy="-0.0000680657" r="2" />
	<circle cx="487.9128507486" cy="-348.3260021224" r="2" />
	<circle cx="1000.0000000000" cy="-0.0000000000" r="2" />
	<circle cx="500.0000000000" cy="-866.0254038000" r="2" />
	<circle cx="755.8628561754" cy="-119.2413450286" r="2" />
	<circle cx="0.0000000000" cy="-0.0000000000" r="2" />
	<circle cx="932.9414468816" cy="-19.1289208534" r="2" />
	<circle cx="500.0000000000" cy="-866.0254038000" r="2" />
	<circle cx="1000.0000000000" cy="-0.0000000000" r="2" />
	<circle cx="499.9999999990" cy="-866.0254037983" r="2" />
	<circle cx="0.0000000000" cy="-0.0000000000" r="2" />
	<circle cx="547.4554229689" cy="-295.0080906634" r="2" />
	<circle cx="193.1002425896" cy="-120.1496082204" r="2" />
	<circle cx="499.9976980812" cy="-531.3398520314" r="2" />
	<circle cx="500.0084254144" cy="-786.1785284745" r="2" />
	<circle cx="0.0007874912" cy="-0.0004548069" r="2" />
	<circle cx="499.9999999015" cy="-866.0238280050" r="2" />
	<circle cx="500.0000000000" cy="-866.0254038000" r="2" />
	<circle cx="934.6408192130" cy="-37.7343727001" r="2" />
	<circle cx="415.6073314081" cy="-255.3415950077" r="2" />
	<circle cx="999.9991141038" cy="-0.0005115840" r="2" />
	<circle cx="2.2706674425" cy="-1.8270424372" r="2" />
	<circle cx="162.0130644903" cy="-93.5403161835" r="2" />
	<circle cx="500.0047362814" cy="-303.4166496649" r="2" />
	<circle cx="999.9999973098" cy="-0.0000015530" r="2" />
	<circle cx="617.6859834604" cy="-220.5968572893" r="2" />
	<circle cx="0.0000000000" cy="-0.0000000000" r="2" />
	<circle cx="500.0000000000" cy="-866.0254038000" r="2" />
	<circle cx="500.0000000000" cy="-866.0254038000" r="2" />
	<circle cx="1000.0000000000" cy="-0.0000000000" r="2" />
	<circle cx="519.5932166384" cy="-731.7284012626" r="2" />
	<circle cx="500.0000000000" cy="-866.0254038000" r="2" />
	<circle cx="999.9999995370" cy="-0.0000002673" r="2" />
	<circle cx="499.9999999996" cy="-866.0254037992" r="2" />
	<circle cx="999.9999983126" cy="-0.0000009534" r="2" />
	<circle cx="985.9291450694" cy="-8.0212824254" r="2" />
	<circle cx="0.0000000014" cy="-0.0000000008" r="2" />
	<circle cx="14.0571097795" cy="-8.2362673069" r="2" />
	<circle cx="503.9941462841" cy="-291.0803569652" r="2" />
	<circle cx="0.0000000000" cy="-0.0000000000" r="2" />
	<circle cx="1000.0000000000" cy="-0.0000000000" r="2" />
	<circle cx="170.1394529961" cy="-98.1153862541" r="2" />
	<circle cx="827.0431414746" cy="-127.3221496884" r="2" />
	<circle cx="500.0000000001" cy="-866.0254028659" r="2" />
	<circle cx="500.0000000000" cy="-866.0254038000" r="2" />
	<circle cx="997.5384409079" cy="-1.4214294498" r="2" />
	<circle cx="500.0000000000" cy="-866.0254015194" r="2" />
	<circle cx="0.1196578972" cy="-0.0690977927" r="2" />
	<circle cx="1000.0000000000" cy="-0.0000000000" r="2" />
	<circle cx="1000.0000000000" cy="-0.0000000000" r="2" />
	<circle cx="500.0000000000" cy="-866.0254038000" r="2" />
	<circle cx="396.0792699638" cy="-177.5202322004" r="2" />
	<circle cx="0.0000000000" cy="-0.0000000000" r="2" />
	<circle cx="1000.0000000000" cy="-0.0000000000" r="2" />
	<circle cx="988.5017688602" cy="-6.6390065105" r="2" />
	<circle cx="499.9993878129" cy="-815.8738112996" r="2" />
	<circle cx="499.9307024901" cy="-311.4335159027" r="2" />
	<circle cx="67.3507254048" cy="-29.9105979278" r="2" />
	<circle cx="958.8473707408" cy="-23.7707673195" r="2" />
	<circle cx="0.0036320255" cy="-0.0020969056" r="2" />
	<circle cx="500.0000000000" cy="-866.0254038000" r="2" />
	<circle cx="500.0000000000" cy="-866.0254038000" r="2" />
	<circle cx="1000.0000000000" cy="-0.0000000000" r="2" />
	<circle cx="557.2581351140" cy="-402.9529088863" r="2" />
	<circle cx="500.0000000000" cy="-866.0254038000" r="2" />
	<circle cx="471.9417260895" cy="-775.6895592136" r="2" />
	<circle cx="2.3745155121" cy="-1.2039258061" r="2" />
	<circle cx="1000.0000000000" cy="-0.0000000000" r="2" />
	<circle cx="434.3327658484" cy="-343.5027901829" r="2" />
	<circle cx="0.0000001795" cy="-0.0000001036" r="2" />
	<circle cx="500.0000000005" cy="-866.0254037989" r="2" />
	<circle cx="507.4744002293" cy="-429.9477244519" r="2" />
	<circle cx="500.0000000000" cy="-866.0254038000" r="2" />
	<circle cx="477.5125093179" cy="-489.7250632834" r="2" />
	<circle cx="0.0000005635" cy="-0.0000003253" r="2" />
	<circle cx="499.9999644602" cy="-865.5824091615" r="2" />
	<circle cx="500.0000000000" cy="-866.0254038000" r="2" />
	<circle cx="1000.0000000000" cy="-0.0000000000" r="2" />
	<circle cx="0.0000000000" cy="-0.0000000000" r="2" />
	<circle cx="0.0000000000" cy="-0.0000000000" r="2" />
	<circle cx="0.0000000000" cy="-0.0000000000" r="2" />
	<circle cx="999.9999903192" cy="-0.0000055883" r="2" />
	<circle cx="500.0000000000" cy="-866.0254038000" r="2" />
	<circle cx="500.0000000000" cy="-866.0254038000" r="2" />
	<circle cx="0.0000000000" cy="-0.0000000000" r="2" />
	<circle cx="0.0000000000" cy="-0.0000000000" r="2" />
	<circle cx="1000.0000000000" cy="-0.0000000000" r="2" />
	<circle cx="500.0000000000" cy="-866.0254038000" r="2" />
	<circle cx="500.0000000000" cy="-866.0254038000" r="2" />
	<circle cx="1000.0000000000" cy="-0.0000000000" r="2" />
	<circle cx="696.8572671497" cy="-174.0650003568" r="2" />
	<circle cx="500.0000000000" cy="-866.0254038000" r="2" />
	<circle cx="999.9635412306" cy="-0.0210495272" r="2" />
	<circle cx="504.3971128248" cy="-691.7004309013" r="2" />
	<circle cx="998.8993184249" cy="-0.6353256310" r="2" />
	<circle cx="556.3895497886" cy="-267.3602973373" r="2" />
	<circle cx="0.0000000000" cy="-0.0000000000" r="2" />
	<circle cx="402.7762304367" cy="-232.5255740980" r="2" />
	<circle cx="776.8879491096" cy="-129.5971649300" r="2" />
	<circle cx="502.8804939573" cy="-698.0089291792" r="2" />
	<circle cx="508.2832246211" cy="-283.9299766250" r="2" />
	<circle cx="0.0000000000" cy="-0.0000000000" r="2" />
	<circle cx="500.0000000000" cy="-866.0254038000" r="2" />
	<circle cx="1000.0000000000" cy="-0.0000000000" r="2" />
	<circle cx="0.0000000000" cy="-0.0000000000" r="2" />
	<circle cx="502.4043405509" cy="-287.3995457073" r="2" />
	<circle cx="500.0000000000" cy="-866.0254038000" r="2" />
	<circle cx="999.8801966216" cy="-0.0691400394" r="2" />
	<circle cx="500.0243472384" cy="-362.7974096584" r="2" />
	<circle cx="0.0000000000" cy="-0.0000000000" r="2" />
	<circle cx="499.9967452295" cy="-510.9893130313" r="2" />
	<circle cx="1000.0000000000" cy="-0.0000000000" r="2" />
	<circle cx="0.0000000000" cy="-0.0000000000" r="2" />
	<circle cx="0.0000000000" cy="-0.0000000000" r="2" />
	<circle cx="0.0000000000" cy="-0.0000000000" r="2" />
	<circle cx="730.7174661016" cy="-157.8444570035" r="2" />
	<circle cx="500.0133905261" cy="-865.6116254045" r="2" />
	<circle cx="999.9998855670" cy="-0.0000757839" r="2" />
	<circle cx="0.0000000000" cy="-0.0000000000" r="2" />
	<circle cx="1000.0000000000" cy="-0.0000000000" r="2" />
	<circle cx="0.0002096059" cy="-0.0001210214" r="2" />
	<circle cx="1000.0000000000" cy="-0.0000000000" r="2" />
	<circle cx="0.0000000000" cy="-0.0000000000" r="2" />
	<circle cx="0.0000000000" cy="-0.0000000000" r="2" />
	<circle cx="1000.0000000000" cy="-0.0000000000" r="2" />
	<circle cx="739.0797051781" cy="-150.6381418137" r="2" />
	<circle cx="500.0139820427" cy="-375.4377034486" r="2" />
	<circle cx="1000.0000000000" cy="-0.0000000000" r="2" />
	<circle cx="1000.0000000000" cy="-0.0000000000" r="2" />
	<circle cx="499.9849800953" cy="-292.2245077732" r="2" />
	<circle cx="877.0472424163" cy="-64.5102490819" r="2" />
	<circle cx="153.9575630082" cy="-88.8840493400" r="2" />
	<circle cx="643.4643242946" cy="-244.7015281209" r="2" />
	<circle cx="6.4386907359" cy="-3.7181757936" r="2" />
	<circle cx="920.5520017393" cy="-45.9564663383" r="2" />
	<circle cx="1000.0000000000" cy="-0.0000000000" r="2" />
	<circle cx="1000.0000000000" cy="-0.0000000000" r="2" />
	<circle cx="500.9661961705" cy="-512.2549530559" r="2" />
	<circle cx="415.8950644846" cy="-242.1337412063" r="2" />
	<circle cx="0.0000000000" cy="-0.0000000000" r="2" />
	<circle cx="389.7919924610" cy="-225.0423778608" r="2" />
	<circle cx="741.1518899840" cy="-149.4500239376" r="2" />
	<circle cx="526.3258518521" cy="-273.4831965840" r="2" />
	<circle cx="1000.0000000000" cy="-0.0000000000" r="2" />
	<circle cx="482.2514546887" cy="-278.4515369756" r="2" />
	<circle cx="0.0000000003" cy="-0.0000000003" r="2" />
	<circle cx="22.2058492176" cy="-17.2998116830" r="2" />
	<circle cx="500.0222961453" cy="-400.1589263337" r="2" />
	<circle cx="500.0000000000" cy="-866.0254038000" r="2" />
	<circle cx="500.0000000000" cy="-866.0254038000" r="2" />
	<circle cx="0.0000000000" cy="-0.0000000000" r="2" />
	<circle cx="0.0000000000" cy="-0.0000000000" r="2" />
	<circle cx="0.0000000000" cy="-0.0000000000" r="2" />
	<circle cx="461.0240636256" cy="-626.6058554632" r="2" />
	<circle cx="2.7628487881" cy="-1.0672790431" r="2" />
	<circle cx="1000.0000000000" cy="-0.0000000000" r="2" />
	<circle cx="999.9700561230" cy="-0.0172887476" r="2" />
	<circle cx="999.9999936565" cy="-0.0000036631" r="2" />
	<circle cx="499.9998318279" cy="-289.2322520403" r="2" />
	<circle cx="500.0000000000" cy="-866.0254038000" r="2" />
	<circle cx="978.7609029998" cy="-12.2613444924" r="2" />
	<circle cx="500.0000000000" cy="-866.0254038000" r="2" />
  </g>
  <g id="fig2" transform="translate(-550.0,1000)">
	<polygon points="0.0,-0.0 1000.0,-0.0 500.0,-866.0254038" />
	<line
	   id="line2-1"
	   y2="-0.0"
	   x2="500"
	   y1="-288.6751346"
	   x1="500" />
	<line
	   id="line2-2"
	   y2="-433.0127019"
	   x2="250"
	   y1="-288.6751346"
	   x1="500" />
	<line
	   id="line2-3"
	   y2="-433.0127019"
	   x2="750"
	   y1="-288.6751346"
	   x1="500" />
	<text
	   x="440"
	   y="-500"
	   id="up_2">33.2%</text>
	<text
	   x="250"
	   y="-150"
	   id="down_left_2">32.4%</text>
	<text
	   x="630"
	   y="-150"
	   id="down_right_2">34.4%</text>
  </g>
  <g id="fig3" transform="translate(550,1000)">
	<polygon points="0.0,-0.0 1000.0,-0.0 500.0,-866.0254038" />
	<polygon id="triangle3b" points="250,-144.3375673 750,-144.3375673 500,-577.3502692" />
	<line
	   id="line3-1"
	   x1="125"
	   y1="-216.5063509"
	   x2="250"
	   y2="-144.3375673" />
	<line
	   id="line3-2"
	   x1="375"
	   y1="-649.5190528"
	   x2="500"
	   y2="-577.3502692" />
	<line
	   id="line3-3"
	   x1="625"
	   y1="-649.5190528"
	   x2="500"
	   y2="-577.3502692" />
	<line
	   id="line3-4"
	   x1="875"
	   y1="-216.5063509"
	   x2="750"
	   y2="-144.3375673" />
	<line
	   id="line3-5"
	   x1="750"
	   y1="-0.0"
	   x2="750"
	   y2="-144.3375673" />
	<line
	   id="line3-6"
	   x1="250"
	   y1="-0.0"
	   x2="250"
	   y2="-144.3375673" />
	<text
	   x="500"
	   y="-660"
	   text-anchor="middle"
	   id="up_3">25.6%</text>
	<text
	   y="-50"
	   x="70"
	   id="down_left_3">27.0%</text>
	<text
	   y="-50"
	   x="770"
	   id="down_right_3">27.4%</text>
	<text
	   x="500"
	   y="-50"
	   text-anchor="middle"
	   id="down_side_3">0.4%</text>
	<text
	   x="500"
	   y="-280"
	   text-anchor="middle"
	   id="center_3">18.8%</text>
	<text
	   x="685.0"
	   y="-390.8439"
	   text-anchor="middle"
	   transform="rotate(60,665.0,-380.8439)"
	   id="right_side_3">0.2%</text>
	<text
	   x="315.0"
	   y="-390.8439"
	   text-anchor="middle"
	   transform="rotate(-60,335.0,-380.8439)"
	   id="left_side_3">0.6%</text>
  </g>
</g></g>
</svg>
