<?xml version="1.0" encoding="UTF-8" standalone="no"?>
<!DOCTYPE svg PUBLIC "-//W3C//DTD SVG 1.1//EN" "http://www.w3.org/Graphics/SVG/1.1/DTD/svg11.dtd">
<svg
   xmlns:svg="http://www.w3.org/2000/svg"
   xmlns="http://www.w3.org/2000/svg"
   xmlns:xlink="http://www.w3.org/1999/xlink"
   version="1.1"
   baseProfile="full"
   id="body"
   width="800px"
   height="800px"
   viewBox="0 0 1000 1000"
   preserveAspectRatio="none">
  <defs>
    <style type="text/css"><![CDATA[
      circle{ stroke: none; }
      polygon{ stroke: black; stroke-width: 2px; fill: none; }
      line{ stroke: black; stroke-width: 2px; }
      text{ font-size:50px; }
    ]]></style>
  </defs>
  <title
     id="title1">SVG drawing</title>
<g transform="scale(0.45)"><g transform="translate(600,1050)">
  <g id="fig1">
	<polygon points="0.0,-0.0 1000.0,-0.0 500,-866.0254038" />
	<circle cx="421.5096169895" cy="-243.3257073487" r="2" />
	<circle cx="499.9999998065" cy="-866.0234597434" r="2" />
	<circle cx="730.8551189528" cy="-155.3559620803" r="2" />
	<circle cx="234.7533941798" cy="-135.5329542849" r="2" />
	<circle cx="500.0000000001" cy="-866.0254033684" r="2" />
	<circle cx="41.7142993367" cy="-26.2367627678" r="2" />
	<circle cx="562.9466621025" cy="-399.6779039494" r="2" />
	<circle cx="804.7072598477" cy="-10.5784741986" r="2" />
	<circle cx="1000.0000000000" cy="-0.0000000000" r="2" />
	<circle cx="155.1619844365" cy="-89.5807145850" r="2" />
	<circle cx="909.6949829390" cy="-49.9027981820" r="2" />
	<circle cx="999.9999999976" cy="-0.0000000029" r="2" />
	<circle cx="1000.0000000000" cy="-0.0000000000" r="2" />
	<circle cx="999.9999997032" cy="-0.0000001708" r="2" />
	<circle cx="500.0000001895" cy="-866.0236738747" r="2" />
	<circle cx="0.0000000000" cy="-0.0000000000" r="2" />
	<circle cx="505.6575591897" cy="-282.2287230515" r="2" />
	<circle cx="500.0000000000" cy="-866.0254038000" r="2" />
	<circle cx="473.1405285488" cy="-309.1579206814" r="2" />
	<circle cx="981.4775469104" cy="-10.7650397692" r="2" />
	<circle cx="36.5484177738" cy="-3.8076726724" r="2" />
	<circle cx="426.9892563285" cy="-246.5228389123" r="2" />
	<circle cx="511.2321518948" cy="-282.1759576880" r="2" />
	<circle cx="0.0000000000" cy="-0.0000000000" r="2" />
	<circle cx="23.2306165136" cy="-9.5375966664" r="2" />
	<circle cx="1000.0000000000" cy="-0.0000000000" r="2" />
	<circle cx="999.9970077581" cy="-0.0017276960" r="2" />
	<circle cx="500.0000000000" cy="-866.0254038000" r="2" />
	<circle cx="1000.0000000000" cy="-0.0000000000" r="2" />
	<circle cx="1000.0000000000" cy="-0.0000000000" r="2" />
	<circle cx="929.8205835802" cy="-40.4908712188" r="2" />
	<circle cx="934.4296131118" cy="-37.8590638863" r="2" />
	<circle cx="1000.0000000000" cy="-0.0000000000" r="2" />
	<circle cx="0.0000000000" cy="-0.0000000000" r="2" />
	<circle cx="499.9977924630" cy="-851.0375243792" r="2" />
	<circle cx="999.9983146959" cy="-0.0009729824" r="2" />
	<circle cx="999.9981749015" cy="-0.0010539584" r="2" />
	<circle cx="1000.0000000000" cy="-0.0000000000" r="2" />
	<circle cx="0.0000000000" cy="-0.0000000000" r="2" />
	<circle cx="168.1206277714" cy="-95.9391601061" r="2" />
	<circle cx="498.5426944415" cy="-682.8535052658" r="2" />
	<circle cx="401.0512058701" cy="-694.6408530201" r="2" />
	<circle cx="132.5580577677" cy="-76.5401401684" r="2" />
	<circle cx="0.2343728841" cy="-0.1353027450" r="2" />
	<circle cx="999.9999999964" cy="-0.0000000000" r="2" />
	<circle cx="499.9879541047" cy="-448.9608499883" r="2" />
	<circle cx="0.0000000021" cy="-0.0000000012" r="2" />
	<circle cx="1000.0000000000" cy="-0.0000000000" r="2" />
	<circle cx="0.0000000029" cy="-0.0000000017" r="2" />
	<circle cx="543.5851078874" cy="-452.3767554015" r="2" />
	<circle cx="499.9999322188" cy="-862.9505707729" r="2" />
	<circle cx="991.0549545916" cy="-3.7469319171" r="2" />
	<circle cx="488.4954057787" cy="-282.0034414569" r="2" />
	<circle cx="499.9999999995" cy="-866.0253985793" r="2" />
	<circle cx="0.0000000000" cy="-0.0000000000" r="2" />
	<circle cx="500.0000000000" cy="-866.0254038000" r="2" />
	<circle cx="0.0000000000" cy="-0.0000000000" r="2" />
	<circle cx="999.9868707589" cy="-0.0075783203" r="2" />
	<circle cx="970.0782442532" cy="-17.2704526738" r="2" />
	<circle cx="452.1284394679" cy="-280.9394640488" r="2" />
	<circle cx="656.1578273600" cy="-198.4228435388" r="2" />
	<circle cx="999.9999999980" cy="-0.0000000012" r="2" />
	<circle cx="500.0000000000" cy="-866.0254038000" r="2" />
	<circle cx="999.9914876679" cy="-0.0049140450" r="2" />
	<circle cx="496.8686136886" cy="-845.7850532616" r="2" />
	<circle cx="500.0000000000" cy="-866.0254038000" r="2" />
	<circle cx="0.0000000000" cy="-0.0000000000" r="2" />
	<circle cx="462.0658899898" cy="-266.8583466258" r="2" />
	<circle cx="500.0000000000" cy="-866.0254037976" r="2" />
	<circle cx="1000.0000000000" cy="-0.0000000000" r="2" />
	<circle cx="500.0000000000" cy="-866.0254038000" r="2" />
	<circle cx="0.0000000000" cy="-0.0000000000" r="2" />
	<circle cx="23.3156777681" cy="-13.4953529488" r="2" />
	<circle cx="472.2782859670" cy="-297.8010224085" r="2" />
	<circle cx="500.0000000000" cy="-866.0254038000" r="2" />
	<circle cx="509.2050109559" cy="-283.3931347653" r="2" />
	<circle cx="1000.0000000000" cy="-0.0000000000" r="2" />
	<circle cx="499.9999999987" cy="-866.0239649863" r="2" />
	<circle cx="500.0000000245" cy="-866.0252974973" r="2" />
	<circle cx="131.0575905665" cy="-55.6078323664" r="2" />
	<circle cx="0.0000000001" cy="-0.0000000000" r="2" />
	<circle cx="998.9664777198" cy="-0.5964903632" r="2" />
	<circle cx="914.9649054870" cy="-49.0710096713" r="2" />
	<circle cx="0.0000000000" cy="-0.0000000000" r="2" />
	<circle cx="500.0000000000" cy="-866.0254038000" r="2" />
	<circle cx="1000.0000000000" cy="-0.0000000000" r="2" />
	<circle cx="999.9999999893" cy="-0.0000000061" r="2" />
	<circle cx="1000.0000000000" cy="-0.0000000000" r="2" />
	<circle cx="1000.0000000000" cy="-0.0000000000" r="2" />
	<circle cx="0.0000000000" cy="-0.0000000000" r="2" />
	<circle cx="1000.0000000000" cy="-0.0000000000" r="2" />
	<circle cx="0.0000000000" cy="-0.0000000000" r="2" />
	<circle cx="168.3196938325" cy="-97.1740835059" r="2" />
	<circle cx="0.0000000000" cy="-0.0000000000" r="2" />
	<circle cx="500.0000000000" cy="-866.0254038000" r="2" />
	<circle cx="455.9664100964" cy="-284.1849079055" r="2" />
	<circle cx="0.0000000000" cy="-0.0000000000" r="2" />
	<circle cx="1.9502584140" cy="-0.0000641311" r="2" />
	<circle cx="500.0000000000" cy="-866.0254038000" r="2" />
	<circle cx="0.0000000000" cy="-0.0000000000" r="2" />
	<circle cx="1000.0000000000" cy="-0.0000000000" r="2" />
	<circle cx="951.6912186096" cy="-27.8897318840" r="2" />
	<circle cx="579.0483490376" cy="-176.7438471488" r="2" />
	<circle cx="769.5013379252" cy="-133.0796345355" r="2" />
	<circle cx="957.8103833554" cy="-24.3862432892" r="2" />
	<circle cx="500.0000000000" cy="-866.0254038000" r="2" />
	<circle cx="499.9999993959" cy="-865.9596872915" r="2" />
	<circle cx="0.0000000000" cy="-0.0000000000" r="2" />
	<circle cx="446.8414645042" cy="-257.9778111247" r="2" />
	<circle cx="0.0122970706" cy="-0.0070994265" r="2" />
	<circle cx="740.8738786535" cy="-127.9638300684" r="2" />
	<circle cx="500.0000000000" cy="-866.0254038000" r="2" />
	<circle cx="535.9452057946" cy="-267.8491676019" r="2" />
	<circle cx="500.0001226842" cy="-858.9029152737" r="2" />
	<circle cx="500.0004084279" cy="-791.7093828341" r="2" />
	<circle cx="0.0001350914" cy="-0.0000779860" r="2" />
	<circle cx="0.0000000000" cy="-0.0000000000" r="2" />
	<circle cx="1000.0000000000" cy="-0.0000000000" r="2" />
	<circle cx="0.0130189522" cy="-0.0075145858" r="2" />
	<circle cx="3.1269781373" cy="-1.8051697801" r="2" />
	<circle cx="0.0000000000" cy="-0.0000000000" r="2" />
	<circle cx="499.9999999301" cy="-866.0155653727" r="2" />
	<circle cx="1000.0000000000" cy="-0.0000000000" r="2" />
	<circle cx="499.3342801488" cy="-287.4530173474" r="2" />
	<circle cx="1000.0000000000" cy="-0.0000000000" r="2" />
	<circle cx="500.0000093565" cy="-865.6942593455" r="2" />
	<circle cx="500.0020759852" cy="-855.5719468103" r="2" />
	<circle cx="999.9996830469" cy="-0.0001829883" r="2" />
	<circle cx="1000.0000000000" cy="-0.0000000000" r="2" />
	<circle cx="1000.0000000000" cy="-0.0000000000" r="2" />
	<circle cx="503.8227148238" cy="-848.1237451217" r="2" />
	<circle cx="174.4681833790" cy="-100.7292530583" r="2" />
	<circle cx="998.0897269588" cy="-1.1030416837" r="2" />
	<circle cx="499.9997198699" cy="-793.4948437203" r="2" />
	<circle cx="0.0000000000" cy="-0.0000000000" r="2" />
	<circle cx="999.9999999987" cy="-0.0000000007" r="2" />
	<circle cx="19.4070572354" cy="-11.2030250005" r="2" />
	<circle cx="0.0000000000" cy="-0.0000000000" r="2" />
	<circle cx="492.9755357955" cy="-93.3310016913" r="2" />
	<circle cx="508.9227458128" cy="-748.7723297911" r="2" />
	<circle cx="1000.0000000000" cy="-0.0000000000" r="2" />
	<circle cx="0.0000000000" cy="-0.0000000000" r="2" />
	<circle cx="435.9105657714" cy="-246.4525060996" r="2" />
	<circle cx="994.3572579929" cy="-3.2566185784" r="2" />
	<circle cx="0.0000000000" cy="-0.0000000000" r="2" />
	<circle cx="999.9999954872" cy="-0.0000026048" r="2" />
	<circle cx="500.0000000000" cy="-866.0254038000" r="2" />
	<circle cx="0.0000000000" cy="-0.0000000000" r="2" />
	<circle cx="500.7281162032" cy="-861.5312790217" r="2" />
	<circle cx="464.0575858425" cy="-267.8956241717" r="2" />
	<circle cx="20.9384204698" cy="-9.2623593544" r="2" />
	<circle cx="703.6753800641" cy="-171.0842333501" r="2" />
	<circle cx="516.3635114912" cy="-279.2507949942" r="2" />
	<circle cx="0.0000000000" cy="-0.0000000000" r="2" />
	<circle cx="1000.0000000000" cy="-0.0000000000" r="2" />
	<circle cx="999.8217840002" cy="-0.1029258992" r="2" />
	<circle cx="999.9998915836" cy="-0.0000625860" r="2" />
	<circle cx="500.0000000000" cy="-866.0254038000" r="2" />
	<circle cx="499.9999991868" cy="-866.0075555217" r="2" />
	<circle cx="0.0000000000" cy="-0.0000000000" r="2" />
	<circle cx="499.9999999999" cy="-866.0254036734" r="2" />
	<circle cx="1000.0000000000" cy="-0.0000000000" r="2" />
	<circle cx="999.9999998715" cy="-0.0000000742" r="2" />
	<circle cx="999.9888861670" cy="-0.0064147612" r="2" />
	<circle cx="500.0000000000" cy="-866.0254038000" r="2" />
	<circle cx="0.0000000004" cy="-0.0000000002" r="2" />
	<circle cx="1000.0000000000" cy="-0.0000000000" r="2" />
	<circle cx="0.0000000461" cy="-0.0000000734" r="2" />
	<circle cx="1000.0000000000" cy="-0.0000000000" r="2" />
	<circle cx="499.9985354631" cy="-818.5369952584" r="2" />
	<circle cx="913.3458251485" cy="-35.9716335000" r="2" />
	<circle cx="0.0000000001" cy="-0.0000000000" r="2" />
	<circle cx="1000.0000000000" cy="-0.0000000000" r="2" />
	<circle cx="1000.0000000000" cy="-0.0000000000" r="2" />
	<circle cx="969.5843400907" cy="-17.9954199174" r="2" />
	<circle cx="561.7590555494" cy="-265.8307834884" r="2" />
	<circle cx="999.9997665849" cy="-0.0001346326" r="2" />
	<circle cx="499.9999999999" cy="-866.0254037027" r="2" />
	<circle cx="499.9991655661" cy="-288.7826736607" r="2" />
	<circle cx="499.9999732244" cy="-866.0253532682" r="2" />
	<circle cx="931.4194412390" cy="-38.3281856120" r="2" />
	<circle cx="984.3212197439" cy="-0.0002821859" r="2" />
	<circle cx="996.6205735913" cy="-1.9334218627" r="2" />
	<circle cx="0.0000000026" cy="-0.0000000015" r="2" />
	<circle cx="500.0093620278" cy="-865.3226612527" r="2" />
	<circle cx="500.0000002247" cy="-866.0215993644" r="2" />
	<circle cx="0.0000000000" cy="-0.0000000000" r="2" />
	<circle cx="1000.0000000000" cy="-0.0000000000" r="2" />
	<circle cx="499.9999985099" cy="-865.9457951965" r="2" />
	<circle cx="500.0000000000" cy="-866.0254038000" r="2" />
	<circle cx="1000.0000000000" cy="-0.0000000000" r="2" />
	<circle cx="1000.0000000000" cy="-0.0000000000" r="2" />
	<circle cx="499.9999507732" cy="-863.8875829451" r="2" />
	<circle cx="0.0000000000" cy="-0.0000000000" r="2" />
	<circle cx="1000.0000000000" cy="-0.0000000000" r="2" />
	<circle cx="800.3525238221" cy="-90.6339282488" r="2" />
	<circle cx="999.9998542853" cy="-0.0000841320" r="2" />
	<circle cx="1.3099219439" cy="-0.7563384020" r="2" />
	<circle cx="0.0000000000" cy="-0.0000000000" r="2" />
	<circle cx="1000.0000000000" cy="-0.0000000000" r="2" />
	<circle cx="0.1397554848" cy="-0.0817475541" r="2" />
	<circle cx="499.9999883505" cy="-865.2042099476" r="2" />
	<circle cx="491.7994562336" cy="-338.2697839022" r="2" />
	<circle cx="583.2150998045" cy="-254.4660261470" r="2" />
	<circle cx="1000.0000000000" cy="-0.0000000000" r="2" />
	<circle cx="501.3513876032" cy="-282.0664074164" r="2" />
	<circle cx="679.8159175561" cy="-184.8586310476" r="2" />
	<circle cx="500.0000000000" cy="-866.0254038000" r="2" />
	<circle cx="805.8044821117" cy="-112.1042683355" r="2" />
	<circle cx="499.9999999989" cy="-866.0254037979" r="2" />
	<circle cx="504.4198662773" cy="-365.0625289362" r="2" />
	<circle cx="0.0000000000" cy="-0.0000000000" r="2" />
	<circle cx="499.9971423607" cy="-288.6478613794" r="2" />
	<circle cx="500.0000000000" cy="-866.0254037999" r="2" />
	<circle cx="903.4208816878" cy="-67.1897498829" r="2" />
	<circle cx="500.0000000000" cy="-866.0254038000" r="2" />
	<circle cx="1000.0000000000" cy="-0.0000000000" r="2" />
	<circle cx="500.0000000000" cy="-866.0254038000" r="2" />
	<circle cx="1000.0000000000" cy="-0.0000000000" r="2" />
	<circle cx="0.0000000000" cy="-0.0000000000" r="2" />
	<circle cx="500.0082282052" cy="-732.4541861607" r="2" />
	<circle cx="521.0464726900" cy="-276.5250785802" r="2" />
	<circle cx="427.8720927897" cy="-341.4721674956" r="2" />
	<circle cx="0.0000004378" cy="-0.0000002530" r="2" />
	<circle cx="437.1421844696" cy="-252.3966324867" r="2" />
	<circle cx="0.0000000000" cy="-0.0000000000" r="2" />
	<circle cx="1000.0000000000" cy="-0.0000000000" r="2" />
	<circle cx="500.0000000000" cy="-866.0254038000" r="2" />
	<circle cx="500.0000000000" cy="-866.0254038000" r="2" />
	<circle cx="0.0000030129" cy="-0.0000017386" r="2" />
	<circle cx="499.9755414897" cy="-712.0350104024" r="2" />
	<circle cx="48.3114032173" cy="-27.8937218297" r="2" />
	<circle cx="13.5642738525" cy="-12.1893041515" r="2" />
	<circle cx="1000.0000000000" cy="-0.0000000000" r="2" />
	<circle cx="511.1913534897" cy="-387.8450264488" r="2" />
	<circle cx="501.0505981399" cy="-655.1154638667" r="2" />
	<circle cx="271.2651681714" cy="-156.6169958499" r="2" />
	<circle cx="500.0000000000" cy="-866.0254038000" r="2" />
	<circle cx="1000.0000000000" cy="-0.0000000000" r="2" />
	<circle cx="399.0185947141" cy="-230.6930257702" r="2" />
	<circle cx="500.0036029417" cy="-475.9759855110" r="2" />
	<circle cx="500.0000000000" cy="-866.0254038000" r="2" />
	<circle cx="1000.0000000000" cy="-0.0000000000" r="2" />
	<circle cx="1000.0000000000" cy="-0.0000000000" r="2" />
	<circle cx="999.9999998631" cy="-0.0000000790" r="2" />
	<circle cx="933.1529712207" cy="-38.5906748495" r="2" />
	<circle cx="500.0000000000" cy="-866.0254038000" r="2" />
	<circle cx="499.9999980950" cy="-866.0059633838" r="2" />
	<circle cx="0.0000001303" cy="-0.0000000752" r="2" />
	<circle cx="0.0000000000" cy="-0.0000000000" r="2" />
	<circle cx="499.9999997607" cy="-865.9907659767" r="2" />
	<circle cx="500.0000000000" cy="-866.0254038000" r="2" />
	<circle cx="500.0000000000" cy="-866.0254038000" r="2" />
	<circle cx="501.2543038429" cy="-858.3690171655" r="2" />
	<circle cx="500.0000000000" cy="-866.0254038000" r="2" />
	<circle cx="0.0014490264" cy="-0.0008364802" r="2" />
	<circle cx="500.0000000000" cy="-866.0254037329" r="2" />
	<circle cx="1000.0000000000" cy="-0.0000000000" r="2" />
	<circle cx="5.3099400295" cy="-3.0657514041" r="2" />
	<circle cx="500.0050048402" cy="-637.1304897682" r="2" />
	<circle cx="500.0000000000" cy="-866.0254038000" r="2" />
	<circle cx="0.3489024360" cy="-0.2014338689" r="2" />
	<circle cx="637.1442862998" cy="-204.9746376032" r="2" />
	<circle cx="377.3218681797" cy="-217.8817567849" r="2" />
	<circle cx="500.0000077793" cy="-865.6597988421" r="2" />
	<circle cx="499.9997704489" cy="-856.6679758828" r="2" />
	<circle cx="500.0000000000" cy="-866.0254038000" r="2" />
	<circle cx="497.8547121239" cy="-833.3436879115" r="2" />
	<circle cx="1000.0000000000" cy="-0.0000000000" r="2" />
	<circle cx="1000.0000000000" cy="-0.0000000000" r="2" />
	<circle cx="408.9098184771" cy="-236.0924651402" r="2" />
	<circle cx="516.4072125398" cy="-279.1320369288" r="2" />
	<circle cx="0.0002697436" cy="-0.0001555802" r="2" />
	<circle cx="1000.0000000000" cy="-0.0000000000" r="2" />
	<circle cx="500.0000000000" cy="-866.0254038000" r="2" />
	<circle cx="0.0000000000" cy="-0.0000000000" r="2" />
	<circle cx="999.9999898620" cy="-0.0000056662" r="2" />
	<circle cx="500.0000144576" cy="-861.5028339345" r="2" />
	<circle cx="1000.0000000000" cy="-0.0000000000" r="2" />
	<circle cx="499.8786013840" cy="-459.5372431915" r="2" />
	<circle cx="86.3790072761" cy="-46.9140314809" r="2" />
	<circle cx="999.4152530976" cy="-0.3374673225" r="2" />
	<circle cx="500.0001977412" cy="-855.2280064024" r="2" />
	<circle cx="500.0000000000" cy="-866.0254038000" r="2" />
	<circle cx="500.0000000000" cy="-866.0254038000" r="2" />
	<circle cx="636.4466557112" cy="-276.1891161564" r="2" />
	<circle cx="776.5059945961" cy="-105.3517246767" r="2" />
	<circle cx="0.0000002119" cy="-0.0000001223" r="2" />
	<circle cx="999.9941231492" cy="-0.0033924673" r="2" />
	<circle cx="1000.0000000000" cy="-0.0000000000" r="2" />
	<circle cx="815.4235859586" cy="-62.6442190250" r="2" />
	<circle cx="999.9999999877" cy="-0.0000000071" r="2" />
	<circle cx="500.0000000000" cy="-866.0254038000" r="2" />
	<circle cx="0.0000000000" cy="-0.0000000000" r="2" />
	<circle cx="500.0009972081" cy="-865.3113850745" r="2" />
	<circle cx="499.9545718179" cy="-643.3431227795" r="2" />
	<circle cx="159.6344858271" cy="-90.0851069686" r="2" />
	<circle cx="0.0000000000" cy="-0.0000000000" r="2" />
	<circle cx="0.0000000000" cy="-0.0000000000" r="2" />
	<circle cx="500.0012592232" cy="-855.4696649790" r="2" />
	<circle cx="500.0000000000" cy="-866.0254038000" r="2" />
	<circle cx="0.0000000000" cy="-0.0000000000" r="2" />
	<circle cx="995.7566647655" cy="-2.4498756590" r="2" />
	<circle cx="556.2964067266" cy="-256.1398089729" r="2" />
	<circle cx="499.9936903946" cy="-827.6490488536" r="2" />
	<circle cx="157.2132627781" cy="-90.7649808504" r="2" />
	<circle cx="0.0000000000" cy="-0.0000000000" r="2" />
	<circle cx="668.1538949523" cy="-191.6076756087" r="2" />
	<circle cx="500.0000000000" cy="-866.0254038000" r="2" />
	<circle cx="0.0000000110" cy="-0.0000000063" r="2" />
	<circle cx="265.9914493023" cy="-162.5825788495" r="2" />
	<circle cx="0.0000000000" cy="-0.0000000000" r="2" />
	<circle cx="502.2334364581" cy="-278.5715897202" r="2" />
	<circle cx="500.0000000000" cy="-866.0254038000" r="2" />
	<circle cx="487.9195787254" cy="-277.0542649695" r="2" />
	<circle cx="999.9999999992" cy="-0.0000000005" r="2" />
	<circle cx="499.9999999965" cy="-866.0252823021" r="2" />
	<circle cx="499.9999999995" cy="-866.0253973531" r="2" />
	<circle cx="497.4743233758" cy="-227.4321615473" r="2" />
	<circle cx="999.9999665397" cy="-0.0000550459" r="2" />
	<circle cx="492.3297809318" cy="-554.5385888578" r="2" />
	<circle cx="1000.0000000000" cy="-0.0000000000" r="2" />
	<circle cx="499.9999999857" cy="-866.0254033674" r="2" />
	<circle cx="0.0000000000" cy="-0.0000000000" r="2" />
	<circle cx="500.0001224972" cy="-865.2616233934" r="2" />
	<circle cx="0.0000046140" cy="-0.0000026642" r="2" />
	<circle cx="499.9994754567" cy="-859.9237998636" r="2" />
	<circle cx="999.9999999977" cy="-0.0000000013" r="2" />
	<circle cx="503.6515010425" cy="-576.4309470924" r="2" />
	<circle cx="499.9999948261" cy="-865.9365746881" r="2" />
	<circle cx="0.0355206119" cy="-0.0205077696" r="2" />
	<circle cx="1000.0000000000" cy="-0.0000000000" r="2" />
	<circle cx="655.3234583105" cy="-199.0000481605" r="2" />
	<circle cx="999.9999944912" cy="-0.0000030899" r="2" />
	<circle cx="998.6888539631" cy="-0.7568563468" r="2" />
	<circle cx="0.0000000000" cy="-0.0000000000" r="2" />
	<circle cx="500.0000000000" cy="-866.0254038000" r="2" />
	<circle cx="999.9980084311" cy="-0.0011483817" r="2" />
	<circle cx="500.0000000000" cy="-866.0254038000" r="2" />
	<circle cx="0.0000000000" cy="-0.0000000000" r="2" />
	<circle cx="499.9999996641" cy="-866.0107668379" r="2" />
	<circle cx="488.6802461059" cy="-472.8318310392" r="2" />
	<circle cx="499.9982682431" cy="-865.0685432398" r="2" />
	<circle cx="0.2644349489" cy="-0.1526758623" r="2" />
	<circle cx="0.0000000000" cy="-0.0000000000" r="2" />
	<circle cx="0.0261213382" cy="-0.0150811386" r="2" />
	<circle cx="0.0000000000" cy="-0.0000000000" r="2" />
	<circle cx="471.8086120284" cy="-267.7464402600" r="2" />
	<circle cx="990.4024256133" cy="-9.7252555832" r="2" />
	<circle cx="999.0136722061" cy="-0.5694602454" r="2" />
	<circle cx="0.0055989909" cy="-0.0032325217" r="2" />
	<circle cx="1000.0000000000" cy="-0.0000000000" r="2" />
	<circle cx="1000.0000000000" cy="-0.0000000000" r="2" />
	<circle cx="579.9475746508" cy="-242.5172006964" r="2" />
	<circle cx="0.0000000000" cy="-0.0000000000" r="2" />
	<circle cx="1000.0000000000" cy="-0.0000000000" r="2" />
	<circle cx="447.2042417097" cy="-224.8943246748" r="2" />
	<circle cx="500.0000000000" cy="-866.0254038000" r="2" />
	<circle cx="1000.0000000000" cy="-0.0000000000" r="2" />
	<circle cx="1000.0000000000" cy="-0.0000000000" r="2" />
	<circle cx="999.9961877827" cy="-0.0022003416" r="2" />
	<circle cx="172.9424985130" cy="-99.8548188407" r="2" />
	<circle cx="0.0000000003" cy="-0.0000000002" r="2" />
	<circle cx="500.0000000000" cy="-866.0254038000" r="2" />
	<circle cx="497.9024562599" cy="-343.9116189517" r="2" />
	<circle cx="341.6828933221" cy="-141.7695922827" r="2" />
	<circle cx="603.0316889750" cy="-182.0291718557" r="2" />
	<circle cx="500.0000000000" cy="-866.0254038000" r="2" />
	<circle cx="1000.0000000000" cy="-0.0000000000" r="2" />
	<circle cx="0.0000011023" cy="-0.0000006297" r="2" />
	<circle cx="500.0000000000" cy="-866.0254038000" r="2" />
	<circle cx="999.8303218699" cy="-0.0979051246" r="2" />
	<circle cx="0.0000000000" cy="-0.0000000000" r="2" />
	<circle cx="990.1000233930" cy="-5.7148485061" r="2" />
	<circle cx="1000.0000000000" cy="-0.0000000000" r="2" />
	<circle cx="364.4745199884" cy="-260.0346041475" r="2" />
	<circle cx="525.8937708584" cy="-294.7645765018" r="2" />
	<circle cx="500.0000000000" cy="-866.0254038000" r="2" />
	<circle cx="1000.0000000000" cy="-0.0000000000" r="2" />
	<circle cx="499.9999246769" cy="-850.2546087861" r="2" />
	<circle cx="0.0000000000" cy="-0.0000000000" r="2" />
	<circle cx="500.0000000000" cy="-866.0254038000" r="2" />
	<circle cx="1000.0000000000" cy="-0.0000000000" r="2" />
	<circle cx="130.1716369346" cy="-74.8201270340" r="2" />
	<circle cx="500.0000000000" cy="-866.0254038000" r="2" />
	<circle cx="0.0000000000" cy="-0.0000000000" r="2" />
	<circle cx="500.0000020896" cy="-866.0253997821" r="2" />
	<circle cx="260.8689245953" cy="-149.9777635098" r="2" />
	<circle cx="0.0000000000" cy="-0.0000000000" r="2" />
	<circle cx="502.9726094650" cy="-848.5875069531" r="2" />
	<circle cx="0.0000000000" cy="-0.0000000000" r="2" />
	<circle cx="354.2570395987" cy="-204.5112696034" r="2" />
	<circle cx="867.8493801345" cy="-74.0889354352" r="2" />
	<circle cx="0.9466178139" cy="-0.5466217006" r="2" />
	<circle cx="920.8604290659" cy="-46.3342106428" r="2" />
	<circle cx="500.0000000000" cy="-866.0254038000" r="2" />
	<circle cx="83.1069148125" cy="-47.8853381489" r="2" />
	<circle cx="0.0000000000" cy="-0.0000000000" r="2" />
	<circle cx="497.9332845155" cy="-307.1925455210" r="2" />
	<circle cx="999.9709479599" cy="-0.0167763306" r="2" />
	<circle cx="494.8121825402" cy="-724.5742758883" r="2" />
	<circle cx="53.9683564079" cy="-31.1569325718" r="2" />
	<circle cx="999.4367875408" cy="-0.3251698964" r="2" />
	<circle cx="985.9486136149" cy="-8.1130321791" r="2" />
	<circle cx="0.0000000000" cy="-0.0000000000" r="2" />
	<circle cx="0.0066844138" cy="-0.0038581954" r="2" />
	<circle cx="500.0000000000" cy="-866.0254038000" r="2" />
	<circle cx="1000.0000000000" cy="-0.0000000000" r="2" />
	<circle cx="509.5149141983" cy="-286.0736160338" r="2" />
	<circle cx="1.5743487727" cy="-0.9087260777" r="2" />
	<circle cx="696.8241716062" cy="-237.7450384092" r="2" />
	<circle cx="500.0000190817" cy="-854.9032014054" r="2" />
	<circle cx="765.6888404585" cy="-134.8215432349" r="2" />
	<circle cx="500.1696480901" cy="-775.3140038943" r="2" />
	<circle cx="499.9999988498" cy="-865.0009274964" r="2" />
	<circle cx="1000.0000000000" cy="-0.0000000000" r="2" />
	<circle cx="500.0000000000" cy="-866.0254038000" r="2" />
	<circle cx="499.9991550522" cy="-835.6616722092" r="2" />
	<circle cx="0.0000000001" cy="-0.0000000001" r="2" />
	<circle cx="0.0000000000" cy="-0.0000000000" r="2" />
	<circle cx="0.0001140065" cy="-0.0000658293" r="2" />
	<circle cx="499.9999932686" cy="-865.7003516681" r="2" />
	<circle cx="1000.0000000000" cy="-0.0000000000" r="2" />
	<circle cx="0.0330064222" cy="-0.0190562668" r="2" />
	<circle cx="624.7204502981" cy="-239.0744696737" r="2" />
	<circle cx="1000.0000000000" cy="-0.0000000000" r="2" />
	<circle cx="1000.0000000000" cy="-0.0000000000" r="2" />
	<circle cx="999.9998860576" cy="-0.0000657857" r="2" />
	<circle cx="0.0058766576" cy="-0.0033926962" r="2" />
	<circle cx="500.0000000000" cy="-866.0254038000" r="2" />
	<circle cx="999.9829755966" cy="-0.0098283859" r="2" />
	<circle cx="1000.0000000000" cy="-0.0000000000" r="2" />
	<circle cx="499.9987812314" cy="-864.8592664111" r="2" />
	<circle cx="24.5634402428" cy="-14.1798811744" r="2" />
	<circle cx="447.0996251180" cy="-246.4713571960" r="2" />
	<circle cx="500.0006469099" cy="-794.4181558961" r="2" />
	<circle cx="425.3222423094" cy="-265.1363172073" r="2" />
	<circle cx="500.0000000000" cy="-866.0254037985" r="2" />
	<circle cx="0.5555225222" cy="-0.3198736092" r="2" />
	<circle cx="0.0000000000" cy="-0.0000000000" r="2" />
	<circle cx="500.0065769589" cy="-845.8193970294" r="2" />
	<circle cx="1000.0000000000" cy="-0.0000000000" r="2" />
	<circle cx="499.9985371165" cy="-814.5913147872" r="2" />
	<circle cx="0.0000000000" cy="-0.0000000000" r="2" />
	<circle cx="570.0376481276" cy="-288.9795483220" r="2" />
	<circle cx="0.0000000000" cy="-0.0000000000" r="2" />
	<circle cx="401.6095456325" cy="-231.8616520931" r="2" />
	<circle cx="499.9999927065" cy="-862.1456844667" r="2" />
	<circle cx="8.1223992994" cy="-4.6895169245" r="2" />
	<circle cx="0.0000000000" cy="-0.0000000000" r="2" />
	<circle cx="571.9133186492" cy="-517.1633324856" r="2" />
	<circle cx="500.0000000000" cy="-866.0254038000" r="2" />
	<circle cx="500.0000000000" cy="-866.0254038000" r="2" />
	<circle cx="565.6176959853" cy="-250.7281952899" r="2" />
	<circle cx="1000.0000000000" cy="-0.0000000000" r="2" />
	<circle cx="1000.0000000000" cy="-0.0000000000" r="2" />
	<circle cx="0.9255892862" cy="-0.5344043359" r="2" />
	<circle cx="500.0022697535" cy="-311.7046643100" r="2" />
	<circle cx="0.0313627556" cy="-0.0169446822" r="2" />
	<circle cx="500.0000000000" cy="-866.0254038000" r="2" />
	<circle cx="1000.0000000000" cy="-0.0000000000" r="2" />
	<circle cx="91.1153049552" cy="-52.3462317087" r="2" />
	<circle cx="0.0000000000" cy="-0.0000000000" r="2" />
	<circle cx="0.0274260234" cy="-0.0158341580" r="2" />
	<circle cx="0.0028890681" cy="-0.0016681931" r="2" />
	<circle cx="500.0000000000" cy="-866.0254038000" r="2" />
	<circle cx="624.6830848149" cy="-239.2169371107" r="2" />
	<circle cx="1000.0000000000" cy="-0.0000000000" r="2" />
	<circle cx="1000.0000000000" cy="-0.0000000000" r="2" />
	<circle cx="1000.0000000000" cy="-0.0000000000" r="2" />
	<circle cx="1000.0000000000" cy="-0.0000000000" r="2" />
	<circle cx="500.0000000000" cy="-866.0254038000" r="2" />
	<circle cx="626.6744451576" cy="-215.5383378367" r="2" />
	<circle cx="968.8596060402" cy="-17.9788526848" r="2" />
	<circle cx="456.3830358373" cy="-450.4772198846" r="2" />
	<circle cx="500.0000000000" cy="-866.0254038000" r="2" />
	<circle cx="312.5387116168" cy="-127.0274246635" r="2" />
	<circle cx="0.7146236841" cy="-0.4104497205" r="2" />
	<circle cx="500.0001031904" cy="-866.0252250669" r="2" />
	<circle cx="500.0004562789" cy="-860.6136611695" r="2" />
	<circle cx="999.9999959005" cy="-0.0000023668" r="2" />
	<circle cx="1000.0000000000" cy="-0.0000000000" r="2" />
	<circle cx="724.9163921087" cy="-142.1999650637" r="2" />
	<circle cx="0.0000000000" cy="-0.0000000000" r="2" />
	<circle cx="416.9568296552" cy="-282.7142968071" r="2" />
	<circle cx="500.0000000000" cy="-866.0254037248" r="2" />
	<circle cx="500.8090993274" cy="-787.8217442510" r="2" />
	<circle cx="758.5272544904" cy="-106.4573447385" r="2" />
	<circle cx="0.0000000008" cy="-0.0000000005" r="2" />
	<circle cx="0.0000000000" cy="-0.0000000000" r="2" />
	<circle cx="1000.0000000000" cy="-0.0000000000" r="2" />
	<circle cx="500.0000016171" cy="-865.9797269190" r="2" />
	<circle cx="500.0000000000" cy="-866.0254034411" r="2" />
	<circle cx="621.8854624459" cy="-218.2203194638" r="2" />
	<circle cx="344.6521979913" cy="-198.9791655472" r="2" />
	<circle cx="500.0000000000" cy="-866.0254038000" r="2" />
	<circle cx="1000.0000000000" cy="-0.0000000000" r="2" />
	<circle cx="500.0000000003" cy="-866.0254037987" r="2" />
	<circle cx="521.0472725814" cy="-276.5260861881" r="2" />
	<circle cx="1000.0000000000" cy="-0.0000000000" r="2" />
  </g>
  <g id="fig2" transform="translate(-550.0,1000)">
	<polygon points="0.0,-0.0 1000.0,-0.0 500.0,-866.0254038" />
	<line
	   id="line2-1"
	   y2="-0.0"
	   x2="500"
	   y1="-288.6751346"
	   x1="500" />
	<line
	   id="line2-2"
	   y2="-433.0127019"
	   x2="250"
	   y1="-288.6751346"
	   x1="500" />
	<line
	   id="line2-3"
	   y2="-433.0127019"
	   x2="750"
	   y1="-288.6751346"
	   x1="500" />
	<text
	   x="440"
	   y="-500"
	   id="up_2">31.2%</text>
	<text
	   x="250"
	   y="-150"
	   id="down_left_2">32.4%</text>
	<text
	   x="630"
	   y="-150"
	   id="down_right_2">36.4%</text>
  </g>
  <g id="fig3" transform="translate(550,1000)">
	<polygon points="0.0,-0.0 1000.0,-0.0 500.0,-866.0254038" />
	<polygon id="triangle3b" points="250,-144.3375673 750,-144.3375673 500,-577.3502692" />
	<line
	   id="line3-1"
	   x1="125"
	   y1="-216.5063509"
	   x2="250"
	   y2="-144.3375673" />
	<line
	   id="line3-2"
	   x1="375"
	   y1="-649.5190528"
	   x2="500"
	   y2="-577.3502692" />
	<line
	   id="line3-3"
	   x1="625"
	   y1="-649.5190528"
	   x2="500"
	   y2="-577.3502692" />
	<line
	   id="line3-4"
	   x1="875"
	   y1="-216.5063509"
	   x2="750"
	   y2="-144.3375673" />
	<line
	   id="line3-5"
	   x1="750"
	   y1="-0.0"
	   x2="750"
	   y2="-144.3375673" />
	<line
	   id="line3-6"
	   x1="250"
	   y1="-0.0"
	   x2="250"
	   y2="-144.3375673" />
	<text
	   x="500"
	   y="-660"
	   text-anchor="middle"
	   id="up_3">27.4%</text>
	<text
	   y="-50"
	   x="70"
	   id="down_left_3">25.8%</text>
	<text
	   y="-50"
	   x="770"
	   id="down_right_3">29.4%</text>
	<text
	   x="500"
	   y="-50"
	   text-anchor="middle"
	   id="down_side_3">1.0%</text>
	<text
	   x="500"
	   y="-280"
	   text-anchor="middle"
	   id="center_3">15.8%</text>
	<text
	   x="685.0"
	   y="-390.8439"
	   text-anchor="middle"
	   transform="rotate(60,665.0,-380.8439)"
	   id="right_side_3">0.6%</text>
	<text
	   x="315.0"
	   y="-390.8439"
	   text-anchor="middle"
	   transform="rotate(-60,335.0,-380.8439)"
	   id="left_side_3">0.0%</text>
  </g>
</g></g>
</svg>
