<?xml version="1.0" encoding="UTF-8" standalone="no"?>
<!DOCTYPE svg PUBLIC "-//W3C//DTD SVG 1.1//EN" "http://www.w3.org/Graphics/SVG/1.1/DTD/svg11.dtd">
<svg
   xmlns:svg="http://www.w3.org/2000/svg"
   xmlns="http://www.w3.org/2000/svg"
   xmlns:xlink="http://www.w3.org/1999/xlink"
   version="1.1"
   baseProfile="full"
   id="body"
   width="800px"
   height="800px"
   viewBox="0 0 1000 1000"
   preserveAspectRatio="none">
  <defs>
    <style type="text/css"><![CDATA[
      circle{ stroke: none; }
      polygon{ stroke: black; stroke-width: 2px; fill: none; }
      line{ stroke: black; stroke-width: 2px; }
      text{ font-size:50px; }
    ]]></style>
  </defs>
  <title
     id="title1">SVG drawing</title>
<g transform="scale(0.45)"><g transform="translate(600,1050)">
  <g id="fig1">
	<polygon points="0.0,-0.0 1000.0,-0.0 500,-866.0254038" />
	<circle cx="741.3668168660" cy="-281.8354666856" r="2" />
	<circle cx="338.9097010368" cy="-28.3111116580" r="2" />
	<circle cx="499.9945884168" cy="-821.7411533511" r="2" />
	<circle cx="930.7958268396" cy="-55.0471088944" r="2" />
	<circle cx="421.6823096396" cy="-211.7254702963" r="2" />
	<circle cx="0.7666183261" cy="-0.4628039903" r="2" />
	<circle cx="619.7436882570" cy="-219.3795832096" r="2" />
	<circle cx="4.5639144230" cy="-3.3932216413" r="2" />
	<circle cx="500.0446292272" cy="-669.6295476161" r="2" />
	<circle cx="501.3118891902" cy="-858.4190835436" r="2" />
	<circle cx="282.6677556857" cy="-305.6879498008" r="2" />
	<circle cx="849.6356558900" cy="-77.5238104066" r="2" />
	<circle cx="228.7037873878" cy="-28.8722330509" r="2" />
	<circle cx="0.0952480381" cy="-0.0411724311" r="2" />
	<circle cx="925.7911521430" cy="-40.1422008935" r="2" />
	<circle cx="494.8305830347" cy="-850.6271979017" r="2" />
	<circle cx="413.0277362912" cy="-592.1348056283" r="2" />
	<circle cx="522.3112481789" cy="-133.9696006720" r="2" />
	<circle cx="580.3967738751" cy="-656.0301385867" r="2" />
	<circle cx="501.5053730883" cy="-854.9367506865" r="2" />
	<circle cx="242.4219366363" cy="-140.5818302005" r="2" />
	<circle cx="496.3023113328" cy="-613.7211134601" r="2" />
	<circle cx="238.1283890824" cy="-15.5069078668" r="2" />
	<circle cx="5.2500079600" cy="-1.8035075492" r="2" />
	<circle cx="499.1109339796" cy="-598.1233225910" r="2" />
	<circle cx="193.8951083337" cy="-75.5241458841" r="2" />
	<circle cx="279.6380619656" cy="-139.6854239650" r="2" />
	<circle cx="499.9992970028" cy="-866.0240760728" r="2" />
	<circle cx="621.2680647476" cy="-235.8996097190" r="2" />
	<circle cx="563.2995043850" cy="-149.6768902272" r="2" />
	<circle cx="468.9810281093" cy="-146.4690106833" r="2" />
	<circle cx="163.9459980926" cy="-177.3456328586" r="2" />
	<circle cx="414.5981087550" cy="-288.0414736403" r="2" />
	<circle cx="451.2098174222" cy="-702.5050890633" r="2" />
	<circle cx="21.2133635568" cy="-11.7031723714" r="2" />
	<circle cx="998.8116472503" cy="-0.6496186954" r="2" />
	<circle cx="989.3048026736" cy="-12.1277929827" r="2" />
	<circle cx="998.6382909392" cy="-1.2829968303" r="2" />
	<circle cx="500.0001417654" cy="-865.8711066723" r="2" />
	<circle cx="522.9688946098" cy="-369.6656462869" r="2" />
	<circle cx="997.4385607911" cy="-1.3559252353" r="2" />
	<circle cx="458.8429777773" cy="-680.6392290839" r="2" />
	<circle cx="500.1694160010" cy="-853.7731190108" r="2" />
	<circle cx="464.3975657858" cy="-403.1858994915" r="2" />
	<circle cx="689.9433400491" cy="-178.8267024375" r="2" />
	<circle cx="2.6917114384" cy="-0.5322061608" r="2" />
	<circle cx="997.4386089001" cy="-1.4794707280" r="2" />
	<circle cx="323.0809721435" cy="-74.9121994136" r="2" />
	<circle cx="302.0210032471" cy="-497.0257527776" r="2" />
	<circle cx="500.0001758926" cy="-865.2610998713" r="2" />
	<circle cx="14.9217552670" cy="-6.8298049938" r="2" />
	<circle cx="499.5782149798" cy="-717.4180513350" r="2" />
	<circle cx="4.7567873613" cy="-1.2961271743" r="2" />
	<circle cx="516.2027267662" cy="-488.1035154387" r="2" />
	<circle cx="306.8205558239" cy="-275.4679455741" r="2" />
	<circle cx="449.4804776550" cy="-262.7367414147" r="2" />
	<circle cx="549.2948557659" cy="-350.0620293063" r="2" />
	<circle cx="500.0388989428" cy="-859.0197025004" r="2" />
	<circle cx="460.0661386857" cy="-568.8683804748" r="2" />
	<circle cx="868.6981342180" cy="-174.0195998325" r="2" />
	<circle cx="264.9207504985" cy="-282.5669063598" r="2" />
	<circle cx="684.8808154699" cy="-189.2614793282" r="2" />
	<circle cx="493.7827795508" cy="-839.1011827831" r="2" />
	<circle cx="244.1067615335" cy="-127.3377755543" r="2" />
	<circle cx="321.7260232254" cy="-351.4618885770" r="2" />
	<circle cx="5.2842679107" cy="-3.0510347536" r="2" />
	<circle cx="7.1244046497" cy="-2.9284855281" r="2" />
	<circle cx="70.0853993816" cy="-44.9784345335" r="2" />
	<circle cx="203.4169642473" cy="-116.4078065877" r="2" />
	<circle cx="0.0321610498" cy="-0.0230636460" r="2" />
	<circle cx="398.5579861691" cy="-470.8232505857" r="2" />
	<circle cx="471.0436040091" cy="-548.6827113796" r="2" />
	<circle cx="500.1822026513" cy="-288.5697891512" r="2" />
	<circle cx="557.0178045716" cy="-343.3344495306" r="2" />
	<circle cx="499.5178742164" cy="-384.9199573342" r="2" />
	<circle cx="499.6499949986" cy="-472.1664144226" r="2" />
	<circle cx="26.7802770953" cy="-20.1754930759" r="2" />
	<circle cx="133.2357815053" cy="-97.3691802143" r="2" />
	<circle cx="659.5031001873" cy="-196.3892586635" r="2" />
	<circle cx="497.6461532348" cy="-304.8236096801" r="2" />
	<circle cx="4.3406176293" cy="-2.8251461338" r="2" />
	<circle cx="999.8714761162" cy="-0.0179050419" r="2" />
	<circle cx="971.4447943317" cy="-19.6855990096" r="2" />
	<circle cx="53.8463017480" cy="-20.3141958730" r="2" />
	<circle cx="596.8921402246" cy="-687.6329509786" r="2" />
	<circle cx="15.6439339681" cy="-10.6087849969" r="2" />
	<circle cx="442.6741224429" cy="-255.7468892509" r="2" />
	<circle cx="466.7322914325" cy="-683.7421407101" r="2" />
	<circle cx="19.9510877352" cy="-20.8756265184" r="2" />
	<circle cx="0.6879197649" cy="-0.7466091533" r="2" />
	<circle cx="706.0308888447" cy="-94.4712807925" r="2" />
	<circle cx="11.0503394703" cy="-1.0295733007" r="2" />
	<circle cx="868.8515514807" cy="-140.2931170114" r="2" />
	<circle cx="228.4042461391" cy="-132.3739632639" r="2" />
	<circle cx="998.1981784664" cy="-2.0686202725" r="2" />
	<circle cx="999.9899734111" cy="-0.0058441619" r="2" />
	<circle cx="499.9999998470" cy="-865.9917308652" r="2" />
	<circle cx="489.9380869112" cy="-804.3096641643" r="2" />
	<circle cx="105.1639598552" cy="-35.0015947362" r="2" />
	<circle cx="36.0075504624" cy="-20.7889427869" r="2" />
	<circle cx="499.8299197123" cy="-367.7482282453" r="2" />
	<circle cx="575.7652244369" cy="-655.4831163770" r="2" />
	<circle cx="0.2289126746" cy="-0.1225848431" r="2" />
	<circle cx="513.9871595273" cy="-776.3211790872" r="2" />
	<circle cx="216.2128544874" cy="-248.3414187407" r="2" />
	<circle cx="274.3110027950" cy="-170.8724396866" r="2" />
	<circle cx="947.7759262100" cy="-34.8285317512" r="2" />
	<circle cx="202.0695242062" cy="-118.7569353237" r="2" />
	<circle cx="237.6710291526" cy="-137.2634368344" r="2" />
	<circle cx="36.8686183081" cy="-34.5943645597" r="2" />
	<circle cx="481.6535309921" cy="-164.1099330642" r="2" />
	<circle cx="399.4249559319" cy="-546.8148091716" r="2" />
	<circle cx="993.9478638607" cy="-3.5158807232" r="2" />
	<circle cx="292.1840703303" cy="-164.8121027243" r="2" />
	<circle cx="167.4495070963" cy="-15.0934182636" r="2" />
	<circle cx="527.1809564062" cy="-315.5347819772" r="2" />
	<circle cx="510.5740165574" cy="-38.4167062448" r="2" />
	<circle cx="329.9726856672" cy="-39.7190868188" r="2" />
	<circle cx="677.5740240358" cy="-196.3240428247" r="2" />
	<circle cx="995.3431226931" cy="-2.8993749149" r="2" />
	<circle cx="966.0444592305" cy="-45.5596689087" r="2" />
	<circle cx="996.4217805671" cy="-2.7684223346" r="2" />
	<circle cx="655.1922650982" cy="-199.1151888809" r="2" />
	<circle cx="539.0738082050" cy="-770.6313768484" r="2" />
	<circle cx="971.6452262882" cy="-16.3655834856" r="2" />
	<circle cx="792.8188067236" cy="-88.8332817448" r="2" />
	<circle cx="78.2547634711" cy="-45.3964265224" r="2" />
	<circle cx="500.8383028439" cy="-858.0760128009" r="2" />
	<circle cx="499.9984926428" cy="-863.8156052307" r="2" />
	<circle cx="995.8296507119" cy="-2.4089392135" r="2" />
	<circle cx="499.9961821000" cy="-679.6898887645" r="2" />
	<circle cx="615.9751489170" cy="-224.8759556725" r="2" />
	<circle cx="15.9775921188" cy="-3.2274710796" r="2" />
	<circle cx="2.7005282390" cy="-0.5482430412" r="2" />
	<circle cx="366.6117205517" cy="-211.5885872204" r="2" />
	<circle cx="517.2703707556" cy="-279.0033373095" r="2" />
	<circle cx="474.2976065537" cy="-275.6043452725" r="2" />
	<circle cx="6.1692060624" cy="-2.3643275317" r="2" />
	<circle cx="540.5672704099" cy="-620.7054311493" r="2" />
	<circle cx="469.5045637901" cy="-271.0837294993" r="2" />
	<circle cx="1.1032906022" cy="-0.6307551164" r="2" />
	<circle cx="999.8647254612" cy="-0.0151584049" r="2" />
	<circle cx="987.7087647301" cy="-9.7584620866" r="2" />
	<circle cx="388.4265233850" cy="-527.1651204283" r="2" />
	<circle cx="999.5093503787" cy="-0.2832877081" r="2" />
	<circle cx="524.0400940935" cy="-609.4270418437" r="2" />
	<circle cx="807.7016561344" cy="-132.9127873212" r="2" />
	<circle cx="2.8535117475" cy="-2.1119634670" r="2" />
	<circle cx="654.8791542616" cy="-412.8175871653" r="2" />
	<circle cx="730.6575966804" cy="-182.3088213304" r="2" />
	<circle cx="743.0385489135" cy="-290.4717445142" r="2" />
	<circle cx="109.8979249086" cy="-95.8400491252" r="2" />
	<circle cx="52.4342280832" cy="-30.2834019256" r="2" />
	<circle cx="890.2650282208" cy="-95.8637600822" r="2" />
	<circle cx="535.6876165833" cy="-267.6702302475" r="2" />
	<circle cx="500.0081167595" cy="-853.8152876884" r="2" />
	<circle cx="21.9633229343" cy="-7.2588057039" r="2" />
	<circle cx="500.0000135524" cy="-791.7446428235" r="2" />
	<circle cx="710.6939005942" cy="-242.5813042196" r="2" />
	<circle cx="740.5577368722" cy="-32.5524286135" r="2" />
	<circle cx="720.4338406026" cy="-56.1413353470" r="2" />
	<circle cx="999.5106129409" cy="-0.2955566088" r="2" />
	<circle cx="819.6091868423" cy="-297.1020325570" r="2" />
	<circle cx="506.4128519954" cy="-672.0085126941" r="2" />
	<circle cx="914.8347378267" cy="-48.9853988033" r="2" />
	<circle cx="494.9637934749" cy="-427.0820548040" r="2" />
	<circle cx="992.0650473817" cy="-2.3129173297" r="2" />
	<circle cx="999.9301271044" cy="-0.0260839997" r="2" />
	<circle cx="979.0389306245" cy="-12.1012765670" r="2" />
	<circle cx="929.7015040069" cy="-93.9880313830" r="2" />
	<circle cx="534.2523819323" cy="-479.6073210903" r="2" />
	<circle cx="22.1322117175" cy="-10.1747649162" r="2" />
	<circle cx="23.7065186262" cy="-13.6730513396" r="2" />
	<circle cx="521.7972021035" cy="-47.9250639108" r="2" />
	<circle cx="879.7888881927" cy="-20.7609069087" r="2" />
	<circle cx="101.7185051596" cy="-121.4968610336" r="2" />
	<circle cx="533.0109745134" cy="-269.7846722707" r="2" />
	<circle cx="83.4657107356" cy="-48.1377932851" r="2" />
	<circle cx="937.1596422842" cy="-23.4433016500" r="2" />
	<circle cx="535.1715339109" cy="-606.7586178568" r="2" />
	<circle cx="509.6114321196" cy="-395.3221447623" r="2" />
	<circle cx="499.9999060693" cy="-859.8927147666" r="2" />
	<circle cx="862.1350327668" cy="-167.1899199042" r="2" />
	<circle cx="586.2517352306" cy="-238.5634476016" r="2" />
	<circle cx="996.1512651682" cy="-2.2231753710" r="2" />
	<circle cx="451.1046209449" cy="-438.8999455662" r="2" />
	<circle cx="535.0744980903" cy="-512.7331134958" r="2" />
	<circle cx="929.1156827990" cy="-57.9938235923" r="2" />
	<circle cx="3.3756499824" cy="-2.2459751638" r="2" />
	<circle cx="318.7958860464" cy="-187.3913584064" r="2" />
	<circle cx="0.7822013055" cy="-0.4330156623" r="2" />
	<circle cx="945.3055706533" cy="-24.6295988044" r="2" />
	<circle cx="45.2328853635" cy="-38.5717259193" r="2" />
	<circle cx="0.0342069811" cy="-0.0027724142" r="2" />
	<circle cx="9.7601048329" cy="-8.2162059092" r="2" />
	<circle cx="1.3970224291" cy="-0.8087332483" r="2" />
	<circle cx="499.9476704849" cy="-865.5478750748" r="2" />
	<circle cx="500.0321550025" cy="-603.6499884150" r="2" />
	<circle cx="123.8514953025" cy="-71.5148134848" r="2" />
	<circle cx="140.7598006126" cy="-81.9072366399" r="2" />
	<circle cx="351.6510784509" cy="-62.0829313448" r="2" />
	<circle cx="116.1286381174" cy="-137.4284789615" r="2" />
	<circle cx="303.8884965823" cy="-76.6099237989" r="2" />
	<circle cx="19.7966364752" cy="-11.4294153468" r="2" />
	<circle cx="200.6735349129" cy="-161.1488317836" r="2" />
	<circle cx="6.0453817753" cy="-3.5069619060" r="2" />
	<circle cx="342.2809053061" cy="-241.4588953622" r="2" />
	<circle cx="0.0499001267" cy="-0.0339478011" r="2" />
	<circle cx="640.7845427261" cy="-207.5372429068" r="2" />
	<circle cx="747.5977909795" cy="-145.7177375288" r="2" />
	<circle cx="875.4572390295" cy="-75.9241243243" r="2" />
	<circle cx="499.9883602344" cy="-854.6681491573" r="2" />
	<circle cx="930.0862379149" cy="-31.3374282491" r="2" />
	<circle cx="78.4777852208" cy="-22.4383289583" r="2" />
	<circle cx="130.4280285713" cy="-75.3157549710" r="2" />
	<circle cx="999.6909896950" cy="-0.1783527056" r="2" />
	<circle cx="141.6793466579" cy="-164.0403596478" r="2" />
	<circle cx="133.1699829068" cy="-76.8845657507" r="2" />
	<circle cx="887.4683357929" cy="-63.4624659704" r="2" />
	<circle cx="553.1989522464" cy="-725.1513621946" r="2" />
	<circle cx="972.4509540219" cy="-4.8792519238" r="2" />
	<circle cx="611.2502082905" cy="-633.4473119843" r="2" />
	<circle cx="612.8621713283" cy="-150.2255150052" r="2" />
	<circle cx="509.8725523931" cy="-305.3054638113" r="2" />
	<circle cx="499.9999990158" cy="-865.9832313581" r="2" />
	<circle cx="499.6561524164" cy="-864.7119000160" r="2" />
	<circle cx="499.9999032716" cy="-866.0245485449" r="2" />
	<circle cx="273.1082804977" cy="-183.2061738473" r="2" />
	<circle cx="497.6783310726" cy="-853.2999593235" r="2" />
	<circle cx="464.2504370138" cy="-267.5059440723" r="2" />
	<circle cx="0.0025133934" cy="-0.0014517866" r="2" />
	<circle cx="508.9970536722" cy="-793.1082321664" r="2" />
	<circle cx="569.9307277952" cy="-249.1679802956" r="2" />
	<circle cx="21.6874825763" cy="-15.7554498358" r="2" />
	<circle cx="440.4703221469" cy="-257.3655611873" r="2" />
	<circle cx="828.2398489183" cy="-190.8884182853" r="2" />
	<circle cx="409.1444668832" cy="-235.9696627859" r="2" />
	<circle cx="862.5678573337" cy="-17.9082073034" r="2" />
	<circle cx="981.6610686491" cy="-3.6219378606" r="2" />
	<circle cx="500.0026396648" cy="-773.1438467307" r="2" />
	<circle cx="999.9960903792" cy="-0.0022510611" r="2" />
	<circle cx="804.7381591724" cy="-35.8599707644" r="2" />
	<circle cx="27.4622464597" cy="-15.8548581414" r="2" />
	<circle cx="568.9137939304" cy="-350.0684052117" r="2" />
	<circle cx="501.1815327182" cy="-861.1327804189" r="2" />
	<circle cx="726.4461414250" cy="-161.8781952653" r="2" />
	<circle cx="500.0009504477" cy="-589.3696979282" r="2" />
	<circle cx="345.2730575913" cy="-412.7963342858" r="2" />
	<circle cx="1.0802144817" cy="-0.6252595424" r="2" />
	<circle cx="648.1727868050" cy="-252.3042472945" r="2" />
	<circle cx="507.7039366208" cy="-414.3857422351" r="2" />
	<circle cx="635.1531450126" cy="-416.4782920204" r="2" />
	<circle cx="499.9862577440" cy="-853.4009139897" r="2" />
	<circle cx="999.6509932582" cy="-0.1731160638" r="2" />
	<circle cx="999.6021063547" cy="-0.1756932353" r="2" />
	<circle cx="78.0041762549" cy="-45.0451838333" r="2" />
	<circle cx="410.7719781798" cy="-413.6223726584" r="2" />
	<circle cx="8.5411671168" cy="-3.5093381156" r="2" />
	<circle cx="421.0757144730" cy="-242.8997546232" r="2" />
	<circle cx="209.7629215852" cy="-210.3917328818" r="2" />
	<circle cx="572.0282481993" cy="-569.5340695158" r="2" />
	<circle cx="390.4644430176" cy="-384.5196369966" r="2" />
	<circle cx="0.0769024851" cy="-0.0444199956" r="2" />
	<circle cx="585.0889582178" cy="-462.6068466894" r="2" />
	<circle cx="714.6487203236" cy="-227.3766684337" r="2" />
	<circle cx="161.9294086659" cy="-222.0886799929" r="2" />
	<circle cx="500.0390360773" cy="-865.9168140860" r="2" />
	<circle cx="326.5688754598" cy="-9.0349655794" r="2" />
	<circle cx="999.9552568136" cy="-0.0185612247" r="2" />
	<circle cx="442.5033506205" cy="-156.1041136420" r="2" />
	<circle cx="935.3761392303" cy="-37.2967497014" r="2" />
	<circle cx="266.3490929397" cy="-193.3208198210" r="2" />
	<circle cx="674.8711413548" cy="-409.0062474514" r="2" />
	<circle cx="500.0027712622" cy="-866.0106402777" r="2" />
	<circle cx="912.6477669089" cy="-42.4089943126" r="2" />
	<circle cx="669.0389643845" cy="-190.6255703651" r="2" />
	<circle cx="471.2922663916" cy="-788.5483971771" r="2" />
	<circle cx="7.2294122817" cy="-4.1670258451" r="2" />
	<circle cx="659.0705205028" cy="-304.0181150472" r="2" />
	<circle cx="500.0011752857" cy="-865.9242817428" r="2" />
	<circle cx="879.2909299525" cy="-28.6281714956" r="2" />
	<circle cx="389.9961594134" cy="-538.2207396793" r="2" />
	<circle cx="73.4496138349" cy="-111.1690142964" r="2" />
	<circle cx="376.8724687459" cy="-468.7335002370" r="2" />
	<circle cx="609.2028282946" cy="-605.3172047636" r="2" />
	<circle cx="615.7004218271" cy="-107.2469493934" r="2" />
	<circle cx="38.0574047923" cy="-40.2571924143" r="2" />
	<circle cx="977.7823471146" cy="-10.8233798956" r="2" />
	<circle cx="507.3597502958" cy="-222.5718060318" r="2" />
	<circle cx="0.0767091114" cy="-0.0442432383" r="2" />
	<circle cx="1.3946496220" cy="-0.8252678356" r="2" />
	<circle cx="907.1870739391" cy="-59.5975611882" r="2" />
	<circle cx="9.9084991999" cy="-5.5176063703" r="2" />
	<circle cx="963.8993767913" cy="-31.8928987306" r="2" />
	<circle cx="517.5820249730" cy="-761.7867082410" r="2" />
	<circle cx="178.0110067598" cy="-187.3366842381" r="2" />
	<circle cx="500.0004602352" cy="-834.6190107575" r="2" />
	<circle cx="943.7273328958" cy="-8.9657132725" r="2" />
	<circle cx="459.7941079935" cy="-246.0764510665" r="2" />
	<circle cx="984.0110572126" cy="-3.9940508624" r="2" />
	<circle cx="66.0949372025" cy="-38.1609135605" r="2" />
	<circle cx="500.2632586571" cy="-858.0875551825" r="2" />
	<circle cx="480.9951095639" cy="-181.6999917354" r="2" />
	<circle cx="970.9263551774" cy="-11.0490643390" r="2" />
	<circle cx="500.3894241267" cy="-288.4513592605" r="2" />
	<circle cx="256.4130888530" cy="-148.0337257288" r="2" />
	<circle cx="14.8638938683" cy="-1.9950358308" r="2" />
	<circle cx="500.4091687301" cy="-288.8685815490" r="2" />
	<circle cx="6.1985026919" cy="-3.5787091878" r="2" />
	<circle cx="501.1409365887" cy="-844.0544098873" r="2" />
	<circle cx="587.6905542945" cy="-238.2865016129" r="2" />
	<circle cx="499.1335761170" cy="-844.1180275808" r="2" />
	<circle cx="493.0568274249" cy="-817.7354033246" r="2" />
	<circle cx="76.9942428529" cy="-45.6416069099" r="2" />
	<circle cx="455.3159903856" cy="-316.6578082791" r="2" />
	<circle cx="796.2845018235" cy="-34.6770736184" r="2" />
	<circle cx="504.4143260871" cy="-644.8951498099" r="2" />
	<circle cx="409.4204511172" cy="-463.6891009444" r="2" />
	<circle cx="17.6984196925" cy="-3.3194731135" r="2" />
	<circle cx="797.9479211816" cy="-85.8389105464" r="2" />
	<circle cx="0.0005972429" cy="-0.0003450685" r="2" />
	<circle cx="168.4651036408" cy="-31.8694511379" r="2" />
	<circle cx="983.2583972669" cy="-8.2461207605" r="2" />
	<circle cx="997.7015554170" cy="-1.3270199420" r="2" />
	<circle cx="504.1607575432" cy="-629.1461843506" r="2" />
	<circle cx="2.0110446847" cy="-0.9737597329" r="2" />
	<circle cx="869.5037540839" cy="-75.4493932629" r="2" />
	<circle cx="214.6676268665" cy="-103.2337018502" r="2" />
	<circle cx="931.6224858241" cy="-32.7881342841" r="2" />
	<circle cx="70.2982037988" cy="-93.9875064024" r="2" />
	<circle cx="499.8587991306" cy="-839.1260721404" r="2" />
	<circle cx="0.9467215915" cy="-0.6325241414" r="2" />
	<circle cx="4.8327022904" cy="-2.5825124074" r="2" />
	<circle cx="0.0169909950" cy="-0.0098066770" r="2" />
	<circle cx="998.3723887746" cy="-0.9066367963" r="2" />
	<circle cx="66.5035034852" cy="-95.3672497641" r="2" />
	<circle cx="461.4585059635" cy="-789.4912396369" r="2" />
	<circle cx="5.0338767789" cy="-3.7492501889" r="2" />
	<circle cx="500.0155754251" cy="-454.8255152880" r="2" />
	<circle cx="500.0134730539" cy="-288.6829694146" r="2" />
	<circle cx="557.3608432157" cy="-311.8402126739" r="2" />
	<circle cx="22.8916548307" cy="-7.2146123968" r="2" />
	<circle cx="500.2887359497" cy="-371.3434754620" r="2" />
	<circle cx="499.9991867511" cy="-820.5077157038" r="2" />
	<circle cx="999.5655398398" cy="-0.2507114311" r="2" />
	<circle cx="947.4969322920" cy="-45.7514645126" r="2" />
	<circle cx="595.0128553811" cy="-332.3995497290" r="2" />
	<circle cx="827.9042358300" cy="-193.9147792672" r="2" />
	<circle cx="223.5284506817" cy="-5.4436164841" r="2" />
	<circle cx="488.1218684636" cy="-342.6984232433" r="2" />
	<circle cx="115.3377273186" cy="-66.5902679163" r="2" />
	<circle cx="915.8066314460" cy="-16.1676315611" r="2" />
	<circle cx="0.0207600159" cy="-0.0152706416" r="2" />
	<circle cx="545.8422013142" cy="-191.6241251995" r="2" />
	<circle cx="6.3685154598" cy="-4.4822926389" r="2" />
	<circle cx="0.0016313551" cy="-0.0009418633" r="2" />
	<circle cx="495.9882330523" cy="-796.6496628857" r="2" />
	<circle cx="979.1006901891" cy="-12.0515611385" r="2" />
	<circle cx="0.0802705823" cy="-0.0351704065" r="2" />
	<circle cx="993.3331443641" cy="-3.8700776767" r="2" />
	<circle cx="130.0259000777" cy="-142.7768039475" r="2" />
	<circle cx="619.0512096678" cy="-347.8404857112" r="2" />
	<circle cx="499.9996653765" cy="-866.0224214427" r="2" />
	<circle cx="941.1792403398" cy="-33.9516295298" r="2" />
	<circle cx="500.0020791903" cy="-864.5154339912" r="2" />
	<circle cx="614.6440816632" cy="-49.7666749531" r="2" />
	<circle cx="503.9522941303" cy="-851.3522600041" r="2" />
	<circle cx="499.1645553129" cy="-833.7485872572" r="2" />
	<circle cx="40.3520701587" cy="-28.7014207290" r="2" />
	<circle cx="697.9502511370" cy="-174.3361302261" r="2" />
	<circle cx="987.1611959524" cy="-7.4123541437" r="2" />
	<circle cx="939.3248702771" cy="-33.9220926554" r="2" />
	<circle cx="997.1695580636" cy="-1.8957432030" r="2" />
	<circle cx="333.5226194075" cy="-406.1290660881" r="2" />
	<circle cx="4.8741274249" cy="-4.3231994831" r="2" />
	<circle cx="603.1276989042" cy="-505.7703500933" r="2" />
	<circle cx="500.0207761469" cy="-865.1692085619" r="2" />
	<circle cx="123.7273579342" cy="-71.5341858861" r="2" />
	<circle cx="2.0329789155" cy="-2.4882535510" r="2" />
	<circle cx="499.9998665384" cy="-861.1501510056" r="2" />
	<circle cx="509.9379512204" cy="-403.1866003218" r="2" />
	<circle cx="499.9968106350" cy="-860.2480530156" r="2" />
	<circle cx="993.0347466275" cy="-4.0063346643" r="2" />
	<circle cx="389.2564951586" cy="-212.0531733470" r="2" />
	<circle cx="858.1053555948" cy="-121.0286056839" r="2" />
	<circle cx="999.8876926285" cy="-0.0817441225" r="2" />
	<circle cx="214.6287850997" cy="-103.2838525890" r="2" />
	<circle cx="512.9870086035" cy="-250.7341002037" r="2" />
	<circle cx="498.8439440959" cy="-759.1664716170" r="2" />
	<circle cx="2.4530542221" cy="-0.2931739660" r="2" />
	<circle cx="956.7416025905" cy="-12.9079535643" r="2" />
	<circle cx="608.1663284941" cy="-589.6487338288" r="2" />
	<circle cx="318.5484701051" cy="-183.5038942068" r="2" />
	<circle cx="923.2276705823" cy="-44.3740643001" r="2" />
	<circle cx="560.7641260574" cy="-253.6650391200" r="2" />
	<circle cx="996.0665674222" cy="-2.1879024778" r="2" />
	<circle cx="98.6113054895" cy="-67.9889726506" r="2" />
	<circle cx="999.2985264925" cy="-0.5249919505" r="2" />
	<circle cx="920.7012401310" cy="-13.6284785210" r="2" />
	<circle cx="15.8464010600" cy="-21.3707156562" r="2" />
	<circle cx="906.6075574322" cy="-53.8437078353" r="2" />
	<circle cx="0.4738307148" cy="-0.2735122597" r="2" />
	<circle cx="886.3360963583" cy="-47.1997088344" r="2" />
	<circle cx="500.0273957164" cy="-718.9805711198" r="2" />
	<circle cx="499.9881066561" cy="-556.6989181769" r="2" />
	<circle cx="801.0474201033" cy="-181.9474855972" r="2" />
	<circle cx="36.8707108842" cy="-19.6382378486" r="2" />
	<circle cx="160.1743861768" cy="-102.4658261119" r="2" />
	<circle cx="499.1206286122" cy="-864.0173213308" r="2" />
	<circle cx="527.1912024978" cy="-799.7769548435" r="2" />
	<circle cx="869.6158603753" cy="-75.2898655135" r="2" />
	<circle cx="293.0960411283" cy="-427.2266324667" r="2" />
	<circle cx="807.0283046878" cy="-281.4262780163" r="2" />
	<circle cx="999.8269370568" cy="-0.2708775803" r="2" />
	<circle cx="498.8465567545" cy="-298.6422149971" r="2" />
	<circle cx="275.1313919516" cy="-292.4039500255" r="2" />
	<circle cx="32.9033134403" cy="-12.6955806476" r="2" />
	<circle cx="500.3008922010" cy="-863.6409444109" r="2" />
	<circle cx="623.2257798039" cy="-531.1551782756" r="2" />
	<circle cx="500.0557641743" cy="-798.0462366425" r="2" />
	<circle cx="909.8251571224" cy="-50.7076376855" r="2" />
	<circle cx="584.2157290647" cy="-641.5661574396" r="2" />
	<circle cx="500.0000000000" cy="-866.0254011426" r="2" />
	<circle cx="732.4388698927" cy="-172.5944988728" r="2" />
	<circle cx="564.1954039522" cy="-671.2418541724" r="2" />
	<circle cx="348.5038077962" cy="-208.7616312241" r="2" />
	<circle cx="946.1787350739" cy="-20.2667370690" r="2" />
	<circle cx="959.1534586038" cy="-20.6620496445" r="2" />
	<circle cx="500.0005408473" cy="-864.2170625823" r="2" />
	<circle cx="8.0478361053" cy="-4.6054537305" r="2" />
	<circle cx="244.3701045029" cy="-126.4229490572" r="2" />
	<circle cx="500.0330866608" cy="-765.2563217364" r="2" />
	<circle cx="10.4466589507" cy="-16.2826959639" r="2" />
	<circle cx="166.8216654841" cy="-102.6510704217" r="2" />
	<circle cx="999.7388293849" cy="-0.1398296756" r="2" />
	<circle cx="651.0823846155" cy="-387.8770858962" r="2" />
	<circle cx="505.3655133472" cy="-831.4735926630" r="2" />
	<circle cx="454.6958255858" cy="-552.7931455776" r="2" />
	<circle cx="862.1765425210" cy="-47.1645191441" r="2" />
	<circle cx="95.8592553760" cy="-16.9151451979" r="2" />
	<circle cx="499.7072987492" cy="-849.0683665193" r="2" />
	<circle cx="499.9667251128" cy="-864.2608005899" r="2" />
	<circle cx="500.0006777081" cy="-776.7690807627" r="2" />
	<circle cx="301.4805088242" cy="-32.9542059953" r="2" />
	<circle cx="204.8985666588" cy="-48.3345943461" r="2" />
	<circle cx="987.6590065063" cy="-7.1249177144" r="2" />
	<circle cx="602.2048557247" cy="-488.4748359623" r="2" />
	<circle cx="493.1034276767" cy="-830.5469370364" r="2" />
	<circle cx="110.3444543768" cy="-24.4314186029" r="2" />
	<circle cx="717.2579550673" cy="-145.2731348265" r="2" />
	<circle cx="440.0858329674" cy="-283.5745997588" r="2" />
	<circle cx="513.7618724742" cy="-396.6419914476" r="2" />
	<circle cx="971.6519905453" cy="-16.3689512715" r="2" />
	<circle cx="497.4165973079" cy="-618.2082185894" r="2" />
	<circle cx="24.4927766218" cy="-3.0325963024" r="2" />
	<circle cx="500.0098775637" cy="-399.6683892603" r="2" />
	<circle cx="368.2190689229" cy="-195.7349931425" r="2" />
	<circle cx="950.9319889936" cy="-28.3531718949" r="2" />
	<circle cx="170.1179856211" cy="-164.0544326912" r="2" />
	<circle cx="0.0137393946" cy="-0.0154304150" r="2" />
	<circle cx="868.8515514807" cy="-140.2931170114" r="2" />
	<circle cx="288.0475284643" cy="-166.3048609350" r="2" />
	<circle cx="0.7427295564" cy="-0.2960655405" r="2" />
	<circle cx="207.0936319658" cy="-12.8447349014" r="2" />
	<circle cx="895.3808933354" cy="-59.7439242015" r="2" />
	<circle cx="382.8150738415" cy="-497.4263559096" r="2" />
	<circle cx="256.7612848378" cy="-96.9959811248" r="2" />
	<circle cx="370.8994442979" cy="-256.5050570706" r="2" />
	<circle cx="557.2108857399" cy="-522.4959576146" r="2" />
	<circle cx="501.1886209882" cy="-762.5435863137" r="2" />
	<circle cx="417.5652315840" cy="-145.6587333508" r="2" />
	<circle cx="891.6950404449" cy="-60.2659200651" r="2" />
	<circle cx="386.5474547137" cy="-150.5410324729" r="2" />
	<circle cx="701.3404488441" cy="-401.1994679114" r="2" />
	<circle cx="647.3726970591" cy="-18.6520600338" r="2" />
	<circle cx="477.7387658270" cy="-692.2016177077" r="2" />
	<circle cx="499.9697822552" cy="-865.9533346654" r="2" />
	<circle cx="503.8574363875" cy="-816.9949561887" r="2" />
	<circle cx="0.3132725967" cy="-0.1789260582" r="2" />
	<circle cx="472.8276939151" cy="-723.7078083177" r="2" />
	<circle cx="504.5374196757" cy="-850.2679144587" r="2" />
	<circle cx="377.8836904172" cy="-294.6610523678" r="2" />
	<circle cx="541.4559559622" cy="-730.8193009079" r="2" />
	<circle cx="500.0004109446" cy="-865.1530747291" r="2" />
	<circle cx="190.6287002766" cy="-132.5253490177" r="2" />
	<circle cx="78.7142737750" cy="-38.6844879285" r="2" />
	<circle cx="0.0031366963" cy="-0.0018111540" r="2" />
	<circle cx="499.9520797490" cy="-395.1157320855" r="2" />
	<circle cx="499.9975134363" cy="-817.3515209762" r="2" />
	<circle cx="466.9898905133" cy="-269.8002962907" r="2" />
	<circle cx="413.7523638316" cy="-238.5632141228" r="2" />
	<circle cx="500.0000260266" cy="-865.9335227995" r="2" />
	<circle cx="520.1838287674" cy="-598.2723127002" r="2" />
	<circle cx="976.8871772005" cy="-13.1316465366" r="2" />
	<circle cx="495.2741480278" cy="-487.6095845622" r="2" />
	<circle cx="464.5010452070" cy="-720.0180104277" r="2" />
	<circle cx="576.7720149498" cy="-347.0773385939" r="2" />
	<circle cx="0.0767976004" cy="-0.0443372309" r="2" />
	<circle cx="499.9997603885" cy="-865.9440122980" r="2" />
	<circle cx="946.5923321103" cy="-14.5270974920" r="2" />
  </g>
  <g id="fig2" transform="translate(-550.0,1000)">
	<polygon points="0.0,-0.0 1000.0,-0.0 500.0,-866.0254038" />
	<line
	   id="line2-1"
	   y2="-0.0"
	   x2="500"
	   y1="-288.6751346"
	   x1="500" />
	<line
	   id="line2-2"
	   y2="-433.0127019"
	   x2="250"
	   y1="-288.6751346"
	   x1="500" />
	<line
	   id="line2-3"
	   y2="-433.0127019"
	   x2="750"
	   y1="-288.6751346"
	   x1="500" />
	<text
	   x="440"
	   y="-500"
	   id="up_2">32.2%</text>
	<text
	   x="250"
	   y="-150"
	   id="down_left_2">36.6%</text>
	<text
	   x="630"
	   y="-150"
	   id="down_right_2">31.2%</text>
  </g>
  <g id="fig3" transform="translate(550,1000)">
	<polygon points="0.0,-0.0 1000.0,-0.0 500.0,-866.0254038" />
	<polygon id="triangle3b" points="250,-144.3375673 750,-144.3375673 500,-577.3502692" />
	<line
	   id="line3-1"
	   x1="125"
	   y1="-216.5063509"
	   x2="250"
	   y2="-144.3375673" />
	<line
	   id="line3-2"
	   x1="375"
	   y1="-649.5190528"
	   x2="500"
	   y2="-577.3502692" />
	<line
	   id="line3-3"
	   x1="625"
	   y1="-649.5190528"
	   x2="500"
	   y2="-577.3502692" />
	<line
	   id="line3-4"
	   x1="875"
	   y1="-216.5063509"
	   x2="750"
	   y2="-144.3375673" />
	<line
	   id="line3-5"
	   x1="750"
	   y1="-0.0"
	   x2="750"
	   y2="-144.3375673" />
	<line
	   id="line3-6"
	   x1="250"
	   y1="-0.0"
	   x2="250"
	   y2="-144.3375673" />
	<text
	   x="500"
	   y="-660"
	   text-anchor="middle"
	   id="up_3">20.0%</text>
	<text
	   y="-50"
	   x="70"
	   id="down_left_3">26.0%</text>
	<text
	   y="-50"
	   x="770"
	   id="down_right_3">20.2%</text>
	<text
	   x="500"
	   y="-50"
	   text-anchor="middle"
	   id="down_side_3">3.6%</text>
	<text
	   x="500"
	   y="-280"
	   text-anchor="middle"
	   id="center_3">20.2%</text>
	<text
	   x="685.0"
	   y="-390.8439"
	   text-anchor="middle"
	   transform="rotate(60,665.0,-380.8439)"
	   id="right_side_3">5.0%</text>
	<text
	   x="315.0"
	   y="-390.8439"
	   text-anchor="middle"
	   transform="rotate(-60,335.0,-380.8439)"
	   id="left_side_3">5.0%</text>
  </g>
</g></g>
</svg>
