<?xml version="1.0" encoding="UTF-8" standalone="no"?>
<!DOCTYPE svg PUBLIC "-//W3C//DTD SVG 1.1//EN" "http://www.w3.org/Graphics/SVG/1.1/DTD/svg11.dtd">
<svg
   xmlns:svg="http://www.w3.org/2000/svg"
   xmlns="http://www.w3.org/2000/svg"
   xmlns:xlink="http://www.w3.org/1999/xlink"
   version="1.1"
   baseProfile="full"
   id="body"
   width="800px"
   height="800px"
   viewBox="0 0 1000 1000"
   preserveAspectRatio="none">
  <defs>
    <style type="text/css"><![CDATA[
      circle{ stroke: none; }
      polygon{ stroke: black; stroke-width: 2px; fill: none; }
      line{ stroke: black; stroke-width: 2px; }
      text{ font-size:50px; }
    ]]></style>
  </defs>
  <title
     id="title1">SVG drawing</title>
<g transform="scale(0.45)"><g transform="translate(600,1050)">
  <g id="fig1">
	<polygon points="0.0,-0.0 1000.0,-0.0 500,-866.0254038" />
	<circle cx="0.0000000000" cy="-0.0000000000" r="2" />
	<circle cx="999.9998411622" cy="-0.0000916145" r="2" />
	<circle cx="500.0000000000" cy="-866.0254038000" r="2" />
	<circle cx="1000.0000000000" cy="-0.0000000000" r="2" />
	<circle cx="0.0000000000" cy="-0.0000000000" r="2" />
	<circle cx="1000.0000000000" cy="-0.0000000000" r="2" />
	<circle cx="0.0000000000" cy="-0.0000000000" r="2" />
	<circle cx="552.2241764663" cy="-521.2781123198" r="2" />
	<circle cx="500.0000000000" cy="-866.0254038000" r="2" />
	<circle cx="0.2786968651" cy="-0.1595723897" r="2" />
	<circle cx="0.0000000000" cy="-0.0000000000" r="2" />
	<circle cx="0.0000000000" cy="-0.0000000000" r="2" />
	<circle cx="999.9999999445" cy="-0.0000000217" r="2" />
	<circle cx="0.0000097899" cy="-0.0000059380" r="2" />
	<circle cx="0.0000000000" cy="-0.0000000000" r="2" />
	<circle cx="0.0000000000" cy="-0.0000000000" r="2" />
	<circle cx="500.0000000000" cy="-866.0254038000" r="2" />
	<circle cx="1000.0000000000" cy="-0.0000000000" r="2" />
	<circle cx="500.0000000000" cy="-866.0254038000" r="2" />
	<circle cx="0.0000000000" cy="-0.0000000000" r="2" />
	<circle cx="500.0000000000" cy="-866.0254038000" r="2" />
	<circle cx="499.9449901463" cy="-309.1984278261" r="2" />
	<circle cx="500.0000000000" cy="-866.0254038000" r="2" />
	<circle cx="0.0000000000" cy="-0.0000000000" r="2" />
	<circle cx="500.0000000000" cy="-866.0254038000" r="2" />
	<circle cx="999.9999038423" cy="-0.0000554191" r="2" />
	<circle cx="474.4251416380" cy="-821.7284494186" r="2" />
	<circle cx="25.4740337280" cy="-26.7307157179" r="2" />
	<circle cx="500.0000000000" cy="-866.0254038000" r="2" />
	<circle cx="500.0000000000" cy="-866.0254038000" r="2" />
	<circle cx="508.5574327608" cy="-450.4604864073" r="2" />
	<circle cx="325.0263967534" cy="-167.9090482066" r="2" />
	<circle cx="460.2604341806" cy="-265.6557998073" r="2" />
	<circle cx="1000.0000000000" cy="-0.0000000000" r="2" />
	<circle cx="500.0000000000" cy="-866.0254038000" r="2" />
	<circle cx="499.0687961138" cy="-838.1460004848" r="2" />
	<circle cx="0.0115875413" cy="-0.0066875987" r="2" />
	<circle cx="1000.0000000000" cy="-0.0000000000" r="2" />
	<circle cx="1000.0000000000" cy="-0.0000000000" r="2" />
	<circle cx="411.7474167508" cy="-231.8671936647" r="2" />
	<circle cx="500.0000000000" cy="-866.0254038000" r="2" />
	<circle cx="500.0000000000" cy="-866.0254038000" r="2" />
	<circle cx="0.0000000000" cy="-0.0000000000" r="2" />
	<circle cx="500.0000000000" cy="-866.0254038000" r="2" />
	<circle cx="499.9999990385" cy="-866.0254001159" r="2" />
	<circle cx="500.0000000000" cy="-866.0254037999" r="2" />
	<circle cx="500.0000000000" cy="-866.0254038000" r="2" />
	<circle cx="0.0000000000" cy="-0.0000000000" r="2" />
	<circle cx="500.0000000000" cy="-866.0254038000" r="2" />
	<circle cx="1000.0000000000" cy="-0.0000000000" r="2" />
	<circle cx="500.0000000000" cy="-866.0254038000" r="2" />
	<circle cx="500.0000000000" cy="-866.0254038000" r="2" />
	<circle cx="0.0000000491" cy="-0.0000000255" r="2" />
	<circle cx="1000.0000000000" cy="-0.0000000000" r="2" />
	<circle cx="500.0000001022" cy="-866.0254002047" r="2" />
	<circle cx="914.9284669625" cy="-49.1174661249" r="2" />
	<circle cx="999.9999999987" cy="-0.0000000008" r="2" />
	<circle cx="0.0000000000" cy="-0.0000000000" r="2" />
	<circle cx="0.0000000000" cy="-0.0000000000" r="2" />
	<circle cx="500.0000000000" cy="-866.0254038000" r="2" />
	<circle cx="0.0000002344" cy="-0.0000001354" r="2" />
	<circle cx="500.0000000000" cy="-866.0254038000" r="2" />
	<circle cx="1000.0000000000" cy="-0.0000000000" r="2" />
	<circle cx="483.4802271042" cy="-815.8223184450" r="2" />
	<circle cx="1000.0000000000" cy="-0.0000000000" r="2" />
	<circle cx="474.6179384973" cy="-301.9249346851" r="2" />
	<circle cx="0.0000000000" cy="-0.0000000000" r="2" />
	<circle cx="499.9899362081" cy="-851.9869986032" r="2" />
	<circle cx="500.0000000000" cy="-866.0254037979" r="2" />
	<circle cx="925.4986147328" cy="-40.8806586690" r="2" />
	<circle cx="1000.0000000000" cy="-0.0000000000" r="2" />
	<circle cx="500.0000000000" cy="-866.0254038000" r="2" />
	<circle cx="389.7647466089" cy="-220.3765568213" r="2" />
	<circle cx="500.0000000000" cy="-866.0254038000" r="2" />
	<circle cx="500.0000001118" cy="-866.0253959012" r="2" />
	<circle cx="1000.0000000000" cy="-0.0000000000" r="2" />
	<circle cx="1000.0000000000" cy="-0.0000000000" r="2" />
	<circle cx="500.0000000000" cy="-866.0254037998" r="2" />
	<circle cx="0.0000000000" cy="-0.0000000000" r="2" />
	<circle cx="0.4655896688" cy="-0.2686879978" r="2" />
	<circle cx="999.9999756528" cy="-0.0000140547" r="2" />
	<circle cx="500.0000000000" cy="-866.0254038000" r="2" />
	<circle cx="499.9815972543" cy="-835.4749850620" r="2" />
	<circle cx="549.8045478763" cy="-273.8692489357" r="2" />
	<circle cx="390.9989583538" cy="-225.7263354992" r="2" />
	<circle cx="0.0000000000" cy="-0.0000000000" r="2" />
	<circle cx="293.4609253966" cy="-160.6168399621" r="2" />
	<circle cx="500.0000000000" cy="-866.0254038000" r="2" />
	<circle cx="108.1648640941" cy="-65.6172658892" r="2" />
	<circle cx="500.0000000000" cy="-866.0254038000" r="2" />
	<circle cx="0.0000000000" cy="-0.0000000000" r="2" />
	<circle cx="499.7523928160" cy="-865.4328242326" r="2" />
	<circle cx="500.0000000000" cy="-866.0254038000" r="2" />
	<circle cx="1000.0000000000" cy="-0.0000000000" r="2" />
	<circle cx="500.0000000000" cy="-866.0254038000" r="2" />
	<circle cx="1000.0000000000" cy="-0.0000000000" r="2" />
	<circle cx="546.4136708841" cy="-545.4484887468" r="2" />
	<circle cx="978.8039195587" cy="-12.0691905295" r="2" />
	<circle cx="1000.0000000000" cy="-0.0000000000" r="2" />
	<circle cx="500.0000000000" cy="-866.0254038000" r="2" />
	<circle cx="500.0000000000" cy="-866.0254038000" r="2" />
	<circle cx="1000.0000000000" cy="-0.0000000000" r="2" />
	<circle cx="500.0631817071" cy="-432.2382100871" r="2" />
	<circle cx="462.7661866943" cy="-267.2109836045" r="2" />
	<circle cx="500.0000000000" cy="-866.0254038000" r="2" />
	<circle cx="251.7061223520" cy="-145.3047727198" r="2" />
	<circle cx="1000.0000000000" cy="-0.0000000000" r="2" />
	<circle cx="1000.0000000000" cy="-0.0000000000" r="2" />
	<circle cx="0.0000000000" cy="-0.0000000000" r="2" />
	<circle cx="499.9625768789" cy="-602.9062254922" r="2" />
	<circle cx="0.0000000000" cy="-0.0000000000" r="2" />
	<circle cx="1000.0000000000" cy="-0.0000000000" r="2" />
	<circle cx="999.9999999287" cy="-0.0000000410" r="2" />
	<circle cx="0.0894614784" cy="-0.1549518247" r="2" />
	<circle cx="378.5643849584" cy="-213.2339882618" r="2" />
	<circle cx="999.9999999982" cy="-0.0000000011" r="2" />
	<circle cx="500.0000000000" cy="-866.0254038000" r="2" />
	<circle cx="1000.0000000000" cy="-0.0000000000" r="2" />
	<circle cx="500.0000000000" cy="-866.0254038000" r="2" />
	<circle cx="999.9999419963" cy="-0.0000334730" r="2" />
	<circle cx="1000.0000000000" cy="-0.0000000000" r="2" />
	<circle cx="47.2196068484" cy="-27.3883666911" r="2" />
	<circle cx="500.0000000000" cy="-866.0254038000" r="2" />
	<circle cx="499.9125593076" cy="-642.6859095063" r="2" />
	<circle cx="0.0000000000" cy="-0.0000000000" r="2" />
	<circle cx="1000.0000000000" cy="-0.0000000000" r="2" />
	<circle cx="499.8838955744" cy="-625.9552857136" r="2" />
	<circle cx="1000.0000000000" cy="-0.0000000000" r="2" />
	<circle cx="792.4217997194" cy="-119.8953828986" r="2" />
	<circle cx="500.0000000000" cy="-866.0254038000" r="2" />
	<circle cx="0.0000052912" cy="-0.0000011108" r="2" />
	<circle cx="1000.0000000000" cy="-0.0000000000" r="2" />
	<circle cx="500.0000000000" cy="-866.0254038000" r="2" />
	<circle cx="999.9999998447" cy="-0.0000000592" r="2" />
	<circle cx="500.0000000000" cy="-866.0254038000" r="2" />
	<circle cx="3.2036205378" cy="-1.2699362627" r="2" />
	<circle cx="500.0000000000" cy="-866.0254038000" r="2" />
	<circle cx="0.0000000000" cy="-0.0000000000" r="2" />
	<circle cx="500.0082085631" cy="-830.0032403561" r="2" />
	<circle cx="500.0000000000" cy="-866.0254038000" r="2" />
	<circle cx="1000.0000000000" cy="-0.0000000000" r="2" />
	<circle cx="1000.0000000000" cy="-0.0000000000" r="2" />
	<circle cx="162.0137460547" cy="-0.0000000178" r="2" />
	<circle cx="511.6478703900" cy="-735.1299985427" r="2" />
	<circle cx="500.0266502311" cy="-729.1076546965" r="2" />
	<circle cx="500.0000000000" cy="-866.0254038000" r="2" />
	<circle cx="0.0000000000" cy="-0.0000000000" r="2" />
	<circle cx="1000.0000000000" cy="-0.0000000000" r="2" />
	<circle cx="434.5214158171" cy="-250.7154913277" r="2" />
	<circle cx="499.9494639769" cy="-331.7163349404" r="2" />
	<circle cx="999.9999445468" cy="-0.0000320036" r="2" />
	<circle cx="1000.0000000000" cy="-0.0000000000" r="2" />
	<circle cx="999.9999999819" cy="-0.0000000105" r="2" />
	<circle cx="0.0000000000" cy="-0.0000000000" r="2" />
	<circle cx="1000.0000000000" cy="-0.0000000000" r="2" />
	<circle cx="324.6564330849" cy="-244.7336474549" r="2" />
	<circle cx="500.0000000000" cy="-866.0254038000" r="2" />
	<circle cx="500.0000000000" cy="-866.0254038000" r="2" />
	<circle cx="1000.0000000000" cy="-0.0000000000" r="2" />
	<circle cx="516.8214215506" cy="-833.9309493401" r="2" />
	<circle cx="550.4510050937" cy="-587.2346814878" r="2" />
	<circle cx="500.0000000000" cy="-866.0254038000" r="2" />
	<circle cx="956.5550699699" cy="-57.8296031707" r="2" />
	<circle cx="995.5773820797" cy="-2.5183415775" r="2" />
	<circle cx="1000.0000000000" cy="-0.0000000000" r="2" />
	<circle cx="1000.0000000000" cy="-0.0000000000" r="2" />
	<circle cx="1000.0000000000" cy="-0.0000000000" r="2" />
	<circle cx="500.0000000000" cy="-866.0254038000" r="2" />
	<circle cx="500.0000000785" cy="-866.0244573338" r="2" />
	<circle cx="0.0000000000" cy="-0.0000000000" r="2" />
	<circle cx="0.0000000231" cy="-0.0000000134" r="2" />
	<circle cx="1000.0000000000" cy="-0.0000000000" r="2" />
	<circle cx="1000.0000000000" cy="-0.0000000000" r="2" />
	<circle cx="0.0000000000" cy="-0.0000000000" r="2" />
	<circle cx="1000.0000000000" cy="-0.0000000000" r="2" />
	<circle cx="499.9999999938" cy="-866.0254037588" r="2" />
	<circle cx="0.0000000000" cy="-0.0000000000" r="2" />
	<circle cx="0.0003975350" cy="-0.0001669353" r="2" />
	<circle cx="1000.0000000000" cy="-0.0000000000" r="2" />
	<circle cx="500.0000000000" cy="-866.0254038000" r="2" />
	<circle cx="500.0000000000" cy="-866.0254038000" r="2" />
	<circle cx="514.9039073553" cy="-0.0002614988" r="2" />
	<circle cx="499.9999955000" cy="-866.0253881886" r="2" />
	<circle cx="500.0000000000" cy="-866.0254038000" r="2" />
	<circle cx="500.0000004905" cy="-866.0253933078" r="2" />
	<circle cx="500.0000000000" cy="-866.0254038000" r="2" />
	<circle cx="500.0000000000" cy="-866.0254037982" r="2" />
	<circle cx="226.9865029310" cy="-123.5843132907" r="2" />
	<circle cx="489.0488109916" cy="-615.9871001341" r="2" />
	<circle cx="0.0000000000" cy="-0.0000000000" r="2" />
	<circle cx="500.0000000000" cy="-866.0254038000" r="2" />
	<circle cx="0.0000000000" cy="-0.0000000000" r="2" />
	<circle cx="0.0000000000" cy="-0.0000000000" r="2" />
	<circle cx="846.5936372719" cy="-64.9505342881" r="2" />
	<circle cx="0.0000000000" cy="-0.0000000000" r="2" />
	<circle cx="1000.0000000000" cy="-0.0000000000" r="2" />
	<circle cx="0.0000000000" cy="-0.0000000000" r="2" />
	<circle cx="0.0000000000" cy="-0.0000000000" r="2" />
	<circle cx="1000.0000000000" cy="-0.0000000000" r="2" />
	<circle cx="1000.0000000000" cy="-0.0000000000" r="2" />
	<circle cx="1000.0000000000" cy="-0.0000000000" r="2" />
	<circle cx="499.9733497859" cy="-729.1077418196" r="2" />
	<circle cx="1000.0000000000" cy="-0.0000000000" r="2" />
	<circle cx="6.5532269807" cy="-2.7632046316" r="2" />
	<circle cx="0.0000000000" cy="-0.0000000000" r="2" />
	<circle cx="999.9999372614" cy="-0.0000368038" r="2" />
	<circle cx="679.7781815737" cy="-204.9643401635" r="2" />
	<circle cx="1000.0000000000" cy="-0.0000000000" r="2" />
	<circle cx="1000.0000000000" cy="-0.0000000000" r="2" />
	<circle cx="1000.0000000000" cy="-0.0000000000" r="2" />
	<circle cx="500.0000000000" cy="-866.0254038000" r="2" />
	<circle cx="500.0000000000" cy="-866.0254038000" r="2" />
	<circle cx="1000.0000000000" cy="-0.0000000000" r="2" />
	<circle cx="498.8366423427" cy="-488.6617092922" r="2" />
	<circle cx="500.0000000000" cy="-866.0254038000" r="2" />
	<circle cx="448.8278758628" cy="-297.5751557793" r="2" />
	<circle cx="500.0000000000" cy="-866.0254038000" r="2" />
	<circle cx="999.9338324127" cy="-0.1133088748" r="2" />
	<circle cx="500.1583361061" cy="-541.4196681155" r="2" />
	<circle cx="0.0000000000" cy="-0.0000000000" r="2" />
	<circle cx="999.9999999997" cy="-0.0000000002" r="2" />
	<circle cx="0.0000000000" cy="-0.0000000000" r="2" />
	<circle cx="499.9999798797" cy="-866.0253460790" r="2" />
	<circle cx="0.0000000000" cy="-0.0000000000" r="2" />
	<circle cx="500.0000000000" cy="-866.0254037998" r="2" />
	<circle cx="500.0000000000" cy="-866.0254038000" r="2" />
	<circle cx="0.0000000000" cy="-0.0000000000" r="2" />
	<circle cx="500.0000000000" cy="-866.0254038000" r="2" />
	<circle cx="0.0000000000" cy="-0.0000000000" r="2" />
	<circle cx="868.7277185128" cy="-75.6925813949" r="2" />
	<circle cx="0.0000000000" cy="-0.0000000000" r="2" />
	<circle cx="500.0000000000" cy="-866.0254038000" r="2" />
	<circle cx="1000.0000000000" cy="-0.0000000000" r="2" />
	<circle cx="999.9995615950" cy="-0.0002532160" r="2" />
	<circle cx="500.0000000000" cy="-866.0254037646" r="2" />
	<circle cx="581.0306475148" cy="-725.6762052960" r="2" />
	<circle cx="500.0000000007" cy="-866.0253999529" r="2" />
	<circle cx="999.9998951119" cy="-0.0000673174" r="2" />
	<circle cx="1000.0000000000" cy="-0.0000000000" r="2" />
	<circle cx="277.5518357357" cy="-160.2872457907" r="2" />
	<circle cx="668.2139091125" cy="-132.0742764922" r="2" />
	<circle cx="0.0000000000" cy="-0.0000000000" r="2" />
	<circle cx="500.0000000000" cy="-866.0254038000" r="2" />
	<circle cx="500.0000000000" cy="-866.0254038000" r="2" />
	<circle cx="500.0000000000" cy="-866.0254038000" r="2" />
	<circle cx="0.0000000000" cy="-0.0000000000" r="2" />
	<circle cx="1000.0000000000" cy="-0.0000000000" r="2" />
	<circle cx="500.0000000000" cy="-866.0254038000" r="2" />
	<circle cx="500.0000000000" cy="-866.0254038000" r="2" />
	<circle cx="1000.0000000000" cy="-0.0000000000" r="2" />
	<circle cx="21.9988118761" cy="-12.7040249899" r="2" />
	<circle cx="0.0000000000" cy="-0.0000000000" r="2" />
	<circle cx="0.0000000000" cy="-0.0000000000" r="2" />
	<circle cx="0.0000000000" cy="-0.0000000000" r="2" />
	<circle cx="0.0000000023" cy="-0.0000000013" r="2" />
	<circle cx="0.0000000000" cy="-0.0000000000" r="2" />
	<circle cx="499.9999999912" cy="-866.0254032321" r="2" />
	<circle cx="1000.0000000000" cy="-0.0000000000" r="2" />
	<circle cx="1000.0000000000" cy="-0.0000000000" r="2" />
	<circle cx="0.0000000000" cy="-0.0000000000" r="2" />
	<circle cx="0.0000000000" cy="-0.0000000000" r="2" />
	<circle cx="500.0000000000" cy="-866.0254038000" r="2" />
	<circle cx="500.0000000000" cy="-866.0254038000" r="2" />
	<circle cx="939.0337253108" cy="-35.1499002600" r="2" />
	<circle cx="1000.0000000000" cy="-0.0000000000" r="2" />
	<circle cx="500.0000000000" cy="-866.0254038000" r="2" />
	<circle cx="500.0000000000" cy="-866.0254038000" r="2" />
	<circle cx="0.0000000000" cy="-0.0000000000" r="2" />
	<circle cx="500.0000000000" cy="-866.0254038000" r="2" />
	<circle cx="1000.0000000000" cy="-0.0000000000" r="2" />
	<circle cx="363.1712570060" cy="-209.4200997205" r="2" />
	<circle cx="499.9999999995" cy="-866.0254037862" r="2" />
	<circle cx="999.9996688842" cy="-0.0001911254" r="2" />
	<circle cx="500.0000000000" cy="-866.0254038000" r="2" />
	<circle cx="500.0000000000" cy="-866.0254038000" r="2" />
	<circle cx="0.0000000000" cy="-0.0000000000" r="2" />
	<circle cx="500.0000813303" cy="-864.7607940241" r="2" />
	<circle cx="500.0000000000" cy="-866.0254038000" r="2" />
	<circle cx="0.0000000000" cy="-0.0000000000" r="2" />
	<circle cx="1000.0000000000" cy="-0.0000000000" r="2" />
	<circle cx="1000.0000000000" cy="-0.0000000000" r="2" />
	<circle cx="0.0000000004" cy="-0.0000000002" r="2" />
	<circle cx="337.6146332031" cy="-174.8377390896" r="2" />
	<circle cx="500.0000000000" cy="-866.0254038000" r="2" />
	<circle cx="665.8400171251" cy="-199.7298743099" r="2" />
	<circle cx="500.0000000000" cy="-866.0254038000" r="2" />
	<circle cx="500.0000000000" cy="-866.0254038000" r="2" />
	<circle cx="499.9999999988" cy="-866.0254037638" r="2" />
	<circle cx="472.0058159364" cy="-272.3081558804" r="2" />
	<circle cx="500.0000000000" cy="-866.0254038000" r="2" />
	<circle cx="500.0000000000" cy="-866.0254037999" r="2" />
	<circle cx="500.9589455996" cy="-602.7481760282" r="2" />
	<circle cx="1000.0000000000" cy="-0.0000000000" r="2" />
	<circle cx="1000.0000000000" cy="-0.0000000000" r="2" />
	<circle cx="500.0000000000" cy="-866.0254038000" r="2" />
	<circle cx="1000.0000000000" cy="-0.0000000000" r="2" />
	<circle cx="0.0000000137" cy="-0.0000000148" r="2" />
	<circle cx="626.4172764608" cy="-215.5891700763" r="2" />
	<circle cx="0.0000000000" cy="-0.0000000000" r="2" />
	<circle cx="505.4854356667" cy="-727.4270473792" r="2" />
	<circle cx="500.0000000000" cy="-866.0254038000" r="2" />
	<circle cx="500.0000000000" cy="-866.0254038000" r="2" />
	<circle cx="293.2936803307" cy="-160.6223796915" r="2" />
	<circle cx="499.0410574604" cy="-602.7490161403" r="2" />
	<circle cx="1000.0000000000" cy="-0.0000000000" r="2" />
	<circle cx="500.0000000160" cy="-866.0254036030" r="2" />
	<circle cx="1000.0000000000" cy="-0.0000000000" r="2" />
	<circle cx="1000.0000000000" cy="-0.0000000000" r="2" />
	<circle cx="500.0000000000" cy="-866.0254038000" r="2" />
	<circle cx="934.5585148676" cy="-44.7447915661" r="2" />
	<circle cx="198.6534634070" cy="-77.0203882389" r="2" />
	<circle cx="0.0000000000" cy="-0.0000000000" r="2" />
	<circle cx="199.1947202759" cy="-345.0153759704" r="2" />
	<circle cx="0.0000000000" cy="-0.0000000000" r="2" />
	<circle cx="611.4726683988" cy="-245.4268655601" r="2" />
	<circle cx="0.0000000000" cy="-0.0000000000" r="2" />
	<circle cx="0.0000000000" cy="-0.0000000000" r="2" />
	<circle cx="500.0000000000" cy="-866.0254038000" r="2" />
	<circle cx="0.0198261207" cy="-0.0172132674" r="2" />
	<circle cx="1000.0000000000" cy="-0.0000000000" r="2" />
	<circle cx="500.0000000000" cy="-866.0254038000" r="2" />
	<circle cx="0.0000000000" cy="-0.0000000000" r="2" />
	<circle cx="0.0000000000" cy="-0.0000000000" r="2" />
	<circle cx="497.6696040761" cy="-609.8585741865" r="2" />
	<circle cx="0.0000000000" cy="-0.0000000000" r="2" />
	<circle cx="0.0000000000" cy="-0.0000000000" r="2" />
	<circle cx="1000.0000000000" cy="-0.0000000000" r="2" />
	<circle cx="1000.0000000000" cy="-0.0000000000" r="2" />
	<circle cx="0.0000000000" cy="-0.0000000000" r="2" />
	<circle cx="1000.0000000000" cy="-0.0000000000" r="2" />
	<circle cx="1000.0000000000" cy="-0.0000000000" r="2" />
	<circle cx="528.8567854342" cy="-348.2347970748" r="2" />
	<circle cx="0.0000000000" cy="-0.0000000000" r="2" />
	<circle cx="0.0000000000" cy="-0.0000000000" r="2" />
	<circle cx="999.9999999996" cy="-0.0000000003" r="2" />
	<circle cx="1000.0000000000" cy="-0.0000000000" r="2" />
	<circle cx="0.0000010785" cy="-0.0000006225" r="2" />
	<circle cx="0.0000000000" cy="-0.0000000000" r="2" />
	<circle cx="1000.0000000000" cy="-0.0000000000" r="2" />
	<circle cx="1000.0000000000" cy="-0.0000000000" r="2" />
	<circle cx="0.0000001825" cy="-0.0000001054" r="2" />
	<circle cx="999.9919933151" cy="-0.0138679831" r="2" />
	<circle cx="500.0000000000" cy="-866.0254038000" r="2" />
	<circle cx="500.5813433240" cy="-667.2150062645" r="2" />
	<circle cx="1000.0000000000" cy="-0.0000000000" r="2" />
	<circle cx="0.0000000000" cy="-0.0000000000" r="2" />
	<circle cx="0.0000070702" cy="-0.0000058136" r="2" />
	<circle cx="54.0200845122" cy="-31.1919920136" r="2" />
	<circle cx="500.0000000000" cy="-866.0254038000" r="2" />
	<circle cx="0.0000085212" cy="-0.0000049213" r="2" />
	<circle cx="1000.0000000000" cy="-0.0000000000" r="2" />
	<circle cx="500.0890850628" cy="-860.5769863401" r="2" />
	<circle cx="500.0000000021" cy="-866.0253952309" r="2" />
	<circle cx="500.0000000135" cy="-866.0253113104" r="2" />
	<circle cx="1000.0000000000" cy="-0.0000000000" r="2" />
	<circle cx="1000.0000000000" cy="-0.0000000000" r="2" />
	<circle cx="0.0000000000" cy="-0.0000000000" r="2" />
	<circle cx="1000.0000000000" cy="-0.0000000000" r="2" />
	<circle cx="0.0000000000" cy="-0.0000000000" r="2" />
	<circle cx="500.0000000000" cy="-866.0254038000" r="2" />
	<circle cx="999.9999999997" cy="-0.0000000002" r="2" />
	<circle cx="500.0015144660" cy="-865.8306802720" r="2" />
	<circle cx="0.0000125332" cy="-0.0000155405" r="2" />
	<circle cx="1000.0000000000" cy="-0.0000000000" r="2" />
	<circle cx="0.0000045149" cy="-0.0000030650" r="2" />
	<circle cx="1000.0000000000" cy="-0.0000000000" r="2" />
	<circle cx="0.0000000000" cy="-0.0000000000" r="2" />
	<circle cx="1000.0000000000" cy="-0.0000000000" r="2" />
	<circle cx="503.4109412012" cy="-286.1857653695" r="2" />
	<circle cx="557.2597015692" cy="-255.6301148600" r="2" />
	<circle cx="962.3069926637" cy="-32.3322383061" r="2" />
	<circle cx="1000.0000000000" cy="-0.0000000000" r="2" />
	<circle cx="999.9999999998" cy="-0.0000000001" r="2" />
	<circle cx="0.0000000000" cy="-0.0000000000" r="2" />
	<circle cx="490.3878864993" cy="-849.3767347277" r="2" />
	<circle cx="500.0000000000" cy="-866.0254038000" r="2" />
	<circle cx="500.0000000000" cy="-866.0254038000" r="2" />
	<circle cx="0.0000000000" cy="-0.0000000000" r="2" />
	<circle cx="500.0000000000" cy="-866.0254038000" r="2" />
	<circle cx="1000.0000000000" cy="-0.0000000000" r="2" />
	<circle cx="999.9999999998" cy="-0.0000000001" r="2" />
	<circle cx="500.0000000000" cy="-866.0254038000" r="2" />
	<circle cx="0.0000000000" cy="-0.0000000000" r="2" />
	<circle cx="0.0003382164" cy="-0.0001802073" r="2" />
	<circle cx="500.0000001862" cy="-866.0251457301" r="2" />
	<circle cx="0.0000000000" cy="-0.0000000000" r="2" />
	<circle cx="0.0000000000" cy="-0.0000000000" r="2" />
	<circle cx="499.9973705084" cy="-857.4198345109" r="2" />
	<circle cx="0.0000000000" cy="-0.0000000000" r="2" />
	<circle cx="1000.0000000000" cy="-0.0000000000" r="2" />
	<circle cx="0.0000000000" cy="-0.0000000000" r="2" />
	<circle cx="1000.0000000000" cy="-0.0000000000" r="2" />
	<circle cx="999.9999999999" cy="-0.0000000001" r="2" />
	<circle cx="0.0000000000" cy="-0.0000000000" r="2" />
	<circle cx="911.2165073274" cy="-51.2772458558" r="2" />
	<circle cx="0.0000000000" cy="-0.0000000000" r="2" />
	<circle cx="500.0000000000" cy="-866.0254038000" r="2" />
	<circle cx="0.0000000000" cy="-0.0000000000" r="2" />
	<circle cx="500.0000000000" cy="-866.0254038000" r="2" />
	<circle cx="0.0000023061" cy="-0.0000013309" r="2" />
	<circle cx="0.0000000000" cy="-0.0000000000" r="2" />
	<circle cx="0.0000000000" cy="-0.0000000000" r="2" />
	<circle cx="500.0000000000" cy="-866.0254038000" r="2" />
	<circle cx="1000.0000000000" cy="-0.0000000000" r="2" />
	<circle cx="0.0000000000" cy="-0.0000000000" r="2" />
	<circle cx="1000.0000000000" cy="-0.0000000000" r="2" />
	<circle cx="500.0000000000" cy="-866.0254038000" r="2" />
	<circle cx="1000.0000000000" cy="-0.0000000000" r="2" />
	<circle cx="0.0000000000" cy="-0.0000000000" r="2" />
	<circle cx="500.0000000000" cy="-866.0254037998" r="2" />
	<circle cx="1000.0000000000" cy="-0.0000000000" r="2" />
	<circle cx="806.6261100553" cy="-111.7454008330" r="2" />
	<circle cx="1000.0000000000" cy="-0.0000000000" r="2" />
	<circle cx="1000.0000000000" cy="-0.0000000000" r="2" />
	<circle cx="1000.0000000000" cy="-0.0000000000" r="2" />
	<circle cx="500.0000000000" cy="-866.0254038000" r="2" />
	<circle cx="500.0000000000" cy="-866.0254038000" r="2" />
	<circle cx="500.0000000000" cy="-866.0254038000" r="2" />
	<circle cx="999.5563558573" cy="-0.2562149805" r="2" />
	<circle cx="1000.0000000000" cy="-0.0000000000" r="2" />
	<circle cx="500.0000000000" cy="-866.0254038000" r="2" />
	<circle cx="1000.0000000000" cy="-0.0000000000" r="2" />
	<circle cx="0.0000000000" cy="-0.0000000000" r="2" />
	<circle cx="1000.0000000000" cy="-0.0000000000" r="2" />
	<circle cx="1000.0000000000" cy="-0.0000000000" r="2" />
	<circle cx="500.0000000000" cy="-866.0254038000" r="2" />
	<circle cx="500.3779451768" cy="-772.9311997093" r="2" />
	<circle cx="1000.0000000000" cy="-0.0000000000" r="2" />
	<circle cx="1000.0000000000" cy="-0.0000000000" r="2" />
	<circle cx="500.0000000000" cy="-866.0254038000" r="2" />
	<circle cx="98.2065411861" cy="-56.7317517252" r="2" />
	<circle cx="1000.0000000000" cy="-0.0000000000" r="2" />
	<circle cx="0.0000000000" cy="-0.0000000000" r="2" />
	<circle cx="500.0000000000" cy="-866.0254038000" r="2" />
	<circle cx="1000.0000000000" cy="-0.0000000000" r="2" />
	<circle cx="500.0000000000" cy="-866.0254038000" r="2" />
	<circle cx="877.5344438951" cy="-54.0579754347" r="2" />
	<circle cx="323.8127817534" cy="-201.3563883922" r="2" />
	<circle cx="1000.0000000000" cy="-0.0000000000" r="2" />
	<circle cx="0.0000001785" cy="-0.0000000847" r="2" />
	<circle cx="1000.0000000000" cy="-0.0000000000" r="2" />
	<circle cx="0.0000000000" cy="-0.0000000000" r="2" />
	<circle cx="500.0000000000" cy="-866.0254038000" r="2" />
	<circle cx="999.9882021674" cy="-0.0105136232" r="2" />
	<circle cx="926.8389055781" cy="-29.3607930710" r="2" />
	<circle cx="500.0000000000" cy="-866.0254038000" r="2" />
	<circle cx="500.0000000000" cy="-866.0254038000" r="2" />
	<circle cx="999.9998079796" cy="-0.0001219849" r="2" />
	<circle cx="1000.0000000000" cy="-0.0000000000" r="2" />
	<circle cx="154.0555168150" cy="-17.6221231139" r="2" />
	<circle cx="0.0000000000" cy="-0.0000000000" r="2" />
	<circle cx="1000.0000000000" cy="-0.0000000000" r="2" />
	<circle cx="110.9296286136" cy="-21.4631391820" r="2" />
	<circle cx="498.5139531667" cy="-355.3604084853" r="2" />
	<circle cx="0.0000677125" cy="-0.0000390720" r="2" />
	<circle cx="0.0000000000" cy="-0.0000000000" r="2" />
	<circle cx="502.5634389563" cy="-842.3731521534" r="2" />
	<circle cx="0.0000000000" cy="-0.0000000000" r="2" />
	<circle cx="500.0000000000" cy="-866.0254037999" r="2" />
	<circle cx="118.2995681071" cy="-83.1575490191" r="2" />
	<circle cx="1000.0000000000" cy="-0.0000000000" r="2" />
	<circle cx="15.3890777861" cy="-8.8672537142" r="2" />
	<circle cx="500.0000013555" cy="-866.0185920065" r="2" />
	<circle cx="1000.0000000000" cy="-0.0000000000" r="2" />
	<circle cx="0.0000000000" cy="-0.0000000000" r="2" />
	<circle cx="996.4079888987" cy="-0.0000000175" r="2" />
	<circle cx="500.0000000000" cy="-866.0254038000" r="2" />
	<circle cx="500.0000000000" cy="-866.0254038000" r="2" />
	<circle cx="500.0000000000" cy="-866.0254038000" r="2" />
	<circle cx="500.0000000000" cy="-866.0254037999" r="2" />
	<circle cx="0.0000000000" cy="-0.0000000000" r="2" />
	<circle cx="500.0000000000" cy="-866.0254038000" r="2" />
	<circle cx="1000.0000000000" cy="-0.0000000000" r="2" />
	<circle cx="992.8726820677" cy="-4.2899261044" r="2" />
	<circle cx="0.0000000000" cy="-0.0000000000" r="2" />
	<circle cx="204.3561935800" cy="-117.9255448361" r="2" />
	<circle cx="0.0000000000" cy="-0.0000000000" r="2" />
	<circle cx="542.3015443598" cy="-267.5439948260" r="2" />
	<circle cx="1000.0000000000" cy="-0.0000000000" r="2" />
	<circle cx="139.3630706660" cy="-93.2037308964" r="2" />
	<circle cx="1000.0000000000" cy="-0.0000000000" r="2" />
	<circle cx="1000.0000000000" cy="-0.0000000000" r="2" />
	<circle cx="500.0000000000" cy="-866.0254038000" r="2" />
	<circle cx="0.0000000000" cy="-0.0000000000" r="2" />
	<circle cx="999.9999999993" cy="-0.0000000004" r="2" />
	<circle cx="500.6754433789" cy="-825.5968006675" r="2" />
	<circle cx="508.2651337950" cy="-468.6502707873" r="2" />
	<circle cx="0.0000000000" cy="-0.0000000000" r="2" />
	<circle cx="500.0000000000" cy="-866.0254037985" r="2" />
	<circle cx="5.4108284977" cy="-3.3067100796" r="2" />
	<circle cx="0.0000000000" cy="-0.0000000000" r="2" />
	<circle cx="25.1620546073" cy="-14.6694117639" r="2" />
	<circle cx="1000.0000000000" cy="-0.0000000000" r="2" />
	<circle cx="739.5456511283" cy="-200.6290879161" r="2" />
	<circle cx="168.2499647821" cy="-97.0588332103" r="2" />
	<circle cx="500.0000397960" cy="-866.0246410348" r="2" />
	<circle cx="500.0000000000" cy="-866.0254038000" r="2" />
	<circle cx="999.9999999990" cy="-0.0000000006" r="2" />
	<circle cx="500.0000000000" cy="-866.0254038000" r="2" />
	<circle cx="499.9999982013" cy="-866.0253912302" r="2" />
  </g>
  <g id="fig2" transform="translate(-550.0,1000)">
	<polygon points="0.0,-0.0 1000.0,-0.0 500.0,-866.0254038" />
	<line
	   id="line2-1"
	   y2="-0.0"
	   x2="500"
	   y1="-288.6751346"
	   x1="500" />
	<line
	   id="line2-2"
	   y2="-433.0127019"
	   x2="250"
	   y1="-288.6751346"
	   x1="500" />
	<line
	   id="line2-3"
	   y2="-433.0127019"
	   x2="750"
	   y1="-288.6751346"
	   x1="500" />
	<text
	   x="440"
	   y="-500"
	   id="up_2">35.4%</text>
	<text
	   x="250"
	   y="-150"
	   id="down_left_2">31.6%</text>
	<text
	   x="630"
	   y="-150"
	   id="down_right_2">33.0%</text>
  </g>
  <g id="fig3" transform="translate(550,1000)">
	<polygon points="0.0,-0.0 1000.0,-0.0 500.0,-866.0254038" />
	<polygon id="triangle3b" points="250,-144.3375673 750,-144.3375673 500,-577.3502692" />
	<line
	   id="line3-1"
	   x1="125"
	   y1="-216.5063509"
	   x2="250"
	   y2="-144.3375673" />
	<line
	   id="line3-2"
	   x1="375"
	   y1="-649.5190528"
	   x2="500"
	   y2="-577.3502692" />
	<line
	   id="line3-3"
	   x1="625"
	   y1="-649.5190528"
	   x2="500"
	   y2="-577.3502692" />
	<line
	   id="line3-4"
	   x1="875"
	   y1="-216.5063509"
	   x2="750"
	   y2="-144.3375673" />
	<line
	   id="line3-5"
	   x1="750"
	   y1="-0.0"
	   x2="750"
	   y2="-144.3375673" />
	<line
	   id="line3-6"
	   x1="250"
	   y1="-0.0"
	   x2="250"
	   y2="-144.3375673" />
	<text
	   x="500"
	   y="-660"
	   text-anchor="middle"
	   id="up_3">33.0%</text>
	<text
	   y="-50"
	   x="70"
	   id="down_left_3">27.6%</text>
	<text
	   y="-50"
	   x="770"
	   id="down_right_3">30.8%</text>
	<text
	   x="500"
	   y="-50"
	   text-anchor="middle"
	   id="down_side_3">0.4%</text>
	<text
	   x="500"
	   y="-280"
	   text-anchor="middle"
	   id="center_3">7.2%</text>
	<text
	   x="685.0"
	   y="-390.8439"
	   text-anchor="middle"
	   transform="rotate(60,665.0,-380.8439)"
	   id="right_side_3">0.8%</text>
	<text
	   x="315.0"
	   y="-390.8439"
	   text-anchor="middle"
	   transform="rotate(-60,335.0,-380.8439)"
	   id="left_side_3">0.2%</text>
  </g>
</g></g>
</svg>
