<?xml version="1.0" encoding="UTF-8" standalone="no"?>
<!DOCTYPE svg PUBLIC "-//W3C//DTD SVG 1.1//EN" "http://www.w3.org/Graphics/SVG/1.1/DTD/svg11.dtd">
<svg
   xmlns:svg="http://www.w3.org/2000/svg"
   xmlns="http://www.w3.org/2000/svg"
   xmlns:xlink="http://www.w3.org/1999/xlink"
   version="1.1"
   baseProfile="full"
   id="body"
   width="800px"
   height="800px"
   viewBox="0 0 1000 1000"
   preserveAspectRatio="none">
  <defs>
    <style type="text/css"><![CDATA[
      circle{ stroke: none; }
      polygon{ stroke: black; stroke-width: 2px; fill: none; }
      line{ stroke: black; stroke-width: 2px; }
      text{ font-size:50px; }
    ]]></style>
  </defs>
  <title
     id="title1">SVG drawing</title>
<g transform="scale(0.45)"><g transform="translate(600,1050)">
  <g id="fig1">
	<polygon points="0.0,-0.0 1000.0,-0.0 500,-866.0254038" />
	<circle cx="500.0000000009" cy="-866.0254037778" r="2" />
	<circle cx="548.6293876655" cy="-276.5247658564" r="2" />
	<circle cx="499.9492032211" cy="-729.7143828106" r="2" />
	<circle cx="500.0000000000" cy="-866.0254038000" r="2" />
	<circle cx="489.0989356399" cy="-615.4742935723" r="2" />
	<circle cx="503.4769986394" cy="-343.5408626735" r="2" />
	<circle cx="999.9999999896" cy="-0.0000000099" r="2" />
	<circle cx="1000.0000000000" cy="-0.0000000000" r="2" />
	<circle cx="997.0563679442" cy="-1.6940430336" r="2" />
	<circle cx="1000.0000000000" cy="-0.0000000000" r="2" />
	<circle cx="30.2569389397" cy="-16.8198594619" r="2" />
	<circle cx="0.3606144270" cy="-0.2058357838" r="2" />
	<circle cx="500.0283664550" cy="-793.8260838177" r="2" />
	<circle cx="605.9443825037" cy="-219.2766125340" r="2" />
	<circle cx="500.0000000000" cy="-866.0254038000" r="2" />
	<circle cx="0.0000000000" cy="-0.0000000000" r="2" />
	<circle cx="897.7232185147" cy="-59.2017476290" r="2" />
	<circle cx="608.7708942171" cy="-235.9833555207" r="2" />
	<circle cx="0.0364172424" cy="-0.0210147878" r="2" />
	<circle cx="665.6978316814" cy="-193.7645995929" r="2" />
	<circle cx="209.2999590809" cy="-120.8497023350" r="2" />
	<circle cx="460.7302120424" cy="-265.6944369063" r="2" />
	<circle cx="488.8140833097" cy="-363.0406008800" r="2" />
	<circle cx="499.9993943435" cy="-866.0165070762" r="2" />
	<circle cx="1000.0000000000" cy="-0.0000000000" r="2" />
	<circle cx="979.9428642465" cy="-11.5568295220" r="2" />
	<circle cx="560.7909416129" cy="-253.8438903870" r="2" />
	<circle cx="183.6380539263" cy="-105.7812840414" r="2" />
	<circle cx="500.0149940839" cy="-674.5602724240" r="2" />
	<circle cx="996.1258384105" cy="-2.2361981695" r="2" />
	<circle cx="499.9793743555" cy="-710.8628333256" r="2" />
	<circle cx="0.2229811813" cy="-0.1365222046" r="2" />
	<circle cx="999.8368775650" cy="-0.1412320397" r="2" />
	<circle cx="998.5107348054" cy="-0.5797075415" r="2" />
	<circle cx="499.9998144082" cy="-862.4099355914" r="2" />
	<circle cx="499.3329279613" cy="-313.9670807532" r="2" />
	<circle cx="999.6627950743" cy="-0.1946016342" r="2" />
	<circle cx="189.9389360112" cy="-109.7520712730" r="2" />
	<circle cx="933.2483748289" cy="-57.7817289796" r="2" />
	<circle cx="1000.0000000000" cy="-0.0000000000" r="2" />
	<circle cx="1.7748368120" cy="-1.0246389039" r="2" />
	<circle cx="189.9818049532" cy="-109.8334802224" r="2" />
	<circle cx="999.8768911708" cy="-0.0711599191" r="2" />
	<circle cx="495.1873744904" cy="-526.9312073177" r="2" />
	<circle cx="500.0777222787" cy="-865.2401316858" r="2" />
	<circle cx="499.7413124247" cy="-349.7783107550" r="2" />
	<circle cx="490.3121462979" cy="-292.7660054581" r="2" />
	<circle cx="499.9817143023" cy="-587.7074631264" r="2" />
	<circle cx="501.3475600614" cy="-861.2653020093" r="2" />
	<circle cx="500.0000004009" cy="-866.0248700184" r="2" />
	<circle cx="3.3713751392" cy="-1.9463446053" r="2" />
	<circle cx="499.9679205278" cy="-814.9666780442" r="2" />
	<circle cx="1000.0000000000" cy="-0.0000000000" r="2" />
	<circle cx="500.0012689595" cy="-865.8357967756" r="2" />
	<circle cx="500.0000003245" cy="-866.0250973489" r="2" />
	<circle cx="0.0000132825" cy="-0.0000071989" r="2" />
	<circle cx="9.2325146075" cy="-5.4012014270" r="2" />
	<circle cx="500.2937245511" cy="-669.2343888960" r="2" />
	<circle cx="514.3853069572" cy="-403.4971365050" r="2" />
	<circle cx="500.0324689968" cy="-793.7061146976" r="2" />
	<circle cx="555.2335736955" cy="-452.8065333024" r="2" />
	<circle cx="998.5713288638" cy="-0.8292625770" r="2" />
	<circle cx="998.0029085477" cy="-1.1527998029" r="2" />
	<circle cx="498.5381760511" cy="-481.5488419626" r="2" />
	<circle cx="999.9999999999" cy="-0.0000000000" r="2" />
	<circle cx="499.9993942847" cy="-865.9956170524" r="2" />
	<circle cx="681.7031845130" cy="-183.9561595613" r="2" />
	<circle cx="1000.0000000000" cy="-0.0000000000" r="2" />
	<circle cx="500.9598526863" cy="-337.1938819806" r="2" />
	<circle cx="499.9998705908" cy="-866.0244294484" r="2" />
	<circle cx="549.6649903029" cy="-276.1220498517" r="2" />
	<circle cx="422.1757922426" cy="-245.3692101714" r="2" />
	<circle cx="0.0000000000" cy="-0.0000000000" r="2" />
	<circle cx="898.0705935010" cy="-58.8455104452" r="2" />
	<circle cx="556.1805051950" cy="-270.9171389645" r="2" />
	<circle cx="501.7822267481" cy="-450.4816829744" r="2" />
	<circle cx="364.3453228141" cy="-281.3860766316" r="2" />
	<circle cx="999.9999999395" cy="-0.0000000349" r="2" />
	<circle cx="992.9349916553" cy="-4.0780981721" r="2" />
	<circle cx="500.0336171990" cy="-698.2589786834" r="2" />
	<circle cx="151.5713523299" cy="-87.5323504869" r="2" />
	<circle cx="445.0845917617" cy="-305.7695837298" r="2" />
	<circle cx="19.6484692780" cy="-11.3439974156" r="2" />
	<circle cx="350.5288681426" cy="-202.3257047809" r="2" />
	<circle cx="999.7356197789" cy="-0.1542714596" r="2" />
	<circle cx="950.5658384423" cy="-30.1786090215" r="2" />
	<circle cx="499.9146421101" cy="-797.8131730367" r="2" />
	<circle cx="999.9997739117" cy="-0.0001308634" r="2" />
	<circle cx="507.9032515439" cy="-283.8654415040" r="2" />
	<circle cx="500.0000000003" cy="-866.0254022042" r="2" />
	<circle cx="500.0003973723" cy="-865.8184711257" r="2" />
	<circle cx="500.0000000000" cy="-866.0254038000" r="2" />
	<circle cx="580.3250276887" cy="-243.4164097067" r="2" />
	<circle cx="489.6492949079" cy="-363.8991689171" r="2" />
	<circle cx="999.9989617929" cy="-0.0006272662" r="2" />
	<circle cx="928.9937271233" cy="-61.0542486154" r="2" />
	<circle cx="543.5021030293" cy="-265.0577786545" r="2" />
	<circle cx="0.0000021838" cy="-0.0000012997" r="2" />
	<circle cx="999.9999898183" cy="-0.0000058764" r="2" />
	<circle cx="499.9351393295" cy="-819.5218787907" r="2" />
	<circle cx="500.0000000000" cy="-866.0254038000" r="2" />
	<circle cx="499.9999404467" cy="-866.0234642945" r="2" />
	<circle cx="499.3371333457" cy="-753.7730688480" r="2" />
	<circle cx="84.2427321103" cy="-48.6253932860" r="2" />
	<circle cx="500.0000177601" cy="-866.0103536165" r="2" />
	<circle cx="500.0000000000" cy="-866.0254037999" r="2" />
	<circle cx="500.0000000000" cy="-866.0254038000" r="2" />
	<circle cx="787.1730517988" cy="-123.8681617807" r="2" />
	<circle cx="199.4643625716" cy="-148.8617721267" r="2" />
	<circle cx="1000.0000000000" cy="-0.0000000000" r="2" />
	<circle cx="508.4287672703" cy="-282.8730703563" r="2" />
	<circle cx="0.0743516150" cy="-0.0429247808" r="2" />
	<circle cx="406.0815428770" cy="-205.3820019572" r="2" />
	<circle cx="422.7190313753" cy="-254.0226345982" r="2" />
	<circle cx="287.6346907595" cy="-165.9791549304" r="2" />
	<circle cx="518.9160513612" cy="-297.7698717382" r="2" />
	<circle cx="81.0275766673" cy="-46.7433144865" r="2" />
	<circle cx="953.6314351874" cy="-25.1222545012" r="2" />
	<circle cx="998.0743171585" cy="-1.1130297481" r="2" />
	<circle cx="1000.0000000000" cy="-0.0000000000" r="2" />
	<circle cx="999.5038045803" cy="-0.2850468280" r="2" />
	<circle cx="507.8928163709" cy="-288.0499781309" r="2" />
	<circle cx="999.9999996653" cy="-0.0000003239" r="2" />
	<circle cx="273.8952680570" cy="-177.9303939300" r="2" />
	<circle cx="44.5642068728" cy="-26.9954195339" r="2" />
	<circle cx="999.9999981431" cy="-0.0000010374" r="2" />
	<circle cx="993.8092629901" cy="-3.6005033213" r="2" />
	<circle cx="1000.0000000000" cy="-0.0000000000" r="2" />
	<circle cx="487.4276364287" cy="-281.2637543944" r="2" />
	<circle cx="505.1835305692" cy="-286.9567575594" r="2" />
	<circle cx="999.9999999986" cy="-0.0000000008" r="2" />
	<circle cx="500.1470419756" cy="-842.3180298104" r="2" />
	<circle cx="499.9086385793" cy="-801.4702644368" r="2" />
	<circle cx="498.5764539556" cy="-404.5418669736" r="2" />
	<circle cx="500.0000000105" cy="-866.0253998454" r="2" />
	<circle cx="26.0128375294" cy="-15.0187957060" r="2" />
	<circle cx="494.8838351234" cy="-301.3485463687" r="2" />
	<circle cx="0.5181170705" cy="-0.2994609766" r="2" />
	<circle cx="2.1491121357" cy="-1.2400116632" r="2" />
	<circle cx="500.0433899726" cy="-506.4153706642" r="2" />
	<circle cx="500.0000000000" cy="-866.0254038000" r="2" />
	<circle cx="488.5160504795" cy="-282.1869331301" r="2" />
	<circle cx="0.0000035090" cy="-0.0000020260" r="2" />
	<circle cx="465.6162494422" cy="-268.0016138478" r="2" />
	<circle cx="413.9594463041" cy="-153.1486090331" r="2" />
	<circle cx="5.9258646340" cy="-3.4110770262" r="2" />
	<circle cx="1000.0000000000" cy="-0.0000000000" r="2" />
	<circle cx="496.1071465827" cy="-669.0216053621" r="2" />
	<circle cx="500.0497087154" cy="-809.1381471313" r="2" />
	<circle cx="0.0000000557" cy="-0.0000000309" r="2" />
	<circle cx="975.8149911040" cy="-13.9688407204" r="2" />
	<circle cx="499.9999987873" cy="-866.0253881224" r="2" />
	<circle cx="999.9999992037" cy="-0.0000004596" r="2" />
	<circle cx="993.5366401801" cy="-2.1962740083" r="2" />
	<circle cx="500.0000000000" cy="-866.0254038000" r="2" />
	<circle cx="836.0177432786" cy="-94.7094829260" r="2" />
	<circle cx="210.5018832480" cy="-121.7143064984" r="2" />
	<circle cx="498.0981042146" cy="-289.3408513935" r="2" />
	<circle cx="0.0000000281" cy="-0.0000000163" r="2" />
	<circle cx="408.3913991700" cy="-235.8638429007" r="2" />
	<circle cx="500.0003729164" cy="-864.6080026571" r="2" />
	<circle cx="377.1808674843" cy="-209.9414921785" r="2" />
	<circle cx="500.0000090858" cy="-866.0241029716" r="2" />
	<circle cx="4.3327567749" cy="-2.4885113252" r="2" />
	<circle cx="978.1644534550" cy="-12.6276673457" r="2" />
	<circle cx="499.8257591314" cy="-619.9170738581" r="2" />
	<circle cx="413.5074654559" cy="-237.4047141740" r="2" />
	<circle cx="0.0000001301" cy="-0.0000000751" r="2" />
	<circle cx="124.1031791161" cy="-71.6514058023" r="2" />
	<circle cx="991.1903111620" cy="-5.0822046106" r="2" />
	<circle cx="879.6327265640" cy="-69.4413732295" r="2" />
	<circle cx="975.4994739986" cy="-14.1016467655" r="2" />
	<circle cx="1000.0000000000" cy="-0.0000000000" r="2" />
	<circle cx="725.1755810673" cy="-158.6746097399" r="2" />
	<circle cx="0.0014952721" cy="-0.0010515562" r="2" />
	<circle cx="1000.0000000000" cy="-0.0000000000" r="2" />
	<circle cx="500.0006504380" cy="-809.4458778588" r="2" />
	<circle cx="0.0000000017" cy="-0.0000000010" r="2" />
	<circle cx="498.2302062627" cy="-337.6034745288" r="2" />
	<circle cx="500.0000004893" cy="-866.0218055389" r="2" />
	<circle cx="0.0001680019" cy="-0.0001054638" r="2" />
	<circle cx="1000.0000000000" cy="-0.0000000000" r="2" />
	<circle cx="45.3736743910" cy="-26.1885884567" r="2" />
	<circle cx="500.0000186348" cy="-866.0244118172" r="2" />
	<circle cx="1.6154544379" cy="-0.9327578873" r="2" />
	<circle cx="200.9199794325" cy="-129.8455909364" r="2" />
	<circle cx="499.9999995669" cy="-866.0249240650" r="2" />
	<circle cx="593.1010296151" cy="-400.0062628258" r="2" />
	<circle cx="194.4756539830" cy="-104.7818530178" r="2" />
	<circle cx="696.0652395138" cy="-175.4713890987" r="2" />
	<circle cx="779.9516358479" cy="-141.7288654907" r="2" />
	<circle cx="0.0000000000" cy="-0.0000000000" r="2" />
	<circle cx="541.9838240478" cy="-254.2451299462" r="2" />
	<circle cx="630.6855977568" cy="-209.5037219372" r="2" />
	<circle cx="87.9045268286" cy="-50.7679566253" r="2" />
	<circle cx="451.3557183828" cy="-263.4314782389" r="2" />
	<circle cx="952.6052978202" cy="-27.1914548618" r="2" />
	<circle cx="499.3958706476" cy="-408.7684683684" r="2" />
	<circle cx="311.4432663979" cy="-177.7939043379" r="2" />
	<circle cx="500.0000000000" cy="-866.0254038000" r="2" />
	<circle cx="500.0000000000" cy="-866.0254038000" r="2" />
	<circle cx="0.0000000000" cy="-0.0000000000" r="2" />
	<circle cx="999.9988874415" cy="-0.0009053847" r="2" />
	<circle cx="500.0013076296" cy="-863.4562523846" r="2" />
	<circle cx="44.2818350517" cy="-25.5785946238" r="2" />
	<circle cx="903.6449241487" cy="-55.9641208649" r="2" />
	<circle cx="500.0000000109" cy="-866.0253879072" r="2" />
	<circle cx="0.0000351753" cy="-0.0000155660" r="2" />
	<circle cx="848.6037196176" cy="-90.9200943555" r="2" />
	<circle cx="499.9872381268" cy="-355.2436096475" r="2" />
	<circle cx="499.9754659154" cy="-588.4720395153" r="2" />
	<circle cx="500.0308802094" cy="-865.1450264397" r="2" />
	<circle cx="457.8933773561" cy="-263.9649648350" r="2" />
	<circle cx="499.9236107487" cy="-568.9350096143" r="2" />
	<circle cx="999.9999998424" cy="-0.0000000992" r="2" />
	<circle cx="452.8398192379" cy="-261.3491188213" r="2" />
	<circle cx="8.9633127576" cy="-5.1746981264" r="2" />
	<circle cx="602.8158632563" cy="-234.7366752608" r="2" />
	<circle cx="500.0458902315" cy="-495.5642781105" r="2" />
	<circle cx="0.0249550303" cy="-0.0166711340" r="2" />
	<circle cx="765.0691266527" cy="-135.5704940692" r="2" />
	<circle cx="500.0000080877" cy="-866.0077232494" r="2" />
	<circle cx="543.6783480967" cy="-257.5977836223" r="2" />
	<circle cx="0.0000000947" cy="-0.0000000460" r="2" />
	<circle cx="0.0000000044" cy="-0.0000000030" r="2" />
	<circle cx="0.0000000000" cy="-0.0000000000" r="2" />
	<circle cx="693.7417530709" cy="-529.8001810578" r="2" />
	<circle cx="506.2955650481" cy="-265.3705636648" r="2" />
	<circle cx="0.5228504364" cy="-0.3014371923" r="2" />
	<circle cx="498.1583743832" cy="-645.9179526639" r="2" />
	<circle cx="127.8499065281" cy="-73.7061131815" r="2" />
	<circle cx="499.4315491846" cy="-287.9357963778" r="2" />
	<circle cx="675.6112492270" cy="-186.5062237089" r="2" />
	<circle cx="128.1772550419" cy="-74.0151985900" r="2" />
	<circle cx="499.9999999996" cy="-866.0253729330" r="2" />
	<circle cx="500.0983952772" cy="-865.0399574174" r="2" />
	<circle cx="517.4076617539" cy="-285.0609948208" r="2" />
	<circle cx="499.9999999221" cy="-866.0251596042" r="2" />
	<circle cx="995.9972581016" cy="-2.3017259108" r="2" />
	<circle cx="706.0228199000" cy="-169.7492598549" r="2" />
	<circle cx="1000.0000000000" cy="-0.0000000000" r="2" />
	<circle cx="276.8205681207" cy="-145.3377377782" r="2" />
	<circle cx="49.4244717694" cy="-28.5055232801" r="2" />
	<circle cx="999.9983814522" cy="-0.0009343630" r="2" />
	<circle cx="499.8560434235" cy="-517.3279875843" r="2" />
	<circle cx="0.0620380853" cy="-0.0358218379" r="2" />
	<circle cx="31.3894096257" cy="-11.5559603923" r="2" />
	<circle cx="1000.0000000000" cy="-0.0000000000" r="2" />
	<circle cx="496.3400080186" cy="-386.1947613232" r="2" />
	<circle cx="999.9967230059" cy="-0.0018881127" r="2" />
	<circle cx="994.6020394161" cy="-6.4237010073" r="2" />
	<circle cx="488.6900480735" cy="-794.1769425359" r="2" />
	<circle cx="500.0007143004" cy="-865.7792725772" r="2" />
	<circle cx="0.0000000000" cy="-0.0000000000" r="2" />
	<circle cx="526.7371377687" cy="-256.2954418671" r="2" />
	<circle cx="999.8022275995" cy="-0.1291393225" r="2" />
	<circle cx="865.9413818270" cy="-83.7400798038" r="2" />
	<circle cx="511.3864915841" cy="-830.1817291051" r="2" />
	<circle cx="668.2631388774" cy="-190.2126444888" r="2" />
	<circle cx="0.0005920760" cy="-0.0004535955" r="2" />
	<circle cx="717.3400010042" cy="-163.4259010767" r="2" />
	<circle cx="500.0104537798" cy="-810.6597820417" r="2" />
	<circle cx="684.8525234007" cy="-237.2394939431" r="2" />
	<circle cx="500.0000000000" cy="-866.0254038000" r="2" />
	<circle cx="701.6011448213" cy="-124.4962924778" r="2" />
	<circle cx="483.1584991871" cy="-275.4117957247" r="2" />
	<circle cx="500.1740102841" cy="-657.5830795344" r="2" />
	<circle cx="0.0000000000" cy="-0.0000000000" r="2" />
	<circle cx="953.4284235941" cy="-26.2994928445" r="2" />
	<circle cx="497.2163337958" cy="-315.9208900173" r="2" />
	<circle cx="0.0683306797" cy="-0.0387184646" r="2" />
	<circle cx="498.6737057792" cy="-289.0829257241" r="2" />
	<circle cx="998.9060670111" cy="-0.4415332430" r="2" />
	<circle cx="286.9365794565" cy="-205.8802635897" r="2" />
	<circle cx="995.3456632398" cy="-2.6857245446" r="2" />
	<circle cx="500.2422712613" cy="-587.7035017558" r="2" />
	<circle cx="157.1540055460" cy="-90.5783832331" r="2" />
	<circle cx="495.3019617877" cy="-478.5186518292" r="2" />
	<circle cx="5.5785592420" cy="-2.1809022261" r="2" />
	<circle cx="999.9999999994" cy="-0.0000000004" r="2" />
	<circle cx="498.4039254127" cy="-829.1096986619" r="2" />
	<circle cx="500.0002201643" cy="-865.1800629923" r="2" />
	<circle cx="477.5242689129" cy="-741.2478636964" r="2" />
	<circle cx="993.9736947247" cy="-4.4215241547" r="2" />
	<circle cx="999.9963237908" cy="-0.0021225549" r="2" />
	<circle cx="500.0000057689" cy="-866.0253855119" r="2" />
	<circle cx="500.1161762788" cy="-390.6701400146" r="2" />
	<circle cx="512.6742166257" cy="-426.1141858547" r="2" />
	<circle cx="642.9957972618" cy="-206.2597634909" r="2" />
	<circle cx="500.0000000000" cy="-866.0254038000" r="2" />
	<circle cx="38.5143239980" cy="-15.1898299604" r="2" />
	<circle cx="500.0000049141" cy="-866.0165535240" r="2" />
	<circle cx="0.1551755102" cy="-0.0919277467" r="2" />
	<circle cx="885.6313764864" cy="-70.8098744997" r="2" />
	<circle cx="1000.0000000000" cy="-0.0000000000" r="2" />
	<circle cx="469.4336148611" cy="-271.4819361675" r="2" />
	<circle cx="980.4045018054" cy="-15.9765519664" r="2" />
	<circle cx="383.3867546081" cy="-221.5960743422" r="2" />
	<circle cx="8.7237373078" cy="-5.0478518243" r="2" />
	<circle cx="499.8094279493" cy="-862.0216423138" r="2" />
	<circle cx="41.1299589207" cy="-23.7419027060" r="2" />
	<circle cx="500.0011456406" cy="-352.5524104476" r="2" />
	<circle cx="499.2334524414" cy="-864.4303687986" r="2" />
	<circle cx="498.1653541084" cy="-761.0333824092" r="2" />
	<circle cx="999.9708514544" cy="-0.0168113766" r="2" />
	<circle cx="126.7403571295" cy="-73.1676873188" r="2" />
	<circle cx="490.2298183462" cy="-780.2357086153" r="2" />
	<circle cx="500.0000000000" cy="-866.0254017232" r="2" />
	<circle cx="0.0000000002" cy="-0.0000000000" r="2" />
	<circle cx="500.3453571873" cy="-715.4539804375" r="2" />
	<circle cx="0.0000086456" cy="-0.0000049916" r="2" />
	<circle cx="779.8157110973" cy="-115.4245051168" r="2" />
	<circle cx="671.8042422999" cy="-189.4007786141" r="2" />
	<circle cx="500.0104540922" cy="-865.9699087430" r="2" />
	<circle cx="499.8166283880" cy="-764.8779164911" r="2" />
	<circle cx="499.5419181244" cy="-336.2236418681" r="2" />
	<circle cx="999.9999994021" cy="-0.0000003452" r="2" />
	<circle cx="0.0000074789" cy="-0.0000043645" r="2" />
	<circle cx="500.0000000000" cy="-866.0254038000" r="2" />
	<circle cx="999.9996342193" cy="-0.0002112590" r="2" />
	<circle cx="124.3567559643" cy="-90.3711749733" r="2" />
	<circle cx="682.3710976407" cy="-183.3072625311" r="2" />
	<circle cx="977.9832263310" cy="-12.5524258092" r="2" />
	<circle cx="500.0300657248" cy="-633.1091660764" r="2" />
	<circle cx="999.9931350958" cy="-0.0039620327" r="2" />
	<circle cx="580.7241452743" cy="-264.5792577048" r="2" />
	<circle cx="500.0005258628" cy="-865.8214348635" r="2" />
	<circle cx="1000.0000000000" cy="-0.0000000000" r="2" />
	<circle cx="906.3945193940" cy="-54.0047168787" r="2" />
	<circle cx="999.4972427268" cy="-0.2906635877" r="2" />
	<circle cx="151.8878332055" cy="-87.7207179105" r="2" />
	<circle cx="891.2071515669" cy="-62.8223713552" r="2" />
	<circle cx="636.4812704102" cy="-213.8433400193" r="2" />
	<circle cx="4.6826636530" cy="-2.7021877908" r="2" />
	<circle cx="999.8158377370" cy="-0.2033004302" r="2" />
	<circle cx="0.0000000000" cy="-0.0000000000" r="2" />
	<circle cx="499.9274139972" cy="-804.4521555350" r="2" />
	<circle cx="498.8626686650" cy="-389.2814344180" r="2" />
	<circle cx="991.5138247550" cy="-6.8968335860" r="2" />
	<circle cx="500.0000000000" cy="-866.0254038000" r="2" />
	<circle cx="999.9953671720" cy="-0.0035021136" r="2" />
	<circle cx="516.0243879580" cy="-279.5973201557" r="2" />
	<circle cx="499.6616350752" cy="-291.3410481249" r="2" />
	<circle cx="999.9994694970" cy="-0.0005461823" r="2" />
	<circle cx="484.6639705973" cy="-438.0096308595" r="2" />
	<circle cx="500.1624774819" cy="-728.8493631653" r="2" />
	<circle cx="487.9751883273" cy="-263.3273783205" r="2" />
	<circle cx="488.4387357001" cy="-371.4364483294" r="2" />
	<circle cx="990.9024359167" cy="-5.2403423645" r="2" />
	<circle cx="641.6571974680" cy="-206.1450624378" r="2" />
	<circle cx="0.0049322957" cy="-0.0040667346" r="2" />
	<circle cx="4.9803385128" cy="-3.7552614941" r="2" />
	<circle cx="523.4543182034" cy="-275.1235097891" r="2" />
	<circle cx="493.7590236017" cy="-281.9355525317" r="2" />
	<circle cx="1000.0000000000" cy="-0.0000000000" r="2" />
	<circle cx="999.9998829864" cy="-0.0000677212" r="2" />
	<circle cx="999.9952420949" cy="-0.0027357849" r="2" />
	<circle cx="447.5595291846" cy="-268.1380388638" r="2" />
	<circle cx="999.9981165810" cy="-0.0012817334" r="2" />
	<circle cx="999.8956377145" cy="-0.0602253472" r="2" />
	<circle cx="954.3514125028" cy="-26.3578654293" r="2" />
	<circle cx="500.1906945694" cy="-745.5383598711" r="2" />
	<circle cx="740.5795820443" cy="-150.1049411261" r="2" />
	<circle cx="999.9999880088" cy="-0.0000171912" r="2" />
	<circle cx="999.9556596411" cy="-0.0255709234" r="2" />
	<circle cx="927.9868597285" cy="-43.5286167590" r="2" />
	<circle cx="254.1651333880" cy="-146.4346191641" r="2" />
	<circle cx="977.2381528302" cy="-14.5380746523" r="2" />
	<circle cx="626.0036648434" cy="-271.9381420830" r="2" />
	<circle cx="865.3995269444" cy="-12.8687015209" r="2" />
	<circle cx="936.0456266486" cy="-36.9118649752" r="2" />
	<circle cx="499.9999967726" cy="-866.0170675441" r="2" />
	<circle cx="700.0325098429" cy="-179.7374867904" r="2" />
	<circle cx="993.6444736186" cy="-3.6696132215" r="2" />
	<circle cx="643.8939368321" cy="-205.8401354986" r="2" />
	<circle cx="499.9908979476" cy="-851.2215649666" r="2" />
	<circle cx="499.9799210785" cy="-737.2242076549" r="2" />
	<circle cx="999.9999999993" cy="-0.0000000004" r="2" />
	<circle cx="499.9896411487" cy="-811.1625451071" r="2" />
	<circle cx="999.8777053907" cy="-0.0600818956" r="2" />
	<circle cx="262.1284220165" cy="-150.9609427478" r="2" />
	<circle cx="499.9827507563" cy="-840.1139061000" r="2" />
	<circle cx="450.7717444768" cy="-359.0168466384" r="2" />
	<circle cx="482.5423135136" cy="-599.1297789701" r="2" />
	<circle cx="996.7442334597" cy="-1.8759277889" r="2" />
	<circle cx="499.9996921780" cy="-865.7753435898" r="2" />
	<circle cx="1000.0000000000" cy="-0.0000000000" r="2" />
	<circle cx="134.2778889280" cy="-77.5198938267" r="2" />
	<circle cx="999.9999285391" cy="-0.0000524021" r="2" />
	<circle cx="499.9999999935" cy="-866.0254023542" r="2" />
	<circle cx="999.6942028111" cy="-0.1832245890" r="2" />
	<circle cx="17.3540625812" cy="-8.7258732222" r="2" />
	<circle cx="756.5827345434" cy="-140.4925492052" r="2" />
	<circle cx="494.3295680973" cy="-324.9849764577" r="2" />
	<circle cx="501.4909809934" cy="-393.6456593968" r="2" />
	<circle cx="43.3102238807" cy="-25.0099350740" r="2" />
	<circle cx="706.1295718427" cy="-170.5114543150" r="2" />
	<circle cx="1000.0000000000" cy="-0.0000000000" r="2" />
	<circle cx="536.0542192984" cy="-266.7375445568" r="2" />
	<circle cx="308.8757600449" cy="-201.3961779706" r="2" />
	<circle cx="500.0000000038" cy="-866.0254020080" r="2" />
	<circle cx="600.1172799074" cy="-228.2346474073" r="2" />
	<circle cx="499.9506858372" cy="-581.1246817891" r="2" />
	<circle cx="468.3832241424" cy="-272.9891919488" r="2" />
	<circle cx="911.1455272302" cy="-51.3004808449" r="2" />
	<circle cx="0.0000000000" cy="-0.0000000000" r="2" />
	<circle cx="988.5961919494" cy="-6.9354492964" r="2" />
	<circle cx="548.3663809219" cy="-260.7308200861" r="2" />
	<circle cx="0.0000166481" cy="-0.0000037708" r="2" />
	<circle cx="499.9959381026" cy="-865.9844793153" r="2" />
	<circle cx="0.0000000000" cy="-0.0000000000" r="2" />
	<circle cx="930.2130085081" cy="-36.1380744049" r="2" />
	<circle cx="271.9095311125" cy="-156.6245673378" r="2" />
	<circle cx="499.9916694567" cy="-791.4038114541" r="2" />
	<circle cx="0.0000004310" cy="-0.0000002512" r="2" />
	<circle cx="523.3272309420" cy="-274.8114353538" r="2" />
	<circle cx="805.5886880906" cy="-112.2137538346" r="2" />
	<circle cx="475.6777777927" cy="-241.2301636433" r="2" />
	<circle cx="654.3211345530" cy="-180.8596406442" r="2" />
	<circle cx="1000.0000000000" cy="-0.0000000000" r="2" />
	<circle cx="999.4954328412" cy="-0.2350281487" r="2" />
	<circle cx="79.0515595127" cy="-45.6404404929" r="2" />
	<circle cx="589.4157445105" cy="-306.5586017260" r="2" />
	<circle cx="1000.0000000000" cy="-0.0000000000" r="2" />
	<circle cx="500.2027000996" cy="-766.5186810917" r="2" />
	<circle cx="843.1678541194" cy="-91.7541621216" r="2" />
	<circle cx="3.9644591240" cy="-2.2956630723" r="2" />
	<circle cx="499.9745266418" cy="-767.8429644336" r="2" />
	<circle cx="500.0004816932" cy="-810.6704584994" r="2" />
	<circle cx="10.0542734727" cy="-2.9769068175" r="2" />
	<circle cx="476.5106657238" cy="-277.3432064786" r="2" />
	<circle cx="70.1959613966" cy="-38.0823579625" r="2" />
	<circle cx="0.0064675016" cy="-0.0024000701" r="2" />
	<circle cx="229.5423343707" cy="-116.6228174976" r="2" />
	<circle cx="3.8212894071" cy="-1.7396133455" r="2" />
	<circle cx="999.9999996493" cy="-0.0000002021" r="2" />
	<circle cx="499.8538322368" cy="-461.3110933760" r="2" />
	<circle cx="0.0000000000" cy="-0.0000000000" r="2" />
	<circle cx="57.9900543251" cy="-32.6788082801" r="2" />
	<circle cx="0.0000000000" cy="-0.0000000000" r="2" />
	<circle cx="454.2821209361" cy="-246.8281399756" r="2" />
	<circle cx="499.9999999854" cy="-866.0252623963" r="2" />
	<circle cx="499.9754855009" cy="-865.9182014615" r="2" />
	<circle cx="156.3592090891" cy="-90.1521215734" r="2" />
	<circle cx="370.3911837641" cy="-209.6384743243" r="2" />
	<circle cx="1000.0000000000" cy="-0.0000000000" r="2" />
	<circle cx="992.8759084236" cy="-4.1117557129" r="2" />
	<circle cx="498.9261227057" cy="-322.1667102998" r="2" />
	<circle cx="0.0000000068" cy="-0.0000000039" r="2" />
	<circle cx="500.0000252600" cy="-866.0219191685" r="2" />
	<circle cx="0.0004340703" cy="-0.0002585812" r="2" />
	<circle cx="0.0000005045" cy="-0.0000003659" r="2" />
	<circle cx="1000.0000000000" cy="-0.0000000000" r="2" />
	<circle cx="0.0084181568" cy="-0.0048577544" r="2" />
	<circle cx="488.2579747362" cy="-280.7101789926" r="2" />
	<circle cx="499.9996206332" cy="-814.4081864446" r="2" />
	<circle cx="911.9183999155" cy="-39.2357955820" r="2" />
	<circle cx="469.5089159683" cy="-444.8094182318" r="2" />
	<circle cx="501.0014305931" cy="-289.2964536314" r="2" />
	<circle cx="590.8853140951" cy="-233.6376458470" r="2" />
	<circle cx="769.8647452062" cy="-139.8091318500" r="2" />
	<circle cx="500.0021461246" cy="-865.9875238002" r="2" />
	<circle cx="487.7604059625" cy="-284.3680309571" r="2" />
	<circle cx="543.0210946031" cy="-273.8894369972" r="2" />
	<circle cx="93.9181948382" cy="-55.9060639653" r="2" />
	<circle cx="999.9998249057" cy="-0.0001189660" r="2" />
	<circle cx="499.9279382886" cy="-367.1402848243" r="2" />
	<circle cx="1000.0000000000" cy="-0.0000000000" r="2" />
	<circle cx="0.0000000001" cy="-0.0000000001" r="2" />
	<circle cx="0.3681508366" cy="-0.2150766813" r="2" />
	<circle cx="422.1757922426" cy="-245.3692101714" r="2" />
	<circle cx="494.4519623282" cy="-285.4819166381" r="2" />
	<circle cx="942.7631569796" cy="-48.2696776770" r="2" />
	<circle cx="893.5526455491" cy="-61.4853782067" r="2" />
	<circle cx="0.0000000000" cy="-0.0000000000" r="2" />
	<circle cx="999.9998549325" cy="-0.0000836509" r="2" />
	<circle cx="498.4825665414" cy="-308.5845891238" r="2" />
	<circle cx="1000.0000000000" cy="-0.0000000000" r="2" />
	<circle cx="530.2645761987" cy="-279.2580210929" r="2" />
	<circle cx="101.5267486291" cy="-34.6553956550" r="2" />
	<circle cx="0.0000140820" cy="-0.0000149272" r="2" />
	<circle cx="50.1916772500" cy="-37.1150441966" r="2" />
	<circle cx="608.5575348156" cy="-275.6158899381" r="2" />
	<circle cx="500.0000000012" cy="-866.0254028458" r="2" />
	<circle cx="0.0348608056" cy="-0.0072527741" r="2" />
	<circle cx="803.2790231189" cy="-114.1080534666" r="2" />
	<circle cx="450.3690211319" cy="-260.1454827638" r="2" />
	<circle cx="999.8713103517" cy="-0.1826486310" r="2" />
	<circle cx="639.6083182622" cy="-207.9974699231" r="2" />
	<circle cx="2.6199550795" cy="-1.5494337514" r="2" />
	<circle cx="479.7306983880" cy="-275.3743790996" r="2" />
	<circle cx="805.9813268821" cy="-111.9349835234" r="2" />
	<circle cx="813.9025011393" cy="-116.5505172199" r="2" />
	<circle cx="500.0001245256" cy="-866.0238151599" r="2" />
	<circle cx="999.9995281396" cy="-0.0002727244" r="2" />
	<circle cx="499.9995518017" cy="-858.3892784495" r="2" />
	<circle cx="497.1466394392" cy="-490.4799739292" r="2" />
	<circle cx="531.4809626201" cy="-270.4943266494" r="2" />
	<circle cx="333.7958753694" cy="-190.1756211650" r="2" />
	<circle cx="511.1397286678" cy="-279.6450912667" r="2" />
  </g>
  <g id="fig2" transform="translate(-550.0,1000)">
	<polygon points="0.0,-0.0 1000.0,-0.0 500.0,-866.0254038" />
	<line
	   id="line2-1"
	   y2="-0.0"
	   x2="500"
	   y1="-288.6751346"
	   x1="500" />
	<line
	   id="line2-2"
	   y2="-433.0127019"
	   x2="250"
	   y1="-288.6751346"
	   x1="500" />
	<line
	   id="line2-3"
	   y2="-433.0127019"
	   x2="750"
	   y1="-288.6751346"
	   x1="500" />
	<text
	   x="440"
	   y="-500"
	   id="up_2">30.6%</text>
	<text
	   x="250"
	   y="-150"
	   id="down_left_2">31.0%</text>
	<text
	   x="630"
	   y="-150"
	   id="down_right_2">38.4%</text>
  </g>
  <g id="fig3" transform="translate(550,1000)">
	<polygon points="0.0,-0.0 1000.0,-0.0 500.0,-866.0254038" />
	<polygon id="triangle3b" points="250,-144.3375673 750,-144.3375673 500,-577.3502692" />
	<line
	   id="line3-1"
	   x1="125"
	   y1="-216.5063509"
	   x2="250"
	   y2="-144.3375673" />
	<line
	   id="line3-2"
	   x1="375"
	   y1="-649.5190528"
	   x2="500"
	   y2="-577.3502692" />
	<line
	   id="line3-3"
	   x1="625"
	   y1="-649.5190528"
	   x2="500"
	   y2="-577.3502692" />
	<line
	   id="line3-4"
	   x1="875"
	   y1="-216.5063509"
	   x2="750"
	   y2="-144.3375673" />
	<line
	   id="line3-5"
	   x1="750"
	   y1="-0.0"
	   x2="750"
	   y2="-144.3375673" />
	<line
	   id="line3-6"
	   x1="250"
	   y1="-0.0"
	   x2="250"
	   y2="-144.3375673" />
	<text
	   x="500"
	   y="-660"
	   text-anchor="middle"
	   id="up_3">22.0%</text>
	<text
	   y="-50"
	   x="70"
	   id="down_left_3">21.4%</text>
	<text
	   y="-50"
	   x="770"
	   id="down_right_3">27.2%</text>
	<text
	   x="500"
	   y="-50"
	   text-anchor="middle"
	   id="down_side_3">0.2%</text>
	<text
	   x="500"
	   y="-280"
	   text-anchor="middle"
	   id="center_3">29.0%</text>
	<text
	   x="685.0"
	   y="-390.8439"
	   text-anchor="middle"
	   transform="rotate(60,665.0,-380.8439)"
	   id="right_side_3">0.2%</text>
	<text
	   x="315.0"
	   y="-390.8439"
	   text-anchor="middle"
	   transform="rotate(-60,335.0,-380.8439)"
	   id="left_side_3">0.0%</text>
  </g>
</g></g>
</svg>
