<?xml version="1.0" encoding="UTF-8" standalone="no"?>
<!DOCTYPE svg PUBLIC "-//W3C//DTD SVG 1.1//EN" "http://www.w3.org/Graphics/SVG/1.1/DTD/svg11.dtd">
<svg
   xmlns:svg="http://www.w3.org/2000/svg"
   xmlns="http://www.w3.org/2000/svg"
   xmlns:xlink="http://www.w3.org/1999/xlink"
   version="1.1"
   baseProfile="full"
   id="body"
   width="800px"
   height="800px"
   viewBox="0 0 1000 1000"
   preserveAspectRatio="none">
  <defs>
    <style type="text/css"><![CDATA[
      circle{ stroke: none; }
      polygon{ stroke: black; stroke-width: 2px; fill: none; }
      line{ stroke: black; stroke-width: 2px; }
      text{ font-size:50px; }
    ]]></style>
  </defs>
  <title
     id="title1">SVG drawing</title>
<g transform="scale(0.45)"><g transform="translate(600,1050)">
  <g id="fig1">
	<polygon points="0.0,-0.0 1000.0,-0.0 500,-866.0254038" />
	<circle cx="0.0089450500" cy="-0.0043101157" r="2" />
	<circle cx="510.3023892480" cy="-835.1498716577" r="2" />
	<circle cx="499.9992578439" cy="-866.0240864870" r="2" />
	<circle cx="0.0000000000" cy="-0.0000000000" r="2" />
	<circle cx="1000.0000000000" cy="-0.0000000000" r="2" />
	<circle cx="500.0000000000" cy="-866.0254038000" r="2" />
	<circle cx="223.5543777435" cy="-85.2935076757" r="2" />
	<circle cx="0.7806419328" cy="-0.5053553838" r="2" />
	<circle cx="500.0000000802" cy="-866.0251058316" r="2" />
	<circle cx="500.0004873592" cy="-866.0230991241" r="2" />
	<circle cx="497.5418775635" cy="-824.1462263613" r="2" />
	<circle cx="500.0000000000" cy="-866.0254038000" r="2" />
	<circle cx="999.9999831995" cy="-0.0000098553" r="2" />
	<circle cx="0.0000000000" cy="-0.0000000000" r="2" />
	<circle cx="0.0000000000" cy="-0.0000000000" r="2" />
	<circle cx="500.0000120731" cy="-866.0253812516" r="2" />
	<circle cx="997.3295877089" cy="-2.7035810519" r="2" />
	<circle cx="1000.0000000000" cy="-0.0000000000" r="2" />
	<circle cx="500.0000000000" cy="-866.0254038000" r="2" />
	<circle cx="999.9999894030" cy="-0.0000007031" r="2" />
	<circle cx="0.0000000000" cy="-0.0000000000" r="2" />
	<circle cx="1000.0000000000" cy="-0.0000000000" r="2" />
	<circle cx="999.9992207763" cy="-0.0004050908" r="2" />
	<circle cx="500.0000000000" cy="-866.0254038000" r="2" />
	<circle cx="500.0000000000" cy="-866.0254038000" r="2" />
	<circle cx="0.0690275749" cy="-0.0001891907" r="2" />
	<circle cx="1000.0000000000" cy="-0.0000000000" r="2" />
	<circle cx="499.8482521129" cy="-865.7624855269" r="2" />
	<circle cx="414.4734460031" cy="-251.4277042423" r="2" />
	<circle cx="500.4751152291" cy="-860.3021792164" r="2" />
	<circle cx="0.0000000000" cy="-0.0000000000" r="2" />
	<circle cx="503.4011598387" cy="-749.8930777025" r="2" />
	<circle cx="499.9999755797" cy="-866.0247209979" r="2" />
	<circle cx="500.0000000000" cy="-866.0254038000" r="2" />
	<circle cx="0.0006038546" cy="-0.0003202948" r="2" />
	<circle cx="500.0000000000" cy="-866.0254038000" r="2" />
	<circle cx="1000.0000000000" cy="-0.0000000000" r="2" />
	<circle cx="999.9999791596" cy="-0.0000000000" r="2" />
	<circle cx="1000.0000000000" cy="-0.0000000000" r="2" />
	<circle cx="500.0070409599" cy="-842.1857309626" r="2" />
	<circle cx="956.0428766317" cy="-76.1348932389" r="2" />
	<circle cx="1000.0000000000" cy="-0.0000000000" r="2" />
	<circle cx="500.0000000000" cy="-866.0254038000" r="2" />
	<circle cx="1000.0000000000" cy="-0.0000000000" r="2" />
	<circle cx="1000.0000000000" cy="-0.0000000000" r="2" />
	<circle cx="3.2808915403" cy="-2.7040507879" r="2" />
	<circle cx="0.0000000073" cy="-0.0000000042" r="2" />
	<circle cx="1000.0000000000" cy="-0.0000000000" r="2" />
	<circle cx="500.0000000000" cy="-866.0254038000" r="2" />
	<circle cx="995.4307819988" cy="-7.9133773390" r="2" />
	<circle cx="919.5132969895" cy="-54.9351935677" r="2" />
	<circle cx="0.0000000000" cy="-0.0000000000" r="2" />
	<circle cx="500.0000000000" cy="-866.0254037999" r="2" />
	<circle cx="0.0000000000" cy="-0.0000000000" r="2" />
	<circle cx="999.9991749143" cy="-0.0004454375" r="2" />
	<circle cx="499.9999902356" cy="-865.9839311027" r="2" />
	<circle cx="0.0000000000" cy="-0.0000000000" r="2" />
	<circle cx="1000.0000000000" cy="-0.0000000000" r="2" />
	<circle cx="999.9962463026" cy="-0.0000022621" r="2" />
	<circle cx="500.0000000000" cy="-866.0254038000" r="2" />
	<circle cx="999.4342856663" cy="-0.3264901112" r="2" />
	<circle cx="499.9999999938" cy="-866.0253909559" r="2" />
	<circle cx="1000.0000000000" cy="-0.0000000000" r="2" />
	<circle cx="999.9097772892" cy="-0.0521252423" r="2" />
	<circle cx="999.9999534000" cy="-0.0000157365" r="2" />
	<circle cx="499.7373230005" cy="-862.9590194155" r="2" />
	<circle cx="999.9998451668" cy="-0.0000933984" r="2" />
	<circle cx="500.0000000000" cy="-866.0254038000" r="2" />
	<circle cx="463.7750662760" cy="-555.2834384318" r="2" />
	<circle cx="500.4483122218" cy="-856.5886305484" r="2" />
	<circle cx="0.0000000000" cy="-0.0000000000" r="2" />
	<circle cx="997.8011065631" cy="-0.0000000001" r="2" />
	<circle cx="500.0020053628" cy="-851.8143387724" r="2" />
	<circle cx="1000.0000000000" cy="-0.0000000000" r="2" />
	<circle cx="0.0000000209" cy="-0.0000000121" r="2" />
	<circle cx="0.0240775169" cy="-0.0000000000" r="2" />
	<circle cx="1000.0000000000" cy="-0.0000000000" r="2" />
	<circle cx="46.9115306847" cy="-22.8706843968" r="2" />
	<circle cx="999.9993700705" cy="-0.0003634684" r="2" />
	<circle cx="492.0276085229" cy="-717.1269979069" r="2" />
	<circle cx="0.0000000000" cy="-0.0000000000" r="2" />
	<circle cx="499.9999999618" cy="-866.0253510355" r="2" />
	<circle cx="498.7374656940" cy="-339.5818637352" r="2" />
	<circle cx="516.7826185409" cy="-483.4978631974" r="2" />
	<circle cx="1000.0000000000" cy="-0.0000000000" r="2" />
	<circle cx="0.0002580331" cy="-0.0001489985" r="2" />
	<circle cx="499.9245919896" cy="-376.7535105313" r="2" />
	<circle cx="999.3921420526" cy="-0.1882154725" r="2" />
	<circle cx="999.9999996704" cy="-0.0000001903" r="2" />
	<circle cx="0.0000000000" cy="-0.0000000000" r="2" />
	<circle cx="499.9999985299" cy="-866.0253727142" r="2" />
	<circle cx="0.0000000000" cy="-0.0000000000" r="2" />
	<circle cx="1000.0000000000" cy="-0.0000000000" r="2" />
	<circle cx="500.0000540592" cy="-866.0000227063" r="2" />
	<circle cx="1000.0000000000" cy="-0.0000000000" r="2" />
	<circle cx="970.2547674636" cy="-17.1816502667" r="2" />
	<circle cx="1000.0000000000" cy="-0.0000000000" r="2" />
	<circle cx="500.0000000000" cy="-866.0254038000" r="2" />
	<circle cx="499.9999999994" cy="-866.0254029163" r="2" />
	<circle cx="803.8647115122" cy="-51.9360748726" r="2" />
	<circle cx="997.8700083137" cy="-1.6125568446" r="2" />
	<circle cx="0.0000000000" cy="-0.0000000000" r="2" />
	<circle cx="999.5885975392" cy="-0.2388169260" r="2" />
	<circle cx="500.0015528573" cy="-861.8403008237" r="2" />
	<circle cx="10.8627784902" cy="-10.0036189035" r="2" />
	<circle cx="63.3022959156" cy="-49.5321287224" r="2" />
	<circle cx="0.0003127360" cy="-0.0001807938" r="2" />
	<circle cx="500.0000000000" cy="-866.0254038000" r="2" />
	<circle cx="998.3937236418" cy="-0.9275678561" r="2" />
	<circle cx="500.0000000000" cy="-866.0254038000" r="2" />
	<circle cx="499.9999999964" cy="-866.0254037938" r="2" />
	<circle cx="0.3949766053" cy="-0.2290506786" r="2" />
	<circle cx="0.0000000000" cy="-0.0000000000" r="2" />
	<circle cx="499.9339694900" cy="-863.4014778419" r="2" />
	<circle cx="991.6033715662" cy="-4.3301314530" r="2" />
	<circle cx="999.9970053784" cy="-0.0037923754" r="2" />
	<circle cx="500.0000000000" cy="-866.0254038000" r="2" />
	<circle cx="500.0000000000" cy="-866.0254037996" r="2" />
	<circle cx="999.8138705951" cy="-0.1101998327" r="2" />
	<circle cx="500.0000036614" cy="-865.9660950789" r="2" />
	<circle cx="469.3717581620" cy="-328.9315111586" r="2" />
	<circle cx="999.5061826972" cy="-0.2851288046" r="2" />
	<circle cx="499.9999999727" cy="-866.0254037527" r="2" />
	<circle cx="500.0000000000" cy="-866.0254037952" r="2" />
	<circle cx="1000.0000000000" cy="-0.0000000000" r="2" />
	<circle cx="525.7630500712" cy="-290.5489672355" r="2" />
	<circle cx="500.0000010172" cy="-866.0112147396" r="2" />
	<circle cx="1000.0000000000" cy="-0.0000000000" r="2" />
	<circle cx="0.0000000000" cy="-0.0000000000" r="2" />
	<circle cx="999.9999999878" cy="-0.0000000070" r="2" />
	<circle cx="998.3271875495" cy="-1.0416444813" r="2" />
	<circle cx="1000.0000000000" cy="-0.0000000000" r="2" />
	<circle cx="1000.0000000000" cy="-0.0000000000" r="2" />
	<circle cx="500.0000000000" cy="-866.0254038000" r="2" />
	<circle cx="1.4892873778" cy="-0.3581393024" r="2" />
	<circle cx="0.0098396358" cy="-0.0056818911" r="2" />
	<circle cx="667.2234123559" cy="-258.9683821458" r="2" />
	<circle cx="5.1788380361" cy="-2.1693097684" r="2" />
	<circle cx="0.0000000000" cy="-0.0000000000" r="2" />
	<circle cx="999.9999996918" cy="-0.0000001780" r="2" />
	<circle cx="0.0000000000" cy="-0.0000000000" r="2" />
	<circle cx="1000.0000000000" cy="-0.0000000000" r="2" />
	<circle cx="1000.0000000000" cy="-0.0000000000" r="2" />
	<circle cx="0.0000000000" cy="-0.0000000000" r="2" />
	<circle cx="723.5595435290" cy="-271.5450214388" r="2" />
	<circle cx="501.1746522616" cy="-834.5709685256" r="2" />
	<circle cx="499.9999999914" cy="-866.0254037850" r="2" />
	<circle cx="1000.0000000000" cy="-0.0000000000" r="2" />
	<circle cx="500.0000000000" cy="-866.0254038000" r="2" />
	<circle cx="1000.0000000000" cy="-0.0000000000" r="2" />
	<circle cx="20.9392914058" cy="-10.8088403253" r="2" />
	<circle cx="1000.0000000000" cy="-0.0000000000" r="2" />
	<circle cx="0.0000000000" cy="-0.0000000000" r="2" />
	<circle cx="0.0000000000" cy="-0.0000000000" r="2" />
	<circle cx="500.0327102446" cy="-861.6874446909" r="2" />
	<circle cx="265.6078373022" cy="-152.7186229933" r="2" />
	<circle cx="0.0000000000" cy="-0.0000000000" r="2" />
	<circle cx="0.0000000000" cy="-0.0000000000" r="2" />
	<circle cx="1000.0000000000" cy="-0.0000000000" r="2" />
	<circle cx="0.0000000000" cy="-0.0000000000" r="2" />
	<circle cx="0.0092893194" cy="-0.0054966911" r="2" />
	<circle cx="995.0360162146" cy="-4.4658150580" r="2" />
	<circle cx="500.0000000000" cy="-866.0254038000" r="2" />
	<circle cx="139.6914675632" cy="-91.9380312714" r="2" />
	<circle cx="0.0000580517" cy="-0.0000380963" r="2" />
	<circle cx="170.7487365836" cy="-94.4940127133" r="2" />
	<circle cx="999.9999998067" cy="-0.0000001413" r="2" />
	<circle cx="500.0000000000" cy="-866.0254038000" r="2" />
	<circle cx="500.0000000000" cy="-866.0254038000" r="2" />
	<circle cx="500.0000000000" cy="-866.0254038000" r="2" />
	<circle cx="500.0000000000" cy="-866.0254038000" r="2" />
	<circle cx="500.0000000000" cy="-866.0254038000" r="2" />
	<circle cx="1000.0000000000" cy="-0.0000000000" r="2" />
	<circle cx="500.0000000000" cy="-866.0254038000" r="2" />
	<circle cx="499.9791281252" cy="-865.9725265640" r="2" />
	<circle cx="0.0000000000" cy="-0.0000000000" r="2" />
	<circle cx="999.9998734496" cy="-0.0000721193" r="2" />
	<circle cx="0.0000000001" cy="-0.0000000001" r="2" />
	<circle cx="0.0000000000" cy="-0.0000000000" r="2" />
	<circle cx="1000.0000000000" cy="-0.0000000000" r="2" />
	<circle cx="500.0000000185" cy="-866.0254035085" r="2" />
	<circle cx="10.9073245028" cy="-5.7124645300" r="2" />
	<circle cx="0.1453116739" cy="-0.0839497699" r="2" />
	<circle cx="499.8472212853" cy="-864.0868074659" r="2" />
	<circle cx="0.0000000000" cy="-0.0000000000" r="2" />
	<circle cx="0.0000000000" cy="-0.0000000000" r="2" />
	<circle cx="1000.0000000000" cy="-0.0000000000" r="2" />
	<circle cx="1000.0000000000" cy="-0.0000000000" r="2" />
	<circle cx="994.8212538104" cy="-2.1691494234" r="2" />
	<circle cx="3.8824023726" cy="-3.7802897779" r="2" />
	<circle cx="999.9999999791" cy="-0.0000000341" r="2" />
	<circle cx="999.9999990242" cy="-0.0000005632" r="2" />
	<circle cx="493.2527871402" cy="-805.1323520968" r="2" />
	<circle cx="0.0000000000" cy="-0.0000000000" r="2" />
	<circle cx="1000.0000000000" cy="-0.0000000000" r="2" />
	<circle cx="983.3393226771" cy="-10.4171068188" r="2" />
	<circle cx="500.0000000016" cy="-866.0253996902" r="2" />
	<circle cx="0.2554526387" cy="-0.1436381913" r="2" />
	<circle cx="500.0000000000" cy="-866.0254037999" r="2" />
	<circle cx="994.8049184325" cy="-2.4501309712" r="2" />
	<circle cx="1000.0000000000" cy="-0.0000000000" r="2" />
	<circle cx="500.0001407672" cy="-866.0106643421" r="2" />
	<circle cx="1000.0000000000" cy="-0.0000000000" r="2" />
	<circle cx="486.2606502885" cy="-815.9071020768" r="2" />
	<circle cx="0.0000000000" cy="-0.0000000000" r="2" />
	<circle cx="500.0000000000" cy="-866.0254038000" r="2" />
	<circle cx="0.0000043732" cy="-0.0000052023" r="2" />
	<circle cx="999.9999997907" cy="-0.0000001883" r="2" />
	<circle cx="500.0000000000" cy="-866.0254038000" r="2" />
	<circle cx="0.0550078404" cy="-0.0951596567" r="2" />
	<circle cx="500.0000000660" cy="-866.0254022602" r="2" />
	<circle cx="497.4114999566" cy="-848.7341723960" r="2" />
	<circle cx="500.0000000000" cy="-866.0254037997" r="2" />
	<circle cx="1000.0000000000" cy="-0.0000000000" r="2" />
	<circle cx="500.0380168846" cy="-865.8543951145" r="2" />
	<circle cx="500.0000000000" cy="-866.0254038000" r="2" />
	<circle cx="0.0000000000" cy="-0.0000000000" r="2" />
	<circle cx="0.0000000000" cy="-0.0000000000" r="2" />
	<circle cx="500.0000000000" cy="-866.0254038000" r="2" />
	<circle cx="1000.0000000000" cy="-0.0000000000" r="2" />
	<circle cx="999.9999998869" cy="-0.0000000653" r="2" />
	<circle cx="0.0007071720" cy="-0.0002300629" r="2" />
	<circle cx="0.0000000000" cy="-0.0000000000" r="2" />
	<circle cx="902.4690649862" cy="-154.9302844571" r="2" />
	<circle cx="500.0000000000" cy="-866.0254038000" r="2" />
	<circle cx="0.0000000000" cy="-0.0000000000" r="2" />
	<circle cx="999.9999999996" cy="-0.0000000002" r="2" />
	<circle cx="0.0000000000" cy="-0.0000000000" r="2" />
	<circle cx="500.0000000000" cy="-866.0254038000" r="2" />
	<circle cx="742.2846093180" cy="-126.1102329425" r="2" />
	<circle cx="1000.0000000000" cy="-0.0000000000" r="2" />
	<circle cx="481.1426196207" cy="-833.3634628778" r="2" />
	<circle cx="500.0000000000" cy="-866.0254038000" r="2" />
	<circle cx="0.0000000000" cy="-0.0000000000" r="2" />
	<circle cx="0.0000000290" cy="-0.0000000167" r="2" />
	<circle cx="500.0000000000" cy="-866.0254038000" r="2" />
	<circle cx="0.0000000000" cy="-0.0000000000" r="2" />
	<circle cx="0.0000002930" cy="-0.0000001545" r="2" />
	<circle cx="0.0000000000" cy="-0.0000000000" r="2" />
	<circle cx="0.0000000000" cy="-0.0000000000" r="2" />
	<circle cx="0.0000000000" cy="-0.0000000000" r="2" />
	<circle cx="999.4700294724" cy="-0.3060342956" r="2" />
	<circle cx="1.0138266870" cy="-0.5856262144" r="2" />
	<circle cx="500.0000000000" cy="-866.0254038000" r="2" />
	<circle cx="0.0000000000" cy="-0.0000000000" r="2" />
	<circle cx="499.9999725951" cy="-866.0252208500" r="2" />
	<circle cx="500.0000000014" cy="-866.0253981963" r="2" />
	<circle cx="1000.0000000000" cy="-0.0000000000" r="2" />
	<circle cx="500.0000000000" cy="-866.0254038000" r="2" />
	<circle cx="0.0000000000" cy="-0.0000000000" r="2" />
	<circle cx="985.9766948228" cy="-8.2802941372" r="2" />
	<circle cx="1000.0000000000" cy="-0.0000000000" r="2" />
	<circle cx="1000.0000000000" cy="-0.0000000000" r="2" />
	<circle cx="500.0000000000" cy="-866.0254038000" r="2" />
	<circle cx="1000.0000000000" cy="-0.0000000000" r="2" />
	<circle cx="0.0000000010" cy="-0.0000000008" r="2" />
	<circle cx="0.0000000000" cy="-0.0000000000" r="2" />
	<circle cx="0.0000000000" cy="-0.0000000000" r="2" />
	<circle cx="0.0001449523" cy="-0.0000837561" r="2" />
	<circle cx="500.2739621671" cy="-774.2013361753" r="2" />
	<circle cx="999.9930466392" cy="-0.0057407491" r="2" />
	<circle cx="1000.0000000000" cy="-0.0000000000" r="2" />
	<circle cx="0.0000000000" cy="-0.0000000000" r="2" />
	<circle cx="999.8586369969" cy="-0.0732419485" r="2" />
	<circle cx="999.9999240567" cy="-0.0000207270" r="2" />
	<circle cx="500.0000024185" cy="-866.0253956336" r="2" />
	<circle cx="0.0053076964" cy="-0.0000000000" r="2" />
	<circle cx="500.0000000000" cy="-866.0254038000" r="2" />
	<circle cx="999.9999681473" cy="-0.0000117930" r="2" />
	<circle cx="571.8142269034" cy="-729.3784834807" r="2" />
	<circle cx="0.0000000000" cy="-0.0000000000" r="2" />
	<circle cx="990.2357137380" cy="-11.7642118991" r="2" />
	<circle cx="1000.0000000000" cy="-0.0000000000" r="2" />
	<circle cx="500.0000000000" cy="-866.0254038000" r="2" />
	<circle cx="500.0000000000" cy="-866.0254038000" r="2" />
	<circle cx="0.0000000000" cy="-0.0000000000" r="2" />
	<circle cx="1000.0000000000" cy="-0.0000000000" r="2" />
	<circle cx="0.0000620345" cy="-0.0000312258" r="2" />
	<circle cx="0.0000000000" cy="-0.0000000000" r="2" />
	<circle cx="999.9999999514" cy="-0.0000000306" r="2" />
	<circle cx="499.9981884835" cy="-866.0222555488" r="2" />
	<circle cx="500.0000000000" cy="-866.0254038000" r="2" />
	<circle cx="500.0000000000" cy="-866.0254038000" r="2" />
	<circle cx="527.8307609551" cy="-803.0181416792" r="2" />
	<circle cx="0.0000000121" cy="-0.0000000000" r="2" />
	<circle cx="500.0000000577" cy="-866.0254036999" r="2" />
	<circle cx="500.0000012686" cy="-866.0253996920" r="2" />
	<circle cx="500.0000000000" cy="-866.0254038000" r="2" />
	<circle cx="377.1895441637" cy="-214.5292042227" r="2" />
	<circle cx="0.1190293434" cy="-0.0722982056" r="2" />
	<circle cx="996.3286988097" cy="-2.8720968918" r="2" />
	<circle cx="499.8601288071" cy="-864.9276313864" r="2" />
	<circle cx="1000.0000000000" cy="-0.0000000000" r="2" />
	<circle cx="14.3564283173" cy="-8.2880765880" r="2" />
	<circle cx="500.0000000000" cy="-866.0254038000" r="2" />
	<circle cx="500.0000000000" cy="-866.0254038000" r="2" />
	<circle cx="500.0000000000" cy="-866.0254038000" r="2" />
	<circle cx="1000.0000000000" cy="-0.0000000000" r="2" />
	<circle cx="999.9752607469" cy="-0.0142725876" r="2" />
	<circle cx="500.0000000138" cy="-866.0252516880" r="2" />
	<circle cx="999.9979164483" cy="-0.0011036403" r="2" />
	<circle cx="1000.0000000000" cy="-0.0000000000" r="2" />
	<circle cx="1000.0000000000" cy="-0.0000000000" r="2" />
	<circle cx="1000.0000000000" cy="-0.0000000000" r="2" />
	<circle cx="499.8590500024" cy="-865.4047933833" r="2" />
	<circle cx="969.7174733972" cy="-21.3947537878" r="2" />
	<circle cx="998.2454398883" cy="-0.8366307752" r="2" />
	<circle cx="0.0000000757" cy="-0.0000000797" r="2" />
	<circle cx="8.5631706590" cy="-4.2200285768" r="2" />
	<circle cx="0.0001901310" cy="-0.0001161925" r="2" />
	<circle cx="0.0000000000" cy="-0.0000000000" r="2" />
	<circle cx="500.0000000000" cy="-866.0254038000" r="2" />
	<circle cx="35.0597722840" cy="-16.9821460548" r="2" />
	<circle cx="0.0000000000" cy="-0.0000000000" r="2" />
	<circle cx="999.9999999997" cy="-0.0000000000" r="2" />
	<circle cx="500.0000000000" cy="-866.0254038000" r="2" />
	<circle cx="0.0000000000" cy="-0.0000000000" r="2" />
	<circle cx="1000.0000000000" cy="-0.0000000000" r="2" />
	<circle cx="1000.0000000000" cy="-0.0000000000" r="2" />
	<circle cx="0.1672074452" cy="-0.1217412188" r="2" />
	<circle cx="499.9999999936" cy="-866.0254037580" r="2" />
	<circle cx="1000.0000000000" cy="-0.0000000000" r="2" />
	<circle cx="0.0000000000" cy="-0.0000000000" r="2" />
	<circle cx="1000.0000000000" cy="-0.0000000000" r="2" />
	<circle cx="15.6226421668" cy="-12.7263331204" r="2" />
	<circle cx="500.0000000000" cy="-866.0254038000" r="2" />
	<circle cx="1000.0000000000" cy="-0.0000000000" r="2" />
	<circle cx="407.9602837565" cy="-584.8939855257" r="2" />
	<circle cx="999.9998682345" cy="-0.0000233804" r="2" />
	<circle cx="0.0000000000" cy="-0.0000000000" r="2" />
	<circle cx="0.0000223490" cy="-0.0000120849" r="2" />
	<circle cx="0.0000011310" cy="-0.0000000000" r="2" />
	<circle cx="1000.0000000000" cy="-0.0000000000" r="2" />
	<circle cx="0.0000000000" cy="-0.0000000000" r="2" />
	<circle cx="500.0086565045" cy="-820.7008447087" r="2" />
	<circle cx="380.8843673914" cy="-219.7659219563" r="2" />
	<circle cx="993.7621022562" cy="-4.0696201096" r="2" />
	<circle cx="1000.0000000000" cy="-0.0000000000" r="2" />
	<circle cx="499.9095630005" cy="-718.0097133862" r="2" />
	<circle cx="500.0000000000" cy="-866.0254038000" r="2" />
	<circle cx="500.0000000000" cy="-866.0254038000" r="2" />
	<circle cx="1000.0000000000" cy="-0.0000000000" r="2" />
	<circle cx="500.0616756875" cy="-865.8072949055" r="2" />
	<circle cx="494.3700614763" cy="-838.2058646694" r="2" />
	<circle cx="0.0138799764" cy="-0.0144080733" r="2" />
	<circle cx="0.0000023041" cy="-0.0000012747" r="2" />
	<circle cx="500.0000000000" cy="-866.0254038000" r="2" />
	<circle cx="0.0000000000" cy="-0.0000000000" r="2" />
	<circle cx="499.9999985472" cy="-865.9164121559" r="2" />
	<circle cx="0.0000000000" cy="-0.0000000000" r="2" />
	<circle cx="499.6721945102" cy="-865.4576280366" r="2" />
	<circle cx="0.0000000000" cy="-0.0000000000" r="2" />
	<circle cx="371.7706212057" cy="-179.7065713074" r="2" />
	<circle cx="0.0000023405" cy="-0.0000013494" r="2" />
	<circle cx="1000.0000000000" cy="-0.0000000000" r="2" />
	<circle cx="999.9516690626" cy="-0.0279079251" r="2" />
	<circle cx="500.0790292646" cy="-861.4526487905" r="2" />
	<circle cx="1000.0000000000" cy="-0.0000000000" r="2" />
	<circle cx="490.7346831309" cy="-838.9263486429" r="2" />
	<circle cx="1000.0000000000" cy="-0.0000000000" r="2" />
	<circle cx="1000.0000000000" cy="-0.0000000000" r="2" />
	<circle cx="0.0000000016" cy="-0.0000000028" r="2" />
	<circle cx="500.0000000000" cy="-866.0254038000" r="2" />
	<circle cx="914.0326004945" cy="-44.3429576007" r="2" />
	<circle cx="502.5303766967" cy="-810.3178962957" r="2" />
	<circle cx="500.5123101824" cy="-863.4903857430" r="2" />
	<circle cx="499.9999999986" cy="-866.0254016819" r="2" />
	<circle cx="499.9513377952" cy="-865.1229579942" r="2" />
	<circle cx="499.9962076395" cy="-865.9762514099" r="2" />
	<circle cx="500.0000000000" cy="-866.0254038000" r="2" />
	<circle cx="500.0000000000" cy="-866.0254038000" r="2" />
	<circle cx="999.8751981688" cy="-0.0476481753" r="2" />
	<circle cx="499.9999982965" cy="-866.0253857297" r="2" />
	<circle cx="1000.0000000000" cy="-0.0000000000" r="2" />
	<circle cx="893.3640345168" cy="-46.8077298414" r="2" />
	<circle cx="500.0000000000" cy="-866.0254038000" r="2" />
	<circle cx="0.0000053940" cy="-0.0000031141" r="2" />
	<circle cx="0.0000000000" cy="-0.0000000000" r="2" />
	<circle cx="471.0497031438" cy="-264.5962646666" r="2" />
	<circle cx="0.0000000000" cy="-0.0000000000" r="2" />
	<circle cx="0.0000000000" cy="-0.0000000000" r="2" />
	<circle cx="1000.0000000000" cy="-0.0000000000" r="2" />
	<circle cx="0.0590091987" cy="-0.0340660715" r="2" />
	<circle cx="504.8586002509" cy="-850.8620090269" r="2" />
	<circle cx="999.9999697343" cy="-0.0000174598" r="2" />
	<circle cx="499.9998645580" cy="-866.0163314627" r="2" />
	<circle cx="499.8320275464" cy="-857.5081184853" r="2" />
	<circle cx="500.0000000000" cy="-866.0254038000" r="2" />
	<circle cx="415.0963567134" cy="-240.0742043459" r="2" />
	<circle cx="999.5487240087" cy="-0.2605713163" r="2" />
	<circle cx="1000.0000000000" cy="-0.0000000000" r="2" />
	<circle cx="399.0996354689" cy="-419.2011301991" r="2" />
	<circle cx="0.0000000000" cy="-0.0000000000" r="2" />
	<circle cx="500.0000000000" cy="-866.0254038000" r="2" />
	<circle cx="500.0000000000" cy="-866.0254038000" r="2" />
	<circle cx="0.0000000000" cy="-0.0000000000" r="2" />
	<circle cx="499.9999985299" cy="-866.0253727142" r="2" />
	<circle cx="500.0000000000" cy="-866.0254038000" r="2" />
	<circle cx="500.0000000000" cy="-866.0254038000" r="2" />
	<circle cx="0.0000000000" cy="-0.0000000000" r="2" />
	<circle cx="999.9999875452" cy="-0.0000064183" r="2" />
	<circle cx="499.9999990087" cy="-866.0253868006" r="2" />
	<circle cx="0.0000000000" cy="-0.0000000000" r="2" />
	<circle cx="0.0000000000" cy="-0.0000000000" r="2" />
	<circle cx="1000.0000000000" cy="-0.0000000000" r="2" />
	<circle cx="998.6161412954" cy="-0.7987255218" r="2" />
	<circle cx="0.0000000000" cy="-0.0000000000" r="2" />
	<circle cx="0.0000000000" cy="-0.0000000000" r="2" />
	<circle cx="974.3560652362" cy="-18.3504770815" r="2" />
	<circle cx="0.0000000220" cy="-0.0000000127" r="2" />
	<circle cx="0.7093792107" cy="-0.4091800118" r="2" />
	<circle cx="500.0000000000" cy="-866.0254038000" r="2" />
	<circle cx="500.0000000000" cy="-866.0254038000" r="2" />
	<circle cx="499.9999987670" cy="-866.0249830679" r="2" />
	<circle cx="1000.0000000000" cy="-0.0000000000" r="2" />
	<circle cx="297.6872536366" cy="-171.8646443612" r="2" />
	<circle cx="500.0000006993" cy="-866.0242371551" r="2" />
	<circle cx="880.1465861687" cy="-90.1518195090" r="2" />
	<circle cx="999.9998845970" cy="-0.0000666033" r="2" />
	<circle cx="0.0000000000" cy="-0.0000000000" r="2" />
	<circle cx="1000.0000000000" cy="-0.0000000000" r="2" />
	<circle cx="0.0000059409" cy="-0.0000006359" r="2" />
	<circle cx="500.0008668686" cy="-859.5182242328" r="2" />
	<circle cx="500.0000000000" cy="-866.0254038000" r="2" />
	<circle cx="0.0001673203" cy="-0.0000000000" r="2" />
	<circle cx="500.0000000000" cy="-866.0254038000" r="2" />
	<circle cx="996.2018657555" cy="-3.4787390714" r="2" />
	<circle cx="0.0000000000" cy="-0.0000000000" r="2" />
	<circle cx="34.8648508251" cy="-24.7327750112" r="2" />
	<circle cx="0.0000000000" cy="-0.0000000000" r="2" />
	<circle cx="0.0000184427" cy="-0.0000106603" r="2" />
	<circle cx="999.9962463026" cy="-0.0000022621" r="2" />
	<circle cx="500.0000000000" cy="-866.0254038000" r="2" />
	<circle cx="499.9998387049" cy="-866.0251243401" r="2" />
	<circle cx="999.9885432255" cy="-0.0066129036" r="2" />
	<circle cx="500.0000040096" cy="-866.0081317522" r="2" />
	<circle cx="999.9999999999" cy="-0.0000000001" r="2" />
	<circle cx="999.9999999882" cy="-0.0000000083" r="2" />
	<circle cx="0.0000000000" cy="-0.0000000000" r="2" />
	<circle cx="0.0000000000" cy="-0.0000000000" r="2" />
	<circle cx="999.9999996928" cy="-0.0000001774" r="2" />
	<circle cx="1000.0000000000" cy="-0.0000000000" r="2" />
	<circle cx="0.0000000000" cy="-0.0000000000" r="2" />
	<circle cx="500.0000000000" cy="-866.0254038000" r="2" />
	<circle cx="999.9823675653" cy="-0.0222590363" r="2" />
	<circle cx="58.8791148638" cy="-37.2167180147" r="2" />
	<circle cx="1000.0000000000" cy="-0.0000000000" r="2" />
	<circle cx="999.7596301091" cy="-0.1388652242" r="2" />
	<circle cx="0.0000082516" cy="-0.0000003976" r="2" />
	<circle cx="0.0312341353" cy="-0.0180327516" r="2" />
	<circle cx="0.0000000000" cy="-0.0000000000" r="2" />
	<circle cx="0.0025434447" cy="-0.0014303130" r="2" />
	<circle cx="500.0000000000" cy="-866.0254038000" r="2" />
	<circle cx="499.9997115894" cy="-866.0238744857" r="2" />
	<circle cx="999.9804895826" cy="-0.0115158632" r="2" />
	<circle cx="0.0000000000" cy="-0.0000000000" r="2" />
	<circle cx="500.0000000000" cy="-866.0254038000" r="2" />
	<circle cx="1000.0000000000" cy="-0.0000000000" r="2" />
	<circle cx="0.0000367619" cy="-0.0000212152" r="2" />
	<circle cx="999.9999921836" cy="-0.0000135384" r="2" />
	<circle cx="0.0000000000" cy="-0.0000000000" r="2" />
	<circle cx="500.0017876605" cy="-866.0209127222" r="2" />
	<circle cx="500.0000000000" cy="-866.0254038000" r="2" />
	<circle cx="686.5170487837" cy="-53.7575317768" r="2" />
	<circle cx="0.0000000000" cy="-0.0000000000" r="2" />
	<circle cx="0.0000000000" cy="-0.0000000000" r="2" />
	<circle cx="500.0000000000" cy="-866.0254038000" r="2" />
	<circle cx="500.0000000000" cy="-866.0254038000" r="2" />
	<circle cx="1000.0000000000" cy="-0.0000000000" r="2" />
	<circle cx="500.0000000000" cy="-866.0254038000" r="2" />
	<circle cx="980.1883715626" cy="-12.7173668481" r="2" />
	<circle cx="1000.0000000000" cy="-0.0000000000" r="2" />
	<circle cx="1000.0000000000" cy="-0.0000000000" r="2" />
	<circle cx="1000.0000000000" cy="-0.0000000000" r="2" />
	<circle cx="500.0000000000" cy="-866.0254038000" r="2" />
	<circle cx="3.5598985059" cy="-1.3419491928" r="2" />
	<circle cx="999.9999999985" cy="-0.0000000009" r="2" />
	<circle cx="500.0000000008" cy="-866.0254006930" r="2" />
	<circle cx="500.0000000000" cy="-866.0254038000" r="2" />
	<circle cx="1000.0000000000" cy="-0.0000000000" r="2" />
	<circle cx="500.0000690029" cy="-866.0251792369" r="2" />
	<circle cx="8.0906608787" cy="-3.9232897876" r="2" />
	<circle cx="1000.0000000000" cy="-0.0000000000" r="2" />
	<circle cx="999.9939380086" cy="-0.0046032047" r="2" />
	<circle cx="0.0000000000" cy="-0.0000000000" r="2" />
	<circle cx="0.0000570706" cy="-0.0000322947" r="2" />
	<circle cx="1000.0000000000" cy="-0.0000000000" r="2" />
	<circle cx="0.0003387490" cy="-0.0001953481" r="2" />
	<circle cx="0.3412137333" cy="-0.3298714616" r="2" />
	<circle cx="500.0000000000" cy="-866.0254038000" r="2" />
	<circle cx="499.9999999999" cy="-866.0254034441" r="2" />
	<circle cx="514.2881054442" cy="-715.4997267645" r="2" />
	<circle cx="500.0000000000" cy="-866.0254038000" r="2" />
	<circle cx="0.0000000045" cy="-0.0000000014" r="2" />
	<circle cx="500.0000000000" cy="-866.0254037999" r="2" />
	<circle cx="999.8355456075" cy="-0.0950257915" r="2" />
	<circle cx="998.3920541773" cy="-0.3964074349" r="2" />
	<circle cx="500.0000027114" cy="-865.9237418463" r="2" />
	<circle cx="500.0000000000" cy="-866.0254038000" r="2" />
	<circle cx="500.0000000000" cy="-866.0254038000" r="2" />
  </g>
  <g id="fig2" transform="translate(-550.0,1000)">
	<polygon points="0.0,-0.0 1000.0,-0.0 500.0,-866.0254038" />
	<line
	   id="line2-1"
	   y2="-0.0"
	   x2="500"
	   y1="-288.6751346"
	   x1="500" />
	<line
	   id="line2-2"
	   y2="-433.0127019"
	   x2="250"
	   y1="-288.6751346"
	   x1="500" />
	<line
	   id="line2-3"
	   y2="-433.0127019"
	   x2="750"
	   y1="-288.6751346"
	   x1="500" />
	<text
	   x="440"
	   y="-500"
	   id="up_2">35.0%</text>
	<text
	   x="250"
	   y="-150"
	   id="down_left_2">31.6%</text>
	<text
	   x="630"
	   y="-150"
	   id="down_right_2">33.4%</text>
  </g>
  <g id="fig3" transform="translate(550,1000)">
	<polygon points="0.0,-0.0 1000.0,-0.0 500.0,-866.0254038" />
	<polygon id="triangle3b" points="250,-144.3375673 750,-144.3375673 500,-577.3502692" />
	<line
	   id="line3-1"
	   x1="125"
	   y1="-216.5063509"
	   x2="250"
	   y2="-144.3375673" />
	<line
	   id="line3-2"
	   x1="375"
	   y1="-649.5190528"
	   x2="500"
	   y2="-577.3502692" />
	<line
	   id="line3-3"
	   x1="625"
	   y1="-649.5190528"
	   x2="500"
	   y2="-577.3502692" />
	<line
	   id="line3-4"
	   x1="875"
	   y1="-216.5063509"
	   x2="750"
	   y2="-144.3375673" />
	<line
	   id="line3-5"
	   x1="750"
	   y1="-0.0"
	   x2="750"
	   y2="-144.3375673" />
	<line
	   id="line3-6"
	   x1="250"
	   y1="-0.0"
	   x2="250"
	   y2="-144.3375673" />
	<text
	   x="500"
	   y="-660"
	   text-anchor="middle"
	   id="up_3">33.6%</text>
	<text
	   y="-50"
	   x="70"
	   id="down_left_3">30.0%</text>
	<text
	   y="-50"
	   x="770"
	   id="down_right_3">32.4%</text>
	<text
	   x="500"
	   y="-50"
	   text-anchor="middle"
	   id="down_side_3">0.4%</text>
	<text
	   x="500"
	   y="-280"
	   text-anchor="middle"
	   id="center_3">2.8%</text>
	<text
	   x="685.0"
	   y="-390.8439"
	   text-anchor="middle"
	   transform="rotate(60,665.0,-380.8439)"
	   id="right_side_3">0.2%</text>
	<text
	   x="315.0"
	   y="-390.8439"
	   text-anchor="middle"
	   transform="rotate(-60,335.0,-380.8439)"
	   id="left_side_3">0.6%</text>
  </g>
</g></g>
</svg>
