<?xml version="1.0" encoding="UTF-8" standalone="no"?>
<!DOCTYPE svg PUBLIC "-//W3C//DTD SVG 1.1//EN" "http://www.w3.org/Graphics/SVG/1.1/DTD/svg11.dtd">
<svg
   xmlns:svg="http://www.w3.org/2000/svg"
   xmlns="http://www.w3.org/2000/svg"
   xmlns:xlink="http://www.w3.org/1999/xlink"
   version="1.1"
   baseProfile="full"
   id="body"
   width="800px"
   height="800px"
   viewBox="0 0 1000 1000"
   preserveAspectRatio="none">
  <defs>
    <style type="text/css"><![CDATA[
      circle{ stroke: none; }
      polygon{ stroke: black; stroke-width: 2px; fill: none; }
      line{ stroke: black; stroke-width: 2px; }
      text{ font-size:50px; }
    ]]></style>
  </defs>
  <title
     id="title1">SVG drawing</title>
<g transform="scale(0.45)"><g transform="translate(600,1050)">
  <g id="fig1">
	<polygon points="0.0,-0.0 1000.0,-0.0 500,-866.0254038" />
	<circle cx="500.0000000000" cy="-866.0254038000" r="2" />
	<circle cx="999.9999993566" cy="-0.0000003712" r="2" />
	<circle cx="500.0000000000" cy="-866.0254038000" r="2" />
	<circle cx="500.0000000000" cy="-866.0254038000" r="2" />
	<circle cx="1000.0000000000" cy="-0.0000000000" r="2" />
	<circle cx="500.0027738821" cy="-866.0203501635" r="2" />
	<circle cx="485.8389740968" cy="-826.3309946410" r="2" />
	<circle cx="769.4126080802" cy="-133.3974445507" r="2" />
	<circle cx="500.0000000000" cy="-866.0254036332" r="2" />
	<circle cx="1000.0000000000" cy="-0.0000000000" r="2" />
	<circle cx="993.2219191881" cy="-0.0226706562" r="2" />
	<circle cx="500.0000452807" cy="-865.7709854045" r="2" />
	<circle cx="502.0691793563" cy="-555.5949622527" r="2" />
	<circle cx="0.0000000000" cy="-0.0000000000" r="2" />
	<circle cx="0.0000000000" cy="-0.0000000000" r="2" />
	<circle cx="500.0000000000" cy="-866.0254038000" r="2" />
	<circle cx="500.0000000000" cy="-866.0254038000" r="2" />
	<circle cx="500.0000000000" cy="-866.0254038000" r="2" />
	<circle cx="541.1361718335" cy="-794.0793715146" r="2" />
	<circle cx="0.0000000000" cy="-0.0000000000" r="2" />
	<circle cx="500.0000000000" cy="-866.0254038000" r="2" />
	<circle cx="968.4900869530" cy="-0.4639225195" r="2" />
	<circle cx="999.9997979415" cy="-0.0001166006" r="2" />
	<circle cx="615.3028778211" cy="-367.6307132308" r="2" />
	<circle cx="7.2611473504" cy="-4.2074234862" r="2" />
	<circle cx="500.0000000000" cy="-866.0254038000" r="2" />
	<circle cx="0.0000000000" cy="-0.0000000000" r="2" />
	<circle cx="498.9254174971" cy="-803.5862647781" r="2" />
	<circle cx="0.0000000000" cy="-0.0000000000" r="2" />
	<circle cx="0.1698455283" cy="-0.0105053152" r="2" />
	<circle cx="500.0000000000" cy="-866.0254038000" r="2" />
	<circle cx="1000.0000000000" cy="-0.0000000000" r="2" />
	<circle cx="500.0000000000" cy="-866.0254038000" r="2" />
	<circle cx="999.8364448533" cy="-0.0944250478" r="2" />
	<circle cx="500.0000000000" cy="-866.0254038000" r="2" />
	<circle cx="1000.0000000000" cy="-0.0000000000" r="2" />
	<circle cx="0.0000020514" cy="-0.0000011929" r="2" />
	<circle cx="500.0000000000" cy="-866.0254038000" r="2" />
	<circle cx="500.0000000000" cy="-866.0254038000" r="2" />
	<circle cx="999.9999999997" cy="-0.0000000002" r="2" />
	<circle cx="1000.0000000000" cy="-0.0000000000" r="2" />
	<circle cx="16.4457150641" cy="-8.7770229434" r="2" />
	<circle cx="0.0000987061" cy="-0.0000573192" r="2" />
	<circle cx="505.2276815896" cy="-827.0292046638" r="2" />
	<circle cx="0.0000000000" cy="-0.0000000000" r="2" />
	<circle cx="0.0000000000" cy="-0.0000000000" r="2" />
	<circle cx="0.0000000000" cy="-0.0000000000" r="2" />
	<circle cx="999.5739372411" cy="-0.2625842943" r="2" />
	<circle cx="1000.0000000000" cy="-0.0000000000" r="2" />
	<circle cx="500.0000000000" cy="-866.0254038000" r="2" />
	<circle cx="0.0186189695" cy="-0.0114385694" r="2" />
	<circle cx="500.0000000000" cy="-866.0254038000" r="2" />
	<circle cx="499.9999999866" cy="-866.0249794169" r="2" />
	<circle cx="500.0000012499" cy="-866.0253868830" r="2" />
	<circle cx="142.7769382848" cy="-90.3869619356" r="2" />
	<circle cx="1000.0000000000" cy="-0.0000000000" r="2" />
	<circle cx="140.2378119052" cy="-2.0441400136" r="2" />
	<circle cx="500.0000000000" cy="-866.0254038000" r="2" />
	<circle cx="499.9345147388" cy="-288.4994038140" r="2" />
	<circle cx="965.0790956558" cy="-20.1811440422" r="2" />
	<circle cx="0.0000000000" cy="-0.0000000000" r="2" />
	<circle cx="500.0000000000" cy="-866.0254038000" r="2" />
	<circle cx="500.0000000000" cy="-866.0254038000" r="2" />
	<circle cx="853.0512862283" cy="-84.8399176039" r="2" />
	<circle cx="500.0000000000" cy="-866.0254038000" r="2" />
	<circle cx="999.9291580210" cy="-0.0441847598" r="2" />
	<circle cx="5.7379677579" cy="-8.3570536588" r="2" />
	<circle cx="500.0000000002" cy="-866.0254037188" r="2" />
	<circle cx="499.2723120261" cy="-864.7021841216" r="2" />
	<circle cx="500.0008483962" cy="-866.0224360472" r="2" />
	<circle cx="500.0000000000" cy="-866.0254038000" r="2" />
	<circle cx="500.0000000000" cy="-866.0254038000" r="2" />
	<circle cx="507.2355225634" cy="-544.1769321554" r="2" />
	<circle cx="499.3345663571" cy="-288.1232940539" r="2" />
	<circle cx="499.8924711365" cy="-865.7634821388" r="2" />
	<circle cx="0.0008568313" cy="-0.0004947069" r="2" />
	<circle cx="0.0000000000" cy="-0.0000000000" r="2" />
	<circle cx="499.9999999944" cy="-866.0253785106" r="2" />
	<circle cx="0.0022094687" cy="-0.0008641270" r="2" />
	<circle cx="500.0000000000" cy="-866.0254038000" r="2" />
	<circle cx="999.9999997534" cy="-0.0000001423" r="2" />
	<circle cx="0.0086087869" cy="-0.0000823937" r="2" />
	<circle cx="1000.0000000000" cy="-0.0000000000" r="2" />
	<circle cx="999.9999999989" cy="-0.0000000005" r="2" />
	<circle cx="1000.0000000000" cy="-0.0000000000" r="2" />
	<circle cx="996.7715273723" cy="-1.8629130920" r="2" />
	<circle cx="0.0002900001" cy="-0.0001673268" r="2" />
	<circle cx="960.0412951451" cy="-23.7662909482" r="2" />
	<circle cx="0.0000000000" cy="-0.0000000000" r="2" />
	<circle cx="478.4415269296" cy="-356.9762516198" r="2" />
	<circle cx="34.5719352544" cy="-19.9730963893" r="2" />
	<circle cx="500.0000000000" cy="-866.0254038000" r="2" />
	<circle cx="499.9999999997" cy="-866.0254021390" r="2" />
	<circle cx="999.9999999986" cy="-0.0000000009" r="2" />
	<circle cx="500.0000000000" cy="-866.0254038000" r="2" />
	<circle cx="0.0000000000" cy="-0.0000000000" r="2" />
	<circle cx="1000.0000000000" cy="-0.0000000000" r="2" />
	<circle cx="123.9963102808" cy="-71.5226658160" r="2" />
	<circle cx="500.0000000000" cy="-866.0254038000" r="2" />
	<circle cx="0.0000001534" cy="-0.0000000888" r="2" />
	<circle cx="0.0000000004" cy="-0.0000000002" r="2" />
	<circle cx="1000.0000000000" cy="-0.0000000000" r="2" />
	<circle cx="499.9934138046" cy="-866.0103643626" r="2" />
	<circle cx="0.1405102907" cy="-0.0811293222" r="2" />
	<circle cx="500.0014098244" cy="-866.0151001875" r="2" />
	<circle cx="975.1152067373" cy="-7.3876447609" r="2" />
	<circle cx="0.0000000000" cy="-0.0000000000" r="2" />
	<circle cx="999.9999968887" cy="-0.0000021672" r="2" />
	<circle cx="1000.0000000000" cy="-0.0000000000" r="2" />
	<circle cx="0.0000784879" cy="-0.0000433145" r="2" />
	<circle cx="500.4987881358" cy="-299.2237317231" r="2" />
	<circle cx="499.8643877461" cy="-865.2612795592" r="2" />
	<circle cx="381.8864089095" cy="-361.4610788695" r="2" />
	<circle cx="500.0000000000" cy="-866.0254038000" r="2" />
	<circle cx="0.0000000000" cy="-0.0000000000" r="2" />
	<circle cx="0.0001449667" cy="-0.0000836907" r="2" />
	<circle cx="0.0000000000" cy="-0.0000000000" r="2" />
	<circle cx="1000.0000000000" cy="-0.0000000000" r="2" />
	<circle cx="1000.0000000000" cy="-0.0000000000" r="2" />
	<circle cx="1000.0000000000" cy="-0.0000000000" r="2" />
	<circle cx="500.0000000000" cy="-866.0254038000" r="2" />
	<circle cx="0.0090373723" cy="-0.0020988344" r="2" />
	<circle cx="0.0000000000" cy="-0.0000000000" r="2" />
	<circle cx="0.0000000000" cy="-0.0000000000" r="2" />
	<circle cx="0.0000000000" cy="-0.0000000000" r="2" />
	<circle cx="500.0000620575" cy="-866.0251934669" r="2" />
	<circle cx="886.9800837865" cy="-65.1786288265" r="2" />
	<circle cx="500.0000000000" cy="-866.0254038000" r="2" />
	<circle cx="500.0000000000" cy="-866.0254038000" r="2" />
	<circle cx="999.9999040711" cy="-0.0000553878" r="2" />
	<circle cx="500.0000000000" cy="-866.0254037665" r="2" />
	<circle cx="500.0000000000" cy="-866.0254038000" r="2" />
	<circle cx="500.0000000000" cy="-866.0254038000" r="2" />
	<circle cx="0.0000002823" cy="-0.0000001630" r="2" />
	<circle cx="500.0000000000" cy="-866.0254038000" r="2" />
	<circle cx="0.0000000000" cy="-0.0000000000" r="2" />
	<circle cx="1000.0000000000" cy="-0.0000000000" r="2" />
	<circle cx="0.0000000000" cy="-0.0000000000" r="2" />
	<circle cx="0.0241450732" cy="-0.0003094045" r="2" />
	<circle cx="998.1659915089" cy="-1.0584651919" r="2" />
	<circle cx="0.0000000000" cy="-0.0000000000" r="2" />
	<circle cx="999.9999995791" cy="-0.0000001777" r="2" />
	<circle cx="322.4742115196" cy="-0.1547831888" r="2" />
	<circle cx="1000.0000000000" cy="-0.0000000000" r="2" />
	<circle cx="0.3029014467" cy="-0.1748457255" r="2" />
	<circle cx="498.6776997692" cy="-863.3491740711" r="2" />
	<circle cx="22.4911284355" cy="-0.1502065996" r="2" />
	<circle cx="53.6839598504" cy="-30.1239978961" r="2" />
	<circle cx="1000.0000000000" cy="-0.0000000000" r="2" />
	<circle cx="500.0000000000" cy="-866.0254038000" r="2" />
	<circle cx="1000.0000000000" cy="-0.0000000000" r="2" />
	<circle cx="0.0000000000" cy="-0.0000000000" r="2" />
	<circle cx="999.9999955005" cy="-0.0000037378" r="2" />
	<circle cx="1000.0000000000" cy="-0.0000000000" r="2" />
	<circle cx="1000.0000000000" cy="-0.0000000000" r="2" />
	<circle cx="500.0000000000" cy="-866.0254037976" r="2" />
	<circle cx="998.6858967669" cy="-0.7454412008" r="2" />
	<circle cx="0.0000000948" cy="-0.0000000547" r="2" />
	<circle cx="500.1752684545" cy="-865.6131603239" r="2" />
	<circle cx="499.9999999999" cy="-866.0254035062" r="2" />
	<circle cx="999.9999999999" cy="-0.0000000001" r="2" />
	<circle cx="500.0000000000" cy="-866.0254038000" r="2" />
	<circle cx="0.0000000000" cy="-0.0000000000" r="2" />
	<circle cx="404.0949617271" cy="-241.6140616228" r="2" />
	<circle cx="0.0000000000" cy="-0.0000000000" r="2" />
	<circle cx="1000.0000000000" cy="-0.0000000000" r="2" />
	<circle cx="499.9999999999" cy="-866.0254031353" r="2" />
	<circle cx="997.0168750721" cy="-0.1929684424" r="2" />
	<circle cx="999.9999800619" cy="-0.0000115618" r="2" />
	<circle cx="2.1617864895" cy="-3.6815166502" r="2" />
	<circle cx="499.9513273250" cy="-690.7212120092" r="2" />
	<circle cx="500.0000000000" cy="-866.0254038000" r="2" />
	<circle cx="37.2956629329" cy="-21.5378735584" r="2" />
	<circle cx="500.0000000000" cy="-866.0254037940" r="2" />
	<circle cx="661.0979488996" cy="-195.5766364870" r="2" />
	<circle cx="500.0000000000" cy="-866.0254038000" r="2" />
	<circle cx="0.0000000000" cy="-0.0000000000" r="2" />
	<circle cx="0.0000000000" cy="-0.0000000000" r="2" />
	<circle cx="1000.0000000000" cy="-0.0000000000" r="2" />
	<circle cx="999.9999997902" cy="-0.0000001549" r="2" />
	<circle cx="500.0000055445" cy="-864.8239022278" r="2" />
	<circle cx="500.0000000000" cy="-866.0254038000" r="2" />
	<circle cx="1000.0000000000" cy="-0.0000000000" r="2" />
	<circle cx="499.7961830890" cy="-288.7805393737" r="2" />
	<circle cx="499.9985045803" cy="-865.9786796455" r="2" />
	<circle cx="500.0029439667" cy="-853.5915723887" r="2" />
	<circle cx="484.4587216141" cy="-837.8748869220" r="2" />
	<circle cx="311.0175687417" cy="-180.0397951612" r="2" />
	<circle cx="950.7943611452" cy="-27.7938752233" r="2" />
	<circle cx="500.0000000000" cy="-866.0254038000" r="2" />
	<circle cx="0.0000000000" cy="-0.0000000000" r="2" />
	<circle cx="496.6893451097" cy="-631.6518915784" r="2" />
	<circle cx="568.1017370892" cy="-307.7928591030" r="2" />
	<circle cx="0.0049832160" cy="-0.0005938973" r="2" />
	<circle cx="785.0083176071" cy="-131.2791759679" r="2" />
	<circle cx="326.2273148507" cy="-209.0507519998" r="2" />
	<circle cx="496.9068072635" cy="-860.3098302068" r="2" />
	<circle cx="517.0634265657" cy="-442.9361429844" r="2" />
	<circle cx="975.9990196713" cy="-13.8503935802" r="2" />
	<circle cx="1000.0000000000" cy="-0.0000000000" r="2" />
	<circle cx="500.0000000000" cy="-866.0254038000" r="2" />
	<circle cx="998.3721383727" cy="-2.5963025764" r="2" />
	<circle cx="98.2497472450" cy="-56.7322481979" r="2" />
	<circle cx="1000.0000000000" cy="-0.0000000000" r="2" />
	<circle cx="0.0000000000" cy="-0.0000000000" r="2" />
	<circle cx="500.0000000000" cy="-866.0254038000" r="2" />
	<circle cx="500.0000000000" cy="-866.0254038000" r="2" />
	<circle cx="1000.0000000000" cy="-0.0000000000" r="2" />
	<circle cx="0.0000000075" cy="-0.0000000043" r="2" />
	<circle cx="500.0000000000" cy="-866.0254038000" r="2" />
	<circle cx="999.9993366535" cy="-0.0005404966" r="2" />
	<circle cx="0.0000001147" cy="-0.0000000356" r="2" />
	<circle cx="1000.0000000000" cy="-0.0000000000" r="2" />
	<circle cx="500.9304049383" cy="-863.9474470271" r="2" />
	<circle cx="0.0000000000" cy="-0.0000000000" r="2" />
	<circle cx="728.8994050432" cy="-58.6926806521" r="2" />
	<circle cx="0.0000000000" cy="-0.0000000000" r="2" />
	<circle cx="0.0000740274" cy="-0.0000427692" r="2" />
	<circle cx="0.0000000000" cy="-0.0000000000" r="2" />
	<circle cx="0.0000000000" cy="-0.0000000000" r="2" />
	<circle cx="0.0000000000" cy="-0.0000000000" r="2" />
	<circle cx="140.9428024001" cy="-51.0576013034" r="2" />
	<circle cx="999.7976696127" cy="-0.2554604593" r="2" />
	<circle cx="0.0000000000" cy="-0.0000000000" r="2" />
	<circle cx="0.0000000257" cy="-0.0000000157" r="2" />
	<circle cx="597.6754424579" cy="-217.3443059621" r="2" />
	<circle cx="0.0000017028" cy="-0.0000009102" r="2" />
	<circle cx="499.9999787127" cy="-865.9020109286" r="2" />
	<circle cx="0.0000000000" cy="-0.0000000000" r="2" />
	<circle cx="498.0572219846" cy="-862.5052884203" r="2" />
	<circle cx="1000.0000000000" cy="-0.0000000000" r="2" />
	<circle cx="499.7868365241" cy="-315.4114256975" r="2" />
	<circle cx="0.1024505151" cy="-0.0068649924" r="2" />
	<circle cx="499.9999999150" cy="-866.0254029491" r="2" />
	<circle cx="500.0000000000" cy="-866.0254038000" r="2" />
	<circle cx="1000.0000000000" cy="-0.0000000000" r="2" />
	<circle cx="0.0000000000" cy="-0.0000000000" r="2" />
	<circle cx="999.9979781406" cy="-0.0015899010" r="2" />
	<circle cx="497.6026721611" cy="-856.1088345855" r="2" />
	<circle cx="0.0000000000" cy="-0.0000000000" r="2" />
	<circle cx="0.0000000000" cy="-0.0000000000" r="2" />
	<circle cx="1000.0000000000" cy="-0.0000000000" r="2" />
	<circle cx="0.0153032607" cy="-0.0074124106" r="2" />
	<circle cx="1000.0000000000" cy="-0.0000000000" r="2" />
	<circle cx="72.9753546244" cy="-35.5251483106" r="2" />
	<circle cx="500.0000000000" cy="-866.0254038000" r="2" />
	<circle cx="0.0000000002" cy="-0.0000000001" r="2" />
	<circle cx="141.7877436463" cy="-81.8188321678" r="2" />
	<circle cx="1000.0000000000" cy="-0.0000000000" r="2" />
	<circle cx="500.0000369026" cy="-865.6408964545" r="2" />
	<circle cx="301.2206707372" cy="-174.8156009425" r="2" />
	<circle cx="338.8370904753" cy="-195.7113180103" r="2" />
	<circle cx="955.9438700526" cy="-34.8602484932" r="2" />
	<circle cx="659.4312111423" cy="-184.7911047171" r="2" />
	<circle cx="1000.0000000000" cy="-0.0000000000" r="2" />
	<circle cx="390.8871433212" cy="-225.6531459367" r="2" />
	<circle cx="1000.0000000000" cy="-0.0000000000" r="2" />
	<circle cx="32.1698200680" cy="-55.4023138723" r="2" />
	<circle cx="998.7678372299" cy="-1.3563363871" r="2" />
	<circle cx="500.0000000000" cy="-866.0254038000" r="2" />
	<circle cx="0.0000000000" cy="-0.0000000000" r="2" />
	<circle cx="500.0515217180" cy="-353.0954794522" r="2" />
	<circle cx="502.2193896318" cy="-51.1351704506" r="2" />
	<circle cx="2.8306842030" cy="-4.2517601053" r="2" />
	<circle cx="1000.0000000000" cy="-0.0000000000" r="2" />
	<circle cx="504.3685214762" cy="-856.8777203172" r="2" />
	<circle cx="600.6971757991" cy="-356.4190353854" r="2" />
	<circle cx="505.8684846181" cy="-785.3617952676" r="2" />
	<circle cx="999.9999999982" cy="-0.0000000010" r="2" />
	<circle cx="1000.0000000000" cy="-0.0000000000" r="2" />
	<circle cx="1000.0000000000" cy="-0.0000000000" r="2" />
	<circle cx="1000.0000000000" cy="-0.0000000000" r="2" />
	<circle cx="1000.0000000000" cy="-0.0000000000" r="2" />
	<circle cx="0.0000069655" cy="-0.0000039207" r="2" />
	<circle cx="0.0000000000" cy="-0.0000000000" r="2" />
	<circle cx="0.0000000000" cy="-0.0000000000" r="2" />
	<circle cx="0.0000000005" cy="-0.0000000003" r="2" />
	<circle cx="0.0001774901" cy="-0.0001032189" r="2" />
	<circle cx="500.0000000000" cy="-866.0254038000" r="2" />
	<circle cx="366.8631403199" cy="-206.0883280024" r="2" />
	<circle cx="415.4258120049" cy="-477.8238085361" r="2" />
	<circle cx="500.0000000056" cy="-866.0253785091" r="2" />
	<circle cx="4.0199025329" cy="-0.0775628573" r="2" />
	<circle cx="500.0000000000" cy="-866.0254038000" r="2" />
	<circle cx="500.0000000000" cy="-866.0254038000" r="2" />
	<circle cx="719.3621059952" cy="-162.0800822660" r="2" />
	<circle cx="0.0000295992" cy="-0.0000208004" r="2" />
	<circle cx="1000.0000000000" cy="-0.0000000000" r="2" />
	<circle cx="1000.0000000000" cy="-0.0000000000" r="2" />
	<circle cx="1000.0000000000" cy="-0.0000000000" r="2" />
	<circle cx="500.0000000000" cy="-866.0254038000" r="2" />
	<circle cx="500.0000000000" cy="-866.0254038000" r="2" />
	<circle cx="1000.0000000000" cy="-0.0000000000" r="2" />
	<circle cx="500.0000000000" cy="-866.0254038000" r="2" />
	<circle cx="0.0000000000" cy="-0.0000000000" r="2" />
	<circle cx="0.0000000000" cy="-0.0000000000" r="2" />
	<circle cx="500.8584105952" cy="-864.1452916838" r="2" />
	<circle cx="0.0448225129" cy="-0.0258553269" r="2" />
	<circle cx="500.0000000000" cy="-866.0254038000" r="2" />
	<circle cx="559.2728386450" cy="-370.9856983341" r="2" />
	<circle cx="1000.0000000000" cy="-0.0000000000" r="2" />
	<circle cx="1000.0000000000" cy="-0.0000000000" r="2" />
	<circle cx="0.0000000001" cy="-0.0000000000" r="2" />
	<circle cx="0.0000000000" cy="-0.0000000000" r="2" />
	<circle cx="482.4993013112" cy="-220.1355736974" r="2" />
	<circle cx="500.0000000000" cy="-866.0254038000" r="2" />
	<circle cx="993.1375775165" cy="-11.3493272135" r="2" />
	<circle cx="500.0000000000" cy="-866.0254038000" r="2" />
	<circle cx="1000.0000000000" cy="-0.0000000000" r="2" />
	<circle cx="1000.0000000000" cy="-0.0000000000" r="2" />
	<circle cx="500.0000000000" cy="-866.0254038000" r="2" />
	<circle cx="1000.0000000000" cy="-0.0000000000" r="2" />
	<circle cx="0.0000000000" cy="-0.0000000000" r="2" />
	<circle cx="500.0000000000" cy="-866.0253999970" r="2" />
	<circle cx="1000.0000000000" cy="-0.0000000000" r="2" />
	<circle cx="499.9368466116" cy="-735.5586422718" r="2" />
	<circle cx="499.4328617559" cy="-809.4041715434" r="2" />
	<circle cx="17.0111432438" cy="-9.8266507311" r="2" />
	<circle cx="500.0000000000" cy="-866.0254038000" r="2" />
	<circle cx="500.0000000000" cy="-866.0254038000" r="2" />
	<circle cx="1000.0000000000" cy="-0.0000000000" r="2" />
	<circle cx="1000.0000000000" cy="-0.0000000000" r="2" />
	<circle cx="999.9999966243" cy="-0.0000027254" r="2" />
	<circle cx="735.7663705190" cy="-193.3499197523" r="2" />
	<circle cx="0.0000000000" cy="-0.0000000000" r="2" />
	<circle cx="336.8147035681" cy="-194.4987891824" r="2" />
	<circle cx="1000.0000000000" cy="-0.0000000000" r="2" />
	<circle cx="0.0000000000" cy="-0.0000000000" r="2" />
	<circle cx="500.0000000027" cy="-866.0254037828" r="2" />
	<circle cx="500.0000000000" cy="-866.0254038000" r="2" />
	<circle cx="500.0000000000" cy="-866.0254038000" r="2" />
	<circle cx="500.0000000000" cy="-866.0254038000" r="2" />
	<circle cx="490.4628923858" cy="-546.6680190311" r="2" />
	<circle cx="0.0000000000" cy="-0.0000000000" r="2" />
	<circle cx="999.9999983111" cy="-0.0000019461" r="2" />
	<circle cx="500.0000000000" cy="-866.0254038000" r="2" />
	<circle cx="999.9999979528" cy="-0.0000012734" r="2" />
	<circle cx="500.0000000000" cy="-866.0254037999" r="2" />
	<circle cx="499.0476608965" cy="-760.7425862757" r="2" />
	<circle cx="500.0115705879" cy="-865.9983163698" r="2" />
	<circle cx="845.3318814519" cy="-92.8046165842" r="2" />
	<circle cx="159.2299785974" cy="-0.0215741107" r="2" />
	<circle cx="0.2202214759" cy="-0.1271987264" r="2" />
	<circle cx="999.9999965665" cy="-0.0000016109" r="2" />
	<circle cx="1000.0000000000" cy="-0.0000000000" r="2" />
	<circle cx="0.0000000000" cy="-0.0000000000" r="2" />
	<circle cx="0.0061987636" cy="-0.0028485779" r="2" />
	<circle cx="337.0603848006" cy="-143.5788618663" r="2" />
	<circle cx="0.1545987168" cy="-0.1438223643" r="2" />
	<circle cx="0.0000000000" cy="-0.0000000000" r="2" />
	<circle cx="499.9720854262" cy="-786.3215177751" r="2" />
	<circle cx="0.0000000000" cy="-0.0000000000" r="2" />
	<circle cx="354.7206321517" cy="-204.6999272928" r="2" />
	<circle cx="1000.0000000000" cy="-0.0000000000" r="2" />
	<circle cx="999.9999999942" cy="-0.0000000006" r="2" />
	<circle cx="340.6610802246" cy="-588.6827655728" r="2" />
	<circle cx="999.9999546104" cy="-0.0000256412" r="2" />
	<circle cx="737.1287023435" cy="-151.7594367688" r="2" />
	<circle cx="500.0000000000" cy="-866.0254038000" r="2" />
	<circle cx="950.1640108713" cy="-11.3980585534" r="2" />
	<circle cx="999.9999239259" cy="-0.0000912535" r="2" />
	<circle cx="1000.0000000000" cy="-0.0000000000" r="2" />
	<circle cx="992.3748598285" cy="-4.4346999955" r="2" />
	<circle cx="925.1372901340" cy="-43.2563169396" r="2" />
	<circle cx="500.0000000000" cy="-866.0254038000" r="2" />
	<circle cx="51.0539642731" cy="-0.3184655687" r="2" />
	<circle cx="500.0000052676" cy="-866.0000885446" r="2" />
	<circle cx="500.0000000000" cy="-866.0254038000" r="2" />
	<circle cx="0.0000000312" cy="-0.0000000186" r="2" />
	<circle cx="500.0000005913" cy="-866.0253949756" r="2" />
	<circle cx="500.0000000000" cy="-866.0254037999" r="2" />
	<circle cx="500.0000000000" cy="-866.0254038000" r="2" />
	<circle cx="180.6210503081" cy="-100.2678052452" r="2" />
	<circle cx="500.0000000000" cy="-866.0254038000" r="2" />
	<circle cx="501.7262414090" cy="-420.8236469288" r="2" />
	<circle cx="1000.0000000000" cy="-0.0000000000" r="2" />
	<circle cx="961.1119084438" cy="-22.4674521976" r="2" />
	<circle cx="500.0000000000" cy="-866.0254038000" r="2" />
	<circle cx="500.0000000000" cy="-866.0254038000" r="2" />
	<circle cx="920.2778052684" cy="-0.2853985640" r="2" />
	<circle cx="500.0000000000" cy="-866.0254038000" r="2" />
	<circle cx="499.9999999998" cy="-866.0254037561" r="2" />
	<circle cx="0.0000000000" cy="-0.0000000000" r="2" />
	<circle cx="497.6910994765" cy="-802.5310462314" r="2" />
	<circle cx="998.3483935875" cy="-0.0128622193" r="2" />
	<circle cx="999.9999678288" cy="-0.0000133922" r="2" />
	<circle cx="0.0000000000" cy="-0.0000000000" r="2" />
	<circle cx="0.0000000000" cy="-0.0000000000" r="2" />
	<circle cx="500.0000000000" cy="-866.0254038000" r="2" />
	<circle cx="999.9999999925" cy="-0.0000000044" r="2" />
	<circle cx="500.0061650845" cy="-865.7065000664" r="2" />
	<circle cx="1000.0000000000" cy="-0.0000000000" r="2" />
	<circle cx="500.0000000000" cy="-866.0254038000" r="2" />
	<circle cx="1000.0000000000" cy="-0.0000000000" r="2" />
	<circle cx="1000.0000000000" cy="-0.0000000000" r="2" />
	<circle cx="500.0000000000" cy="-866.0254038000" r="2" />
	<circle cx="0.0000000000" cy="-0.0000000000" r="2" />
	<circle cx="0.0000000000" cy="-0.0000000000" r="2" />
	<circle cx="677.7833440907" cy="-153.7945709962" r="2" />
	<circle cx="815.2572956250" cy="-2.9006339241" r="2" />
	<circle cx="1000.0000000000" cy="-0.0000000000" r="2" />
	<circle cx="1000.0000000000" cy="-0.0000000000" r="2" />
	<circle cx="0.4037290414" cy="-0.6849347369" r="2" />
	<circle cx="0.0000000000" cy="-0.0000000000" r="2" />
	<circle cx="500.0000000000" cy="-866.0254038000" r="2" />
	<circle cx="500.0000000000" cy="-866.0254038000" r="2" />
	<circle cx="500.0000000000" cy="-866.0254038000" r="2" />
	<circle cx="0.0000000000" cy="-0.0000000000" r="2" />
	<circle cx="0.0000000000" cy="-0.0000000000" r="2" />
	<circle cx="500.0000000000" cy="-866.0254038000" r="2" />
	<circle cx="999.9999977686" cy="-0.0000012874" r="2" />
	<circle cx="997.5350669704" cy="-1.4219689781" r="2" />
	<circle cx="29.1616168247" cy="-15.9468557549" r="2" />
	<circle cx="0.0000000000" cy="-0.0000000000" r="2" />
	<circle cx="500.0034943228" cy="-696.4860206879" r="2" />
	<circle cx="999.9999563097" cy="-0.0000256303" r="2" />
	<circle cx="500.0000000000" cy="-866.0254037976" r="2" />
	<circle cx="0.0000000006" cy="-0.0000000003" r="2" />
	<circle cx="0.0000000071" cy="-0.0000000041" r="2" />
	<circle cx="500.0306871982" cy="-865.9416751427" r="2" />
	<circle cx="637.0141495525" cy="-131.6103964336" r="2" />
	<circle cx="0.0000000057" cy="-0.0000000032" r="2" />
	<circle cx="0.0197463858" cy="-0.0013781486" r="2" />
	<circle cx="0.0000000000" cy="-0.0000000000" r="2" />
	<circle cx="500.0000000000" cy="-866.0254038000" r="2" />
	<circle cx="1000.0000000000" cy="-0.0000000000" r="2" />
	<circle cx="500.0000000000" cy="-866.0254038000" r="2" />
	<circle cx="500.0000000000" cy="-866.0254038000" r="2" />
	<circle cx="500.0000000000" cy="-866.0254038000" r="2" />
	<circle cx="500.0000000000" cy="-866.0254038000" r="2" />
	<circle cx="500.0000000000" cy="-866.0254038000" r="2" />
	<circle cx="499.9587908756" cy="-666.3205416582" r="2" />
	<circle cx="500.0000000000" cy="-866.0254038000" r="2" />
	<circle cx="1000.0000000000" cy="-0.0000000000" r="2" />
	<circle cx="920.2298652543" cy="-47.0094562112" r="2" />
	<circle cx="500.0000000000" cy="-866.0254038000" r="2" />
	<circle cx="500.0000000000" cy="-866.0254038000" r="2" />
	<circle cx="0.1993352368" cy="-0.0288280040" r="2" />
	<circle cx="499.9999999982" cy="-866.0253920231" r="2" />
	<circle cx="0.0000000000" cy="-0.0000000000" r="2" />
	<circle cx="0.1698455283" cy="-0.0105053152" r="2" />
	<circle cx="500.0000000000" cy="-866.0254038000" r="2" />
	<circle cx="465.9541012860" cy="-612.4238213054" r="2" />
	<circle cx="0.0000000000" cy="-0.0000000000" r="2" />
	<circle cx="1000.0000000000" cy="-0.0000000000" r="2" />
	<circle cx="0.0000000000" cy="-0.0000000000" r="2" />
	<circle cx="714.6796664738" cy="-164.3534377940" r="2" />
	<circle cx="500.0000000000" cy="-866.0254037328" r="2" />
	<circle cx="0.0000000000" cy="-0.0000000000" r="2" />
	<circle cx="1000.0000000000" cy="-0.0000000000" r="2" />
	<circle cx="500.0197850115" cy="-789.8577799323" r="2" />
	<circle cx="1000.0000000000" cy="-0.0000000000" r="2" />
	<circle cx="999.9925914028" cy="-0.0073962047" r="2" />
	<circle cx="93.2071846469" cy="-53.7725157594" r="2" />
	<circle cx="500.0000000000" cy="-866.0254038000" r="2" />
	<circle cx="0.0000000000" cy="-0.0000000000" r="2" />
	<circle cx="500.0008141128" cy="-862.2919834294" r="2" />
	<circle cx="1000.0000000000" cy="-0.0000000000" r="2" />
	<circle cx="671.3191992761" cy="-130.5538569636" r="2" />
	<circle cx="0.0000000000" cy="-0.0000000000" r="2" />
	<circle cx="498.7733536376" cy="-287.9430331982" r="2" />
	<circle cx="0.0000000000" cy="-0.0000000000" r="2" />
	<circle cx="0.0000000000" cy="-0.0000000000" r="2" />
	<circle cx="0.0000000000" cy="-0.0000000000" r="2" />
	<circle cx="504.4596023047" cy="-727.2056250439" r="2" />
	<circle cx="500.0000000000" cy="-866.0254038000" r="2" />
	<circle cx="473.7232624359" cy="-611.9822578420" r="2" />
	<circle cx="500.0036826245" cy="-851.1749723153" r="2" />
	<circle cx="500.0000000000" cy="-866.0254038000" r="2" />
	<circle cx="0.0000000000" cy="-0.0000000000" r="2" />
	<circle cx="500.0000000000" cy="-866.0254038000" r="2" />
	<circle cx="499.9999999999" cy="-866.0254037608" r="2" />
	<circle cx="0.0000002086" cy="-0.0000001074" r="2" />
	<circle cx="1000.0000000000" cy="-0.0000000000" r="2" />
	<circle cx="999.9999999928" cy="-0.0000000042" r="2" />
	<circle cx="38.9799141800" cy="-21.2843793469" r="2" />
	<circle cx="500.0000000000" cy="-866.0254038000" r="2" />
	<circle cx="955.6901857856" cy="-40.2216335462" r="2" />
	<circle cx="0.0000000000" cy="-0.0000000000" r="2" />
	<circle cx="3.3508583694" cy="-5.5047547398" r="2" />
	<circle cx="999.9676697829" cy="-0.0186744679" r="2" />
	<circle cx="1000.0000000000" cy="-0.0000000000" r="2" />
	<circle cx="510.3986936411" cy="-294.3872354360" r="2" />
	<circle cx="384.5742482382" cy="-415.4873250905" r="2" />
	<circle cx="0.0000000000" cy="-0.0000000000" r="2" />
	<circle cx="1000.0000000000" cy="-0.0000000000" r="2" />
	<circle cx="1000.0000000000" cy="-0.0000000000" r="2" />
	<circle cx="504.5889384974" cy="-544.1831788176" r="2" />
	<circle cx="500.3157296710" cy="-499.7669737701" r="2" />
	<circle cx="0.0000000030" cy="-0.0000000017" r="2" />
	<circle cx="1000.0000000000" cy="-0.0000000000" r="2" />
	<circle cx="1000.0000000000" cy="-0.0000000000" r="2" />
	<circle cx="0.0000000000" cy="-0.0000000000" r="2" />
	<circle cx="1000.0000000000" cy="-0.0000000000" r="2" />
	<circle cx="500.0000000000" cy="-866.0254038000" r="2" />
	<circle cx="500.0269456992" cy="-785.8768426668" r="2" />
	<circle cx="554.3762274681" cy="-196.7027884317" r="2" />
	<circle cx="510.2396357199" cy="-848.1228299728" r="2" />
	<circle cx="500.0000000000" cy="-866.0254038000" r="2" />
	<circle cx="500.0088125162" cy="-772.3555801724" r="2" />
  </g>
  <g id="fig2" transform="translate(-550.0,1000)">
	<polygon points="0.0,-0.0 1000.0,-0.0 500.0,-866.0254038" />
	<line
	   id="line2-1"
	   y2="-0.0"
	   x2="500"
	   y1="-288.6751346"
	   x1="500" />
	<line
	   id="line2-2"
	   y2="-433.0127019"
	   x2="250"
	   y1="-288.6751346"
	   x1="500" />
	<line
	   id="line2-3"
	   y2="-433.0127019"
	   x2="750"
	   y1="-288.6751346"
	   x1="500" />
	<text
	   x="440"
	   y="-500"
	   id="up_2">36.8%</text>
	<text
	   x="250"
	   y="-150"
	   id="down_left_2">32.4%</text>
	<text
	   x="630"
	   y="-150"
	   id="down_right_2">30.8%</text>
  </g>
  <g id="fig3" transform="translate(550,1000)">
	<polygon points="0.0,-0.0 1000.0,-0.0 500.0,-866.0254038" />
	<polygon id="triangle3b" points="250,-144.3375673 750,-144.3375673 500,-577.3502692" />
	<line
	   id="line3-1"
	   x1="125"
	   y1="-216.5063509"
	   x2="250"
	   y2="-144.3375673" />
	<line
	   id="line3-2"
	   x1="375"
	   y1="-649.5190528"
	   x2="500"
	   y2="-577.3502692" />
	<line
	   id="line3-3"
	   x1="625"
	   y1="-649.5190528"
	   x2="500"
	   y2="-577.3502692" />
	<line
	   id="line3-4"
	   x1="875"
	   y1="-216.5063509"
	   x2="750"
	   y2="-144.3375673" />
	<line
	   id="line3-5"
	   x1="750"
	   y1="-0.0"
	   x2="750"
	   y2="-144.3375673" />
	<line
	   id="line3-6"
	   x1="250"
	   y1="-0.0"
	   x2="250"
	   y2="-144.3375673" />
	<text
	   x="500"
	   y="-660"
	   text-anchor="middle"
	   id="up_3">33.2%</text>
	<text
	   y="-50"
	   x="70"
	   id="down_left_3">29.2%</text>
	<text
	   y="-50"
	   x="770"
	   id="down_right_3">27.8%</text>
	<text
	   x="500"
	   y="-50"
	   text-anchor="middle"
	   id="down_side_3">1.2%</text>
	<text
	   x="500"
	   y="-280"
	   text-anchor="middle"
	   id="center_3">7.8%</text>
	<text
	   x="685.0"
	   y="-390.8439"
	   text-anchor="middle"
	   transform="rotate(60,665.0,-380.8439)"
	   id="right_side_3">0.2%</text>
	<text
	   x="315.0"
	   y="-390.8439"
	   text-anchor="middle"
	   transform="rotate(-60,335.0,-380.8439)"
	   id="left_side_3">0.6%</text>
  </g>
</g></g>
</svg>
