<?xml version="1.0" encoding="UTF-8" standalone="no"?>
<!DOCTYPE svg PUBLIC "-//W3C//DTD SVG 1.1//EN" "http://www.w3.org/Graphics/SVG/1.1/DTD/svg11.dtd">
<svg
   xmlns:svg="http://www.w3.org/2000/svg"
   xmlns="http://www.w3.org/2000/svg"
   xmlns:xlink="http://www.w3.org/1999/xlink"
   version="1.1"
   baseProfile="full"
   id="body"
   width="800px"
   height="800px"
   viewBox="0 0 1000 1000"
   preserveAspectRatio="none">
  <defs>
    <style type="text/css"><![CDATA[
      circle{ stroke: none; }
      polygon{ stroke: black; stroke-width: 2px; fill: none; }
      line{ stroke: black; stroke-width: 2px; }
      text{ font-size:50px; }
    ]]></style>
  </defs>
  <title
     id="title1">SVG drawing</title>
<g transform="scale(0.45)"><g transform="translate(600,1050)">
  <g id="fig1">
	<polygon points="0.0,-0.0 1000.0,-0.0 500,-866.0254038" />
	<circle cx="0.0000000071" cy="-0.0000000008" r="2" />
	<circle cx="499.9959314047" cy="-834.6788261969" r="2" />
	<circle cx="0.0000000000" cy="-0.0000000000" r="2" />
	<circle cx="0.0001887181" cy="-0.0001073707" r="2" />
	<circle cx="0.0625501802" cy="-0.0121852426" r="2" />
	<circle cx="500.0000000000" cy="-866.0254038000" r="2" />
	<circle cx="497.8730704177" cy="-772.3011666637" r="2" />
	<circle cx="1000.0000000000" cy="-0.0000000000" r="2" />
	<circle cx="399.8171827143" cy="-261.3416242292" r="2" />
	<circle cx="53.2085170344" cy="-19.7601440458" r="2" />
	<circle cx="1000.0000000000" cy="-0.0000000000" r="2" />
	<circle cx="977.1349763979" cy="-29.8737404514" r="2" />
	<circle cx="253.6437405137" cy="-36.2567506088" r="2" />
	<circle cx="0.0000000000" cy="-0.0000000000" r="2" />
	<circle cx="999.9980706946" cy="-0.0015419036" r="2" />
	<circle cx="500.0000000000" cy="-866.0254038000" r="2" />
	<circle cx="508.2373681838" cy="-678.3203731289" r="2" />
	<circle cx="0.0000000000" cy="-0.0000000000" r="2" />
	<circle cx="500.0000000000" cy="-866.0254038000" r="2" />
	<circle cx="579.6033801368" cy="-275.1598259944" r="2" />
	<circle cx="0.0000000000" cy="-0.0000000000" r="2" />
	<circle cx="0.0000000000" cy="-0.0000000000" r="2" />
	<circle cx="1000.0000000000" cy="-0.0000000000" r="2" />
	<circle cx="0.0000000016" cy="-0.0000000010" r="2" />
	<circle cx="0.0342962073" cy="-0.0215064335" r="2" />
	<circle cx="0.0587296129" cy="-0.0347422654" r="2" />
	<circle cx="0.0000000000" cy="-0.0000000000" r="2" />
	<circle cx="999.9999994247" cy="-0.0000003180" r="2" />
	<circle cx="999.9996701413" cy="-0.0002029896" r="2" />
	<circle cx="500.0000000001" cy="-866.0254034511" r="2" />
	<circle cx="499.9907321856" cy="-865.9262570091" r="2" />
	<circle cx="500.0037327700" cy="-865.9887041838" r="2" />
	<circle cx="500.0000009688" cy="-866.0159388140" r="2" />
	<circle cx="499.9999999889" cy="-866.0249712289" r="2" />
	<circle cx="200.7760311310" cy="-7.2355315482" r="2" />
	<circle cx="1000.0000000000" cy="-0.0000000000" r="2" />
	<circle cx="499.9999988336" cy="-866.0216682730" r="2" />
	<circle cx="499.9994453741" cy="-865.9659003455" r="2" />
	<circle cx="499.9999999815" cy="-866.0244890433" r="2" />
	<circle cx="1000.0000000000" cy="-0.0000000000" r="2" />
	<circle cx="499.6159992997" cy="-848.0164830677" r="2" />
	<circle cx="1.4810667086" cy="-1.2214104856" r="2" />
	<circle cx="999.9999999944" cy="-0.0000000028" r="2" />
	<circle cx="0.0000000000" cy="-0.0000000000" r="2" />
	<circle cx="0.0000000002" cy="-0.0000000003" r="2" />
	<circle cx="0.0000000000" cy="-0.0000000000" r="2" />
	<circle cx="999.9999798431" cy="-0.0000116377" r="2" />
	<circle cx="747.1062271116" cy="-297.8719589106" r="2" />
	<circle cx="999.9999999106" cy="-0.0000000501" r="2" />
	<circle cx="498.0974256815" cy="-859.3518718355" r="2" />
	<circle cx="1000.0000000000" cy="-0.0000000000" r="2" />
	<circle cx="0.0000000000" cy="-0.0000000000" r="2" />
	<circle cx="500.0000000000" cy="-866.0254037997" r="2" />
	<circle cx="0.0000000034" cy="-0.0000000013" r="2" />
	<circle cx="0.0000000000" cy="-0.0000000000" r="2" />
	<circle cx="499.7825519091" cy="-797.7812243991" r="2" />
	<circle cx="500.2857215296" cy="-862.9348226136" r="2" />
	<circle cx="1000.0000000000" cy="-0.0000000000" r="2" />
	<circle cx="1000.0000000000" cy="-0.0000000000" r="2" />
	<circle cx="0.0000000000" cy="-0.0000000000" r="2" />
	<circle cx="0.0046352954" cy="-0.0026761908" r="2" />
	<circle cx="0.0000000000" cy="-0.0000000000" r="2" />
	<circle cx="0.0016467897" cy="-0.0009491791" r="2" />
	<circle cx="999.9999604568" cy="-0.0000227837" r="2" />
	<circle cx="0.0000000000" cy="-0.0000000000" r="2" />
	<circle cx="980.0750303847" cy="-34.3831673343" r="2" />
	<circle cx="1000.0000000000" cy="-0.0000000000" r="2" />
	<circle cx="500.0000000000" cy="-866.0254038000" r="2" />
	<circle cx="500.0000000000" cy="-866.0254038000" r="2" />
	<circle cx="500.0000000000" cy="-866.0254038000" r="2" />
	<circle cx="483.8849267362" cy="-485.0811156102" r="2" />
	<circle cx="999.4414172553" cy="-0.7358709620" r="2" />
	<circle cx="499.9998446206" cy="-865.5848104581" r="2" />
	<circle cx="623.3966233789" cy="-252.3705628932" r="2" />
	<circle cx="0.0001811378" cy="-0.0003137082" r="2" />
	<circle cx="1000.0000000000" cy="-0.0000000000" r="2" />
	<circle cx="5.6491924255" cy="-3.3259736626" r="2" />
	<circle cx="476.6344717465" cy="-246.7058264224" r="2" />
	<circle cx="0.0000000239" cy="-0.0000000018" r="2" />
	<circle cx="343.6074084863" cy="-130.9961519746" r="2" />
	<circle cx="999.9861163930" cy="-0.0080130492" r="2" />
	<circle cx="499.9999999999" cy="-866.0254030411" r="2" />
	<circle cx="499.9999999971" cy="-866.0254037907" r="2" />
	<circle cx="998.7791252389" cy="-1.9906534406" r="2" />
	<circle cx="499.9833159519" cy="-851.4213696467" r="2" />
	<circle cx="500.0000000000" cy="-866.0254038000" r="2" />
	<circle cx="310.5255598158" cy="-183.7223108970" r="2" />
	<circle cx="0.0000000002" cy="-0.0000000003" r="2" />
	<circle cx="994.9487376908" cy="-2.3105213465" r="2" />
	<circle cx="500.2894775246" cy="-864.4808824842" r="2" />
	<circle cx="0.0000000000" cy="-0.0000000000" r="2" />
	<circle cx="999.9999846543" cy="-0.0000088592" r="2" />
	<circle cx="24.5329052017" cy="-12.1791030880" r="2" />
	<circle cx="500.0000000041" cy="-866.0254037741" r="2" />
	<circle cx="0.0000000000" cy="-0.0000000000" r="2" />
	<circle cx="499.5549593361" cy="-839.6187800822" r="2" />
	<circle cx="153.2868661828" cy="-0.0591566818" r="2" />
	<circle cx="13.3238667043" cy="-8.9884508732" r="2" />
	<circle cx="0.0000000000" cy="-0.0000000000" r="2" />
	<circle cx="569.1701189764" cy="-466.3440419309" r="2" />
	<circle cx="495.3680895963" cy="-709.3393261557" r="2" />
	<circle cx="0.0000000000" cy="-0.0000000000" r="2" />
	<circle cx="0.4770253941" cy="-0.2777039710" r="2" />
	<circle cx="437.0329211691" cy="-443.5750452871" r="2" />
	<circle cx="500.0000000000" cy="-866.0254037999" r="2" />
	<circle cx="266.3842205318" cy="-211.2646933461" r="2" />
	<circle cx="500.0000000000" cy="-866.0254038000" r="2" />
	<circle cx="338.9077816305" cy="-530.3507299717" r="2" />
	<circle cx="0.0000000000" cy="-0.0000000000" r="2" />
	<circle cx="500.0579806959" cy="-865.8924986908" r="2" />
	<circle cx="1000.0000000000" cy="-0.0000000000" r="2" />
	<circle cx="1000.0000000000" cy="-0.0000000000" r="2" />
	<circle cx="967.4494795623" cy="-16.3897046093" r="2" />
	<circle cx="500.0000000000" cy="-866.0254038000" r="2" />
	<circle cx="0.0000000000" cy="-0.0000000000" r="2" />
	<circle cx="3.3658435632" cy="-0.0000000034" r="2" />
	<circle cx="1000.0000000000" cy="-0.0000000000" r="2" />
	<circle cx="500.0000000000" cy="-866.0254038000" r="2" />
	<circle cx="0.0000744342" cy="-0.0000430369" r="2" />
	<circle cx="500.0000000004" cy="-866.0254037992" r="2" />
	<circle cx="0.0000000000" cy="-0.0000000000" r="2" />
	<circle cx="500.0000000000" cy="-866.0253958439" r="2" />
	<circle cx="999.9999541377" cy="-0.0000263521" r="2" />
	<circle cx="999.9999633052" cy="-0.0000213780" r="2" />
	<circle cx="498.5903693423" cy="-774.3568194037" r="2" />
	<circle cx="999.9999999993" cy="-0.0000000004" r="2" />
	<circle cx="500.0000004011" cy="-866.0252938043" r="2" />
	<circle cx="0.0000000000" cy="-0.0000000000" r="2" />
	<circle cx="53.7899135048" cy="-29.7338535749" r="2" />
	<circle cx="500.0000000000" cy="-866.0254038000" r="2" />
	<circle cx="0.0000007493" cy="-0.0000001198" r="2" />
	<circle cx="499.9999999998" cy="-866.0254037997" r="2" />
	<circle cx="500.0010104300" cy="-864.1917834623" r="2" />
	<circle cx="500.0000002681" cy="-866.0253435636" r="2" />
	<circle cx="0.0000000018" cy="-0.0000000011" r="2" />
	<circle cx="0.0000000048" cy="-0.0000000033" r="2" />
	<circle cx="999.9999999999" cy="-0.0000000001" r="2" />
	<circle cx="499.9944989375" cy="-864.7123051179" r="2" />
	<circle cx="0.0000000000" cy="-0.0000000000" r="2" />
	<circle cx="853.5532326215" cy="-87.7774805947" r="2" />
	<circle cx="512.6930785443" cy="-185.9455846931" r="2" />
	<circle cx="723.8619805390" cy="-4.6211748761" r="2" />
	<circle cx="0.0000000000" cy="-0.0000000000" r="2" />
	<circle cx="499.9996780837" cy="-865.7838865281" r="2" />
	<circle cx="499.9923233573" cy="-865.9468956436" r="2" />
	<circle cx="0.0000000000" cy="-0.0000000000" r="2" />
	<circle cx="499.9999978695" cy="-866.0086494437" r="2" />
	<circle cx="500.1043958636" cy="-792.6001650547" r="2" />
	<circle cx="500.0000000420" cy="-866.0254035909" r="2" />
	<circle cx="999.9842725473" cy="-0.0090821654" r="2" />
	<circle cx="385.1933635567" cy="-146.5045518231" r="2" />
	<circle cx="999.9999999386" cy="-0.0000000080" r="2" />
	<circle cx="500.0000000000" cy="-866.0254038000" r="2" />
	<circle cx="999.9848393552" cy="-0.0087494381" r="2" />
	<circle cx="500.0000014674" cy="-865.8972941274" r="2" />
	<circle cx="455.0132608191" cy="-520.8809295482" r="2" />
	<circle cx="0.0004185053" cy="-0.0000000005" r="2" />
	<circle cx="994.2359607874" cy="-3.2999496107" r="2" />
	<circle cx="500.0000000000" cy="-866.0254038000" r="2" />
	<circle cx="1000.0000000000" cy="-0.0000000000" r="2" />
	<circle cx="999.8677512865" cy="-0.0938112067" r="2" />
	<circle cx="259.9888650476" cy="-220.3038804354" r="2" />
	<circle cx="575.0643355096" cy="-581.0485490595" r="2" />
	<circle cx="548.5204467699" cy="-217.7691505318" r="2" />
	<circle cx="122.0872316097" cy="-185.6529384907" r="2" />
	<circle cx="0.8542561012" cy="-0.3394700267" r="2" />
	<circle cx="0.0001575550" cy="-0.0000438740" r="2" />
	<circle cx="721.1449450038" cy="-461.7921214551" r="2" />
	<circle cx="499.5922140435" cy="-865.2928669626" r="2" />
	<circle cx="998.2793989820" cy="-0.9932282748" r="2" />
	<circle cx="499.9999997865" cy="-866.0254034283" r="2" />
	<circle cx="1000.0000000000" cy="-0.0000000000" r="2" />
	<circle cx="198.0610357224" cy="-312.0752140664" r="2" />
	<circle cx="999.9980506901" cy="-0.0011213094" r="2" />
	<circle cx="1000.0000000000" cy="-0.0000000000" r="2" />
	<circle cx="0.0000784411" cy="-0.0000450189" r="2" />
	<circle cx="495.9711237574" cy="-857.0596355162" r="2" />
	<circle cx="1000.0000000000" cy="-0.0000000000" r="2" />
	<circle cx="999.9911254189" cy="-0.0051239972" r="2" />
	<circle cx="499.9068597314" cy="-828.9774968793" r="2" />
	<circle cx="943.1531606636" cy="-32.3183616135" r="2" />
	<circle cx="500.0000000000" cy="-866.0254038000" r="2" />
	<circle cx="501.7764169810" cy="-741.1005376358" r="2" />
	<circle cx="950.4184118247" cy="-26.3171669328" r="2" />
	<circle cx="1000.0000000000" cy="-0.0000000000" r="2" />
	<circle cx="0.5127428890" cy="-0.6857508566" r="2" />
	<circle cx="999.9999996023" cy="-0.0000002873" r="2" />
	<circle cx="1000.0000000000" cy="-0.0000000000" r="2" />
	<circle cx="1000.0000000000" cy="-0.0000000000" r="2" />
	<circle cx="928.9556568516" cy="-10.9708384733" r="2" />
	<circle cx="0.0000003951" cy="-0.0000003189" r="2" />
	<circle cx="1000.0000000000" cy="-0.0000000000" r="2" />
	<circle cx="999.9933243898" cy="-0.0038542580" r="2" />
	<circle cx="52.4649503737" cy="-23.0035087502" r="2" />
	<circle cx="1000.0000000000" cy="-0.0000000000" r="2" />
	<circle cx="433.4383703858" cy="-226.1091337884" r="2" />
	<circle cx="981.2509224849" cy="-11.3722917508" r="2" />
	<circle cx="500.0000000000" cy="-866.0254038000" r="2" />
	<circle cx="1000.0000000000" cy="-0.0000000000" r="2" />
	<circle cx="945.8188915944" cy="-3.3651044430" r="2" />
	<circle cx="1.1305417866" cy="-0.6536060844" r="2" />
	<circle cx="998.7851829478" cy="-0.7964651206" r="2" />
	<circle cx="633.5868558284" cy="-221.3562285977" r="2" />
	<circle cx="0.0000000000" cy="-0.0000000000" r="2" />
	<circle cx="2.5928331014" cy="-1.4932994843" r="2" />
	<circle cx="265.1361469516" cy="-166.3821977374" r="2" />
	<circle cx="0.0000000000" cy="-0.0000000000" r="2" />
	<circle cx="1000.0000000000" cy="-0.0000000000" r="2" />
	<circle cx="0.0000000177" cy="-0.0000000111" r="2" />
	<circle cx="500.0000000017" cy="-866.0253746291" r="2" />
	<circle cx="999.9997280153" cy="-0.0001570195" r="2" />
	<circle cx="500.0000000000" cy="-866.0254038000" r="2" />
	<circle cx="0.0000090457" cy="-0.0000052396" r="2" />
	<circle cx="0.0000000000" cy="-0.0000000000" r="2" />
	<circle cx="868.8224385411" cy="-53.5642943373" r="2" />
	<circle cx="500.0000000000" cy="-866.0254038000" r="2" />
	<circle cx="0.0000000000" cy="-0.0000000000" r="2" />
	<circle cx="501.2980869372" cy="-849.6233439521" r="2" />
	<circle cx="0.0000000000" cy="-0.0000000000" r="2" />
	<circle cx="274.4195363971" cy="-125.7514366320" r="2" />
	<circle cx="365.8901163950" cy="-193.7464076364" r="2" />
	<circle cx="499.9999999982" cy="-866.0254035568" r="2" />
	<circle cx="930.7645170845" cy="-30.8022518465" r="2" />
	<circle cx="1000.0000000000" cy="-0.0000000000" r="2" />
	<circle cx="500.0000009047" cy="-866.0252570392" r="2" />
	<circle cx="17.7275089227" cy="-10.2264691287" r="2" />
	<circle cx="594.4434140495" cy="-687.2822342714" r="2" />
	<circle cx="970.4718624903" cy="-3.4348437644" r="2" />
	<circle cx="499.9999999996" cy="-866.0253919607" r="2" />
	<circle cx="999.9776993035" cy="-0.0007811827" r="2" />
	<circle cx="1000.0000000000" cy="-0.0000000000" r="2" />
	<circle cx="963.4744134545" cy="-20.4766418325" r="2" />
	<circle cx="500.0000000000" cy="-866.0254038000" r="2" />
	<circle cx="499.9979593760" cy="-865.9673075529" r="2" />
	<circle cx="0.0000000000" cy="-0.0000000000" r="2" />
	<circle cx="499.1315954402" cy="-379.1958533064" r="2" />
	<circle cx="859.9870487346" cy="-5.2490719015" r="2" />
	<circle cx="1000.0000000000" cy="-0.0000000000" r="2" />
	<circle cx="1000.0000000000" cy="-0.0000000000" r="2" />
	<circle cx="1000.0000000000" cy="-0.0000000000" r="2" />
	<circle cx="500.0000000062" cy="-866.0253462564" r="2" />
	<circle cx="32.1232341004" cy="-18.6519520277" r="2" />
	<circle cx="471.9881531264" cy="-653.1317069399" r="2" />
	<circle cx="650.7600305021" cy="-273.4304964645" r="2" />
	<circle cx="0.0002154779" cy="-0.0000679245" r="2" />
	<circle cx="999.2126532486" cy="-0.4734900675" r="2" />
	<circle cx="999.9999999997" cy="-0.0000000002" r="2" />
	<circle cx="999.7251220065" cy="-0.1582182203" r="2" />
	<circle cx="0.0000000000" cy="-0.0000000000" r="2" />
	<circle cx="0.0000000000" cy="-0.0000000000" r="2" />
	<circle cx="0.0000000049" cy="-0.0000000009" r="2" />
	<circle cx="999.9999394144" cy="-0.0000651626" r="2" />
	<circle cx="0.0003502493" cy="-0.0002019541" r="2" />
	<circle cx="500.0000002205" cy="-866.0254014416" r="2" />
	<circle cx="1000.0000000000" cy="-0.0000000000" r="2" />
	<circle cx="999.5970183747" cy="-0.2323146807" r="2" />
	<circle cx="0.0000000000" cy="-0.0000000000" r="2" />
	<circle cx="0.0000000004" cy="-0.0000000002" r="2" />
	<circle cx="999.6617945580" cy="-0.1956431499" r="2" />
	<circle cx="497.5404407487" cy="-778.6376847951" r="2" />
	<circle cx="1000.0000000000" cy="-0.0000000000" r="2" />
	<circle cx="10.6670708027" cy="-6.1512667162" r="2" />
	<circle cx="499.9619288932" cy="-859.4309340687" r="2" />
	<circle cx="500.0000000000" cy="-866.0254038000" r="2" />
	<circle cx="988.3983623012" cy="-6.6988105961" r="2" />
	<circle cx="0.0000000549" cy="-0.0000000323" r="2" />
	<circle cx="103.0036559666" cy="-52.8554501566" r="2" />
	<circle cx="23.8097132152" cy="-3.6899925366" r="2" />
	<circle cx="0.0000000000" cy="-0.0000000000" r="2" />
	<circle cx="999.9999999992" cy="-0.0000000005" r="2" />
	<circle cx="487.0490565265" cy="-127.7046061866" r="2" />
	<circle cx="6.2301130938" cy="-1.8831266959" r="2" />
	<circle cx="999.7678342382" cy="-0.1161742910" r="2" />
	<circle cx="0.0000000157" cy="-0.0000000092" r="2" />
	<circle cx="0.0000000000" cy="-0.0000000000" r="2" />
	<circle cx="500.0000000000" cy="-866.0254038000" r="2" />
	<circle cx="999.9999934205" cy="-0.0000107101" r="2" />
	<circle cx="500.0000000000" cy="-866.0254038000" r="2" />
	<circle cx="500.0000617642" cy="-865.4248350134" r="2" />
	<circle cx="999.9982719834" cy="-0.0009131196" r="2" />
	<circle cx="0.0004615983" cy="-0.0002582378" r="2" />
	<circle cx="994.8117978318" cy="-2.9954722418" r="2" />
	<circle cx="999.9999999964" cy="-0.0000000021" r="2" />
	<circle cx="0.0000000000" cy="-0.0000000000" r="2" />
	<circle cx="500.0903691234" cy="-865.4123308070" r="2" />
	<circle cx="999.9999999761" cy="-0.0000000138" r="2" />
	<circle cx="0.0000000000" cy="-0.0000000000" r="2" />
	<circle cx="0.0000000000" cy="-0.0000000000" r="2" />
	<circle cx="500.0000000000" cy="-866.0254038000" r="2" />
	<circle cx="0.0000000000" cy="-0.0000000000" r="2" />
	<circle cx="0.0000000000" cy="-0.0000000000" r="2" />
	<circle cx="999.8413597685" cy="-0.0915520886" r="2" />
	<circle cx="62.2134310642" cy="-27.4045069687" r="2" />
	<circle cx="500.0000000000" cy="-866.0254038000" r="2" />
	<circle cx="0.0019553833" cy="-0.0033861554" r="2" />
	<circle cx="500.0000000000" cy="-866.0254038000" r="2" />
	<circle cx="559.8433598335" cy="-307.1943848576" r="2" />
	<circle cx="1000.0000000000" cy="-0.0000000000" r="2" />
	<circle cx="499.6363872876" cy="-517.9090139864" r="2" />
	<circle cx="999.9999999975" cy="-0.0000000012" r="2" />
	<circle cx="1000.0000000000" cy="-0.0000000000" r="2" />
	<circle cx="500.0000002419" cy="-866.0242785130" r="2" />
	<circle cx="380.3197678567" cy="-105.1545995812" r="2" />
	<circle cx="934.4530795070" cy="-49.0653938199" r="2" />
	<circle cx="0.0000812419" cy="-0.0000476253" r="2" />
	<circle cx="999.9947270144" cy="-0.0010425033" r="2" />
	<circle cx="499.9999990748" cy="-866.0254021953" r="2" />
	<circle cx="500.1942660708" cy="-865.5214292736" r="2" />
	<circle cx="28.2123949974" cy="-14.2833708999" r="2" />
	<circle cx="500.0000000000" cy="-866.0254038000" r="2" />
	<circle cx="2.0805821487" cy="-1.9429770016" r="2" />
	<circle cx="999.9997994990" cy="-0.0000266360" r="2" />
	<circle cx="499.9999951414" cy="-866.0253951573" r="2" />
	<circle cx="0.0000000001" cy="-0.0000000001" r="2" />
	<circle cx="999.9999940806" cy="-0.0000102474" r="2" />
	<circle cx="8.0875072896" cy="-4.6692890362" r="2" />
	<circle cx="999.9992374641" cy="-0.0004402662" r="2" />
	<circle cx="999.6620149801" cy="-0.1950229781" r="2" />
	<circle cx="999.9999033518" cy="-0.0000495043" r="2" />
	<circle cx="143.2556076504" cy="-88.1164700112" r="2" />
	<circle cx="498.7642695461" cy="-676.5536472982" r="2" />
	<circle cx="1000.0000000000" cy="-0.0000000000" r="2" />
	<circle cx="499.9945043244" cy="-865.9985429214" r="2" />
	<circle cx="0.0000000000" cy="-0.0000000000" r="2" />
	<circle cx="999.8045326408" cy="-0.1129923761" r="2" />
	<circle cx="500.0000008804" cy="-865.9547958515" r="2" />
	<circle cx="999.9993195404" cy="-0.0003999396" r="2" />
	<circle cx="0.0000000000" cy="-0.0000000000" r="2" />
	<circle cx="568.7748032434" cy="-444.7146352905" r="2" />
	<circle cx="999.9999748411" cy="-0.0000176771" r="2" />
	<circle cx="999.3593159627" cy="-0.2866439978" r="2" />
	<circle cx="500.0000000000" cy="-866.0254038000" r="2" />
	<circle cx="513.6319041154" cy="-700.4153578456" r="2" />
	<circle cx="0.0000000000" cy="-0.0000000000" r="2" />
	<circle cx="0.0000008070" cy="-0.0000004131" r="2" />
	<circle cx="500.0000000000" cy="-866.0254037997" r="2" />
	<circle cx="1000.0000000000" cy="-0.0000000000" r="2" />
	<circle cx="985.3988582750" cy="-9.3605559242" r="2" />
	<circle cx="1000.0000000000" cy="-0.0000000000" r="2" />
	<circle cx="889.7040828469" cy="-25.6350793589" r="2" />
	<circle cx="1000.0000000000" cy="-0.0000000000" r="2" />
	<circle cx="999.9971923425" cy="-0.0016215424" r="2" />
	<circle cx="999.9999833960" cy="-0.0000095798" r="2" />
	<circle cx="1000.0000000000" cy="-0.0000000000" r="2" />
	<circle cx="500.0002140555" cy="-866.0250330440" r="2" />
	<circle cx="0.0000000000" cy="-0.0000000000" r="2" />
	<circle cx="1000.0000000000" cy="-0.0000000000" r="2" />
	<circle cx="1000.0000000000" cy="-0.0000000000" r="2" />
	<circle cx="999.9999999808" cy="-0.0000000109" r="2" />
	<circle cx="996.7614529734" cy="-2.1432024900" r="2" />
	<circle cx="500.0000000000" cy="-866.0254038000" r="2" />
	<circle cx="500.0000000000" cy="-866.0254038000" r="2" />
	<circle cx="0.0096243286" cy="-0.0055434452" r="2" />
	<circle cx="0.0000000000" cy="-0.0000000000" r="2" />
	<circle cx="0.0000000558" cy="-0.0000000320" r="2" />
	<circle cx="500.0000000000" cy="-866.0254038000" r="2" />
	<circle cx="501.3883341968" cy="-778.7398511526" r="2" />
	<circle cx="499.9166352408" cy="-853.8550946250" r="2" />
	<circle cx="1000.0000000000" cy="-0.0000000000" r="2" />
	<circle cx="499.9999857948" cy="-866.0253591356" r="2" />
	<circle cx="0.0288491343" cy="-0.0166561492" r="2" />
	<circle cx="0.0019287124" cy="-0.0015402803" r="2" />
	<circle cx="968.1420391989" cy="-18.4102580921" r="2" />
	<circle cx="0.0000658081" cy="-0.0000726194" r="2" />
	<circle cx="999.9999999911" cy="-0.0000000051" r="2" />
	<circle cx="499.9999999999" cy="-866.0254037969" r="2" />
	<circle cx="999.9999999957" cy="-0.0000000058" r="2" />
	<circle cx="37.4328741858" cy="-58.3971581999" r="2" />
	<circle cx="1000.0000000000" cy="-0.0000000000" r="2" />
	<circle cx="0.0000000000" cy="-0.0000000000" r="2" />
	<circle cx="500.0000000002" cy="-866.0253989216" r="2" />
	<circle cx="999.9999072151" cy="-0.0000533947" r="2" />
	<circle cx="499.9999999941" cy="-866.0253827665" r="2" />
	<circle cx="500.0000000000" cy="-866.0254038000" r="2" />
	<circle cx="84.7932469010" cy="-33.4058724627" r="2" />
	<circle cx="499.9999999734" cy="-866.0254035892" r="2" />
	<circle cx="500.0000000000" cy="-866.0253999664" r="2" />
	<circle cx="0.1953921626" cy="-0.1128076316" r="2" />
	<circle cx="499.9725082907" cy="-864.9960863550" r="2" />
	<circle cx="872.1807220421" cy="-131.7812813139" r="2" />
	<circle cx="500.0000000000" cy="-866.0254038000" r="2" />
	<circle cx="500.2418135846" cy="-586.9612295501" r="2" />
	<circle cx="0.0000000000" cy="-0.0000000000" r="2" />
	<circle cx="499.9999997237" cy="-866.0254024947" r="2" />
	<circle cx="10.4514005090" cy="-7.5128650212" r="2" />
	<circle cx="538.7168648403" cy="-293.8949047169" r="2" />
	<circle cx="1000.0000000000" cy="-0.0000000000" r="2" />
	<circle cx="993.1722465658" cy="-3.9428835782" r="2" />
	<circle cx="499.9999189409" cy="-866.0226622558" r="2" />
	<circle cx="209.8533717115" cy="-5.3257595767" r="2" />
	<circle cx="0.0000000000" cy="-0.0000000000" r="2" />
	<circle cx="1000.0000000000" cy="-0.0000000000" r="2" />
	<circle cx="0.0000000000" cy="-0.0000000000" r="2" />
	<circle cx="0.0000000000" cy="-0.0000000000" r="2" />
	<circle cx="500.0000000000" cy="-866.0254038000" r="2" />
	<circle cx="114.3013683795" cy="-30.9294554842" r="2" />
	<circle cx="999.9988180208" cy="-0.0009593686" r="2" />
	<circle cx="999.5475754173" cy="-0.7836223638" r="2" />
	<circle cx="499.9997672005" cy="-866.0244801925" r="2" />
	<circle cx="499.9999898826" cy="-861.2297200891" r="2" />
	<circle cx="1000.0000000000" cy="-0.0000000000" r="2" />
	<circle cx="492.0409278374" cy="-392.6020171792" r="2" />
	<circle cx="500.2154797660" cy="-809.3260248073" r="2" />
	<circle cx="1000.0000000000" cy="-0.0000000000" r="2" />
	<circle cx="499.9181273412" cy="-862.7690877184" r="2" />
	<circle cx="500.0000000000" cy="-866.0254038000" r="2" />
	<circle cx="999.9798427840" cy="-0.0116377276" r="2" />
	<circle cx="500.0000000000" cy="-866.0254038000" r="2" />
	<circle cx="500.0000000000" cy="-866.0254038000" r="2" />
	<circle cx="1000.0000000000" cy="-0.0000000000" r="2" />
	<circle cx="999.9999995843" cy="-0.0000002400" r="2" />
	<circle cx="999.9994892437" cy="-0.0002948776" r="2" />
	<circle cx="499.8914559918" cy="-865.2951486954" r="2" />
	<circle cx="502.0318049795" cy="-809.8888128765" r="2" />
	<circle cx="421.2931853859" cy="-548.7638683190" r="2" />
	<circle cx="126.4378283190" cy="-3.2674933346" r="2" />
	<circle cx="999.8556415164" cy="-0.1800404245" r="2" />
	<circle cx="999.9762753095" cy="-0.0134146320" r="2" />
	<circle cx="0.0004582573" cy="-0.0002600805" r="2" />
	<circle cx="499.9999991331" cy="-866.0250628788" r="2" />
	<circle cx="499.9999830779" cy="-866.0253193870" r="2" />
	<circle cx="499.9995582321" cy="-865.9243170303" r="2" />
	<circle cx="506.8305321421" cy="-831.3956184466" r="2" />
	<circle cx="0.0000000000" cy="-0.0000000000" r="2" />
	<circle cx="0.1770589401" cy="-0.1938701406" r="2" />
	<circle cx="500.0000000000" cy="-866.0254037991" r="2" />
	<circle cx="397.3578734453" cy="-522.1218047244" r="2" />
	<circle cx="123.5071545836" cy="-175.7858485316" r="2" />
	<circle cx="469.7446720978" cy="-812.6786242737" r="2" />
	<circle cx="500.0000000000" cy="-866.0254038000" r="2" />
	<circle cx="500.0000000000" cy="-866.0254037913" r="2" />
	<circle cx="0.0155986843" cy="-0.0090082691" r="2" />
	<circle cx="500.0000001098" cy="-866.0251803268" r="2" />
	<circle cx="500.0000000000" cy="-866.0254037975" r="2" />
	<circle cx="0.0000000000" cy="-0.0000000000" r="2" />
	<circle cx="499.9999999912" cy="-866.0254037707" r="2" />
	<circle cx="0.0000000000" cy="-0.0000000000" r="2" />
	<circle cx="580.8628053987" cy="-346.5774470885" r="2" />
	<circle cx="500.0000003661" cy="-866.0236284772" r="2" />
	<circle cx="500.0000000063" cy="-866.0254037850" r="2" />
	<circle cx="1000.0000000000" cy="-0.0000000000" r="2" />
	<circle cx="0.0000240336" cy="-0.0000186088" r="2" />
	<circle cx="0.0000000484" cy="-0.0000000280" r="2" />
	<circle cx="0.0000000000" cy="-0.0000000000" r="2" />
	<circle cx="0.0000000000" cy="-0.0000000000" r="2" />
	<circle cx="492.4056167286" cy="-383.3392518459" r="2" />
	<circle cx="999.9469423164" cy="-0.0302763704" r="2" />
	<circle cx="0.0000000000" cy="-0.0000000000" r="2" />
	<circle cx="0.0000000000" cy="-0.0000000000" r="2" />
	<circle cx="0.0000000000" cy="-0.0000000000" r="2" />
	<circle cx="997.9057843059" cy="-1.1918253733" r="2" />
	<circle cx="535.2906885273" cy="-667.0973239919" r="2" />
	<circle cx="500.0000000000" cy="-866.0254037999" r="2" />
	<circle cx="500.0000000000" cy="-866.0254038000" r="2" />
	<circle cx="0.2133467285" cy="-0.1230230193" r="2" />
	<circle cx="999.9999999999" cy="-0.0000000000" r="2" />
	<circle cx="0.0976777595" cy="-0.0814254344" r="2" />
	<circle cx="8.2686239546" cy="-2.6801726225" r="2" />
	<circle cx="0.0047566397" cy="-0.0027461299" r="2" />
	<circle cx="1000.0000000000" cy="-0.0000000000" r="2" />
	<circle cx="500.0000000000" cy="-866.0254038000" r="2" />
	<circle cx="0.0711887779" cy="-0.0411009027" r="2" />
	<circle cx="999.9999999997" cy="-0.0000000004" r="2" />
	<circle cx="439.2230003634" cy="-738.1079471368" r="2" />
	<circle cx="436.6775184624" cy="-349.6404778708" r="2" />
	<circle cx="170.5031163026" cy="-98.4486129591" r="2" />
	<circle cx="1.5358555271" cy="-0.8867160162" r="2" />
	<circle cx="999.9997491647" cy="-0.0000889682" r="2" />
	<circle cx="499.9999999830" cy="-866.0254037671" r="2" />
	<circle cx="499.9999785534" cy="-865.9870481739" r="2" />
	<circle cx="0.3478127377" cy="-0.2074364129" r="2" />
	<circle cx="500.0000000000" cy="-866.0254037996" r="2" />
	<circle cx="999.9988929312" cy="-0.0018552864" r="2" />
	<circle cx="888.8354428419" cy="-18.1785645196" r="2" />
	<circle cx="999.9999948787" cy="-0.0000014827" r="2" />
	<circle cx="499.9999960681" cy="-866.0241531670" r="2" />
	<circle cx="0.0000000000" cy="-0.0000000000" r="2" />
	<circle cx="499.9995696506" cy="-865.6245373926" r="2" />
	<circle cx="0.0000083329" cy="-0.0000051701" r="2" />
	<circle cx="57.8224516642" cy="-63.0228123474" r="2" />
	<circle cx="999.9983396456" cy="-0.0009584902" r="2" />
	<circle cx="999.9997859436" cy="-0.0003707555" r="2" />
	<circle cx="999.9673815542" cy="-0.0198241401" r="2" />
	<circle cx="499.9999813735" cy="-866.0141720698" r="2" />
	<circle cx="0.0000000000" cy="-0.0000000000" r="2" />
	<circle cx="0.8113592969" cy="-0.4667444226" r="2" />
	<circle cx="0.0498864836" cy="-0.0287639444" r="2" />
	<circle cx="0.0000559197" cy="-0.0000322875" r="2" />
	<circle cx="499.9999999591" cy="-866.0242391610" r="2" />
	<circle cx="0.0033465394" cy="-0.0018384655" r="2" />
	<circle cx="999.9999999993" cy="-0.0000000012" r="2" />
	<circle cx="500.0012598928" cy="-866.0022155801" r="2" />
	<circle cx="0.0000000632" cy="-0.0000000362" r="2" />
	<circle cx="531.6002258511" cy="-271.1224526932" r="2" />
	<circle cx="639.8695580160" cy="-145.3044010315" r="2" />
	<circle cx="499.9996917108" cy="-866.0242777550" r="2" />
	<circle cx="499.1848474560" cy="-864.6135181779" r="2" />
	<circle cx="0.0301738469" cy="-0.0144133441" r="2" />
	<circle cx="0.0006186658" cy="-0.0005909986" r="2" />
	<circle cx="1000.0000000000" cy="-0.0000000000" r="2" />
  </g>
  <g id="fig2" transform="translate(-550.0,1000)">
	<polygon points="0.0,-0.0 1000.0,-0.0 500.0,-866.0254038" />
	<line
	   id="line2-1"
	   y2="-0.0"
	   x2="500"
	   y1="-288.6751346"
	   x1="500" />
	<line
	   id="line2-2"
	   y2="-433.0127019"
	   x2="250"
	   y1="-288.6751346"
	   x1="500" />
	<line
	   id="line2-3"
	   y2="-433.0127019"
	   x2="750"
	   y1="-288.6751346"
	   x1="500" />
	<text
	   x="440"
	   y="-500"
	   id="up_2">33.2%</text>
	<text
	   x="250"
	   y="-150"
	   id="down_left_2">34.2%</text>
	<text
	   x="630"
	   y="-150"
	   id="down_right_2">32.6%</text>
  </g>
  <g id="fig3" transform="translate(550,1000)">
	<polygon points="0.0,-0.0 1000.0,-0.0 500.0,-866.0254038" />
	<polygon id="triangle3b" points="250,-144.3375673 750,-144.3375673 500,-577.3502692" />
	<line
	   id="line3-1"
	   x1="125"
	   y1="-216.5063509"
	   x2="250"
	   y2="-144.3375673" />
	<line
	   id="line3-2"
	   x1="375"
	   y1="-649.5190528"
	   x2="500"
	   y2="-577.3502692" />
	<line
	   id="line3-3"
	   x1="625"
	   y1="-649.5190528"
	   x2="500"
	   y2="-577.3502692" />
	<line
	   id="line3-4"
	   x1="875"
	   y1="-216.5063509"
	   x2="750"
	   y2="-144.3375673" />
	<line
	   id="line3-5"
	   x1="750"
	   y1="-0.0"
	   x2="750"
	   y2="-144.3375673" />
	<line
	   id="line3-6"
	   x1="250"
	   y1="-0.0"
	   x2="250"
	   y2="-144.3375673" />
	<text
	   x="500"
	   y="-660"
	   text-anchor="middle"
	   id="up_3">30.0%</text>
	<text
	   y="-50"
	   x="70"
	   id="down_left_3">31.2%</text>
	<text
	   y="-50"
	   x="770"
	   id="down_right_3">30.2%</text>
	<text
	   x="500"
	   y="-50"
	   text-anchor="middle"
	   id="down_side_3">1.2%</text>
	<text
	   x="500"
	   y="-280"
	   text-anchor="middle"
	   id="center_3">5.2%</text>
	<text
	   x="685.0"
	   y="-390.8439"
	   text-anchor="middle"
	   transform="rotate(60,665.0,-380.8439)"
	   id="right_side_3">0.8%</text>
	<text
	   x="315.0"
	   y="-390.8439"
	   text-anchor="middle"
	   transform="rotate(-60,335.0,-380.8439)"
	   id="left_side_3">1.4%</text>
  </g>
</g></g>
</svg>
