<?xml version="1.0" encoding="UTF-8" standalone="no"?>
<!DOCTYPE svg PUBLIC "-//W3C//DTD SVG 1.1//EN" "http://www.w3.org/Graphics/SVG/1.1/DTD/svg11.dtd">
<svg
   xmlns:svg="http://www.w3.org/2000/svg"
   xmlns="http://www.w3.org/2000/svg"
   xmlns:xlink="http://www.w3.org/1999/xlink"
   version="1.1"
   baseProfile="full"
   id="body"
   width="800px"
   height="800px"
   viewBox="0 0 1000 1000"
   preserveAspectRatio="none">
  <defs>
    <style type="text/css"><![CDATA[
      circle{ stroke: none; }
      polygon{ stroke: black; stroke-width: 2px; fill: none; }
      line{ stroke: black; stroke-width: 2px; }
      text{ font-size:50px; }
    ]]></style>
  </defs>
  <title
     id="title1">SVG drawing</title>
<g transform="scale(0.45)"><g transform="translate(600,1050)">
  <g id="fig1">
	<polygon points="0.0,-0.0 1000.0,-0.0 500,-866.0254038" />
	<circle cx="1000.0000000000" cy="-0.0000000000" r="2" />
	<circle cx="0.0000000000" cy="-0.0000000000" r="2" />
	<circle cx="556.8140178797" cy="-631.9548491134" r="2" />
	<circle cx="999.9999955182" cy="-0.0000022592" r="2" />
	<circle cx="500.0000000000" cy="-866.0254038000" r="2" />
	<circle cx="1000.0000000000" cy="-0.0000000000" r="2" />
	<circle cx="500.0000000000" cy="-866.0254038000" r="2" />
	<circle cx="437.8696732591" cy="-252.6216448229" r="2" />
	<circle cx="1000.0000000000" cy="-0.0000000000" r="2" />
	<circle cx="0.0000000000" cy="-0.0000000000" r="2" />
	<circle cx="999.9999995113" cy="-0.0000001946" r="2" />
	<circle cx="500.0000000000" cy="-866.0254038000" r="2" />
	<circle cx="1000.0000000000" cy="-0.0000000000" r="2" />
	<circle cx="500.0000000000" cy="-866.0254038000" r="2" />
	<circle cx="499.9999999983" cy="-866.0253597256" r="2" />
	<circle cx="1000.0000000000" cy="-0.0000000000" r="2" />
	<circle cx="500.0000000000" cy="-866.0254038000" r="2" />
	<circle cx="554.7139354242" cy="-367.3698805363" r="2" />
	<circle cx="1000.0000000000" cy="-0.0000000000" r="2" />
	<circle cx="1000.0000000000" cy="-0.0000000000" r="2" />
	<circle cx="499.9999999983" cy="-866.0253956189" r="2" />
	<circle cx="500.0000000021" cy="-866.0253665532" r="2" />
	<circle cx="241.7869397083" cy="-139.6566540473" r="2" />
	<circle cx="0.0018279239" cy="-0.0010553704" r="2" />
	<circle cx="501.4141497582" cy="-831.0149573748" r="2" />
	<circle cx="0.0000000000" cy="-0.0000000000" r="2" />
	<circle cx="0.0427836701" cy="-0.0247135968" r="2" />
	<circle cx="0.0000000000" cy="-0.0000000000" r="2" />
	<circle cx="824.5982772589" cy="-100.0970380631" r="2" />
	<circle cx="499.9999999726" cy="-866.0252724318" r="2" />
	<circle cx="290.6689139000" cy="-103.2190092652" r="2" />
	<circle cx="527.8080487165" cy="-417.0765816748" r="2" />
	<circle cx="560.5643165713" cy="-150.7674426616" r="2" />
	<circle cx="0.0000000000" cy="-0.0000000000" r="2" />
	<circle cx="407.4764852648" cy="-250.2658037653" r="2" />
	<circle cx="0.0000000000" cy="-0.0000000000" r="2" />
	<circle cx="313.4836783458" cy="-179.4034280637" r="2" />
	<circle cx="1000.0000000000" cy="-0.0000000000" r="2" />
	<circle cx="0.0000000000" cy="-0.0000000000" r="2" />
	<circle cx="755.7882827139" cy="-141.0316323823" r="2" />
	<circle cx="0.0000053435" cy="-0.0000030441" r="2" />
	<circle cx="0.0000000000" cy="-0.0000000000" r="2" />
	<circle cx="500.0000000000" cy="-866.0254038000" r="2" />
	<circle cx="500.0000000000" cy="-866.0254038000" r="2" />
	<circle cx="500.0000000000" cy="-866.0254038000" r="2" />
	<circle cx="500.0000000000" cy="-866.0254038000" r="2" />
	<circle cx="1000.0000000000" cy="-0.0000000000" r="2" />
	<circle cx="500.0000000000" cy="-866.0254038000" r="2" />
	<circle cx="0.0000000000" cy="-0.0000000000" r="2" />
	<circle cx="999.9993427145" cy="-0.0003799474" r="2" />
	<circle cx="646.9634090867" cy="-368.9010441731" r="2" />
	<circle cx="500.0000000000" cy="-866.0254038000" r="2" />
	<circle cx="1000.0000000000" cy="-0.0000000000" r="2" />
	<circle cx="544.2249028589" cy="-193.4127910283" r="2" />
	<circle cx="1000.0000000000" cy="-0.0000000000" r="2" />
	<circle cx="494.7641224705" cy="-286.6136327499" r="2" />
	<circle cx="999.9999999974" cy="-0.0000000015" r="2" />
	<circle cx="359.1936174650" cy="-234.2212986714" r="2" />
	<circle cx="0.0000000000" cy="-0.0000000000" r="2" />
	<circle cx="999.9999894407" cy="-0.0000061036" r="2" />
	<circle cx="999.9996140284" cy="-0.0006685225" r="2" />
	<circle cx="1000.0000000000" cy="-0.0000000000" r="2" />
	<circle cx="0.0000000000" cy="-0.0000000000" r="2" />
	<circle cx="494.0034657899" cy="-294.3496644699" r="2" />
	<circle cx="1000.0000000000" cy="-0.0000000000" r="2" />
	<circle cx="500.0000000000" cy="-866.0254038000" r="2" />
	<circle cx="1000.0000000000" cy="-0.0000000000" r="2" />
	<circle cx="0.0000000000" cy="-0.0000000000" r="2" />
	<circle cx="491.6467638906" cy="-283.8606066193" r="2" />
	<circle cx="0.0000000002" cy="-0.0000000001" r="2" />
	<circle cx="1000.0000000000" cy="-0.0000000000" r="2" />
	<circle cx="522.1139002394" cy="-278.9481400586" r="2" />
	<circle cx="465.6637476507" cy="-272.4678765615" r="2" />
	<circle cx="616.9530971371" cy="-331.2438023768" r="2" />
	<circle cx="0.0000000000" cy="-0.0000000000" r="2" />
	<circle cx="0.0000000000" cy="-0.0000000000" r="2" />
	<circle cx="0.0000139931" cy="-0.0000088692" r="2" />
	<circle cx="0.0000000000" cy="-0.0000000000" r="2" />
	<circle cx="1000.0000000000" cy="-0.0000000000" r="2" />
	<circle cx="500.0000000000" cy="-866.0254038000" r="2" />
	<circle cx="209.3709200546" cy="-125.6936171616" r="2" />
	<circle cx="999.9999928689" cy="-0.0000056761" r="2" />
	<circle cx="520.7712524253" cy="-224.8354546353" r="2" />
	<circle cx="0.0000000369" cy="-0.0000000198" r="2" />
	<circle cx="499.9999747308" cy="-865.9252612692" r="2" />
	<circle cx="500.0037837252" cy="-365.6972987682" r="2" />
	<circle cx="267.0515911598" cy="-154.1822236129" r="2" />
	<circle cx="500.0000000000" cy="-866.0254038000" r="2" />
	<circle cx="1000.0000000000" cy="-0.0000000000" r="2" />
	<circle cx="1000.0000000000" cy="-0.0000000000" r="2" />
	<circle cx="500.0000000000" cy="-866.0254038000" r="2" />
	<circle cx="499.9999955352" cy="-866.0253196849" r="2" />
	<circle cx="500.0000000000" cy="-866.0254038000" r="2" />
	<circle cx="500.0000000000" cy="-866.0254038000" r="2" />
	<circle cx="500.0000000000" cy="-866.0254038000" r="2" />
	<circle cx="0.0000101547" cy="-0.0000058663" r="2" />
	<circle cx="500.0000000000" cy="-866.0254038000" r="2" />
	<circle cx="1000.0000000000" cy="-0.0000000000" r="2" />
	<circle cx="0.0000000000" cy="-0.0000000000" r="2" />
	<circle cx="532.9566318090" cy="-267.0470814143" r="2" />
	<circle cx="1000.0000000000" cy="-0.0000000000" r="2" />
	<circle cx="0.0000000000" cy="-0.0000000000" r="2" />
	<circle cx="1000.0000000000" cy="-0.0000000000" r="2" />
	<circle cx="1000.0000000000" cy="-0.0000000000" r="2" />
	<circle cx="499.9999966361" cy="-866.0133844806" r="2" />
	<circle cx="500.0000000000" cy="-866.0254038000" r="2" />
	<circle cx="1000.0000000000" cy="-0.0000000000" r="2" />
	<circle cx="0.0000000000" cy="-0.0000000000" r="2" />
	<circle cx="0.0000000000" cy="-0.0000000000" r="2" />
	<circle cx="707.3909515859" cy="-169.0213955389" r="2" />
	<circle cx="498.1348311493" cy="-271.3067234001" r="2" />
	<circle cx="999.9999999996" cy="-0.0000000002" r="2" />
	<circle cx="919.2034620290" cy="-47.1912903625" r="2" />
	<circle cx="371.8013198788" cy="-212.1108612418" r="2" />
	<circle cx="0.0000000004" cy="-0.0000000002" r="2" />
	<circle cx="500.0000000000" cy="-866.0254038000" r="2" />
	<circle cx="1000.0000000000" cy="-0.0000000000" r="2" />
	<circle cx="0.0000000000" cy="-0.0000000000" r="2" />
	<circle cx="500.0000000000" cy="-866.0254038000" r="2" />
	<circle cx="167.2464363133" cy="-289.6793250847" r="2" />
	<circle cx="438.2694034037" cy="-146.2147339401" r="2" />
	<circle cx="500.3320626375" cy="-758.8815417448" r="2" />
	<circle cx="1000.0000000000" cy="-0.0000000000" r="2" />
	<circle cx="0.0000000000" cy="-0.0000000000" r="2" />
	<circle cx="500.0000000000" cy="-866.0254038000" r="2" />
	<circle cx="500.0088772571" cy="-304.7486008204" r="2" />
	<circle cx="866.6429079758" cy="-76.6162779379" r="2" />
	<circle cx="859.0824144441" cy="-68.6289690939" r="2" />
	<circle cx="0.0000000000" cy="-0.0000000000" r="2" />
	<circle cx="499.9999999999" cy="-866.0254035041" r="2" />
	<circle cx="0.0000000000" cy="-0.0000000000" r="2" />
	<circle cx="503.8802043952" cy="-287.4781986585" r="2" />
	<circle cx="500.0000000000" cy="-866.0254038000" r="2" />
	<circle cx="0.0000000000" cy="-0.0000000000" r="2" />
	<circle cx="216.1078470836" cy="-134.5063997808" r="2" />
	<circle cx="0.0000000000" cy="-0.0000000000" r="2" />
	<circle cx="499.9994559044" cy="-844.4678111246" r="2" />
	<circle cx="1000.0000000000" cy="-0.0000000000" r="2" />
	<circle cx="1000.0000000000" cy="-0.0000000000" r="2" />
	<circle cx="962.3387287376" cy="-21.7473662882" r="2" />
	<circle cx="398.5522548621" cy="-309.3715820515" r="2" />
	<circle cx="499.7112054781" cy="-288.7043997387" r="2" />
	<circle cx="0.0000003591" cy="-0.0000002075" r="2" />
	<circle cx="539.3930875667" cy="-266.7559436304" r="2" />
	<circle cx="499.9998763470" cy="-865.0934092613" r="2" />
	<circle cx="1000.0000000000" cy="-0.0000000000" r="2" />
	<circle cx="500.0000000000" cy="-866.0254038000" r="2" />
	<circle cx="232.5599287424" cy="-134.2845054472" r="2" />
	<circle cx="0.0000000000" cy="-0.0000000000" r="2" />
	<circle cx="500.0000000000" cy="-866.0254038000" r="2" />
	<circle cx="0.0000000000" cy="-0.0000000000" r="2" />
	<circle cx="499.5594833451" cy="-516.3411169483" r="2" />
	<circle cx="1000.0000000000" cy="-0.0000000000" r="2" />
	<circle cx="500.0000000000" cy="-866.0254038000" r="2" />
	<circle cx="1000.0000000000" cy="-0.0000000000" r="2" />
	<circle cx="1000.0000000000" cy="-0.0000000000" r="2" />
	<circle cx="500.0000000000" cy="-866.0254038000" r="2" />
	<circle cx="861.6661462334" cy="-79.8331352414" r="2" />
	<circle cx="1000.0000000000" cy="-0.0000000000" r="2" />
	<circle cx="443.0151763095" cy="-264.2940738799" r="2" />
	<circle cx="464.4732959671" cy="-268.2871972182" r="2" />
	<circle cx="0.0000000000" cy="-0.0000000000" r="2" />
	<circle cx="500.0000000000" cy="-866.0254038000" r="2" />
	<circle cx="500.0000000000" cy="-866.0254038000" r="2" />
	<circle cx="0.0000000000" cy="-0.0000000000" r="2" />
	<circle cx="1000.0000000000" cy="-0.0000000000" r="2" />
	<circle cx="500.0000000000" cy="-866.0254038000" r="2" />
	<circle cx="500.0000000000" cy="-866.0254038000" r="2" />
	<circle cx="1000.0000000000" cy="-0.0000000000" r="2" />
	<circle cx="540.7370192021" cy="-265.1392320219" r="2" />
	<circle cx="1000.0000000000" cy="-0.0000000000" r="2" />
	<circle cx="0.0000000000" cy="-0.0000000000" r="2" />
	<circle cx="316.6451133458" cy="-189.0242752625" r="2" />
	<circle cx="500.0111656964" cy="-288.7291635315" r="2" />
	<circle cx="0.0000000000" cy="-0.0000000000" r="2" />
	<circle cx="999.9948324961" cy="-0.0029846917" r="2" />
	<circle cx="0.0000000000" cy="-0.0000000000" r="2" />
	<circle cx="500.0000000000" cy="-866.0254038000" r="2" />
	<circle cx="499.9999998604" cy="-866.0251733984" r="2" />
	<circle cx="1000.0000000000" cy="-0.0000000000" r="2" />
	<circle cx="1000.0000000000" cy="-0.0000000000" r="2" />
	<circle cx="1000.0000000000" cy="-0.0000000000" r="2" />
	<circle cx="489.7350734319" cy="-282.6229197402" r="2" />
	<circle cx="0.0000000000" cy="-0.0000000000" r="2" />
	<circle cx="1000.0000000000" cy="-0.0000000000" r="2" />
	<circle cx="500.0000000000" cy="-866.0254038000" r="2" />
	<circle cx="600.7121727517" cy="-230.5407909704" r="2" />
	<circle cx="497.3276550245" cy="-436.9569571400" r="2" />
	<circle cx="0.0000000000" cy="-0.0000000000" r="2" />
	<circle cx="999.9999999999" cy="-0.0000000001" r="2" />
	<circle cx="500.0000000001" cy="-866.0254035206" r="2" />
	<circle cx="0.0000000000" cy="-0.0000000000" r="2" />
	<circle cx="0.0000633253" cy="-0.0000365706" r="2" />
	<circle cx="1000.0000000000" cy="-0.0000000000" r="2" />
	<circle cx="579.0023982590" cy="-245.8468685593" r="2" />
	<circle cx="556.8799653396" cy="-319.8236610640" r="2" />
	<circle cx="500.0000000000" cy="-866.0254038000" r="2" />
	<circle cx="688.3324342409" cy="-185.4796853074" r="2" />
	<circle cx="500.0000000000" cy="-866.0254038000" r="2" />
	<circle cx="995.4628315680" cy="-2.6164990925" r="2" />
	<circle cx="500.0000000000" cy="-866.0254038000" r="2" />
	<circle cx="999.9999999999" cy="-0.0000000001" r="2" />
	<circle cx="836.9459478694" cy="-94.1319781317" r="2" />
	<circle cx="500.0000000000" cy="-866.0254038000" r="2" />
	<circle cx="704.0583607807" cy="-149.5117380245" r="2" />
	<circle cx="595.6698915261" cy="-232.1365260408" r="2" />
	<circle cx="0.0000000000" cy="-0.0000000000" r="2" />
	<circle cx="481.0671107938" cy="-320.4546707567" r="2" />
	<circle cx="1000.0000000000" cy="-0.0000000000" r="2" />
	<circle cx="0.0000271092" cy="-0.0000138074" r="2" />
	<circle cx="0.0000000000" cy="-0.0000000000" r="2" />
	<circle cx="1000.0000000000" cy="-0.0000000000" r="2" />
	<circle cx="1000.0000000000" cy="-0.0000000000" r="2" />
	<circle cx="1000.0000000000" cy="-0.0000000000" r="2" />
	<circle cx="0.0005110599" cy="-0.0002950480" r="2" />
	<circle cx="1000.0000000000" cy="-0.0000000000" r="2" />
	<circle cx="500.0000000000" cy="-866.0254038000" r="2" />
	<circle cx="0.0000000000" cy="-0.0000000000" r="2" />
	<circle cx="1000.0000000000" cy="-0.0000000000" r="2" />
	<circle cx="1000.0000000000" cy="-0.0000000000" r="2" />
	<circle cx="13.9244761760" cy="-8.0365450050" r="2" />
	<circle cx="1000.0000000000" cy="-0.0000000000" r="2" />
	<circle cx="0.0000000000" cy="-0.0000000000" r="2" />
	<circle cx="749.8595405027" cy="-144.4255750627" r="2" />
	<circle cx="1000.0000000000" cy="-0.0000000000" r="2" />
	<circle cx="1000.0000000000" cy="-0.0000000000" r="2" />
	<circle cx="1000.0000000000" cy="-0.0000000000" r="2" />
	<circle cx="0.0000000000" cy="-0.0000000000" r="2" />
	<circle cx="925.6718612072" cy="-42.5129890821" r="2" />
	<circle cx="500.0000000000" cy="-866.0254007472" r="2" />
	<circle cx="500.0000000000" cy="-866.0254038000" r="2" />
	<circle cx="0.0000000000" cy="-0.0000000000" r="2" />
	<circle cx="500.0000000000" cy="-866.0254038000" r="2" />
	<circle cx="500.0000000528" cy="-866.0253086041" r="2" />
	<circle cx="0.0000000266" cy="-0.0000000154" r="2" />
	<circle cx="500.0000000000" cy="-866.0254038000" r="2" />
	<circle cx="499.9999999975" cy="-866.0253956187" r="2" />
	<circle cx="0.0000003373" cy="-0.0000001949" r="2" />
	<circle cx="500.0000000000" cy="-866.0254038000" r="2" />
	<circle cx="473.6917739416" cy="-549.9550534309" r="2" />
	<circle cx="1000.0000000000" cy="-0.0000000000" r="2" />
	<circle cx="510.0445551016" cy="-295.0651930671" r="2" />
	<circle cx="770.6558918109" cy="-132.2580933714" r="2" />
	<circle cx="375.4695518111" cy="-213.9895079697" r="2" />
	<circle cx="500.0000000000" cy="-866.0254038000" r="2" />
	<circle cx="500.0292474201" cy="-288.7290157376" r="2" />
	<circle cx="499.9970923546" cy="-845.6050628798" r="2" />
	<circle cx="999.9999986134" cy="-0.0000007999" r="2" />
	<circle cx="495.3407597044" cy="-536.0594462166" r="2" />
	<circle cx="0.0000000000" cy="-0.0000000000" r="2" />
	<circle cx="0.0000000000" cy="-0.0000000000" r="2" />
	<circle cx="999.9999996164" cy="-0.0000002216" r="2" />
	<circle cx="543.1030000536" cy="-585.6326885843" r="2" />
	<circle cx="465.5677759163" cy="-543.8893893487" r="2" />
	<circle cx="0.0000000000" cy="-0.0000000000" r="2" />
	<circle cx="0.0000000000" cy="-0.0000000000" r="2" />
	<circle cx="0.0000000000" cy="-0.0000000000" r="2" />
	<circle cx="0.0000000000" cy="-0.0000000000" r="2" />
	<circle cx="0.0000000001" cy="-0.0000000000" r="2" />
	<circle cx="88.1596476255" cy="-50.9059810732" r="2" />
	<circle cx="499.9999989328" cy="-866.0186391769" r="2" />
	<circle cx="0.0000000000" cy="-0.0000000000" r="2" />
	<circle cx="947.2825841574" cy="-30.9436510925" r="2" />
	<circle cx="500.0000000000" cy="-866.0254038000" r="2" />
	<circle cx="0.0000000000" cy="-0.0000000000" r="2" />
	<circle cx="460.6109870349" cy="-266.7591937099" r="2" />
	<circle cx="636.0202448755" cy="-194.4693311853" r="2" />
	<circle cx="0.0000000000" cy="-0.0000000000" r="2" />
	<circle cx="1000.0000000000" cy="-0.0000000000" r="2" />
	<circle cx="500.0000000000" cy="-866.0254038000" r="2" />
	<circle cx="500.0000000000" cy="-866.0254037872" r="2" />
	<circle cx="711.5944341055" cy="-251.0486653030" r="2" />
	<circle cx="0.0000000000" cy="-0.0000000000" r="2" />
	<circle cx="524.1483782596" cy="-267.5067790332" r="2" />
	<circle cx="1000.0000000000" cy="-0.0000000000" r="2" />
	<circle cx="0.0000000000" cy="-0.0000000000" r="2" />
	<circle cx="500.0000000000" cy="-866.0254038000" r="2" />
	<circle cx="500.0000000000" cy="-866.0254036367" r="2" />
	<circle cx="500.0000000000" cy="-866.0254038000" r="2" />
	<circle cx="499.9999999991" cy="-866.0253979843" r="2" />
	<circle cx="500.0000000000" cy="-866.0254038000" r="2" />
	<circle cx="0.0000000000" cy="-0.0000000000" r="2" />
	<circle cx="0.0000000000" cy="-0.0000000000" r="2" />
	<circle cx="593.4764793642" cy="-234.6785250647" r="2" />
	<circle cx="421.6324025653" cy="-431.3774171606" r="2" />
	<circle cx="1000.0000000000" cy="-0.0000000000" r="2" />
	<circle cx="500.0000000000" cy="-866.0254038000" r="2" />
	<circle cx="378.5813979779" cy="-218.7177981086" r="2" />
	<circle cx="500.0000000000" cy="-866.0254038000" r="2" />
	<circle cx="0.0000000000" cy="-0.0000000000" r="2" />
	<circle cx="0.0000000000" cy="-0.0000000000" r="2" />
	<circle cx="500.0000000000" cy="-866.0254038000" r="2" />
	<circle cx="562.3352641295" cy="-263.6879835718" r="2" />
	<circle cx="518.3866490777" cy="-288.1408086925" r="2" />
	<circle cx="0.0000000000" cy="-0.0000000000" r="2" />
	<circle cx="0.0000000000" cy="-0.0000000000" r="2" />
	<circle cx="0.0000000000" cy="-0.0000000000" r="2" />
	<circle cx="999.9999973563" cy="-0.0000015263" r="2" />
	<circle cx="1000.0000000000" cy="-0.0000000000" r="2" />
	<circle cx="991.4744808062" cy="-4.9225985470" r="2" />
	<circle cx="1000.0000000000" cy="-0.0000000000" r="2" />
	<circle cx="1000.0000000000" cy="-0.0000000000" r="2" />
	<circle cx="0.0000000000" cy="-0.0000000000" r="2" />
	<circle cx="828.0402274004" cy="-100.4917520266" r="2" />
	<circle cx="500.0000000000" cy="-866.0254038000" r="2" />
	<circle cx="0.0000000000" cy="-0.0000000000" r="2" />
	<circle cx="32.0693037646" cy="-18.6786107491" r="2" />
	<circle cx="500.0000000000" cy="-866.0254038000" r="2" />
	<circle cx="0.0000000000" cy="-0.0000000000" r="2" />
	<circle cx="0.0242196255" cy="-0.0140021460" r="2" />
	<circle cx="1000.0000000000" cy="-0.0000000000" r="2" />
	<circle cx="0.0000000000" cy="-0.0000000000" r="2" />
	<circle cx="500.0002087680" cy="-863.4933511312" r="2" />
	<circle cx="559.4958069688" cy="-203.0360055474" r="2" />
	<circle cx="497.0208409618" cy="-627.8900319752" r="2" />
	<circle cx="930.6432011202" cy="-40.0933931816" r="2" />
	<circle cx="1000.0000000000" cy="-0.0000000000" r="2" />
	<circle cx="950.0514038921" cy="-28.8525707981" r="2" />
	<circle cx="0.0000000000" cy="-0.0000000000" r="2" />
	<circle cx="500.1542218998" cy="-496.5822005534" r="2" />
	<circle cx="500.0000000000" cy="-866.0254038000" r="2" />
	<circle cx="1000.0000000000" cy="-0.0000000000" r="2" />
	<circle cx="1000.0000000000" cy="-0.0000000000" r="2" />
	<circle cx="0.0000000000" cy="-0.0000000000" r="2" />
	<circle cx="1000.0000000000" cy="-0.0000000000" r="2" />
	<circle cx="0.0000000000" cy="-0.0000000000" r="2" />
	<circle cx="1000.0000000000" cy="-0.0000000000" r="2" />
	<circle cx="500.0995407956" cy="-590.1845149421" r="2" />
	<circle cx="499.9999999616" cy="-866.0254020530" r="2" />
	<circle cx="0.0000000000" cy="-0.0000000000" r="2" />
	<circle cx="0.0000000001" cy="-0.0000000000" r="2" />
	<circle cx="996.2710300971" cy="-2.1526931926" r="2" />
	<circle cx="488.1758293918" cy="-269.8471235104" r="2" />
	<circle cx="999.9998535986" cy="-0.0000386511" r="2" />
	<circle cx="454.7775760903" cy="-252.0344510858" r="2" />
	<circle cx="0.0000000000" cy="-0.0000000000" r="2" />
	<circle cx="499.9985333028" cy="-862.1852459717" r="2" />
	<circle cx="0.0000000000" cy="-0.0000000000" r="2" />
	<circle cx="493.8549723780" cy="-289.9444258370" r="2" />
	<circle cx="0.0000000000" cy="-0.0000000000" r="2" />
	<circle cx="634.5180912414" cy="-214.7722223571" r="2" />
	<circle cx="1000.0000000000" cy="-0.0000000000" r="2" />
	<circle cx="500.0000000000" cy="-866.0254038000" r="2" />
	<circle cx="0.0000381702" cy="-0.0000220411" r="2" />
	<circle cx="1000.0000000000" cy="-0.0000000000" r="2" />
	<circle cx="999.9999999997" cy="-0.0000000002" r="2" />
	<circle cx="500.0000000000" cy="-866.0254038000" r="2" />
	<circle cx="0.0000000000" cy="-0.0000000000" r="2" />
	<circle cx="994.0985803834" cy="-3.3456090759" r="2" />
	<circle cx="745.5986439243" cy="-231.9060158346" r="2" />
	<circle cx="1000.0000000000" cy="-0.0000000000" r="2" />
	<circle cx="500.0000000000" cy="-866.0254038000" r="2" />
	<circle cx="1000.0000000000" cy="-0.0000000000" r="2" />
	<circle cx="1000.0000000000" cy="-0.0000000000" r="2" />
	<circle cx="27.0321641633" cy="-15.6047592400" r="2" />
	<circle cx="533.8289588480" cy="-400.6910544847" r="2" />
	<circle cx="0.0000000000" cy="-0.0000000000" r="2" />
	<circle cx="1000.0000000000" cy="-0.0000000000" r="2" />
	<circle cx="0.0000000000" cy="-0.0000000000" r="2" />
	<circle cx="668.5803785568" cy="-314.7289230487" r="2" />
	<circle cx="493.8381370368" cy="-285.1028089044" r="2" />
	<circle cx="0.0000000000" cy="-0.0000000000" r="2" />
	<circle cx="1000.0000000000" cy="-0.0000000000" r="2" />
	<circle cx="1000.0000000000" cy="-0.0000000000" r="2" />
	<circle cx="500.0000000000" cy="-866.0254038000" r="2" />
	<circle cx="500.0000000000" cy="-866.0254038000" r="2" />
	<circle cx="459.4666833466" cy="-265.3997882801" r="2" />
	<circle cx="500.0000000000" cy="-866.0254038000" r="2" />
	<circle cx="0.0000000000" cy="-0.0000000000" r="2" />
	<circle cx="1000.0000000000" cy="-0.0000000000" r="2" />
	<circle cx="0.0000000000" cy="-0.0000000000" r="2" />
	<circle cx="450.0991561059" cy="-259.9296590568" r="2" />
	<circle cx="228.5910462754" cy="-173.1052130524" r="2" />
	<circle cx="499.9999999984" cy="-866.0253985233" r="2" />
	<circle cx="475.2293416577" cy="-274.4632426498" r="2" />
	<circle cx="500.0000000000" cy="-866.0254038000" r="2" />
	<circle cx="500.0000000000" cy="-866.0254038000" r="2" />
	<circle cx="0.0000000000" cy="-0.0000000000" r="2" />
	<circle cx="500.0000000000" cy="-866.0254038000" r="2" />
	<circle cx="500.0000000000" cy="-866.0254038000" r="2" />
	<circle cx="1000.0000000000" cy="-0.0000000000" r="2" />
	<circle cx="1000.0000000000" cy="-0.0000000000" r="2" />
	<circle cx="500.0000000000" cy="-866.0254038000" r="2" />
	<circle cx="500.0000000000" cy="-866.0254038000" r="2" />
	<circle cx="0.0000013526" cy="-0.0000007813" r="2" />
	<circle cx="500.0000000000" cy="-866.0254038000" r="2" />
	<circle cx="500.0000000000" cy="-866.0254038000" r="2" />
	<circle cx="500.0000000000" cy="-866.0254038000" r="2" />
	<circle cx="0.0000000000" cy="-0.0000000000" r="2" />
	<circle cx="0.0000000000" cy="-0.0000000000" r="2" />
	<circle cx="500.0000000000" cy="-866.0254038000" r="2" />
	<circle cx="1000.0000000000" cy="-0.0000000000" r="2" />
	<circle cx="500.0000005146" cy="-866.0253859867" r="2" />
	<circle cx="135.0526969324" cy="-78.0516051620" r="2" />
	<circle cx="980.4441189204" cy="-11.2861936122" r="2" />
	<circle cx="999.9995741369" cy="-0.0002474552" r="2" />
	<circle cx="732.8981666571" cy="-113.6537046352" r="2" />
	<circle cx="837.3850041136" cy="-93.6335451361" r="2" />
	<circle cx="1000.0000000000" cy="-0.0000000000" r="2" />
	<circle cx="506.1344270612" cy="-285.1709891119" r="2" />
	<circle cx="59.2707743688" cy="-35.2784681192" r="2" />
	<circle cx="1000.0000000000" cy="-0.0000000000" r="2" />
	<circle cx="1000.0000000000" cy="-0.0000000000" r="2" />
	<circle cx="500.0000000000" cy="-866.0254032254" r="2" />
	<circle cx="0.0000000000" cy="-0.0000000000" r="2" />
	<circle cx="500.0000000000" cy="-866.0254038000" r="2" />
	<circle cx="500.0000000000" cy="-866.0254038000" r="2" />
	<circle cx="1000.0000000000" cy="-0.0000000000" r="2" />
	<circle cx="499.9883887144" cy="-288.6918417983" r="2" />
	<circle cx="1000.0000000000" cy="-0.0000000000" r="2" />
	<circle cx="499.9999872091" cy="-866.0253307992" r="2" />
	<circle cx="1000.0000000000" cy="-0.0000000000" r="2" />
	<circle cx="500.0000000014" cy="-866.0253969899" r="2" />
	<circle cx="499.7468035829" cy="-288.5957077549" r="2" />
	<circle cx="500.0047730159" cy="-832.8751736640" r="2" />
	<circle cx="0.0000000950" cy="-0.0000000548" r="2" />
	<circle cx="500.0000000000" cy="-866.0254038000" r="2" />
	<circle cx="1000.0000000000" cy="-0.0000000000" r="2" />
	<circle cx="0.0000000000" cy="-0.0000000000" r="2" />
	<circle cx="500.0000000000" cy="-866.0254037974" r="2" />
	<circle cx="500.0000000000" cy="-866.0254038000" r="2" />
	<circle cx="500.0000000000" cy="-866.0254038000" r="2" />
	<circle cx="1000.0000000000" cy="-0.0000000000" r="2" />
	<circle cx="1000.0000000000" cy="-0.0000000000" r="2" />
	<circle cx="499.2470121350" cy="-830.7017465725" r="2" />
	<circle cx="499.8173154973" cy="-353.4526772904" r="2" />
	<circle cx="1000.0000000000" cy="-0.0000000000" r="2" />
	<circle cx="8.0622152351" cy="-4.6545753173" r="2" />
	<circle cx="500.0000000000" cy="-866.0254038000" r="2" />
	<circle cx="1000.0000000000" cy="-0.0000000000" r="2" />
	<circle cx="500.0000000000" cy="-866.0254038000" r="2" />
	<circle cx="735.6281065022" cy="-102.8638884423" r="2" />
	<circle cx="45.2593986402" cy="-28.6676528918" r="2" />
	<circle cx="500.0000000000" cy="-866.0254038000" r="2" />
	<circle cx="0.0000000000" cy="-0.0000000000" r="2" />
	<circle cx="0.0000000001" cy="-0.0000000000" r="2" />
	<circle cx="333.4921342572" cy="-192.9220287642" r="2" />
	<circle cx="500.0000000000" cy="-866.0254038000" r="2" />
	<circle cx="500.0000147489" cy="-866.0253166322" r="2" />
	<circle cx="500.0000000000" cy="-866.0254038000" r="2" />
	<circle cx="514.4301877467" cy="-306.4770326085" r="2" />
	<circle cx="500.1728564127" cy="-840.4450912990" r="2" />
	<circle cx="500.0000000000" cy="-866.0254038000" r="2" />
	<circle cx="544.6002733844" cy="-259.3954134843" r="2" />
	<circle cx="1.7237999307" cy="-0.9956628873" r="2" />
	<circle cx="499.9999999990" cy="-866.0253966366" r="2" />
	<circle cx="500.0000000000" cy="-866.0254038000" r="2" />
	<circle cx="500.0000004678" cy="-866.0241793339" r="2" />
	<circle cx="999.6798858386" cy="-0.1847564350" r="2" />
	<circle cx="999.9999976552" cy="-0.0000013538" r="2" />
	<circle cx="499.9999930711" cy="-866.0252748058" r="2" />
	<circle cx="454.4164272190" cy="-262.3724435134" r="2" />
	<circle cx="1000.0000000000" cy="-0.0000000000" r="2" />
	<circle cx="11.9844599097" cy="-6.9210977924" r="2" />
	<circle cx="299.4010966119" cy="-160.7786847041" r="2" />
	<circle cx="458.1304324219" cy="-179.7037813806" r="2" />
	<circle cx="500.0000000000" cy="-866.0254038000" r="2" />
	<circle cx="0.0000000000" cy="-0.0000000000" r="2" />
	<circle cx="1000.0000000000" cy="-0.0000000000" r="2" />
	<circle cx="500.0466623768" cy="-713.5694196535" r="2" />
	<circle cx="499.9627931088" cy="-502.2261265105" r="2" />
	<circle cx="999.9999999999" cy="-0.0000000000" r="2" />
	<circle cx="459.2343066714" cy="-266.9573226417" r="2" />
	<circle cx="500.0000000000" cy="-866.0254038000" r="2" />
	<circle cx="624.0826487691" cy="-360.3142852698" r="2" />
	<circle cx="0.0001971242" cy="-0.0001138211" r="2" />
	<circle cx="0.0001369690" cy="-0.0000790409" r="2" />
	<circle cx="1000.0000000000" cy="-0.0000000000" r="2" />
	<circle cx="858.8853687007" cy="-81.4117721142" r="2" />
	<circle cx="494.7309080756" cy="-626.8057249613" r="2" />
	<circle cx="0.0000000000" cy="-0.0000000000" r="2" />
	<circle cx="0.0001250931" cy="-0.0000722149" r="2" />
	<circle cx="950.0783691667" cy="-28.8234006269" r="2" />
	<circle cx="1000.0000000000" cy="-0.0000000000" r="2" />
	<circle cx="420.4266264240" cy="-242.6366691715" r="2" />
	<circle cx="631.4817101183" cy="-475.7060221075" r="2" />
	<circle cx="56.6210662208" cy="-36.7577543686" r="2" />
	<circle cx="0.0000000000" cy="-0.0000000000" r="2" />
	<circle cx="1000.0000000000" cy="-0.0000000000" r="2" />
	<circle cx="0.0000000000" cy="-0.0000000000" r="2" />
	<circle cx="0.0000000000" cy="-0.0000000000" r="2" />
	<circle cx="499.9999999977" cy="-866.0253963772" r="2" />
	<circle cx="1000.0000000000" cy="-0.0000000000" r="2" />
	<circle cx="499.9999996584" cy="-866.0248379245" r="2" />
	<circle cx="1000.0000000000" cy="-0.0000000000" r="2" />
	<circle cx="999.9999999998" cy="-0.0000000001" r="2" />
	<circle cx="971.4826887698" cy="-16.4668210103" r="2" />
	<circle cx="1000.0000000000" cy="-0.0000000000" r="2" />
	<circle cx="1000.0000000000" cy="-0.0000000000" r="2" />
	<circle cx="0.0000000000" cy="-0.0000000000" r="2" />
	<circle cx="0.0000000002" cy="-0.0000000001" r="2" />
	<circle cx="589.7536039408" cy="-236.8548447397" r="2" />
	<circle cx="500.0000000000" cy="-866.0254038000" r="2" />
	<circle cx="322.5501709271" cy="-186.4012902244" r="2" />
	<circle cx="1000.0000000000" cy="-0.0000000000" r="2" />
	<circle cx="533.7154020297" cy="-531.5442055535" r="2" />
	<circle cx="1000.0000000000" cy="-0.0000000000" r="2" />
	<circle cx="500.0000000000" cy="-866.0254038000" r="2" />
	<circle cx="865.9847165092" cy="-87.3029190186" r="2" />
	<circle cx="500.0000000000" cy="-866.0254038000" r="2" />
  </g>
  <g id="fig2" transform="translate(-550.0,1000)">
	<polygon points="0.0,-0.0 1000.0,-0.0 500.0,-866.0254038" />
	<line
	   id="line2-1"
	   y2="-0.0"
	   x2="500"
	   y1="-288.6751346"
	   x1="500" />
	<line
	   id="line2-2"
	   y2="-433.0127019"
	   x2="250"
	   y1="-288.6751346"
	   x1="500" />
	<line
	   id="line2-3"
	   y2="-433.0127019"
	   x2="750"
	   y1="-288.6751346"
	   x1="500" />
	<text
	   x="440"
	   y="-500"
	   id="up_2">31.4%</text>
	<text
	   x="250"
	   y="-150"
	   id="down_left_2">33.2%</text>
	<text
	   x="630"
	   y="-150"
	   id="down_right_2">35.4%</text>
  </g>
  <g id="fig3" transform="translate(550,1000)">
	<polygon points="0.0,-0.0 1000.0,-0.0 500.0,-866.0254038" />
	<polygon id="triangle3b" points="250,-144.3375673 750,-144.3375673 500,-577.3502692" />
	<line
	   id="line3-1"
	   x1="125"
	   y1="-216.5063509"
	   x2="250"
	   y2="-144.3375673" />
	<line
	   id="line3-2"
	   x1="375"
	   y1="-649.5190528"
	   x2="500"
	   y2="-577.3502692" />
	<line
	   id="line3-3"
	   x1="625"
	   y1="-649.5190528"
	   x2="500"
	   y2="-577.3502692" />
	<line
	   id="line3-4"
	   x1="875"
	   y1="-216.5063509"
	   x2="750"
	   y2="-144.3375673" />
	<line
	   id="line3-5"
	   x1="750"
	   y1="-0.0"
	   x2="750"
	   y2="-144.3375673" />
	<line
	   id="line3-6"
	   x1="250"
	   y1="-0.0"
	   x2="250"
	   y2="-144.3375673" />
	<text
	   x="500"
	   y="-660"
	   text-anchor="middle"
	   id="up_3">26.6%</text>
	<text
	   y="-50"
	   x="70"
	   id="down_left_3">25.6%</text>
	<text
	   y="-50"
	   x="770"
	   id="down_right_3">28.6%</text>
	<text
	   x="500"
	   y="-50"
	   text-anchor="middle"
	   id="down_side_3">0.6%</text>
	<text
	   x="500"
	   y="-280"
	   text-anchor="middle"
	   id="center_3">16.4%</text>
	<text
	   x="685.0"
	   y="-390.8439"
	   text-anchor="middle"
	   transform="rotate(60,665.0,-380.8439)"
	   id="right_side_3">1.4%</text>
	<text
	   x="315.0"
	   y="-390.8439"
	   text-anchor="middle"
	   transform="rotate(-60,335.0,-380.8439)"
	   id="left_side_3">0.8%</text>
  </g>
</g></g>
</svg>
