<?xml version="1.0" encoding="UTF-8" standalone="no"?>
<!DOCTYPE svg PUBLIC "-//W3C//DTD SVG 1.1//EN" "http://www.w3.org/Graphics/SVG/1.1/DTD/svg11.dtd">
<svg
   xmlns:svg="http://www.w3.org/2000/svg"
   xmlns="http://www.w3.org/2000/svg"
   xmlns:xlink="http://www.w3.org/1999/xlink"
   version="1.1"
   baseProfile="full"
   id="body"
   width="800px"
   height="800px"
   viewBox="0 0 1000 1000"
   preserveAspectRatio="none">
  <defs>
    <style type="text/css"><![CDATA[
      circle{ stroke: none; }
      polygon{ stroke: black; stroke-width: 2px; fill: none; }
      line{ stroke: black; stroke-width: 2px; }
      text{ font-size:50px; }
    ]]></style>
  </defs>
  <title
     id="title1">SVG drawing</title>
<g transform="scale(0.45)"><g transform="translate(600,1050)">
  <g id="fig1">
	<polygon points="0.0,-0.0 1000.0,-0.0 500,-866.0254038" />
	<circle cx="501.0653135150" cy="-858.4522194143" r="2" />
	<circle cx="1000.0000000000" cy="-0.0000000000" r="2" />
	<circle cx="0.0051995003" cy="-0.0020682387" r="2" />
	<circle cx="194.3779240434" cy="-112.1632015079" r="2" />
	<circle cx="0.0195270693" cy="-0.0115585951" r="2" />
	<circle cx="33.9038020514" cy="-19.9056035382" r="2" />
	<circle cx="0.0000000000" cy="-0.0000000000" r="2" />
	<circle cx="999.9215722496" cy="-0.0487312049" r="2" />
	<circle cx="999.6365418917" cy="-0.2136271160" r="2" />
	<circle cx="999.9128742643" cy="-0.0503251955" r="2" />
	<circle cx="1000.0000000000" cy="-0.0000000000" r="2" />
	<circle cx="999.9998136519" cy="-0.0001104105" r="2" />
	<circle cx="1000.0000000000" cy="-0.0000000000" r="2" />
	<circle cx="998.3979740383" cy="-0.9244203649" r="2" />
	<circle cx="513.7287659391" cy="-812.2319560971" r="2" />
	<circle cx="499.9999999900" cy="-866.0253965589" r="2" />
	<circle cx="470.6864714269" cy="-298.3315700330" r="2" />
	<circle cx="0.0000000004" cy="-0.0000000002" r="2" />
	<circle cx="1000.0000000000" cy="-0.0000000000" r="2" />
	<circle cx="1000.0000000000" cy="-0.0000000000" r="2" />
	<circle cx="500.0000000000" cy="-866.0254038000" r="2" />
	<circle cx="499.9998872951" cy="-865.7081343208" r="2" />
	<circle cx="500.0000000000" cy="-866.0254038000" r="2" />
	<circle cx="0.0000000000" cy="-0.0000000000" r="2" />
	<circle cx="500.0000000000" cy="-866.0254038000" r="2" />
	<circle cx="776.7250497735" cy="-270.2434891271" r="2" />
	<circle cx="999.9999999510" cy="-0.0000000283" r="2" />
	<circle cx="25.4374741079" cy="-14.7028378365" r="2" />
	<circle cx="1000.0000000000" cy="-0.0000000000" r="2" />
	<circle cx="500.0000000000" cy="-866.0254038000" r="2" />
	<circle cx="500.0020578867" cy="-859.2587765226" r="2" />
	<circle cx="500.0000000000" cy="-866.0254038000" r="2" />
	<circle cx="1000.0000000000" cy="-0.0000000000" r="2" />
	<circle cx="999.3492227412" cy="-0.3691798235" r="2" />
	<circle cx="0.0000000000" cy="-0.0000000000" r="2" />
	<circle cx="924.7713761326" cy="-28.6134108751" r="2" />
	<circle cx="945.3566838679" cy="-31.5217952532" r="2" />
	<circle cx="1000.0000000000" cy="-0.0000000000" r="2" />
	<circle cx="0.0000000000" cy="-0.0000000000" r="2" />
	<circle cx="500.0504755683" cy="-431.0569938803" r="2" />
	<circle cx="500.0000000311" cy="-866.0254037462" r="2" />
	<circle cx="0.8285585993" cy="-0.4728866629" r="2" />
	<circle cx="2.7775638205" cy="-1.6028346308" r="2" />
	<circle cx="999.5265379527" cy="-0.1716137606" r="2" />
	<circle cx="500.0000000000" cy="-866.0254037619" r="2" />
	<circle cx="999.3549013663" cy="-0.3372065993" r="2" />
	<circle cx="999.9066910130" cy="-0.0538476264" r="2" />
	<circle cx="49.2590994450" cy="-48.1107903905" r="2" />
	<circle cx="500.0000000000" cy="-866.0254038000" r="2" />
	<circle cx="999.9999979764" cy="-0.0000019782" r="2" />
	<circle cx="500.7724882000" cy="-607.7585349396" r="2" />
	<circle cx="850.6044236522" cy="-24.5568524438" r="2" />
	<circle cx="500.0000000000" cy="-866.0254038000" r="2" />
	<circle cx="1000.0000000000" cy="-0.0000000000" r="2" />
	<circle cx="673.9542641812" cy="-1.3775339977" r="2" />
	<circle cx="499.9999999989" cy="-866.0253970753" r="2" />
	<circle cx="927.9163651374" cy="-41.5824705594" r="2" />
	<circle cx="999.9999819973" cy="-0.0000124265" r="2" />
	<circle cx="0.0000000000" cy="-0.0000000000" r="2" />
	<circle cx="1000.0000000000" cy="-0.0000000000" r="2" />
	<circle cx="499.9901564370" cy="-856.5527782545" r="2" />
	<circle cx="1000.0000000000" cy="-0.0000000000" r="2" />
	<circle cx="1000.0000000000" cy="-0.0000000000" r="2" />
	<circle cx="115.9520796855" cy="-0.3353648151" r="2" />
	<circle cx="0.0000000000" cy="-0.0000000000" r="2" />
	<circle cx="499.9998031191" cy="-866.0246001541" r="2" />
	<circle cx="3.4891524166" cy="-1.7351161047" r="2" />
	<circle cx="1000.0000000000" cy="-0.0000000000" r="2" />
	<circle cx="0.0000277133" cy="-0.0000150619" r="2" />
	<circle cx="500.0000000000" cy="-866.0254038000" r="2" />
	<circle cx="1000.0000000000" cy="-0.0000000000" r="2" />
	<circle cx="0.0000000000" cy="-0.0000000000" r="2" />
	<circle cx="500.0000000000" cy="-866.0254038000" r="2" />
	<circle cx="1000.0000000000" cy="-0.0000000000" r="2" />
	<circle cx="499.9999999999" cy="-866.0254037985" r="2" />
	<circle cx="654.1527119126" cy="-58.2693503191" r="2" />
	<circle cx="999.9999968793" cy="-0.0000017823" r="2" />
	<circle cx="674.3116887136" cy="-564.1077942238" r="2" />
	<circle cx="500.0000000000" cy="-866.0254038000" r="2" />
	<circle cx="564.0188236993" cy="-251.7945368710" r="2" />
	<circle cx="500.0000066119" cy="-866.0252775887" r="2" />
	<circle cx="487.2529527122" cy="-281.1802025053" r="2" />
	<circle cx="645.4025628703" cy="-204.4274481584" r="2" />
	<circle cx="74.8509490700" cy="-86.6737832878" r="2" />
	<circle cx="0.0000245414" cy="-0.0000141730" r="2" />
	<circle cx="500.0794635086" cy="-631.2280695059" r="2" />
	<circle cx="500.0000000000" cy="-866.0254038000" r="2" />
	<circle cx="0.0000000000" cy="-0.0000000000" r="2" />
	<circle cx="5.0074970548" cy="-3.2215643324" r="2" />
	<circle cx="562.0562892819" cy="-266.9333268330" r="2" />
	<circle cx="999.6163170178" cy="-0.2206708439" r="2" />
	<circle cx="0.0000000000" cy="-0.0000000000" r="2" />
	<circle cx="999.9311142649" cy="-0.0004835273" r="2" />
	<circle cx="1000.0000000000" cy="-0.0000000000" r="2" />
	<circle cx="0.0000000000" cy="-0.0000000000" r="2" />
	<circle cx="500.0000000000" cy="-866.0254038000" r="2" />
	<circle cx="0.0000000000" cy="-0.0000000000" r="2" />
	<circle cx="500.0000000000" cy="-866.0254038000" r="2" />
	<circle cx="510.1782458781" cy="-848.3961483550" r="2" />
	<circle cx="465.2561179069" cy="-696.7833396176" r="2" />
	<circle cx="500.0000000171" cy="-866.0254036735" r="2" />
	<circle cx="784.8009810541" cy="-203.5431514128" r="2" />
	<circle cx="500.0000000000" cy="-866.0254038000" r="2" />
	<circle cx="500.0000000000" cy="-866.0254038000" r="2" />
	<circle cx="999.9999965242" cy="-0.0000023623" r="2" />
	<circle cx="1000.0000000000" cy="-0.0000000000" r="2" />
	<circle cx="119.3407038717" cy="-88.8921022289" r="2" />
	<circle cx="500.0000000000" cy="-866.0254038000" r="2" />
	<circle cx="500.0000151147" cy="-866.0253776206" r="2" />
	<circle cx="500.0000001844" cy="-866.0254034806" r="2" />
	<circle cx="500.0000000000" cy="-866.0254038000" r="2" />
	<circle cx="500.0000000000" cy="-866.0254038000" r="2" />
	<circle cx="998.2641438982" cy="-1.3099619191" r="2" />
	<circle cx="0.0000000000" cy="-0.0000000000" r="2" />
	<circle cx="999.9394227927" cy="-0.0639173720" r="2" />
	<circle cx="1000.0000000000" cy="-0.0000000000" r="2" />
	<circle cx="500.0000000000" cy="-866.0254038000" r="2" />
	<circle cx="0.0000000001" cy="-0.0000000000" r="2" />
	<circle cx="1000.0000000000" cy="-0.0000000000" r="2" />
	<circle cx="500.0000000000" cy="-866.0254038000" r="2" />
	<circle cx="0.0000000000" cy="-0.0000000000" r="2" />
	<circle cx="499.9659819643" cy="-865.9655157608" r="2" />
	<circle cx="999.9997875503" cy="-0.0000888437" r="2" />
	<circle cx="1000.0000000000" cy="-0.0000000000" r="2" />
	<circle cx="0.0000000000" cy="-0.0000000000" r="2" />
	<circle cx="999.9999996025" cy="-0.0000006858" r="2" />
	<circle cx="1000.0000000000" cy="-0.0000000000" r="2" />
	<circle cx="1000.0000000000" cy="-0.0000000000" r="2" />
	<circle cx="478.4803984171" cy="-815.1616634405" r="2" />
	<circle cx="500.0000000026" cy="-866.0254030833" r="2" />
	<circle cx="0.0000000054" cy="-0.0000000033" r="2" />
	<circle cx="500.0000000000" cy="-866.0254038000" r="2" />
	<circle cx="0.0000000000" cy="-0.0000000000" r="2" />
	<circle cx="0.0140172837" cy="-0.0083177015" r="2" />
	<circle cx="500.8665463452" cy="-835.4841647505" r="2" />
	<circle cx="500.0000000000" cy="-866.0254038000" r="2" />
	<circle cx="500.0000000000" cy="-866.0254038000" r="2" />
	<circle cx="1000.0000000000" cy="-0.0000000000" r="2" />
	<circle cx="500.0000000000" cy="-866.0254036821" r="2" />
	<circle cx="499.9999977108" cy="-866.0209350955" r="2" />
	<circle cx="494.5433273303" cy="-321.3299935019" r="2" />
	<circle cx="500.0000000000" cy="-866.0254038000" r="2" />
	<circle cx="0.0000000000" cy="-0.0000000000" r="2" />
	<circle cx="22.1269867551" cy="-12.7788061267" r="2" />
	<circle cx="0.0000000000" cy="-0.0000000000" r="2" />
	<circle cx="500.0000000000" cy="-866.0254037999" r="2" />
	<circle cx="102.5564995862" cy="-52.0680823593" r="2" />
	<circle cx="500.0000000000" cy="-866.0254038000" r="2" />
	<circle cx="999.9999999979" cy="-0.0000000012" r="2" />
	<circle cx="0.0000000000" cy="-0.0000000000" r="2" />
	<circle cx="0.0639389607" cy="-0.0387567329" r="2" />
	<circle cx="500.0000000000" cy="-866.0254038000" r="2" />
	<circle cx="0.0000000000" cy="-0.0000000000" r="2" />
	<circle cx="500.0000000000" cy="-866.0254038000" r="2" />
	<circle cx="0.0036277941" cy="-0.0021082825" r="2" />
	<circle cx="499.9800723896" cy="-865.3916540002" r="2" />
	<circle cx="999.9990339091" cy="-0.0016351527" r="2" />
	<circle cx="500.0000000000" cy="-866.0254038000" r="2" />
	<circle cx="0.0000125600" cy="-0.0000107978" r="2" />
	<circle cx="8.1996691223" cy="-4.7455666290" r="2" />
	<circle cx="983.2767387354" cy="-9.7649524641" r="2" />
	<circle cx="0.0000000000" cy="-0.0000000000" r="2" />
	<circle cx="0.0000000000" cy="-0.0000000000" r="2" />
	<circle cx="778.2051226575" cy="-128.1500839673" r="2" />
	<circle cx="499.9902844499" cy="-864.4771665131" r="2" />
	<circle cx="998.4750137427" cy="-0.8807643346" r="2" />
	<circle cx="0.0000185080" cy="-0.0000130219" r="2" />
	<circle cx="0.0000000000" cy="-0.0000000000" r="2" />
	<circle cx="1000.0000000000" cy="-0.0000000000" r="2" />
	<circle cx="0.0000000000" cy="-0.0000000000" r="2" />
	<circle cx="988.8354833229" cy="-3.9563538851" r="2" />
	<circle cx="0.0000000000" cy="-0.0000000000" r="2" />
	<circle cx="0.0000000002" cy="-0.0000000001" r="2" />
	<circle cx="0.0000000001" cy="-0.0000000001" r="2" />
	<circle cx="0.0000000000" cy="-0.0000000000" r="2" />
	<circle cx="500.0000000000" cy="-866.0254038000" r="2" />
	<circle cx="0.0000000000" cy="-0.0000000000" r="2" />
	<circle cx="500.0000000000" cy="-866.0254038000" r="2" />
	<circle cx="500.0000000000" cy="-866.0254038000" r="2" />
	<circle cx="999.9945199724" cy="-0.0031653634" r="2" />
	<circle cx="0.8430771451" cy="-0.3936369276" r="2" />
	<circle cx="500.1675048822" cy="-861.8675975563" r="2" />
	<circle cx="373.7918578019" cy="-216.1357566840" r="2" />
	<circle cx="1000.0000000000" cy="-0.0000000000" r="2" />
	<circle cx="500.0000000000" cy="-866.0254038000" r="2" />
	<circle cx="997.7910346861" cy="-0.0257693462" r="2" />
	<circle cx="221.7956056335" cy="-128.1520155922" r="2" />
	<circle cx="500.0000000000" cy="-866.0254038000" r="2" />
	<circle cx="999.9999999973" cy="-0.0000000014" r="2" />
	<circle cx="999.9997434784" cy="-0.0001482098" r="2" />
	<circle cx="0.0000000000" cy="-0.0000000000" r="2" />
	<circle cx="509.6030483778" cy="-690.3906892371" r="2" />
	<circle cx="551.6114452409" cy="-449.6193191409" r="2" />
	<circle cx="0.0000000000" cy="-0.0000000000" r="2" />
	<circle cx="0.0000002458" cy="-0.0000001420" r="2" />
	<circle cx="1000.0000000000" cy="-0.0000000000" r="2" />
	<circle cx="993.5102070304" cy="-8.1619624522" r="2" />
	<circle cx="502.1960697287" cy="-783.5212242521" r="2" />
	<circle cx="1000.0000000000" cy="-0.0000000000" r="2" />
	<circle cx="500.0000102062" cy="-866.0065382817" r="2" />
	<circle cx="1000.0000000000" cy="-0.0000000000" r="2" />
	<circle cx="2.0308564568" cy="-2.5470883667" r="2" />
	<circle cx="1000.0000000000" cy="-0.0000000000" r="2" />
	<circle cx="499.9973014582" cy="-866.0180023668" r="2" />
	<circle cx="500.0110586959" cy="-865.3013527380" r="2" />
	<circle cx="499.9997682548" cy="-865.6262478809" r="2" />
	<circle cx="0.0000000000" cy="-0.0000000000" r="2" />
	<circle cx="354.9034200820" cy="-203.3875391922" r="2" />
	<circle cx="0.0000000004" cy="-0.0000000006" r="2" />
	<circle cx="998.8068481458" cy="-0.4138843101" r="2" />
	<circle cx="991.7535330304" cy="-4.8024073111" r="2" />
	<circle cx="1000.0000000000" cy="-0.0000000000" r="2" />
	<circle cx="0.0000000000" cy="-0.0000000000" r="2" />
	<circle cx="137.9821231764" cy="-80.1351506020" r="2" />
	<circle cx="0.0000000000" cy="-0.0000000000" r="2" />
	<circle cx="500.0000000000" cy="-866.0254038000" r="2" />
	<circle cx="19.8974314856" cy="-10.1265230863" r="2" />
	<circle cx="500.0000000000" cy="-866.0254038000" r="2" />
	<circle cx="0.0000000000" cy="-0.0000000000" r="2" />
	<circle cx="499.7162822081" cy="-826.7134780261" r="2" />
	<circle cx="1000.0000000000" cy="-0.0000000000" r="2" />
	<circle cx="0.0000000000" cy="-0.0000000000" r="2" />
	<circle cx="1000.0000000000" cy="-0.0000000000" r="2" />
	<circle cx="1000.0000000000" cy="-0.0000000000" r="2" />
	<circle cx="999.9999999966" cy="-0.0000000019" r="2" />
	<circle cx="466.6273355212" cy="-253.8759946404" r="2" />
	<circle cx="1000.0000000000" cy="-0.0000000000" r="2" />
	<circle cx="502.9079938196" cy="-809.5714929703" r="2" />
	<circle cx="1.0090516588" cy="-0.5987244362" r="2" />
	<circle cx="1000.0000000000" cy="-0.0000000000" r="2" />
	<circle cx="499.9999998342" cy="-866.0246543409" r="2" />
	<circle cx="500.0000000000" cy="-866.0254037689" r="2" />
	<circle cx="993.9156357548" cy="-4.2161677278" r="2" />
	<circle cx="646.3139038422" cy="-205.6482108347" r="2" />
	<circle cx="1000.0000000000" cy="-0.0000000000" r="2" />
	<circle cx="500.0000000000" cy="-866.0254037000" r="2" />
	<circle cx="269.5585901572" cy="-163.9610743060" r="2" />
	<circle cx="500.0000000000" cy="-866.0254038000" r="2" />
	<circle cx="500.0000000000" cy="-866.0254038000" r="2" />
	<circle cx="992.9604343833" cy="-4.0607831632" r="2" />
	<circle cx="0.0000000000" cy="-0.0000000000" r="2" />
	<circle cx="499.9999999956" cy="-866.0253971872" r="2" />
	<circle cx="620.7795490009" cy="-225.7232742236" r="2" />
	<circle cx="0.0000000000" cy="-0.0000000000" r="2" />
	<circle cx="4.7935270825" cy="-2.7671563532" r="2" />
	<circle cx="509.7814300792" cy="-621.7838151129" r="2" />
	<circle cx="998.9199251552" cy="-0.6221683239" r="2" />
	<circle cx="0.0000000000" cy="-0.0000000000" r="2" />
	<circle cx="500.0000000086" cy="-866.0253854068" r="2" />
	<circle cx="580.0060004222" cy="-498.2030887126" r="2" />
	<circle cx="0.0000000000" cy="-0.0000000000" r="2" />
	<circle cx="0.0175061667" cy="-0.0000000001" r="2" />
	<circle cx="500.0000000000" cy="-866.0254038000" r="2" />
	<circle cx="500.0000000000" cy="-866.0254038000" r="2" />
	<circle cx="0.0000000000" cy="-0.0000000000" r="2" />
	<circle cx="268.3396733186" cy="-167.1637752822" r="2" />
	<circle cx="0.4754959218" cy="-0.1388355271" r="2" />
	<circle cx="888.8502957989" cy="-64.1832379900" r="2" />
	<circle cx="0.0000004278" cy="-0.0000002736" r="2" />
	<circle cx="1000.0000000000" cy="-0.0000000000" r="2" />
	<circle cx="702.6538017004" cy="-171.7105120599" r="2" />
	<circle cx="1000.0000000000" cy="-0.0000000000" r="2" />
	<circle cx="499.2706631011" cy="-862.1015825806" r="2" />
	<circle cx="0.0000000000" cy="-0.0000000000" r="2" />
	<circle cx="999.9587720896" cy="-0.0224351009" r="2" />
	<circle cx="1000.0000000000" cy="-0.0000000000" r="2" />
	<circle cx="500.0000000000" cy="-866.0254038000" r="2" />
	<circle cx="500.0000000000" cy="-866.0254038000" r="2" />
	<circle cx="1000.0000000000" cy="-0.0000000000" r="2" />
	<circle cx="499.9999453470" cy="-865.4675652874" r="2" />
	<circle cx="500.0000000000" cy="-866.0254038000" r="2" />
	<circle cx="500.4574713970" cy="-288.4076698620" r="2" />
	<circle cx="500.0000000000" cy="-866.0254038000" r="2" />
	<circle cx="821.4615340172" cy="-103.2272128092" r="2" />
	<circle cx="500.0000000000" cy="-866.0254038000" r="2" />
	<circle cx="500.0000000000" cy="-866.0254038000" r="2" />
	<circle cx="14.4766592274" cy="-8.3647267843" r="2" />
	<circle cx="999.9998766128" cy="-0.0000799555" r="2" />
	<circle cx="1000.0000000000" cy="-0.0000000000" r="2" />
	<circle cx="0.0000001660" cy="-0.0000000958" r="2" />
	<circle cx="500.0000000056" cy="-866.0254037555" r="2" />
	<circle cx="102.0403065973" cy="-105.6253584987" r="2" />
	<circle cx="999.9999999570" cy="-0.0000000248" r="2" />
	<circle cx="991.5121866781" cy="-0.0000005922" r="2" />
	<circle cx="1000.0000000000" cy="-0.0000000000" r="2" />
	<circle cx="1000.0000000000" cy="-0.0000000000" r="2" />
	<circle cx="495.4849973911" cy="-280.6059785772" r="2" />
	<circle cx="0.0000000000" cy="-0.0000000000" r="2" />
	<circle cx="0.0000000000" cy="-0.0000000000" r="2" />
	<circle cx="500.0000000000" cy="-866.0254038000" r="2" />
	<circle cx="999.9999999946" cy="-0.0000000031" r="2" />
	<circle cx="0.0000000000" cy="-0.0000000000" r="2" />
	<circle cx="500.0000000000" cy="-866.0254038000" r="2" />
	<circle cx="500.0000000000" cy="-866.0254038000" r="2" />
	<circle cx="1000.0000000000" cy="-0.0000000000" r="2" />
	<circle cx="500.0000000000" cy="-866.0254038000" r="2" />
	<circle cx="500.0000000000" cy="-866.0254038000" r="2" />
	<circle cx="500.0000000000" cy="-866.0254038000" r="2" />
	<circle cx="1000.0000000000" cy="-0.0000000000" r="2" />
	<circle cx="999.5961452012" cy="-0.2331082637" r="2" />
	<circle cx="470.2656563321" cy="-566.5144219405" r="2" />
	<circle cx="0.0000059761" cy="-0.0000034467" r="2" />
	<circle cx="1000.0000000000" cy="-0.0000000000" r="2" />
	<circle cx="1000.0000000000" cy="-0.0000000000" r="2" />
	<circle cx="500.0629675682" cy="-865.6931391951" r="2" />
	<circle cx="0.9521407243" cy="-0.5495009341" r="2" />
	<circle cx="500.0000000000" cy="-866.0254038000" r="2" />
	<circle cx="500.0000031613" cy="-865.9883763368" r="2" />
	<circle cx="0.0000000000" cy="-0.0000000000" r="2" />
	<circle cx="500.0000000000" cy="-866.0254038000" r="2" />
	<circle cx="500.0000000000" cy="-866.0254038000" r="2" />
	<circle cx="1000.0000000000" cy="-0.0000000000" r="2" />
	<circle cx="1000.0000000000" cy="-0.0000000000" r="2" />
	<circle cx="500.0000000000" cy="-866.0254038000" r="2" />
	<circle cx="609.9599950779" cy="-225.1348523579" r="2" />
	<circle cx="54.1887709426" cy="-18.7366893366" r="2" />
	<circle cx="1000.0000000000" cy="-0.0000000000" r="2" />
	<circle cx="500.0000000000" cy="-866.0254038000" r="2" />
	<circle cx="500.0000000000" cy="-866.0254038000" r="2" />
	<circle cx="500.0000000000" cy="-866.0254038000" r="2" />
	<circle cx="656.3286193551" cy="-198.2550733538" r="2" />
	<circle cx="382.6717660198" cy="-562.7343465164" r="2" />
	<circle cx="20.3240264346" cy="-14.0469479054" r="2" />
	<circle cx="1000.0000000000" cy="-0.0000000000" r="2" />
	<circle cx="500.0117211831" cy="-865.7442030932" r="2" />
	<circle cx="500.0218805323" cy="-865.7763550987" r="2" />
	<circle cx="499.3955007082" cy="-851.3777906010" r="2" />
	<circle cx="0.0000000000" cy="-0.0000000000" r="2" />
	<circle cx="0.0000000000" cy="-0.0000000000" r="2" />
	<circle cx="999.9997050809" cy="-0.0001737788" r="2" />
	<circle cx="0.0000000000" cy="-0.0000000000" r="2" />
	<circle cx="322.3430682800" cy="-181.9470579509" r="2" />
	<circle cx="1000.0000000000" cy="-0.0000000000" r="2" />
	<circle cx="751.5122166379" cy="-143.4764310906" r="2" />
	<circle cx="1000.0000000000" cy="-0.0000000000" r="2" />
	<circle cx="0.0000000005" cy="-0.0000000003" r="2" />
	<circle cx="477.1920651602" cy="-361.5722411840" r="2" />
	<circle cx="975.4637681305" cy="-14.1606645086" r="2" />
	<circle cx="1.4259190397" cy="-0.8513949155" r="2" />
	<circle cx="0.0000000000" cy="-0.0000000000" r="2" />
	<circle cx="515.6473900050" cy="-140.3312439369" r="2" />
	<circle cx="500.0000000000" cy="-866.0254038000" r="2" />
	<circle cx="500.0000000317" cy="-866.0253171133" r="2" />
	<circle cx="327.1862686973" cy="-45.4817157947" r="2" />
	<circle cx="500.0000000000" cy="-866.0254038000" r="2" />
	<circle cx="0.0000000000" cy="-0.0000000000" r="2" />
	<circle cx="0.0000000000" cy="-0.0000000000" r="2" />
	<circle cx="999.9991125435" cy="-0.0014045500" r="2" />
	<circle cx="500.0001774152" cy="-866.0012837387" r="2" />
	<circle cx="0.0000000000" cy="-0.0000000000" r="2" />
	<circle cx="500.0000000000" cy="-866.0254035862" r="2" />
	<circle cx="574.9183193725" cy="-245.4650393682" r="2" />
	<circle cx="500.0000000000" cy="-866.0254038000" r="2" />
	<circle cx="500.0219953071" cy="-469.2864962028" r="2" />
	<circle cx="0.0000000000" cy="-0.0000000000" r="2" />
	<circle cx="0.0000000000" cy="-0.0000000000" r="2" />
	<circle cx="500.0000000000" cy="-866.0254038000" r="2" />
	<circle cx="500.0000000000" cy="-866.0254038000" r="2" />
	<circle cx="499.7379307096" cy="-851.4174220608" r="2" />
	<circle cx="500.0000000000" cy="-866.0254038000" r="2" />
	<circle cx="0.0163865241" cy="-0.0281279652" r="2" />
	<circle cx="812.1370617323" cy="-108.9070477558" r="2" />
	<circle cx="499.9769866375" cy="-865.7359581252" r="2" />
	<circle cx="0.0000000000" cy="-0.0000000000" r="2" />
	<circle cx="1000.0000000000" cy="-0.0000000000" r="2" />
	<circle cx="0.0000000000" cy="-0.0000000000" r="2" />
	<circle cx="1000.0000000000" cy="-0.0000000000" r="2" />
	<circle cx="1000.0000000000" cy="-0.0000000000" r="2" />
	<circle cx="500.0000000000" cy="-866.0254038000" r="2" />
	<circle cx="0.0000000000" cy="-0.0000000000" r="2" />
	<circle cx="500.0000000000" cy="-866.0254038000" r="2" />
	<circle cx="999.9990357526" cy="-0.0005566689" r="2" />
	<circle cx="0.0584474140" cy="-0.0337286553" r="2" />
	<circle cx="1000.0000000000" cy="-0.0000000000" r="2" />
	<circle cx="500.0000000000" cy="-866.0254035863" r="2" />
	<circle cx="0.0000501148" cy="-0.0000289185" r="2" />
	<circle cx="0.0000000000" cy="-0.0000000000" r="2" />
	<circle cx="988.9130828499" cy="-6.3323684013" r="2" />
	<circle cx="1000.0000000000" cy="-0.0000000000" r="2" />
	<circle cx="0.0000000000" cy="-0.0000000000" r="2" />
	<circle cx="0.0000000000" cy="-0.0000000000" r="2" />
	<circle cx="0.0015292952" cy="-0.0008826157" r="2" />
	<circle cx="0.0000000000" cy="-0.0000000000" r="2" />
	<circle cx="0.0000000000" cy="-0.0000000000" r="2" />
	<circle cx="665.0738328440" cy="-253.1347332520" r="2" />
	<circle cx="0.0000000000" cy="-0.0000000000" r="2" />
	<circle cx="0.0000000000" cy="-0.0000000000" r="2" />
	<circle cx="999.9020888952" cy="-0.0565349853" r="2" />
	<circle cx="500.0000000000" cy="-866.0254038000" r="2" />
	<circle cx="499.9986334423" cy="-866.0230367746" r="2" />
	<circle cx="0.0000000000" cy="-0.0000000000" r="2" />
	<circle cx="983.4181840275" cy="-0.4215535809" r="2" />
	<circle cx="500.0000000000" cy="-866.0254038000" r="2" />
	<circle cx="0.0000000000" cy="-0.0000000000" r="2" />
	<circle cx="0.0930921139" cy="-0.0537610388" r="2" />
	<circle cx="500.0000000000" cy="-866.0254038000" r="2" />
	<circle cx="1.8919550852" cy="-0.5273068307" r="2" />
	<circle cx="1000.0000000000" cy="-0.0000000000" r="2" />
	<circle cx="500.0000000000" cy="-866.0254038000" r="2" />
	<circle cx="0.0000000000" cy="-0.0000000000" r="2" />
	<circle cx="500.0000000000" cy="-866.0254037999" r="2" />
	<circle cx="500.0000000000" cy="-866.0254038000" r="2" />
	<circle cx="4.3472444773" cy="-2.5097065054" r="2" />
	<circle cx="500.0000000000" cy="-866.0254038000" r="2" />
	<circle cx="15.6593154158" cy="-8.4096634750" r="2" />
	<circle cx="504.4815857403" cy="-858.1594458531" r="2" />
	<circle cx="500.0016076034" cy="-717.0558418599" r="2" />
	<circle cx="993.1534712156" cy="-3.8307203472" r="2" />
	<circle cx="501.0712206086" cy="-858.3309550259" r="2" />
	<circle cx="0.0000000000" cy="-0.0000000000" r="2" />
	<circle cx="999.9693826285" cy="-0.0176997153" r="2" />
	<circle cx="500.0000057587" cy="-866.0252670575" r="2" />
	<circle cx="500.0000000000" cy="-866.0254038000" r="2" />
	<circle cx="0.3456443445" cy="-0.1992717626" r="2" />
	<circle cx="499.9998860895" cy="-866.0214335763" r="2" />
	<circle cx="499.9999999592" cy="-866.0252500292" r="2" />
	<circle cx="17.0412310669" cy="-12.2256650766" r="2" />
	<circle cx="999.9137394737" cy="-0.0497874284" r="2" />
	<circle cx="659.6340241920" cy="-589.4688800971" r="2" />
	<circle cx="12.1082832276" cy="-7.0091379000" r="2" />
	<circle cx="0.0000000000" cy="-0.0000000000" r="2" />
	<circle cx="501.1895880571" cy="-862.9941371323" r="2" />
	<circle cx="0.0000000034" cy="-0.0000000019" r="2" />
	<circle cx="1000.0000000000" cy="-0.0000000000" r="2" />
	<circle cx="1000.0000000000" cy="-0.0000000000" r="2" />
	<circle cx="0.0000000000" cy="-0.0000000000" r="2" />
	<circle cx="500.0000000000" cy="-866.0254038000" r="2" />
	<circle cx="999.9993011265" cy="-0.0011260268" r="2" />
	<circle cx="0.0000000000" cy="-0.0000000000" r="2" />
	<circle cx="1.3671136943" cy="-0.7893056788" r="2" />
	<circle cx="0.0000000000" cy="-0.0000000000" r="2" />
	<circle cx="995.9231416505" cy="-2.3502713570" r="2" />
	<circle cx="499.9999981400" cy="-866.0253756869" r="2" />
	<circle cx="2.3439531938" cy="-1.3541752640" r="2" />
	<circle cx="500.0000000000" cy="-866.0254038000" r="2" />
	<circle cx="453.0984457613" cy="-277.2866584533" r="2" />
	<circle cx="0.0000000000" cy="-0.0000000000" r="2" />
	<circle cx="1000.0000000000" cy="-0.0000000000" r="2" />
	<circle cx="993.5355388344" cy="-4.2137164014" r="2" />
	<circle cx="986.4366147475" cy="-5.3431902974" r="2" />
	<circle cx="59.7162944344" cy="-59.6543788113" r="2" />
	<circle cx="0.0000000000" cy="-0.0000000000" r="2" />
	<circle cx="500.0000000000" cy="-866.0254038000" r="2" />
	<circle cx="499.9999799695" cy="-866.0248650373" r="2" />
	<circle cx="500.0000000000" cy="-866.0254038000" r="2" />
	<circle cx="998.3985669330" cy="-0.9240348958" r="2" />
	<circle cx="500.0000000000" cy="-866.0254038000" r="2" />
	<circle cx="499.9869358358" cy="-866.0027759993" r="2" />
	<circle cx="0.0022075875" cy="-0.0012741259" r="2" />
	<circle cx="0.0585831650" cy="-0.0001080007" r="2" />
	<circle cx="0.0000000000" cy="-0.0000000000" r="2" />
	<circle cx="0.0000000000" cy="-0.0000000000" r="2" />
	<circle cx="871.2953226817" cy="-82.0871942812" r="2" />
	<circle cx="499.9938860944" cy="-836.7467586013" r="2" />
	<circle cx="999.9997522540" cy="-0.0001429778" r="2" />
	<circle cx="476.2739845839" cy="-707.7539556867" r="2" />
	<circle cx="973.8735969088" cy="-15.0706000215" r="2" />
	<circle cx="1000.0000000000" cy="-0.0000000000" r="2" />
	<circle cx="493.8642585159" cy="-751.2731231232" r="2" />
	<circle cx="500.0000000000" cy="-866.0254038000" r="2" />
	<circle cx="0.0000000000" cy="-0.0000000000" r="2" />
	<circle cx="499.9999999365" cy="-866.0252459940" r="2" />
	<circle cx="500.0000000000" cy="-866.0254038000" r="2" />
	<circle cx="413.7303063522" cy="-713.0343458635" r="2" />
	<circle cx="999.6429619496" cy="-0.2062995720" r="2" />
	<circle cx="1000.0000000000" cy="-0.0000000000" r="2" />
	<circle cx="500.0000000000" cy="-866.0254038000" r="2" />
	<circle cx="137.9360849061" cy="-0.8360530283" r="2" />
	<circle cx="999.9999999960" cy="-0.0000000023" r="2" />
	<circle cx="0.2858786697" cy="-0.1628670430" r="2" />
	<circle cx="490.7636268957" cy="-314.4276526900" r="2" />
	<circle cx="999.9999999079" cy="-0.0000000529" r="2" />
	<circle cx="999.3489848559" cy="-0.3692134295" r="2" />
	<circle cx="500.0000023812" cy="-866.0115459898" r="2" />
	<circle cx="499.9492467456" cy="-288.5603517011" r="2" />
	<circle cx="0.0000000000" cy="-0.0000000000" r="2" />
	<circle cx="0.0000001484" cy="-0.0000000856" r="2" />
	<circle cx="499.9999999538" cy="-866.0254037200" r="2" />
	<circle cx="999.8849313263" cy="-0.0664079251" r="2" />
	<circle cx="0.0000000000" cy="-0.0000000000" r="2" />
	<circle cx="999.9993514369" cy="-0.0003746913" r="2" />
	<circle cx="500.0000000000" cy="-866.0254037999" r="2" />
	<circle cx="19.8687231595" cy="-11.7028935984" r="2" />
	<circle cx="1000.0000000000" cy="-0.0000000000" r="2" />
	<circle cx="0.0000000000" cy="-0.0000000000" r="2" />
	<circle cx="1000.0000000000" cy="-0.0000000000" r="2" />
	<circle cx="1000.0000000000" cy="-0.0000000000" r="2" />
	<circle cx="1000.0000000000" cy="-0.0000000000" r="2" />
	<circle cx="644.0728329426" cy="-510.1356089128" r="2" />
	<circle cx="999.8978911025" cy="-0.0856087518" r="2" />
	<circle cx="499.9999439221" cy="-866.0160647164" r="2" />
	<circle cx="999.9994177939" cy="-0.0003361203" r="2" />
	<circle cx="0.0000000000" cy="-0.0000000000" r="2" />
	<circle cx="1000.0000000000" cy="-0.0000000000" r="2" />
	<circle cx="1000.0000000000" cy="-0.0000000000" r="2" />
	<circle cx="0.2031446638" cy="-0.0558299371" r="2" />
	<circle cx="313.8011730227" cy="-181.1564922290" r="2" />
	<circle cx="1000.0000000000" cy="-0.0000000000" r="2" />
	<circle cx="0.0000000000" cy="-0.0000000000" r="2" />
	<circle cx="1000.0000000000" cy="-0.0000000000" r="2" />
  </g>
  <g id="fig2" transform="translate(-550.0,1000)">
	<polygon points="0.0,-0.0 1000.0,-0.0 500.0,-866.0254038" />
	<line
	   id="line2-1"
	   y2="-0.0"
	   x2="500"
	   y1="-288.6751346"
	   x1="500" />
	<line
	   id="line2-2"
	   y2="-433.0127019"
	   x2="250"
	   y1="-288.6751346"
	   x1="500" />
	<line
	   id="line2-3"
	   y2="-433.0127019"
	   x2="750"
	   y1="-288.6751346"
	   x1="500" />
	<text
	   x="440"
	   y="-500"
	   id="up_2">34.2%</text>
	<text
	   x="250"
	   y="-150"
	   id="down_left_2">32.8%</text>
	<text
	   x="630"
	   y="-150"
	   id="down_right_2">33.0%</text>
  </g>
  <g id="fig3" transform="translate(550,1000)">
	<polygon points="0.0,-0.0 1000.0,-0.0 500.0,-866.0254038" />
	<polygon id="triangle3b" points="250,-144.3375673 750,-144.3375673 500,-577.3502692" />
	<line
	   id="line3-1"
	   x1="125"
	   y1="-216.5063509"
	   x2="250"
	   y2="-144.3375673" />
	<line
	   id="line3-2"
	   x1="375"
	   y1="-649.5190528"
	   x2="500"
	   y2="-577.3502692" />
	<line
	   id="line3-3"
	   x1="625"
	   y1="-649.5190528"
	   x2="500"
	   y2="-577.3502692" />
	<line
	   id="line3-4"
	   x1="875"
	   y1="-216.5063509"
	   x2="750"
	   y2="-144.3375673" />
	<line
	   id="line3-5"
	   x1="750"
	   y1="-0.0"
	   x2="750"
	   y2="-144.3375673" />
	<line
	   id="line3-6"
	   x1="250"
	   y1="-0.0"
	   x2="250"
	   y2="-144.3375673" />
	<text
	   x="500"
	   y="-660"
	   text-anchor="middle"
	   id="up_3">31.8%</text>
	<text
	   y="-50"
	   x="70"
	   id="down_left_3">30.2%</text>
	<text
	   y="-50"
	   x="770"
	   id="down_right_3">29.8%</text>
	<text
	   x="500"
	   y="-50"
	   text-anchor="middle"
	   id="down_side_3">0.8%</text>
	<text
	   x="500"
	   y="-280"
	   text-anchor="middle"
	   id="center_3">5.8%</text>
	<text
	   x="685.0"
	   y="-390.8439"
	   text-anchor="middle"
	   transform="rotate(60,665.0,-380.8439)"
	   id="right_side_3">1.2%</text>
	<text
	   x="315.0"
	   y="-390.8439"
	   text-anchor="middle"
	   transform="rotate(-60,335.0,-380.8439)"
	   id="left_side_3">0.4%</text>
  </g>
</g></g>
</svg>
