<?xml version="1.0" encoding="UTF-8" standalone="no"?>
<!DOCTYPE svg PUBLIC "-//W3C//DTD SVG 1.1//EN" "http://www.w3.org/Graphics/SVG/1.1/DTD/svg11.dtd">
<svg
   xmlns:svg="http://www.w3.org/2000/svg"
   xmlns="http://www.w3.org/2000/svg"
   xmlns:xlink="http://www.w3.org/1999/xlink"
   version="1.1"
   baseProfile="full"
   id="body"
   width="800px"
   height="800px"
   viewBox="0 0 1000 1000"
   preserveAspectRatio="none">
  <defs>
    <style type="text/css"><![CDATA[
      circle{ stroke: none; }
      polygon{ stroke: black; stroke-width: 2px; fill: none; }
      line{ stroke: black; stroke-width: 2px; }
      text{ font-size:50px; }
    ]]></style>
  </defs>
  <title
     id="title1">SVG drawing</title>
<g transform="scale(0.45)"><g transform="translate(600,1050)">
  <g id="fig1">
	<polygon points="0.0,-0.0 1000.0,-0.0 500,-866.0254038" />
	<circle cx="500.0000000024" cy="-866.0253665926" r="2" />
	<circle cx="0.0000000000" cy="-0.0000000000" r="2" />
	<circle cx="0.0001797306" cy="-0.0001138144" r="2" />
	<circle cx="999.9999951755" cy="-0.0000027702" r="2" />
	<circle cx="0.0000000000" cy="-0.0000000000" r="2" />
	<circle cx="1000.0000000000" cy="-0.0000000000" r="2" />
	<circle cx="40.5409363574" cy="-23.4636417715" r="2" />
	<circle cx="779.5974046652" cy="-147.0455813831" r="2" />
	<circle cx="0.0000000000" cy="-0.0000000000" r="2" />
	<circle cx="0.0001627995" cy="-0.0000956528" r="2" />
	<circle cx="20.6088250679" cy="-11.6401816707" r="2" />
	<circle cx="0.0000000000" cy="-0.0000000000" r="2" />
	<circle cx="500.0000000000" cy="-866.0254038000" r="2" />
	<circle cx="500.0000000000" cy="-866.0254038000" r="2" />
	<circle cx="500.0722570045" cy="-288.1864845039" r="2" />
	<circle cx="9.7642076872" cy="-4.5840150734" r="2" />
	<circle cx="0.0000000000" cy="-0.0000000000" r="2" />
	<circle cx="499.9999994245" cy="-866.0253925189" r="2" />
	<circle cx="500.0000000000" cy="-866.0254038000" r="2" />
	<circle cx="999.9987072606" cy="-0.0007477709" r="2" />
	<circle cx="999.0305364072" cy="-0.6181832378" r="2" />
	<circle cx="271.5473137004" cy="-135.5600579419" r="2" />
	<circle cx="499.9999999764" cy="-866.0215476421" r="2" />
	<circle cx="0.0000000000" cy="-0.0000000000" r="2" />
	<circle cx="0.0000000935" cy="-0.0000000540" r="2" />
	<circle cx="1000.0000000000" cy="-0.0000000000" r="2" />
	<circle cx="500.0000000000" cy="-866.0254038000" r="2" />
	<circle cx="996.5778682732" cy="-1.5464442443" r="2" />
	<circle cx="499.9474742452" cy="-516.5402306534" r="2" />
	<circle cx="500.0000000003" cy="-866.0254004037" r="2" />
	<circle cx="123.0333064447" cy="-79.0368424350" r="2" />
	<circle cx="500.0000000000" cy="-866.0254038000" r="2" />
	<circle cx="995.2397592372" cy="-3.0179277375" r="2" />
	<circle cx="1000.0000000000" cy="-0.0000000000" r="2" />
	<circle cx="0.0000000000" cy="-0.0000000000" r="2" />
	<circle cx="500.0416953626" cy="-288.6194363825" r="2" />
	<circle cx="997.2056065347" cy="-1.3811444605" r="2" />
	<circle cx="520.8937411505" cy="-426.7598420581" r="2" />
	<circle cx="958.4902637854" cy="-33.7080689760" r="2" />
	<circle cx="0.0000000000" cy="-0.0000000000" r="2" />
	<circle cx="500.0000000000" cy="-866.0254038000" r="2" />
	<circle cx="0.0000000000" cy="-0.0000000000" r="2" />
	<circle cx="37.4657838933" cy="-21.6019161550" r="2" />
	<circle cx="902.1885975402" cy="-56.5166943443" r="2" />
	<circle cx="453.1111143423" cy="-593.2299019288" r="2" />
	<circle cx="1000.0000000000" cy="-0.0000000000" r="2" />
	<circle cx="499.9999999305" cy="-866.0253872124" r="2" />
	<circle cx="499.9999999969" cy="-866.0251188555" r="2" />
	<circle cx="499.8762781868" cy="-676.1958489723" r="2" />
	<circle cx="0.0000000000" cy="-0.0000000000" r="2" />
	<circle cx="999.9999999908" cy="-0.0000000000" r="2" />
	<circle cx="500.0000000000" cy="-866.0254038000" r="2" />
	<circle cx="967.6352367204" cy="-17.2625853148" r="2" />
	<circle cx="0.0000000000" cy="-0.0000000000" r="2" />
	<circle cx="500.0000000000" cy="-866.0254038000" r="2" />
	<circle cx="630.2459867822" cy="-213.1856667356" r="2" />
	<circle cx="0.0000000000" cy="-0.0000000000" r="2" />
	<circle cx="500.0000000000" cy="-866.0254038000" r="2" />
	<circle cx="1000.0000000000" cy="-0.0000000000" r="2" />
	<circle cx="500.0000000000" cy="-866.0254038000" r="2" />
	<circle cx="0.0000000000" cy="-0.0000000000" r="2" />
	<circle cx="47.6548521749" cy="-27.4937574808" r="2" />
	<circle cx="1000.0000000000" cy="-0.0000000000" r="2" />
	<circle cx="500.0079508375" cy="-374.8621012061" r="2" />
	<circle cx="0.0000000000" cy="-0.0000000000" r="2" />
	<circle cx="998.8167797334" cy="-0.5056881276" r="2" />
	<circle cx="0.0000000015" cy="-0.0000000009" r="2" />
	<circle cx="1000.0000000000" cy="-0.0000000000" r="2" />
	<circle cx="1000.0000000000" cy="-0.0000000000" r="2" />
	<circle cx="0.0000000006" cy="-0.0000000003" r="2" />
	<circle cx="0.0000000001" cy="-0.0000000002" r="2" />
	<circle cx="500.0000000000" cy="-866.0254038000" r="2" />
	<circle cx="6.7384525650" cy="-4.3746950116" r="2" />
	<circle cx="0.0000000000" cy="-0.0000000000" r="2" />
	<circle cx="0.0000000000" cy="-0.0000000000" r="2" />
	<circle cx="0.0000001619" cy="-0.0000000628" r="2" />
	<circle cx="0.0000000252" cy="-0.0000000150" r="2" />
	<circle cx="743.0019934614" cy="-148.5652116578" r="2" />
	<circle cx="500.0000000000" cy="-866.0254038000" r="2" />
	<circle cx="995.5865402511" cy="-2.6317766925" r="2" />
	<circle cx="0.0000000000" cy="-0.0000000000" r="2" />
	<circle cx="999.8504711704" cy="-0.0845137884" r="2" />
	<circle cx="0.0000000338" cy="-0.0000000195" r="2" />
	<circle cx="500.0000000000" cy="-866.0254038000" r="2" />
	<circle cx="500.0000000000" cy="-866.0254038000" r="2" />
	<circle cx="1000.0000000000" cy="-0.0000000000" r="2" />
	<circle cx="0.0000000000" cy="-0.0000000000" r="2" />
	<circle cx="965.3330589778" cy="-19.1535137592" r="2" />
	<circle cx="500.0000000001" cy="-866.0254036472" r="2" />
	<circle cx="1000.0000000000" cy="-0.0000000000" r="2" />
	<circle cx="0.0000032122" cy="-0.0000018334" r="2" />
	<circle cx="911.5593242786" cy="-51.0056771420" r="2" />
	<circle cx="3.2555359401" cy="-1.8845338951" r="2" />
	<circle cx="0.0000000000" cy="-0.0000000000" r="2" />
	<circle cx="500.0000000000" cy="-866.0254038000" r="2" />
	<circle cx="958.7058794451" cy="-20.5133922485" r="2" />
	<circle cx="1000.0000000000" cy="-0.0000000000" r="2" />
	<circle cx="1000.0000000000" cy="-0.0000000000" r="2" />
	<circle cx="1000.0000000000" cy="-0.0000000000" r="2" />
	<circle cx="1000.0000000000" cy="-0.0000000000" r="2" />
	<circle cx="862.7613805355" cy="-60.5535166281" r="2" />
	<circle cx="0.0000005547" cy="-0.0000003193" r="2" />
	<circle cx="125.1392443173" cy="-72.5415694259" r="2" />
	<circle cx="500.0011216820" cy="-865.1699560785" r="2" />
	<circle cx="0.0000000000" cy="-0.0000000000" r="2" />
	<circle cx="136.8227644602" cy="-78.9766440064" r="2" />
	<circle cx="0.0000000000" cy="-0.0000000000" r="2" />
	<circle cx="0.0000000000" cy="-0.0000000000" r="2" />
	<circle cx="999.9989424607" cy="-0.0006101346" r="2" />
	<circle cx="500.0129319091" cy="-289.1208391254" r="2" />
	<circle cx="1000.0000000000" cy="-0.0000000000" r="2" />
	<circle cx="999.9978881339" cy="-0.0010669687" r="2" />
	<circle cx="999.9999999721" cy="-0.0000000173" r="2" />
	<circle cx="999.9999960509" cy="-0.0000047180" r="2" />
	<circle cx="500.0000000000" cy="-866.0254038000" r="2" />
	<circle cx="500.1352296967" cy="-288.8866246432" r="2" />
	<circle cx="1000.0000000000" cy="-0.0000000000" r="2" />
	<circle cx="500.0000000000" cy="-866.0254038000" r="2" />
	<circle cx="499.0151109578" cy="-858.5329111504" r="2" />
	<circle cx="288.8965962973" cy="-154.8168304627" r="2" />
	<circle cx="24.7081119452" cy="-13.9978115301" r="2" />
	<circle cx="500.0000000000" cy="-866.0254038000" r="2" />
	<circle cx="500.0000000000" cy="-866.0254038000" r="2" />
	<circle cx="500.0003821437" cy="-865.9182034314" r="2" />
	<circle cx="25.0392841771" cy="-14.4469145627" r="2" />
	<circle cx="0.0000000000" cy="-0.0000000000" r="2" />
	<circle cx="0.0000000000" cy="-0.0000000000" r="2" />
	<circle cx="0.0000000003" cy="-0.0000000003" r="2" />
	<circle cx="985.7439450630" cy="-2.5600425673" r="2" />
	<circle cx="500.9398027916" cy="-734.7638884579" r="2" />
	<circle cx="499.7754918376" cy="-842.3589390716" r="2" />
	<circle cx="0.0000000000" cy="-0.0000000000" r="2" />
	<circle cx="1000.0000000000" cy="-0.0000000000" r="2" />
	<circle cx="1000.0000000000" cy="-0.0000000000" r="2" />
	<circle cx="500.0001007014" cy="-866.0243522216" r="2" />
	<circle cx="499.9999975438" cy="-866.0253995458" r="2" />
	<circle cx="499.3788288776" cy="-862.5955001371" r="2" />
	<circle cx="0.0000000000" cy="-0.0000000000" r="2" />
	<circle cx="178.7858106574" cy="-103.0225434403" r="2" />
	<circle cx="499.9999989336" cy="-866.0231994203" r="2" />
	<circle cx="500.3363307372" cy="-337.2803046891" r="2" />
	<circle cx="500.0000000000" cy="-866.0254038000" r="2" />
	<circle cx="1000.0000000000" cy="-0.0000000000" r="2" />
	<circle cx="0.0000000000" cy="-0.0000000000" r="2" />
	<circle cx="199.2376319278" cy="-124.8008265700" r="2" />
	<circle cx="28.6555582252" cy="-16.5626661897" r="2" />
	<circle cx="500.0000000000" cy="-866.0254038000" r="2" />
	<circle cx="0.0000000000" cy="-0.0000000000" r="2" />
	<circle cx="999.0865071006" cy="-0.4928735866" r="2" />
	<circle cx="0.0000000000" cy="-0.0000000000" r="2" />
	<circle cx="500.0000000000" cy="-866.0254037999" r="2" />
	<circle cx="500.0000000000" cy="-866.0226880594" r="2" />
	<circle cx="500.0000000000" cy="-866.0254038000" r="2" />
	<circle cx="500.0000901337" cy="-865.8526994956" r="2" />
	<circle cx="0.0000000000" cy="-0.0000000000" r="2" />
	<circle cx="903.4323013964" cy="-52.6252327452" r="2" />
	<circle cx="1000.0000000000" cy="-0.0000000000" r="2" />
	<circle cx="1000.0000000000" cy="-0.0000000000" r="2" />
	<circle cx="1000.0000000000" cy="-0.0000000000" r="2" />
	<circle cx="1000.0000000000" cy="-0.0000000000" r="2" />
	<circle cx="500.0000000000" cy="-866.0254038000" r="2" />
	<circle cx="1000.0000000000" cy="-0.0000000000" r="2" />
	<circle cx="1000.0000000000" cy="-0.0000000000" r="2" />
	<circle cx="505.2083159889" cy="-806.9358341084" r="2" />
	<circle cx="0.0000000000" cy="-0.0000000000" r="2" />
	<circle cx="1000.0000000000" cy="-0.0000000000" r="2" />
	<circle cx="500.0000013268" cy="-866.0253991785" r="2" />
	<circle cx="500.0000000000" cy="-866.0254037922" r="2" />
	<circle cx="500.0000000000" cy="-866.0254038000" r="2" />
	<circle cx="855.2628279363" cy="-64.5188575233" r="2" />
	<circle cx="500.0000000000" cy="-866.0254038000" r="2" />
	<circle cx="1000.0000000000" cy="-0.0000000000" r="2" />
	<circle cx="500.0000042933" cy="-866.0239216778" r="2" />
	<circle cx="500.0000000000" cy="-866.0254038000" r="2" />
	<circle cx="0.0000000000" cy="-0.0000000000" r="2" />
	<circle cx="859.7017846812" cy="-80.9379435864" r="2" />
	<circle cx="0.0000000000" cy="-0.0000000000" r="2" />
	<circle cx="1000.0000000000" cy="-0.0000000000" r="2" />
	<circle cx="500.0000004889" cy="-866.0253984539" r="2" />
	<circle cx="10.1209449635" cy="-6.0049957218" r="2" />
	<circle cx="500.0000000000" cy="-866.0254037999" r="2" />
	<circle cx="500.0112838006" cy="-619.7794718836" r="2" />
	<circle cx="0.0000000000" cy="-0.0000000000" r="2" />
	<circle cx="510.2251503799" cy="-237.0771528046" r="2" />
	<circle cx="500.0000000000" cy="-866.0254038000" r="2" />
	<circle cx="0.0008578176" cy="-0.0004953262" r="2" />
	<circle cx="1000.0000000000" cy="-0.0000000000" r="2" />
	<circle cx="0.0000001216" cy="-0.0000000702" r="2" />
	<circle cx="0.0000000000" cy="-0.0000000000" r="2" />
	<circle cx="499.9999995535" cy="-866.0253807214" r="2" />
	<circle cx="0.0004565574" cy="-0.0002634056" r="2" />
	<circle cx="500.0000000000" cy="-866.0254038000" r="2" />
	<circle cx="999.9979870888" cy="-0.0010095780" r="2" />
	<circle cx="980.4670150730" cy="-10.9724209559" r="2" />
	<circle cx="0.0000000000" cy="-0.0000000000" r="2" />
	<circle cx="0.0000000000" cy="-0.0000000000" r="2" />
	<circle cx="500.0000000000" cy="-866.0251838614" r="2" />
	<circle cx="1000.0000000000" cy="-0.0000000000" r="2" />
	<circle cx="0.0000000000" cy="-0.0000000000" r="2" />
	<circle cx="500.0000000000" cy="-866.0254038000" r="2" />
	<circle cx="500.0000000000" cy="-866.0254038000" r="2" />
	<circle cx="500.0000000000" cy="-866.0254038000" r="2" />
	<circle cx="567.4177681987" cy="-250.2485053447" r="2" />
	<circle cx="999.9999568279" cy="-0.0000189414" r="2" />
	<circle cx="500.0000000071" cy="-866.0253939584" r="2" />
	<circle cx="500.0000000000" cy="-866.0254038000" r="2" />
	<circle cx="1000.0000000000" cy="-0.0000000000" r="2" />
	<circle cx="1000.0000000000" cy="-0.0000000000" r="2" />
	<circle cx="35.3243542600" cy="-20.3937665088" r="2" />
	<circle cx="0.0000000001" cy="-0.0000000001" r="2" />
	<circle cx="1000.0000000000" cy="-0.0000000000" r="2" />
	<circle cx="703.9867074047" cy="-379.2009930483" r="2" />
	<circle cx="0.0659360669" cy="-0.0380682060" r="2" />
	<circle cx="500.1705468127" cy="-864.8320552399" r="2" />
	<circle cx="548.0934283821" cy="-305.8139402263" r="2" />
	<circle cx="500.0000000000" cy="-866.0254038000" r="2" />
	<circle cx="500.0000000000" cy="-866.0254038000" r="2" />
	<circle cx="0.0000000000" cy="-0.0000000000" r="2" />
	<circle cx="1000.0000000000" cy="-0.0000000000" r="2" />
	<circle cx="999.9020756995" cy="-0.0565069855" r="2" />
	<circle cx="992.0336693306" cy="-5.0489400879" r="2" />
	<circle cx="500.0000000000" cy="-866.0254038000" r="2" />
	<circle cx="500.0000000000" cy="-866.0254038000" r="2" />
	<circle cx="500.0000000000" cy="-866.0254038000" r="2" />
	<circle cx="0.0000000000" cy="-0.0000000000" r="2" />
	<circle cx="8.9892711958" cy="-5.1891378584" r="2" />
	<circle cx="1000.0000000000" cy="-0.0000000000" r="2" />
	<circle cx="1000.0000000000" cy="-0.0000000000" r="2" />
	<circle cx="0.0000000000" cy="-0.0000000000" r="2" />
	<circle cx="0.0000000000" cy="-0.0000000000" r="2" />
	<circle cx="1000.0000000000" cy="-0.0000000000" r="2" />
	<circle cx="999.9999957624" cy="-0.0000024349" r="2" />
	<circle cx="500.0000000000" cy="-866.0254038000" r="2" />
	<circle cx="0.0126315813" cy="-0.0072900355" r="2" />
	<circle cx="0.0000000000" cy="-0.0000000000" r="2" />
	<circle cx="500.0000001687" cy="-866.0254034832" r="2" />
	<circle cx="1000.0000000000" cy="-0.0000000000" r="2" />
	<circle cx="1000.0000000000" cy="-0.0000000000" r="2" />
	<circle cx="0.0000000000" cy="-0.0000000000" r="2" />
	<circle cx="2.9786423938" cy="-1.4951906873" r="2" />
	<circle cx="0.0008811527" cy="-0.0005088112" r="2" />
	<circle cx="500.0000000000" cy="-866.0254038000" r="2" />
	<circle cx="963.8116475070" cy="-21.2351945863" r="2" />
	<circle cx="1000.0000000000" cy="-0.0000000000" r="2" />
	<circle cx="952.3018270953" cy="-27.5353567600" r="2" />
	<circle cx="0.0000000000" cy="-0.0000000000" r="2" />
	<circle cx="500.0000000000" cy="-866.0254038000" r="2" />
	<circle cx="499.9999895850" cy="-866.0253758353" r="2" />
	<circle cx="500.0000000003" cy="-866.0254037707" r="2" />
	<circle cx="1000.0000000000" cy="-0.0000000000" r="2" />
	<circle cx="1000.0000000000" cy="-0.0000000000" r="2" />
	<circle cx="190.6737505763" cy="-110.2012026144" r="2" />
	<circle cx="0.0000259528" cy="-0.0000149708" r="2" />
	<circle cx="32.9592262624" cy="-20.2353692553" r="2" />
	<circle cx="898.4942539868" cy="-58.6076802098" r="2" />
	<circle cx="0.0000000000" cy="-0.0000000000" r="2" />
	<circle cx="985.1726532803" cy="-11.3538324107" r="2" />
	<circle cx="1000.0000000000" cy="-0.0000000000" r="2" />
	<circle cx="0.0001470454" cy="-0.0000850045" r="2" />
	<circle cx="500.0090585168" cy="-858.5495766249" r="2" />
	<circle cx="0.0000000000" cy="-0.0000000000" r="2" />
	<circle cx="999.9975125821" cy="-0.0008127475" r="2" />
	<circle cx="500.0000000000" cy="-866.0254038000" r="2" />
	<circle cx="500.0000000000" cy="-866.0254037999" r="2" />
	<circle cx="515.7364755832" cy="-195.6927756074" r="2" />
	<circle cx="411.6831410287" cy="-433.1179836722" r="2" />
	<circle cx="10.0266473535" cy="-5.7953941626" r="2" />
	<circle cx="500.0000000000" cy="-866.0254038000" r="2" />
	<circle cx="34.9930848042" cy="-20.2003832352" r="2" />
	<circle cx="500.0000000000" cy="-866.0254038000" r="2" />
	<circle cx="0.0000000000" cy="-0.0000000000" r="2" />
	<circle cx="500.0000000000" cy="-866.0254038000" r="2" />
	<circle cx="1000.0000000000" cy="-0.0000000000" r="2" />
	<circle cx="499.9999195554" cy="-866.0243348244" r="2" />
	<circle cx="499.0942112270" cy="-845.8462518976" r="2" />
	<circle cx="1000.0000000000" cy="-0.0000000000" r="2" />
	<circle cx="0.0000000000" cy="-0.0000000000" r="2" />
	<circle cx="999.9932818979" cy="-0.0038774205" r="2" />
	<circle cx="500.0000000000" cy="-866.0254038000" r="2" />
	<circle cx="0.0000000000" cy="-0.0000000000" r="2" />
	<circle cx="991.0959005272" cy="-5.0810138700" r="2" />
	<circle cx="1000.0000000000" cy="-0.0000000000" r="2" />
	<circle cx="1000.0000000000" cy="-0.0000000000" r="2" />
	<circle cx="983.5390326645" cy="-9.5120211000" r="2" />
	<circle cx="0.0000000239" cy="-0.0000000138" r="2" />
	<circle cx="993.8890069965" cy="-3.3680035475" r="2" />
	<circle cx="999.2213255692" cy="-0.4510680607" r="2" />
	<circle cx="966.2586526566" cy="-21.0879955931" r="2" />
	<circle cx="500.0000000000" cy="-866.0254038000" r="2" />
	<circle cx="0.0000000000" cy="-0.0000000000" r="2" />
	<circle cx="1000.0000000000" cy="-0.0000000000" r="2" />
	<circle cx="0.0000000000" cy="-0.0000000000" r="2" />
	<circle cx="1000.0000000000" cy="-0.0000000000" r="2" />
	<circle cx="0.0000000000" cy="-0.0000000000" r="2" />
	<circle cx="492.4405945658" cy="-808.3868983084" r="2" />
	<circle cx="0.0000000008" cy="-0.0000000005" r="2" />
	<circle cx="500.0000000000" cy="-866.0254038000" r="2" />
	<circle cx="0.0002381627" cy="-0.0001824660" r="2" />
	<circle cx="0.3808300245" cy="-0.2449178500" r="2" />
	<circle cx="499.9999999998" cy="-866.0254037995" r="2" />
	<circle cx="499.9999995789" cy="-866.0254030056" r="2" />
	<circle cx="500.0000000000" cy="-866.0254038000" r="2" />
	<circle cx="0.0000000000" cy="-0.0000000000" r="2" />
	<circle cx="500.0000000000" cy="-866.0254038000" r="2" />
	<circle cx="500.0000000000" cy="-866.0254038000" r="2" />
	<circle cx="1000.0000000000" cy="-0.0000000000" r="2" />
	<circle cx="0.0000000446" cy="-0.0000000260" r="2" />
	<circle cx="0.1272493139" cy="-0.0734532813" r="2" />
	<circle cx="500.0000000000" cy="-866.0254038000" r="2" />
	<circle cx="0.0000000000" cy="-0.0000000000" r="2" />
	<circle cx="500.0000000000" cy="-866.0254038000" r="2" />
	<circle cx="999.9999999992" cy="-0.0000000005" r="2" />
	<circle cx="500.0000000000" cy="-866.0254038000" r="2" />
	<circle cx="500.0000000000" cy="-866.0254038000" r="2" />
	<circle cx="500.0000042278" cy="-866.0155764017" r="2" />
	<circle cx="999.9999969198" cy="-0.0000000000" r="2" />
	<circle cx="999.3214010413" cy="-0.3917426598" r="2" />
	<circle cx="0.0000000000" cy="-0.0000000000" r="2" />
	<circle cx="500.0000000000" cy="-866.0254038000" r="2" />
	<circle cx="151.4830542896" cy="-94.5810199965" r="2" />
	<circle cx="1000.0000000000" cy="-0.0000000000" r="2" />
	<circle cx="999.9999999970" cy="-0.0000000017" r="2" />
	<circle cx="0.0000000000" cy="-0.0000000000" r="2" />
	<circle cx="587.5309417675" cy="-247.1276381847" r="2" />
	<circle cx="500.0000000931" cy="-866.0252339508" r="2" />
	<circle cx="424.3147437769" cy="-354.6821545330" r="2" />
	<circle cx="999.9531763095" cy="-0.0296312539" r="2" />
	<circle cx="7.9749742710" cy="-4.6037859930" r="2" />
	<circle cx="417.6527507845" cy="-241.2620801991" r="2" />
	<circle cx="499.9999999994" cy="-866.0254020747" r="2" />
	<circle cx="1000.0000000000" cy="-0.0000000000" r="2" />
	<circle cx="0.0454848523" cy="-0.0262439837" r="2" />
	<circle cx="518.4664238933" cy="-598.5139567861" r="2" />
	<circle cx="0.0000000000" cy="-0.0000000000" r="2" />
	<circle cx="999.9896682577" cy="-0.0059655339" r="2" />
	<circle cx="1000.0000000000" cy="-0.0000000000" r="2" />
	<circle cx="0.0000000000" cy="-0.0000000000" r="2" />
	<circle cx="499.9567292644" cy="-865.7349173998" r="2" />
	<circle cx="985.1901900031" cy="-7.6545887936" r="2" />
	<circle cx="0.0000000000" cy="-0.0000000000" r="2" />
	<circle cx="500.0000000000" cy="-866.0254038000" r="2" />
	<circle cx="0.0000000000" cy="-0.0000000000" r="2" />
	<circle cx="1000.0000000000" cy="-0.0000000000" r="2" />
	<circle cx="0.0000000001" cy="-0.0000000000" r="2" />
	<circle cx="500.0000000000" cy="-866.0254038000" r="2" />
	<circle cx="1000.0000000000" cy="-0.0000000000" r="2" />
	<circle cx="0.0000000000" cy="-0.0000000000" r="2" />
	<circle cx="500.0000000000" cy="-866.0254038000" r="2" />
	<circle cx="619.8815515356" cy="-245.7880918566" r="2" />
	<circle cx="500.0020610808" cy="-865.8719784356" r="2" />
	<circle cx="74.8871368636" cy="-23.8639168391" r="2" />
	<circle cx="0.0000000000" cy="-0.0000000000" r="2" />
	<circle cx="1000.0000000000" cy="-0.0000000000" r="2" />
	<circle cx="0.0012114798" cy="-0.0007367641" r="2" />
	<circle cx="1000.0000000000" cy="-0.0000000000" r="2" />
	<circle cx="0.0000000000" cy="-0.0000000000" r="2" />
	<circle cx="499.9999941581" cy="-866.0098521816" r="2" />
	<circle cx="985.5201555231" cy="-8.3654166414" r="2" />
	<circle cx="0.0000000000" cy="-0.0000000000" r="2" />
	<circle cx="0.0000000000" cy="-0.0000000000" r="2" />
	<circle cx="500.0000000000" cy="-866.0254038000" r="2" />
	<circle cx="999.9897951706" cy="-0.0094153409" r="2" />
	<circle cx="0.0008602538" cy="-0.0006129333" r="2" />
	<circle cx="0.0000001373" cy="-0.0000000794" r="2" />
	<circle cx="0.0000000000" cy="-0.0000000000" r="2" />
	<circle cx="0.0000003349" cy="-0.0000000000" r="2" />
	<circle cx="0.0000000000" cy="-0.0000000000" r="2" />
	<circle cx="1000.0000000000" cy="-0.0000000000" r="2" />
	<circle cx="175.4604018795" cy="-78.5649404464" r="2" />
	<circle cx="1000.0000000000" cy="-0.0000000000" r="2" />
	<circle cx="500.0000000000" cy="-866.0254038000" r="2" />
	<circle cx="0.0000000000" cy="-0.0000000000" r="2" />
	<circle cx="0.0000000094" cy="-0.0000000055" r="2" />
	<circle cx="630.7982398729" cy="-193.2263722625" r="2" />
	<circle cx="1000.0000000000" cy="-0.0000000000" r="2" />
	<circle cx="500.4292871696" cy="-314.6594516050" r="2" />
	<circle cx="500.0000000000" cy="-866.0254038000" r="2" />
	<circle cx="0.0000000000" cy="-0.0000000000" r="2" />
	<circle cx="991.0109191088" cy="-5.1888042178" r="2" />
	<circle cx="1000.0000000000" cy="-0.0000000000" r="2" />
	<circle cx="0.0000000000" cy="-0.0000000000" r="2" />
	<circle cx="0.0000000000" cy="-0.0000000000" r="2" />
	<circle cx="999.9999999952" cy="-0.0000000027" r="2" />
	<circle cx="500.0000000000" cy="-866.0254038000" r="2" />
	<circle cx="999.8681571989" cy="-0.0785049229" r="2" />
	<circle cx="499.9997827451" cy="-865.5980574333" r="2" />
	<circle cx="0.0000000000" cy="-0.0000000000" r="2" />
	<circle cx="1000.0000000000" cy="-0.0000000000" r="2" />
	<circle cx="500.0000004660" cy="-866.0253955381" r="2" />
	<circle cx="503.9079406983" cy="-783.8365370556" r="2" />
	<circle cx="999.9999999999" cy="-0.0000000000" r="2" />
	<circle cx="500.0003772529" cy="-859.9115720565" r="2" />
	<circle cx="0.0000006253" cy="-0.0000003610" r="2" />
	<circle cx="520.0509638357" cy="-326.0808631337" r="2" />
	<circle cx="500.0000000000" cy="-865.6073787951" r="2" />
	<circle cx="1000.0000000000" cy="-0.0000000000" r="2" />
	<circle cx="500.0000000000" cy="-866.0254038000" r="2" />
	<circle cx="1000.0000000000" cy="-0.0000000000" r="2" />
	<circle cx="21.8041684760" cy="-12.5856800566" r="2" />
	<circle cx="500.0000000785" cy="-866.0252366868" r="2" />
	<circle cx="0.0000000000" cy="-0.0000000000" r="2" />
	<circle cx="963.3482872050" cy="-19.4804055866" r="2" />
	<circle cx="500.3255758748" cy="-306.6349146955" r="2" />
	<circle cx="63.6042724235" cy="-26.5000913452" r="2" />
	<circle cx="1000.0000000000" cy="-0.0000000000" r="2" />
	<circle cx="327.6716773859" cy="-183.7179492334" r="2" />
	<circle cx="500.0080064127" cy="-364.0289145997" r="2" />
	<circle cx="500.0000000000" cy="-866.0254038000" r="2" />
	<circle cx="0.0000000000" cy="-0.0000000000" r="2" />
	<circle cx="995.5137721174" cy="-2.5063919678" r="2" />
	<circle cx="0.0000000000" cy="-0.0000000000" r="2" />
	<circle cx="0.0000000000" cy="-0.0000000000" r="2" />
	<circle cx="999.6776630247" cy="-0.1828021187" r="2" />
	<circle cx="999.4854334775" cy="-0.1762617486" r="2" />
	<circle cx="0.0000000000" cy="-0.0000000000" r="2" />
	<circle cx="500.0856131891" cy="-288.1940635023" r="2" />
	<circle cx="0.0216993565" cy="-0.0125107897" r="2" />
	<circle cx="1000.0000000000" cy="-0.0000000000" r="2" />
	<circle cx="0.5029290661" cy="-0.2900786663" r="2" />
	<circle cx="1000.0000000000" cy="-0.0000000000" r="2" />
	<circle cx="1000.0000000000" cy="-0.0000000000" r="2" />
	<circle cx="500.0000000000" cy="-866.0254038000" r="2" />
	<circle cx="0.0000000000" cy="-0.0000000000" r="2" />
	<circle cx="6.8793065413" cy="-4.4423268226" r="2" />
	<circle cx="500.0000000315" cy="-866.0253244287" r="2" />
	<circle cx="1000.0000000000" cy="-0.0000000000" r="2" />
	<circle cx="0.0000000000" cy="-0.0000000000" r="2" />
	<circle cx="1000.0000000000" cy="-0.0000000000" r="2" />
	<circle cx="500.0000000000" cy="-866.0254038000" r="2" />
	<circle cx="0.0000000000" cy="-0.0000000000" r="2" />
	<circle cx="499.9999999471" cy="-866.0254029854" r="2" />
	<circle cx="500.0000000000" cy="-866.0254038000" r="2" />
	<circle cx="500.3034919951" cy="-319.6268210551" r="2" />
	<circle cx="1000.0000000000" cy="-0.0000000000" r="2" />
	<circle cx="0.0000137399" cy="-0.0000079139" r="2" />
	<circle cx="680.1848628453" cy="-181.4184699453" r="2" />
	<circle cx="999.8145306718" cy="-0.1070608538" r="2" />
	<circle cx="993.0026697329" cy="-2.9032004497" r="2" />
	<circle cx="999.9721804676" cy="-0.0160570220" r="2" />
	<circle cx="459.4801841590" cy="-326.0648914672" r="2" />
	<circle cx="0.0000007654" cy="-0.0000004448" r="2" />
	<circle cx="0.0000000000" cy="-0.0000000000" r="2" />
	<circle cx="500.0000001261" cy="-866.0232599511" r="2" />
	<circle cx="1000.0000000000" cy="-0.0000000000" r="2" />
	<circle cx="500.0000000000" cy="-866.0254038000" r="2" />
	<circle cx="500.0000000000" cy="-866.0254038000" r="2" />
	<circle cx="935.6099385295" cy="-37.2186535658" r="2" />
	<circle cx="1000.0000000000" cy="-0.0000000000" r="2" />
	<circle cx="0.0000000000" cy="-0.0000000000" r="2" />
	<circle cx="1000.0000000000" cy="-0.0000000000" r="2" />
	<circle cx="500.0000000000" cy="-866.0254037385" r="2" />
	<circle cx="500.0000000000" cy="-866.0254038000" r="2" />
	<circle cx="1000.0000000000" cy="-0.0000000000" r="2" />
	<circle cx="474.1338741590" cy="-273.7292019712" r="2" />
	<circle cx="0.0000000635" cy="-0.0000000364" r="2" />
	<circle cx="0.0000000000" cy="-0.0000000000" r="2" />
	<circle cx="574.6357795358" cy="-245.5620224312" r="2" />
	<circle cx="1000.0000000000" cy="-0.0000000000" r="2" />
	<circle cx="511.2133940683" cy="-283.6721048278" r="2" />
	<circle cx="499.9999998599" cy="-866.0254033536" r="2" />
	<circle cx="1000.0000000000" cy="-0.0000000000" r="2" />
	<circle cx="0.0000000000" cy="-0.0000000000" r="2" />
	<circle cx="499.8359099990" cy="-848.6587883772" r="2" />
	<circle cx="862.7675103916" cy="-60.5529577880" r="2" />
	<circle cx="74.8807043025" cy="-43.4697541744" r="2" />
	<circle cx="501.3468744452" cy="-285.4980606778" r="2" />
	<circle cx="0.0001804704" cy="-0.0001062516" r="2" />
	<circle cx="87.6495135995" cy="-50.3263978676" r="2" />
	<circle cx="0.0000000000" cy="-0.0000000000" r="2" />
	<circle cx="999.9999999776" cy="-0.0000000130" r="2" />
	<circle cx="1000.0000000000" cy="-0.0000000000" r="2" />
	<circle cx="0.0000000000" cy="-0.0000000000" r="2" />
	<circle cx="500.0000003756" cy="-866.0241829019" r="2" />
	<circle cx="1000.0000000000" cy="-0.0000000000" r="2" />
	<circle cx="999.9999999992" cy="-0.0000000005" r="2" />
	<circle cx="0.1501571951" cy="-0.0974119116" r="2" />
	<circle cx="1000.0000000000" cy="-0.0000000000" r="2" />
	<circle cx="500.0000000625" cy="-866.0254002353" r="2" />
	<circle cx="1000.0000000000" cy="-0.0000000000" r="2" />
	<circle cx="0.0000000403" cy="-0.0000000230" r="2" />
	<circle cx="0.0000000000" cy="-0.0000000000" r="2" />
	<circle cx="1000.0000000000" cy="-0.0000000000" r="2" />
	<circle cx="161.8030334352" cy="-93.7296016703" r="2" />
	<circle cx="869.4317566272" cy="-93.8925254638" r="2" />
	<circle cx="999.9999999999" cy="-0.0000000000" r="2" />
	<circle cx="0.0000000000" cy="-0.0000000000" r="2" />
	<circle cx="0.0000000000" cy="-0.0000000000" r="2" />
	<circle cx="500.0000000000" cy="-866.0254038000" r="2" />
	<circle cx="0.0000000000" cy="-0.0000000000" r="2" />
	<circle cx="500.0000000000" cy="-866.0254038000" r="2" />
	<circle cx="0.0000079720" cy="-0.0000060485" r="2" />
	<circle cx="500.0000000000" cy="-866.0254038000" r="2" />
	<circle cx="500.0000000000" cy="-866.0254038000" r="2" />
	<circle cx="499.9857556873" cy="-696.4982486554" r="2" />
	<circle cx="1000.0000000000" cy="-0.0000000000" r="2" />
	<circle cx="0.0000000000" cy="-0.0000000000" r="2" />
	<circle cx="500.0000305794" cy="-866.0250021649" r="2" />
	<circle cx="1000.0000000000" cy="-0.0000000000" r="2" />
	<circle cx="523.1055822765" cy="-275.1654282480" r="2" />
	<circle cx="500.0000000000" cy="-866.0254037922" r="2" />
  </g>
  <g id="fig2" transform="translate(-550.0,1000)">
	<polygon points="0.0,-0.0 1000.0,-0.0 500.0,-866.0254038" />
	<line
	   id="line2-1"
	   y2="-0.0"
	   x2="500"
	   y1="-288.6751346"
	   x1="500" />
	<line
	   id="line2-2"
	   y2="-433.0127019"
	   x2="250"
	   y1="-288.6751346"
	   x1="500" />
	<line
	   id="line2-3"
	   y2="-433.0127019"
	   x2="750"
	   y1="-288.6751346"
	   x1="500" />
	<text
	   x="440"
	   y="-500"
	   id="up_2">30.8%</text>
	<text
	   x="250"
	   y="-150"
	   id="down_left_2">34.8%</text>
	<text
	   x="630"
	   y="-150"
	   id="down_right_2">34.4%</text>
  </g>
  <g id="fig3" transform="translate(550,1000)">
	<polygon points="0.0,-0.0 1000.0,-0.0 500.0,-866.0254038" />
	<polygon id="triangle3b" points="250,-144.3375673 750,-144.3375673 500,-577.3502692" />
	<line
	   id="line3-1"
	   x1="125"
	   y1="-216.5063509"
	   x2="250"
	   y2="-144.3375673" />
	<line
	   id="line3-2"
	   x1="375"
	   y1="-649.5190528"
	   x2="500"
	   y2="-577.3502692" />
	<line
	   id="line3-3"
	   x1="625"
	   y1="-649.5190528"
	   x2="500"
	   y2="-577.3502692" />
	<line
	   id="line3-4"
	   x1="875"
	   y1="-216.5063509"
	   x2="750"
	   y2="-144.3375673" />
	<line
	   id="line3-5"
	   x1="750"
	   y1="-0.0"
	   x2="750"
	   y2="-144.3375673" />
	<line
	   id="line3-6"
	   x1="250"
	   y1="-0.0"
	   x2="250"
	   y2="-144.3375673" />
	<text
	   x="500"
	   y="-660"
	   text-anchor="middle"
	   id="up_3">27.8%</text>
	<text
	   y="-50"
	   x="70"
	   id="down_left_3">33.8%</text>
	<text
	   y="-50"
	   x="770"
	   id="down_right_3">30.8%</text>
	<text
	   x="500"
	   y="-50"
	   text-anchor="middle"
	   id="down_side_3">0.2%</text>
	<text
	   x="500"
	   y="-280"
	   text-anchor="middle"
	   id="center_3">6.8%</text>
	<text
	   x="685.0"
	   y="-390.8439"
	   text-anchor="middle"
	   transform="rotate(60,665.0,-380.8439)"
	   id="right_side_3">0.2%</text>
	<text
	   x="315.0"
	   y="-390.8439"
	   text-anchor="middle"
	   transform="rotate(-60,335.0,-380.8439)"
	   id="left_side_3">0.4%</text>
  </g>
</g></g>
</svg>
