<?xml version="1.0" encoding="UTF-8" standalone="no"?>
<!DOCTYPE svg PUBLIC "-//W3C//DTD SVG 1.1//EN" "http://www.w3.org/Graphics/SVG/1.1/DTD/svg11.dtd">
<svg
   xmlns:svg="http://www.w3.org/2000/svg"
   xmlns="http://www.w3.org/2000/svg"
   xmlns:xlink="http://www.w3.org/1999/xlink"
   version="1.1"
   baseProfile="full"
   id="body"
   width="800px"
   height="800px"
   viewBox="0 0 1000 1000"
   preserveAspectRatio="none">
  <defs>
    <style type="text/css"><![CDATA[
      circle{ stroke: none; }
      polygon{ stroke: black; stroke-width: 2px; fill: none; }
      line{ stroke: black; stroke-width: 2px; }
      text{ font-size:50px; }
    ]]></style>
  </defs>
  <title
     id="title1">SVG drawing</title>
<g transform="scale(0.45)"><g transform="translate(600,1050)">
  <g id="fig1">
	<polygon points="0.0,-0.0 1000.0,-0.0 500,-866.0254038" />
	<circle cx="0.0430470102" cy="-0.0248532029" r="2" />
	<circle cx="0.0000000000" cy="-0.0000000000" r="2" />
	<circle cx="500.0086264189" cy="-288.6804316415" r="2" />
	<circle cx="18.1095747680" cy="-10.4550414968" r="2" />
	<circle cx="0.0000000000" cy="-0.0000000000" r="2" />
	<circle cx="1000.0000000000" cy="-0.0000000000" r="2" />
	<circle cx="499.9999986204" cy="-823.3433420334" r="2" />
	<circle cx="918.4244881705" cy="-123.6085607275" r="2" />
	<circle cx="499.9995856578" cy="-288.6748914578" r="2" />
	<circle cx="0.0000000000" cy="-0.0000000000" r="2" />
	<circle cx="999.9919336021" cy="-0.0046571369" r="2" />
	<circle cx="0.0008581419" cy="-0.0004954484" r="2" />
	<circle cx="969.2810371359" cy="-17.7360927847" r="2" />
	<circle cx="30.7190061793" cy="-17.7361854974" r="2" />
	<circle cx="39.1220278012" cy="-22.5855085252" r="2" />
	<circle cx="21.6646020376" cy="-12.5071941194" r="2" />
	<circle cx="500.0087649174" cy="-288.6803571405" r="2" />
	<circle cx="500.0000000000" cy="-823.0955903399" r="2" />
	<circle cx="499.9913761538" cy="-288.6802677714" r="2" />
	<circle cx="500.0084575108" cy="-288.6800175212" r="2" />
	<circle cx="499.9908175297" cy="-288.6698330983" r="2" />
	<circle cx="830.2780785446" cy="-16.2534903652" r="2" />
	<circle cx="499.9999999859" cy="-866.0244164850" r="2" />
	<circle cx="1000.0000000000" cy="-0.0000000000" r="2" />
	<circle cx="500.0000000000" cy="-866.0254038000" r="2" />
	<circle cx="500.0093117616" cy="-288.6697621543" r="2" />
	<circle cx="500.0000000000" cy="-866.0254038000" r="2" />
	<circle cx="999.9993733362" cy="-0.0003618055" r="2" />
	<circle cx="0.0000000000" cy="-0.0000000000" r="2" />
	<circle cx="1000.0000000000" cy="-0.0000000000" r="2" />
	<circle cx="500.0083661040" cy="-288.6801215597" r="2" />
	<circle cx="0.0000000000" cy="-0.0000000000" r="2" />
	<circle cx="499.9999999997" cy="-288.6857011915" r="2" />
	<circle cx="0.0008654198" cy="-0.0004996506" r="2" />
	<circle cx="499.9986038806" cy="-288.6743254348" r="2" />
	<circle cx="39.3034822908" cy="-22.6918435874" r="2" />
	<circle cx="28.8479591205" cy="-16.6548731599" r="2" />
	<circle cx="500.0000000000" cy="-866.0254038000" r="2" />
	<circle cx="963.2150395247" cy="-21.2371716092" r="2" />
	<circle cx="999.9992755642" cy="-0.0004182280" r="2" />
	<circle cx="719.4118737695" cy="-469.5255919301" r="2" />
	<circle cx="500.0000000000" cy="-866.0254038000" r="2" />
	<circle cx="0.0000000000" cy="-0.0000000000" r="2" />
	<circle cx="499.9998753395" cy="-288.6654596665" r="2" />
	<circle cx="444.1487913455" cy="-743.8792378877" r="2" />
	<circle cx="500.0000002918" cy="-839.1777302501" r="2" />
	<circle cx="0.0000000000" cy="-0.0000000000" r="2" />
	<circle cx="1000.0000000000" cy="-0.0000000000" r="2" />
	<circle cx="901.0610112193" cy="-138.8595681284" r="2" />
	<circle cx="500.0000000000" cy="-866.0254038000" r="2" />
	<circle cx="499.9993018328" cy="-288.6757021899" r="2" />
	<circle cx="429.2149888780" cy="-710.9150677732" r="2" />
	<circle cx="500.0000000000" cy="-866.0254038000" r="2" />
	<circle cx="36.7839443477" cy="-21.2378555398" r="2" />
	<circle cx="499.9999052285" cy="-288.6752107997" r="2" />
	<circle cx="0.0007336051" cy="-0.0004235476" r="2" />
	<circle cx="978.3349990970" cy="-12.5079058353" r="2" />
	<circle cx="0.0006266630" cy="-0.0003618041" r="2" />
	<circle cx="500.0000000000" cy="-866.0254038000" r="2" />
	<circle cx="830.2780785446" cy="-16.2534903652" r="2" />
	<circle cx="1000.0000000000" cy="-0.0000000000" r="2" />
	<circle cx="500.0000000000" cy="-866.0254038000" r="2" />
	<circle cx="978.6115388021" cy="-12.3486770682" r="2" />
	<circle cx="499.9988781996" cy="-288.6756218141" r="2" />
	<circle cx="999.9992755381" cy="-0.0004182962" r="2" />
	<circle cx="976.7492260947" cy="-13.4238340942" r="2" />
	<circle cx="500.0000000000" cy="-866.0254038000" r="2" />
	<circle cx="1000.0000000000" cy="-0.0000000000" r="2" />
	<circle cx="500.0000047794" cy="-288.6743302608" r="2" />
	<circle cx="999.9991449276" cy="-0.0004936635" r="2" />
	<circle cx="31.0875617611" cy="-17.9484106609" r="2" />
	<circle cx="0.0491523538" cy="-0.0283781247" r="2" />
	<circle cx="39.5218683696" cy="-22.8179613425" r="2" />
	<circle cx="0.0015542988" cy="-0.0008973748" r="2" />
	<circle cx="36.9638155233" cy="-21.3410709210" r="2" />
	<circle cx="0.0000000000" cy="-0.0000000000" r="2" />
	<circle cx="977.6834957402" cy="-12.8851372497" r="2" />
	<circle cx="1000.0000000000" cy="-0.0000000000" r="2" />
	<circle cx="1000.0000000000" cy="-0.0000000000" r="2" />
	<circle cx="500.0000017773" cy="-288.6750836862" r="2" />
	<circle cx="0.0249463365" cy="-0.0144027776" r="2" />
	<circle cx="999.5962978818" cy="-0.2330681604" r="2" />
	<circle cx="0.0000000000" cy="-0.0000000000" r="2" />
	<circle cx="993.5906811271" cy="-3.7002683540" r="2" />
	<circle cx="500.0000000000" cy="-820.3893932777" r="2" />
	<circle cx="999.9266040005" cy="-0.0423880470" r="2" />
	<circle cx="0.0000000000" cy="-0.0000000000" r="2" />
	<circle cx="0.0008654062" cy="-0.0004996426" r="2" />
	<circle cx="500.0000000000" cy="-866.0250842894" r="2" />
	<circle cx="20.5615999144" cy="-11.8712406010" r="2" />
	<circle cx="1000.0000000000" cy="-0.0000000000" r="2" />
	<circle cx="1000.0000000000" cy="-0.0000000000" r="2" />
	<circle cx="963.2156555945" cy="-21.2380863641" r="2" />
	<circle cx="499.9996294288" cy="-839.3544023838" r="2" />
	<circle cx="500.0000000000" cy="-288.6649888033" r="2" />
	<circle cx="969.2810793022" cy="-17.7343076923" r="2" />
	<circle cx="500.0000003643" cy="-823.3432687394" r="2" />
	<circle cx="0.0000000000" cy="-0.0000000000" r="2" />
	<circle cx="39.1220278013" cy="-22.5855085252" r="2" />
	<circle cx="960.4780538399" cy="-22.8180052203" r="2" />
	<circle cx="499.9999735778" cy="-844.1605622895" r="2" />
	<circle cx="1000.0000000000" cy="-0.0000000000" r="2" />
	<circle cx="866.2928329976" cy="-12.7044914433" r="2" />
	<circle cx="969.1117571818" cy="-17.8333314192" r="2" />
	<circle cx="500.0000000000" cy="-866.0254038000" r="2" />
	<circle cx="499.9990171554" cy="-288.6758625441" r="2" />
	<circle cx="1000.0000000000" cy="-0.0000000000" r="2" />
	<circle cx="0.0000000000" cy="-0.0000000000" r="2" />
	<circle cx="500.0000000000" cy="-866.0236090506" r="2" />
	<circle cx="999.9718801713" cy="-0.0162292661" r="2" />
	<circle cx="500.0000000000" cy="-288.6752689547" r="2" />
	<circle cx="499.9999249417" cy="-288.6749319301" r="2" />
	<circle cx="1000.0000000000" cy="-0.0000000000" r="2" />
	<circle cx="500.0000028332" cy="-288.6751340466" r="2" />
	<circle cx="0.0000000000" cy="-0.0000000000" r="2" />
	<circle cx="999.9991449561" cy="-0.0004936905" r="2" />
	<circle cx="30.7190205180" cy="-17.7361970019" r="2" />
	<circle cx="0.0008550209" cy="-0.0004936776" r="2" />
	<circle cx="0.0003558691" cy="-0.0002054483" r="2" />
	<circle cx="0.0000000000" cy="-0.0000000000" r="2" />
	<circle cx="499.9910975361" cy="-288.6801111102" r="2" />
	<circle cx="0.0000000000" cy="-0.0000000000" r="2" />
	<circle cx="0.0003609169" cy="-0.0002083756" r="2" />
	<circle cx="499.9988781633" cy="-288.6756217985" r="2" />
	<circle cx="960.8779416496" cy="-22.5878341383" r="2" />
	<circle cx="500.0000000000" cy="-859.0901059398" r="2" />
	<circle cx="499.9987015499" cy="-820.8522220005" r="2" />
	<circle cx="499.9916223948" cy="-288.6801409010" r="2" />
	<circle cx="2.7598974563" cy="-1.5934275394" r="2" />
	<circle cx="500.0000000000" cy="-866.0250842928" r="2" />
	<circle cx="632.0931023596" cy="-6.3048476136" r="2" />
	<circle cx="500.0000000000" cy="-866.0249210429" r="2" />
	<circle cx="866.2929060407" cy="-12.7045072782" r="2" />
	<circle cx="499.9999914355" cy="-288.6751391310" r="2" />
	<circle cx="500.0000000000" cy="-865.8778007565" r="2" />
	<circle cx="0.0001011460" cy="-0.0000583931" r="2" />
	<circle cx="978.6090522047" cy="-12.3501110451" r="2" />
	<circle cx="499.9998802575" cy="-288.6750654666" r="2" />
	<circle cx="500.0001372546" cy="-288.6652839785" r="2" />
	<circle cx="500.0005579628" cy="-839.3528694034" r="2" />
	<circle cx="0.0000000000" cy="-0.0000000000" r="2" />
	<circle cx="999.5962897607" cy="-0.2330822151" r="2" />
	<circle cx="499.9994540049" cy="-823.5501145400" r="2" />
	<circle cx="500.0086719111" cy="-288.6802980274" r="2" />
	<circle cx="678.4929189142" cy="-544.2560219337" r="2" />
	<circle cx="31.0875617611" cy="-17.9484106609" r="2" />
	<circle cx="30.8882441841" cy="-17.8333338890" r="2" />
	<circle cx="605.7578286397" cy="-654.6796754510" r="2" />
	<circle cx="1000.0000000000" cy="-0.0000000000" r="2" />
	<circle cx="942.3504702320" cy="-81.1588161919" r="2" />
	<circle cx="500.0084575108" cy="-288.6800175211" r="2" />
	<circle cx="981.8901291346" cy="-10.4558119165" r="2" />
	<circle cx="1000.0000000000" cy="-0.0000000000" r="2" />
	<circle cx="500.0000000000" cy="-866.0254038000" r="2" />
	<circle cx="133.7071079907" cy="-12.7044859685" r="2" />
	<circle cx="500.0001330411" cy="-858.6246346775" r="2" />
	<circle cx="499.9998775051" cy="-288.6651078759" r="2" />
	<circle cx="23.0975438642" cy="-13.3358008980" r="2" />
	<circle cx="0.0000000000" cy="-0.0000000000" r="2" />
	<circle cx="1000.0000000000" cy="-0.0000000000" r="2" />
	<circle cx="499.9998610042" cy="-288.6739194597" r="2" />
	<circle cx="6.4094520125" cy="-3.7004987933" r="2" />
	<circle cx="976.9021568022" cy="-13.3351602227" r="2" />
	<circle cx="500.0000000000" cy="-843.0399404238" r="2" />
	<circle cx="585.1793864093" cy="-696.1444165458" r="2" />
	<circle cx="976.9028433868" cy="-13.3341815274" r="2" />
	<circle cx="1000.0000000000" cy="-0.0000000000" r="2" />
	<circle cx="500.0088942061" cy="-288.6801184609" r="2" />
	<circle cx="975.2806412238" cy="-14.2722720630" r="2" />
	<circle cx="99.1103095310" cy="-9.3465447573" r="2" />
	<circle cx="391.7575001717" cy="-648.8127721991" r="2" />
	<circle cx="999.9992663940" cy="-0.0004235478" r="2" />
	<circle cx="1000.0000000000" cy="-0.0000000000" r="2" />
	<circle cx="31.0875606855" cy="-17.9484130211" r="2" />
	<circle cx="499.9999999979" cy="-288.6855422449" r="2" />
	<circle cx="988.6639929769" cy="-6.5445749225" r="2" />
	<circle cx="500.0000000000" cy="-866.0254038000" r="2" />
	<circle cx="0.0000000000" cy="-0.0000000000" r="2" />
	<circle cx="500.0001246605" cy="-288.6654597512" r="2" />
	<circle cx="81.5698633556" cy="-123.6000085122" r="2" />
	<circle cx="499.9999987050" cy="-288.6752985158" r="2" />
	<circle cx="499.9999996357" cy="-823.3432687394" r="2" />
	<circle cx="500.0083661040" cy="-288.6801215596" r="2" />
	<circle cx="499.9912367470" cy="-288.6803573298" r="2" />
	<circle cx="500.0084580168" cy="-288.6801700240" r="2" />
	<circle cx="500.0000000000" cy="-866.0244129034" r="2" />
	<circle cx="0.0000000000" cy="-0.0000000000" r="2" />
	<circle cx="0.0000000000" cy="-0.0000000000" r="2" />
	<circle cx="0.0000000000" cy="-0.0000000000" r="2" />
	<circle cx="963.2160560833" cy="-21.2378552929" r="2" />
	<circle cx="500.0093196628" cy="-288.6697501903" r="2" />
	<circle cx="23.0979219658" cy="-13.3351637346" r="2" />
	<circle cx="540.3912258762" cy="-778.4619247581" r="2" />
	<circle cx="500.0004253813" cy="-839.3567534978" r="2" />
	<circle cx="499.9998605449" cy="-288.6752978759" r="2" />
	<circle cx="500.0000000000" cy="-288.6860532250" r="2" />
	<circle cx="1000.0000000000" cy="-0.0000000000" r="2" />
	<circle cx="1000.0000000000" cy="-0.0000000000" r="2" />
	<circle cx="999.9997233035" cy="-0.0001597553" r="2" />
	<circle cx="499.9988262449" cy="-823.5514938062" r="2" />
	<circle cx="900.8896904329" cy="-9.3465448344" r="2" />
	<circle cx="0.0000000000" cy="-0.0000000000" r="2" />
	<circle cx="999.9991418583" cy="-0.0004954483" r="2" />
	<circle cx="732.9108093105" cy="-443.1755454874" r="2" />
	<circle cx="500.0000000089" cy="-866.0245672841" r="2" />
	<circle cx="500.0000000000" cy="-866.0254038000" r="2" />
	<circle cx="976.9011905913" cy="-13.3367504626" r="2" />
	<circle cx="0.0008581419" cy="-0.0004954484" r="2" />
	<circle cx="499.9999999980" cy="-866.0252657933" r="2" />
	<circle cx="500.0000000000" cy="-866.0254038000" r="2" />
	<circle cx="499.9999998900" cy="-820.6415339372" r="2" />
	<circle cx="1000.0000000000" cy="-0.0000000000" r="2" />
	<circle cx="499.9915283246" cy="-288.6800362664" r="2" />
	<circle cx="500.0000000020" cy="-866.0252657951" r="2" />
	<circle cx="0.0000000000" cy="-0.0000000000" r="2" />
	<circle cx="21.9879895191" cy="-12.6947716680" r="2" />
	<circle cx="18.9355193119" cy="-10.9323967390" r="2" />
	<circle cx="570.7864637399" cy="-710.9119975431" r="2" />
	<circle cx="554.4862519787" cy="-747.6834294668" r="2" />
	<circle cx="500.0084575653" cy="-288.6800176025" r="2" />
	<circle cx="999.9162257544" cy="-0.0483515652" r="2" />
	<circle cx="0.0001011409" cy="-0.0000583953" r="2" />
	<circle cx="500.0000000000" cy="-866.0254038000" r="2" />
	<circle cx="500.0000000028" cy="-866.0252870101" r="2" />
	<circle cx="999.9752383140" cy="-0.0142961941" r="2" />
	<circle cx="904.2394867771" cy="-135.1425860275" r="2" />
	<circle cx="500.0000000000" cy="-288.6749472044" r="2" />
	<circle cx="1000.0000000000" cy="-0.0000000000" r="2" />
	<circle cx="500.0084580168" cy="-288.6801700240" r="2" />
	<circle cx="999.9991450900" cy="-0.0004936697" r="2" />
	<circle cx="0.0007244461" cy="-0.0004182458" r="2" />
	<circle cx="1000.0000000000" cy="-0.0000000000" r="2" />
	<circle cx="0.0000000000" cy="-0.0000000000" r="2" />
	<circle cx="500.0000000000" cy="-830.1286014034" r="2" />
	<circle cx="500.0007040747" cy="-288.6755390910" r="2" />
	<circle cx="500.0000000000" cy="-838.9734557362" r="2" />
	<circle cx="500.0000059482" cy="-288.6653757538" r="2" />
	<circle cx="500.0092255692" cy="-288.6806229814" r="2" />
	<circle cx="499.9998815540" cy="-288.6750662152" r="2" />
	<circle cx="500.0007941169" cy="-839.3552680194" r="2" />
	<circle cx="0.0008654061" cy="-0.0004996421" r="2" />
	<circle cx="500.0000020736" cy="-288.6751360097" r="2" />
	<circle cx="39.1224891370" cy="-22.5867785934" r="2" />
	<circle cx="129.7301936654" cy="-11.9845095852" r="2" />
	<circle cx="500.0001394250" cy="-288.6751586034" r="2" />
	<circle cx="999.9718849271" cy="-0.0162365689" r="2" />
	<circle cx="0.0000000000" cy="-0.0000000000" r="2" />
	<circle cx="0.0000000000" cy="-0.0000000000" r="2" />
	<circle cx="0.0008581418" cy="-0.0004954484" r="2" />
	<circle cx="0.0015542982" cy="-0.0008973745" r="2" />
	<circle cx="500.0000000000" cy="-866.0254038000" r="2" />
	<circle cx="500.0000000216" cy="-866.0160895636" r="2" />
	<circle cx="500.0093117616" cy="-288.6697621543" r="2" />
	<circle cx="500.0000000000" cy="-288.6858954176" r="2" />
	<circle cx="499.9911057938" cy="-288.6801169366" r="2" />
	<circle cx="500.0007140415" cy="-288.6755468521" r="2" />
	<circle cx="500.0000000000" cy="-866.0252634617" r="2" />
	<circle cx="0.0000000000" cy="-0.0000000000" r="2" />
	<circle cx="499.9999891478" cy="-845.1138009573" r="2" />
	<circle cx="969.2810371359" cy="-17.7360927847" r="2" />
	<circle cx="983.5370689056" cy="-9.5048558514" r="2" />
	<circle cx="500.0090585802" cy="-288.6802024996" r="2" />
	<circle cx="20.5554926266" cy="-11.8710858605" r="2" />
	<circle cx="23.0975086028" cy="-13.3357407320" r="2" />
	<circle cx="968.9124370853" cy="-17.9484127474" r="2" />
	<circle cx="1000.0000000000" cy="-0.0000000000" r="2" />
	<circle cx="500.0006280576" cy="-823.5535727699" r="2" />
	<circle cx="499.9999999917" cy="-866.0250558567" r="2" />
	<circle cx="500.0004841193" cy="-830.5538129437" r="2" />
	<circle cx="0.0000000000" cy="-0.0000000000" r="2" />
	<circle cx="500.0000000000" cy="-865.8778007569" r="2" />
	<circle cx="500.0000000000" cy="-865.9630628238" r="2" />
	<circle cx="500.0000033716" cy="-288.6741668365" r="2" />
	<circle cx="0.0000000000" cy="-0.0000000000" r="2" />
	<circle cx="0.0000000000" cy="-0.0000000000" r="2" />
	<circle cx="499.9999734561" cy="-844.1605627251" r="2" />
	<circle cx="499.9906882384" cy="-288.6697620607" r="2" />
	<circle cx="499.9999710222" cy="-288.6751726974" r="2" />
	<circle cx="0.0000000000" cy="-0.0000000000" r="2" />
	<circle cx="976.9024757096" cy="-13.3349761213" r="2" />
	<circle cx="30.8882926998" cy="-17.8333661211" r="2" />
	<circle cx="500.0000035575" cy="-820.6416207211" r="2" />
	<circle cx="999.9996946350" cy="-0.0001763021" r="2" />
	<circle cx="0.0000000000" cy="-0.0000000000" r="2" />
	<circle cx="1000.0000000000" cy="-0.0000000000" r="2" />
	<circle cx="500.0000000000" cy="-866.0254038000" r="2" />
	<circle cx="499.9999609934" cy="-288.6751600504" r="2" />
	<circle cx="976.9024833570" cy="-13.3357433490" r="2" />
	<circle cx="500.0000599756" cy="-288.6751662971" r="2" />
	<circle cx="499.9912341258" cy="-288.6803411724" r="2" />
	<circle cx="1000.0000000000" cy="-0.0000000000" r="2" />
	<circle cx="975.2949727993" cy="-14.2706724332" r="2" />
	<circle cx="771.2014747808" cy="-380.5543618374" r="2" />
	<circle cx="1000.0000000000" cy="-0.0000000000" r="2" />
	<circle cx="0.0003614719" cy="-0.0002086959" r="2" />
	<circle cx="459.6088313596" cy="-778.4620426106" r="2" />
	<circle cx="0.0000000000" cy="-0.0000000000" r="2" />
	<circle cx="21.6649714714" cy="-12.5078887780" r="2" />
	<circle cx="1000.0000000000" cy="-0.0000000000" r="2" />
	<circle cx="0.0008549855" cy="-0.0004935389" r="2" />
	<circle cx="500.0000000000" cy="-288.6649888033" r="2" />
	<circle cx="500.0000004200" cy="-830.1285789983" r="2" />
	<circle cx="499.9998579682" cy="-288.6652873993" r="2" />
	<circle cx="981.8903914666" cy="-10.4558299859" r="2" />
	<circle cx="499.9998775051" cy="-288.6651078759" r="2" />
	<circle cx="500.0011218004" cy="-288.6756179276" r="2" />
	<circle cx="1000.0000000000" cy="-0.0000000000" r="2" />
	<circle cx="999.9991418581" cy="-0.0004954484" r="2" />
	<circle cx="500.0000000000" cy="-853.7472247848" r="2" />
	<circle cx="500.0000354911" cy="-841.3252432077" r="2" />
	<circle cx="499.9912160160" cy="-288.6802097286" r="2" />
	<circle cx="999.9984457045" cy="-0.0008973747" r="2" />
	<circle cx="969.2808203964" cy="-17.7351643174" r="2" />
	<circle cx="500.0000000000" cy="-288.6741384770" r="2" />
	<circle cx="500.0084557756" cy="-288.6798576380" r="2" />
	<circle cx="999.9715733413" cy="-0.0164121451" r="2" />
	<circle cx="1000.0000000000" cy="-0.0000000000" r="2" />
	<circle cx="0.0007244148" cy="-0.0004182544" r="2" />
	<circle cx="960.6964122250" cy="-22.6919347536" r="2" />
	<circle cx="500.0001343038" cy="-288.6742533041" r="2" />
	<circle cx="500.0010034336" cy="-288.6757139326" r="2" />
	<circle cx="500.0000000141" cy="-866.0244164693" r="2" />
	<circle cx="28.8474776951" cy="-16.6539495906" r="2" />
	<circle cx="95.7604498390" cy="-135.1426109515" r="2" />
	<circle cx="500.0000000000" cy="-288.6653418097" r="2" />
	<circle cx="981.0616165258" cy="-10.9374857179" r="2" />
	<circle cx="499.9999816146" cy="-288.6751452148" r="2" />
	<circle cx="499.9993881753" cy="-820.8507946073" r="2" />
	<circle cx="500.0001414477" cy="-288.6649364948" r="2" />
	<circle cx="500.0000000000" cy="-866.0254038000" r="2" />
	<circle cx="39.3034551848" cy="-22.6918929251" r="2" />
	<circle cx="20.5614959585" cy="-11.8712187701" r="2" />
	<circle cx="978.3350991322" cy="-12.5078897979" r="2" />
	<circle cx="1000.0000000000" cy="-0.0000000000" r="2" />
	<circle cx="499.9987015499" cy="-820.8522220005" r="2" />
	<circle cx="499.9993911425" cy="-820.8511776315" r="2" />
	<circle cx="969.1117085187" cy="-17.8333639180" r="2" />
	<circle cx="0.0008654200" cy="-0.0004996503" r="2" />
	<circle cx="500.0000000000" cy="-866.0254038000" r="2" />
	<circle cx="6.4090656029" cy="-3.7002757512" r="2" />
	<circle cx="1000.0000000000" cy="-0.0000000000" r="2" />
	<circle cx="193.9110188003" cy="-322.6176895040" r="2" />
	<circle cx="1000.0000000000" cy="-0.0000000000" r="2" />
	<circle cx="500.0000000000" cy="-865.5265778678" r="2" />
	<circle cx="1000.0000000000" cy="-0.0000000000" r="2" />
	<circle cx="499.9984638744" cy="-288.6742477174" r="2" />
	<circle cx="632.0910013869" cy="-6.3053656092" r="2" />
	<circle cx="1000.0000000000" cy="-0.0000000000" r="2" />
	<circle cx="999.9993733362" cy="-0.0003618055" r="2" />
	<circle cx="499.9991567041" cy="-288.6754550041" r="2" />
	<circle cx="500.0000000000" cy="-865.8778007565" r="2" />
	<circle cx="500.0004890277" cy="-830.5538704240" r="2" />
	<circle cx="830.2780392263" cy="-16.2535510567" r="2" />
	<circle cx="500.0000000000" cy="-866.0254038000" r="2" />
	<circle cx="978.6057654116" cy="-12.3558460267" r="2" />
	<circle cx="500.0000000000" cy="-866.0254038000" r="2" />
	<circle cx="499.9990205258" cy="-288.6758644438" r="2" />
	<circle cx="499.9909866881" cy="-288.6699307619" r="2" />
	<circle cx="499.9995132726" cy="-830.5542321120" r="2" />
	<circle cx="983.5370844004" cy="-9.5048480622" r="2" />
	<circle cx="732.8643520189" cy="-443.2508375314" r="2" />
	<circle cx="500.0004164329" cy="-288.6748902531" r="2" />
	<circle cx="99.1102660035" cy="-9.3465410104" r="2" />
	<circle cx="500.0005579628" cy="-839.3528694034" r="2" />
	<circle cx="499.9999927891" cy="-288.6751389443" r="2" />
	<circle cx="23.2507748590" cy="-13.4238439183" r="2" />
	<circle cx="21.6642906252" cy="-12.5082305151" r="2" />
	<circle cx="500.0000000000" cy="-852.9354103009" r="2" />
	<circle cx="499.9906809395" cy="-288.6697542379" r="2" />
	<circle cx="500.0000000000" cy="-866.0254038000" r="2" />
	<circle cx="732.9037292677" cy="-443.2056511891" r="2" />
	<circle cx="0.0000000000" cy="-0.0000000000" r="2" />
	<circle cx="976.9024547052" cy="-13.3358063365" r="2" />
	<circle cx="0.0000000000" cy="-0.0000000000" r="2" />
	<circle cx="499.9998628076" cy="-288.6649308402" r="2" />
	<circle cx="1000.0000000000" cy="-0.0000000000" r="2" />
	<circle cx="0.0008581418" cy="-0.0004954484" r="2" />
	<circle cx="0.0000000000" cy="-0.0000000000" r="2" />
	<circle cx="0.0015542940" cy="-0.0008973721" r="2" />
	<circle cx="500.0000419471" cy="-288.6751325390" r="2" />
	<circle cx="999.9936434026" cy="-0.0036699831" r="2" />
	<circle cx="500.0000000000" cy="-866.0254038000" r="2" />
	<circle cx="499.9915399787" cy="-288.6801662802" r="2" />
	<circle cx="164.9171426973" cy="-15.3597471336" r="2" />
	<circle cx="960.8772525382" cy="-22.5868255558" r="2" />
	<circle cx="430.8433333671" cy="-715.5230538001" r="2" />
	<circle cx="500.0000000000" cy="-288.6752689547" r="2" />
	<circle cx="500.0000000000" cy="-866.0254038000" r="2" />
	<circle cx="963.2178286338" cy="-21.2353715278" r="2" />
	<circle cx="0.0000000000" cy="-0.0000000000" r="2" />
	<circle cx="31.0875617611" cy="-17.9484106609" r="2" />
	<circle cx="500.0007941169" cy="-839.3552680194" r="2" />
	<circle cx="1000.0000000000" cy="-0.0000000000" r="2" />
	<circle cx="500.0004363091" cy="-832.7148645612" r="2" />
	<circle cx="164.9174229821" cy="-15.3597611673" r="2" />
	<circle cx="36.7849005215" cy="-21.2371417620" r="2" />
	<circle cx="499.9999996576" cy="-865.8778013466" r="2" />
	<circle cx="499.9998815541" cy="-288.6750662152" r="2" />
	<circle cx="500.0004363091" cy="-832.7148645612" r="2" />
	<circle cx="999.9162399636" cy="-0.0483735071" r="2" />
	<circle cx="500.0000000000" cy="-866.0254038000" r="2" />
	<circle cx="1000.0000000000" cy="-0.0000000000" r="2" />
	<circle cx="999.9718844952" cy="-0.0162381833" r="2" />
	<circle cx="499.9993049377" cy="-288.6747333056" r="2" />
	<circle cx="0.0008550554" cy="-0.0004936828" r="2" />
	<circle cx="1000.0000000000" cy="-0.0000000000" r="2" />
	<circle cx="21.8151036070" cy="-12.5949540381" r="2" />
	<circle cx="500.0000000000" cy="-840.6359001041" r="2" />
	<circle cx="500.0006090046" cy="-820.8507845172" r="2" />
	<circle cx="0.0000000000" cy="-0.0000000000" r="2" />
	<circle cx="0.0000000000" cy="-0.0000000000" r="2" />
	<circle cx="0.0000000000" cy="-0.0000000000" r="2" />
	<circle cx="1000.0000000000" cy="-0.0000000000" r="2" />
	<circle cx="500.0000000000" cy="-866.0254038000" r="2" />
	<circle cx="1000.0000000000" cy="-0.0000000000" r="2" />
	<circle cx="1000.0000000000" cy="-0.0000000000" r="2" />
	<circle cx="98.9371836570" cy="-138.8570673452" r="2" />
	<circle cx="500.0013961195" cy="-288.6743293285" r="2" />
	<circle cx="23.2507771547" cy="-13.4238444451" r="2" />
	<circle cx="500.0000000000" cy="-866.0138778325" r="2" />
	<circle cx="500.0000000000" cy="-866.0254038000" r="2" />
	<circle cx="20.5584080592" cy="-11.8660357684" r="2" />
	<circle cx="0.0000000000" cy="-0.0000000000" r="2" />
	<circle cx="499.9986028349" cy="-288.6743279464" r="2" />
	<circle cx="500.0000000000" cy="-866.0254038000" r="2" />
	<circle cx="499.9997760818" cy="-852.9358658173" r="2" />
	<circle cx="500.0006950732" cy="-288.6747310815" r="2" />
	<circle cx="500.0000000000" cy="-288.6743006607" r="2" />
	<circle cx="499.9994443521" cy="-288.6748137965" r="2" />
	<circle cx="36.7842644540" cy="-21.2379441640" r="2" />
	<circle cx="16.4604421149" cy="-9.5034198465" r="2" />
	<circle cx="21.6646403449" cy="-12.5084742686" r="2" />
	<circle cx="500.0003725518" cy="-839.3544365054" r="2" />
	<circle cx="0.0007244456" cy="-0.0004182338" r="2" />
	<circle cx="1000.0000000000" cy="-0.0000000000" r="2" />
	<circle cx="39.3035877848" cy="-22.6919347716" r="2" />
	<circle cx="500.0000000000" cy="-288.6756154553" r="2" />
	<circle cx="0.0000000000" cy="-0.0000000000" r="2" />
	<circle cx="500.0000003583" cy="-288.6751369408" r="2" />
	<circle cx="500.0000000000" cy="-866.0254038000" r="2" />
	<circle cx="499.9999795089" cy="-288.6751464306" r="2" />
	<circle cx="1000.0000000000" cy="-0.0000000000" r="2" />
	<circle cx="500.0000000000" cy="-288.6751133703" r="2" />
	<circle cx="499.9993007096" cy="-288.6755289266" r="2" />
	<circle cx="23.4276751357" cy="-13.5259745463" r="2" />
	<circle cx="999.9996390781" cy="-0.0002083784" r="2" />
	<circle cx="499.9999996418" cy="-288.6751249173" r="2" />
	<circle cx="36.7843405842" cy="-21.2380793950" r="2" />
	<circle cx="500.0000000000" cy="-866.0254038000" r="2" />
	<circle cx="0.0000000000" cy="-0.0000000000" r="2" />
	<circle cx="0.0000000000" cy="-0.0000000000" r="2" />
	<circle cx="1000.0000000000" cy="-0.0000000000" r="2" />
	<circle cx="500.0000000000" cy="-820.3893932777" r="2" />
	<circle cx="976.9011905913" cy="-13.3367504626" r="2" />
	<circle cx="969.2821306852" cy="-17.7362364155" r="2" />
	<circle cx="500.0000184063" cy="-847.0156674041" r="2" />
	<circle cx="39.1220585066" cy="-22.5878343375" r="2" />
	<circle cx="500.0000000000" cy="-866.0254038000" r="2" />
	<circle cx="21.8151018689" cy="-12.5949568387" r="2" />
	<circle cx="499.9999710223" cy="-288.6751726975" r="2" />
	<circle cx="500.0000000001" cy="-288.6653411507" r="2" />
	<circle cx="976.9027720057" cy="-13.3356210568" r="2" />
	<circle cx="21.8151304711" cy="-12.5949697799" r="2" />
	<circle cx="22.9977246621" cy="-13.2777220787" r="2" />
	<circle cx="555.8512392207" cy="-743.8791710396" r="2" />
	<circle cx="0.0000000000" cy="-0.0000000000" r="2" />
	<circle cx="500.0001390915" cy="-288.6742442275" r="2" />
	<circle cx="500.0000000000" cy="-866.0254038000" r="2" />
	<circle cx="500.0000049055" cy="-842.2829605194" r="2" />
	<circle cx="0.0000000000" cy="-0.0000000000" r="2" />
	<circle cx="1000.0000000000" cy="-0.0000000000" r="2" />
	<circle cx="500.0000000000" cy="-866.0254038000" r="2" />
	<circle cx="500.0000000000" cy="-866.0254038000" r="2" />
	<circle cx="500.0000031675" cy="-839.1777196587" r="2" />
	<circle cx="500.0006992904" cy="-288.6755403423" r="2" />
	<circle cx="499.9999987050" cy="-288.6752985158" r="2" />
	<circle cx="976.9023676156" cy="-13.3349938989" r="2" />
	<circle cx="30.7193743364" cy="-17.7353452912" r="2" />
	<circle cx="1000.0000000000" cy="-0.0000000000" r="2" />
	<circle cx="499.9998605750" cy="-288.6751371200" r="2" />
	<circle cx="499.9999999699" cy="-866.0138778844" r="2" />
	<circle cx="0.0000000000" cy="-0.0000000000" r="2" />
	<circle cx="499.9990188792" cy="-288.6756971612" r="2" />
	<circle cx="500.0000000000" cy="-866.0254038000" r="2" />
	<circle cx="499.9910975238" cy="-288.6801131057" r="2" />
	<circle cx="499.9999999982" cy="-865.9965982582" r="2" />
	<circle cx="500.0000000000" cy="-866.0254038000" r="2" />
	<circle cx="0.0000000000" cy="-0.0000000000" r="2" />
	<circle cx="0.0491523538" cy="-0.0283781247" r="2" />
	<circle cx="0.0007244222" cy="-0.0004182344" r="2" />
	<circle cx="95.7607220026" cy="-135.1428920066" r="2" />
	<circle cx="993.9938558704" cy="-3.4676489301" r="2" />
	<circle cx="999.9998804890" cy="-0.0000689953" r="2" />
	<circle cx="500.0000000000" cy="-866.0254038000" r="2" />
	<circle cx="499.9999999859" cy="-866.0244164434" r="2" />
	<circle cx="193.9179331761" cy="-322.6311146284" r="2" />
	<circle cx="500.0008420871" cy="-288.6757813162" r="2" />
	<circle cx="960.8779416496" cy="-22.5878341383" r="2" />
	<circle cx="0.0284266702" cy="-0.0164121411" r="2" />
	<circle cx="500.0000419471" cy="-288.6751325390" r="2" />
  </g>
  <g id="fig2" transform="translate(-550.0,1000)">
	<polygon points="0.0,-0.0 1000.0,-0.0 500.0,-866.0254038" />
	<line
	   id="line2-1"
	   y2="-0.0"
	   x2="500"
	   y1="-288.6751346"
	   x1="500" />
	<line
	   id="line2-2"
	   y2="-433.0127019"
	   x2="250"
	   y1="-288.6751346"
	   x1="500" />
	<line
	   id="line2-3"
	   y2="-433.0127019"
	   x2="750"
	   y1="-288.6751346"
	   x1="500" />
	<text
	   x="440"
	   y="-500"
	   id="up_2">32.8%</text>
	<text
	   x="250"
	   y="-150"
	   id="down_left_2">34.0%</text>
	<text
	   x="630"
	   y="-150"
	   id="down_right_2">33.2%</text>
  </g>
  <g id="fig3" transform="translate(550,1000)">
	<polygon points="0.0,-0.0 1000.0,-0.0 500.0,-866.0254038" />
	<polygon id="triangle3b" points="250,-144.3375673 750,-144.3375673 500,-577.3502692" />
	<line
	   id="line3-1"
	   x1="125"
	   y1="-216.5063509"
	   x2="250"
	   y2="-144.3375673" />
	<line
	   id="line3-2"
	   x1="375"
	   y1="-649.5190528"
	   x2="500"
	   y2="-577.3502692" />
	<line
	   id="line3-3"
	   x1="625"
	   y1="-649.5190528"
	   x2="500"
	   y2="-577.3502692" />
	<line
	   id="line3-4"
	   x1="875"
	   y1="-216.5063509"
	   x2="750"
	   y2="-144.3375673" />
	<line
	   id="line3-5"
	   x1="750"
	   y1="-0.0"
	   x2="750"
	   y2="-144.3375673" />
	<line
	   id="line3-6"
	   x1="250"
	   y1="-0.0"
	   x2="250"
	   y2="-144.3375673" />
	<text
	   x="500"
	   y="-660"
	   text-anchor="middle"
	   id="up_3">23.6%</text>
	<text
	   y="-50"
	   x="70"
	   id="down_left_3">27.4%</text>
	<text
	   y="-50"
	   x="770"
	   id="down_right_3">25.4%</text>
	<text
	   x="500"
	   y="-50"
	   text-anchor="middle"
	   id="down_side_3">0.4%</text>
	<text
	   x="500"
	   y="-280"
	   text-anchor="middle"
	   id="center_3">21.6%</text>
	<text
	   x="685.0"
	   y="-390.8439"
	   text-anchor="middle"
	   transform="rotate(60,665.0,-380.8439)"
	   id="right_side_3">1.2%</text>
	<text
	   x="315.0"
	   y="-390.8439"
	   text-anchor="middle"
	   transform="rotate(-60,335.0,-380.8439)"
	   id="left_side_3">0.4%</text>
  </g>
</g></g>
</svg>
