<?xml version="1.0" encoding="UTF-8" standalone="no"?>
<!DOCTYPE svg PUBLIC "-//W3C//DTD SVG 1.1//EN" "http://www.w3.org/Graphics/SVG/1.1/DTD/svg11.dtd">
<svg
   xmlns:svg="http://www.w3.org/2000/svg"
   xmlns="http://www.w3.org/2000/svg"
   xmlns:xlink="http://www.w3.org/1999/xlink"
   version="1.1"
   baseProfile="full"
   id="body"
   width="800px"
   height="800px"
   viewBox="0 0 1000 1000"
   preserveAspectRatio="none">
  <defs>
    <style type="text/css"><![CDATA[
      circle{ stroke: none; }
      polygon{ stroke: black; stroke-width: 2px; fill: none; }
      line{ stroke: black; stroke-width: 2px; }
      text{ font-size:50px; }
    ]]></style>
  </defs>
  <title
     id="title1">SVG drawing</title>
<g transform="scale(0.45)"><g transform="translate(600,1050)">
  <g id="fig1">
	<polygon points="0.0,-0.0 1000.0,-0.0 500,-866.0254038" />
	<circle cx="0.0000000000" cy="-0.0000000000" r="2" />
	<circle cx="1000.0000000000" cy="-0.0000000000" r="2" />
	<circle cx="500.2227463313" cy="-860.8701379334" r="2" />
	<circle cx="500.0000028532" cy="-865.9831037729" r="2" />
	<circle cx="499.9999172169" cy="-865.0730845174" r="2" />
	<circle cx="500.0000000000" cy="-866.0254038000" r="2" />
	<circle cx="1000.0000000000" cy="-0.0000000000" r="2" />
	<circle cx="499.8276904706" cy="-581.6244767525" r="2" />
	<circle cx="500.0000000000" cy="-866.0254038000" r="2" />
	<circle cx="0.0000000000" cy="-0.0000000000" r="2" />
	<circle cx="0.0000000000" cy="-0.0000000000" r="2" />
	<circle cx="966.6843285563" cy="-19.2311499796" r="2" />
	<circle cx="503.4677159864" cy="-843.1990541993" r="2" />
	<circle cx="1000.0000000000" cy="-0.0000000000" r="2" />
	<circle cx="500.0000000000" cy="-866.0254038000" r="2" />
	<circle cx="500.0000000000" cy="-866.0254038000" r="2" />
	<circle cx="500.0000000000" cy="-866.0254038000" r="2" />
	<circle cx="500.6526973686" cy="-276.6761577546" r="2" />
	<circle cx="500.0000000112" cy="-866.0254031706" r="2" />
	<circle cx="1000.0000000000" cy="-0.0000000000" r="2" />
	<circle cx="291.6184890616" cy="-168.2509331708" r="2" />
	<circle cx="999.9983255523" cy="-0.0009665239" r="2" />
	<circle cx="999.9996666771" cy="-0.0001925126" r="2" />
	<circle cx="0.0000000000" cy="-0.0000000000" r="2" />
	<circle cx="147.7967249395" cy="-91.6051231678" r="2" />
	<circle cx="0.0000000000" cy="-0.0000000000" r="2" />
	<circle cx="833.5266358588" cy="-96.1717872619" r="2" />
	<circle cx="499.9998050353" cy="-862.9404984341" r="2" />
	<circle cx="500.0000000002" cy="-866.0254030867" r="2" />
	<circle cx="999.9915919859" cy="-0.0032833608" r="2" />
	<circle cx="999.9859923117" cy="-0.0080831863" r="2" />
	<circle cx="0.0000000000" cy="-0.0000000000" r="2" />
	<circle cx="0.0000000633" cy="-0.0000000245" r="2" />
	<circle cx="500.0000000000" cy="-866.0254038000" r="2" />
	<circle cx="268.8544314630" cy="-155.2276897560" r="2" />
	<circle cx="500.0000000057" cy="-866.0254036726" r="2" />
	<circle cx="1000.0000000000" cy="-0.0000000000" r="2" />
	<circle cx="998.2972856069" cy="-0.9926395906" r="2" />
	<circle cx="307.2902699324" cy="-177.4322967657" r="2" />
	<circle cx="462.1014270272" cy="-266.5881347379" r="2" />
	<circle cx="5.3225104905" cy="-2.1463795699" r="2" />
	<circle cx="0.0000000627" cy="-0.0000000361" r="2" />
	<circle cx="999.9783537778" cy="-0.0085302029" r="2" />
	<circle cx="202.4099848711" cy="-116.8273716175" r="2" />
	<circle cx="280.2058706384" cy="-159.4424963847" r="2" />
	<circle cx="0.0000000000" cy="-0.0000000000" r="2" />
	<circle cx="500.0000000000" cy="-866.0254038000" r="2" />
	<circle cx="971.1590590249" cy="-11.1520624603" r="2" />
	<circle cx="999.9635430299" cy="-0.0209166366" r="2" />
	<circle cx="499.9998827377" cy="-865.0366647949" r="2" />
	<circle cx="0.3035668942" cy="-0.1810010485" r="2" />
	<circle cx="0.0000000000" cy="-0.0000000000" r="2" />
	<circle cx="0.7369902335" cy="-0.4253018404" r="2" />
	<circle cx="500.0000000000" cy="-866.0254038000" r="2" />
	<circle cx="508.6318455189" cy="-384.9455522461" r="2" />
	<circle cx="420.7677749473" cy="-269.2322887069" r="2" />
	<circle cx="0.0010003888" cy="-0.0005779007" r="2" />
	<circle cx="500.0026395944" cy="-866.0113645990" r="2" />
	<circle cx="500.0000855796" cy="-864.5379129529" r="2" />
	<circle cx="0.0000000028" cy="-0.0000000016" r="2" />
	<circle cx="0.0000000000" cy="-0.0000000000" r="2" />
	<circle cx="8.5022653798" cy="-5.6453693333" r="2" />
	<circle cx="500.0023917827" cy="-812.5410615475" r="2" />
	<circle cx="499.9999987045" cy="-866.0253773994" r="2" />
	<circle cx="999.9999999998" cy="-0.0000000001" r="2" />
	<circle cx="0.0396937606" cy="-0.0427624838" r="2" />
	<circle cx="999.9999998911" cy="-0.0000000622" r="2" />
	<circle cx="500.0000000000" cy="-866.0254038000" r="2" />
	<circle cx="0.0000000000" cy="-0.0000000000" r="2" />
	<circle cx="487.3498929601" cy="-465.5435247634" r="2" />
	<circle cx="0.0000000000" cy="-0.0000000000" r="2" />
	<circle cx="1000.0000000000" cy="-0.0000000000" r="2" />
	<circle cx="10.2618175605" cy="-5.9309261217" r="2" />
	<circle cx="0.0000000000" cy="-0.0000000000" r="2" />
	<circle cx="0.0000000000" cy="-0.0000000000" r="2" />
	<circle cx="0.0000000000" cy="-0.0000000000" r="2" />
	<circle cx="499.9999884601" cy="-865.7711041978" r="2" />
	<circle cx="500.0267382597" cy="-288.5778758671" r="2" />
	<circle cx="999.9999999992" cy="-0.0000000005" r="2" />
	<circle cx="499.9993520561" cy="-861.7781063909" r="2" />
	<circle cx="500.0000000000" cy="-866.0254038000" r="2" />
	<circle cx="0.0166598017" cy="-0.0111089696" r="2" />
	<circle cx="500.0000000000" cy="-866.0254038000" r="2" />
	<circle cx="0.0037114628" cy="-0.0021440150" r="2" />
	<circle cx="0.0000000000" cy="-0.0000000000" r="2" />
	<circle cx="500.0000001679" cy="-865.9647170564" r="2" />
	<circle cx="1000.0000000000" cy="-0.0000000000" r="2" />
	<circle cx="491.5606670223" cy="-533.5390757142" r="2" />
	<circle cx="499.9999936829" cy="-865.9966153916" r="2" />
	<circle cx="500.0000000014" cy="-866.0253665780" r="2" />
	<circle cx="68.7473726623" cy="-30.3088838459" r="2" />
	<circle cx="0.0000000001" cy="-0.0000000000" r="2" />
	<circle cx="500.0000000000" cy="-866.0254038000" r="2" />
	<circle cx="499.9999903750" cy="-865.7596025821" r="2" />
	<circle cx="19.1238198323" cy="-11.1196480774" r="2" />
	<circle cx="500.0000000000" cy="-866.0254038000" r="2" />
	<circle cx="17.8705647526" cy="-10.3171591315" r="2" />
	<circle cx="507.1839510212" cy="-711.9288870098" r="2" />
	<circle cx="1000.0000000000" cy="-0.0000000000" r="2" />
	<circle cx="1000.0000000000" cy="-0.0000000000" r="2" />
	<circle cx="500.0000000000" cy="-866.0254038000" r="2" />
	<circle cx="500.0000000000" cy="-866.0254038000" r="2" />
	<circle cx="500.0000000000" cy="-866.0254038000" r="2" />
	<circle cx="500.0000000000" cy="-866.0254038000" r="2" />
	<circle cx="999.9283144472" cy="-0.0317127381" r="2" />
	<circle cx="999.5511438747" cy="-0.2409825232" r="2" />
	<circle cx="499.9990227546" cy="-866.0207972434" r="2" />
	<circle cx="500.0000000000" cy="-866.0254038000" r="2" />
	<circle cx="0.2638716278" cy="-0.1124178360" r="2" />
	<circle cx="500.0648864290" cy="-289.3553022137" r="2" />
	<circle cx="500.0001809860" cy="-864.5985156598" r="2" />
	<circle cx="500.0000000000" cy="-866.0254038000" r="2" />
	<circle cx="499.9999999567" cy="-866.0234733917" r="2" />
	<circle cx="998.6328604672" cy="-0.7886422060" r="2" />
	<circle cx="500.0082211143" cy="-864.1767589691" r="2" />
	<circle cx="500.0000000000" cy="-866.0254038000" r="2" />
	<circle cx="499.9988959789" cy="-866.0151969121" r="2" />
	<circle cx="1000.0000000000" cy="-0.0000000000" r="2" />
	<circle cx="499.9724821875" cy="-865.6195951262" r="2" />
	<circle cx="1000.0000000000" cy="-0.0000000000" r="2" />
	<circle cx="499.9999999838" cy="-866.0253782780" r="2" />
	<circle cx="999.9999982295" cy="-0.0000010146" r="2" />
	<circle cx="1000.0000000000" cy="-0.0000000000" r="2" />
	<circle cx="314.9674496819" cy="-181.8453233081" r="2" />
	<circle cx="500.0097435073" cy="-836.8432135060" r="2" />
	<circle cx="999.9978409389" cy="-0.0022345377" r="2" />
	<circle cx="501.6531597985" cy="-822.6663023436" r="2" />
	<circle cx="499.8188050370" cy="-840.7966480505" r="2" />
	<circle cx="527.9339080714" cy="-244.2858044783" r="2" />
	<circle cx="991.1113706509" cy="-5.1335477834" r="2" />
	<circle cx="31.6414479695" cy="-21.4038375522" r="2" />
	<circle cx="0.0000000000" cy="-0.0000000000" r="2" />
	<circle cx="459.6562930872" cy="-311.3200138469" r="2" />
	<circle cx="0.0000000000" cy="-0.0000000000" r="2" />
	<circle cx="12.8540200613" cy="-7.8851076278" r="2" />
	<circle cx="999.8511592657" cy="-0.0858995160" r="2" />
	<circle cx="1.6292011733" cy="-1.0559181412" r="2" />
	<circle cx="1000.0000000000" cy="-0.0000000000" r="2" />
	<circle cx="594.4365681055" cy="-234.0568242832" r="2" />
	<circle cx="0.0000000000" cy="-0.0000000000" r="2" />
	<circle cx="240.8226141384" cy="-82.2025864575" r="2" />
	<circle cx="0.0000022415" cy="-0.0000012947" r="2" />
	<circle cx="4.4849757050" cy="-2.5917778339" r="2" />
	<circle cx="0.0000000000" cy="-0.0000000000" r="2" />
	<circle cx="963.9004827509" cy="-20.1791035486" r="2" />
	<circle cx="0.0000000000" cy="-0.0000000000" r="2" />
	<circle cx="1000.0000000000" cy="-0.0000000000" r="2" />
	<circle cx="1000.0000000000" cy="-0.0000000000" r="2" />
	<circle cx="0.0356378928" cy="-0.0205649734" r="2" />
	<circle cx="1000.0000000000" cy="-0.0000000000" r="2" />
	<circle cx="0.0000000066" cy="-0.0000000038" r="2" />
	<circle cx="500.0000000000" cy="-866.0254038000" r="2" />
	<circle cx="500.0000000000" cy="-866.0254038000" r="2" />
	<circle cx="500.1862284837" cy="-519.8380598795" r="2" />
	<circle cx="499.8807751389" cy="-865.3897686615" r="2" />
	<circle cx="500.0000000000" cy="-866.0254038000" r="2" />
	<circle cx="500.0000000000" cy="-866.0254038000" r="2" />
	<circle cx="545.7932890261" cy="-630.4736240093" r="2" />
	<circle cx="500.0000000000" cy="-866.0254038000" r="2" />
	<circle cx="497.1492773113" cy="-609.5670406003" r="2" />
	<circle cx="0.0000000000" cy="-0.0000000000" r="2" />
	<circle cx="500.0000000000" cy="-866.0254038000" r="2" />
	<circle cx="430.7852944463" cy="-247.5909825166" r="2" />
	<circle cx="0.0000000000" cy="-0.0000000000" r="2" />
	<circle cx="499.9999992373" cy="-866.0253806863" r="2" />
	<circle cx="500.0004748274" cy="-853.5328054815" r="2" />
	<circle cx="500.0000000000" cy="-866.0254038000" r="2" />
	<circle cx="499.9908071543" cy="-833.4896074918" r="2" />
	<circle cx="141.2197206209" cy="-81.5537007397" r="2" />
	<circle cx="530.2761663980" cy="-138.2991780404" r="2" />
	<circle cx="500.0010822115" cy="-863.1626574326" r="2" />
	<circle cx="449.8479648219" cy="-263.1792476555" r="2" />
	<circle cx="1000.0000000000" cy="-0.0000000000" r="2" />
	<circle cx="6.9003995400" cy="-3.9868335083" r="2" />
	<circle cx="500.0000000000" cy="-866.0254038000" r="2" />
	<circle cx="1000.0000000000" cy="-0.0000000000" r="2" />
	<circle cx="500.1194609252" cy="-865.3899099508" r="2" />
	<circle cx="0.0000065889" cy="-0.0000038024" r="2" />
	<circle cx="1000.0000000000" cy="-0.0000000000" r="2" />
	<circle cx="0.0000000047" cy="-0.0000000028" r="2" />
	<circle cx="891.0384299351" cy="-48.5161040354" r="2" />
	<circle cx="989.0390289144" cy="-6.3292483466" r="2" />
	<circle cx="1000.0000000000" cy="-0.0000000000" r="2" />
	<circle cx="495.8465191558" cy="-286.0472816636" r="2" />
	<circle cx="499.9894099973" cy="-845.2873430724" r="2" />
	<circle cx="0.0000000000" cy="-0.0000000000" r="2" />
	<circle cx="0.0612944857" cy="-0.0353467825" r="2" />
	<circle cx="500.0000000000" cy="-866.0254038000" r="2" />
	<circle cx="0.0000000000" cy="-0.0000000000" r="2" />
	<circle cx="515.6849170289" cy="-290.8957729722" r="2" />
	<circle cx="999.8852874718" cy="-0.0656582664" r="2" />
	<circle cx="0.0000000000" cy="-0.0000000000" r="2" />
	<circle cx="999.9999999999" cy="-0.0000000000" r="2" />
	<circle cx="0.0000000000" cy="-0.0000000000" r="2" />
	<circle cx="736.1735592041" cy="-174.1005250007" r="2" />
	<circle cx="500.0000000000" cy="-866.0254038000" r="2" />
	<circle cx="500.0000000000" cy="-866.0254038000" r="2" />
	<circle cx="628.2857585181" cy="-367.0615218994" r="2" />
	<circle cx="500.0015124101" cy="-862.3690957481" r="2" />
	<circle cx="297.7705603428" cy="-171.8823589997" r="2" />
	<circle cx="1000.0000000000" cy="-0.0000000000" r="2" />
	<circle cx="1000.0000000000" cy="-0.0000000000" r="2" />
	<circle cx="566.2586498554" cy="-250.2735180981" r="2" />
	<circle cx="0.0000000000" cy="-0.0000000000" r="2" />
	<circle cx="500.0000000000" cy="-866.0254038000" r="2" />
	<circle cx="500.0000000000" cy="-866.0254038000" r="2" />
	<circle cx="1000.0000000000" cy="-0.0000000000" r="2" />
	<circle cx="0.0000001978" cy="-0.0000001177" r="2" />
	<circle cx="999.9999999008" cy="-0.0000000401" r="2" />
	<circle cx="846.1575879006" cy="-88.8425600825" r="2" />
	<circle cx="784.6402565054" cy="-148.6924962556" r="2" />
	<circle cx="500.3056250778" cy="-770.7326611166" r="2" />
	<circle cx="1.7314391802" cy="-0.9992412619" r="2" />
	<circle cx="994.8621015052" cy="-2.9661578475" r="2" />
	<circle cx="0.0000000000" cy="-0.0000000000" r="2" />
	<circle cx="838.7214707796" cy="-148.5519808863" r="2" />
	<circle cx="1000.0000000000" cy="-0.0000000000" r="2" />
	<circle cx="1000.0000000000" cy="-0.0000000000" r="2" />
	<circle cx="410.8006026490" cy="-296.3975096727" r="2" />
	<circle cx="0.2793297963" cy="-0.1489776122" r="2" />
	<circle cx="499.6874697839" cy="-861.9662743170" r="2" />
	<circle cx="427.9421631080" cy="-246.9952752278" r="2" />
	<circle cx="537.9137842599" cy="-207.5654800098" r="2" />
	<circle cx="507.9885435922" cy="-641.2588579798" r="2" />
	<circle cx="500.0000000000" cy="-866.0254038000" r="2" />
	<circle cx="998.9676125888" cy="-0.7743279402" r="2" />
	<circle cx="497.8444956605" cy="-766.8842149533" r="2" />
	<circle cx="411.1434715201" cy="-239.5786806724" r="2" />
	<circle cx="129.3032342301" cy="-33.1002144098" r="2" />
	<circle cx="999.9999334816" cy="-0.0000384377" r="2" />
	<circle cx="495.8512890997" cy="-834.0579598920" r="2" />
	<circle cx="504.7968592261" cy="-845.7834714961" r="2" />
	<circle cx="499.9999927076" cy="-865.7478965058" r="2" />
	<circle cx="1000.0000000000" cy="-0.0000000000" r="2" />
	<circle cx="0.0000000000" cy="-0.0000000000" r="2" />
	<circle cx="991.5253335711" cy="-4.8893852309" r="2" />
	<circle cx="499.9999814961" cy="-865.9611890345" r="2" />
	<circle cx="999.9999999991" cy="-0.0000000005" r="2" />
	<circle cx="115.5045773424" cy="-29.7622577980" r="2" />
	<circle cx="0.0145878017" cy="-0.0108076953" r="2" />
	<circle cx="499.9999998954" cy="-866.0253984224" r="2" />
	<circle cx="34.3486060197" cy="-28.4213413027" r="2" />
	<circle cx="500.0000000000" cy="-866.0254038000" r="2" />
	<circle cx="999.9923306797" cy="-0.0043375821" r="2" />
	<circle cx="999.9996216617" cy="-0.0002184836" r="2" />
	<circle cx="1000.0000000000" cy="-0.0000000000" r="2" />
	<circle cx="998.9427430243" cy="-0.8238794820" r="2" />
	<circle cx="500.0000000000" cy="-866.0254038000" r="2" />
	<circle cx="0.0000000000" cy="-0.0000000000" r="2" />
	<circle cx="0.2300629971" cy="-0.1328288373" r="2" />
	<circle cx="998.7359244969" cy="-0.7298114117" r="2" />
	<circle cx="1000.0000000000" cy="-0.0000000000" r="2" />
	<circle cx="4.4871969573" cy="-2.5884928976" r="2" />
	<circle cx="500.0000000000" cy="-866.0254038000" r="2" />
	<circle cx="0.0000000000" cy="-0.0000000000" r="2" />
	<circle cx="984.8350389973" cy="-8.7571275026" r="2" />
	<circle cx="1000.0000000000" cy="-0.0000000000" r="2" />
	<circle cx="1000.0000000000" cy="-0.0000000000" r="2" />
	<circle cx="500.0000000000" cy="-866.0254038000" r="2" />
	<circle cx="500.0000000000" cy="-866.0254038000" r="2" />
	<circle cx="0.0000000000" cy="-0.0000000000" r="2" />
	<circle cx="500.0000006647" cy="-866.0137811959" r="2" />
	<circle cx="500.0000000000" cy="-866.0254038000" r="2" />
	<circle cx="500.0000000001" cy="-866.0254029515" r="2" />
	<circle cx="500.0000000000" cy="-866.0254038000" r="2" />
	<circle cx="966.7641284123" cy="-19.1817289700" r="2" />
	<circle cx="0.0121863971" cy="-0.0070360831" r="2" />
	<circle cx="998.3244867078" cy="-1.3535159940" r="2" />
	<circle cx="500.0000000000" cy="-866.0254038000" r="2" />
	<circle cx="996.9736306883" cy="-1.7401575261" r="2" />
	<circle cx="0.0000000000" cy="-0.0000000000" r="2" />
	<circle cx="0.0000000000" cy="-0.0000000000" r="2" />
	<circle cx="0.0000000000" cy="-0.0000000000" r="2" />
	<circle cx="0.0000000000" cy="-0.0000000000" r="2" />
	<circle cx="43.3034880270" cy="-24.4495821159" r="2" />
	<circle cx="500.0000000000" cy="-866.0254038000" r="2" />
	<circle cx="1000.0000000000" cy="-0.0000000000" r="2" />
	<circle cx="0.5570916382" cy="-0.3213449326" r="2" />
	<circle cx="0.0000000000" cy="-0.0000000000" r="2" />
	<circle cx="500.0000000000" cy="-866.0254037875" r="2" />
	<circle cx="500.0000000000" cy="-866.0254037370" r="2" />
	<circle cx="0.0000000000" cy="-0.0000000000" r="2" />
	<circle cx="499.9999909471" cy="-865.9984874649" r="2" />
	<circle cx="1.3677712373" cy="-0.7893682720" r="2" />
	<circle cx="1000.0000000000" cy="-0.0000000000" r="2" />
	<circle cx="500.0000000000" cy="-866.0254038000" r="2" />
	<circle cx="0.0000000000" cy="-0.0000000000" r="2" />
	<circle cx="0.0000000000" cy="-0.0000000000" r="2" />
	<circle cx="0.0000000000" cy="-0.0000000000" r="2" />
	<circle cx="340.7450793324" cy="-403.1760045317" r="2" />
	<circle cx="0.0000000000" cy="-0.0000000000" r="2" />
	<circle cx="500.0093488901" cy="-485.0893284667" r="2" />
	<circle cx="500.0000000000" cy="-866.0254038000" r="2" />
	<circle cx="500.0000000000" cy="-866.0254038000" r="2" />
	<circle cx="0.0000000000" cy="-0.0000000000" r="2" />
	<circle cx="500.0000000000" cy="-866.0254038000" r="2" />
	<circle cx="498.0452973675" cy="-859.1633360957" r="2" />
	<circle cx="500.0000000001" cy="-866.0254037156" r="2" />
	<circle cx="1000.0000000000" cy="-0.0000000000" r="2" />
	<circle cx="438.3498754613" cy="-165.6740326101" r="2" />
	<circle cx="0.0000003999" cy="-0.0000002310" r="2" />
	<circle cx="0.0000000000" cy="-0.0000000000" r="2" />
	<circle cx="500.0000000000" cy="-866.0254038000" r="2" />
	<circle cx="405.0273054793" cy="-233.7469410179" r="2" />
	<circle cx="984.6407690690" cy="-8.4739416971" r="2" />
	<circle cx="390.3181033571" cy="-251.4381241268" r="2" />
	<circle cx="999.9999998213" cy="-0.0000001032" r="2" />
	<circle cx="125.3177684020" cy="-72.3471173634" r="2" />
	<circle cx="0.0000081927" cy="-0.0000047284" r="2" />
	<circle cx="1000.0000000000" cy="-0.0000000000" r="2" />
	<circle cx="0.0000000000" cy="-0.0000000000" r="2" />
	<circle cx="0.0000000000" cy="-0.0000000000" r="2" />
	<circle cx="499.9820063539" cy="-723.6183784660" r="2" />
	<circle cx="500.0000000000" cy="-866.0254037999" r="2" />
	<circle cx="500.0086780656" cy="-790.5286266259" r="2" />
	<circle cx="323.4284602423" cy="-164.3382532052" r="2" />
	<circle cx="998.4220211221" cy="-0.9108375266" r="2" />
	<circle cx="500.0000000932" cy="-866.0253902602" r="2" />
	<circle cx="0.0046256925" cy="-0.0027302287" r="2" />
	<circle cx="500.0000000000" cy="-866.0254038000" r="2" />
	<circle cx="500.0000000000" cy="-866.0254038000" r="2" />
	<circle cx="1000.0000000000" cy="-0.0000000000" r="2" />
	<circle cx="500.0000000000" cy="-866.0254038000" r="2" />
	<circle cx="500.0674166674" cy="-865.8303901471" r="2" />
	<circle cx="499.9993833811" cy="-863.4982077834" r="2" />
	<circle cx="822.5366334549" cy="-102.5087344830" r="2" />
	<circle cx="999.9999942135" cy="-0.0000033381" r="2" />
	<circle cx="1000.0000000000" cy="-0.0000000000" r="2" />
	<circle cx="145.8686553726" cy="-36.3748460737" r="2" />
	<circle cx="500.0000000000" cy="-866.0254038000" r="2" />
	<circle cx="980.4667973815" cy="-11.2735821070" r="2" />
	<circle cx="0.0000000000" cy="-0.0000000000" r="2" />
	<circle cx="999.9894920321" cy="-0.0066188584" r="2" />
	<circle cx="500.0000243811" cy="-865.5697474400" r="2" />
	<circle cx="994.7686234463" cy="-3.0207956102" r="2" />
	<circle cx="500.0000000000" cy="-866.0254038000" r="2" />
	<circle cx="45.7745293168" cy="-26.4295652670" r="2" />
	<circle cx="499.9955770965" cy="-601.0326667906" r="2" />
	<circle cx="0.0000000000" cy="-0.0000000000" r="2" />
	<circle cx="999.9990928785" cy="-0.0005122514" r="2" />
	<circle cx="27.7200972368" cy="-10.7918253888" r="2" />
	<circle cx="1000.0000000000" cy="-0.0000000000" r="2" />
	<circle cx="999.9999992347" cy="-0.0000004421" r="2" />
	<circle cx="999.9999999983" cy="-0.0000000010" r="2" />
	<circle cx="1000.0000000000" cy="-0.0000000000" r="2" />
	<circle cx="0.0000000000" cy="-0.0000000000" r="2" />
	<circle cx="496.5642018420" cy="-786.6337217666" r="2" />
	<circle cx="499.9981125150" cy="-687.7710324161" r="2" />
	<circle cx="507.4566191488" cy="-822.0246567670" r="2" />
	<circle cx="500.0161214576" cy="-593.7584268323" r="2" />
	<circle cx="0.0000065702" cy="-0.0000038713" r="2" />
	<circle cx="1000.0000000000" cy="-0.0000000000" r="2" />
	<circle cx="499.9886740105" cy="-801.5455322589" r="2" />
	<circle cx="500.0000000000" cy="-866.0254038000" r="2" />
	<circle cx="332.7071374465" cy="-192.1232062018" r="2" />
	<circle cx="500.1650948330" cy="-498.4940743396" r="2" />
	<circle cx="500.0000001616" cy="-866.0254021241" r="2" />
	<circle cx="1000.0000000000" cy="-0.0000000000" r="2" />
	<circle cx="500.0000000000" cy="-866.0254038000" r="2" />
	<circle cx="0.0916776266" cy="-0.0404815343" r="2" />
	<circle cx="495.7962062721" cy="-378.4356398215" r="2" />
	<circle cx="1000.0000000000" cy="-0.0000000000" r="2" />
	<circle cx="500.0000000000" cy="-866.0254038000" r="2" />
	<circle cx="1000.0000000000" cy="-0.0000000000" r="2" />
	<circle cx="0.9262965969" cy="-0.5350957392" r="2" />
	<circle cx="0.0000000000" cy="-0.0000000000" r="2" />
	<circle cx="0.0872085813" cy="-0.0325157747" r="2" />
	<circle cx="11.5382725831" cy="-5.3336140914" r="2" />
	<circle cx="0.0000000000" cy="-0.0000000000" r="2" />
	<circle cx="759.8748821911" cy="-142.7404813546" r="2" />
	<circle cx="997.8290016114" cy="-1.2534006789" r="2" />
	<circle cx="0.0000000000" cy="-0.0000000000" r="2" />
	<circle cx="999.9995154522" cy="-0.0002797912" r="2" />
	<circle cx="999.9609567888" cy="-0.0225454463" r="2" />
	<circle cx="999.3921642961" cy="-0.3506605735" r="2" />
	<circle cx="500.0000000000" cy="-866.0254038000" r="2" />
	<circle cx="0.0000000000" cy="-0.0000000000" r="2" />
	<circle cx="7.0425316658" cy="-3.3578572550" r="2" />
	<circle cx="1000.0000000000" cy="-0.0000000000" r="2" />
	<circle cx="1000.0000000000" cy="-0.0000000000" r="2" />
	<circle cx="498.3804934024" cy="-855.1124389256" r="2" />
	<circle cx="982.2271952662" cy="-10.2602837590" r="2" />
	<circle cx="0.0000000000" cy="-0.0000000000" r="2" />
	<circle cx="500.0000000000" cy="-866.0254038000" r="2" />
	<circle cx="0.0000000000" cy="-0.0000000000" r="2" />
	<circle cx="0.0000000000" cy="-0.0000000000" r="2" />
	<circle cx="46.2811425108" cy="-35.0253560416" r="2" />
	<circle cx="972.1945973063" cy="-16.0601518823" r="2" />
	<circle cx="16.9544189626" cy="-12.4895488362" r="2" />
	<circle cx="500.0000707338" cy="-866.0232653760" r="2" />
	<circle cx="999.9966759244" cy="-0.0019200263" r="2" />
	<circle cx="500.0000000000" cy="-866.0254038000" r="2" />
	<circle cx="500.0000000000" cy="-866.0254038000" r="2" />
	<circle cx="993.2677720291" cy="-3.8865212792" r="2" />
	<circle cx="500.0204297810" cy="-865.8538546339" r="2" />
	<circle cx="0.0000000000" cy="-0.0000000000" r="2" />
	<circle cx="999.9999999999" cy="-0.0000000000" r="2" />
	<circle cx="634.0428509143" cy="-211.0372062186" r="2" />
	<circle cx="426.8354770020" cy="-187.4628181820" r="2" />
	<circle cx="4.9851559892" cy="-2.8803203329" r="2" />
	<circle cx="24.5810254938" cy="-14.6761289663" r="2" />
	<circle cx="500.0000000000" cy="-866.0254038000" r="2" />
	<circle cx="500.1554184155" cy="-863.0934307014" r="2" />
	<circle cx="500.0001037757" cy="-865.9900885345" r="2" />
	<circle cx="0.0000000000" cy="-0.0000000000" r="2" />
	<circle cx="27.9956779621" cy="-16.3820423239" r="2" />
	<circle cx="1000.0000000000" cy="-0.0000000000" r="2" />
	<circle cx="1000.0000000000" cy="-0.0000000000" r="2" />
	<circle cx="999.9487880568" cy="-0.0586747261" r="2" />
	<circle cx="1000.0000000000" cy="-0.0000000000" r="2" />
	<circle cx="999.8655274937" cy="-0.1077837230" r="2" />
	<circle cx="499.9984936268" cy="-861.2202501598" r="2" />
	<circle cx="499.9999997538" cy="-866.0227958028" r="2" />
	<circle cx="0.0392749504" cy="-0.0226723535" r="2" />
	<circle cx="1.5546611522" cy="-0.8976646408" r="2" />
	<circle cx="12.7381149676" cy="-4.5001563152" r="2" />
	<circle cx="819.1026997535" cy="-157.2761077514" r="2" />
	<circle cx="217.6768775948" cy="-225.8457722860" r="2" />
	<circle cx="68.6527699292" cy="-39.6387066759" r="2" />
	<circle cx="986.4445821901" cy="-17.6065211475" r="2" />
	<circle cx="929.6160052254" cy="-36.6714699904" r="2" />
	<circle cx="500.0000000000" cy="-866.0254038000" r="2" />
	<circle cx="1000.0000000000" cy="-0.0000000000" r="2" />
	<circle cx="494.3366392427" cy="-339.9951572035" r="2" />
	<circle cx="0.0000002383" cy="-0.0000001376" r="2" />
	<circle cx="500.0000000000" cy="-866.0254038000" r="2" />
	<circle cx="0.0000000000" cy="-0.0000000000" r="2" />
	<circle cx="500.1651849138" cy="-851.8000415515" r="2" />
	<circle cx="0.0000000000" cy="-0.0000000000" r="2" />
	<circle cx="0.0000000000" cy="-0.0000000000" r="2" />
	<circle cx="87.4847441760" cy="-50.5616404864" r="2" />
	<circle cx="999.9999999992" cy="-0.0000000005" r="2" />
	<circle cx="478.6131746828" cy="-623.9015804936" r="2" />
	<circle cx="0.0000000000" cy="-0.0000000000" r="2" />
	<circle cx="500.0000000000" cy="-866.0254038000" r="2" />
	<circle cx="572.1207149529" cy="-247.1092079213" r="2" />
	<circle cx="1000.0000000000" cy="-0.0000000000" r="2" />
	<circle cx="218.5107400905" cy="-126.1080764031" r="2" />
	<circle cx="972.5879563064" cy="-15.8192192289" r="2" />
	<circle cx="499.9999999981" cy="-866.0254037919" r="2" />
	<circle cx="500.0028530082" cy="-288.6081910275" r="2" />
	<circle cx="1000.0000000000" cy="-0.0000000000" r="2" />
	<circle cx="0.2354665497" cy="-0.1359393805" r="2" />
	<circle cx="1000.0000000000" cy="-0.0000000000" r="2" />
	<circle cx="491.1750202523" cy="-283.8798019276" r="2" />
	<circle cx="126.9823676276" cy="-99.7207249151" r="2" />
	<circle cx="999.9677370452" cy="-0.0186235230" r="2" />
	<circle cx="999.9799382856" cy="-0.0114609847" r="2" />
	<circle cx="0.0000000000" cy="-0.0000000000" r="2" />
	<circle cx="1000.0000000000" cy="-0.0000000000" r="2" />
	<circle cx="0.3992369905" cy="-0.2305632185" r="2" />
	<circle cx="499.9637822077" cy="-730.2952079378" r="2" />
	<circle cx="500.0814130484" cy="-326.2334596939" r="2" />
	<circle cx="499.9967645976" cy="-853.0089251847" r="2" />
	<circle cx="500.0000000000" cy="-866.0254038000" r="2" />
	<circle cx="1000.0000000000" cy="-0.0000000000" r="2" />
	<circle cx="756.9485906111" cy="-140.3982946528" r="2" />
	<circle cx="386.7641400790" cy="-273.0860573632" r="2" />
	<circle cx="0.0000001191" cy="-0.0000000688" r="2" />
	<circle cx="500.0000000000" cy="-866.0254038000" r="2" />
	<circle cx="500.0000000000" cy="-866.0254038000" r="2" />
	<circle cx="500.0000000023" cy="-866.0253992320" r="2" />
	<circle cx="999.9949762873" cy="-0.0020943449" r="2" />
	<circle cx="500.0000000000" cy="-866.0254038000" r="2" />
	<circle cx="500.0000000000" cy="-866.0254038000" r="2" />
	<circle cx="500.0000000000" cy="-866.0254038000" r="2" />
	<circle cx="964.1530258291" cy="-31.1079921491" r="2" />
	<circle cx="306.9263084781" cy="-177.8214406901" r="2" />
	<circle cx="500.0000000000" cy="-866.0254038000" r="2" />
	<circle cx="499.9999986690" cy="-866.0253933032" r="2" />
	<circle cx="0.0000000000" cy="-0.0000000000" r="2" />
	<circle cx="1000.0000000000" cy="-0.0000000000" r="2" />
	<circle cx="500.0000411528" cy="-865.6526231288" r="2" />
	<circle cx="999.9697724371" cy="-0.0139629109" r="2" />
	<circle cx="234.2126848593" cy="-135.1774320617" r="2" />
	<circle cx="999.8572221116" cy="-0.0820406344" r="2" />
	<circle cx="999.9999999870" cy="-0.0000000176" r="2" />
	<circle cx="500.0000000000" cy="-866.0254038000" r="2" />
	<circle cx="500.0000000000" cy="-866.0254038000" r="2" />
	<circle cx="500.0261336198" cy="-642.2366158518" r="2" />
	<circle cx="0.0000000633" cy="-0.0000000245" r="2" />
	<circle cx="1000.0000000000" cy="-0.0000000000" r="2" />
	<circle cx="1.2063034405" cy="-0.2934576562" r="2" />
	<circle cx="999.9833591394" cy="-0.0072237531" r="2" />
	<circle cx="500.0000185355" cy="-865.3208905344" r="2" />
	<circle cx="423.5185954100" cy="-244.8185605892" r="2" />
	<circle cx="500.0000000000" cy="-866.0254037973" r="2" />
	<circle cx="500.0000001804" cy="-866.0234710836" r="2" />
	<circle cx="999.9999999996" cy="-0.0000000002" r="2" />
	<circle cx="314.4336663956" cy="-183.2021257840" r="2" />
	<circle cx="0.0000009452" cy="-0.0000005455" r="2" />
	<circle cx="0.0000000000" cy="-0.0000000000" r="2" />
	<circle cx="440.1031950689" cy="-254.0248003286" r="2" />
	<circle cx="1000.0000000000" cy="-0.0000000000" r="2" />
	<circle cx="0.0000000000" cy="-0.0000000000" r="2" />
	<circle cx="468.5917937590" cy="-400.9374187695" r="2" />
	<circle cx="440.2256257559" cy="-253.9792422332" r="2" />
	<circle cx="500.0156851223" cy="-865.5161116571" r="2" />
	<circle cx="500.0066687458" cy="-845.7189525358" r="2" />
	<circle cx="1000.0000000000" cy="-0.0000000000" r="2" />
  </g>
  <g id="fig2" transform="translate(-550.0,1000)">
	<polygon points="0.0,-0.0 1000.0,-0.0 500.0,-866.0254038" />
	<line
	   id="line2-1"
	   y2="-0.0"
	   x2="500"
	   y1="-288.6751346"
	   x1="500" />
	<line
	   id="line2-2"
	   y2="-433.0127019"
	   x2="250"
	   y1="-288.6751346"
	   x1="500" />
	<line
	   id="line2-3"
	   y2="-433.0127019"
	   x2="750"
	   y1="-288.6751346"
	   x1="500" />
	<text
	   x="440"
	   y="-500"
	   id="up_2">35.6%</text>
	<text
	   x="250"
	   y="-150"
	   id="down_left_2">34.6%</text>
	<text
	   x="630"
	   y="-150"
	   id="down_right_2">29.8%</text>
  </g>
  <g id="fig3" transform="translate(550,1000)">
	<polygon points="0.0,-0.0 1000.0,-0.0 500.0,-866.0254038" />
	<polygon id="triangle3b" points="250,-144.3375673 750,-144.3375673 500,-577.3502692" />
	<line
	   id="line3-1"
	   x1="125"
	   y1="-216.5063509"
	   x2="250"
	   y2="-144.3375673" />
	<line
	   id="line3-2"
	   x1="375"
	   y1="-649.5190528"
	   x2="500"
	   y2="-577.3502692" />
	<line
	   id="line3-3"
	   x1="625"
	   y1="-649.5190528"
	   x2="500"
	   y2="-577.3502692" />
	<line
	   id="line3-4"
	   x1="875"
	   y1="-216.5063509"
	   x2="750"
	   y2="-144.3375673" />
	<line
	   id="line3-5"
	   x1="750"
	   y1="-0.0"
	   x2="750"
	   y2="-144.3375673" />
	<line
	   id="line3-6"
	   x1="250"
	   y1="-0.0"
	   x2="250"
	   y2="-144.3375673" />
	<text
	   x="500"
	   y="-660"
	   text-anchor="middle"
	   id="up_3">33.0%</text>
	<text
	   y="-50"
	   x="70"
	   id="down_left_3">28.8%</text>
	<text
	   y="-50"
	   x="770"
	   id="down_right_3">27.4%</text>
	<text
	   x="500"
	   y="-50"
	   text-anchor="middle"
	   id="down_side_3">0.2%</text>
	<text
	   x="500"
	   y="-280"
	   text-anchor="middle"
	   id="center_3">9.8%</text>
	<text
	   x="685.0"
	   y="-390.8439"
	   text-anchor="middle"
	   transform="rotate(60,665.0,-380.8439)"
	   id="right_side_3">0.4%</text>
	<text
	   x="315.0"
	   y="-390.8439"
	   text-anchor="middle"
	   transform="rotate(-60,335.0,-380.8439)"
	   id="left_side_3">0.4%</text>
  </g>
</g></g>
</svg>
