<?xml version="1.0" encoding="UTF-8" standalone="no"?>
<!DOCTYPE svg PUBLIC "-//W3C//DTD SVG 1.1//EN" "http://www.w3.org/Graphics/SVG/1.1/DTD/svg11.dtd">
<svg
   xmlns:svg="http://www.w3.org/2000/svg"
   xmlns="http://www.w3.org/2000/svg"
   xmlns:xlink="http://www.w3.org/1999/xlink"
   version="1.1"
   baseProfile="full"
   id="body"
   width="800px"
   height="800px"
   viewBox="0 0 1000 1000"
   preserveAspectRatio="none">
  <defs>
    <style type="text/css"><![CDATA[
      circle{ stroke: none; }
      polygon{ stroke: black; stroke-width: 2px; fill: none; }
      line{ stroke: black; stroke-width: 2px; }
      text{ font-size:50px; }
    ]]></style>
  </defs>
  <title
     id="title1">SVG drawing</title>
<g transform="scale(0.45)"><g transform="translate(600,1050)">
  <g id="fig1">
	<polygon points="0.0,-0.0 1000.0,-0.0 500,-866.0254038" />
	<circle cx="0.0000000000" cy="-0.0000000000" r="2" />
	<circle cx="933.0872106756" cy="-38.5989078077" r="2" />
	<circle cx="500.0000000000" cy="-866.0254038000" r="2" />
	<circle cx="0.0000000000" cy="-0.0000000000" r="2" />
	<circle cx="500.0000000000" cy="-866.0254038000" r="2" />
	<circle cx="1000.0000000000" cy="-0.0000000000" r="2" />
	<circle cx="500.0000000000" cy="-866.0254038000" r="2" />
	<circle cx="0.0000000000" cy="-0.0000000000" r="2" />
	<circle cx="0.0000323068" cy="-0.0000186588" r="2" />
	<circle cx="0.0014386447" cy="-0.0008109606" r="2" />
	<circle cx="999.9998888154" cy="-0.0000990784" r="2" />
	<circle cx="500.0000013532" cy="-866.0192319702" r="2" />
	<circle cx="1000.0000000000" cy="-0.0000000000" r="2" />
	<circle cx="999.9999965659" cy="-0.0000019828" r="2" />
	<circle cx="0.0000145478" cy="-0.0000083978" r="2" />
	<circle cx="0.0002132770" cy="-0.0001231222" r="2" />
	<circle cx="499.9488668569" cy="-694.0840967057" r="2" />
	<circle cx="500.0000000000" cy="-866.0254038000" r="2" />
	<circle cx="999.9999997946" cy="-0.0000001185" r="2" />
	<circle cx="0.0000008550" cy="-0.0000004938" r="2" />
	<circle cx="0.0000000000" cy="-0.0000000000" r="2" />
	<circle cx="0.0000000000" cy="-0.0000000000" r="2" />
	<circle cx="0.0000000000" cy="-0.0000000000" r="2" />
	<circle cx="999.9999948089" cy="-0.0000025227" r="2" />
	<circle cx="918.8705239501" cy="-60.0915898313" r="2" />
	<circle cx="973.8286066229" cy="-24.4792147511" r="2" />
	<circle cx="1000.0000000000" cy="-0.0000000000" r="2" />
	<circle cx="500.0000000000" cy="-866.0254038000" r="2" />
	<circle cx="915.2907275240" cy="-56.5645530570" r="2" />
	<circle cx="33.0693837333" cy="-4.0357572938" r="2" />
	<circle cx="730.2495377513" cy="-434.0546051500" r="2" />
	<circle cx="500.0000000000" cy="-866.0254037991" r="2" />
	<circle cx="500.0000000000" cy="-866.0254038000" r="2" />
	<circle cx="1000.0000000000" cy="-0.0000000000" r="2" />
	<circle cx="500.0000000000" cy="-866.0254038000" r="2" />
	<circle cx="0.0000248132" cy="-0.0000144113" r="2" />
	<circle cx="500.0000000000" cy="-866.0254038000" r="2" />
	<circle cx="500.0000000000" cy="-866.0254038000" r="2" />
	<circle cx="499.9461714234" cy="-394.2274015234" r="2" />
	<circle cx="494.3134369916" cy="-837.1765820337" r="2" />
	<circle cx="1000.0000000000" cy="-0.0000000000" r="2" />
	<circle cx="0.0000000000" cy="-0.0000000000" r="2" />
	<circle cx="721.7864343739" cy="-252.8790738823" r="2" />
	<circle cx="500.0000000000" cy="-866.0254038000" r="2" />
	<circle cx="0.0000000000" cy="-0.0000000000" r="2" />
	<circle cx="217.9132293659" cy="-179.4831056051" r="2" />
	<circle cx="984.8744581262" cy="-8.7322161252" r="2" />
	<circle cx="0.0000000000" cy="-0.0000000000" r="2" />
	<circle cx="502.7242611586" cy="-670.2068205001" r="2" />
	<circle cx="499.8779984528" cy="-865.7107574754" r="2" />
	<circle cx="500.0000000000" cy="-866.0254038000" r="2" />
	<circle cx="500.0000000000" cy="-866.0254038000" r="2" />
	<circle cx="0.6798091540" cy="-0.4175372773" r="2" />
	<circle cx="999.9947264114" cy="-0.0030468395" r="2" />
	<circle cx="500.0000000000" cy="-866.0254037999" r="2" />
	<circle cx="484.2486457712" cy="-504.4367072951" r="2" />
	<circle cx="0.0000000000" cy="-0.0000000000" r="2" />
	<circle cx="999.9475284594" cy="-0.0302946409" r="2" />
	<circle cx="0.0000000000" cy="-0.0000000000" r="2" />
	<circle cx="480.8877454278" cy="-649.1086924394" r="2" />
	<circle cx="0.0000000000" cy="-0.0000000000" r="2" />
	<circle cx="499.9998726315" cy="-866.0211961982" r="2" />
	<circle cx="580.3260622618" cy="-242.2774549796" r="2" />
	<circle cx="1.6709471554" cy="-0.8894868936" r="2" />
	<circle cx="500.0000000000" cy="-866.0254038000" r="2" />
	<circle cx="0.0000000000" cy="-0.0000000000" r="2" />
	<circle cx="495.4592630171" cy="-834.4743150291" r="2" />
	<circle cx="1000.0000000000" cy="-0.0000000000" r="2" />
	<circle cx="0.0000000000" cy="-0.0000000000" r="2" />
	<circle cx="416.0147093086" cy="-228.9922615526" r="2" />
	<circle cx="500.0000000000" cy="-866.0254037986" r="2" />
	<circle cx="0.0020622548" cy="-0.0014703137" r="2" />
	<circle cx="499.9999999980" cy="-866.0253943074" r="2" />
	<circle cx="311.3644937870" cy="-138.3824352677" r="2" />
	<circle cx="500.0000000000" cy="-866.0254038000" r="2" />
	<circle cx="0.0000000000" cy="-0.0000000000" r="2" />
	<circle cx="500.5309225061" cy="-862.6162559259" r="2" />
	<circle cx="1000.0000000000" cy="-0.0000000000" r="2" />
	<circle cx="1000.0000000000" cy="-0.0000000000" r="2" />
	<circle cx="992.5209342157" cy="-6.0263881754" r="2" />
	<circle cx="500.0197041890" cy="-865.8198605770" r="2" />
	<circle cx="500.5420108617" cy="-861.2408913790" r="2" />
	<circle cx="494.7494504328" cy="-619.6602527016" r="2" />
	<circle cx="500.0000000000" cy="-866.0254038000" r="2" />
	<circle cx="500.0006221369" cy="-866.0232456417" r="2" />
	<circle cx="931.9160375818" cy="-58.0442952490" r="2" />
	<circle cx="500.0000000000" cy="-866.0254038000" r="2" />
	<circle cx="0.0000000000" cy="-0.0000000000" r="2" />
	<circle cx="0.0000003157" cy="-0.0000001726" r="2" />
	<circle cx="999.9092463977" cy="-0.0587168622" r="2" />
	<circle cx="1000.0000000000" cy="-0.0000000000" r="2" />
	<circle cx="0.0000000000" cy="-0.0000000000" r="2" />
	<circle cx="0.0000000000" cy="-0.0000000000" r="2" />
	<circle cx="1000.0000000000" cy="-0.0000000000" r="2" />
	<circle cx="0.0692068348" cy="-0.0485198826" r="2" />
	<circle cx="0.0000000000" cy="-0.0000000000" r="2" />
	<circle cx="1000.0000000000" cy="-0.0000000000" r="2" />
	<circle cx="501.2138125082" cy="-860.3073641301" r="2" />
	<circle cx="0.0000000000" cy="-0.0000000000" r="2" />
	<circle cx="0.0000000000" cy="-0.0000000000" r="2" />
	<circle cx="1000.0000000000" cy="-0.0000000000" r="2" />
	<circle cx="1000.0000000000" cy="-0.0000000000" r="2" />
	<circle cx="8.6662899873" cy="-4.1182601021" r="2" />
	<circle cx="1000.0000000000" cy="-0.0000000000" r="2" />
	<circle cx="500.0000000000" cy="-866.0254038000" r="2" />
	<circle cx="999.9999275174" cy="-0.0000424029" r="2" />
	<circle cx="1000.0000000000" cy="-0.0000000000" r="2" />
	<circle cx="753.8511409313" cy="-142.0774056703" r="2" />
	<circle cx="500.0000000000" cy="-866.0254037999" r="2" />
	<circle cx="998.5716459263" cy="-0.8248457698" r="2" />
	<circle cx="500.0000000000" cy="-866.0254038000" r="2" />
	<circle cx="500.0000000000" cy="-866.0254038000" r="2" />
	<circle cx="0.0000000000" cy="-0.0000000000" r="2" />
	<circle cx="501.4438801878" cy="-829.9811563722" r="2" />
	<circle cx="449.5268169604" cy="-259.5556245439" r="2" />
	<circle cx="526.9328787613" cy="-273.1590015249" r="2" />
	<circle cx="757.6958539911" cy="-123.6376548195" r="2" />
	<circle cx="974.4703083871" cy="-14.7413940992" r="2" />
	<circle cx="496.6928381394" cy="-838.4964887013" r="2" />
	<circle cx="500.0000000000" cy="-866.0254037963" r="2" />
	<circle cx="500.0000000000" cy="-866.0254038000" r="2" />
	<circle cx="999.9996302735" cy="-0.0002134518" r="2" />
	<circle cx="0.0000000000" cy="-0.0000000000" r="2" />
	<circle cx="0.0000000000" cy="-0.0000000000" r="2" />
	<circle cx="0.0142988503" cy="-0.0014953484" r="2" />
	<circle cx="776.6766008036" cy="-53.2977213299" r="2" />
	<circle cx="999.9165970236" cy="-0.0745200240" r="2" />
	<circle cx="993.8283984223" cy="-1.4355034089" r="2" />
	<circle cx="412.2000981051" cy="-237.9397454235" r="2" />
	<circle cx="0.0000000000" cy="-0.0000000000" r="2" />
	<circle cx="1000.0000000000" cy="-0.0000000000" r="2" />
	<circle cx="489.8676756641" cy="-250.9066993712" r="2" />
	<circle cx="0.0000000000" cy="-0.0000000000" r="2" />
	<circle cx="0.0000451287" cy="-0.0000260300" r="2" />
	<circle cx="162.7487060987" cy="-41.8062096804" r="2" />
	<circle cx="0.0047857947" cy="-0.0034809207" r="2" />
	<circle cx="500.0000000000" cy="-866.0254038000" r="2" />
	<circle cx="759.1806383510" cy="-138.9662612003" r="2" />
	<circle cx="499.9999995861" cy="-866.0253865652" r="2" />
	<circle cx="999.9999999988" cy="-0.0000000007" r="2" />
	<circle cx="500.0898500118" cy="-857.8914887910" r="2" />
	<circle cx="0.0000012049" cy="-0.0000006958" r="2" />
	<circle cx="29.5957147082" cy="-11.8451022489" r="2" />
	<circle cx="500.7068462063" cy="-684.3288745513" r="2" />
	<circle cx="0.0000000000" cy="-0.0000000000" r="2" />
	<circle cx="1000.0000000000" cy="-0.0000000000" r="2" />
	<circle cx="1000.0000000000" cy="-0.0000000000" r="2" />
	<circle cx="117.3937215251" cy="-197.6890168049" r="2" />
	<circle cx="999.9999999953" cy="-0.0000000027" r="2" />
	<circle cx="0.0000000000" cy="-0.0000000000" r="2" />
	<circle cx="497.5235715589" cy="-856.8533527873" r="2" />
	<circle cx="999.9999999998" cy="-0.0000000001" r="2" />
	<circle cx="1000.0000000000" cy="-0.0000000000" r="2" />
	<circle cx="0.0000000000" cy="-0.0000000000" r="2" />
	<circle cx="0.0000001506" cy="-0.0000000870" r="2" />
	<circle cx="500.0000000000" cy="-866.0254038000" r="2" />
	<circle cx="999.9999993982" cy="-0.0000004986" r="2" />
	<circle cx="0.0000000000" cy="-0.0000000000" r="2" />
	<circle cx="466.2726579193" cy="-257.6140771002" r="2" />
	<circle cx="914.9333516484" cy="-62.4961040204" r="2" />
	<circle cx="999.9998177383" cy="-0.0001053024" r="2" />
	<circle cx="0.0000000000" cy="-0.0000000000" r="2" />
	<circle cx="0.0000000000" cy="-0.0000000000" r="2" />
	<circle cx="500.0045109357" cy="-865.9863942444" r="2" />
	<circle cx="0.0000000000" cy="-0.0000000000" r="2" />
	<circle cx="500.0000000000" cy="-866.0254038000" r="2" />
	<circle cx="707.6484914131" cy="-159.1136501917" r="2" />
	<circle cx="994.9553964497" cy="-2.4167004765" r="2" />
	<circle cx="1000.0000000000" cy="-0.0000000000" r="2" />
	<circle cx="0.0000000000" cy="-0.0000000000" r="2" />
	<circle cx="999.9999999970" cy="-0.0000000017" r="2" />
	<circle cx="500.0000000031" cy="-866.0253929322" r="2" />
	<circle cx="895.4360858908" cy="-95.0959247514" r="2" />
	<circle cx="500.0000000034" cy="-866.0254037097" r="2" />
	<circle cx="482.5177372442" cy="-278.2462132547" r="2" />
	<circle cx="999.9999993019" cy="-0.0000004016" r="2" />
	<circle cx="499.9814466194" cy="-343.4341750223" r="2" />
	<circle cx="301.6264728447" cy="-124.1507613572" r="2" />
	<circle cx="498.9888999111" cy="-859.3115769318" r="2" />
	<circle cx="983.9866702655" cy="-4.3490183102" r="2" />
	<circle cx="1.5965976039" cy="-0.9220970215" r="2" />
	<circle cx="500.0000000000" cy="-866.0254037973" r="2" />
	<circle cx="483.7730670898" cy="-778.0398882622" r="2" />
	<circle cx="974.1648881576" cy="-14.9280495105" r="2" />
	<circle cx="996.4352403357" cy="-2.0651487401" r="2" />
	<circle cx="500.9861757832" cy="-764.2865789661" r="2" />
	<circle cx="492.4640356138" cy="-813.4127629129" r="2" />
	<circle cx="0.0000022214" cy="-0.0000012825" r="2" />
	<circle cx="530.4450609278" cy="-198.3932024041" r="2" />
	<circle cx="500.0000000000" cy="-866.0254038000" r="2" />
	<circle cx="999.9989597008" cy="-0.0005048741" r="2" />
	<circle cx="488.3764595149" cy="-574.8236738386" r="2" />
	<circle cx="23.7727031774" cy="-13.7286636835" r="2" />
	<circle cx="1000.0000000000" cy="-0.0000000000" r="2" />
	<circle cx="1000.0000000000" cy="-0.0000000000" r="2" />
	<circle cx="500.0000000000" cy="-866.0254038000" r="2" />
	<circle cx="508.3317819353" cy="-625.8026609280" r="2" />
	<circle cx="672.4458095482" cy="-189.3691309057" r="2" />
	<circle cx="500.0000000000" cy="-866.0254038000" r="2" />
	<circle cx="899.4518599377" cy="-58.0953782346" r="2" />
	<circle cx="499.9998530694" cy="-866.0245936198" r="2" />
	<circle cx="0.0248477686" cy="-0.0143433130" r="2" />
	<circle cx="1000.0000000000" cy="-0.0000000000" r="2" />
	<circle cx="0.0000000000" cy="-0.0000000000" r="2" />
	<circle cx="1000.0000000000" cy="-0.0000000000" r="2" />
	<circle cx="210.6564496096" cy="-179.2417694346" r="2" />
	<circle cx="0.0000000000" cy="-0.0000000000" r="2" />
	<circle cx="500.0000000432" cy="-866.0254035812" r="2" />
	<circle cx="500.0000000000" cy="-866.0254038000" r="2" />
	<circle cx="1000.0000000000" cy="-0.0000000000" r="2" />
	<circle cx="500.0000000000" cy="-866.0254038000" r="2" />
	<circle cx="0.0000000000" cy="-0.0000000000" r="2" />
	<circle cx="499.9999999999" cy="-866.0254033657" r="2" />
	<circle cx="1000.0000000000" cy="-0.0000000000" r="2" />
	<circle cx="0.0287232349" cy="-0.0165932162" r="2" />
	<circle cx="999.9999270499" cy="-0.0000415716" r="2" />
	<circle cx="500.0000000000" cy="-866.0254038000" r="2" />
	<circle cx="500.0059256335" cy="-818.1280057622" r="2" />
	<circle cx="0.0000000000" cy="-0.0000000000" r="2" />
	<circle cx="289.3344332498" cy="-166.8664285236" r="2" />
	<circle cx="500.0000000000" cy="-866.0254038000" r="2" />
	<circle cx="597.5347272868" cy="-44.0234473091" r="2" />
	<circle cx="501.1277991922" cy="-861.6222841933" r="2" />
	<circle cx="500.0000000000" cy="-866.0254038000" r="2" />
	<circle cx="1000.0000000000" cy="-0.0000000000" r="2" />
	<circle cx="0.0000024432" cy="-0.0000014116" r="2" />
	<circle cx="497.4624156667" cy="-390.1473496358" r="2" />
	<circle cx="0.2245805616" cy="-0.2741170053" r="2" />
	<circle cx="0.0000000000" cy="-0.0000000000" r="2" />
	<circle cx="0.0000000000" cy="-0.0000000000" r="2" />
	<circle cx="500.0000000071" cy="-866.0251521775" r="2" />
	<circle cx="5.0199293448" cy="-2.6534874530" r="2" />
	<circle cx="966.3855133714" cy="-9.5057788318" r="2" />
	<circle cx="1000.0000000000" cy="-0.0000000000" r="2" />
	<circle cx="1000.0000000000" cy="-0.0000000000" r="2" />
	<circle cx="89.3809183393" cy="-101.5193574324" r="2" />
	<circle cx="500.0000000000" cy="-866.0254036489" r="2" />
	<circle cx="500.0508959783" cy="-308.0145812841" r="2" />
	<circle cx="495.8772305337" cy="-711.2901084601" r="2" />
	<circle cx="0.0000000003" cy="-0.0000000001" r="2" />
	<circle cx="0.0000000000" cy="-0.0000000000" r="2" />
	<circle cx="0.0000000000" cy="-0.0000000000" r="2" />
	<circle cx="999.9999999981" cy="-0.0000000016" r="2" />
	<circle cx="1000.0000000000" cy="-0.0000000000" r="2" />
	<circle cx="0.0015583562" cy="-0.0016184316" r="2" />
	<circle cx="8.0801211386" cy="-3.4594401118" r="2" />
	<circle cx="0.0000000000" cy="-0.0000000000" r="2" />
	<circle cx="0.0000094202" cy="-0.0000054400" r="2" />
	<circle cx="9.8608065702" cy="-6.6253982975" r="2" />
	<circle cx="500.0000000000" cy="-866.0254037957" r="2" />
	<circle cx="982.9559407117" cy="-6.8295629196" r="2" />
	<circle cx="0.0000000000" cy="-0.0000000000" r="2" />
	<circle cx="0.0000300718" cy="-0.0000173600" r="2" />
	<circle cx="500.0000000000" cy="-866.0254038000" r="2" />
	<circle cx="926.3731862882" cy="-71.0060757610" r="2" />
	<circle cx="0.0000000000" cy="-0.0000000000" r="2" />
	<circle cx="1000.0000000000" cy="-0.0000000000" r="2" />
	<circle cx="969.6885058767" cy="-16.0526886076" r="2" />
	<circle cx="499.9999999951" cy="-866.0253433964" r="2" />
	<circle cx="0.0000000652" cy="-0.0000000377" r="2" />
	<circle cx="500.0000000000" cy="-866.0254038000" r="2" />
	<circle cx="3.9802418443" cy="-1.8884344872" r="2" />
	<circle cx="994.9865321963" cy="-2.8948227717" r="2" />
	<circle cx="0.0000000000" cy="-0.0000000000" r="2" />
	<circle cx="635.7217215006" cy="-149.8205314967" r="2" />
	<circle cx="500.0000000000" cy="-866.0254038000" r="2" />
	<circle cx="1000.0000000000" cy="-0.0000000000" r="2" />
	<circle cx="500.0000000008" cy="-866.0253931390" r="2" />
	<circle cx="499.9921789990" cy="-865.5167868925" r="2" />
	<circle cx="0.0000000000" cy="-0.0000000000" r="2" />
	<circle cx="0.0000000025" cy="-0.0000000015" r="2" />
	<circle cx="1000.0000000000" cy="-0.0000000000" r="2" />
	<circle cx="1000.0000000000" cy="-0.0000000000" r="2" />
	<circle cx="0.0000000000" cy="-0.0000000000" r="2" />
	<circle cx="0.0000000000" cy="-0.0000000000" r="2" />
	<circle cx="512.4120312503" cy="-281.6773347352" r="2" />
	<circle cx="503.7906391497" cy="-598.9783947469" r="2" />
	<circle cx="0.0000002543" cy="-0.0000001468" r="2" />
	<circle cx="500.0000000000" cy="-866.0254038000" r="2" />
	<circle cx="0.0000000000" cy="-0.0000000000" r="2" />
	<circle cx="999.9997203776" cy="-0.0001614780" r="2" />
	<circle cx="0.0000000000" cy="-0.0000000000" r="2" />
	<circle cx="773.4030042392" cy="-158.4682668968" r="2" />
	<circle cx="500.0000000000" cy="-866.0254038000" r="2" />
	<circle cx="516.8972586224" cy="-278.8037704024" r="2" />
	<circle cx="1000.0000000000" cy="-0.0000000000" r="2" />
	<circle cx="999.9999989928" cy="-0.0000005814" r="2" />
	<circle cx="0.1323748556" cy="-0.0764043138" r="2" />
	<circle cx="500.0000000000" cy="-866.0254038000" r="2" />
	<circle cx="499.9999999993" cy="-866.0254004073" r="2" />
	<circle cx="0.0000000000" cy="-0.0000000000" r="2" />
	<circle cx="1000.0000000000" cy="-0.0000000000" r="2" />
	<circle cx="487.6384904988" cy="-279.1330988030" r="2" />
	<circle cx="500.0116107583" cy="-773.5591822464" r="2" />
	<circle cx="1000.0000000000" cy="-0.0000000000" r="2" />
	<circle cx="999.9999986267" cy="-0.0000007979" r="2" />
	<circle cx="998.2303237163" cy="-1.1099029081" r="2" />
	<circle cx="500.0000000000" cy="-866.0254038000" r="2" />
	<circle cx="0.0000000000" cy="-0.0000000000" r="2" />
	<circle cx="163.0004834895" cy="-113.0340096387" r="2" />
	<circle cx="500.0000000000" cy="-866.0254038000" r="2" />
	<circle cx="529.6159466446" cy="-560.5129411789" r="2" />
	<circle cx="533.2487558881" cy="-608.0717885176" r="2" />
	<circle cx="0.0000000000" cy="-0.0000000000" r="2" />
	<circle cx="668.0539308828" cy="-463.4512718327" r="2" />
	<circle cx="500.0000000000" cy="-866.0254038000" r="2" />
	<circle cx="1000.0000000000" cy="-0.0000000000" r="2" />
	<circle cx="324.6703539594" cy="-48.3688976327" r="2" />
	<circle cx="0.0000000000" cy="-0.0000000000" r="2" />
	<circle cx="500.0000000000" cy="-866.0254038000" r="2" />
	<circle cx="0.0000000000" cy="-0.0000000000" r="2" />
	<circle cx="0.0000000000" cy="-0.0000000000" r="2" />
	<circle cx="993.9456416510" cy="-2.9561499404" r="2" />
	<circle cx="500.0000000000" cy="-866.0254038000" r="2" />
	<circle cx="500.0000000000" cy="-866.0254038000" r="2" />
	<circle cx="0.0000000000" cy="-0.0000000000" r="2" />
	<circle cx="1000.0000000000" cy="-0.0000000000" r="2" />
	<circle cx="0.0000000000" cy="-0.0000000000" r="2" />
	<circle cx="823.3644321364" cy="-101.9911863307" r="2" />
	<circle cx="1000.0000000000" cy="-0.0000000000" r="2" />
	<circle cx="503.2348408542" cy="-859.5558713925" r="2" />
	<circle cx="999.9999998693" cy="-0.0000000755" r="2" />
	<circle cx="999.9999999957" cy="-0.0000000025" r="2" />
	<circle cx="0.0000000000" cy="-0.0000000000" r="2" />
	<circle cx="675.4516893893" cy="-374.3532168647" r="2" />
	<circle cx="400.8327517272" cy="-181.9459266508" r="2" />
	<circle cx="0.0000000000" cy="-0.0000000000" r="2" />
	<circle cx="1000.0000000000" cy="-0.0000000000" r="2" />
	<circle cx="155.6425001490" cy="-87.0074990404" r="2" />
	<circle cx="499.9992374571" cy="-866.0187972347" r="2" />
	<circle cx="697.7079684638" cy="-174.5459758594" r="2" />
	<circle cx="1000.0000000000" cy="-0.0000000000" r="2" />
	<circle cx="1000.0000000000" cy="-0.0000000000" r="2" />
	<circle cx="462.0476918469" cy="-277.4886679769" r="2" />
	<circle cx="500.0000000000" cy="-866.0254037998" r="2" />
	<circle cx="0.0000000002" cy="-0.0000000001" r="2" />
	<circle cx="766.8357961989" cy="-130.2406247833" r="2" />
	<circle cx="0.0000000000" cy="-0.0000000000" r="2" />
	<circle cx="470.3951111757" cy="-271.7379278570" r="2" />
	<circle cx="499.9828110722" cy="-546.3857042977" r="2" />
	<circle cx="1000.0000000000" cy="-0.0000000000" r="2" />
	<circle cx="0.0003694730" cy="-0.0002132672" r="2" />
	<circle cx="530.4255286387" cy="-367.0049767997" r="2" />
	<circle cx="0.0007751603" cy="-0.0002779198" r="2" />
	<circle cx="0.0000000307" cy="-0.0000000298" r="2" />
	<circle cx="500.0000000000" cy="-866.0254038000" r="2" />
	<circle cx="0.0000000000" cy="-0.0000000000" r="2" />
	<circle cx="500.4651292601" cy="-853.0675580968" r="2" />
	<circle cx="336.7736971362" cy="-495.3481825809" r="2" />
	<circle cx="1000.0000000000" cy="-0.0000000000" r="2" />
	<circle cx="477.0401434614" cy="-520.1297903647" r="2" />
	<circle cx="6.2855286126" cy="-7.8679148184" r="2" />
	<circle cx="1000.0000000000" cy="-0.0000000000" r="2" />
	<circle cx="500.0000000000" cy="-866.0254038000" r="2" />
	<circle cx="0.0000000000" cy="-0.0000000000" r="2" />
	<circle cx="0.0000000000" cy="-0.0000000000" r="2" />
	<circle cx="929.4828881015" cy="-42.4982863565" r="2" />
	<circle cx="500.0118596771" cy="-441.5271427580" r="2" />
	<circle cx="1000.0000000000" cy="-0.0000000000" r="2" />
	<circle cx="994.7502629487" cy="-3.0591909833" r="2" />
	<circle cx="500.0000000000" cy="-866.0254037618" r="2" />
	<circle cx="499.0889292233" cy="-850.7186247372" r="2" />
	<circle cx="0.0000000000" cy="-0.0000000000" r="2" />
	<circle cx="500.0000000000" cy="-866.0254038000" r="2" />
	<circle cx="500.0000000000" cy="-866.0254038000" r="2" />
	<circle cx="0.0000000000" cy="-0.0000000000" r="2" />
	<circle cx="260.0927115840" cy="-128.1652391672" r="2" />
	<circle cx="491.9039287853" cy="-745.8887573156" r="2" />
	<circle cx="500.0000000000" cy="-866.0254038000" r="2" />
	<circle cx="1000.0000000000" cy="-0.0000000000" r="2" />
	<circle cx="1000.0000000000" cy="-0.0000000000" r="2" />
	<circle cx="500.0000000000" cy="-866.0254038000" r="2" />
	<circle cx="1000.0000000000" cy="-0.0000000000" r="2" />
	<circle cx="12.7929533021" cy="-7.3834460380" r="2" />
	<circle cx="1000.0000000000" cy="-0.0000000000" r="2" />
	<circle cx="24.6639538189" cy="-26.4359162955" r="2" />
	<circle cx="500.0000000000" cy="-866.0254038000" r="2" />
	<circle cx="544.5980912850" cy="-207.1608714889" r="2" />
	<circle cx="498.9411339096" cy="-744.3922688115" r="2" />
	<circle cx="1000.0000000000" cy="-0.0000000000" r="2" />
	<circle cx="500.0000000000" cy="-866.0254038000" r="2" />
	<circle cx="561.7716068347" cy="-252.8698322034" r="2" />
	<circle cx="500.0000000000" cy="-866.0254038000" r="2" />
	<circle cx="1000.0000000000" cy="-0.0000000000" r="2" />
	<circle cx="0.0000000000" cy="-0.0000000000" r="2" />
	<circle cx="999.9905419846" cy="-0.0054267780" r="2" />
	<circle cx="499.9999838346" cy="-866.0253685579" r="2" />
	<circle cx="1000.0000000000" cy="-0.0000000000" r="2" />
	<circle cx="500.0000000000" cy="-866.0254038000" r="2" />
	<circle cx="500.0000000000" cy="-866.0254038000" r="2" />
	<circle cx="1000.0000000000" cy="-0.0000000000" r="2" />
	<circle cx="500.0000000000" cy="-866.0254038000" r="2" />
	<circle cx="0.0000000000" cy="-0.0000000000" r="2" />
	<circle cx="0.0000017472" cy="-0.0000010088" r="2" />
	<circle cx="1000.0000000000" cy="-0.0000000000" r="2" />
	<circle cx="0.0000000000" cy="-0.0000000000" r="2" />
	<circle cx="499.9999999944" cy="-866.0254033739" r="2" />
	<circle cx="500.0000000000" cy="-866.0254038000" r="2" />
	<circle cx="0.0000000000" cy="-0.0000000000" r="2" />
	<circle cx="508.3166135022" cy="-625.7766661808" r="2" />
	<circle cx="102.5321930614" cy="-71.1235559627" r="2" />
	<circle cx="507.4754142823" cy="-604.2249853788" r="2" />
	<circle cx="0.0000000000" cy="-0.0000000000" r="2" />
	<circle cx="0.0000000000" cy="-0.0000000000" r="2" />
	<circle cx="500.0000000000" cy="-866.0254038000" r="2" />
	<circle cx="997.3997736425" cy="-2.0929839647" r="2" />
	<circle cx="500.0000000000" cy="-866.0254038000" r="2" />
	<circle cx="0.7584840018" cy="-0.2866136130" r="2" />
	<circle cx="500.0000532120" cy="-865.2043745814" r="2" />
	<circle cx="880.1363636412" cy="-104.9764458318" r="2" />
	<circle cx="0.0000000000" cy="-0.0000000000" r="2" />
	<circle cx="504.3396780208" cy="-716.2672153503" r="2" />
	<circle cx="0.0001129072" cy="-0.0000652199" r="2" />
	<circle cx="499.9999999813" cy="-866.0253080881" r="2" />
	<circle cx="500.0000000000" cy="-866.0254038000" r="2" />
	<circle cx="158.1274370104" cy="-91.3425230513" r="2" />
	<circle cx="0.4066051269" cy="-0.1379693201" r="2" />
	<circle cx="500.0000000000" cy="-866.0254038000" r="2" />
	<circle cx="497.8894111858" cy="-859.7879332760" r="2" />
	<circle cx="0.0000000179" cy="-0.0000000104" r="2" />
	<circle cx="499.9999999817" cy="-866.0253001650" r="2" />
	<circle cx="0.0000000000" cy="-0.0000000000" r="2" />
	<circle cx="500.0000000000" cy="-866.0254038000" r="2" />
	<circle cx="407.3870808960" cy="-318.9388409575" r="2" />
	<circle cx="1000.0000000000" cy="-0.0000000000" r="2" />
	<circle cx="500.0000000000" cy="-866.0254038000" r="2" />
	<circle cx="0.0182425476" cy="-0.0105292881" r="2" />
	<circle cx="499.9675464642" cy="-865.9398598320" r="2" />
	<circle cx="1000.0000000000" cy="-0.0000000000" r="2" />
	<circle cx="0.0000014848" cy="-0.0000008686" r="2" />
	<circle cx="203.5463591720" cy="-206.0249482932" r="2" />
	<circle cx="999.9217195480" cy="-0.0900499041" r="2" />
	<circle cx="498.3828446309" cy="-555.6495969309" r="2" />
	<circle cx="0.0027872309" cy="-0.0016461028" r="2" />
	<circle cx="499.9999979448" cy="-866.0253274039" r="2" />
	<circle cx="0.0000000000" cy="-0.0000000000" r="2" />
	<circle cx="644.9152874859" cy="-466.1088762927" r="2" />
	<circle cx="0.0000000000" cy="-0.0000000000" r="2" />
	<circle cx="979.5967808301" cy="-10.8818163848" r="2" />
	<circle cx="999.9999999999" cy="-0.0000000001" r="2" />
	<circle cx="0.0000000005" cy="-0.0000000003" r="2" />
	<circle cx="0.0058853206" cy="-0.0032096244" r="2" />
	<circle cx="1000.0000000000" cy="-0.0000000000" r="2" />
	<circle cx="946.4923621720" cy="-62.9690502051" r="2" />
	<circle cx="1000.0000000000" cy="-0.0000000000" r="2" />
	<circle cx="500.0000000000" cy="-866.0254038000" r="2" />
	<circle cx="999.9999998373" cy="-0.0000000940" r="2" />
	<circle cx="501.5019901939" cy="-843.4175234215" r="2" />
	<circle cx="972.5438884728" cy="-35.1881796015" r="2" />
	<circle cx="0.0000000002" cy="-0.0000000001" r="2" />
	<circle cx="0.0000000000" cy="-0.0000000000" r="2" />
	<circle cx="499.9999999751" cy="-866.0252585419" r="2" />
	<circle cx="0.0000047119" cy="-0.0000025374" r="2" />
	<circle cx="1000.0000000000" cy="-0.0000000000" r="2" />
	<circle cx="0.0000000000" cy="-0.0000000000" r="2" />
	<circle cx="500.0000000098" cy="-866.0253664817" r="2" />
	<circle cx="588.7505942327" cy="-239.4304383381" r="2" />
	<circle cx="500.0000000000" cy="-866.0254037999" r="2" />
	<circle cx="0.0000000004" cy="-0.0000000002" r="2" />
	<circle cx="62.7648167287" cy="-27.8323349755" r="2" />
	<circle cx="933.3381538448" cy="-55.9142814398" r="2" />
	<circle cx="1000.0000000000" cy="-0.0000000000" r="2" />
	<circle cx="193.4160663344" cy="-96.5665588609" r="2" />
	<circle cx="0.0005543331" cy="-0.0003200693" r="2" />
	<circle cx="499.8750597059" cy="-865.6943559122" r="2" />
	<circle cx="500.0000000000" cy="-866.0254038000" r="2" />
	<circle cx="500.0000000000" cy="-866.0254038000" r="2" />
	<circle cx="1000.0000000000" cy="-0.0000000000" r="2" />
	<circle cx="3.9585947338" cy="-2.3243257872" r="2" />
	<circle cx="500.0000000000" cy="-866.0254038000" r="2" />
	<circle cx="500.0000000000" cy="-866.0254038000" r="2" />
	<circle cx="1000.0000000000" cy="-0.0000000000" r="2" />
	<circle cx="500.0000000000" cy="-866.0254038000" r="2" />
	<circle cx="500.0000000000" cy="-866.0254038000" r="2" />
	<circle cx="500.0000043380" cy="-866.0253864630" r="2" />
	<circle cx="500.0000000000" cy="-866.0254038000" r="2" />
	<circle cx="1000.0000000000" cy="-0.0000000000" r="2" />
	<circle cx="0.0000000000" cy="-0.0000000000" r="2" />
	<circle cx="0.0000000003" cy="-0.0000000002" r="2" />
	<circle cx="0.0020921669" cy="-0.0012083099" r="2" />
	<circle cx="873.7304032132" cy="-50.2767329829" r="2" />
	<circle cx="1000.0000000000" cy="-0.0000000000" r="2" />
	<circle cx="500.1068390994" cy="-864.3714663159" r="2" />
	<circle cx="1000.0000000000" cy="-0.0000000000" r="2" />
	<circle cx="500.0000000000" cy="-866.0254038000" r="2" />
	<circle cx="561.8934892275" cy="-253.0837808144" r="2" />
	<circle cx="918.8331983346" cy="-42.6407657264" r="2" />
	<circle cx="0.0000010075" cy="-0.0000005815" r="2" />
	<circle cx="374.9822357746" cy="-216.5007605022" r="2" />
	<circle cx="949.1721339859" cy="-21.7453575885" r="2" />
	<circle cx="1000.0000000000" cy="-0.0000000000" r="2" />
	<circle cx="500.3672233932" cy="-861.0786453497" r="2" />
	<circle cx="483.4648465028" cy="-370.4832110798" r="2" />
	<circle cx="546.5177863376" cy="-369.3955699060" r="2" />
	<circle cx="546.5177863376" cy="-369.3955699060" r="2" />
	<circle cx="0.0000000000" cy="-0.0000000000" r="2" />
	<circle cx="986.2751765665" cy="-14.8643644626" r="2" />
	<circle cx="0.0000000192" cy="-0.0000000111" r="2" />
	<circle cx="0.0000000000" cy="-0.0000000000" r="2" />
	<circle cx="0.0020923136" cy="-0.0012083694" r="2" />
  </g>
  <g id="fig2" transform="translate(-550.0,1000)">
	<polygon points="0.0,-0.0 1000.0,-0.0 500.0,-866.0254038" />
	<line
	   id="line2-1"
	   y2="-0.0"
	   x2="500"
	   y1="-288.6751346"
	   x1="500" />
	<line
	   id="line2-2"
	   y2="-433.0127019"
	   x2="250"
	   y1="-288.6751346"
	   x1="500" />
	<line
	   id="line2-3"
	   y2="-433.0127019"
	   x2="750"
	   y1="-288.6751346"
	   x1="500" />
	<text
	   x="440"
	   y="-500"
	   id="up_2">33.6%</text>
	<text
	   x="250"
	   y="-150"
	   id="down_left_2">35.2%</text>
	<text
	   x="630"
	   y="-150"
	   id="down_right_2">31.2%</text>
  </g>
  <g id="fig3" transform="translate(550,1000)">
	<polygon points="0.0,-0.0 1000.0,-0.0 500.0,-866.0254038" />
	<polygon id="triangle3b" points="250,-144.3375673 750,-144.3375673 500,-577.3502692" />
	<line
	   id="line3-1"
	   x1="125"
	   y1="-216.5063509"
	   x2="250"
	   y2="-144.3375673" />
	<line
	   id="line3-2"
	   x1="375"
	   y1="-649.5190528"
	   x2="500"
	   y2="-577.3502692" />
	<line
	   id="line3-3"
	   x1="625"
	   y1="-649.5190528"
	   x2="500"
	   y2="-577.3502692" />
	<line
	   id="line3-4"
	   x1="875"
	   y1="-216.5063509"
	   x2="750"
	   y2="-144.3375673" />
	<line
	   id="line3-5"
	   x1="750"
	   y1="-0.0"
	   x2="750"
	   y2="-144.3375673" />
	<line
	   id="line3-6"
	   x1="250"
	   y1="-0.0"
	   x2="250"
	   y2="-144.3375673" />
	<text
	   x="500"
	   y="-660"
	   text-anchor="middle"
	   id="up_3">29.8%</text>
	<text
	   y="-50"
	   x="70"
	   id="down_left_3">31.2%</text>
	<text
	   y="-50"
	   x="770"
	   id="down_right_3">27.8%</text>
	<text
	   x="500"
	   y="-50"
	   text-anchor="middle"
	   id="down_side_3">1.0%</text>
	<text
	   x="500"
	   y="-280"
	   text-anchor="middle"
	   id="center_3">7.8%</text>
	<text
	   x="685.0"
	   y="-390.8439"
	   text-anchor="middle"
	   transform="rotate(60,665.0,-380.8439)"
	   id="right_side_3">1.4%</text>
	<text
	   x="315.0"
	   y="-390.8439"
	   text-anchor="middle"
	   transform="rotate(-60,335.0,-380.8439)"
	   id="left_side_3">1.0%</text>
  </g>
</g></g>
</svg>
