<?xml version="1.0" encoding="UTF-8" standalone="no"?>
<!DOCTYPE svg PUBLIC "-//W3C//DTD SVG 1.1//EN" "http://www.w3.org/Graphics/SVG/1.1/DTD/svg11.dtd">
<svg
   xmlns:svg="http://www.w3.org/2000/svg"
   xmlns="http://www.w3.org/2000/svg"
   xmlns:xlink="http://www.w3.org/1999/xlink"
   version="1.1"
   baseProfile="full"
   id="body"
   width="800px"
   height="800px"
   viewBox="0 0 1000 1000"
   preserveAspectRatio="none">
  <defs>
    <style type="text/css"><![CDATA[
      circle{ stroke: none; }
      polygon{ stroke: black; stroke-width: 2px; fill: none; }
      line{ stroke: black; stroke-width: 2px; }
      text{ font-size:50px; }
    ]]></style>
  </defs>
  <title
     id="title1">SVG drawing</title>
<g transform="scale(0.45)"><g transform="translate(600,1050)">
  <g id="fig1">
	<polygon points="0.0,-0.0 1000.0,-0.0 500,-866.0254038" />
	<circle cx="0.0000000057" cy="-0.0000000033" r="2" />
	<circle cx="500.0000000000" cy="-866.0254037989" r="2" />
	<circle cx="120.7724057006" cy="-69.7270872122" r="2" />
	<circle cx="620.6838187468" cy="-192.3477443614" r="2" />
	<circle cx="992.9411602607" cy="-4.0754435693" r="2" />
	<circle cx="500.0000000000" cy="-866.0254038000" r="2" />
	<circle cx="500.0000000000" cy="-866.0254038000" r="2" />
	<circle cx="515.5804125807" cy="-272.7372539593" r="2" />
	<circle cx="958.4499404002" cy="-31.3277197720" r="2" />
	<circle cx="0.0000000000" cy="-0.0000000000" r="2" />
	<circle cx="0.0096300827" cy="-0.0062854175" r="2" />
	<circle cx="501.9485719338" cy="-790.3312866295" r="2" />
	<circle cx="406.3278315752" cy="-228.8402633784" r="2" />
	<circle cx="999.9356618670" cy="-0.0371330434" r="2" />
	<circle cx="500.0000000000" cy="-866.0254037998" r="2" />
	<circle cx="882.5196641766" cy="-66.7640054982" r="2" />
	<circle cx="999.3617588563" cy="-0.3609670389" r="2" />
	<circle cx="992.1027345376" cy="-4.5595206813" r="2" />
	<circle cx="500.0000000000" cy="-866.0254038000" r="2" />
	<circle cx="0.0023634416" cy="-0.0014466357" r="2" />
	<circle cx="514.7148344484" cy="-280.1382479355" r="2" />
	<circle cx="499.9943092240" cy="-438.1396030845" r="2" />
	<circle cx="1000.0000000000" cy="-0.0000000000" r="2" />
	<circle cx="499.9999999997" cy="-866.0254018069" r="2" />
	<circle cx="999.9962417347" cy="-0.0021693021" r="2" />
	<circle cx="0.0000000000" cy="-0.0000000000" r="2" />
	<circle cx="1000.0000000000" cy="-0.0000000000" r="2" />
	<circle cx="500.0000000000" cy="-866.0254038000" r="2" />
	<circle cx="675.0312128588" cy="-187.6224294725" r="2" />
	<circle cx="500.0000000000" cy="-866.0254038000" r="2" />
	<circle cx="499.5061134055" cy="-288.4576359422" r="2" />
	<circle cx="512.6904873205" cy="-719.0987998954" r="2" />
	<circle cx="1000.0000000000" cy="-0.0000000000" r="2" />
	<circle cx="499.9999999056" cy="-866.0243713743" r="2" />
	<circle cx="0.0000000000" cy="-0.0000000000" r="2" />
	<circle cx="500.0000041359" cy="-865.8289031427" r="2" />
	<circle cx="0.0000000000" cy="-0.0000000000" r="2" />
	<circle cx="326.4030359487" cy="-150.6441557110" r="2" />
	<circle cx="999.9999980919" cy="-0.0000011002" r="2" />
	<circle cx="0.0000000000" cy="-0.0000000000" r="2" />
	<circle cx="500.0000000000" cy="-866.0254038000" r="2" />
	<circle cx="1000.0000000000" cy="-0.0000000000" r="2" />
	<circle cx="0.0000000000" cy="-0.0000000000" r="2" />
	<circle cx="1000.0000000000" cy="-0.0000000000" r="2" />
	<circle cx="0.0000000000" cy="-0.0000000000" r="2" />
	<circle cx="1000.0000000000" cy="-0.0000000000" r="2" />
	<circle cx="499.9999999999" cy="-866.0254024162" r="2" />
	<circle cx="1000.0000000000" cy="-0.0000000000" r="2" />
	<circle cx="500.0000000000" cy="-866.0254038000" r="2" />
	<circle cx="1000.0000000000" cy="-0.0000000000" r="2" />
	<circle cx="0.0000000000" cy="-0.0000000000" r="2" />
	<circle cx="0.0218473281" cy="-0.0126174555" r="2" />
	<circle cx="499.9997140776" cy="-866.0134163406" r="2" />
	<circle cx="0.0000000001" cy="-0.0000000001" r="2" />
	<circle cx="500.0000006986" cy="-866.0145746531" r="2" />
	<circle cx="0.0000000127" cy="-0.0000000073" r="2" />
	<circle cx="0.0000009381" cy="-0.0000005752" r="2" />
	<circle cx="1000.0000000000" cy="-0.0000000000" r="2" />
	<circle cx="500.0000000000" cy="-866.0254038000" r="2" />
	<circle cx="999.9999999998" cy="-0.0000000001" r="2" />
	<circle cx="1000.0000000000" cy="-0.0000000000" r="2" />
	<circle cx="0.0000000000" cy="-0.0000000000" r="2" />
	<circle cx="500.0000000000" cy="-866.0254038000" r="2" />
	<circle cx="999.9999999993" cy="-0.0000000004" r="2" />
	<circle cx="1000.0000000000" cy="-0.0000000000" r="2" />
	<circle cx="499.9999971840" cy="-866.0253881045" r="2" />
	<circle cx="0.0000000783" cy="-0.0000000452" r="2" />
	<circle cx="500.0000000000" cy="-866.0254038000" r="2" />
	<circle cx="0.0000000000" cy="-0.0000000000" r="2" />
	<circle cx="500.0000000000" cy="-866.0254038000" r="2" />
	<circle cx="500.0000000000" cy="-866.0254038000" r="2" />
	<circle cx="499.9720849418" cy="-422.5510742529" r="2" />
	<circle cx="0.0000094181" cy="-0.0000054378" r="2" />
	<circle cx="0.0000000000" cy="-0.0000000000" r="2" />
	<circle cx="0.0000004127" cy="-0.0000002383" r="2" />
	<circle cx="562.4550027981" cy="-351.1893809317" r="2" />
	<circle cx="500.0000000000" cy="-866.0254038000" r="2" />
	<circle cx="1000.0000000000" cy="-0.0000000000" r="2" />
	<circle cx="1000.0000000000" cy="-0.0000000000" r="2" />
	<circle cx="500.0000000000" cy="-866.0254038000" r="2" />
	<circle cx="0.0000000000" cy="-0.0000000000" r="2" />
	<circle cx="1000.0000000000" cy="-0.0000000000" r="2" />
	<circle cx="14.8788408971" cy="-11.8208577556" r="2" />
	<circle cx="999.9999915917" cy="-0.0000048518" r="2" />
	<circle cx="1000.0000000000" cy="-0.0000000000" r="2" />
	<circle cx="500.0000000000" cy="-866.0254038000" r="2" />
	<circle cx="500.0000000000" cy="-866.0254038000" r="2" />
	<circle cx="500.0000000000" cy="-866.0254038000" r="2" />
	<circle cx="500.0000007980" cy="-866.0227192220" r="2" />
	<circle cx="500.0000000000" cy="-866.0254038000" r="2" />
	<circle cx="500.0000000000" cy="-866.0254038000" r="2" />
	<circle cx="0.0000000000" cy="-0.0000000000" r="2" />
	<circle cx="500.0000000000" cy="-866.0254038000" r="2" />
	<circle cx="999.9462393097" cy="-0.0310212000" r="2" />
	<circle cx="500.0000000000" cy="-866.0254037990" r="2" />
	<circle cx="1000.0000000000" cy="-0.0000000000" r="2" />
	<circle cx="0.0000000000" cy="-0.0000000000" r="2" />
	<circle cx="500.0000000000" cy="-866.0254038000" r="2" />
	<circle cx="1000.0000000000" cy="-0.0000000000" r="2" />
	<circle cx="160.1209832230" cy="-93.0097275353" r="2" />
	<circle cx="500.0000000000" cy="-866.0254038000" r="2" />
	<circle cx="500.0000000000" cy="-866.0254038000" r="2" />
	<circle cx="0.0000000000" cy="-0.0000000000" r="2" />
	<circle cx="499.9999995561" cy="-866.0224766518" r="2" />
	<circle cx="500.0000000000" cy="-866.0254038000" r="2" />
	<circle cx="500.0000000000" cy="-866.0254037990" r="2" />
	<circle cx="1000.0000000000" cy="-0.0000000000" r="2" />
	<circle cx="999.9906240173" cy="-0.0054128301" r="2" />
	<circle cx="0.0000000000" cy="-0.0000000000" r="2" />
	<circle cx="500.0000000000" cy="-866.0254037634" r="2" />
	<circle cx="1000.0000000000" cy="-0.0000000000" r="2" />
	<circle cx="506.3067204608" cy="-317.7809280800" r="2" />
	<circle cx="0.0000000000" cy="-0.0000000000" r="2" />
	<circle cx="0.0000000000" cy="-0.0000000000" r="2" />
	<circle cx="500.0000000000" cy="-866.0254038000" r="2" />
	<circle cx="526.9921388155" cy="-271.0847378783" r="2" />
	<circle cx="500.0000000000" cy="-866.0254038000" r="2" />
	<circle cx="0.0000000000" cy="-0.0000000000" r="2" />
	<circle cx="0.0000000004" cy="-0.0000000002" r="2" />
	<circle cx="500.0000000000" cy="-866.0254037959" r="2" />
	<circle cx="1000.0000000000" cy="-0.0000000000" r="2" />
	<circle cx="999.9999999866" cy="-0.0000000077" r="2" />
	<circle cx="499.9976338177" cy="-865.9670999041" r="2" />
	<circle cx="500.4783078972" cy="-330.6737958685" r="2" />
	<circle cx="500.0000000000" cy="-866.0254031468" r="2" />
	<circle cx="500.0000000000" cy="-866.0254038000" r="2" />
	<circle cx="499.9851528439" cy="-392.8254893757" r="2" />
	<circle cx="500.0000000000" cy="-866.0254037510" r="2" />
	<circle cx="500.0000000000" cy="-866.0254038000" r="2" />
	<circle cx="500.0000000000" cy="-866.0254038000" r="2" />
	<circle cx="500.0000000000" cy="-866.0254037309" r="2" />
	<circle cx="500.0000000000" cy="-866.0254038000" r="2" />
	<circle cx="1000.0000000000" cy="-0.0000000000" r="2" />
	<circle cx="0.0000000000" cy="-0.0000000000" r="2" />
	<circle cx="0.0000000000" cy="-0.0000000000" r="2" />
	<circle cx="1000.0000000000" cy="-0.0000000000" r="2" />
	<circle cx="1000.0000000000" cy="-0.0000000000" r="2" />
	<circle cx="500.0000048709" cy="-866.0001777393" r="2" />
	<circle cx="0.0000000000" cy="-0.0000000000" r="2" />
	<circle cx="500.0000000000" cy="-866.0254038000" r="2" />
	<circle cx="500.0000000000" cy="-866.0254038000" r="2" />
	<circle cx="0.0000000000" cy="-0.0000000000" r="2" />
	<circle cx="491.7468470047" cy="-283.9231246907" r="2" />
	<circle cx="1000.0000000000" cy="-0.0000000000" r="2" />
	<circle cx="0.0000000000" cy="-0.0000000000" r="2" />
	<circle cx="166.9311850164" cy="-96.8448504999" r="2" />
	<circle cx="0.0000000000" cy="-0.0000000000" r="2" />
	<circle cx="500.0000000000" cy="-866.0254038000" r="2" />
	<circle cx="519.7771150556" cy="-256.4055705212" r="2" />
	<circle cx="1000.0000000000" cy="-0.0000000000" r="2" />
	<circle cx="0.0000001973" cy="-0.0000001138" r="2" />
	<circle cx="999.9998554269" cy="-0.0000834424" r="2" />
	<circle cx="500.0000000000" cy="-866.0254038000" r="2" />
	<circle cx="500.0000000000" cy="-866.0254037944" r="2" />
	<circle cx="500.0000000000" cy="-866.0254038000" r="2" />
	<circle cx="999.9999561058" cy="-0.0000253392" r="2" />
	<circle cx="1000.0000000000" cy="-0.0000000000" r="2" />
	<circle cx="499.9999506153" cy="-865.9930310433" r="2" />
	<circle cx="500.0000000000" cy="-866.0254038000" r="2" />
	<circle cx="500.0000000000" cy="-866.0254038000" r="2" />
	<circle cx="0.0000000029" cy="-0.0000000016" r="2" />
	<circle cx="499.9999996672" cy="-866.0176501480" r="2" />
	<circle cx="903.2043460318" cy="-56.2177036011" r="2" />
	<circle cx="1000.0000000000" cy="-0.0000000000" r="2" />
	<circle cx="0.7176044020" cy="-0.4143071544" r="2" />
	<circle cx="1000.0000000000" cy="-0.0000000000" r="2" />
	<circle cx="0.0000000000" cy="-0.0000000000" r="2" />
	<circle cx="1000.0000000000" cy="-0.0000000000" r="2" />
	<circle cx="499.9853765449" cy="-696.8356882489" r="2" />
	<circle cx="474.7729239420" cy="-280.4120305870" r="2" />
	<circle cx="1000.0000000000" cy="-0.0000000000" r="2" />
	<circle cx="499.9999999522" cy="-866.0244998420" r="2" />
	<circle cx="999.9999966418" cy="-0.0000019372" r="2" />
	<circle cx="999.9999999998" cy="-0.0000000001" r="2" />
	<circle cx="0.0000000000" cy="-0.0000000000" r="2" />
	<circle cx="0.0000000000" cy="-0.0000000000" r="2" />
	<circle cx="500.0000000000" cy="-866.0254035359" r="2" />
	<circle cx="499.4433233018" cy="-484.7894710145" r="2" />
	<circle cx="75.9430978270" cy="-43.8449191035" r="2" />
	<circle cx="0.0000000000" cy="-0.0000000000" r="2" />
	<circle cx="500.3647167055" cy="-296.8393144223" r="2" />
	<circle cx="0.0014324908" cy="-0.0008270472" r="2" />
	<circle cx="0.0000000000" cy="-0.0000000000" r="2" />
	<circle cx="499.9999999969" cy="-866.0254023751" r="2" />
	<circle cx="500.0000000000" cy="-866.0254038000" r="2" />
	<circle cx="0.0000000000" cy="-0.0000000000" r="2" />
	<circle cx="1000.0000000000" cy="-0.0000000000" r="2" />
	<circle cx="0.0000000000" cy="-0.0000000000" r="2" />
	<circle cx="0.0000000000" cy="-0.0000000000" r="2" />
	<circle cx="0.0000000000" cy="-0.0000000000" r="2" />
	<circle cx="0.0000000000" cy="-0.0000000000" r="2" />
	<circle cx="0.0000000000" cy="-0.0000000000" r="2" />
	<circle cx="1000.0000000000" cy="-0.0000000000" r="2" />
	<circle cx="168.2355852236" cy="-114.1985269521" r="2" />
	<circle cx="0.0271059334" cy="-0.0259453329" r="2" />
	<circle cx="999.5001611327" cy="-0.1474948230" r="2" />
	<circle cx="1000.0000000000" cy="-0.0000000000" r="2" />
	<circle cx="999.9999992098" cy="-0.0000004561" r="2" />
	<circle cx="999.9979281680" cy="-0.0011918628" r="2" />
	<circle cx="0.0000000000" cy="-0.0000000000" r="2" />
	<circle cx="1000.0000000000" cy="-0.0000000000" r="2" />
	<circle cx="500.0000000000" cy="-866.0254038000" r="2" />
	<circle cx="0.0000000000" cy="-0.0000000000" r="2" />
	<circle cx="498.7577743252" cy="-838.3321410435" r="2" />
	<circle cx="500.0000000000" cy="-866.0254038000" r="2" />
	<circle cx="1000.0000000000" cy="-0.0000000000" r="2" />
	<circle cx="999.9999999994" cy="-0.0000000004" r="2" />
	<circle cx="500.0000000000" cy="-866.0254036661" r="2" />
	<circle cx="0.0000000000" cy="-0.0000000000" r="2" />
	<circle cx="999.9999999990" cy="-0.0000000006" r="2" />
	<circle cx="0.0000000000" cy="-0.0000000000" r="2" />
	<circle cx="0.0000001067" cy="-0.0000000616" r="2" />
	<circle cx="0.0000000003" cy="-0.0000000002" r="2" />
	<circle cx="1000.0000000000" cy="-0.0000000000" r="2" />
	<circle cx="406.9189536075" cy="-309.7962676788" r="2" />
	<circle cx="500.0000000000" cy="-866.0254038000" r="2" />
	<circle cx="1000.0000000000" cy="-0.0000000000" r="2" />
	<circle cx="500.0000000000" cy="-866.0254037991" r="2" />
	<circle cx="500.0000000000" cy="-866.0254037948" r="2" />
	<circle cx="54.9578553234" cy="-29.7050063817" r="2" />
	<circle cx="1000.0000000000" cy="-0.0000000000" r="2" />
	<circle cx="0.0000000000" cy="-0.0000000000" r="2" />
	<circle cx="1000.0000000000" cy="-0.0000000000" r="2" />
	<circle cx="992.3341138343" cy="-3.2898997736" r="2" />
	<circle cx="1000.0000000000" cy="-0.0000000000" r="2" />
	<circle cx="0.2325947389" cy="-0.0837718745" r="2" />
	<circle cx="499.9893951195" cy="-662.8590763396" r="2" />
	<circle cx="500.0000000000" cy="-866.0254038000" r="2" />
	<circle cx="999.9993361090" cy="-0.0006613368" r="2" />
	<circle cx="500.0000000000" cy="-866.0254038000" r="2" />
	<circle cx="0.0000000000" cy="-0.0000000000" r="2" />
	<circle cx="0.0000000000" cy="-0.0000000000" r="2" />
	<circle cx="500.0008426959" cy="-865.8900453690" r="2" />
	<circle cx="999.9999999998" cy="-0.0000000001" r="2" />
	<circle cx="1000.0000000000" cy="-0.0000000000" r="2" />
	<circle cx="500.0000249475" cy="-865.3499810418" r="2" />
	<circle cx="0.0000000000" cy="-0.0000000000" r="2" />
	<circle cx="999.9992195153" cy="-0.0004505535" r="2" />
	<circle cx="999.9999999979" cy="-0.0000000012" r="2" />
	<circle cx="0.0000000001" cy="-0.0000000001" r="2" />
	<circle cx="499.9999994120" cy="-865.9849290239" r="2" />
	<circle cx="966.2915051587" cy="-19.4598377783" r="2" />
	<circle cx="999.9999999943" cy="-0.0000000033" r="2" />
	<circle cx="1000.0000000000" cy="-0.0000000000" r="2" />
	<circle cx="0.0000000010" cy="-0.0000000005" r="2" />
	<circle cx="999.9999999990" cy="-0.0000000005" r="2" />
	<circle cx="0.0000000000" cy="-0.0000000000" r="2" />
	<circle cx="500.0000000000" cy="-866.0254038000" r="2" />
	<circle cx="999.9999999999" cy="-0.0000000001" r="2" />
	<circle cx="500.0000000000" cy="-866.0254038000" r="2" />
	<circle cx="0.0000030560" cy="-0.0000017645" r="2" />
	<circle cx="560.5561590887" cy="-251.9726974249" r="2" />
	<circle cx="500.0000000000" cy="-866.0254037985" r="2" />
	<circle cx="999.9999999970" cy="-0.0000000017" r="2" />
	<circle cx="500.0000000000" cy="-866.0254038000" r="2" />
	<circle cx="449.9850339488" cy="-259.7950665092" r="2" />
	<circle cx="0.0000000002" cy="-0.0000000001" r="2" />
	<circle cx="500.0000000000" cy="-866.0254038000" r="2" />
	<circle cx="265.2924572592" cy="-153.1669788706" r="2" />
	<circle cx="330.0889091398" cy="-177.0641207670" r="2" />
	<circle cx="0.0000000000" cy="-0.0000000000" r="2" />
	<circle cx="500.0000000000" cy="-866.0254037870" r="2" />
	<circle cx="0.0000000003" cy="-0.0000000002" r="2" />
	<circle cx="61.8123115724" cy="-22.4905368689" r="2" />
	<circle cx="0.0000000000" cy="-0.0000000000" r="2" />
	<circle cx="498.1419706453" cy="-775.0262013151" r="2" />
	<circle cx="999.9999999448" cy="-0.0000000319" r="2" />
	<circle cx="93.5506982946" cy="-54.0131228757" r="2" />
	<circle cx="0.0000000000" cy="-0.0000000000" r="2" />
	<circle cx="500.0000000000" cy="-866.0254038000" r="2" />
	<circle cx="499.0222428916" cy="-288.0992176277" r="2" />
	<circle cx="0.0000000000" cy="-0.0000000000" r="2" />
	<circle cx="2.1672833393" cy="-1.2509283476" r="2" />
	<circle cx="999.9649808589" cy="-0.0202127878" r="2" />
	<circle cx="999.9688142789" cy="-0.0180005315" r="2" />
	<circle cx="552.2250146435" cy="-258.5275933923" r="2" />
	<circle cx="0.0000000000" cy="-0.0000000000" r="2" />
	<circle cx="500.0000000000" cy="-866.0254037998" r="2" />
	<circle cx="1000.0000000000" cy="-0.0000000000" r="2" />
	<circle cx="499.9996593372" cy="-845.4192469851" r="2" />
	<circle cx="1000.0000000000" cy="-0.0000000000" r="2" />
	<circle cx="1000.0000000000" cy="-0.0000000000" r="2" />
	<circle cx="500.0048563770" cy="-839.8432137017" r="2" />
	<circle cx="500.0000000000" cy="-866.0254038000" r="2" />
	<circle cx="777.7080607196" cy="-109.5192855533" r="2" />
	<circle cx="0.0000021933" cy="-0.0000012657" r="2" />
	<circle cx="446.7645953620" cy="-339.6479930218" r="2" />
	<circle cx="500.0000000000" cy="-866.0254038000" r="2" />
	<circle cx="0.0000000000" cy="-0.0000000000" r="2" />
	<circle cx="999.9898972238" cy="-0.0058311763" r="2" />
	<circle cx="0.0000000000" cy="-0.0000000000" r="2" />
	<circle cx="999.9999999984" cy="-0.0000000009" r="2" />
	<circle cx="0.0000000000" cy="-0.0000000000" r="2" />
	<circle cx="500.0000000000" cy="-866.0254038000" r="2" />
	<circle cx="467.3010277933" cy="-508.8417810004" r="2" />
	<circle cx="999.9875459845" cy="-0.0071903795" r="2" />
	<circle cx="0.0000000001" cy="-0.0000000001" r="2" />
	<circle cx="406.9833151825" cy="-234.9870824869" r="2" />
	<circle cx="500.0000000000" cy="-866.0254038000" r="2" />
	<circle cx="0.0000188858" cy="-0.0000108965" r="2" />
	<circle cx="0.0000004013" cy="-0.0000002318" r="2" />
	<circle cx="1000.0000000000" cy="-0.0000000000" r="2" />
	<circle cx="635.9997161785" cy="-210.1787570852" r="2" />
	<circle cx="0.0000000000" cy="-0.0000000000" r="2" />
	<circle cx="499.9999998151" cy="-866.0170803560" r="2" />
	<circle cx="0.0000141512" cy="-0.0000081684" r="2" />
	<circle cx="499.9999981927" cy="-866.0104869718" r="2" />
	<circle cx="1000.0000000000" cy="-0.0000000000" r="2" />
	<circle cx="999.9999988333" cy="-0.0000006739" r="2" />
	<circle cx="500.4333927921" cy="-594.1003569150" r="2" />
	<circle cx="500.0000000000" cy="-866.0254038000" r="2" />
	<circle cx="999.9999952369" cy="-0.0000026227" r="2" />
	<circle cx="0.0000000000" cy="-0.0000000000" r="2" />
	<circle cx="1000.0000000000" cy="-0.0000000000" r="2" />
	<circle cx="297.5389558523" cy="-160.9070560633" r="2" />
	<circle cx="0.0000000000" cy="-0.0000000000" r="2" />
	<circle cx="0.0000000000" cy="-0.0000000000" r="2" />
	<circle cx="0.0395826723" cy="-0.0228565595" r="2" />
	<circle cx="499.9422743469" cy="-350.4886473563" r="2" />
	<circle cx="994.7995773687" cy="-3.7180005524" r="2" />
	<circle cx="499.9999761718" cy="-865.7640939302" r="2" />
	<circle cx="15.1668588960" cy="-8.7550805128" r="2" />
	<circle cx="1000.0000000000" cy="-0.0000000000" r="2" />
	<circle cx="619.4096195554" cy="-143.2207040991" r="2" />
	<circle cx="0.0000000332" cy="-0.0000000192" r="2" />
	<circle cx="499.9999942663" cy="-866.0086158424" r="2" />
	<circle cx="1000.0000000000" cy="-0.0000000000" r="2" />
	<circle cx="500.0000000000" cy="-866.0254038000" r="2" />
	<circle cx="500.0000000001" cy="-866.0254035896" r="2" />
	<circle cx="511.2650296414" cy="-484.8034054136" r="2" />
	<circle cx="0.0000000029" cy="-0.0000000017" r="2" />
	<circle cx="1000.0000000000" cy="-0.0000000000" r="2" />
	<circle cx="926.0599358427" cy="-44.5709843649" r="2" />
	<circle cx="500.0000000000" cy="-866.0254038000" r="2" />
	<circle cx="499.9999998089" cy="-866.0250691193" r="2" />
	<circle cx="500.0000000000" cy="-866.0254037999" r="2" />
	<circle cx="1000.0000000000" cy="-0.0000000000" r="2" />
	<circle cx="0.0000083955" cy="-0.0000048482" r="2" />
	<circle cx="999.9999999998" cy="-0.0000000001" r="2" />
	<circle cx="479.6045450002" cy="-352.2301423401" r="2" />
	<circle cx="0.0136593174" cy="-0.0078884146" r="2" />
	<circle cx="1000.0000000000" cy="-0.0000000000" r="2" />
	<circle cx="0.0003505471" cy="-0.0002024010" r="2" />
	<circle cx="0.0000000000" cy="-0.0000000000" r="2" />
	<circle cx="500.0000000000" cy="-866.0254038000" r="2" />
	<circle cx="999.9999999950" cy="-0.0000000029" r="2" />
	<circle cx="526.1489657529" cy="-273.5646079027" r="2" />
	<circle cx="1000.0000000000" cy="-0.0000000000" r="2" />
	<circle cx="0.0000000000" cy="-0.0000000000" r="2" />
	<circle cx="499.9999733800" cy="-865.8858700886" r="2" />
	<circle cx="500.0000000000" cy="-866.0254038000" r="2" />
	<circle cx="999.9874930212" cy="-0.0072125953" r="2" />
	<circle cx="0.0000000000" cy="-0.0000000000" r="2" />
	<circle cx="0.0000000000" cy="-0.0000000000" r="2" />
	<circle cx="500.0000000000" cy="-866.0254038000" r="2" />
	<circle cx="499.9991290547" cy="-863.6530786161" r="2" />
	<circle cx="0.0000000000" cy="-0.0000000000" r="2" />
	<circle cx="999.9999974231" cy="-0.0000014861" r="2" />
	<circle cx="499.9186388345" cy="-823.7539254697" r="2" />
	<circle cx="0.0000000000" cy="-0.0000000000" r="2" />
	<circle cx="500.0000000000" cy="-866.0254038000" r="2" />
	<circle cx="1000.0000000000" cy="-0.0000000000" r="2" />
	<circle cx="500.0000000000" cy="-866.0254038000" r="2" />
	<circle cx="500.0000000000" cy="-866.0254038000" r="2" />
	<circle cx="500.0000000001" cy="-866.0253629493" r="2" />
	<circle cx="1000.0000000000" cy="-0.0000000000" r="2" />
	<circle cx="0.0119139167" cy="-0.0068773801" r="2" />
	<circle cx="500.0000000000" cy="-866.0254038000" r="2" />
	<circle cx="499.9856124655" cy="-594.6218356770" r="2" />
	<circle cx="0.0086225838" cy="-0.0049773316" r="2" />
	<circle cx="500.0000000000" cy="-866.0254038000" r="2" />
	<circle cx="0.0137228882" cy="-0.0079236473" r="2" />
	<circle cx="3.3035877747" cy="-1.9073936466" r="2" />
	<circle cx="500.0000000000" cy="-866.0254038000" r="2" />
	<circle cx="500.0000000000" cy="-866.0254037927" r="2" />
	<circle cx="500.0000000000" cy="-866.0254038000" r="2" />
	<circle cx="0.0000000000" cy="-0.0000000000" r="2" />
	<circle cx="0.0000000000" cy="-0.0000000000" r="2" />
	<circle cx="2.1818969449" cy="-1.2510505626" r="2" />
	<circle cx="999.9999999992" cy="-0.0000000005" r="2" />
	<circle cx="636.6665439185" cy="-209.7670891880" r="2" />
	<circle cx="872.8812281933" cy="-73.3852167664" r="2" />
	<circle cx="514.7833896398" cy="-280.0989319402" r="2" />
	<circle cx="1000.0000000000" cy="-0.0000000000" r="2" />
	<circle cx="999.9999999956" cy="-0.0000000025" r="2" />
	<circle cx="500.0000000000" cy="-866.0254037990" r="2" />
	<circle cx="500.0000000000" cy="-866.0254038000" r="2" />
	<circle cx="999.9924176322" cy="-0.0043728340" r="2" />
	<circle cx="999.9999990843" cy="-0.0000005285" r="2" />
	<circle cx="499.9865270194" cy="-495.5479543881" r="2" />
	<circle cx="30.4441413597" cy="-17.5754791085" r="2" />
	<circle cx="500.0000000000" cy="-866.0254038000" r="2" />
	<circle cx="999.9999999762" cy="-0.0000000133" r="2" />
	<circle cx="500.0000000000" cy="-866.0254038000" r="2" />
	<circle cx="1000.0000000000" cy="-0.0000000000" r="2" />
	<circle cx="999.9906217251" cy="-0.0054135274" r="2" />
	<circle cx="496.2826553155" cy="-800.3803847002" r="2" />
	<circle cx="500.0000000000" cy="-866.0254038000" r="2" />
	<circle cx="0.0000000000" cy="-0.0000000000" r="2" />
	<circle cx="500.0000000000" cy="-866.0254038000" r="2" />
	<circle cx="500.0000000000" cy="-866.0254038000" r="2" />
	<circle cx="0.0000000000" cy="-0.0000000000" r="2" />
	<circle cx="508.9886533876" cy="-316.6777615462" r="2" />
	<circle cx="921.8360781625" cy="-45.1329317894" r="2" />
	<circle cx="0.0000000000" cy="-0.0000000000" r="2" />
	<circle cx="0.0000000000" cy="-0.0000000000" r="2" />
	<circle cx="500.0000000000" cy="-866.0254037569" r="2" />
	<circle cx="0.0000000000" cy="-0.0000000000" r="2" />
	<circle cx="999.9999992709" cy="-0.0000004211" r="2" />
	<circle cx="203.6285561513" cy="-117.5691055531" r="2" />
	<circle cx="500.0000000000" cy="-866.0254038000" r="2" />
	<circle cx="500.0000000000" cy="-866.0254038000" r="2" />
	<circle cx="499.9622392434" cy="-288.6709399349" r="2" />
	<circle cx="999.9721795380" cy="-0.0161010912" r="2" />
	<circle cx="0.0000000002" cy="-0.0000000001" r="2" />
	<circle cx="500.0000000000" cy="-866.0254038000" r="2" />
	<circle cx="139.6088159609" cy="-80.5963895296" r="2" />
	<circle cx="500.0000000000" cy="-866.0254038000" r="2" />
	<circle cx="999.9999999998" cy="-0.0000000001" r="2" />
	<circle cx="973.3857281550" cy="-11.2537464387" r="2" />
	<circle cx="500.0000000000" cy="-866.0254038000" r="2" />
	<circle cx="403.8088790095" cy="-233.1598619682" r="2" />
	<circle cx="500.0000000000" cy="-866.0254037934" r="2" />
	<circle cx="395.2186658149" cy="-281.8956073246" r="2" />
	<circle cx="500.0000000000" cy="-866.0254038000" r="2" />
	<circle cx="0.0000000000" cy="-0.0000000000" r="2" />
	<circle cx="0.0338648066" cy="-0.0411290825" r="2" />
	<circle cx="500.0000000000" cy="-866.0254037951" r="2" />
	<circle cx="1000.0000000000" cy="-0.0000000000" r="2" />
	<circle cx="500.0000000002" cy="-866.0254018204" r="2" />
	<circle cx="500.0000000000" cy="-866.0254038000" r="2" />
	<circle cx="2.4237503522" cy="-0.9911028419" r="2" />
	<circle cx="0.0218616696" cy="-0.0126252401" r="2" />
	<circle cx="0.0000000000" cy="-0.0000000000" r="2" />
	<circle cx="500.0000000036" cy="-866.0253637578" r="2" />
	<circle cx="500.0000000000" cy="-866.0254038000" r="2" />
	<circle cx="500.0000000000" cy="-866.0254038000" r="2" />
	<circle cx="0.0000000000" cy="-0.0000000000" r="2" />
	<circle cx="500.0003698236" cy="-782.4801668734" r="2" />
	<circle cx="499.8215222156" cy="-302.8331563563" r="2" />
	<circle cx="0.0000000000" cy="-0.0000000000" r="2" />
	<circle cx="500.5813679230" cy="-680.7910311088" r="2" />
	<circle cx="1000.0000000000" cy="-0.0000000000" r="2" />
	<circle cx="500.0000000000" cy="-866.0254038000" r="2" />
	<circle cx="1000.0000000000" cy="-0.0000000000" r="2" />
	<circle cx="1000.0000000000" cy="-0.0000000000" r="2" />
	<circle cx="999.9989517201" cy="-0.0006052816" r="2" />
	<circle cx="486.6157253590" cy="-274.7654854593" r="2" />
	<circle cx="999.9999999997" cy="-0.0000000002" r="2" />
	<circle cx="891.5286259795" cy="-62.5868295437" r="2" />
	<circle cx="0.0000000000" cy="-0.0000000000" r="2" />
	<circle cx="500.0000000000" cy="-866.0254038000" r="2" />
	<circle cx="500.0000000000" cy="-866.0254038000" r="2" />
	<circle cx="1000.0000000000" cy="-0.0000000000" r="2" />
	<circle cx="0.0000000000" cy="-0.0000000000" r="2" />
	<circle cx="1000.0000000000" cy="-0.0000000000" r="2" />
	<circle cx="999.8087904958" cy="-0.0665260001" r="2" />
	<circle cx="1000.0000000000" cy="-0.0000000000" r="2" />
	<circle cx="999.9999976314" cy="-0.0000013678" r="2" />
	<circle cx="0.0000000004" cy="-0.0000000002" r="2" />
	<circle cx="500.0000000000" cy="-866.0254038000" r="2" />
	<circle cx="0.0000000000" cy="-0.0000000000" r="2" />
	<circle cx="562.1385416627" cy="-252.8154060306" r="2" />
	<circle cx="1000.0000000000" cy="-0.0000000000" r="2" />
	<circle cx="500.0000000000" cy="-866.0254037995" r="2" />
	<circle cx="0.0000000000" cy="-0.0000000000" r="2" />
	<circle cx="500.0000149504" cy="-865.8933525993" r="2" />
	<circle cx="3.2500073508" cy="-1.8762068131" r="2" />
	<circle cx="1000.0000000000" cy="-0.0000000000" r="2" />
	<circle cx="476.4899896293" cy="-373.2335365385" r="2" />
	<circle cx="0.0000000000" cy="-0.0000000000" r="2" />
	<circle cx="0.0000000000" cy="-0.0000000000" r="2" />
	<circle cx="500.0000000000" cy="-866.0254037999" r="2" />
	<circle cx="1000.0000000000" cy="-0.0000000000" r="2" />
	<circle cx="0.0000000000" cy="-0.0000000000" r="2" />
	<circle cx="824.3666342123" cy="-101.8422834217" r="2" />
	<circle cx="999.9999999997" cy="-0.0000000002" r="2" />
	<circle cx="1000.0000000000" cy="-0.0000000000" r="2" />
	<circle cx="500.0000047124" cy="-865.6784419997" r="2" />
	<circle cx="999.9999999996" cy="-0.0000000002" r="2" />
	<circle cx="0.0000000000" cy="-0.0000000000" r="2" />
	<circle cx="702.1629206026" cy="-171.9564277813" r="2" />
	<circle cx="0.0000000000" cy="-0.0000000000" r="2" />
	<circle cx="1000.0000000000" cy="-0.0000000000" r="2" />
	<circle cx="499.9510845490" cy="-364.4629929393" r="2" />
	<circle cx="0.0000015746" cy="-0.0000005379" r="2" />
	<circle cx="1000.0000000000" cy="-0.0000000000" r="2" />
	<circle cx="1000.0000000000" cy="-0.0000000000" r="2" />
	<circle cx="1000.0000000000" cy="-0.0000000000" r="2" />
	<circle cx="0.0000000000" cy="-0.0000000000" r="2" />
	<circle cx="0.0000000084" cy="-0.0000000049" r="2" />
	<circle cx="1000.0000000000" cy="-0.0000000000" r="2" />
	<circle cx="999.9999905713" cy="-0.0000054435" r="2" />
	<circle cx="460.6642785995" cy="-265.9784733621" r="2" />
	<circle cx="34.9454465753" cy="-19.4751792605" r="2" />
	<circle cx="1000.0000000000" cy="-0.0000000000" r="2" />
	<circle cx="1000.0000000000" cy="-0.0000000000" r="2" />
	<circle cx="500.0000000000" cy="-866.0254038000" r="2" />
	<circle cx="999.9999999993" cy="-0.0000000004" r="2" />
	<circle cx="500.0000000000" cy="-866.0254038000" r="2" />
  </g>
  <g id="fig2" transform="translate(-550.0,1000)">
	<polygon points="0.0,-0.0 1000.0,-0.0 500.0,-866.0254038" />
	<line
	   id="line2-1"
	   y2="-0.0"
	   x2="500"
	   y1="-288.6751346"
	   x1="500" />
	<line
	   id="line2-2"
	   y2="-433.0127019"
	   x2="250"
	   y1="-288.6751346"
	   x1="500" />
	<line
	   id="line2-3"
	   y2="-433.0127019"
	   x2="750"
	   y1="-288.6751346"
	   x1="500" />
	<text
	   x="440"
	   y="-500"
	   id="up_2">34.8%</text>
	<text
	   x="250"
	   y="-150"
	   id="down_left_2">32.8%</text>
	<text
	   x="630"
	   y="-150"
	   id="down_right_2">32.4%</text>
  </g>
  <g id="fig3" transform="translate(550,1000)">
	<polygon points="0.0,-0.0 1000.0,-0.0 500.0,-866.0254038" />
	<polygon id="triangle3b" points="250,-144.3375673 750,-144.3375673 500,-577.3502692" />
	<line
	   id="line3-1"
	   x1="125"
	   y1="-216.5063509"
	   x2="250"
	   y2="-144.3375673" />
	<line
	   id="line3-2"
	   x1="375"
	   y1="-649.5190528"
	   x2="500"
	   y2="-577.3502692" />
	<line
	   id="line3-3"
	   x1="625"
	   y1="-649.5190528"
	   x2="500"
	   y2="-577.3502692" />
	<line
	   id="line3-4"
	   x1="875"
	   y1="-216.5063509"
	   x2="750"
	   y2="-144.3375673" />
	<line
	   id="line3-5"
	   x1="750"
	   y1="-0.0"
	   x2="750"
	   y2="-144.3375673" />
	<line
	   id="line3-6"
	   x1="250"
	   y1="-0.0"
	   x2="250"
	   y2="-144.3375673" />
	<text
	   x="500"
	   y="-660"
	   text-anchor="middle"
	   id="up_3">31.2%</text>
	<text
	   y="-50"
	   x="70"
	   id="down_left_3">29.4%</text>
	<text
	   y="-50"
	   x="770"
	   id="down_right_3">29.4%</text>
	<text
	   x="500"
	   y="-50"
	   text-anchor="middle"
	   id="down_side_3">0.2%</text>
	<text
	   x="500"
	   y="-280"
	   text-anchor="middle"
	   id="center_3">9.8%</text>
	<text
	   x="685.0"
	   y="-390.8439"
	   text-anchor="middle"
	   transform="rotate(60,665.0,-380.8439)"
	   id="right_side_3">0.0%</text>
	<text
	   x="315.0"
	   y="-390.8439"
	   text-anchor="middle"
	   transform="rotate(-60,335.0,-380.8439)"
	   id="left_side_3">0.0%</text>
  </g>
</g></g>
</svg>
