<?xml version="1.0" encoding="UTF-8" standalone="no"?>
<!DOCTYPE svg PUBLIC "-//W3C//DTD SVG 1.1//EN" "http://www.w3.org/Graphics/SVG/1.1/DTD/svg11.dtd">
<svg
   xmlns:svg="http://www.w3.org/2000/svg"
   xmlns="http://www.w3.org/2000/svg"
   xmlns:xlink="http://www.w3.org/1999/xlink"
   version="1.1"
   baseProfile="full"
   id="body"
   width="800px"
   height="800px"
   viewBox="0 0 1000 1000"
   preserveAspectRatio="none">
  <defs>
    <style type="text/css"><![CDATA[
      circle{ stroke: none; }
      polygon{ stroke: black; stroke-width: 2px; fill: none; }
      line{ stroke: black; stroke-width: 2px; }
      text{ font-size:50px; }
    ]]></style>
  </defs>
  <title
     id="title1">SVG drawing</title>
<g transform="scale(0.45)"><g transform="translate(600,1050)">
  <g id="fig1">
	<polygon points="0.0,-0.0 1000.0,-0.0 500,-866.0254038" />
	<circle cx="1000.0000000000" cy="-0.0000000000" r="2" />
	<circle cx="1000.0000000000" cy="-0.0000000000" r="2" />
	<circle cx="500.0000000000" cy="-866.0254038000" r="2" />
	<circle cx="0.0000614309" cy="-0.0000354573" r="2" />
	<circle cx="500.0023762219" cy="-288.5200767570" r="2" />
	<circle cx="1000.0000000000" cy="-0.0000000000" r="2" />
	<circle cx="500.0000000000" cy="-866.0254038000" r="2" />
	<circle cx="1000.0000000000" cy="-0.0000000000" r="2" />
	<circle cx="1000.0000000000" cy="-0.0000000000" r="2" />
	<circle cx="500.0000000000" cy="-866.0254038000" r="2" />
	<circle cx="0.0000000003" cy="-0.0000000002" r="2" />
	<circle cx="500.0000000000" cy="-866.0254038000" r="2" />
	<circle cx="500.0000000000" cy="-866.0254038000" r="2" />
	<circle cx="0.0011486478" cy="-0.0006630689" r="2" />
	<circle cx="500.0000004950" cy="-866.0243895329" r="2" />
	<circle cx="999.9999981102" cy="-0.0000010911" r="2" />
	<circle cx="500.0000001834" cy="-866.0251905672" r="2" />
	<circle cx="493.1839833738" cy="-284.8020783957" r="2" />
	<circle cx="0.0000000000" cy="-0.0000000000" r="2" />
	<circle cx="500.0000401205" cy="-865.7846234267" r="2" />
	<circle cx="500.0000000000" cy="-866.0254038000" r="2" />
	<circle cx="500.0000000000" cy="-866.0254038000" r="2" />
	<circle cx="38.8922074570" cy="-0.0473175023" r="2" />
	<circle cx="500.0000000000" cy="-866.0254038000" r="2" />
	<circle cx="0.0000628248" cy="-0.0000333856" r="2" />
	<circle cx="999.9969772214" cy="-0.0017446467" r="2" />
	<circle cx="0.0000000000" cy="-0.0000000000" r="2" />
	<circle cx="0.0000000000" cy="-0.0000000000" r="2" />
	<circle cx="1000.0000000000" cy="-0.0000000000" r="2" />
	<circle cx="0.0000000000" cy="-0.0000000000" r="2" />
	<circle cx="1000.0000000000" cy="-0.0000000000" r="2" />
	<circle cx="1000.0000000000" cy="-0.0000000000" r="2" />
	<circle cx="0.0000000000" cy="-0.0000000000" r="2" />
	<circle cx="889.0303439414" cy="-64.0468123093" r="2" />
	<circle cx="4.8781000185" cy="-2.8152094598" r="2" />
	<circle cx="499.9996306140" cy="-829.4419432091" r="2" />
	<circle cx="500.0000000000" cy="-866.0254038000" r="2" />
	<circle cx="0.0000961915" cy="-0.0000796569" r="2" />
	<circle cx="999.9999999999" cy="-0.0000000001" r="2" />
	<circle cx="499.9458871550" cy="-563.0661008053" r="2" />
	<circle cx="0.0000000000" cy="-0.0000000000" r="2" />
	<circle cx="500.0678596889" cy="-799.3741845575" r="2" />
	<circle cx="10.8531364297" cy="-6.2650027015" r="2" />
	<circle cx="500.0000000000" cy="-866.0254038000" r="2" />
	<circle cx="0.0000000000" cy="-0.0000000000" r="2" />
	<circle cx="1000.0000000000" cy="-0.0000000000" r="2" />
	<circle cx="0.0000000000" cy="-0.0000000000" r="2" />
	<circle cx="499.9983304911" cy="-864.8462629272" r="2" />
	<circle cx="0.0000000000" cy="-0.0000000000" r="2" />
	<circle cx="500.0000000000" cy="-866.0254038000" r="2" />
	<circle cx="999.9995765506" cy="-0.0004461396" r="2" />
	<circle cx="500.0046133914" cy="-288.6345919655" r="2" />
	<circle cx="0.0000061757" cy="-0.0000035693" r="2" />
	<circle cx="1000.0000000000" cy="-0.0000000000" r="2" />
	<circle cx="500.0930795033" cy="-865.8321660376" r="2" />
	<circle cx="500.0032772555" cy="-766.2814947801" r="2" />
	<circle cx="500.0000000000" cy="-866.0254038000" r="2" />
	<circle cx="508.0404790707" cy="-284.0955192667" r="2" />
	<circle cx="0.0000000000" cy="-0.0000000000" r="2" />
	<circle cx="500.0097809440" cy="-682.6251422334" r="2" />
	<circle cx="0.0000000000" cy="-0.0000000000" r="2" />
	<circle cx="5.2866748192" cy="-3.6800881169" r="2" />
	<circle cx="0.0000000000" cy="-0.0000000000" r="2" />
	<circle cx="637.0576330306" cy="-209.6720069738" r="2" />
	<circle cx="79.1461174944" cy="-137.0383430870" r="2" />
	<circle cx="500.0000000000" cy="-866.0254038000" r="2" />
	<circle cx="1000.0000000000" cy="-0.0000000000" r="2" />
	<circle cx="0.0000000000" cy="-0.0000000000" r="2" />
	<circle cx="1000.0000000000" cy="-0.0000000000" r="2" />
	<circle cx="1000.0000000000" cy="-0.0000000000" r="2" />
	<circle cx="521.6738943200" cy="-281.0702131923" r="2" />
	<circle cx="500.0000000000" cy="-866.0254038000" r="2" />
	<circle cx="999.9979140278" cy="-0.0034448318" r="2" />
	<circle cx="816.1675622871" cy="-108.8252675853" r="2" />
	<circle cx="0.0053482767" cy="-0.0030865476" r="2" />
	<circle cx="999.7791783319" cy="-0.1219418601" r="2" />
	<circle cx="997.0396694341" cy="-0.6573911080" r="2" />
	<circle cx="500.0000000012" cy="-866.0254032874" r="2" />
	<circle cx="95.5036816397" cy="-164.1868441402" r="2" />
	<circle cx="500.0000000000" cy="-866.0254038000" r="2" />
	<circle cx="499.8489997853" cy="-288.8304233385" r="2" />
	<circle cx="558.1284027170" cy="-311.0821512573" r="2" />
	<circle cx="1000.0000000000" cy="-0.0000000000" r="2" />
	<circle cx="0.0000000000" cy="-0.0000000000" r="2" />
	<circle cx="500.0528200737" cy="-536.5797530636" r="2" />
	<circle cx="500.0000000000" cy="-866.0254038000" r="2" />
	<circle cx="503.1575553047" cy="-708.7585149762" r="2" />
	<circle cx="500.0000000381" cy="-866.0252035448" r="2" />
	<circle cx="502.0107501394" cy="-568.6031071730" r="2" />
	<circle cx="500.0000000000" cy="-866.0254038000" r="2" />
	<circle cx="920.8794031657" cy="-136.9941371720" r="2" />
	<circle cx="499.0850381313" cy="-288.1020566403" r="2" />
	<circle cx="0.0000000000" cy="-0.0000000000" r="2" />
	<circle cx="1000.0000000000" cy="-0.0000000000" r="2" />
	<circle cx="500.0000000000" cy="-866.0254038000" r="2" />
	<circle cx="500.0140422061" cy="-703.1126498214" r="2" />
	<circle cx="0.0000000000" cy="-0.0000000000" r="2" />
	<circle cx="999.9999998283" cy="-0.0000000992" r="2" />
	<circle cx="665.8630101549" cy="-570.9301594431" r="2" />
	<circle cx="500.0000000000" cy="-866.0254038000" r="2" />
	<circle cx="500.0000000000" cy="-866.0254038000" r="2" />
	<circle cx="999.9982151939" cy="-0.0010312485" r="2" />
	<circle cx="0.0000000000" cy="-0.0000000000" r="2" />
	<circle cx="500.0000000000" cy="-866.0254038000" r="2" />
	<circle cx="116.4034308756" cy="-67.1558668158" r="2" />
	<circle cx="500.0000000000" cy="-866.0254038000" r="2" />
	<circle cx="0.1282345924" cy="-0.0740290840" r="2" />
	<circle cx="500.0083105006" cy="-713.0461309594" r="2" />
	<circle cx="500.0000000000" cy="-866.0254038000" r="2" />
	<circle cx="500.0000000000" cy="-866.0254038000" r="2" />
	<circle cx="500.0000000092" cy="-866.0254027632" r="2" />
	<circle cx="0.1575155380" cy="-0.0851154206" r="2" />
	<circle cx="1000.0000000000" cy="-0.0000000000" r="2" />
	<circle cx="1000.0000000000" cy="-0.0000000000" r="2" />
	<circle cx="0.3630471187" cy="-0.2095701092" r="2" />
	<circle cx="0.0000003394" cy="-0.0000001960" r="2" />
	<circle cx="0.2926115712" cy="-0.0681841785" r="2" />
	<circle cx="500.0000000000" cy="-866.0254038000" r="2" />
	<circle cx="1000.0000000000" cy="-0.0000000000" r="2" />
	<circle cx="0.0000000000" cy="-0.0000000000" r="2" />
	<circle cx="1000.0000000000" cy="-0.0000000000" r="2" />
	<circle cx="261.6058708472" cy="-151.0257829056" r="2" />
	<circle cx="1000.0000000000" cy="-0.0000000000" r="2" />
	<circle cx="999.9997198083" cy="-0.0001616987" r="2" />
	<circle cx="999.9997433275" cy="-0.0001482246" r="2" />
	<circle cx="500.0000000000" cy="-866.0254037999" r="2" />
	<circle cx="0.0000000000" cy="-0.0000000000" r="2" />
	<circle cx="500.1789167378" cy="-854.6672652828" r="2" />
	<circle cx="999.3638603136" cy="-0.3672356043" r="2" />
	<circle cx="1000.0000000000" cy="-0.0000000000" r="2" />
	<circle cx="500.0000000000" cy="-866.0254038000" r="2" />
	<circle cx="0.4006057838" cy="-0.2313815508" r="2" />
	<circle cx="968.4904779143" cy="-19.1211678140" r="2" />
	<circle cx="31.1235552139" cy="-18.6966403390" r="2" />
	<circle cx="0.0000000000" cy="-0.0000000000" r="2" />
	<circle cx="500.0000000000" cy="-866.0254038000" r="2" />
	<circle cx="0.0000000000" cy="-0.0000000000" r="2" />
	<circle cx="0.1566422851" cy="-0.1391642224" r="2" />
	<circle cx="999.9765897960" cy="-0.0135064501" r="2" />
	<circle cx="271.2235678685" cy="-156.4775960482" r="2" />
	<circle cx="25.3204496078" cy="-13.2862030252" r="2" />
	<circle cx="0.0000000000" cy="-0.0000000000" r="2" />
	<circle cx="994.8633437366" cy="-8.8969285892" r="2" />
	<circle cx="500.0000000000" cy="-866.0254038000" r="2" />
	<circle cx="1000.0000000000" cy="-0.0000000000" r="2" />
	<circle cx="500.0000000000" cy="-866.0254038000" r="2" />
	<circle cx="0.0000000000" cy="-0.0000000000" r="2" />
	<circle cx="0.0004330888" cy="-0.0002501324" r="2" />
	<circle cx="0.0001734094" cy="-0.0001001626" r="2" />
	<circle cx="500.0015649797" cy="-849.9420316099" r="2" />
	<circle cx="953.6855962638" cy="-24.4711372424" r="2" />
	<circle cx="999.9835608778" cy="-0.0029726811" r="2" />
	<circle cx="500.0255041435" cy="-865.4133167608" r="2" />
	<circle cx="0.0000000000" cy="-0.0000000000" r="2" />
	<circle cx="5.7813430341" cy="-3.3340932057" r="2" />
	<circle cx="0.0000000000" cy="-0.0000000000" r="2" />
	<circle cx="0.0000000000" cy="-0.0000000000" r="2" />
	<circle cx="986.0521562496" cy="-22.2172711205" r="2" />
	<circle cx="586.8048742745" cy="-238.6544957117" r="2" />
	<circle cx="516.2298514546" cy="-279.2239819240" r="2" />
	<circle cx="999.9999999983" cy="-0.0000000010" r="2" />
	<circle cx="502.3779796495" cy="-843.1467739418" r="2" />
	<circle cx="0.0003637119" cy="-0.0002101396" r="2" />
	<circle cx="492.0250294540" cy="-832.3960579792" r="2" />
	<circle cx="499.8569799269" cy="-396.8197309202" r="2" />
	<circle cx="34.7165398489" cy="-0.0714049736" r="2" />
	<circle cx="499.9992520010" cy="-857.8280477774" r="2" />
	<circle cx="1000.0000000000" cy="-0.0000000000" r="2" />
	<circle cx="500.0000000000" cy="-866.0254037999" r="2" />
	<circle cx="499.9999977579" cy="-866.0253911293" r="2" />
	<circle cx="1000.0000000000" cy="-0.0000000000" r="2" />
	<circle cx="500.0000000000" cy="-866.0254038000" r="2" />
	<circle cx="0.0000000000" cy="-0.0000000000" r="2" />
	<circle cx="1000.0000000000" cy="-0.0000000000" r="2" />
	<circle cx="841.1722105246" cy="-91.7082312601" r="2" />
	<circle cx="500.0000000000" cy="-866.0254038000" r="2" />
	<circle cx="999.9926809688" cy="-0.0042245489" r="2" />
	<circle cx="0.0000000000" cy="-0.0000000000" r="2" />
	<circle cx="0.3517700109" cy="-0.2031325087" r="2" />
	<circle cx="947.2193816077" cy="-30.4642104953" r="2" />
	<circle cx="1000.0000000000" cy="-0.0000000000" r="2" />
	<circle cx="528.7978901733" cy="-270.5715749186" r="2" />
	<circle cx="990.6226328754" cy="-16.2417513814" r="2" />
	<circle cx="999.9999999456" cy="-0.0000000314" r="2" />
	<circle cx="499.9999307195" cy="-849.3847279125" r="2" />
	<circle cx="0.0000000002" cy="-0.0000000001" r="2" />
	<circle cx="0.0000000000" cy="-0.0000000000" r="2" />
	<circle cx="1000.0000000000" cy="-0.0000000000" r="2" />
	<circle cx="0.0000000000" cy="-0.0000000000" r="2" />
	<circle cx="0.0000000000" cy="-0.0000000000" r="2" />
	<circle cx="1000.0000000000" cy="-0.0000000000" r="2" />
	<circle cx="0.0000000000" cy="-0.0000000000" r="2" />
	<circle cx="500.0000000000" cy="-866.0254038000" r="2" />
	<circle cx="499.9998721489" cy="-866.0231148038" r="2" />
	<circle cx="1000.0000000000" cy="-0.0000000000" r="2" />
	<circle cx="0.0000000000" cy="-0.0000000000" r="2" />
	<circle cx="0.0000000000" cy="-0.0000000000" r="2" />
	<circle cx="0.0000000000" cy="-0.0000000000" r="2" />
	<circle cx="0.0000000000" cy="-0.0000000000" r="2" />
	<circle cx="7.3869779652" cy="-0.1370044539" r="2" />
	<circle cx="1000.0000000000" cy="-0.0000000000" r="2" />
	<circle cx="1000.0000000000" cy="-0.0000000000" r="2" />
	<circle cx="0.0000000000" cy="-0.0000000000" r="2" />
	<circle cx="0.0000000000" cy="-0.0000000000" r="2" />
	<circle cx="499.8178096902" cy="-865.4944131928" r="2" />
	<circle cx="1000.0000000000" cy="-0.0000000000" r="2" />
	<circle cx="0.0000000000" cy="-0.0000000000" r="2" />
	<circle cx="999.7953220404" cy="-0.2142780644" r="2" />
	<circle cx="966.8515483307" cy="-19.2783900167" r="2" />
	<circle cx="764.9296989067" cy="-135.6771040893" r="2" />
	<circle cx="500.0000000000" cy="-866.0254038000" r="2" />
	<circle cx="499.9545797086" cy="-471.6824612271" r="2" />
	<circle cx="13.1825587836" cy="-7.6089118574" r="2" />
	<circle cx="500.0000000000" cy="-866.0254038000" r="2" />
	<circle cx="541.3716752027" cy="-794.3416017177" r="2" />
	<circle cx="1000.0000000000" cy="-0.0000000000" r="2" />
	<circle cx="500.0000000000" cy="-866.0254038000" r="2" />
	<circle cx="500.0001503317" cy="-866.0245768686" r="2" />
	<circle cx="500.0000000000" cy="-866.0254038000" r="2" />
	<circle cx="499.9999999933" cy="-866.0252990516" r="2" />
	<circle cx="500.0000000000" cy="-866.0254038000" r="2" />
	<circle cx="0.0000000000" cy="-0.0000000000" r="2" />
	<circle cx="0.0000098733" cy="-0.0000057006" r="2" />
	<circle cx="499.9681656142" cy="-749.2275145297" r="2" />
	<circle cx="999.7583453431" cy="-0.1394335295" r="2" />
	<circle cx="499.9999999988" cy="-866.0253832043" r="2" />
	<circle cx="1000.0000000000" cy="-0.0000000000" r="2" />
	<circle cx="500.0000000000" cy="-866.0254038000" r="2" />
	<circle cx="500.0000000000" cy="-866.0254038000" r="2" />
	<circle cx="76.9119582400" cy="-41.9714945429" r="2" />
	<circle cx="1000.0000000000" cy="-0.0000000000" r="2" />
	<circle cx="330.3331197664" cy="-247.0876059621" r="2" />
	<circle cx="307.1232529108" cy="-177.3796930299" r="2" />
	<circle cx="0.0000000000" cy="-0.0000000000" r="2" />
	<circle cx="1000.0000000000" cy="-0.0000000000" r="2" />
	<circle cx="0.0000000000" cy="-0.0000000000" r="2" />
	<circle cx="999.9999999999" cy="-0.0000000001" r="2" />
	<circle cx="1000.0000000000" cy="-0.0000000000" r="2" />
	<circle cx="999.9999999999" cy="-0.0000000001" r="2" />
	<circle cx="500.1984555130" cy="-865.5411261782" r="2" />
	<circle cx="1000.0000000000" cy="-0.0000000000" r="2" />
	<circle cx="1000.0000000000" cy="-0.0000000000" r="2" />
	<circle cx="1000.0000000000" cy="-0.0000000000" r="2" />
	<circle cx="351.0273819103" cy="-169.7406937741" r="2" />
	<circle cx="500.0001898570" cy="-866.0238000883" r="2" />
	<circle cx="501.8045579430" cy="-783.6134662532" r="2" />
	<circle cx="500.0000000000" cy="-866.0254038000" r="2" />
	<circle cx="0.0000000000" cy="-0.0000000000" r="2" />
	<circle cx="1000.0000000000" cy="-0.0000000000" r="2" />
	<circle cx="500.0000000000" cy="-866.0254038000" r="2" />
	<circle cx="999.9892932474" cy="-0.0058154209" r="2" />
	<circle cx="0.0000000000" cy="-0.0000000000" r="2" />
	<circle cx="0.0000000000" cy="-0.0000000000" r="2" />
	<circle cx="0.0000000000" cy="-0.0000000000" r="2" />
	<circle cx="0.0000090214" cy="-0.0000052041" r="2" />
	<circle cx="0.0223002377" cy="-0.0128614943" r="2" />
	<circle cx="500.0000000000" cy="-866.0254038000" r="2" />
	<circle cx="1000.0000000000" cy="-0.0000000000" r="2" />
	<circle cx="500.0279115505" cy="-478.5787490635" r="2" />
	<circle cx="993.2210583920" cy="-3.9133950816" r="2" />
	<circle cx="1000.0000000000" cy="-0.0000000000" r="2" />
	<circle cx="727.2039292585" cy="-157.1082569685" r="2" />
	<circle cx="1.2148028391" cy="-0.2767752895" r="2" />
	<circle cx="0.0000000000" cy="-0.0000000000" r="2" />
	<circle cx="1000.0000000000" cy="-0.0000000000" r="2" />
	<circle cx="1000.0000000000" cy="-0.0000000000" r="2" />
	<circle cx="0.1713445192" cy="-0.0989025375" r="2" />
	<circle cx="1000.0000000000" cy="-0.0000000000" r="2" />
	<circle cx="0.0022404837" cy="-0.0012933020" r="2" />
	<circle cx="0.0000000000" cy="-0.0000000000" r="2" />
	<circle cx="0.0778077021" cy="-0.0449133715" r="2" />
	<circle cx="0.0000000000" cy="-0.0000000000" r="2" />
	<circle cx="1000.0000000000" cy="-0.0000000000" r="2" />
	<circle cx="1000.0000000000" cy="-0.0000000000" r="2" />
	<circle cx="999.4173855695" cy="-0.3361995686" r="2" />
	<circle cx="436.0379423631" cy="-231.3253169065" r="2" />
	<circle cx="0.0000000000" cy="-0.0000000000" r="2" />
	<circle cx="0.0000000000" cy="-0.0000000000" r="2" />
	<circle cx="947.2581372272" cy="-30.4400344555" r="2" />
	<circle cx="500.0000000000" cy="-866.0254038000" r="2" />
	<circle cx="499.9999999997" cy="-866.0254037697" r="2" />
	<circle cx="497.3314212902" cy="-286.8933676309" r="2" />
	<circle cx="999.9999997176" cy="-0.0000001632" r="2" />
	<circle cx="499.9999999981" cy="-866.0253995342" r="2" />
	<circle cx="0.0000000000" cy="-0.0000000000" r="2" />
	<circle cx="500.0000000000" cy="-866.0254038000" r="2" />
	<circle cx="36.4340506836" cy="-20.8200272196" r="2" />
	<circle cx="1000.0000000000" cy="-0.0000000000" r="2" />
	<circle cx="999.9997530513" cy="-0.0001489001" r="2" />
	<circle cx="499.9653086868" cy="-610.8139377506" r="2" />
	<circle cx="500.0000000000" cy="-866.0254037999" r="2" />
	<circle cx="0.0000000000" cy="-0.0000000000" r="2" />
	<circle cx="500.0000000027" cy="-866.0254035914" r="2" />
	<circle cx="0.0000000000" cy="-0.0000000000" r="2" />
	<circle cx="500.0000000001" cy="-866.0254024855" r="2" />
	<circle cx="504.9349168956" cy="-321.0566774192" r="2" />
	<circle cx="738.7106898221" cy="-150.8858759335" r="2" />
	<circle cx="500.0000000000" cy="-866.0254038000" r="2" />
	<circle cx="500.0000000000" cy="-866.0254037999" r="2" />
	<circle cx="499.9996853688" cy="-865.1697905212" r="2" />
	<circle cx="999.9968798575" cy="-0.0008576649" r="2" />
	<circle cx="965.2834395902" cy="-0.0714046658" r="2" />
	<circle cx="998.0310350605" cy="-0.0894014314" r="2" />
	<circle cx="0.0017847624" cy="-0.0010310939" r="2" />
	<circle cx="0.0000000000" cy="-0.0000000000" r="2" />
	<circle cx="0.0000000000" cy="-0.0000000000" r="2" />
	<circle cx="0.0000000000" cy="-0.0000000000" r="2" />
	<circle cx="500.0000000000" cy="-866.0254037870" r="2" />
	<circle cx="0.0000000000" cy="-0.0000000000" r="2" />
	<circle cx="999.9999988000" cy="-0.0000006916" r="2" />
	<circle cx="999.6302168350" cy="-0.2134471856" r="2" />
	<circle cx="499.9570928715" cy="-288.6962500201" r="2" />
	<circle cx="790.5878082008" cy="-120.9182662818" r="2" />
	<circle cx="499.9988708416" cy="-865.0347774173" r="2" />
	<circle cx="1000.0000000000" cy="-0.0000000000" r="2" />
	<circle cx="26.8445099943" cy="-15.5024107860" r="2" />
	<circle cx="0.0000000000" cy="-0.0000000000" r="2" />
	<circle cx="999.9470309191" cy="-0.0769814418" r="2" />
	<circle cx="500.2814493031" cy="-840.8795510165" r="2" />
	<circle cx="999.0613144701" cy="-0.5416225573" r="2" />
	<circle cx="103.1544744308" cy="-168.5715136770" r="2" />
	<circle cx="1000.0000000000" cy="-0.0000000000" r="2" />
	<circle cx="1000.0000000000" cy="-0.0000000000" r="2" />
	<circle cx="500.0000000000" cy="-866.0254038000" r="2" />
	<circle cx="1000.0000000000" cy="-0.0000000000" r="2" />
	<circle cx="1000.0000000000" cy="-0.0000000000" r="2" />
	<circle cx="0.0000000000" cy="-0.0000000000" r="2" />
	<circle cx="1000.0000000000" cy="-0.0000000000" r="2" />
	<circle cx="778.9621669484" cy="-127.5704784825" r="2" />
	<circle cx="500.0000000478" cy="-866.0251070625" r="2" />
	<circle cx="965.1477942065" cy="-41.9267788721" r="2" />
	<circle cx="473.9017478281" cy="-496.7191492090" r="2" />
	<circle cx="0.0000000000" cy="-0.0000000000" r="2" />
	<circle cx="995.1112370711" cy="-7.5262410701" r="2" />
	<circle cx="495.3929046890" cy="-747.4900540975" r="2" />
	<circle cx="500.0000000392" cy="-866.0252035428" r="2" />
	<circle cx="999.9999994793" cy="-0.0000003009" r="2" />
	<circle cx="999.8940623008" cy="-0.0611374998" r="2" />
	<circle cx="500.0000000000" cy="-866.0254038000" r="2" />
	<circle cx="500.0000000000" cy="-866.0254038000" r="2" />
	<circle cx="0.0000000000" cy="-0.0000000000" r="2" />
	<circle cx="500.0000000000" cy="-866.0254038000" r="2" />
	<circle cx="1000.0000000000" cy="-0.0000000000" r="2" />
	<circle cx="1000.0000000000" cy="-0.0000000000" r="2" />
	<circle cx="295.3996519410" cy="-170.4557682597" r="2" />
	<circle cx="999.9997187933" cy="-0.0001622403" r="2" />
	<circle cx="1.4960673525" cy="-0.8637856131" r="2" />
	<circle cx="0.0000000000" cy="-0.0000000000" r="2" />
	<circle cx="0.0000000000" cy="-0.0000000000" r="2" />
	<circle cx="999.8425304648" cy="-0.0850868285" r="2" />
	<circle cx="0.0000000000" cy="-0.0000000000" r="2" />
	<circle cx="83.6200824186" cy="-48.2650581172" r="2" />
	<circle cx="1000.0000000000" cy="-0.0000000000" r="2" />
	<circle cx="498.1036249227" cy="-861.1458518353" r="2" />
	<circle cx="500.0000000000" cy="-866.0254038000" r="2" />
	<circle cx="500.0000000000" cy="-866.0254038000" r="2" />
	<circle cx="362.0798344822" cy="-208.8893006422" r="2" />
	<circle cx="500.0000000000" cy="-866.0254037971" r="2" />
	<circle cx="0.7737645289" cy="-0.4466418409" r="2" />
	<circle cx="0.0000000000" cy="-0.0000000000" r="2" />
	<circle cx="999.9999997696" cy="-0.0000001329" r="2" />
	<circle cx="0.0000000000" cy="-0.0000000000" r="2" />
	<circle cx="1000.0000000000" cy="-0.0000000000" r="2" />
	<circle cx="0.0000000000" cy="-0.0000000000" r="2" />
	<circle cx="500.0000000000" cy="-866.0254038000" r="2" />
	<circle cx="500.0000000000" cy="-866.0254038000" r="2" />
	<circle cx="500.0724386161" cy="-563.2687882202" r="2" />
	<circle cx="999.9999361763" cy="-0.0000318019" r="2" />
	<circle cx="0.0000000000" cy="-0.0000000000" r="2" />
	<circle cx="995.8541246097" cy="-2.3943740913" r="2" />
	<circle cx="500.0000000000" cy="-866.0254038000" r="2" />
	<circle cx="1000.0000000000" cy="-0.0000000000" r="2" />
	<circle cx="500.0009564816" cy="-833.6907694457" r="2" />
	<circle cx="999.9999999998" cy="-0.0000000001" r="2" />
	<circle cx="0.0222594956" cy="-0.0128668370" r="2" />
	<circle cx="1000.0000000000" cy="-0.0000000000" r="2" />
	<circle cx="1000.0000000000" cy="-0.0000000000" r="2" />
	<circle cx="0.0000000000" cy="-0.0000000000" r="2" />
	<circle cx="541.4685290945" cy="-264.7039783490" r="2" />
	<circle cx="500.0000000000" cy="-866.0254038000" r="2" />
	<circle cx="1000.0000000000" cy="-0.0000000000" r="2" />
	<circle cx="0.0000000000" cy="-0.0000000000" r="2" />
	<circle cx="161.4605914032" cy="-86.8012855882" r="2" />
	<circle cx="0.0000000000" cy="-0.0000000000" r="2" />
	<circle cx="963.5673711953" cy="-20.8180360597" r="2" />
	<circle cx="500.0000000000" cy="-866.0254038000" r="2" />
	<circle cx="210.2871436086" cy="-12.3627012050" r="2" />
	<circle cx="1000.0000000000" cy="-0.0000000000" r="2" />
	<circle cx="29.9243878374" cy="-18.9273919657" r="2" />
	<circle cx="1000.0000000000" cy="-0.0000000000" r="2" />
	<circle cx="500.0000000000" cy="-866.0254038000" r="2" />
	<circle cx="500.0000000000" cy="-866.0254038000" r="2" />
	<circle cx="1000.0000000000" cy="-0.0000000000" r="2" />
	<circle cx="999.9999976494" cy="-0.0000013590" r="2" />
	<circle cx="0.0000000000" cy="-0.0000000000" r="2" />
	<circle cx="1000.0000000000" cy="-0.0000000000" r="2" />
	<circle cx="1.3961790031" cy="-2.2832687050" r="2" />
	<circle cx="0.0000000000" cy="-0.0000000000" r="2" />
	<circle cx="1000.0000000000" cy="-0.0000000000" r="2" />
	<circle cx="1000.0000000000" cy="-0.0000000000" r="2" />
	<circle cx="499.9999999996" cy="-866.0254037107" r="2" />
	<circle cx="0.0000136894" cy="-0.0000075852" r="2" />
	<circle cx="0.2236255056" cy="-0.1269651749" r="2" />
	<circle cx="873.9286129222" cy="-72.7395087892" r="2" />
	<circle cx="500.0000000000" cy="-866.0254038000" r="2" />
	<circle cx="1000.0000000000" cy="-0.0000000000" r="2" />
	<circle cx="500.0000000000" cy="-866.0254038000" r="2" />
	<circle cx="1000.0000000000" cy="-0.0000000000" r="2" />
	<circle cx="999.9998494036" cy="-0.0000870081" r="2" />
	<circle cx="1000.0000000000" cy="-0.0000000000" r="2" />
	<circle cx="500.0000000000" cy="-866.0254037996" r="2" />
	<circle cx="499.8871023083" cy="-459.7116596567" r="2" />
	<circle cx="1000.0000000000" cy="-0.0000000000" r="2" />
	<circle cx="500.0000000000" cy="-866.0254038000" r="2" />
	<circle cx="500.0000000000" cy="-866.0254038000" r="2" />
	<circle cx="500.0000001569" cy="-866.0250006442" r="2" />
	<circle cx="944.1921739880" cy="-74.0216093365" r="2" />
	<circle cx="499.9999998871" cy="-866.0219116080" r="2" />
	<circle cx="499.8780085841" cy="-288.6701826422" r="2" />
	<circle cx="0.0000000137" cy="-0.0000000079" r="2" />
	<circle cx="500.0000000000" cy="-866.0254038000" r="2" />
	<circle cx="1000.0000000000" cy="-0.0000000000" r="2" />
	<circle cx="0.0008270429" cy="-0.0004778248" r="2" />
	<circle cx="499.9999999982" cy="-866.0253244891" r="2" />
	<circle cx="458.9117820200" cy="-794.7814618620" r="2" />
	<circle cx="1000.0000000000" cy="-0.0000000000" r="2" />
	<circle cx="500.0000000000" cy="-866.0254038000" r="2" />
	<circle cx="999.9753592656" cy="-0.0154050165" r="2" />
	<circle cx="500.0000000000" cy="-866.0254038000" r="2" />
	<circle cx="500.0000000000" cy="-866.0254038000" r="2" />
	<circle cx="500.0000000000" cy="-866.0254038000" r="2" />
	<circle cx="500.0000000000" cy="-866.0254038000" r="2" />
	<circle cx="855.8584472902" cy="-1.9398144899" r="2" />
	<circle cx="0.0000000000" cy="-0.0000000000" r="2" />
	<circle cx="499.5632049681" cy="-864.4641707615" r="2" />
	<circle cx="0.0000000000" cy="-0.0000000000" r="2" />
	<circle cx="0.0000003830" cy="-0.0000002212" r="2" />
	<circle cx="0.0609517892" cy="-0.0331635971" r="2" />
	<circle cx="1000.0000000000" cy="-0.0000000000" r="2" />
	<circle cx="0.0000000000" cy="-0.0000000000" r="2" />
	<circle cx="500.0000000000" cy="-866.0254038000" r="2" />
	<circle cx="500.0000000000" cy="-866.0254038000" r="2" />
	<circle cx="500.0000000000" cy="-866.0254038000" r="2" />
	<circle cx="459.2110506687" cy="-264.9416228174" r="2" />
	<circle cx="999.9999999874" cy="-0.0000000073" r="2" />
	<circle cx="500.1292575843" cy="-865.2824026168" r="2" />
	<circle cx="0.0000000000" cy="-0.0000000000" r="2" />
	<circle cx="1000.0000000000" cy="-0.0000000000" r="2" />
	<circle cx="493.7352909339" cy="-297.7064542955" r="2" />
	<circle cx="500.0000000000" cy="-866.0254038000" r="2" />
	<circle cx="1000.0000000000" cy="-0.0000000000" r="2" />
	<circle cx="500.7964074402" cy="-288.3102377106" r="2" />
	<circle cx="308.3543405109" cy="-177.9458634497" r="2" />
	<circle cx="500.0000000000" cy="-866.0254038000" r="2" />
	<circle cx="500.0000000000" cy="-866.0254038000" r="2" />
	<circle cx="999.9999911349" cy="-0.0000051235" r="2" />
	<circle cx="1000.0000000000" cy="-0.0000000000" r="2" />
	<circle cx="480.8619663503" cy="-277.5642994770" r="2" />
	<circle cx="500.0000000000" cy="-866.0254038000" r="2" />
	<circle cx="999.9490725996" cy="-0.0294016871" r="2" />
	<circle cx="0.0000000000" cy="-0.0000000000" r="2" />
	<circle cx="0.0000000000" cy="-0.0000000000" r="2" />
	<circle cx="1000.0000000000" cy="-0.0000000000" r="2" />
	<circle cx="0.0000000000" cy="-0.0000000000" r="2" />
	<circle cx="0.0000000000" cy="-0.0000000000" r="2" />
	<circle cx="0.0000000000" cy="-0.0000000000" r="2" />
	<circle cx="1000.0000000000" cy="-0.0000000000" r="2" />
	<circle cx="500.0000000000" cy="-866.0254038000" r="2" />
	<circle cx="1000.0000000000" cy="-0.0000000000" r="2" />
	<circle cx="536.0444689678" cy="-424.3646980397" r="2" />
	<circle cx="0.0000000000" cy="-0.0000000000" r="2" />
	<circle cx="1000.0000000000" cy="-0.0000000000" r="2" />
	<circle cx="481.4942338621" cy="-288.2390521777" r="2" />
	<circle cx="250.0925768241" cy="-0.0918894745" r="2" />
	<circle cx="999.9999999904" cy="-0.0000000055" r="2" />
	<circle cx="292.1948123136" cy="-501.3202652942" r="2" />
	<circle cx="1000.0000000000" cy="-0.0000000000" r="2" />
	<circle cx="37.5325950597" cy="-21.6609858843" r="2" />
	<circle cx="999.5552717751" cy="-0.2019745464" r="2" />
	<circle cx="499.9896477155" cy="-622.6510687012" r="2" />
	<circle cx="545.5985586909" cy="-262.5070510810" r="2" />
	<circle cx="2.8485009787" cy="-1.6442760730" r="2" />
	<circle cx="0.0000000000" cy="-0.0000000000" r="2" />
	<circle cx="596.7198769606" cy="-232.7886496646" r="2" />
	<circle cx="501.4301486543" cy="-830.6476938369" r="2" />
	<circle cx="500.0179332407" cy="-288.7240885166" r="2" />
	<circle cx="500.0000000000" cy="-866.0254038000" r="2" />
	<circle cx="0.0000000000" cy="-0.0000000000" r="2" />
	<circle cx="499.9607886177" cy="-288.6219208218" r="2" />
	<circle cx="500.0000000000" cy="-866.0254038000" r="2" />
	<circle cx="499.9556845193" cy="-288.6814760847" r="2" />
	<circle cx="0.0000000000" cy="-0.0000000000" r="2" />
	<circle cx="500.0000000000" cy="-866.0254038000" r="2" />
	<circle cx="500.0000000000" cy="-866.0254038000" r="2" />
	<circle cx="499.9999999997" cy="-866.0254037423" r="2" />
	<circle cx="1000.0000000000" cy="-0.0000000000" r="2" />
	<circle cx="747.5382873587" cy="-145.6677740122" r="2" />
	<circle cx="0.0000000000" cy="-0.0000000000" r="2" />
	<circle cx="1000.0000000000" cy="-0.0000000000" r="2" />
	<circle cx="999.9976047051" cy="-0.0013818536" r="2" />
  </g>
  <g id="fig2" transform="translate(-550.0,1000)">
	<polygon points="0.0,-0.0 1000.0,-0.0 500.0,-866.0254038" />
	<line
	   id="line2-1"
	   y2="-0.0"
	   x2="500"
	   y1="-288.6751346"
	   x1="500" />
	<line
	   id="line2-2"
	   y2="-433.0127019"
	   x2="250"
	   y1="-288.6751346"
	   x1="500" />
	<line
	   id="line2-3"
	   y2="-433.0127019"
	   x2="750"
	   y1="-288.6751346"
	   x1="500" />
	<text
	   x="440"
	   y="-500"
	   id="up_2">31.8%</text>
	<text
	   x="250"
	   y="-150"
	   id="down_left_2">33.6%</text>
	<text
	   x="630"
	   y="-150"
	   id="down_right_2">34.6%</text>
  </g>
  <g id="fig3" transform="translate(550,1000)">
	<polygon points="0.0,-0.0 1000.0,-0.0 500.0,-866.0254038" />
	<polygon id="triangle3b" points="250,-144.3375673 750,-144.3375673 500,-577.3502692" />
	<line
	   id="line3-1"
	   x1="125"
	   y1="-216.5063509"
	   x2="250"
	   y2="-144.3375673" />
	<line
	   id="line3-2"
	   x1="375"
	   y1="-649.5190528"
	   x2="500"
	   y2="-577.3502692" />
	<line
	   id="line3-3"
	   x1="625"
	   y1="-649.5190528"
	   x2="500"
	   y2="-577.3502692" />
	<line
	   id="line3-4"
	   x1="875"
	   y1="-216.5063509"
	   x2="750"
	   y2="-144.3375673" />
	<line
	   id="line3-5"
	   x1="750"
	   y1="-0.0"
	   x2="750"
	   y2="-144.3375673" />
	<line
	   id="line3-6"
	   x1="250"
	   y1="-0.0"
	   x2="250"
	   y2="-144.3375673" />
	<text
	   x="500"
	   y="-660"
	   text-anchor="middle"
	   id="up_3">28.6%</text>
	<text
	   y="-50"
	   x="70"
	   id="down_left_3">29.6%</text>
	<text
	   y="-50"
	   x="770"
	   id="down_right_3">31.4%</text>
	<text
	   x="500"
	   y="-50"
	   text-anchor="middle"
	   id="down_side_3">0.2%</text>
	<text
	   x="500"
	   y="-280"
	   text-anchor="middle"
	   id="center_3">9.8%</text>
	<text
	   x="685.0"
	   y="-390.8439"
	   text-anchor="middle"
	   transform="rotate(60,665.0,-380.8439)"
	   id="right_side_3">0.2%</text>
	<text
	   x="315.0"
	   y="-390.8439"
	   text-anchor="middle"
	   transform="rotate(-60,335.0,-380.8439)"
	   id="left_side_3">0.2%</text>
  </g>
</g></g>
</svg>
