<?xml version="1.0" encoding="UTF-8" standalone="no"?>
<!DOCTYPE svg PUBLIC "-//W3C//DTD SVG 1.1//EN" "http://www.w3.org/Graphics/SVG/1.1/DTD/svg11.dtd">
<svg
   xmlns:svg="http://www.w3.org/2000/svg"
   xmlns="http://www.w3.org/2000/svg"
   xmlns:xlink="http://www.w3.org/1999/xlink"
   version="1.1"
   baseProfile="full"
   id="body"
   width="800px"
   height="800px"
   viewBox="0 0 1000 1000"
   preserveAspectRatio="none">
  <defs>
    <style type="text/css"><![CDATA[
      circle{ stroke: none; }
      polygon{ stroke: black; stroke-width: 2px; fill: none; }
      line{ stroke: black; stroke-width: 2px; }
      text{ font-size:50px; }
    ]]></style>
  </defs>
  <title
     id="title1">SVG drawing</title>
<g transform="scale(0.45)"><g transform="translate(600,1050)">
  <g id="fig1">
	<polygon points="0.0,-0.0 1000.0,-0.0 500,-866.0254038" />
	<circle cx="999.6415986072" cy="-0.1080969794" r="2" />
	<circle cx="533.3578547741" cy="-747.7638816651" r="2" />
	<circle cx="506.6305895913" cy="-659.2036918720" r="2" />
	<circle cx="982.0690204823" cy="-8.5588583875" r="2" />
	<circle cx="194.2955240561" cy="-152.0794151727" r="2" />
	<circle cx="506.2178527591" cy="-745.3922652357" r="2" />
	<circle cx="99.3384547218" cy="-87.3373653569" r="2" />
	<circle cx="398.5346261936" cy="-59.8363645931" r="2" />
	<circle cx="501.2631616832" cy="-542.9276851070" r="2" />
	<circle cx="957.2398798883" cy="-24.6854196294" r="2" />
	<circle cx="500.0087987829" cy="-793.7080848737" r="2" />
	<circle cx="351.3534118620" cy="-374.2178222800" r="2" />
	<circle cx="113.6496534997" cy="-94.7586715673" r="2" />
	<circle cx="295.6957316220" cy="-238.8329454321" r="2" />
	<circle cx="566.3155078012" cy="-698.3970543617" r="2" />
	<circle cx="499.0203605138" cy="-862.8646900622" r="2" />
	<circle cx="486.6740937647" cy="-711.9592223337" r="2" />
	<circle cx="149.0263957581" cy="-161.0685103993" r="2" />
	<circle cx="520.5166440445" cy="-308.1598301899" r="2" />
	<circle cx="272.2582532702" cy="-104.6382329229" r="2" />
	<circle cx="510.5947301909" cy="-838.4316724449" r="2" />
	<circle cx="551.1084008938" cy="-740.5197702586" r="2" />
	<circle cx="960.2685501011" cy="-22.6506413036" r="2" />
	<circle cx="402.5544866618" cy="-161.0558573132" r="2" />
	<circle cx="148.2189093469" cy="-90.7130646444" r="2" />
	<circle cx="319.3718303866" cy="-184.1375841517" r="2" />
	<circle cx="932.4139231059" cy="-23.2591906561" r="2" />
	<circle cx="511.0225809837" cy="-378.7203948304" r="2" />
	<circle cx="0.1704387713" cy="-0.0984049080" r="2" />
	<circle cx="357.9363600420" cy="-438.2891942907" r="2" />
	<circle cx="747.4593266389" cy="-342.3092837524" r="2" />
	<circle cx="12.8574026425" cy="-6.7644331910" r="2" />
	<circle cx="999.9745370221" cy="-0.0127246743" r="2" />
	<circle cx="500.0893295891" cy="-865.7568086307" r="2" />
	<circle cx="887.2529534224" cy="-38.9396901572" r="2" />
	<circle cx="487.3940925460" cy="-520.5227725746" r="2" />
	<circle cx="495.5705683042" cy="-844.7534443909" r="2" />
	<circle cx="389.4322706916" cy="-422.4908384112" r="2" />
	<circle cx="540.8310933592" cy="-632.1255968173" r="2" />
	<circle cx="48.0543471256" cy="-25.2470742799" r="2" />
	<circle cx="90.0752362493" cy="-52.0645688941" r="2" />
	<circle cx="477.3208713152" cy="-252.4087208761" r="2" />
	<circle cx="312.4964433561" cy="-475.1044941752" r="2" />
	<circle cx="856.6826780460" cy="-159.1958085597" r="2" />
	<circle cx="252.7708092684" cy="-145.9334360301" r="2" />
	<circle cx="504.6250421525" cy="-744.5344752134" r="2" />
	<circle cx="571.6850233645" cy="-642.9503260765" r="2" />
	<circle cx="770.3702569354" cy="-276.5051737831" r="2" />
	<circle cx="499.9057281199" cy="-853.8290627239" r="2" />
	<circle cx="585.9161013052" cy="-595.3127008049" r="2" />
	<circle cx="403.1817994964" cy="-201.8586343512" r="2" />
	<circle cx="426.9167280373" cy="-486.5629163624" r="2" />
	<circle cx="160.8708974798" cy="-59.3954260821" r="2" />
	<circle cx="863.7301224847" cy="-202.2865887486" r="2" />
	<circle cx="255.0143360536" cy="-103.1952027645" r="2" />
	<circle cx="265.7600087590" cy="-77.8085526958" r="2" />
	<circle cx="577.5039176879" cy="-416.1773508111" r="2" />
	<circle cx="184.3816836971" cy="-66.0021643767" r="2" />
	<circle cx="3.2080037986" cy="-1.9656004206" r="2" />
	<circle cx="499.5973407708" cy="-334.1829996615" r="2" />
	<circle cx="710.5258813653" cy="-147.4907203434" r="2" />
	<circle cx="317.8628792754" cy="-274.0057942810" r="2" />
	<circle cx="496.9213900350" cy="-381.4002839714" r="2" />
	<circle cx="934.1729817379" cy="-30.3440708424" r="2" />
	<circle cx="484.6589442979" cy="-667.9632412309" r="2" />
	<circle cx="617.8708519151" cy="-221.7607366443" r="2" />
	<circle cx="466.6893840966" cy="-585.8063035740" r="2" />
	<circle cx="35.1725361676" cy="-10.1491361882" r="2" />
	<circle cx="584.1999957889" cy="-204.5441789143" r="2" />
	<circle cx="922.9239604103" cy="-24.5288824409" r="2" />
	<circle cx="855.7193447541" cy="-74.6458594107" r="2" />
	<circle cx="483.5693966182" cy="-533.4126177279" r="2" />
	<circle cx="342.8025522223" cy="-249.4877700497" r="2" />
	<circle cx="540.1282476292" cy="-170.4590874131" r="2" />
	<circle cx="414.4147158926" cy="-694.8504926038" r="2" />
	<circle cx="866.3795506438" cy="-116.5743889040" r="2" />
	<circle cx="249.8103650285" cy="-144.4084441741" r="2" />
	<circle cx="126.6407322936" cy="-156.9342399520" r="2" />
	<circle cx="66.5528877408" cy="-19.5857011620" r="2" />
	<circle cx="562.3880574331" cy="-693.7140316934" r="2" />
	<circle cx="10.5417071769" cy="-5.8982557603" r="2" />
	<circle cx="646.3052194958" cy="-413.4189940414" r="2" />
	<circle cx="795.0022265587" cy="-179.2506496193" r="2" />
	<circle cx="410.1502559958" cy="-444.3448907002" r="2" />
	<circle cx="45.8586239597" cy="-4.0728147166" r="2" />
	<circle cx="417.3766909437" cy="-598.7168648401" r="2" />
	<circle cx="11.4002590733" cy="-4.1262845668" r="2" />
	<circle cx="827.4366384170" cy="-152.6251470834" r="2" />
	<circle cx="429.3622703716" cy="-340.0554737279" r="2" />
	<circle cx="701.3755648205" cy="-79.1578540712" r="2" />
	<circle cx="69.3303452569" cy="-40.0471585950" r="2" />
	<circle cx="504.2126174910" cy="-815.8831619747" r="2" />
	<circle cx="10.1422929537" cy="-2.2963184531" r="2" />
	<circle cx="891.8618599495" cy="-36.8030396645" r="2" />
	<circle cx="608.4524576016" cy="-111.4052281586" r="2" />
	<circle cx="828.7819579064" cy="-63.8138444787" r="2" />
	<circle cx="97.5054820490" cy="-56.5708775712" r="2" />
	<circle cx="761.7873104070" cy="-384.2347099211" r="2" />
	<circle cx="499.9984139483" cy="-864.7369366899" r="2" />
	<circle cx="288.6938924583" cy="-8.5611572554" r="2" />
	<circle cx="500.3539709438" cy="-864.3249796128" r="2" />
	<circle cx="172.9973845364" cy="-235.1390787261" r="2" />
	<circle cx="796.1096541534" cy="-172.9967999770" r="2" />
	<circle cx="70.5986617055" cy="-113.1689645873" r="2" />
	<circle cx="726.0157434645" cy="-12.7331315873" r="2" />
	<circle cx="356.3759251540" cy="-381.3576744149" r="2" />
	<circle cx="507.1996267899" cy="-843.6576080227" r="2" />
	<circle cx="969.2582946102" cy="-17.7554612926" r="2" />
	<circle cx="967.9344674682" cy="-18.1736771780" r="2" />
	<circle cx="422.0561624772" cy="-705.0636907484" r="2" />
	<circle cx="747.7483356028" cy="-228.0664031709" r="2" />
	<circle cx="98.5529003127" cy="-56.8948733277" r="2" />
	<circle cx="18.8480527692" cy="-10.8754359707" r="2" />
	<circle cx="503.6646807099" cy="-659.5623285641" r="2" />
	<circle cx="999.4881136183" cy="-0.3666286651" r="2" />
	<circle cx="497.9557437028" cy="-847.9414653892" r="2" />
	<circle cx="783.3830965966" cy="-178.7517768953" r="2" />
	<circle cx="509.3642574388" cy="-691.0581753499" r="2" />
	<circle cx="534.4738556374" cy="-99.5236556201" r="2" />
	<circle cx="683.3058144956" cy="-139.2400348210" r="2" />
	<circle cx="490.7291588427" cy="-598.1435763466" r="2" />
	<circle cx="932.0304450617" cy="-106.1784408418" r="2" />
	<circle cx="201.8178479877" cy="-185.0367863160" r="2" />
	<circle cx="486.2776491715" cy="-332.0381936323" r="2" />
	<circle cx="114.3539647623" cy="-63.8843954293" r="2" />
	<circle cx="998.6719479401" cy="-0.7935127341" r="2" />
	<circle cx="90.5680748322" cy="-8.6895254519" r="2" />
	<circle cx="848.9371106676" cy="-73.4989001977" r="2" />
	<circle cx="707.2969702038" cy="-143.9744630224" r="2" />
	<circle cx="298.4856315354" cy="-271.8777888833" r="2" />
	<circle cx="999.0059751484" cy="-0.7796680677" r="2" />
	<circle cx="753.4739328851" cy="-96.2178116265" r="2" />
	<circle cx="994.1857218591" cy="-3.6310895468" r="2" />
	<circle cx="994.0525903528" cy="-3.4167661702" r="2" />
	<circle cx="403.4136982420" cy="-657.9877575007" r="2" />
	<circle cx="538.0130043374" cy="-433.4431550574" r="2" />
	<circle cx="500.3516112872" cy="-512.5066698973" r="2" />
	<circle cx="0.0276844100" cy="-0.0159838910" r="2" />
	<circle cx="276.6720150915" cy="-159.8847925424" r="2" />
	<circle cx="244.7795033023" cy="-112.8228579672" r="2" />
	<circle cx="143.5261556594" cy="-73.6306572788" r="2" />
	<circle cx="562.1053209829" cy="-122.0320988317" r="2" />
	<circle cx="499.9999998550" cy="-866.0223696314" r="2" />
	<circle cx="169.2617795792" cy="-90.3479520208" r="2" />
	<circle cx="500.1371753997" cy="-546.9966395691" r="2" />
	<circle cx="0.0577442790" cy="-0.0333713475" r="2" />
	<circle cx="33.3198416945" cy="-19.1589081382" r="2" />
	<circle cx="443.5114750683" cy="-384.3705736268" r="2" />
	<circle cx="499.9740732378" cy="-842.4220774267" r="2" />
	<circle cx="309.4950316886" cy="-304.5016231707" r="2" />
	<circle cx="9.8428906523" cy="-5.6775750982" r="2" />
	<circle cx="106.9543198997" cy="-22.9444851246" r="2" />
	<circle cx="63.8577679509" cy="-40.6226052384" r="2" />
	<circle cx="506.6726059919" cy="-777.5158779733" r="2" />
	<circle cx="689.7894600055" cy="-202.9524554984" r="2" />
	<circle cx="471.8003637208" cy="-765.7935944197" r="2" />
	<circle cx="538.4591081940" cy="-302.3812556476" r="2" />
	<circle cx="461.4102218243" cy="-686.2687438839" r="2" />
	<circle cx="498.3810718453" cy="-844.8083329418" r="2" />
	<circle cx="975.9412835949" cy="-2.8623756485" r="2" />
	<circle cx="503.3239199585" cy="-828.5588804065" r="2" />
	<circle cx="500.0582942001" cy="-826.9397770773" r="2" />
	<circle cx="6.7677289817" cy="-2.8198005815" r="2" />
	<circle cx="575.5864215790" cy="-287.7952383785" r="2" />
	<circle cx="327.8783052481" cy="-444.0411296411" r="2" />
	<circle cx="416.4480869635" cy="-240.5333656967" r="2" />
	<circle cx="472.1293753423" cy="-808.1626338697" r="2" />
	<circle cx="934.0886748180" cy="-30.4280268626" r="2" />
	<circle cx="125.3821295828" cy="-72.3026292041" r="2" />
	<circle cx="392.7928615245" cy="-392.3314267038" r="2" />
	<circle cx="111.1821528794" cy="-21.8948571377" r="2" />
	<circle cx="341.8936566640" cy="-174.8756780486" r="2" />
	<circle cx="818.2589318511" cy="-198.4096933919" r="2" />
	<circle cx="498.3646247124" cy="-291.1800534407" r="2" />
	<circle cx="361.6216812719" cy="-141.7097205841" r="2" />
	<circle cx="527.8455794779" cy="-131.6035061469" r="2" />
	<circle cx="692.7051390826" cy="-74.0272226572" r="2" />
	<circle cx="53.8388104361" cy="-83.8442055654" r="2" />
	<circle cx="78.6930830722" cy="-48.3993495425" r="2" />
	<circle cx="540.3317790251" cy="-720.2546966360" r="2" />
	<circle cx="499.9999375289" cy="-864.8106932599" r="2" />
	<circle cx="999.9352548868" cy="-0.0200252708" r="2" />
	<circle cx="499.9955264941" cy="-866.0091146300" r="2" />
	<circle cx="673.6950887790" cy="-69.0832652328" r="2" />
	<circle cx="0.1492809788" cy="-0.0860409708" r="2" />
	<circle cx="8.0731215543" cy="-4.3564266201" r="2" />
	<circle cx="11.7002967163" cy="-9.9493249876" r="2" />
	<circle cx="409.0089126402" cy="-471.6874321097" r="2" />
	<circle cx="500.0135765321" cy="-484.3975740444" r="2" />
	<circle cx="1.9527349542" cy="-0.5630741079" r="2" />
	<circle cx="923.8672013088" cy="-43.9537021936" r="2" />
	<circle cx="0.9542189582" cy="-0.5518674122" r="2" />
	<circle cx="832.8720490198" cy="-102.1081675213" r="2" />
	<circle cx="996.2069139812" cy="-2.1872551519" r="2" />
	<circle cx="4.0971856975" cy="-4.4997600079" r="2" />
	<circle cx="137.9443775620" cy="-166.4868876762" r="2" />
	<circle cx="137.8794524442" cy="-80.9647708743" r="2" />
	<circle cx="461.6635978359" cy="-738.9811219107" r="2" />
	<circle cx="901.3990133533" cy="-76.7962138579" r="2" />
	<circle cx="559.8084244547" cy="-725.3582732557" r="2" />
	<circle cx="0.0720410773" cy="-0.0313493190" r="2" />
	<circle cx="600.5714387652" cy="-440.2694602779" r="2" />
	<circle cx="498.2424343951" cy="-761.8388542840" r="2" />
	<circle cx="513.1775429669" cy="-511.1622774368" r="2" />
	<circle cx="996.1421296872" cy="-1.3755603691" r="2" />
	<circle cx="459.8498128337" cy="-751.2925550356" r="2" />
	<circle cx="854.2482159558" cy="-174.7465389491" r="2" />
	<circle cx="575.3521577330" cy="-643.7231392285" r="2" />
	<circle cx="370.5970710650" cy="-207.6971303911" r="2" />
	<circle cx="990.2004294263" cy="-3.7381319393" r="2" />
	<circle cx="690.2002273239" cy="-122.7615617132" r="2" />
	<circle cx="914.2954244547" cy="-88.0227820593" r="2" />
	<circle cx="133.0711140740" cy="-76.8293356476" r="2" />
	<circle cx="0.2807576777" cy="-0.0353083886" r="2" />
	<circle cx="691.2000332016" cy="-312.0920312979" r="2" />
	<circle cx="499.7850079888" cy="-333.8555207203" r="2" />
	<circle cx="953.5202535714" cy="-32.1185195184" r="2" />
	<circle cx="500.2210324738" cy="-862.9375881726" r="2" />
	<circle cx="81.2255035294" cy="-47.3130680503" r="2" />
	<circle cx="994.8881685036" cy="-1.8541233064" r="2" />
	<circle cx="957.2398798883" cy="-24.6854196294" r="2" />
	<circle cx="70.2428702124" cy="-49.9513781348" r="2" />
	<circle cx="271.1174021760" cy="-219.8179994154" r="2" />
	<circle cx="141.4996343582" cy="-180.3977567675" r="2" />
	<circle cx="552.5356610309" cy="-255.0378647255" r="2" />
	<circle cx="855.0655219512" cy="-217.9307342642" r="2" />
	<circle cx="688.1250487621" cy="-450.9574255199" r="2" />
	<circle cx="907.7570209668" cy="-25.8865469967" r="2" />
	<circle cx="546.4949487076" cy="-589.0535807947" r="2" />
	<circle cx="179.8628081156" cy="-181.0855621699" r="2" />
	<circle cx="390.1331942940" cy="-428.1087107363" r="2" />
	<circle cx="32.4816825738" cy="-18.7556808313" r="2" />
	<circle cx="584.8548073882" cy="-636.8112075506" r="2" />
	<circle cx="9.4618825034" cy="-5.4589027538" r="2" />
	<circle cx="68.3821594446" cy="-35.8371788071" r="2" />
	<circle cx="72.2808176733" cy="-41.6757345712" r="2" />
	<circle cx="505.9625115539" cy="-557.6967727284" r="2" />
	<circle cx="509.4865181853" cy="-800.3707677615" r="2" />
	<circle cx="91.6359437041" cy="-80.9825968532" r="2" />
	<circle cx="338.6540411494" cy="-254.1460446334" r="2" />
	<circle cx="393.2590491326" cy="-233.7431318348" r="2" />
	<circle cx="392.9868589201" cy="-548.9549802848" r="2" />
	<circle cx="400.2492503843" cy="-537.4551783166" r="2" />
	<circle cx="824.9656742048" cy="-226.9407817280" r="2" />
	<circle cx="648.8321667457" cy="-248.2732366570" r="2" />
	<circle cx="499.6696330668" cy="-860.8694455225" r="2" />
	<circle cx="1.3518749712" cy="-0.3859429697" r="2" />
	<circle cx="499.0067700470" cy="-768.2125465565" r="2" />
	<circle cx="862.8966808243" cy="-34.9544245788" r="2" />
	<circle cx="395.0849047766" cy="-187.4432750384" r="2" />
	<circle cx="670.4844543823" cy="-249.9293967824" r="2" />
	<circle cx="500.0060154025" cy="-865.9817034536" r="2" />
	<circle cx="476.6194287265" cy="-669.9498255972" r="2" />
	<circle cx="497.2196269130" cy="-226.6188908315" r="2" />
	<circle cx="999.9914166384" cy="-0.0045480276" r="2" />
	<circle cx="0.1373022092" cy="-0.0792214231" r="2" />
	<circle cx="480.2845872843" cy="-823.3635474216" r="2" />
	<circle cx="488.4098877627" cy="-811.5569362263" r="2" />
	<circle cx="500.1812529580" cy="-863.8703366495" r="2" />
	<circle cx="797.6533641659" cy="-75.0385417551" r="2" />
	<circle cx="0.5464673660" cy="-0.3533895662" r="2" />
	<circle cx="499.5472287635" cy="-864.5753173516" r="2" />
	<circle cx="507.8797881484" cy="-601.9313760817" r="2" />
	<circle cx="85.8802368186" cy="-81.1317722598" r="2" />
	<circle cx="356.8013112012" cy="-115.3221654183" r="2" />
	<circle cx="500.0001712266" cy="-866.0242405262" r="2" />
	<circle cx="506.8049967119" cy="-849.6652222352" r="2" />
	<circle cx="996.1054271521" cy="-1.2559256067" r="2" />
	<circle cx="499.9999999912" cy="-866.0252002994" r="2" />
	<circle cx="690.2081148241" cy="-167.6116573505" r="2" />
	<circle cx="8.4845773295" cy="-4.8969621971" r="2" />
	<circle cx="303.8374433419" cy="-196.6808151576" r="2" />
	<circle cx="693.3063296845" cy="-252.5124093480" r="2" />
	<circle cx="388.6563368304" cy="-237.4998372492" r="2" />
	<circle cx="500.4034371750" cy="-856.7009105133" r="2" />
	<circle cx="481.9940109919" cy="-602.0997444189" r="2" />
	<circle cx="500.0221417299" cy="-865.7400526329" r="2" />
	<circle cx="514.0156618576" cy="-337.0947938878" r="2" />
	<circle cx="547.6550978425" cy="-777.2512035474" r="2" />
	<circle cx="495.4880721588" cy="-830.0271596634" r="2" />
	<circle cx="180.2113303953" cy="-98.8134139366" r="2" />
	<circle cx="376.1642288860" cy="-394.4790101495" r="2" />
	<circle cx="485.2939283484" cy="-280.0327578908" r="2" />
	<circle cx="401.5422334070" cy="-221.3029974803" r="2" />
	<circle cx="3.1799596630" cy="-3.3395420268" r="2" />
	<circle cx="497.0005384317" cy="-766.6706084231" r="2" />
	<circle cx="861.8703485195" cy="-65.0887335464" r="2" />
	<circle cx="416.3181535328" cy="-241.6025964556" r="2" />
	<circle cx="691.1984365532" cy="-76.3066333359" r="2" />
	<circle cx="504.1330718516" cy="-839.7856639448" r="2" />
	<circle cx="500.0588683502" cy="-865.8595070317" r="2" />
	<circle cx="499.9759513391" cy="-865.9016604513" r="2" />
	<circle cx="980.7713724695" cy="-11.0930710685" r="2" />
	<circle cx="994.5039515435" cy="-3.9743325074" r="2" />
	<circle cx="853.7956966626" cy="-208.4767632902" r="2" />
	<circle cx="748.4011612893" cy="-148.5923225837" r="2" />
	<circle cx="416.0896326815" cy="-494.7815570383" r="2" />
	<circle cx="500.0331548810" cy="-398.5681579945" r="2" />
	<circle cx="632.6837431482" cy="-374.3089994248" r="2" />
	<circle cx="524.5099852728" cy="-511.6074119662" r="2" />
	<circle cx="276.2934232059" cy="-37.2497613351" r="2" />
	<circle cx="756.7186633317" cy="-33.2609633223" r="2" />
	<circle cx="571.6227196316" cy="-601.4283702222" r="2" />
	<circle cx="9.7050147820" cy="-5.4994601928" r="2" />
	<circle cx="538.4747247282" cy="-407.2715491029" r="2" />
	<circle cx="500.0216167029" cy="-865.0419755301" r="2" />
	<circle cx="499.9616987575" cy="-696.0246575760" r="2" />
	<circle cx="147.7866395237" cy="-200.1311265649" r="2" />
	<circle cx="513.7179847232" cy="-798.8088792449" r="2" />
	<circle cx="960.9794787287" cy="-8.2224288840" r="2" />
	<circle cx="445.2454613293" cy="-191.8533495973" r="2" />
	<circle cx="508.3033874108" cy="-718.0927948133" r="2" />
	<circle cx="500.1426942757" cy="-579.8471219763" r="2" />
	<circle cx="873.2288432343" cy="-116.8112571379" r="2" />
	<circle cx="529.5362153385" cy="-246.3718418313" r="2" />
	<circle cx="875.2146567694" cy="-40.1549261612" r="2" />
	<circle cx="954.1466257019" cy="-28.9232209487" r="2" />
	<circle cx="500.8064308110" cy="-844.2644090282" r="2" />
	<circle cx="0.0419072186" cy="-0.0220359946" r="2" />
	<circle cx="439.3807165248" cy="-125.9796657144" r="2" />
	<circle cx="18.3088242362" cy="-10.5829933758" r="2" />
	<circle cx="960.2960332281" cy="-9.6669100733" r="2" />
	<circle cx="397.6783734990" cy="-161.0685176908" r="2" />
	<circle cx="835.4362234887" cy="-9.6865319552" r="2" />
	<circle cx="267.8482841647" cy="-192.6856380850" r="2" />
	<circle cx="284.4157155620" cy="-411.3635597626" r="2" />
	<circle cx="981.7843564059" cy="-6.8500403728" r="2" />
	<circle cx="180.0949303024" cy="-34.8514542444" r="2" />
	<circle cx="787.0031298280" cy="-100.1180797990" r="2" />
	<circle cx="517.8800063044" cy="-364.7700057308" r="2" />
	<circle cx="67.9619239808" cy="-39.2374516943" r="2" />
	<circle cx="542.3305519542" cy="-670.9282225129" r="2" />
	<circle cx="802.5846694275" cy="-112.6450408860" r="2" />
	<circle cx="330.1709720779" cy="-124.6241111769" r="2" />
	<circle cx="496.6232048849" cy="-697.5661566210" r="2" />
	<circle cx="254.2934643969" cy="-78.3940529778" r="2" />
	<circle cx="464.1202894263" cy="-698.5379676809" r="2" />
	<circle cx="968.1313414758" cy="-18.3821679872" r="2" />
	<circle cx="449.8428721530" cy="-179.3457669499" r="2" />
	<circle cx="31.9519779978" cy="-18.4474201687" r="2" />
	<circle cx="975.1310423499" cy="-17.3165697806" r="2" />
	<circle cx="499.6975382069" cy="-860.7582579459" r="2" />
	<circle cx="576.9506248036" cy="-711.5695612426" r="2" />
	<circle cx="498.3834307222" cy="-291.1617784947" r="2" />
	<circle cx="500.0021288041" cy="-838.9622169086" r="2" />
	<circle cx="0.2410608860" cy="-0.1336646564" r="2" />
	<circle cx="995.3808814041" cy="-1.8811682818" r="2" />
	<circle cx="984.0291425788" cy="-9.5092338806" r="2" />
	<circle cx="546.7269472425" cy="-679.1907986506" r="2" />
	<circle cx="475.4074769641" cy="-695.0603506923" r="2" />
	<circle cx="370.2059997992" cy="-334.4956693314" r="2" />
	<circle cx="116.8691147588" cy="-67.8932224389" r="2" />
	<circle cx="260.9071429139" cy="-150.4612435665" r="2" />
	<circle cx="923.1260189125" cy="-25.0097615297" r="2" />
	<circle cx="170.8498400330" cy="-120.6992381844" r="2" />
	<circle cx="662.9150427184" cy="-455.2297612816" r="2" />
	<circle cx="760.7547238796" cy="-138.1346906643" r="2" />
	<circle cx="999.3439221347" cy="-0.2480444351" r="2" />
	<circle cx="342.2765332810" cy="-514.6136076351" r="2" />
	<circle cx="744.3343183718" cy="-372.7639189052" r="2" />
	<circle cx="508.0558538486" cy="-452.1287016595" r="2" />
	<circle cx="499.2749721167" cy="-852.7959997548" r="2" />
	<circle cx="503.5190219156" cy="-835.4729678187" r="2" />
	<circle cx="150.6937059664" cy="-120.9396538033" r="2" />
	<circle cx="500.1560280264" cy="-865.2090656975" r="2" />
	<circle cx="500.0145774187" cy="-861.7748682704" r="2" />
	<circle cx="982.4447133936" cy="-8.1995127683" r="2" />
	<circle cx="499.6966114966" cy="-864.1193005252" r="2" />
	<circle cx="999.1594057038" cy="-0.4857066575" r="2" />
	<circle cx="609.0070340946" cy="-446.2266575224" r="2" />
	<circle cx="822.8411241381" cy="-90.6393123310" r="2" />
	<circle cx="500.0007259362" cy="-862.1247613769" r="2" />
	<circle cx="1.2922722924" cy="-0.8625964523" r="2" />
	<circle cx="940.9330857591" cy="-54.7358074921" r="2" />
	<circle cx="499.9999284214" cy="-865.9914586285" r="2" />
	<circle cx="205.8417838298" cy="-212.4703152577" r="2" />
	<circle cx="794.1519822638" cy="-89.1889595624" r="2" />
	<circle cx="999.0822843973" cy="-0.3201743250" r="2" />
	<circle cx="1.1972139290" cy="-0.3365923494" r="2" />
	<circle cx="383.1431690078" cy="-587.8274438455" r="2" />
	<circle cx="592.3224532916" cy="-288.4710859421" r="2" />
	<circle cx="0.5554454276" cy="-0.3502564332" r="2" />
	<circle cx="68.3891881577" cy="-31.8507249293" r="2" />
	<circle cx="527.7468743318" cy="-589.0802087083" r="2" />
	<circle cx="126.2187043300" cy="-75.9312987184" r="2" />
	<circle cx="523.5475410246" cy="-745.4310708311" r="2" />
	<circle cx="108.8886352297" cy="-54.7165038097" r="2" />
	<circle cx="503.3861760220" cy="-462.4186199652" r="2" />
	<circle cx="370.6025143340" cy="-207.8991161430" r="2" />
	<circle cx="106.0827900824" cy="-121.4867120447" r="2" />
	<circle cx="878.9799986448" cy="-69.9438189577" r="2" />
	<circle cx="500.6531030732" cy="-861.2974988871" r="2" />
	<circle cx="49.9334552833" cy="-5.3393955073" r="2" />
	<circle cx="499.9986616848" cy="-866.0133944694" r="2" />
	<circle cx="11.5976602724" cy="-6.6872758101" r="2" />
	<circle cx="153.2224665825" cy="-140.5392179297" r="2" />
	<circle cx="437.8094290604" cy="-746.4527253602" r="2" />
	<circle cx="677.0115348661" cy="-314.8114097677" r="2" />
	<circle cx="848.9961989607" cy="-46.4731496227" r="2" />
	<circle cx="14.6872125218" cy="-6.4574945961" r="2" />
	<circle cx="0.0276843675" cy="-0.0159837449" r="2" />
	<circle cx="498.3344717581" cy="-756.8276559867" r="2" />
	<circle cx="498.6703125570" cy="-860.4659355782" r="2" />
	<circle cx="44.1724382649" cy="-51.7731331879" r="2" />
	<circle cx="951.1815541306" cy="-32.2392836937" r="2" />
	<circle cx="571.9674082953" cy="-335.0268116908" r="2" />
	<circle cx="945.2860430637" cy="-8.3799731307" r="2" />
	<circle cx="234.7140813643" cy="-250.7519046793" r="2" />
	<circle cx="487.0250334835" cy="-101.8261457179" r="2" />
	<circle cx="598.2302494243" cy="-536.3567482973" r="2" />
	<circle cx="359.6429811932" cy="-175.3071261469" r="2" />
	<circle cx="772.0170704432" cy="-308.1888139798" r="2" />
	<circle cx="0.0039563522" cy="-0.0008870334" r="2" />
	<circle cx="583.6794042955" cy="-241.5676006913" r="2" />
	<circle cx="102.3445931427" cy="-59.3240742039" r="2" />
	<circle cx="927.6961558135" cy="-41.6759059458" r="2" />
	<circle cx="500.0011337582" cy="-835.5077470144" r="2" />
	<circle cx="499.7495032846" cy="-820.2903209037" r="2" />
	<circle cx="901.8864116831" cy="-43.1285949354" r="2" />
	<circle cx="462.7232873999" cy="-208.7160088151" r="2" />
	<circle cx="102.2470178952" cy="-57.8500794709" r="2" />
	<circle cx="73.7936468197" cy="-42.5673904541" r="2" />
	<circle cx="935.2445746192" cy="-105.1088291913" r="2" />
	<circle cx="782.4085177434" cy="-171.5549411865" r="2" />
	<circle cx="330.5183794262" cy="-184.0624137296" r="2" />
	<circle cx="499.8901764192" cy="-681.8625281441" r="2" />
	<circle cx="500.0000019047" cy="-866.0205600113" r="2" />
	<circle cx="482.2025981221" cy="-751.7661720324" r="2" />
	<circle cx="999.0097250317" cy="-0.5561199468" r="2" />
	<circle cx="909.0753651610" cy="-41.8396706249" r="2" />
	<circle cx="724.6126457331" cy="-79.3175898636" r="2" />
	<circle cx="684.3902312770" cy="-207.6672572514" r="2" />
	<circle cx="514.0234330297" cy="-572.9589269561" r="2" />
	<circle cx="907.2072345538" cy="-40.9801124041" r="2" />
	<circle cx="531.3849641916" cy="-776.0433555311" r="2" />
	<circle cx="494.9611059783" cy="-847.7539509444" r="2" />
	<circle cx="499.9881384209" cy="-809.4030159745" r="2" />
	<circle cx="573.4033389380" cy="-299.1386273949" r="2" />
	<circle cx="791.7584408704" cy="-261.9411357214" r="2" />
	<circle cx="527.6057128633" cy="-649.1056273082" r="2" />
	<circle cx="501.3468931334" cy="-816.6604779559" r="2" />
	<circle cx="289.6855472626" cy="-177.4049971096" r="2" />
	<circle cx="711.7597483974" cy="-109.6605410543" r="2" />
	<circle cx="494.1541573565" cy="-715.6481042381" r="2" />
	<circle cx="2.1295179493" cy="-0.4122837351" r="2" />
	<circle cx="603.8563063078" cy="-102.0431147394" r="2" />
	<circle cx="846.7635817785" cy="-159.6001074730" r="2" />
	<circle cx="0.0064883283" cy="-0.0077255744" r="2" />
	<circle cx="339.9230520569" cy="-275.2008179922" r="2" />
	<circle cx="999.9683266954" cy="-0.0195510689" r="2" />
	<circle cx="426.7163865577" cy="-246.0404566062" r="2" />
	<circle cx="0.0546570699" cy="-0.0314426236" r="2" />
	<circle cx="149.5834868422" cy="-55.4926094276" r="2" />
	<circle cx="0.0444358838" cy="-0.0256609145" r="2" />
	<circle cx="874.8687025583" cy="-72.1930662916" r="2" />
	<circle cx="711.7317387781" cy="-98.2154759809" r="2" />
	<circle cx="19.6741945435" cy="-16.4690824193" r="2" />
	<circle cx="499.9770689419" cy="-809.0845266957" r="2" />
	<circle cx="414.1015571355" cy="-336.9162396686" r="2" />
	<circle cx="499.9971803447" cy="-857.7515196053" r="2" />
	<circle cx="423.2410438585" cy="-153.3152833900" r="2" />
	<circle cx="472.3754829506" cy="-226.3382936673" r="2" />
	<circle cx="505.0317428597" cy="-815.3811170333" r="2" />
	<circle cx="770.4859604799" cy="-240.0076776180" r="2" />
	<circle cx="521.1658798542" cy="-709.5106324601" r="2" />
	<circle cx="535.7291695442" cy="-674.5766775662" r="2" />
	<circle cx="769.9097907017" cy="-114.1092998870" r="2" />
	<circle cx="474.4169268081" cy="-583.8587925226" r="2" />
	<circle cx="377.4629931225" cy="-218.2300037218" r="2" />
	<circle cx="694.5076553693" cy="-161.8710170026" r="2" />
	<circle cx="843.8317350434" cy="-88.7128125262" r="2" />
	<circle cx="108.4634490948" cy="-62.6230212802" r="2" />
	<circle cx="4.9200436376" cy="-1.3729956772" r="2" />
	<circle cx="5.1781512995" cy="-2.9896404294" r="2" />
	<circle cx="997.5286098832" cy="-0.3753670634" r="2" />
	<circle cx="74.4752070520" cy="-48.8180290204" r="2" />
	<circle cx="500.2672080961" cy="-829.2232508244" r="2" />
	<circle cx="446.4208009078" cy="-48.6501335722" r="2" />
	<circle cx="993.0560504132" cy="-4.0998846500" r="2" />
	<circle cx="911.7060587359" cy="-88.8573379571" r="2" />
	<circle cx="492.3729653738" cy="-383.5160597672" r="2" />
	<circle cx="218.0916046488" cy="-186.7408118954" r="2" />
	<circle cx="988.4228021522" cy="-6.6679668676" r="2" />
	<circle cx="394.0377366067" cy="-284.8901692530" r="2" />
	<circle cx="539.3842568214" cy="-385.1910996154" r="2" />
	<circle cx="999.1451415108" cy="-0.4929105292" r="2" />
	<circle cx="499.9678895335" cy="-864.2298109548" r="2" />
	<circle cx="331.6432390593" cy="-223.7994276992" r="2" />
	<circle cx="104.4637319186" cy="-41.5055100250" r="2" />
	<circle cx="0.6350139189" cy="-0.6102040680" r="2" />
	<circle cx="493.2842933819" cy="-590.2838210452" r="2" />
	<circle cx="500.2016561870" cy="-861.6583607285" r="2" />
	<circle cx="988.9054428103" cy="-7.2424947290" r="2" />
	<circle cx="499.9971707149" cy="-815.9586352924" r="2" />
	<circle cx="100.1268274754" cy="-69.3529472912" r="2" />
	<circle cx="499.0157953186" cy="-310.0768632952" r="2" />
	<circle cx="491.5570598190" cy="-799.5947282430" r="2" />
	<circle cx="976.0471569053" cy="-11.3923574311" r="2" />
	<circle cx="394.9959379850" cy="-255.1443423464" r="2" />
	<circle cx="929.2213511094" cy="-43.8618913925" r="2" />
  </g>
  <g id="fig2" transform="translate(-550.0,1000)">
	<polygon points="0.0,-0.0 1000.0,-0.0 500.0,-866.0254038" />
	<line
	   id="line2-1"
	   y2="-0.0"
	   x2="500"
	   y1="-288.6751346"
	   x1="500" />
	<line
	   id="line2-2"
	   y2="-433.0127019"
	   x2="250"
	   y1="-288.6751346"
	   x1="500" />
	<line
	   id="line2-3"
	   y2="-433.0127019"
	   x2="750"
	   y1="-288.6751346"
	   x1="500" />
	<text
	   x="440"
	   y="-500"
	   id="up_2">36.0%</text>
	<text
	   x="250"
	   y="-150"
	   id="down_left_2">34.6%</text>
	<text
	   x="630"
	   y="-150"
	   id="down_right_2">29.4%</text>
  </g>
  <g id="fig3" transform="translate(550,1000)">
	<polygon points="0.0,-0.0 1000.0,-0.0 500.0,-866.0254038" />
	<polygon id="triangle3b" points="250,-144.3375673 750,-144.3375673 500,-577.3502692" />
	<line
	   id="line3-1"
	   x1="125"
	   y1="-216.5063509"
	   x2="250"
	   y2="-144.3375673" />
	<line
	   id="line3-2"
	   x1="375"
	   y1="-649.5190528"
	   x2="500"
	   y2="-577.3502692" />
	<line
	   id="line3-3"
	   x1="625"
	   y1="-649.5190528"
	   x2="500"
	   y2="-577.3502692" />
	<line
	   id="line3-4"
	   x1="875"
	   y1="-216.5063509"
	   x2="750"
	   y2="-144.3375673" />
	<line
	   id="line3-5"
	   x1="750"
	   y1="-0.0"
	   x2="750"
	   y2="-144.3375673" />
	<line
	   id="line3-6"
	   x1="250"
	   y1="-0.0"
	   x2="250"
	   y2="-144.3375673" />
	<text
	   x="500"
	   y="-660"
	   text-anchor="middle"
	   id="up_3">23.6%</text>
	<text
	   y="-50"
	   x="70"
	   id="down_left_3">21.8%</text>
	<text
	   y="-50"
	   x="770"
	   id="down_right_3">18.8%</text>
	<text
	   x="500"
	   y="-50"
	   text-anchor="middle"
	   id="down_side_3">5.8%</text>
	<text
	   x="500"
	   y="-280"
	   text-anchor="middle"
	   id="center_3">17.2%</text>
	<text
	   x="685.0"
	   y="-390.8439"
	   text-anchor="middle"
	   transform="rotate(60,665.0,-380.8439)"
	   id="right_side_3">6.4%</text>
	<text
	   x="315.0"
	   y="-390.8439"
	   text-anchor="middle"
	   transform="rotate(-60,335.0,-380.8439)"
	   id="left_side_3">6.4%</text>
  </g>
</g></g>
</svg>
