<?xml version="1.0" encoding="UTF-8" standalone="no"?>
<!DOCTYPE svg PUBLIC "-//W3C//DTD SVG 1.1//EN" "http://www.w3.org/Graphics/SVG/1.1/DTD/svg11.dtd">
<svg
   xmlns:svg="http://www.w3.org/2000/svg"
   xmlns="http://www.w3.org/2000/svg"
   xmlns:xlink="http://www.w3.org/1999/xlink"
   version="1.1"
   baseProfile="full"
   id="body"
   width="800px"
   height="800px"
   viewBox="0 0 1000 1000"
   preserveAspectRatio="none">
  <defs>
    <style type="text/css"><![CDATA[
      circle{ stroke: none; }
      polygon{ stroke: black; stroke-width: 2px; fill: none; }
      line{ stroke: black; stroke-width: 2px; }
      text{ font-size:50px; }
    ]]></style>
  </defs>
  <title
     id="title1">SVG drawing</title>
<g transform="scale(0.45)"><g transform="translate(600,1050)">
  <g id="fig1">
	<polygon points="0.0,-0.0 1000.0,-0.0 500,-866.0254038" />
	<circle cx="500.8827657315" cy="-429.2463603609" r="2" />
	<circle cx="499.9999999942" cy="-866.0253701860" r="2" />
	<circle cx="1000.0000000000" cy="-0.0000000000" r="2" />
	<circle cx="500.0000000000" cy="-866.0254038000" r="2" />
	<circle cx="500.4728535690" cy="-858.3788935902" r="2" />
	<circle cx="27.8245905708" cy="-17.7642834937" r="2" />
	<circle cx="0.0000148829" cy="-0.0000096684" r="2" />
	<circle cx="500.0000000000" cy="-866.0254038000" r="2" />
	<circle cx="500.1625664470" cy="-860.1214663510" r="2" />
	<circle cx="500.0000000000" cy="-866.0254037996" r="2" />
	<circle cx="992.1114679989" cy="-4.5542885645" r="2" />
	<circle cx="999.9995043672" cy="-0.0002863858" r="2" />
	<circle cx="500.0092870566" cy="-354.2254394954" r="2" />
	<circle cx="500.0000000000" cy="-866.0254038000" r="2" />
	<circle cx="500.0002386480" cy="-861.3089003912" r="2" />
	<circle cx="499.9999454954" cy="-866.0210399913" r="2" />
	<circle cx="1000.0000000000" cy="-0.0000000000" r="2" />
	<circle cx="1000.0000000000" cy="-0.0000000000" r="2" />
	<circle cx="513.8573725076" cy="-840.4831578461" r="2" />
	<circle cx="499.9999909541" cy="-866.0202337977" r="2" />
	<circle cx="500.0000000000" cy="-866.0254036142" r="2" />
	<circle cx="500.0000000000" cy="-866.0254037994" r="2" />
	<circle cx="1000.0000000000" cy="-0.0000000000" r="2" />
	<circle cx="0.0000000000" cy="-0.0000000000" r="2" />
	<circle cx="0.0000340322" cy="-0.0000151722" r="2" />
	<circle cx="922.2744667988" cy="-39.4157154158" r="2" />
	<circle cx="0.0000000039" cy="-0.0000000022" r="2" />
	<circle cx="500.0000000000" cy="-866.0254038000" r="2" />
	<circle cx="0.0000000000" cy="-0.0000000000" r="2" />
	<circle cx="500.0000000000" cy="-866.0254038000" r="2" />
	<circle cx="499.9730776207" cy="-766.1598381991" r="2" />
	<circle cx="0.0000000000" cy="-0.0000000000" r="2" />
	<circle cx="999.6560465970" cy="-0.1983173660" r="2" />
	<circle cx="0.0000000000" cy="-0.0000000000" r="2" />
	<circle cx="815.0330058925" cy="-110.2812288735" r="2" />
	<circle cx="1000.0000000000" cy="-0.0000000000" r="2" />
	<circle cx="0.0000000000" cy="-0.0000000000" r="2" />
	<circle cx="0.0009310022" cy="-0.0005379751" r="2" />
	<circle cx="500.0003142489" cy="-864.4462047688" r="2" />
	<circle cx="1000.0000000000" cy="-0.0000000000" r="2" />
	<circle cx="0.0000000000" cy="-0.0000000000" r="2" />
	<circle cx="0.0000000000" cy="-0.0000000000" r="2" />
	<circle cx="500.0000000000" cy="-866.0254038000" r="2" />
	<circle cx="1000.0000000000" cy="-0.0000000000" r="2" />
	<circle cx="1000.0000000000" cy="-0.0000000000" r="2" />
	<circle cx="571.6194137650" cy="-80.6502850027" r="2" />
	<circle cx="500.0000000002" cy="-866.0253997346" r="2" />
	<circle cx="391.4597915224" cy="-363.2385804957" r="2" />
	<circle cx="938.0450662356" cy="-35.2853061463" r="2" />
	<circle cx="1000.0000000000" cy="-0.0000000000" r="2" />
	<circle cx="500.0000000000" cy="-866.0254037999" r="2" />
	<circle cx="0.0000000000" cy="-0.0000000000" r="2" />
	<circle cx="499.9999028924" cy="-862.4801531788" r="2" />
	<circle cx="500.0000000000" cy="-866.0254038000" r="2" />
	<circle cx="499.9999999976" cy="-866.0253982292" r="2" />
	<circle cx="1000.0000000000" cy="-0.0000000000" r="2" />
	<circle cx="295.3812386565" cy="-161.0934418833" r="2" />
	<circle cx="1000.0000000000" cy="-0.0000000000" r="2" />
	<circle cx="500.0000000000" cy="-866.0254038000" r="2" />
	<circle cx="1000.0000000000" cy="-0.0000000000" r="2" />
	<circle cx="500.0000000000" cy="-866.0254037949" r="2" />
	<circle cx="0.0000002083" cy="-0.0000001202" r="2" />
	<circle cx="0.0000000000" cy="-0.0000000000" r="2" />
	<circle cx="499.9965224998" cy="-865.9453709520" r="2" />
	<circle cx="0.0001724517" cy="-0.0001011485" r="2" />
	<circle cx="291.9026303485" cy="-168.5183839485" r="2" />
	<circle cx="0.0000000000" cy="-0.0000000000" r="2" />
	<circle cx="950.0514558069" cy="-16.8867506333" r="2" />
	<circle cx="510.6837750287" cy="-649.1401563441" r="2" />
	<circle cx="1000.0000000000" cy="-0.0000000000" r="2" />
	<circle cx="500.0000000000" cy="-866.0254038000" r="2" />
	<circle cx="1000.0000000000" cy="-0.0000000000" r="2" />
	<circle cx="0.0000000281" cy="-0.0000000162" r="2" />
	<circle cx="0.0711283989" cy="-0.0370462801" r="2" />
	<circle cx="0.0000000000" cy="-0.0000000000" r="2" />
	<circle cx="500.0000000000" cy="-866.0254038000" r="2" />
	<circle cx="500.0000000000" cy="-866.0254031213" r="2" />
	<circle cx="0.0000599750" cy="-0.0000351296" r="2" />
	<circle cx="500.0000000000" cy="-866.0254038000" r="2" />
	<circle cx="244.1590884890" cy="-158.5033499135" r="2" />
	<circle cx="1000.0000000000" cy="-0.0000000000" r="2" />
	<circle cx="1000.0000000000" cy="-0.0000000000" r="2" />
	<circle cx="500.0000000000" cy="-866.0254038000" r="2" />
	<circle cx="1000.0000000000" cy="-0.0000000000" r="2" />
	<circle cx="0.0000002105" cy="-0.0000001189" r="2" />
	<circle cx="500.0000000000" cy="-866.0254038000" r="2" />
	<circle cx="1000.0000000000" cy="-0.0000000000" r="2" />
	<circle cx="499.9999914601" cy="-865.9028409490" r="2" />
	<circle cx="330.9867172587" cy="-268.7244270837" r="2" />
	<circle cx="1000.0000000000" cy="-0.0000000000" r="2" />
	<circle cx="0.0000002647" cy="-0.0000001528" r="2" />
	<circle cx="0.0000000000" cy="-0.0000000000" r="2" />
	<circle cx="0.0000023495" cy="-0.0000013552" r="2" />
	<circle cx="999.9996569939" cy="-0.0002769120" r="2" />
	<circle cx="508.2550846212" cy="-529.6729024483" r="2" />
	<circle cx="999.9999998805" cy="-0.0000000794" r="2" />
	<circle cx="208.0767029910" cy="-112.9542290878" r="2" />
	<circle cx="495.8208819899" cy="-842.6582333756" r="2" />
	<circle cx="0.3218625612" cy="-0.1830866009" r="2" />
	<circle cx="999.9992606857" cy="-0.0004268853" r="2" />
	<circle cx="0.0000000000" cy="-0.0000000000" r="2" />
	<circle cx="500.0000000000" cy="-866.0254038000" r="2" />
	<circle cx="0.0000024670" cy="-0.0000014237" r="2" />
	<circle cx="999.9896045573" cy="-0.0060006161" r="2" />
	<circle cx="0.0783397992" cy="-0.0332195405" r="2" />
	<circle cx="0.0000000000" cy="-0.0000000000" r="2" />
	<circle cx="564.2172313509" cy="-365.8068822276" r="2" />
	<circle cx="2.2891735655" cy="-1.3223025042" r="2" />
	<circle cx="1000.0000000000" cy="-0.0000000000" r="2" />
	<circle cx="509.2109737006" cy="-384.5462084815" r="2" />
	<circle cx="643.0602232033" cy="-241.3208378252" r="2" />
	<circle cx="0.0078627139" cy="-0.0045419372" r="2" />
	<circle cx="0.0000076062" cy="-0.0000043929" r="2" />
	<circle cx="1000.0000000000" cy="-0.0000000000" r="2" />
	<circle cx="1000.0000000000" cy="-0.0000000000" r="2" />
	<circle cx="885.3234869775" cy="-24.9521629268" r="2" />
	<circle cx="0.0000000000" cy="-0.0000000000" r="2" />
	<circle cx="500.0000189109" cy="-865.8900885028" r="2" />
	<circle cx="82.0319333241" cy="-47.3210887776" r="2" />
	<circle cx="500.0000000000" cy="-866.0254038000" r="2" />
	<circle cx="499.9943999367" cy="-865.9540952966" r="2" />
	<circle cx="1000.0000000000" cy="-0.0000000000" r="2" />
	<circle cx="0.0000000000" cy="-0.0000000000" r="2" />
	<circle cx="499.9984832255" cy="-866.0170112120" r="2" />
	<circle cx="1000.0000000000" cy="-0.0000000000" r="2" />
	<circle cx="0.0000000000" cy="-0.0000000000" r="2" />
	<circle cx="500.0000000000" cy="-866.0254038000" r="2" />
	<circle cx="597.5642503325" cy="-511.1740050649" r="2" />
	<circle cx="499.9989929764" cy="-857.0330659068" r="2" />
	<circle cx="1000.0000000000" cy="-0.0000000000" r="2" />
	<circle cx="0.0000000000" cy="-0.0000000000" r="2" />
	<circle cx="0.0000000000" cy="-0.0000000000" r="2" />
	<circle cx="233.0544100258" cy="-147.1132494695" r="2" />
	<circle cx="1000.0000000000" cy="-0.0000000000" r="2" />
	<circle cx="499.9999996391" cy="-866.0253514899" r="2" />
	<circle cx="500.0000000000" cy="-866.0254038000" r="2" />
	<circle cx="499.9999999977" cy="-866.0253553976" r="2" />
	<circle cx="0.0000000000" cy="-0.0000000000" r="2" />
	<circle cx="1000.0000000000" cy="-0.0000000000" r="2" />
	<circle cx="8.2670685165" cy="-1.0106769598" r="2" />
	<circle cx="988.3335731128" cy="-6.7321983206" r="2" />
	<circle cx="500.0000000044" cy="-866.0253907760" r="2" />
	<circle cx="0.0000000000" cy="-0.0000000000" r="2" />
	<circle cx="500.0000000000" cy="-866.0254038000" r="2" />
	<circle cx="500.0000000000" cy="-866.0254038000" r="2" />
	<circle cx="0.0003275016" cy="-0.0001797866" r="2" />
	<circle cx="999.9971810447" cy="-0.0012532117" r="2" />
	<circle cx="1000.0000000000" cy="-0.0000000000" r="2" />
	<circle cx="0.0176181864" cy="-0.0072691696" r="2" />
	<circle cx="500.0000000000" cy="-866.0254038000" r="2" />
	<circle cx="0.0026250442" cy="-0.0015165258" r="2" />
	<circle cx="651.0033776753" cy="-216.0062618902" r="2" />
	<circle cx="886.3835346199" cy="-65.5296761396" r="2" />
	<circle cx="1000.0000000000" cy="-0.0000000000" r="2" />
	<circle cx="500.0000000000" cy="-866.0254038000" r="2" />
	<circle cx="0.0000000000" cy="-0.0000000000" r="2" />
	<circle cx="0.0000000000" cy="-0.0000000000" r="2" />
	<circle cx="1000.0000000000" cy="-0.0000000000" r="2" />
	<circle cx="0.0000000000" cy="-0.0000000000" r="2" />
	<circle cx="1000.0000000000" cy="-0.0000000000" r="2" />
	<circle cx="0.0004554541" cy="-0.0002631022" r="2" />
	<circle cx="1000.0000000000" cy="-0.0000000000" r="2" />
	<circle cx="1000.0000000000" cy="-0.0000000000" r="2" />
	<circle cx="18.8694832662" cy="-10.7926305338" r="2" />
	<circle cx="999.9902563124" cy="-0.0056270692" r="2" />
	<circle cx="500.0000000000" cy="-866.0254038000" r="2" />
	<circle cx="964.1271019111" cy="-54.0991545107" r="2" />
	<circle cx="1000.0000000000" cy="-0.0000000000" r="2" />
	<circle cx="999.9999999700" cy="-0.0000000173" r="2" />
	<circle cx="1000.0000000000" cy="-0.0000000000" r="2" />
	<circle cx="500.0000000000" cy="-866.0254038000" r="2" />
	<circle cx="999.9999999883" cy="-0.0000000067" r="2" />
	<circle cx="500.0000000000" cy="-866.0254038000" r="2" />
	<circle cx="1000.0000000000" cy="-0.0000000000" r="2" />
	<circle cx="0.0000000000" cy="-0.0000000000" r="2" />
	<circle cx="0.0000000000" cy="-0.0000000000" r="2" />
	<circle cx="1000.0000000000" cy="-0.0000000000" r="2" />
	<circle cx="0.0000009010" cy="-0.0000005197" r="2" />
	<circle cx="526.2107423304" cy="-509.3918132701" r="2" />
	<circle cx="500.0000000000" cy="-866.0254038000" r="2" />
	<circle cx="0.0000000000" cy="-0.0000000000" r="2" />
	<circle cx="863.8301930595" cy="-19.4127887267" r="2" />
	<circle cx="1000.0000000000" cy="-0.0000000000" r="2" />
	<circle cx="999.8827169461" cy="-0.0677515817" r="2" />
	<circle cx="499.3704080456" cy="-848.9580254802" r="2" />
	<circle cx="507.6897227845" cy="-851.0831770309" r="2" />
	<circle cx="0.0000000052" cy="-0.0000000030" r="2" />
	<circle cx="497.8384703387" cy="-829.0418083050" r="2" />
	<circle cx="663.5774617746" cy="-197.2394793677" r="2" />
	<circle cx="1000.0000000000" cy="-0.0000000000" r="2" />
	<circle cx="499.9999999227" cy="-866.0231630985" r="2" />
	<circle cx="999.9983744569" cy="-0.0009213055" r="2" />
	<circle cx="0.0000000360" cy="-0.0000000208" r="2" />
	<circle cx="1000.0000000000" cy="-0.0000000000" r="2" />
	<circle cx="999.9999999858" cy="-0.0000000082" r="2" />
	<circle cx="500.0000000000" cy="-866.0254037994" r="2" />
	<circle cx="623.7788406076" cy="-645.6133959754" r="2" />
	<circle cx="949.0876150383" cy="-29.3779463757" r="2" />
	<circle cx="815.3923168636" cy="-226.1914647233" r="2" />
	<circle cx="999.9999999981" cy="-0.0000000011" r="2" />
	<circle cx="46.5219115421" cy="-27.6072059753" r="2" />
	<circle cx="999.9999999998" cy="-0.0000000001" r="2" />
	<circle cx="457.0110459670" cy="-271.3264065736" r="2" />
	<circle cx="499.9999822125" cy="-865.9714240287" r="2" />
	<circle cx="500.0000000000" cy="-866.0254038000" r="2" />
	<circle cx="0.0000000000" cy="-0.0000000000" r="2" />
	<circle cx="999.9982698983" cy="-0.0009988814" r="2" />
	<circle cx="590.2410777661" cy="-236.5930020690" r="2" />
	<circle cx="500.0000000000" cy="-866.0254038000" r="2" />
	<circle cx="999.8506556975" cy="-0.0807011951" r="2" />
	<circle cx="639.6683729765" cy="-156.2894624236" r="2" />
	<circle cx="30.5078718553" cy="-17.6018782523" r="2" />
	<circle cx="500.0000000000" cy="-866.0254038000" r="2" />
	<circle cx="500.0000000000" cy="-866.0254037997" r="2" />
	<circle cx="1000.0000000000" cy="-0.0000000000" r="2" />
	<circle cx="583.2144057464" cy="-238.0731118823" r="2" />
	<circle cx="997.0416103051" cy="-1.7067905526" r="2" />
	<circle cx="0.0000000000" cy="-0.0000000000" r="2" />
	<circle cx="0.0000000000" cy="-0.0000000000" r="2" />
	<circle cx="500.0000308601" cy="-865.1536709575" r="2" />
	<circle cx="500.0000000000" cy="-866.0254038000" r="2" />
	<circle cx="999.9511996292" cy="-0.0281594329" r="2" />
	<circle cx="1000.0000000000" cy="-0.0000000000" r="2" />
	<circle cx="999.9531877211" cy="-0.0272401464" r="2" />
	<circle cx="0.0000000602" cy="-0.0000000347" r="2" />
	<circle cx="270.8910347814" cy="-213.0029054881" r="2" />
	<circle cx="500.0000000000" cy="-866.0254038000" r="2" />
	<circle cx="500.0000000000" cy="-866.0254038000" r="2" />
	<circle cx="383.6650663448" cy="-221.6871188618" r="2" />
	<circle cx="0.0000140201" cy="-0.0000080983" r="2" />
	<circle cx="0.0000000000" cy="-0.0000000000" r="2" />
	<circle cx="0.0000005936" cy="-0.0000003427" r="2" />
	<circle cx="1000.0000000000" cy="-0.0000000000" r="2" />
	<circle cx="376.7800268031" cy="-205.3123359929" r="2" />
	<circle cx="500.0000000000" cy="-866.0254038000" r="2" />
	<circle cx="500.2335420379" cy="-310.4600930226" r="2" />
	<circle cx="0.0000004891" cy="-0.0000003751" r="2" />
	<circle cx="500.0000000000" cy="-866.0254038000" r="2" />
	<circle cx="913.4965818708" cy="-49.9076184210" r="2" />
	<circle cx="999.9597678977" cy="-0.0243851807" r="2" />
	<circle cx="999.9999999975" cy="-0.0000000014" r="2" />
	<circle cx="715.0535354113" cy="-374.0681850543" r="2" />
	<circle cx="999.9999999990" cy="-0.0000000006" r="2" />
	<circle cx="2.9455389803" cy="-1.6997694096" r="2" />
	<circle cx="0.0000000000" cy="-0.0000000000" r="2" />
	<circle cx="513.4840116189" cy="-828.1420897437" r="2" />
	<circle cx="493.3234285006" cy="-842.6622951960" r="2" />
	<circle cx="500.0000000000" cy="-866.0254038000" r="2" />
	<circle cx="1000.0000000000" cy="-0.0000000000" r="2" />
	<circle cx="500.0000000000" cy="-866.0254038000" r="2" />
	<circle cx="625.7772061404" cy="-579.9264237420" r="2" />
	<circle cx="500.0000000000" cy="-866.0254038000" r="2" />
	<circle cx="999.9999603414" cy="-0.0000268343" r="2" />
	<circle cx="0.0000004131" cy="-0.0000002125" r="2" />
	<circle cx="500.0000000000" cy="-866.0254038000" r="2" />
	<circle cx="0.0000859297" cy="-0.0000651275" r="2" />
	<circle cx="999.9999999993" cy="-0.0000000004" r="2" />
	<circle cx="499.9967164548" cy="-865.8950859974" r="2" />
	<circle cx="0.2721892278" cy="-0.1571394431" r="2" />
	<circle cx="500.0000000000" cy="-866.0254038000" r="2" />
	<circle cx="1000.0000000000" cy="-0.0000000000" r="2" />
	<circle cx="0.0000000000" cy="-0.0000000000" r="2" />
	<circle cx="1000.0000000000" cy="-0.0000000000" r="2" />
	<circle cx="0.0000000000" cy="-0.0000000000" r="2" />
	<circle cx="0.0213677529" cy="-0.0122331024" r="2" />
	<circle cx="500.0000000330" cy="-866.0254033242" r="2" />
	<circle cx="1000.0000000000" cy="-0.0000000000" r="2" />
	<circle cx="500.0000000004" cy="-866.0254025753" r="2" />
	<circle cx="499.9999855827" cy="-865.9812883756" r="2" />
	<circle cx="500.0000000000" cy="-866.0254038000" r="2" />
	<circle cx="949.1490575069" cy="-34.3928560715" r="2" />
	<circle cx="0.0003298427" cy="-0.0001903669" r="2" />
	<circle cx="1000.0000000000" cy="-0.0000000000" r="2" />
	<circle cx="500.0000000000" cy="-866.0254038000" r="2" />
	<circle cx="438.2067510194" cy="-253.0563713005" r="2" />
	<circle cx="999.5011909479" cy="-0.2871671275" r="2" />
	<circle cx="500.0000000000" cy="-866.0254038000" r="2" />
	<circle cx="2.0356901420" cy="-1.1769579441" r="2" />
	<circle cx="0.0000017489" cy="-0.0000010093" r="2" />
	<circle cx="0.0012821489" cy="-0.0006828896" r="2" />
	<circle cx="1000.0000000000" cy="-0.0000000000" r="2" />
	<circle cx="999.9665235141" cy="-0.0193096633" r="2" />
	<circle cx="19.1236210588" cy="-9.1207447248" r="2" />
	<circle cx="0.0000000000" cy="-0.0000000000" r="2" />
	<circle cx="500.0000000000" cy="-866.0254037996" r="2" />
	<circle cx="999.9999999994" cy="-0.0000000004" r="2" />
	<circle cx="500.0000000000" cy="-866.0254038000" r="2" />
	<circle cx="0.0000000000" cy="-0.0000000000" r="2" />
	<circle cx="965.2233391151" cy="-20.0778820425" r="2" />
	<circle cx="1000.0000000000" cy="-0.0000000000" r="2" />
	<circle cx="999.9999362571" cy="-0.0000367872" r="2" />
	<circle cx="500.0000000000" cy="-866.0254038000" r="2" />
	<circle cx="499.2180150888" cy="-858.0326056151" r="2" />
	<circle cx="0.3217078032" cy="-0.1831446934" r="2" />
	<circle cx="999.9999998506" cy="-0.0000000862" r="2" />
	<circle cx="499.9999799318" cy="-865.9326809478" r="2" />
	<circle cx="500.0000000000" cy="-866.0254038000" r="2" />
	<circle cx="999.9999999990" cy="-0.0000000006" r="2" />
	<circle cx="0.0000000000" cy="-0.0000000000" r="2" />
	<circle cx="504.5309006772" cy="-822.9358170099" r="2" />
	<circle cx="999.9412706428" cy="-0.0339216545" r="2" />
	<circle cx="421.3412819497" cy="-500.2573593680" r="2" />
	<circle cx="0.0000000000" cy="-0.0000000000" r="2" />
	<circle cx="500.0003414299" cy="-864.7518643620" r="2" />
	<circle cx="393.5183671457" cy="-363.1831888926" r="2" />
	<circle cx="989.8003084008" cy="-6.3657814930" r="2" />
	<circle cx="0.0000000000" cy="-0.0000000000" r="2" />
	<circle cx="13.3560309060" cy="-2.5931228724" r="2" />
	<circle cx="507.1023521982" cy="-834.1471897791" r="2" />
	<circle cx="499.9999785605" cy="-865.6315713325" r="2" />
	<circle cx="0.0000000000" cy="-0.0000000000" r="2" />
	<circle cx="490.3255379472" cy="-313.5254536404" r="2" />
	<circle cx="1000.0000000000" cy="-0.0000000000" r="2" />
	<circle cx="0.0873875960" cy="-0.0497240457" r="2" />
	<circle cx="0.0890173411" cy="-0.0513850050" r="2" />
	<circle cx="1000.0000000000" cy="-0.0000000000" r="2" />
	<circle cx="0.0000000000" cy="-0.0000000000" r="2" />
	<circle cx="500.0000000000" cy="-866.0254038000" r="2" />
	<circle cx="0.0000023382" cy="-0.0000013493" r="2" />
	<circle cx="1000.0000000000" cy="-0.0000000000" r="2" />
	<circle cx="500.0000000000" cy="-866.0254038000" r="2" />
	<circle cx="500.0000000000" cy="-866.0254038000" r="2" />
	<circle cx="491.3748039938" cy="-840.3239738086" r="2" />
	<circle cx="0.0000000000" cy="-0.0000000000" r="2" />
	<circle cx="0.0000000000" cy="-0.0000000000" r="2" />
	<circle cx="0.0000000000" cy="-0.0000000000" r="2" />
	<circle cx="0.0000000001" cy="-0.0000000000" r="2" />
	<circle cx="500.0000058690" cy="-866.0250228901" r="2" />
	<circle cx="500.0000000000" cy="-866.0254038000" r="2" />
	<circle cx="494.3200433151" cy="-748.1723798977" r="2" />
	<circle cx="1000.0000000000" cy="-0.0000000000" r="2" />
	<circle cx="0.0000000044" cy="-0.0000000025" r="2" />
	<circle cx="304.2193224116" cy="-168.8125358532" r="2" />
	<circle cx="500.0000000000" cy="-866.0254038000" r="2" />
	<circle cx="999.9999880906" cy="-0.0000070740" r="2" />
	<circle cx="1000.0000000000" cy="-0.0000000000" r="2" />
	<circle cx="723.7303008723" cy="-152.9877921029" r="2" />
	<circle cx="0.0000000001" cy="-0.0000000000" r="2" />
	<circle cx="974.7886008472" cy="-41.8386338645" r="2" />
	<circle cx="276.9850910353" cy="-212.2506128186" r="2" />
	<circle cx="1000.0000000000" cy="-0.0000000000" r="2" />
	<circle cx="0.0000000000" cy="-0.0000000000" r="2" />
	<circle cx="499.9999959764" cy="-866.0239741562" r="2" />
	<circle cx="500.0000000000" cy="-866.0254038000" r="2" />
	<circle cx="836.9256934354" cy="-2.7468009673" r="2" />
	<circle cx="1000.0000000000" cy="-0.0000000000" r="2" />
	<circle cx="495.2703444692" cy="-778.9694278501" r="2" />
	<circle cx="670.9280615629" cy="-442.3437362787" r="2" />
	<circle cx="0.0000028464" cy="-0.0000016542" r="2" />
	<circle cx="1000.0000000000" cy="-0.0000000000" r="2" />
	<circle cx="0.0000000000" cy="-0.0000000000" r="2" />
	<circle cx="501.2195418533" cy="-849.1271824483" r="2" />
	<circle cx="0.0000000000" cy="-0.0000000000" r="2" />
	<circle cx="569.4205879836" cy="-498.6090422859" r="2" />
	<circle cx="493.5474084587" cy="-851.4663694206" r="2" />
	<circle cx="500.0000000000" cy="-866.0254038000" r="2" />
	<circle cx="999.6724514269" cy="-0.1889930180" r="2" />
	<circle cx="992.4048393028" cy="-4.1969359906" r="2" />
	<circle cx="257.3221642655" cy="-159.5109673583" r="2" />
	<circle cx="250.3829472972" cy="-155.2235816500" r="2" />
	<circle cx="500.0000029216" cy="-866.0251683330" r="2" />
	<circle cx="0.2802638159" cy="-0.1536292509" r="2" />
	<circle cx="722.5490270255" cy="-288.7061773083" r="2" />
	<circle cx="961.1747593623" cy="-20.4508233637" r="2" />
	<circle cx="495.9535930028" cy="-730.6479662336" r="2" />
	<circle cx="0.0064177533" cy="-0.0037032331" r="2" />
	<circle cx="1000.0000000000" cy="-0.0000000000" r="2" />
	<circle cx="0.0000000000" cy="-0.0000000000" r="2" />
	<circle cx="999.9999999981" cy="-0.0000000011" r="2" />
	<circle cx="500.0000000000" cy="-866.0254038000" r="2" />
	<circle cx="1000.0000000000" cy="-0.0000000000" r="2" />
	<circle cx="1000.0000000000" cy="-0.0000000000" r="2" />
	<circle cx="500.0000000000" cy="-866.0254038000" r="2" />
	<circle cx="463.3783055381" cy="-603.1281138002" r="2" />
	<circle cx="499.9999839436" cy="-866.0221482188" r="2" />
	<circle cx="500.0000001584" cy="-866.0254031893" r="2" />
	<circle cx="999.9999293997" cy="-0.0000407290" r="2" />
	<circle cx="999.9999958360" cy="-0.0000025417" r="2" />
	<circle cx="999.9999996147" cy="-0.0000002223" r="2" />
	<circle cx="1000.0000000000" cy="-0.0000000000" r="2" />
	<circle cx="500.0001122588" cy="-865.7459492496" r="2" />
	<circle cx="1000.0000000000" cy="-0.0000000000" r="2" />
	<circle cx="0.0000000000" cy="-0.0000000000" r="2" />
	<circle cx="500.0000000000" cy="-866.0254037999" r="2" />
	<circle cx="892.9630611364" cy="-91.3531532847" r="2" />
	<circle cx="518.1226947705" cy="-236.5046952411" r="2" />
	<circle cx="999.9646376512" cy="-0.0204122818" r="2" />
	<circle cx="500.0000000000" cy="-866.0254038000" r="2" />
	<circle cx="996.7733797230" cy="-1.8640753084" r="2" />
	<circle cx="1000.0000000000" cy="-0.0000000000" r="2" />
	<circle cx="999.9999998408" cy="-0.0000000919" r="2" />
	<circle cx="1000.0000000000" cy="-0.0000000000" r="2" />
	<circle cx="0.0001431080" cy="-0.0000826198" r="2" />
	<circle cx="0.0000000000" cy="-0.0000000000" r="2" />
	<circle cx="500.6670836414" cy="-836.9187455885" r="2" />
	<circle cx="1000.0000000000" cy="-0.0000000000" r="2" />
	<circle cx="500.0000000847" cy="-866.0203387383" r="2" />
	<circle cx="500.1044348311" cy="-684.4855547060" r="2" />
	<circle cx="196.2126157277" cy="-123.6317973408" r="2" />
	<circle cx="500.0000000000" cy="-866.0254038000" r="2" />
	<circle cx="500.0000000000" cy="-866.0254038000" r="2" />
	<circle cx="0.0000000000" cy="-0.0000000000" r="2" />
	<circle cx="84.9485779088" cy="-55.0837680415" r="2" />
	<circle cx="999.9999983256" cy="-0.0000009802" r="2" />
	<circle cx="1000.0000000000" cy="-0.0000000000" r="2" />
	<circle cx="498.9108348954" cy="-861.5876640747" r="2" />
	<circle cx="0.0000001641" cy="-0.0000000948" r="2" />
	<circle cx="783.2517610462" cy="-120.1343166769" r="2" />
	<circle cx="500.0000000000" cy="-866.0254038000" r="2" />
	<circle cx="999.9999999945" cy="-0.0000000032" r="2" />
	<circle cx="499.9999999995" cy="-866.0253988850" r="2" />
	<circle cx="499.9995960117" cy="-866.0220284031" r="2" />
	<circle cx="0.0021766849" cy="-0.0012566701" r="2" />
	<circle cx="500.0000000061" cy="-866.0253714135" r="2" />
	<circle cx="1000.0000000000" cy="-0.0000000000" r="2" />
	<circle cx="998.5753685654" cy="-0.9559560963" r="2" />
	<circle cx="518.0898949605" cy="-333.6184191725" r="2" />
	<circle cx="0.0000000000" cy="-0.0000000000" r="2" />
	<circle cx="500.0839620984" cy="-806.8974652868" r="2" />
	<circle cx="999.9999157389" cy="-0.0000486751" r="2" />
	<circle cx="999.9999955658" cy="-0.0000025610" r="2" />
	<circle cx="1000.0000000000" cy="-0.0000000000" r="2" />
	<circle cx="999.9589717412" cy="-0.0236840397" r="2" />
	<circle cx="500.0000000000" cy="-866.0254037931" r="2" />
	<circle cx="292.5153637942" cy="-201.8624671642" r="2" />
	<circle cx="0.0000000000" cy="-0.0000000000" r="2" />
	<circle cx="500.0000000000" cy="-866.0254038000" r="2" />
	<circle cx="0.0000002336" cy="-0.0000001349" r="2" />
	<circle cx="1000.0000000000" cy="-0.0000000000" r="2" />
	<circle cx="0.0000000000" cy="-0.0000000000" r="2" />
	<circle cx="10.4790894019" cy="-9.3998658937" r="2" />
	<circle cx="1000.0000000000" cy="-0.0000000000" r="2" />
	<circle cx="0.0022887421" cy="-0.0013210412" r="2" />
	<circle cx="0.0000000603" cy="-0.0000000348" r="2" />
	<circle cx="0.0078712624" cy="-0.0045420255" r="2" />
	<circle cx="500.0000000000" cy="-866.0254038000" r="2" />
	<circle cx="537.8526693979" cy="-355.9087860795" r="2" />
	<circle cx="1000.0000000000" cy="-0.0000000000" r="2" />
	<circle cx="0.6385432183" cy="-0.3189985075" r="2" />
	<circle cx="0.0000000000" cy="-0.0000000000" r="2" />
	<circle cx="500.0000000112" cy="-866.0254018610" r="2" />
	<circle cx="30.7634733397" cy="-18.7491864315" r="2" />
	<circle cx="405.4573248451" cy="-234.2779646633" r="2" />
	<circle cx="500.0000000000" cy="-866.0254038000" r="2" />
	<circle cx="500.0000000000" cy="-866.0254038000" r="2" />
	<circle cx="500.0000000000" cy="-866.0254038000" r="2" />
	<circle cx="500.0000000000" cy="-866.0254038000" r="2" />
	<circle cx="499.9999741572" cy="-865.7949270964" r="2" />
	<circle cx="0.0000000000" cy="-0.0000000000" r="2" />
	<circle cx="999.9999361065" cy="-0.0000256807" r="2" />
	<circle cx="1000.0000000000" cy="-0.0000000000" r="2" />
	<circle cx="499.9999347344" cy="-865.4989633189" r="2" />
	<circle cx="500.0000000000" cy="-866.0254038000" r="2" />
	<circle cx="256.9564077365" cy="-127.2810799920" r="2" />
	<circle cx="1000.0000000000" cy="-0.0000000000" r="2" />
	<circle cx="1000.0000000000" cy="-0.0000000000" r="2" />
	<circle cx="0.0000000150" cy="-0.0000000087" r="2" />
	<circle cx="999.6959070533" cy="-0.1753203257" r="2" />
	<circle cx="1000.0000000000" cy="-0.0000000000" r="2" />
	<circle cx="1000.0000000000" cy="-0.0000000000" r="2" />
	<circle cx="999.9999987857" cy="-0.0000007009" r="2" />
	<circle cx="500.0000000000" cy="-866.0254038000" r="2" />
	<circle cx="500.0000000000" cy="-866.0254038000" r="2" />
	<circle cx="500.0000000000" cy="-866.0254038000" r="2" />
	<circle cx="0.0000000000" cy="-0.0000000000" r="2" />
	<circle cx="0.0000000000" cy="-0.0000000000" r="2" />
	<circle cx="121.0506802352" cy="-22.0271884918" r="2" />
	<circle cx="500.0000000000" cy="-866.0254038000" r="2" />
	<circle cx="0.0000013349" cy="-0.0000007301" r="2" />
	<circle cx="355.4203417523" cy="-287.8027278764" r="2" />
	<circle cx="0.0000000000" cy="-0.0000000000" r="2" />
	<circle cx="500.0000000000" cy="-866.0254038000" r="2" />
	<circle cx="0.0000000000" cy="-0.0000000000" r="2" />
	<circle cx="999.9300733804" cy="-0.0403997595" r="2" />
	<circle cx="500.0000000000" cy="-866.0254038000" r="2" />
	<circle cx="500.0000000000" cy="-866.0254038000" r="2" />
	<circle cx="1000.0000000000" cy="-0.0000000000" r="2" />
	<circle cx="551.3008907631" cy="-738.3370490219" r="2" />
	<circle cx="0.0000000000" cy="-0.0000000000" r="2" />
	<circle cx="0.0000000000" cy="-0.0000000000" r="2" />
	<circle cx="500.6418986564" cy="-581.4973124612" r="2" />
	<circle cx="500.0000000000" cy="-866.0254038000" r="2" />
	<circle cx="0.0000000003" cy="-0.0000000002" r="2" />
	<circle cx="610.9954342858" cy="-224.6103931661" r="2" />
	<circle cx="500.0000000000" cy="-866.0254038000" r="2" />
	<circle cx="5.2616918143" cy="-3.0412459122" r="2" />
	<circle cx="997.4679181342" cy="-1.4602293295" r="2" />
	<circle cx="500.0000000000" cy="-866.0254038000" r="2" />
	<circle cx="0.0000000000" cy="-0.0000000000" r="2" />
	<circle cx="450.9746909356" cy="-524.9278789014" r="2" />
	<circle cx="0.0000000000" cy="-0.0000000000" r="2" />
	<circle cx="0.0000000000" cy="-0.0000000000" r="2" />
	<circle cx="212.4779292457" cy="-127.7972443781" r="2" />
	<circle cx="816.0312662319" cy="-163.6556147816" r="2" />
	<circle cx="500.0000000000" cy="-866.0254038000" r="2" />
	<circle cx="0.0000000000" cy="-0.0000000000" r="2" />
	<circle cx="524.7766770889" cy="-509.1202946076" r="2" />
	<circle cx="1000.0000000000" cy="-0.0000000000" r="2" />
	<circle cx="0.0000016873" cy="-0.0000008951" r="2" />
	<circle cx="501.8322606630" cy="-792.2160568538" r="2" />
  </g>
  <g id="fig2" transform="translate(-550.0,1000)">
	<polygon points="0.0,-0.0 1000.0,-0.0 500.0,-866.0254038" />
	<line
	   id="line2-1"
	   y2="-0.0"
	   x2="500"
	   y1="-288.6751346"
	   x1="500" />
	<line
	   id="line2-2"
	   y2="-433.0127019"
	   x2="250"
	   y1="-288.6751346"
	   x1="500" />
	<line
	   id="line2-3"
	   y2="-433.0127019"
	   x2="750"
	   y1="-288.6751346"
	   x1="500" />
	<text
	   x="440"
	   y="-500"
	   id="up_2">34.8%</text>
	<text
	   x="250"
	   y="-150"
	   id="down_left_2">32.0%</text>
	<text
	   x="630"
	   y="-150"
	   id="down_right_2">33.2%</text>
  </g>
  <g id="fig3" transform="translate(550,1000)">
	<polygon points="0.0,-0.0 1000.0,-0.0 500.0,-866.0254038" />
	<polygon id="triangle3b" points="250,-144.3375673 750,-144.3375673 500,-577.3502692" />
	<line
	   id="line3-1"
	   x1="125"
	   y1="-216.5063509"
	   x2="250"
	   y2="-144.3375673" />
	<line
	   id="line3-2"
	   x1="375"
	   y1="-649.5190528"
	   x2="500"
	   y2="-577.3502692" />
	<line
	   id="line3-3"
	   x1="625"
	   y1="-649.5190528"
	   x2="500"
	   y2="-577.3502692" />
	<line
	   id="line3-4"
	   x1="875"
	   y1="-216.5063509"
	   x2="750"
	   y2="-144.3375673" />
	<line
	   id="line3-5"
	   x1="750"
	   y1="-0.0"
	   x2="750"
	   y2="-144.3375673" />
	<line
	   id="line3-6"
	   x1="250"
	   y1="-0.0"
	   x2="250"
	   y2="-144.3375673" />
	<text
	   x="500"
	   y="-660"
	   text-anchor="middle"
	   id="up_3">30.8%</text>
	<text
	   y="-50"
	   x="70"
	   id="down_left_3">28.6%</text>
	<text
	   y="-50"
	   x="770"
	   id="down_right_3">30.6%</text>
	<text
	   x="500"
	   y="-50"
	   text-anchor="middle"
	   id="down_side_3">0.4%</text>
	<text
	   x="500"
	   y="-280"
	   text-anchor="middle"
	   id="center_3">6.6%</text>
	<text
	   x="685.0"
	   y="-390.8439"
	   text-anchor="middle"
	   transform="rotate(60,665.0,-380.8439)"
	   id="right_side_3">1.6%</text>
	<text
	   x="315.0"
	   y="-390.8439"
	   text-anchor="middle"
	   transform="rotate(-60,335.0,-380.8439)"
	   id="left_side_3">1.4%</text>
  </g>
</g></g>
</svg>
