<?xml version="1.0" encoding="UTF-8" standalone="no"?>
<!DOCTYPE svg PUBLIC "-//W3C//DTD SVG 1.1//EN" "http://www.w3.org/Graphics/SVG/1.1/DTD/svg11.dtd">
<svg
   xmlns:svg="http://www.w3.org/2000/svg"
   xmlns="http://www.w3.org/2000/svg"
   xmlns:xlink="http://www.w3.org/1999/xlink"
   version="1.1"
   baseProfile="full"
   id="body"
   width="800px"
   height="800px"
   viewBox="0 0 1000 1000"
   preserveAspectRatio="none">
  <defs>
    <style type="text/css"><![CDATA[
      circle{ stroke: none; }
      polygon{ stroke: black; stroke-width: 2px; fill: none; }
      line{ stroke: black; stroke-width: 2px; }
      text{ font-size:50px; }
    ]]></style>
  </defs>
  <title
     id="title1">SVG drawing</title>
<g transform="scale(0.45)"><g transform="translate(600,1050)">
  <g id="fig1">
	<polygon points="0.0,-0.0 1000.0,-0.0 500,-866.0254038" />
	<circle cx="0.0000000000" cy="-0.0000000000" r="2" />
	<circle cx="1000.0000000000" cy="-0.0000000000" r="2" />
	<circle cx="500.0000000000" cy="-866.0254037938" r="2" />
	<circle cx="999.9999997505" cy="-0.0000001441" r="2" />
	<circle cx="999.9999416883" cy="-0.0000336666" r="2" />
	<circle cx="499.9999974041" cy="-866.0151210763" r="2" />
	<circle cx="0.0000000000" cy="-0.0000000000" r="2" />
	<circle cx="999.9999999001" cy="-0.0000000665" r="2" />
	<circle cx="143.4403927919" cy="-59.8899391854" r="2" />
	<circle cx="0.0000205968" cy="-0.0000118899" r="2" />
	<circle cx="1000.0000000000" cy="-0.0000000000" r="2" />
	<circle cx="0.0000000000" cy="-0.0000000000" r="2" />
	<circle cx="500.0000000255" cy="-866.0237050392" r="2" />
	<circle cx="0.0000000000" cy="-0.0000000000" r="2" />
	<circle cx="499.9999999801" cy="-866.0253884063" r="2" />
	<circle cx="500.0000000000" cy="-866.0254037854" r="2" />
	<circle cx="499.9999999913" cy="-866.0253996753" r="2" />
	<circle cx="500.0000000000" cy="-866.0254038000" r="2" />
	<circle cx="500.0000077593" cy="-866.0253903576" r="2" />
	<circle cx="500.0000000000" cy="-866.0254038000" r="2" />
	<circle cx="1000.0000000000" cy="-0.0000000000" r="2" />
	<circle cx="999.9999999819" cy="-0.0000000104" r="2" />
	<circle cx="999.9999999090" cy="-0.0000000526" r="2" />
	<circle cx="794.7707011085" cy="-126.4182311808" r="2" />
	<circle cx="498.5508470671" cy="-863.5153972266" r="2" />
	<circle cx="1000.0000000000" cy="-0.0000000000" r="2" />
	<circle cx="499.9999999997" cy="-866.0253959565" r="2" />
	<circle cx="0.0942159211" cy="-0.0543924353" r="2" />
	<circle cx="500.0000000000" cy="-866.0254038000" r="2" />
	<circle cx="1000.0000000000" cy="-0.0000000000" r="2" />
	<circle cx="461.2084134144" cy="-259.8755968650" r="2" />
	<circle cx="0.0000031958" cy="-0.0000018447" r="2" />
	<circle cx="988.5373136559" cy="-18.0274923480" r="2" />
	<circle cx="499.9999999999" cy="-866.0253998019" r="2" />
	<circle cx="0.0000000000" cy="-0.0000000000" r="2" />
	<circle cx="999.4916093246" cy="-0.1717364426" r="2" />
	<circle cx="1000.0000000000" cy="-0.0000000000" r="2" />
	<circle cx="999.9995689281" cy="-0.0001357715" r="2" />
	<circle cx="608.5723286433" cy="-249.5176345673" r="2" />
	<circle cx="500.0000000002" cy="-866.0254020782" r="2" />
	<circle cx="0.0000000000" cy="-0.0000000000" r="2" />
	<circle cx="500.0000000000" cy="-866.0254035102" r="2" />
	<circle cx="500.0000000000" cy="-866.0254038000" r="2" />
	<circle cx="1000.0000000000" cy="-0.0000000000" r="2" />
	<circle cx="500.0000000000" cy="-866.0254038000" r="2" />
	<circle cx="20.6093761882" cy="-11.8996667211" r="2" />
	<circle cx="0.0000000000" cy="-0.0000000000" r="2" />
	<circle cx="1000.0000000000" cy="-0.0000000000" r="2" />
	<circle cx="499.9970450020" cy="-764.6928423308" r="2" />
	<circle cx="500.0000000003" cy="-866.0252945545" r="2" />
	<circle cx="997.6195838601" cy="-0.0458190056" r="2" />
	<circle cx="1000.0000000000" cy="-0.0000000000" r="2" />
	<circle cx="999.9999713296" cy="-0.0000165562" r="2" />
	<circle cx="998.5972469840" cy="-0.7099773034" r="2" />
	<circle cx="1000.0000000000" cy="-0.0000000000" r="2" />
	<circle cx="706.3281952954" cy="-169.5502479388" r="2" />
	<circle cx="500.1481808060" cy="-865.6767252289" r="2" />
	<circle cx="1000.0000000000" cy="-0.0000000000" r="2" />
	<circle cx="999.9999999702" cy="-0.0000000172" r="2" />
	<circle cx="500.0000000000" cy="-866.0254037949" r="2" />
	<circle cx="499.2584641341" cy="-391.1605427189" r="2" />
	<circle cx="999.9908587630" cy="-0.0052779091" r="2" />
	<circle cx="0.0013390721" cy="-0.0002706571" r="2" />
	<circle cx="0.0000000106" cy="-0.0000000061" r="2" />
	<circle cx="0.0000000000" cy="-0.0000000000" r="2" />
	<circle cx="500.0000000000" cy="-866.0254038000" r="2" />
	<circle cx="0.1225721737" cy="-0.0707678848" r="2" />
	<circle cx="0.0000000000" cy="-0.0000000000" r="2" />
	<circle cx="0.0000000000" cy="-0.0000000000" r="2" />
	<circle cx="1000.0000000000" cy="-0.0000000000" r="2" />
	<circle cx="506.3399375409" cy="-462.8365548849" r="2" />
	<circle cx="373.6064535089" cy="-215.7006827840" r="2" />
	<circle cx="999.9999999997" cy="-0.0000000002" r="2" />
	<circle cx="500.0000000001" cy="-866.0254028441" r="2" />
	<circle cx="1.3960802243" cy="-0.7000065537" r="2" />
	<circle cx="0.0000000000" cy="-0.0000000000" r="2" />
	<circle cx="1000.0000000000" cy="-0.0000000000" r="2" />
	<circle cx="999.9999867405" cy="-0.0000076540" r="2" />
	<circle cx="1000.0000000000" cy="-0.0000000000" r="2" />
	<circle cx="0.0000000000" cy="-0.0000000000" r="2" />
	<circle cx="1000.0000000000" cy="-0.0000000000" r="2" />
	<circle cx="500.2279965534" cy="-865.6056584770" r="2" />
	<circle cx="1000.0000000000" cy="-0.0000000000" r="2" />
	<circle cx="500.0000000000" cy="-866.0254037770" r="2" />
	<circle cx="279.0109816393" cy="-80.1001898459" r="2" />
	<circle cx="991.9340793375" cy="-9.8854275314" r="2" />
	<circle cx="500.0000000019" cy="-866.0253966999" r="2" />
	<circle cx="0.0000000000" cy="-0.0000000000" r="2" />
	<circle cx="0.0000000000" cy="-0.0000000000" r="2" />
	<circle cx="500.0000000000" cy="-866.0254038000" r="2" />
	<circle cx="715.6671783629" cy="-165.5027441034" r="2" />
	<circle cx="1000.0000000000" cy="-0.0000000000" r="2" />
	<circle cx="0.0000020043" cy="-0.0000011573" r="2" />
	<circle cx="1000.0000000000" cy="-0.0000000000" r="2" />
	<circle cx="500.0384582068" cy="-809.1933579116" r="2" />
	<circle cx="999.9999514347" cy="-0.0000280462" r="2" />
	<circle cx="500.0000000000" cy="-866.0254038000" r="2" />
	<circle cx="0.0000417650" cy="-0.0000241169" r="2" />
	<circle cx="1000.0000000000" cy="-0.0000000000" r="2" />
	<circle cx="1000.0000000000" cy="-0.0000000000" r="2" />
	<circle cx="0.0000000000" cy="-0.0000000000" r="2" />
	<circle cx="0.0000000000" cy="-0.0000000000" r="2" />
	<circle cx="1000.0000000000" cy="-0.0000000000" r="2" />
	<circle cx="1000.0000000000" cy="-0.0000000000" r="2" />
	<circle cx="500.0000000000" cy="-866.0254038000" r="2" />
	<circle cx="499.9999999894" cy="-866.0250158882" r="2" />
	<circle cx="500.0000000000" cy="-866.0254037997" r="2" />
	<circle cx="560.9180922532" cy="-218.1922695210" r="2" />
	<circle cx="1000.0000000000" cy="-0.0000000000" r="2" />
	<circle cx="1000.0000000000" cy="-0.0000000000" r="2" />
	<circle cx="0.0000000000" cy="-0.0000000000" r="2" />
	<circle cx="499.9997581559" cy="-865.3348773433" r="2" />
	<circle cx="500.0018106964" cy="-865.9924315410" r="2" />
	<circle cx="499.9999999818" cy="-866.0253019271" r="2" />
	<circle cx="999.8631624849" cy="-0.0790010241" r="2" />
	<circle cx="999.9975611389" cy="-0.0014082926" r="2" />
	<circle cx="1000.0000000000" cy="-0.0000000000" r="2" />
	<circle cx="499.9989077013" cy="-856.4272230283" r="2" />
	<circle cx="0.0000017068" cy="-0.0000009867" r="2" />
	<circle cx="1000.0000000000" cy="-0.0000000000" r="2" />
	<circle cx="500.0000000000" cy="-866.0254038000" r="2" />
	<circle cx="498.2326021877" cy="-750.2389108909" r="2" />
	<circle cx="868.7143038246" cy="-75.8037123470" r="2" />
	<circle cx="1000.0000000000" cy="-0.0000000000" r="2" />
	<circle cx="999.9999999999" cy="-0.0000000001" r="2" />
	<circle cx="0.0000000000" cy="-0.0000000000" r="2" />
	<circle cx="499.9999802564" cy="-866.0252941588" r="2" />
	<circle cx="500.0000000000" cy="-866.0254037826" r="2" />
	<circle cx="499.9922028231" cy="-850.6705019881" r="2" />
	<circle cx="500.5428527901" cy="-855.8613540091" r="2" />
	<circle cx="0.0000000000" cy="-0.0000000000" r="2" />
	<circle cx="0.0000000026" cy="-0.0000000045" r="2" />
	<circle cx="999.9999999955" cy="-0.0000000026" r="2" />
	<circle cx="89.3819889019" cy="-51.6036884253" r="2" />
	<circle cx="1000.0000000000" cy="-0.0000000000" r="2" />
	<circle cx="0.0000000008" cy="-0.0000000000" r="2" />
	<circle cx="500.0000000000" cy="-866.0254038000" r="2" />
	<circle cx="0.0000002346" cy="-0.0000001355" r="2" />
	<circle cx="911.2800836003" cy="-50.0808158261" r="2" />
	<circle cx="999.9999999955" cy="-0.0000000026" r="2" />
	<circle cx="0.0000000000" cy="-0.0000000000" r="2" />
	<circle cx="500.0000000000" cy="-866.0254037992" r="2" />
	<circle cx="0.0000000000" cy="-0.0000000000" r="2" />
	<circle cx="999.9999385873" cy="-0.0000354562" r="2" />
	<circle cx="1000.0000000000" cy="-0.0000000000" r="2" />
	<circle cx="0.0942403224" cy="-0.0544065369" r="2" />
	<circle cx="0.0000000000" cy="-0.0000000000" r="2" />
	<circle cx="499.9999999999" cy="-866.0254035785" r="2" />
	<circle cx="500.0000000000" cy="-866.0254037609" r="2" />
	<circle cx="500.0000000000" cy="-866.0254038000" r="2" />
	<circle cx="1000.0000000000" cy="-0.0000000000" r="2" />
	<circle cx="0.0000002418" cy="-0.0000004062" r="2" />
	<circle cx="500.0000245471" cy="-866.0249581434" r="2" />
	<circle cx="999.9999999982" cy="-0.0000000001" r="2" />
	<circle cx="1000.0000000000" cy="-0.0000000000" r="2" />
	<circle cx="499.9999990472" cy="-866.0207448663" r="2" />
	<circle cx="500.0000000000" cy="-866.0254038000" r="2" />
	<circle cx="500.0109028503" cy="-357.4925311010" r="2" />
	<circle cx="1000.0000000000" cy="-0.0000000000" r="2" />
	<circle cx="0.0003395944" cy="-0.0001960906" r="2" />
	<circle cx="999.6928498798" cy="-0.1772538936" r="2" />
	<circle cx="1000.0000000000" cy="-0.0000000000" r="2" />
	<circle cx="1000.0000000000" cy="-0.0000000000" r="2" />
	<circle cx="1000.0000000000" cy="-0.0000000000" r="2" />
	<circle cx="500.0000000000" cy="-866.0254038000" r="2" />
	<circle cx="995.0329629165" cy="-2.4414875150" r="2" />
	<circle cx="499.9999100300" cy="-856.2005442931" r="2" />
	<circle cx="999.7056802904" cy="-0.1628355061" r="2" />
	<circle cx="0.0000000000" cy="-0.0000000000" r="2" />
	<circle cx="500.0000000000" cy="-866.0254037994" r="2" />
	<circle cx="499.9999999987" cy="-866.0253953344" r="2" />
	<circle cx="0.0000000000" cy="-0.0000000000" r="2" />
	<circle cx="500.0000000000" cy="-866.0254038000" r="2" />
	<circle cx="999.9999921231" cy="-0.0000045500" r="2" />
	<circle cx="0.0000000000" cy="-0.0000000000" r="2" />
	<circle cx="999.9999993679" cy="-0.0000003650" r="2" />
	<circle cx="500.0000000000" cy="-866.0254038000" r="2" />
	<circle cx="500.4332835233" cy="-288.9243186332" r="2" />
	<circle cx="0.0000000000" cy="-0.0000000000" r="2" />
	<circle cx="999.9999979816" cy="-0.0000011853" r="2" />
	<circle cx="999.9935274077" cy="-0.0039185288" r="2" />
	<circle cx="500.0000000000" cy="-866.0254038000" r="2" />
	<circle cx="0.0000000000" cy="-0.0000000000" r="2" />
	<circle cx="500.0000000000" cy="-866.0254038000" r="2" />
	<circle cx="999.9976216569" cy="-0.0013729417" r="2" />
	<circle cx="199.9330376360" cy="-104.5565662993" r="2" />
	<circle cx="0.0000000000" cy="-0.0000000000" r="2" />
	<circle cx="0.0000000000" cy="-0.0000000000" r="2" />
	<circle cx="999.9998368057" cy="-0.0000942162" r="2" />
	<circle cx="500.0000000000" cy="-866.0254038000" r="2" />
	<circle cx="997.0063306176" cy="-2.3440674890" r="2" />
	<circle cx="500.0000000000" cy="-866.0254038000" r="2" />
	<circle cx="0.0000000000" cy="-0.0000000000" r="2" />
	<circle cx="500.6000468440" cy="-848.2045149863" r="2" />
	<circle cx="1000.0000000000" cy="-0.0000000000" r="2" />
	<circle cx="1000.0000000000" cy="-0.0000000000" r="2" />
	<circle cx="0.0000001616" cy="-0.0000000933" r="2" />
	<circle cx="427.4394717873" cy="-332.0900155018" r="2" />
	<circle cx="0.0001399594" cy="-0.0000811757" r="2" />
	<circle cx="1000.0000000000" cy="-0.0000000000" r="2" />
	<circle cx="1000.0000000000" cy="-0.0000000000" r="2" />
	<circle cx="500.0000002292" cy="-866.0254033904" r="2" />
	<circle cx="3.0961804945" cy="-1.9906579889" r="2" />
	<circle cx="999.9999993563" cy="-0.0000003715" r="2" />
	<circle cx="499.9999999999" cy="-866.0254034928" r="2" />
	<circle cx="1.0582091683" cy="-0.6108884998" r="2" />
	<circle cx="1000.0000000000" cy="-0.0000000000" r="2" />
	<circle cx="999.9999973056" cy="-0.0000015557" r="2" />
	<circle cx="1000.0000000000" cy="-0.0000000000" r="2" />
	<circle cx="1000.0000000000" cy="-0.0000000000" r="2" />
	<circle cx="999.9895070929" cy="-0.0033239059" r="2" />
	<circle cx="500.0000000251" cy="-866.0244476149" r="2" />
	<circle cx="411.9371094434" cy="-313.6227473564" r="2" />
	<circle cx="0.0000000000" cy="-0.0000000000" r="2" />
	<circle cx="499.9999993773" cy="-865.9965020895" r="2" />
	<circle cx="1000.0000000000" cy="-0.0000000000" r="2" />
	<circle cx="500.0000000002" cy="-866.0254014006" r="2" />
	<circle cx="0.0000160968" cy="-0.0000092919" r="2" />
	<circle cx="0.0000000000" cy="-0.0000000000" r="2" />
	<circle cx="999.9979549894" cy="-0.0011801676" r="2" />
	<circle cx="500.0000004800" cy="-866.0175004427" r="2" />
	<circle cx="0.0000000000" cy="-0.0000000000" r="2" />
	<circle cx="999.9999369614" cy="-0.0000363979" r="2" />
	<circle cx="0.0000000001" cy="-0.0000000000" r="2" />
	<circle cx="499.3739613720" cy="-537.9678970292" r="2" />
	<circle cx="542.0303119149" cy="-268.6892261068" r="2" />
	<circle cx="999.9825422923" cy="-0.0100792761" r="2" />
	<circle cx="1000.0000000000" cy="-0.0000000000" r="2" />
	<circle cx="949.0926253394" cy="-29.3921875848" r="2" />
	<circle cx="500.0000000000" cy="-866.0254038000" r="2" />
	<circle cx="0.0000000022" cy="-0.0000000013" r="2" />
	<circle cx="1000.0000000000" cy="-0.0000000000" r="2" />
	<circle cx="500.0000000000" cy="-866.0254038000" r="2" />
	<circle cx="1000.0000000000" cy="-0.0000000000" r="2" />
	<circle cx="500.0000000000" cy="-866.0254037965" r="2" />
	<circle cx="0.0000021409" cy="-0.0000012358" r="2" />
	<circle cx="239.6269684086" cy="-146.0408348302" r="2" />
	<circle cx="1000.0000000000" cy="-0.0000000000" r="2" />
	<circle cx="0.0000007726" cy="-0.0000004460" r="2" />
	<circle cx="0.0000487274" cy="-0.0000843983" r="2" />
	<circle cx="500.0000000000" cy="-866.0254038000" r="2" />
	<circle cx="999.9623445637" cy="-0.0649107352" r="2" />
	<circle cx="500.0000000088" cy="-866.0252488082" r="2" />
	<circle cx="999.9842518023" cy="-0.0090917573" r="2" />
	<circle cx="999.9999999999" cy="-0.0000000000" r="2" />
	<circle cx="500.0000000035" cy="-866.0252690952" r="2" />
	<circle cx="1000.0000000000" cy="-0.0000000000" r="2" />
	<circle cx="0.0000000000" cy="-0.0000000000" r="2" />
	<circle cx="117.7026252075" cy="-69.7179051639" r="2" />
	<circle cx="0.0034914792" cy="-0.0024786752" r="2" />
	<circle cx="1000.0000000000" cy="-0.0000000000" r="2" />
	<circle cx="1000.0000000000" cy="-0.0000000000" r="2" />
	<circle cx="0.0004360028" cy="-0.0002517053" r="2" />
	<circle cx="999.9999999998" cy="-0.0000000001" r="2" />
	<circle cx="500.0000000000" cy="-866.0254030598" r="2" />
	<circle cx="0.0000000000" cy="-0.0000000000" r="2" />
	<circle cx="999.9999893426" cy="-0.0000061551" r="2" />
	<circle cx="1000.0000000000" cy="-0.0000000000" r="2" />
	<circle cx="85.2594175303" cy="-62.8406333096" r="2" />
	<circle cx="0.0000000044" cy="-0.0000000025" r="2" />
	<circle cx="0.0000000171" cy="-0.0000000098" r="2" />
	<circle cx="999.9999999977" cy="-0.0000000013" r="2" />
	<circle cx="1000.0000000000" cy="-0.0000000000" r="2" />
	<circle cx="500.0012499402" cy="-865.9951582525" r="2" />
	<circle cx="999.9999999581" cy="-0.0000000002" r="2" />
	<circle cx="434.0904560553" cy="-394.5878073149" r="2" />
	<circle cx="1000.0000000000" cy="-0.0000000000" r="2" />
	<circle cx="499.9964221298" cy="-339.6286084020" r="2" />
	<circle cx="500.1196293855" cy="-864.1009114097" r="2" />
	<circle cx="1000.0000000000" cy="-0.0000000000" r="2" />
	<circle cx="0.0000000000" cy="-0.0000000000" r="2" />
	<circle cx="499.1620739118" cy="-864.3761756186" r="2" />
	<circle cx="1000.0000000000" cy="-0.0000000000" r="2" />
	<circle cx="0.0000000000" cy="-0.0000000000" r="2" />
	<circle cx="1000.0000000000" cy="-0.0000000000" r="2" />
	<circle cx="510.3386618628" cy="-542.6584156688" r="2" />
	<circle cx="1000.0000000000" cy="-0.0000000000" r="2" />
	<circle cx="987.6597553247" cy="-7.1259008677" r="2" />
	<circle cx="0.0000000000" cy="-0.0000000000" r="2" />
	<circle cx="999.9873773779" cy="-0.0072880886" r="2" />
	<circle cx="500.0000000001" cy="-866.0254021064" r="2" />
	<circle cx="500.0000000000" cy="-866.0254038000" r="2" />
	<circle cx="0.0055117596" cy="-0.0030449898" r="2" />
	<circle cx="1000.0000000000" cy="-0.0000000000" r="2" />
	<circle cx="1000.0000000000" cy="-0.0000000000" r="2" />
	<circle cx="500.0000000000" cy="-866.0254038000" r="2" />
	<circle cx="0.0000000000" cy="-0.0000000000" r="2" />
	<circle cx="999.9999982070" cy="-0.0000010350" r="2" />
	<circle cx="0.0000000000" cy="-0.0000000000" r="2" />
	<circle cx="500.0006404976" cy="-821.2852615714" r="2" />
	<circle cx="500.0000000091" cy="-866.0253566060" r="2" />
	<circle cx="0.0000000000" cy="-0.0000000000" r="2" />
	<circle cx="512.0528365132" cy="-531.0956526333" r="2" />
	<circle cx="0.0019022310" cy="-0.0032947608" r="2" />
	<circle cx="1.7817160581" cy="-1.0381868165" r="2" />
	<circle cx="500.0116585326" cy="-423.3399064326" r="2" />
	<circle cx="0.0000000000" cy="-0.0000000000" r="2" />
	<circle cx="1000.0000000000" cy="-0.0000000000" r="2" />
	<circle cx="0.0000000000" cy="-0.0000000000" r="2" />
	<circle cx="0.0000000776" cy="-0.0000000448" r="2" />
	<circle cx="0.0000013315" cy="-0.0000005870" r="2" />
	<circle cx="50.8852875502" cy="-29.4746496551" r="2" />
	<circle cx="1000.0000000000" cy="-0.0000000000" r="2" />
	<circle cx="500.0793584888" cy="-865.8879264722" r="2" />
	<circle cx="1.2117980326" cy="-0.6995722321" r="2" />
	<circle cx="0.0000000000" cy="-0.0000000000" r="2" />
	<circle cx="404.8262992904" cy="-237.9331770642" r="2" />
	<circle cx="999.4377496423" cy="-0.3451521365" r="2" />
	<circle cx="0.0000001249" cy="-0.0000000720" r="2" />
	<circle cx="500.0000000000" cy="-866.0254035544" r="2" />
	<circle cx="999.9223236227" cy="-0.0448426108" r="2" />
	<circle cx="500.0000000000" cy="-866.0254038000" r="2" />
	<circle cx="0.0000000000" cy="-0.0000000000" r="2" />
	<circle cx="500.3782766458" cy="-862.5352821370" r="2" />
	<circle cx="500.0000000237" cy="-866.0253232256" r="2" />
	<circle cx="0.0000005793" cy="-0.0000003316" r="2" />
	<circle cx="999.9999999940" cy="-0.0000000035" r="2" />
	<circle cx="499.9999999994" cy="-866.0254005176" r="2" />
	<circle cx="137.9121694055" cy="-180.9049941663" r="2" />
	<circle cx="999.8819904410" cy="-0.0681435518" r="2" />
	<circle cx="1000.0000000000" cy="-0.0000000000" r="2" />
	<circle cx="0.0000000000" cy="-0.0000000000" r="2" />
	<circle cx="495.6139152697" cy="-297.4928053902" r="2" />
	<circle cx="4.9543793858" cy="-2.8600439294" r="2" />
	<circle cx="1000.0000000000" cy="-0.0000000000" r="2" />
	<circle cx="999.9999882525" cy="-0.0000067841" r="2" />
	<circle cx="500.0000036559" cy="-865.8473905331" r="2" />
	<circle cx="1000.0000000000" cy="-0.0000000000" r="2" />
	<circle cx="0.0000000020" cy="-0.0000000011" r="2" />
	<circle cx="0.0001985722" cy="-0.0001146555" r="2" />
	<circle cx="999.9999990839" cy="-0.0000005502" r="2" />
	<circle cx="1000.0000000000" cy="-0.0000000000" r="2" />
	<circle cx="500.0000000000" cy="-866.0254038000" r="2" />
	<circle cx="1000.0000000000" cy="-0.0000000000" r="2" />
	<circle cx="0.0000000000" cy="-0.0000000000" r="2" />
	<circle cx="500.0000000000" cy="-866.0254038000" r="2" />
	<circle cx="0.0000000000" cy="-0.0000000000" r="2" />
	<circle cx="500.0000000002" cy="-866.0254033432" r="2" />
	<circle cx="500.1586074321" cy="-351.7883344995" r="2" />
	<circle cx="999.9983550854" cy="-0.0009496970" r="2" />
	<circle cx="0.0000000188" cy="-0.0000000108" r="2" />
	<circle cx="0.0000000000" cy="-0.0000000000" r="2" />
	<circle cx="0.0000000000" cy="-0.0000000000" r="2" />
	<circle cx="499.1945682771" cy="-859.5254185948" r="2" />
	<circle cx="500.0000000000" cy="-866.0254029876" r="2" />
	<circle cx="0.0000475293" cy="-0.0000274395" r="2" />
	<circle cx="999.9998614164" cy="-0.0000800241" r="2" />
	<circle cx="1000.0000000000" cy="-0.0000000000" r="2" />
	<circle cx="1000.0000000000" cy="-0.0000000000" r="2" />
	<circle cx="0.0000000163" cy="-0.0000000000" r="2" />
	<circle cx="0.0000000000" cy="-0.0000000000" r="2" />
	<circle cx="0.0000000000" cy="-0.0000000000" r="2" />
	<circle cx="438.0783893955" cy="-252.9243699848" r="2" />
	<circle cx="0.0006445619" cy="-0.0003721808" r="2" />
	<circle cx="1000.0000000000" cy="-0.0000000000" r="2" />
	<circle cx="998.5179358557" cy="-1.6224218235" r="2" />
	<circle cx="500.0002886991" cy="-863.4222130311" r="2" />
	<circle cx="458.2735570590" cy="-791.5243200173" r="2" />
	<circle cx="500.0000345879" cy="-860.8669231625" r="2" />
	<circle cx="955.0743386417" cy="-9.1328266593" r="2" />
	<circle cx="0.0003199481" cy="-0.0001847237" r="2" />
	<circle cx="999.9999938231" cy="-0.0000035668" r="2" />
	<circle cx="0.0000000000" cy="-0.0000000000" r="2" />
	<circle cx="499.9999872139" cy="-865.9516257277" r="2" />
	<circle cx="0.0000000000" cy="-0.0000000000" r="2" />
	<circle cx="500.8451899888" cy="-288.1643571239" r="2" />
	<circle cx="0.0117666322" cy="-0.0067921100" r="2" />
	<circle cx="36.1666158652" cy="-3.0012365164" r="2" />
	<circle cx="0.0000000000" cy="-0.0000000000" r="2" />
	<circle cx="0.0000000000" cy="-0.0000000000" r="2" />
	<circle cx="1000.0000000000" cy="-0.0000000000" r="2" />
	<circle cx="999.9961867073" cy="-0.0023647837" r="2" />
	<circle cx="1000.0000000000" cy="-0.0000000000" r="2" />
	<circle cx="1000.0000000000" cy="-0.0000000000" r="2" />
	<circle cx="1000.0000000000" cy="-0.0000000000" r="2" />
	<circle cx="500.0000000000" cy="-866.0254038000" r="2" />
	<circle cx="491.5713986478" cy="-309.2179465100" r="2" />
	<circle cx="0.0000000000" cy="-0.0000000000" r="2" />
	<circle cx="500.0000000000" cy="-866.0254038000" r="2" />
	<circle cx="999.9999811638" cy="-0.0000108728" r="2" />
	<circle cx="0.0000000000" cy="-0.0000000000" r="2" />
	<circle cx="499.9999997879" cy="-866.0122133333" r="2" />
	<circle cx="965.1062186404" cy="-14.0260247473" r="2" />
	<circle cx="499.9999999999" cy="-866.0254036443" r="2" />
	<circle cx="984.4578912655" cy="-8.9701900674" r="2" />
	<circle cx="473.8113622309" cy="-272.4427916718" r="2" />
	<circle cx="500.0000000000" cy="-866.0254038000" r="2" />
	<circle cx="0.0000000000" cy="-0.0000000000" r="2" />
	<circle cx="537.4292959859" cy="-290.7446671446" r="2" />
	<circle cx="1000.0000000000" cy="-0.0000000000" r="2" />
	<circle cx="1000.0000000000" cy="-0.0000000000" r="2" />
	<circle cx="610.3525217176" cy="-224.8593685538" r="2" />
	<circle cx="0.0013783520" cy="-0.0000000001" r="2" />
	<circle cx="500.0000000003" cy="-866.0253955822" r="2" />
	<circle cx="922.5609255128" cy="-44.7140691937" r="2" />
	<circle cx="519.6835646903" cy="-358.4561619669" r="2" />
	<circle cx="500.0000000000" cy="-866.0254038000" r="2" />
	<circle cx="506.2049476906" cy="-355.5503341345" r="2" />
	<circle cx="0.0000000000" cy="-0.0000000000" r="2" />
	<circle cx="752.5586462928" cy="-120.8165991147" r="2" />
	<circle cx="999.9999388549" cy="-0.0000352975" r="2" />
	<circle cx="499.9999999999" cy="-866.0254030048" r="2" />
	<circle cx="443.2662328948" cy="-193.1851177883" r="2" />
	<circle cx="1000.0000000000" cy="-0.0000000000" r="2" />
	<circle cx="999.9999999996" cy="-0.0000000002" r="2" />
	<circle cx="999.9999723116" cy="-0.0000159708" r="2" />
	<circle cx="0.0000004628" cy="-0.0000002671" r="2" />
	<circle cx="500.0098364671" cy="-857.8102931434" r="2" />
	<circle cx="0.0000000000" cy="-0.0000000000" r="2" />
	<circle cx="1000.0000000000" cy="-0.0000000000" r="2" />
	<circle cx="999.9999999296" cy="-0.0000000406" r="2" />
	<circle cx="1000.0000000000" cy="-0.0000000000" r="2" />
	<circle cx="500.0000000000" cy="-866.0254038000" r="2" />
	<circle cx="999.7635909984" cy="-0.1365011923" r="2" />
	<circle cx="0.0000000029" cy="-0.0000000017" r="2" />
	<circle cx="0.0000000002" cy="-0.0000000001" r="2" />
	<circle cx="798.8420525341" cy="-97.5737459415" r="2" />
	<circle cx="500.0000000000" cy="-866.0254038000" r="2" />
	<circle cx="0.0003468488" cy="-0.0002002450" r="2" />
	<circle cx="0.0268017376" cy="-0.0133785448" r="2" />
	<circle cx="1000.0000000000" cy="-0.0000000000" r="2" />
	<circle cx="500.0000000000" cy="-866.0254017947" r="2" />
	<circle cx="0.0000000007" cy="-0.0000000004" r="2" />
	<circle cx="999.9999999992" cy="-0.0000000005" r="2" />
	<circle cx="998.7254732963" cy="-0.7358865769" r="2" />
	<circle cx="358.5503442799" cy="-206.7765773016" r="2" />
	<circle cx="500.0000000000" cy="-866.0254038000" r="2" />
	<circle cx="500.0000000000" cy="-866.0254038000" r="2" />
	<circle cx="499.9999691068" cy="-863.3520675835" r="2" />
	<circle cx="500.0000000000" cy="-866.0254038000" r="2" />
	<circle cx="7.1736671421" cy="-4.1417439198" r="2" />
	<circle cx="999.9999978237" cy="-0.0000012496" r="2" />
	<circle cx="999.9999998921" cy="-0.0000000534" r="2" />
	<circle cx="0.0000014861" cy="-0.0000008580" r="2" />
	<circle cx="500.0000000000" cy="-866.0254038000" r="2" />
	<circle cx="1000.0000000000" cy="-0.0000000000" r="2" />
	<circle cx="0.0000671630" cy="-0.0000387734" r="2" />
	<circle cx="9.0013651450" cy="-4.5858770743" r="2" />
	<circle cx="0.0138035417" cy="-0.0058148976" r="2" />
	<circle cx="0.0038300070" cy="-0.0022278316" r="2" />
	<circle cx="0.0000000000" cy="-0.0000000000" r="2" />
	<circle cx="1000.0000000000" cy="-0.0000000000" r="2" />
	<circle cx="640.7577187354" cy="-285.4599664096" r="2" />
	<circle cx="0.0000000459" cy="-0.0000000265" r="2" />
	<circle cx="586.0985139235" cy="-298.1834719799" r="2" />
	<circle cx="996.9698323359" cy="-1.3306177610" r="2" />
	<circle cx="805.2666638778" cy="-337.2880320241" r="2" />
	<circle cx="0.0000000000" cy="-0.0000000000" r="2" />
	<circle cx="500.0000000000" cy="-866.0254038000" r="2" />
	<circle cx="500.0000000000" cy="-866.0254038000" r="2" />
	<circle cx="499.9456401066" cy="-423.3150738796" r="2" />
	<circle cx="0.0000000000" cy="-0.0000000000" r="2" />
	<circle cx="1000.0000000000" cy="-0.0000000000" r="2" />
	<circle cx="229.0105891480" cy="-101.3721449767" r="2" />
	<circle cx="499.9999999999" cy="-866.0254020521" r="2" />
	<circle cx="499.9994725124" cy="-855.7087454441" r="2" />
	<circle cx="163.3852158932" cy="-94.3244687483" r="2" />
	<circle cx="223.4636006068" cy="-128.3981942367" r="2" />
	<circle cx="0.0000000000" cy="-0.0000000000" r="2" />
	<circle cx="499.9964839806" cy="-848.3054988285" r="2" />
	<circle cx="999.9999999324" cy="-0.0000000390" r="2" />
	<circle cx="6.2193107973" cy="-3.6750897203" r="2" />
	<circle cx="0.0000210757" cy="-0.0000121673" r="2" />
	<circle cx="795.9610119310" cy="-126.2858940362" r="2" />
	<circle cx="500.0000000018" cy="-866.0253915596" r="2" />
	<circle cx="0.0000000013" cy="-0.0000000008" r="2" />
	<circle cx="999.6188972830" cy="-0.2200695454" r="2" />
	<circle cx="500.0000000000" cy="-866.0254038000" r="2" />
	<circle cx="0.0000000000" cy="-0.0000000000" r="2" />
	<circle cx="1000.0000000000" cy="-0.0000000000" r="2" />
	<circle cx="290.6637269952" cy="-167.1895991586" r="2" />
	<circle cx="3.0409222730" cy="-1.7636332986" r="2" />
	<circle cx="0.0000016266" cy="-0.0000009343" r="2" />
	<circle cx="500.0000000000" cy="-866.0254038000" r="2" />
	<circle cx="0.0000000000" cy="-0.0000000000" r="2" />
	<circle cx="500.0000000000" cy="-866.0254038000" r="2" />
	<circle cx="999.9999999899" cy="-0.0000000058" r="2" />
	<circle cx="999.9999335919" cy="-0.0000383434" r="2" />
	<circle cx="11.0882658141" cy="-6.2192733050" r="2" />
	<circle cx="1000.0000000000" cy="-0.0000000000" r="2" />
	<circle cx="1000.0000000000" cy="-0.0000000000" r="2" />
	<circle cx="1000.0000000000" cy="-0.0000000000" r="2" />
	<circle cx="999.9999999992" cy="-0.0000000005" r="2" />
	<circle cx="999.9999995024" cy="-0.0000004847" r="2" />
	<circle cx="500.0000000003" cy="-866.0254012577" r="2" />
	<circle cx="499.9999803305" cy="-865.9829678220" r="2" />
	<circle cx="500.0325055150" cy="-556.8466157152" r="2" />
	<circle cx="1000.0000000000" cy="-0.0000000000" r="2" />
	<circle cx="999.9999999997" cy="-0.0000000002" r="2" />
	<circle cx="500.0000000000" cy="-866.0254038000" r="2" />
	<circle cx="0.0000001251" cy="-0.0000000722" r="2" />
	<circle cx="498.6556308708" cy="-204.1860587076" r="2" />
	<circle cx="0.0000000000" cy="-0.0000000000" r="2" />
	<circle cx="501.7661371840" cy="-750.4258576737" r="2" />
	<circle cx="500.0000000000" cy="-866.0254038000" r="2" />
	<circle cx="0.0000000000" cy="-0.0000000000" r="2" />
	<circle cx="0.0000000000" cy="-0.0000000000" r="2" />
	<circle cx="0.0000700928" cy="-0.0000404737" r="2" />
	<circle cx="0.0063024914" cy="-0.0036386314" r="2" />
	<circle cx="500.0000000000" cy="-866.0254038000" r="2" />
  </g>
  <g id="fig2" transform="translate(-550.0,1000)">
	<polygon points="0.0,-0.0 1000.0,-0.0 500.0,-866.0254038" />
	<line
	   id="line2-1"
	   y2="-0.0"
	   x2="500"
	   y1="-288.6751346"
	   x1="500" />
	<line
	   id="line2-2"
	   y2="-433.0127019"
	   x2="250"
	   y1="-288.6751346"
	   x1="500" />
	<line
	   id="line2-3"
	   y2="-433.0127019"
	   x2="750"
	   y1="-288.6751346"
	   x1="500" />
	<text
	   x="440"
	   y="-500"
	   id="up_2">29.4%</text>
	<text
	   x="250"
	   y="-150"
	   id="down_left_2">32.8%</text>
	<text
	   x="630"
	   y="-150"
	   id="down_right_2">37.8%</text>
  </g>
  <g id="fig3" transform="translate(550,1000)">
	<polygon points="0.0,-0.0 1000.0,-0.0 500.0,-866.0254038" />
	<polygon id="triangle3b" points="250,-144.3375673 750,-144.3375673 500,-577.3502692" />
	<line
	   id="line3-1"
	   x1="125"
	   y1="-216.5063509"
	   x2="250"
	   y2="-144.3375673" />
	<line
	   id="line3-2"
	   x1="375"
	   y1="-649.5190528"
	   x2="500"
	   y2="-577.3502692" />
	<line
	   id="line3-3"
	   x1="625"
	   y1="-649.5190528"
	   x2="500"
	   y2="-577.3502692" />
	<line
	   id="line3-4"
	   x1="875"
	   y1="-216.5063509"
	   x2="750"
	   y2="-144.3375673" />
	<line
	   id="line3-5"
	   x1="750"
	   y1="-0.0"
	   x2="750"
	   y2="-144.3375673" />
	<line
	   id="line3-6"
	   x1="250"
	   y1="-0.0"
	   x2="250"
	   y2="-144.3375673" />
	<text
	   x="500"
	   y="-660"
	   text-anchor="middle"
	   id="up_3">26.0%</text>
	<text
	   y="-50"
	   x="70"
	   id="down_left_3">30.6%</text>
	<text
	   y="-50"
	   x="770"
	   id="down_right_3">35.4%</text>
	<text
	   x="500"
	   y="-50"
	   text-anchor="middle"
	   id="down_side_3">0.2%</text>
	<text
	   x="500"
	   y="-280"
	   text-anchor="middle"
	   id="center_3">7.6%</text>
	<text
	   x="685.0"
	   y="-390.8439"
	   text-anchor="middle"
	   transform="rotate(60,665.0,-380.8439)"
	   id="right_side_3">0.2%</text>
	<text
	   x="315.0"
	   y="-390.8439"
	   text-anchor="middle"
	   transform="rotate(-60,335.0,-380.8439)"
	   id="left_side_3">0.0%</text>
  </g>
</g></g>
</svg>
