<?xml version="1.0" encoding="UTF-8" standalone="no"?>
<!DOCTYPE svg PUBLIC "-//W3C//DTD SVG 1.1//EN" "http://www.w3.org/Graphics/SVG/1.1/DTD/svg11.dtd">
<svg
   xmlns:svg="http://www.w3.org/2000/svg"
   xmlns="http://www.w3.org/2000/svg"
   xmlns:xlink="http://www.w3.org/1999/xlink"
   version="1.1"
   baseProfile="full"
   id="body"
   width="800px"
   height="800px"
   viewBox="0 0 1000 1000"
   preserveAspectRatio="none">
  <defs>
    <style type="text/css"><![CDATA[
      circle{ stroke: none; }
      polygon{ stroke: black; stroke-width: 2px; fill: none; }
      line{ stroke: black; stroke-width: 2px; }
      text{ font-size:50px; }
    ]]></style>
  </defs>
  <title
     id="title1">SVG drawing</title>
<g transform="scale(0.45)"><g transform="translate(600,1050)">
  <g id="fig1">
	<polygon points="0.0,-0.0 1000.0,-0.0 500,-866.0254038" />
	<circle cx="0.0000000000" cy="-0.0000000000" r="2" />
	<circle cx="0.0000000000" cy="-0.0000000000" r="2" />
	<circle cx="461.4384436396" cy="-258.3155251897" r="2" />
	<circle cx="0.0000000000" cy="-0.0000000000" r="2" />
	<circle cx="500.5326220471" cy="-299.1372769298" r="2" />
	<circle cx="313.6954853357" cy="-180.9138536922" r="2" />
	<circle cx="971.0170608362" cy="-19.3560604109" r="2" />
	<circle cx="500.0000000000" cy="-866.0254038000" r="2" />
	<circle cx="504.8183822108" cy="-788.1041350648" r="2" />
	<circle cx="500.0000000000" cy="-866.0254038000" r="2" />
	<circle cx="472.4287983241" cy="-311.9811657764" r="2" />
	<circle cx="0.0000000000" cy="-0.0000000000" r="2" />
	<circle cx="0.0000000000" cy="-0.0000000000" r="2" />
	<circle cx="0.0000000000" cy="-0.0000000000" r="2" />
	<circle cx="735.9621339829" cy="-118.7488563724" r="2" />
	<circle cx="1000.0000000000" cy="-0.0000000000" r="2" />
	<circle cx="500.0090135777" cy="-865.9773902628" r="2" />
	<circle cx="0.0000000000" cy="-0.0000000000" r="2" />
	<circle cx="0.0000000000" cy="-0.0000000000" r="2" />
	<circle cx="1000.0000000000" cy="-0.0000000000" r="2" />
	<circle cx="485.6418926759" cy="-837.7867417039" r="2" />
	<circle cx="52.6732859603" cy="-29.7482888662" r="2" />
	<circle cx="1000.0000000000" cy="-0.0000000000" r="2" />
	<circle cx="500.0000000000" cy="-866.0254038000" r="2" />
	<circle cx="1000.0000000000" cy="-0.0000000000" r="2" />
	<circle cx="0.0000000000" cy="-0.0000000000" r="2" />
	<circle cx="1000.0000000000" cy="-0.0000000000" r="2" />
	<circle cx="1000.0000000000" cy="-0.0000000000" r="2" />
	<circle cx="848.5805259863" cy="-86.9219519545" r="2" />
	<circle cx="0.0000000000" cy="-0.0000000000" r="2" />
	<circle cx="918.1863747377" cy="-75.6819765540" r="2" />
	<circle cx="999.9999999998" cy="-0.0000000001" r="2" />
	<circle cx="0.0000000000" cy="-0.0000000000" r="2" />
	<circle cx="500.0000000000" cy="-866.0254038000" r="2" />
	<circle cx="500.0000000000" cy="-866.0254038000" r="2" />
	<circle cx="1000.0000000000" cy="-0.0000000000" r="2" />
	<circle cx="380.9873460012" cy="-265.9840147911" r="2" />
	<circle cx="973.4785470666" cy="-45.9354647980" r="2" />
	<circle cx="500.0000000003" cy="-866.0254037884" r="2" />
	<circle cx="0.0150141128" cy="-0.0081809770" r="2" />
	<circle cx="0.0000000000" cy="-0.0000000000" r="2" />
	<circle cx="1000.0000000000" cy="-0.0000000000" r="2" />
	<circle cx="499.9999999945" cy="-866.0254037830" r="2" />
	<circle cx="0.0000002072" cy="-0.0000000691" r="2" />
	<circle cx="0.0000000000" cy="-0.0000000000" r="2" />
	<circle cx="999.9999999950" cy="-0.0000000026" r="2" />
	<circle cx="500.0000000000" cy="-866.0254038000" r="2" />
	<circle cx="500.0000000000" cy="-866.0254038000" r="2" />
	<circle cx="0.0000000000" cy="-0.0000000000" r="2" />
	<circle cx="999.9999531213" cy="-0.0000000051" r="2" />
	<circle cx="500.0000000000" cy="-866.0254038000" r="2" />
	<circle cx="1000.0000000000" cy="-0.0000000000" r="2" />
	<circle cx="185.2984741792" cy="-107.4150187993" r="2" />
	<circle cx="500.0000000000" cy="-866.0254038000" r="2" />
	<circle cx="145.7720358609" cy="-70.3646565806" r="2" />
	<circle cx="996.1070443532" cy="-2.0301741932" r="2" />
	<circle cx="1000.0000000000" cy="-0.0000000000" r="2" />
	<circle cx="0.0000000000" cy="-0.0000000000" r="2" />
	<circle cx="476.5768574607" cy="-797.4531206420" r="2" />
	<circle cx="330.8498283823" cy="-226.2932130428" r="2" />
	<circle cx="1000.0000000000" cy="-0.0000000000" r="2" />
	<circle cx="1000.0000000000" cy="-0.0000000000" r="2" />
	<circle cx="0.0000000000" cy="-0.0000000000" r="2" />
	<circle cx="499.8930633136" cy="-865.8212208784" r="2" />
	<circle cx="481.2842159118" cy="-557.8885278389" r="2" />
	<circle cx="679.9107775953" cy="-184.0879082873" r="2" />
	<circle cx="0.0000000000" cy="-0.0000000000" r="2" />
	<circle cx="1000.0000000000" cy="-0.0000000000" r="2" />
	<circle cx="1000.0000000000" cy="-0.0000000000" r="2" />
	<circle cx="499.9988732080" cy="-865.1943408261" r="2" />
	<circle cx="500.0000000000" cy="-866.0254038000" r="2" />
	<circle cx="0.0000000000" cy="-0.0000000000" r="2" />
	<circle cx="500.0000000000" cy="-866.0254038000" r="2" />
	<circle cx="0.8470072715" cy="-0.0062394879" r="2" />
	<circle cx="500.0000000000" cy="-866.0254038000" r="2" />
	<circle cx="516.7449947871" cy="-305.4528733512" r="2" />
	<circle cx="500.0000000000" cy="-866.0254038000" r="2" />
	<circle cx="500.0000000000" cy="-866.0254038000" r="2" />
	<circle cx="999.8731415547" cy="-0.2001283837" r="2" />
	<circle cx="999.9999999791" cy="-0.0000000087" r="2" />
	<circle cx="500.0000002468" cy="-866.0254020258" r="2" />
	<circle cx="572.4785410126" cy="-248.9272226166" r="2" />
	<circle cx="0.0000000000" cy="-0.0000000000" r="2" />
	<circle cx="441.0175792755" cy="-412.1882080674" r="2" />
	<circle cx="0.0023438680" cy="-0.0020264612" r="2" />
	<circle cx="422.5802017526" cy="-174.2465949447" r="2" />
	<circle cx="500.0000000000" cy="-866.0254038000" r="2" />
	<circle cx="500.0000000000" cy="-866.0254038000" r="2" />
	<circle cx="500.0000000000" cy="-866.0254038000" r="2" />
	<circle cx="999.9348471229" cy="-0.1105422065" r="2" />
	<circle cx="499.9999994535" cy="-866.0253956399" r="2" />
	<circle cx="113.5360501550" cy="-75.9083345505" r="2" />
	<circle cx="0.0000000087" cy="-0.0000000051" r="2" />
	<circle cx="1000.0000000000" cy="-0.0000000000" r="2" />
	<circle cx="8.6026666736" cy="-4.8684103346" r="2" />
	<circle cx="1000.0000000000" cy="-0.0000000000" r="2" />
	<circle cx="1000.0000000000" cy="-0.0000000000" r="2" />
	<circle cx="1000.0000000000" cy="-0.0000000000" r="2" />
	<circle cx="0.0000000000" cy="-0.0000000000" r="2" />
	<circle cx="499.8693395919" cy="-320.8035987245" r="2" />
	<circle cx="0.0000000096" cy="-0.0000000000" r="2" />
	<circle cx="1000.0000000000" cy="-0.0000000000" r="2" />
	<circle cx="500.0000000000" cy="-866.0254038000" r="2" />
	<circle cx="0.0000000000" cy="-0.0000000000" r="2" />
	<circle cx="500.0000000000" cy="-866.0254038000" r="2" />
	<circle cx="266.8246001646" cy="-112.3856818161" r="2" />
	<circle cx="1000.0000000000" cy="-0.0000000000" r="2" />
	<circle cx="500.0000000092" cy="-866.0254037422" r="2" />
	<circle cx="499.9999999826" cy="-866.0254037698" r="2" />
	<circle cx="1000.0000000000" cy="-0.0000000000" r="2" />
	<circle cx="500.0000000000" cy="-866.0254038000" r="2" />
	<circle cx="0.0000000045" cy="-0.0000000022" r="2" />
	<circle cx="0.0000000000" cy="-0.0000000000" r="2" />
	<circle cx="758.8226176849" cy="-127.8529801005" r="2" />
	<circle cx="625.2620750287" cy="-247.0835484632" r="2" />
	<circle cx="56.6138994604" cy="-63.6410784095" r="2" />
	<circle cx="1000.0000000000" cy="-0.0000000000" r="2" />
	<circle cx="499.9999999927" cy="-866.0254017017" r="2" />
	<circle cx="999.9999999995" cy="-0.0000000003" r="2" />
	<circle cx="0.0000000000" cy="-0.0000000000" r="2" />
	<circle cx="500.0000000000" cy="-866.0254038000" r="2" />
	<circle cx="991.1006555293" cy="-14.7044103716" r="2" />
	<circle cx="0.0259125813" cy="-0.0159594061" r="2" />
	<circle cx="500.0000001816" cy="-866.0252786658" r="2" />
	<circle cx="500.0000000000" cy="-866.0254038000" r="2" />
	<circle cx="500.0000000000" cy="-866.0254038000" r="2" />
	<circle cx="500.0000013821" cy="-866.0254013506" r="2" />
	<circle cx="1000.0000000000" cy="-0.0000000000" r="2" />
	<circle cx="0.0000052917" cy="-0.0000002033" r="2" />
	<circle cx="506.8399133062" cy="-334.6416419841" r="2" />
	<circle cx="495.7993439112" cy="-707.5006910552" r="2" />
	<circle cx="500.0000000000" cy="-866.0254038000" r="2" />
	<circle cx="999.6720131356" cy="-0.5679453686" r="2" />
	<circle cx="967.9727370405" cy="-15.7984377174" r="2" />
	<circle cx="0.0000000000" cy="-0.0000000000" r="2" />
	<circle cx="500.0000000000" cy="-866.0254038000" r="2" />
	<circle cx="499.9998438431" cy="-866.0223583518" r="2" />
	<circle cx="985.9509227030" cy="-7.7580641296" r="2" />
	<circle cx="0.0000000000" cy="-0.0000000000" r="2" />
	<circle cx="966.5939717483" cy="-17.1455553474" r="2" />
	<circle cx="1000.0000000000" cy="-0.0000000000" r="2" />
	<circle cx="500.0000000000" cy="-866.0254038000" r="2" />
	<circle cx="499.5100493945" cy="-865.1600599538" r="2" />
	<circle cx="0.0000000000" cy="-0.0000000000" r="2" />
	<circle cx="0.0000000000" cy="-0.0000000000" r="2" />
	<circle cx="381.2335266940" cy="-216.8607861213" r="2" />
	<circle cx="803.7828374904" cy="-169.3752449408" r="2" />
	<circle cx="494.6981441931" cy="-262.5775079842" r="2" />
	<circle cx="674.9074720659" cy="-1.0776787276" r="2" />
	<circle cx="0.0000000000" cy="-0.0000000000" r="2" />
	<circle cx="516.3112557267" cy="-736.7974837048" r="2" />
	<circle cx="501.5111152885" cy="-296.6262576996" r="2" />
	<circle cx="999.9999948091" cy="-0.0000001954" r="2" />
	<circle cx="500.0000000173" cy="-866.0254037700" r="2" />
	<circle cx="500.0000000000" cy="-866.0254038000" r="2" />
	<circle cx="500.0000000000" cy="-866.0254038000" r="2" />
	<circle cx="45.5371862440" cy="-35.7247575469" r="2" />
	<circle cx="62.2130348847" cy="-36.8923751540" r="2" />
	<circle cx="1000.0000000000" cy="-0.0000000000" r="2" />
	<circle cx="500.0000000000" cy="-866.0254038000" r="2" />
	<circle cx="0.0000000000" cy="-0.0000000000" r="2" />
	<circle cx="503.2412279905" cy="-257.1570911259" r="2" />
	<circle cx="1000.0000000000" cy="-0.0000000000" r="2" />
	<circle cx="0.0000000000" cy="-0.0000000000" r="2" />
	<circle cx="0.0000000000" cy="-0.0000000000" r="2" />
	<circle cx="500.0000000000" cy="-866.0254038000" r="2" />
	<circle cx="0.0000000000" cy="-0.0000000000" r="2" />
	<circle cx="0.0000000000" cy="-0.0000000000" r="2" />
	<circle cx="1000.0000000000" cy="-0.0000000000" r="2" />
	<circle cx="500.0000000000" cy="-866.0254038000" r="2" />
	<circle cx="309.6996648298" cy="-214.6510768103" r="2" />
	<circle cx="500.0000000000" cy="-866.0254038000" r="2" />
	<circle cx="500.0000000000" cy="-866.0254038000" r="2" />
	<circle cx="1000.0000000000" cy="-0.0000000000" r="2" />
	<circle cx="3.9535752965" cy="-0.2160706785" r="2" />
	<circle cx="0.0000000000" cy="-0.0000000000" r="2" />
	<circle cx="486.8686182469" cy="-304.1350623921" r="2" />
	<circle cx="495.4288316077" cy="-831.8991167558" r="2" />
	<circle cx="0.0000080401" cy="-0.0000000020" r="2" />
	<circle cx="1000.0000000000" cy="-0.0000000000" r="2" />
	<circle cx="1000.0000000000" cy="-0.0000000000" r="2" />
	<circle cx="0.0000000000" cy="-0.0000000000" r="2" />
	<circle cx="0.0000000000" cy="-0.0000000000" r="2" />
	<circle cx="0.0000000000" cy="-0.0000000000" r="2" />
	<circle cx="0.0000000000" cy="-0.0000000000" r="2" />
	<circle cx="473.7611588898" cy="-275.9529976753" r="2" />
	<circle cx="588.1916160785" cy="-281.4385261924" r="2" />
	<circle cx="1000.0000000000" cy="-0.0000000000" r="2" />
	<circle cx="500.0000000000" cy="-866.0254038000" r="2" />
	<circle cx="1000.0000000000" cy="-0.0000000000" r="2" />
	<circle cx="0.0000000319" cy="-0.0000000140" r="2" />
	<circle cx="0.0000000674" cy="-0.0000000000" r="2" />
	<circle cx="1000.0000000000" cy="-0.0000000000" r="2" />
	<circle cx="0.0034683383" cy="-0.0013329896" r="2" />
	<circle cx="0.0000000000" cy="-0.0000000000" r="2" />
	<circle cx="500.0000000000" cy="-866.0254038000" r="2" />
	<circle cx="0.0000000000" cy="-0.0000000000" r="2" />
	<circle cx="500.0000000000" cy="-866.0254038000" r="2" />
	<circle cx="814.3948645491" cy="-3.2939908154" r="2" />
	<circle cx="0.0000000000" cy="-0.0000000000" r="2" />
	<circle cx="1000.0000000000" cy="-0.0000000000" r="2" />
	<circle cx="0.0000000000" cy="-0.0000000000" r="2" />
	<circle cx="1000.0000000000" cy="-0.0000000000" r="2" />
	<circle cx="767.3089440697" cy="-134.6420109048" r="2" />
	<circle cx="0.0000000127" cy="-0.0000000074" r="2" />
	<circle cx="500.0309565936" cy="-865.8606422739" r="2" />
	<circle cx="771.7304434962" cy="-395.3744696930" r="2" />
	<circle cx="853.2021741587" cy="-64.2409207979" r="2" />
	<circle cx="999.9999999791" cy="-0.0000000087" r="2" />
	<circle cx="174.0231881308" cy="-232.8533705002" r="2" />
	<circle cx="1000.0000000000" cy="-0.0000000000" r="2" />
	<circle cx="499.9999976708" cy="-866.0253944936" r="2" />
	<circle cx="636.2172264431" cy="-166.4249659850" r="2" />
	<circle cx="1000.0000000000" cy="-0.0000000000" r="2" />
	<circle cx="500.0000000000" cy="-866.0254038000" r="2" />
	<circle cx="0.0000000000" cy="-0.0000000000" r="2" />
	<circle cx="0.0000000000" cy="-0.0000000000" r="2" />
	<circle cx="473.9111289562" cy="-785.6161699857" r="2" />
	<circle cx="473.9111289562" cy="-785.6161699857" r="2" />
	<circle cx="0.0000000000" cy="-0.0000000000" r="2" />
	<circle cx="500.0000000000" cy="-866.0254038000" r="2" />
	<circle cx="0.0000000000" cy="-0.0000000000" r="2" />
	<circle cx="500.0000000000" cy="-866.0254038000" r="2" />
	<circle cx="4.7973051014" cy="-2.8172580524" r="2" />
	<circle cx="1000.0000000000" cy="-0.0000000000" r="2" />
	<circle cx="509.8836241116" cy="-841.6245651649" r="2" />
	<circle cx="999.9999999994" cy="-0.0000000004" r="2" />
	<circle cx="500.0000000000" cy="-866.0254038000" r="2" />
	<circle cx="501.2864964494" cy="-336.8044645695" r="2" />
	<circle cx="111.7788635731" cy="-75.2804711782" r="2" />
	<circle cx="30.2025407444" cy="-0.0001497927" r="2" />
	<circle cx="1000.0000000000" cy="-0.0000000000" r="2" />
	<circle cx="500.0000000000" cy="-866.0254038000" r="2" />
	<circle cx="0.0000000132" cy="-0.0000000076" r="2" />
	<circle cx="0.0000000000" cy="-0.0000000000" r="2" />
	<circle cx="524.2330174344" cy="-278.0657325128" r="2" />
	<circle cx="1000.0000000000" cy="-0.0000000000" r="2" />
	<circle cx="0.0000000058" cy="-0.0000000034" r="2" />
	<circle cx="0.0000000000" cy="-0.0000000000" r="2" />
	<circle cx="0.0000015988" cy="-0.0000011055" r="2" />
	<circle cx="3.7254156503" cy="-2.5074057415" r="2" />
	<circle cx="999.9999999958" cy="-0.0000000028" r="2" />
	<circle cx="791.8541582827" cy="-158.6064870390" r="2" />
	<circle cx="0.0000000040" cy="-0.0000000019" r="2" />
	<circle cx="0.0000000000" cy="-0.0000000000" r="2" />
	<circle cx="500.0000000000" cy="-866.0254038000" r="2" />
	<circle cx="500.0000000066" cy="-866.0254037886" r="2" />
	<circle cx="0.0000000001" cy="-0.0000000001" r="2" />
	<circle cx="500.0000000000" cy="-866.0254038000" r="2" />
	<circle cx="500.1564176075" cy="-439.0382681953" r="2" />
	<circle cx="530.0929452908" cy="-313.4524887670" r="2" />
	<circle cx="0.0000045277" cy="-0.0000000001" r="2" />
	<circle cx="0.0083117244" cy="-0.0047987763" r="2" />
	<circle cx="1000.0000000000" cy="-0.0000000000" r="2" />
	<circle cx="0.0000000000" cy="-0.0000000000" r="2" />
	<circle cx="999.9012134193" cy="-0.1508916035" r="2" />
	<circle cx="1000.0000000000" cy="-0.0000000000" r="2" />
	<circle cx="499.9999956660" cy="-866.0253151695" r="2" />
	<circle cx="1000.0000000000" cy="-0.0000000000" r="2" />
	<circle cx="500.0000000000" cy="-866.0254038000" r="2" />
	<circle cx="1000.0000000000" cy="-0.0000000000" r="2" />
	<circle cx="992.9609739473" cy="-12.1826295196" r="2" />
	<circle cx="506.6001894105" cy="-664.1415286386" r="2" />
	<circle cx="1000.0000000000" cy="-0.0000000000" r="2" />
	<circle cx="0.0000000000" cy="-0.0000000000" r="2" />
	<circle cx="1000.0000000000" cy="-0.0000000000" r="2" />
	<circle cx="0.0000000000" cy="-0.0000000000" r="2" />
	<circle cx="0.0000000000" cy="-0.0000000000" r="2" />
	<circle cx="999.9969367193" cy="-0.0020777290" r="2" />
	<circle cx="0.0000000000" cy="-0.0000000000" r="2" />
	<circle cx="520.0024234968" cy="-307.3005318633" r="2" />
	<circle cx="0.0025620677" cy="-0.0017995053" r="2" />
	<circle cx="416.0621674023" cy="-230.7227171840" r="2" />
	<circle cx="0.0000001478" cy="-0.0000000902" r="2" />
	<circle cx="500.0000000000" cy="-866.0254038000" r="2" />
	<circle cx="499.9604598788" cy="-865.8140916169" r="2" />
	<circle cx="814.8368961120" cy="-107.0886990952" r="2" />
	<circle cx="500.0000000000" cy="-866.0254038000" r="2" />
	<circle cx="500.0000000000" cy="-866.0254038000" r="2" />
	<circle cx="500.0000000000" cy="-866.0254038000" r="2" />
	<circle cx="1000.0000000000" cy="-0.0000000000" r="2" />
	<circle cx="0.7164752774" cy="-1.2409715828" r="2" />
	<circle cx="0.0022029474" cy="-0.0010814705" r="2" />
	<circle cx="517.8813063825" cy="-258.9904032653" r="2" />
	<circle cx="494.4397273992" cy="-832.5286115164" r="2" />
	<circle cx="8.0322938244" cy="-13.2818210849" r="2" />
	<circle cx="0.0000000000" cy="-0.0000000000" r="2" />
	<circle cx="499.9537329826" cy="-865.7865801000" r="2" />
	<circle cx="1000.0000000000" cy="-0.0000000000" r="2" />
	<circle cx="0.0000000000" cy="-0.0000000000" r="2" />
	<circle cx="999.9315623987" cy="-0.0189685638" r="2" />
	<circle cx="466.4182306892" cy="-429.9630406182" r="2" />
	<circle cx="485.8644240469" cy="-635.4539366363" r="2" />
	<circle cx="500.0000000000" cy="-866.0254038000" r="2" />
	<circle cx="500.0000000000" cy="-866.0254038000" r="2" />
	<circle cx="499.9999977507" cy="-866.0253953975" r="2" />
	<circle cx="0.0000000000" cy="-0.0000000000" r="2" />
	<circle cx="0.0000000000" cy="-0.0000000000" r="2" />
	<circle cx="0.0000000038" cy="-0.0000000024" r="2" />
	<circle cx="1000.0000000000" cy="-0.0000000000" r="2" />
	<circle cx="1000.0000000000" cy="-0.0000000000" r="2" />
	<circle cx="1000.0000000000" cy="-0.0000000000" r="2" />
	<circle cx="625.2620750287" cy="-247.0835484632" r="2" />
	<circle cx="78.1555578785" cy="-113.1534031153" r="2" />
	<circle cx="0.0000000121" cy="-0.0000000070" r="2" />
	<circle cx="0.0000000000" cy="-0.0000000000" r="2" />
	<circle cx="311.7116521322" cy="-151.0429661190" r="2" />
	<circle cx="1000.0000000000" cy="-0.0000000000" r="2" />
	<circle cx="95.4565960536" cy="-158.9254976240" r="2" />
	<circle cx="151.5792307577" cy="-61.9842096169" r="2" />
	<circle cx="999.6128986197" cy="-0.6533439133" r="2" />
	<circle cx="500.0000000000" cy="-866.0254038000" r="2" />
	<circle cx="500.0000000000" cy="-866.0254038000" r="2" />
	<circle cx="499.9999997771" cy="-866.0254020526" r="2" />
	<circle cx="0.0000001880" cy="-0.0000001297" r="2" />
	<circle cx="0.0117451589" cy="-0.0074001466" r="2" />
	<circle cx="1000.0000000000" cy="-0.0000000000" r="2" />
	<circle cx="0.0000000000" cy="-0.0000000000" r="2" />
	<circle cx="1000.0000000000" cy="-0.0000000000" r="2" />
	<circle cx="0.0000000000" cy="-0.0000000000" r="2" />
	<circle cx="503.4380735167" cy="-419.9024522245" r="2" />
	<circle cx="471.5397069294" cy="-246.0354198620" r="2" />
	<circle cx="1000.0000000000" cy="-0.0000000000" r="2" />
	<circle cx="500.0000000000" cy="-866.0254038000" r="2" />
	<circle cx="0.0000000000" cy="-0.0000000000" r="2" />
	<circle cx="1000.0000000000" cy="-0.0000000000" r="2" />
	<circle cx="780.2267828684" cy="-114.5510340601" r="2" />
	<circle cx="999.9999942966" cy="-0.0000045390" r="2" />
	<circle cx="0.0000000000" cy="-0.0000000000" r="2" />
	<circle cx="0.0000000000" cy="-0.0000000000" r="2" />
	<circle cx="999.9999999953" cy="-0.0000000081" r="2" />
	<circle cx="409.0047162331" cy="-236.8027537433" r="2" />
	<circle cx="583.8876141107" cy="-200.4234518672" r="2" />
	<circle cx="516.7449947871" cy="-305.4528733512" r="2" />
	<circle cx="0.0000000000" cy="-0.0000000000" r="2" />
	<circle cx="502.9685174733" cy="-324.6124903066" r="2" />
	<circle cx="1000.0000000000" cy="-0.0000000000" r="2" />
	<circle cx="951.3535081708" cy="-23.7321194799" r="2" />
	<circle cx="1000.0000000000" cy="-0.0000000000" r="2" />
	<circle cx="1000.0000000000" cy="-0.0000000000" r="2" />
	<circle cx="999.9999935465" cy="-0.0000055979" r="2" />
	<circle cx="5.7999345257" cy="-3.6189145804" r="2" />
	<circle cx="0.2382739693" cy="-0.2114748293" r="2" />
	<circle cx="944.2921858662" cy="-2.0738440346" r="2" />
	<circle cx="0.0000000000" cy="-0.0000000000" r="2" />
	<circle cx="1000.0000000000" cy="-0.0000000000" r="2" />
	<circle cx="1000.0000000000" cy="-0.0000000000" r="2" />
	<circle cx="0.0000000000" cy="-0.0000000000" r="2" />
	<circle cx="500.0000000000" cy="-866.0254038000" r="2" />
	<circle cx="500.0000000000" cy="-866.0254038000" r="2" />
	<circle cx="500.0634442786" cy="-865.9132355595" r="2" />
	<circle cx="500.0000000000" cy="-866.0254038000" r="2" />
	<circle cx="500.0000000000" cy="-866.0254038000" r="2" />
	<circle cx="0.0000000000" cy="-0.0000000000" r="2" />
	<circle cx="999.9999999879" cy="-0.0000000070" r="2" />
	<circle cx="0.0000000071" cy="-0.0000000041" r="2" />
	<circle cx="626.5038443039" cy="-640.5536975017" r="2" />
	<circle cx="499.3947060337" cy="-818.6139059774" r="2" />
	<circle cx="0.0000000000" cy="-0.0000000000" r="2" />
	<circle cx="1000.0000000000" cy="-0.0000000000" r="2" />
	<circle cx="1000.0000000000" cy="-0.0000000000" r="2" />
	<circle cx="322.6883733574" cy="-5.8278794507" r="2" />
	<circle cx="463.4873130821" cy="-245.6057659069" r="2" />
	<circle cx="1000.0000000000" cy="-0.0000000000" r="2" />
	<circle cx="500.0000000000" cy="-866.0254038000" r="2" />
	<circle cx="1000.0000000000" cy="-0.0000000000" r="2" />
	<circle cx="0.0000000000" cy="-0.0000000000" r="2" />
	<circle cx="999.9999935880" cy="-0.0000048257" r="2" />
	<circle cx="500.0000000000" cy="-866.0254037993" r="2" />
	<circle cx="363.4531860833" cy="-279.0459107735" r="2" />
	<circle cx="522.0366181557" cy="-281.8567031763" r="2" />
	<circle cx="613.5507074320" cy="-223.9463317147" r="2" />
	<circle cx="4.1315447267" cy="-3.1587571616" r="2" />
	<circle cx="1000.0000000000" cy="-0.0000000000" r="2" />
	<circle cx="463.8960822212" cy="-342.4156846209" r="2" />
	<circle cx="547.1667982006" cy="-745.8042361825" r="2" />
	<circle cx="0.0000000233" cy="-0.0000000103" r="2" />
	<circle cx="499.8928212626" cy="-848.8323953420" r="2" />
	<circle cx="0.0000000000" cy="-0.0000000000" r="2" />
	<circle cx="0.0000000000" cy="-0.0000000000" r="2" />
	<circle cx="999.9999985066" cy="-0.0000010240" r="2" />
	<circle cx="0.0000000000" cy="-0.0000000000" r="2" />
	<circle cx="499.9999979247" cy="-866.0253997945" r="2" />
	<circle cx="500.0205954524" cy="-810.9413575925" r="2" />
	<circle cx="0.0000000000" cy="-0.0000000000" r="2" />
	<circle cx="0.0000000000" cy="-0.0000000000" r="2" />
	<circle cx="31.4014101053" cy="-19.5534736207" r="2" />
	<circle cx="500.0000000000" cy="-866.0254038000" r="2" />
	<circle cx="999.9999998023" cy="-0.0000000668" r="2" />
	<circle cx="999.9510901536" cy="-0.0167106956" r="2" />
	<circle cx="0.0000000000" cy="-0.0000000000" r="2" />
	<circle cx="1000.0000000000" cy="-0.0000000000" r="2" />
	<circle cx="503.5467993989" cy="-302.3428886638" r="2" />
	<circle cx="626.5172419553" cy="-213.5493933501" r="2" />
	<circle cx="0.0004471502" cy="-0.0003262338" r="2" />
	<circle cx="0.0000000000" cy="-0.0000000000" r="2" />
	<circle cx="0.0023350261" cy="-0.0012150009" r="2" />
	<circle cx="993.4553294022" cy="-4.1812851924" r="2" />
	<circle cx="0.0003912874" cy="-0.0001691890" r="2" />
	<circle cx="84.9671331226" cy="-49.7161786330" r="2" />
	<circle cx="0.0000000000" cy="-0.0000000000" r="2" />
	<circle cx="999.9999999968" cy="-0.0000000015" r="2" />
	<circle cx="499.9853972605" cy="-860.2882552328" r="2" />
	<circle cx="0.0000000020" cy="-0.0000000011" r="2" />
	<circle cx="0.0000000000" cy="-0.0000000000" r="2" />
	<circle cx="1000.0000000000" cy="-0.0000000000" r="2" />
	<circle cx="0.0000000000" cy="-0.0000000000" r="2" />
	<circle cx="6.0799186565" cy="-3.4565965249" r="2" />
	<circle cx="40.9235469515" cy="-23.9887811093" r="2" />
	<circle cx="500.0000000000" cy="-866.0254038000" r="2" />
	<circle cx="0.0000000000" cy="-0.0000000000" r="2" />
	<circle cx="0.0000000000" cy="-0.0000000000" r="2" />
	<circle cx="0.0000005811" cy="-0.0000003355" r="2" />
	<circle cx="572.9934565495" cy="-230.7079843305" r="2" />
	<circle cx="159.0016912768" cy="-266.1552245139" r="2" />
	<circle cx="1000.0000000000" cy="-0.0000000000" r="2" />
	<circle cx="1000.0000000000" cy="-0.0000000000" r="2" />
	<circle cx="500.0000000000" cy="-866.0254038000" r="2" />
	<circle cx="0.0000000067" cy="-0.0000000039" r="2" />
	<circle cx="44.1509693228" cy="-32.6049610124" r="2" />
	<circle cx="525.1011629200" cy="-278.8314174771" r="2" />
	<circle cx="1000.0000000000" cy="-0.0000000000" r="2" />
	<circle cx="433.2577067890" cy="-725.7334277861" r="2" />
	<circle cx="0.0000000000" cy="-0.0000000000" r="2" />
	<circle cx="500.0000000000" cy="-866.0254038000" r="2" />
	<circle cx="1000.0000000000" cy="-0.0000000000" r="2" />
	<circle cx="0.0000000000" cy="-0.0000000000" r="2" />
	<circle cx="0.0000000762" cy="-0.0000000174" r="2" />
	<circle cx="500.0000000000" cy="-866.0254038000" r="2" />
	<circle cx="1000.0000000000" cy="-0.0000000000" r="2" />
	<circle cx="499.9999999941" cy="-866.0254037797" r="2" />
	<circle cx="499.9997313771" cy="-866.0237438392" r="2" />
	<circle cx="500.0000000000" cy="-866.0254038000" r="2" />
	<circle cx="500.0000000000" cy="-866.0254038000" r="2" />
	<circle cx="500.0000000000" cy="-866.0254038000" r="2" />
	<circle cx="1000.0000000000" cy="-0.0000000000" r="2" />
	<circle cx="500.0000000000" cy="-866.0254038000" r="2" />
	<circle cx="1000.0000000000" cy="-0.0000000000" r="2" />
	<circle cx="612.1358091201" cy="-353.4167764355" r="2" />
	<circle cx="1000.0000000000" cy="-0.0000000000" r="2" />
	<circle cx="0.0000000000" cy="-0.0000000000" r="2" />
	<circle cx="0.3585023141" cy="-0.6187510951" r="2" />
	<circle cx="500.0000000000" cy="-866.0254038000" r="2" />
	<circle cx="0.0000000000" cy="-0.0000000000" r="2" />
	<circle cx="500.0000000000" cy="-866.0254037958" r="2" />
	<circle cx="655.1802612176" cy="-255.9590646919" r="2" />
	<circle cx="0.0000000000" cy="-0.0000000000" r="2" />
	<circle cx="0.0000000000" cy="-0.0000000000" r="2" />
	<circle cx="969.7975392405" cy="-0.0000023484" r="2" />
	<circle cx="999.9979018151" cy="-0.0013138111" r="2" />
	<circle cx="516.4720460385" cy="-663.5873957543" r="2" />
	<circle cx="503.5914460257" cy="-629.8207238403" r="2" />
	<circle cx="999.9999938699" cy="-0.0000022594" r="2" />
	<circle cx="340.6003385486" cy="-577.8678454537" r="2" />
	<circle cx="500.0000000000" cy="-866.0254038000" r="2" />
	<circle cx="500.0000000000" cy="-866.0254038000" r="2" />
	<circle cx="698.7150275167" cy="-232.7315325415" r="2" />
	<circle cx="3.7038934627" cy="-3.5302106605" r="2" />
	<circle cx="500.0000000000" cy="-866.0254038000" r="2" />
	<circle cx="999.9999999903" cy="-0.0000000071" r="2" />
	<circle cx="0.0000000005" cy="-0.0000000003" r="2" />
	<circle cx="5.7888561745" cy="-3.3425649321" r="2" />
	<circle cx="0.0000000000" cy="-0.0000000000" r="2" />
	<circle cx="52.1783782226" cy="-31.0355462196" r="2" />
	<circle cx="503.6235184102" cy="-336.0560045231" r="2" />
	<circle cx="0.0000000000" cy="-0.0000000000" r="2" />
	<circle cx="500.0000000000" cy="-866.0254038000" r="2" />
	<circle cx="500.0000000000" cy="-866.0254038000" r="2" />
	<circle cx="549.9995233822" cy="-309.6887563896" r="2" />
	<circle cx="197.4862315986" cy="-185.6065483079" r="2" />
	<circle cx="1000.0000000000" cy="-0.0000000000" r="2" />
	<circle cx="461.8224857570" cy="-75.8025047063" r="2" />
	<circle cx="1000.0000000000" cy="-0.0000000000" r="2" />
	<circle cx="719.5712314406" cy="-137.0569726607" r="2" />
	<circle cx="0.0000000000" cy="-0.0000000000" r="2" />
	<circle cx="550.0712748753" cy="-779.2974368041" r="2" />
	<circle cx="501.4984530271" cy="-619.7298336075" r="2" />
	<circle cx="0.0000000000" cy="-0.0000000000" r="2" />
	<circle cx="917.0983946717" cy="-49.8117518418" r="2" />
	<circle cx="741.0476770692" cy="-154.8667323569" r="2" />
	<circle cx="1000.0000000000" cy="-0.0000000000" r="2" />
	<circle cx="500.0000000000" cy="-866.0254037917" r="2" />
	<circle cx="1000.0000000000" cy="-0.0000000000" r="2" />
	<circle cx="0.0000000002" cy="-0.0000000001" r="2" />
	<circle cx="500.0000000000" cy="-866.0254038000" r="2" />
	<circle cx="499.9999999665" cy="-866.0254037420" r="2" />
	<circle cx="500.0000000000" cy="-866.0254038000" r="2" />
	<circle cx="482.3455409543" cy="-275.8795372725" r="2" />
	<circle cx="502.4288136607" cy="-410.0275099927" r="2" />
	<circle cx="760.0306529091" cy="-111.4056957966" r="2" />
	<circle cx="1000.0000000000" cy="-0.0000000000" r="2" />
	<circle cx="478.4304625415" cy="-580.4634027492" r="2" />
	<circle cx="1000.0000000000" cy="-0.0000000000" r="2" />
	<circle cx="999.9999928430" cy="-0.0000052870" r="2" />
	<circle cx="619.3023918162" cy="-216.7503058151" r="2" />
	<circle cx="500.0000000000" cy="-866.0254038000" r="2" />
	<circle cx="1000.0000000000" cy="-0.0000000000" r="2" />
	<circle cx="1000.0000000000" cy="-0.0000000000" r="2" />
	<circle cx="1000.0000000000" cy="-0.0000000000" r="2" />
	<circle cx="991.3734713484" cy="-4.7044656844" r="2" />
  </g>
  <g id="fig2" transform="translate(-550.0,1000)">
	<polygon points="0.0,-0.0 1000.0,-0.0 500.0,-866.0254038" />
	<line
	   id="line2-1"
	   y2="-0.0"
	   x2="500"
	   y1="-288.6751346"
	   x1="500" />
	<line
	   id="line2-2"
	   y2="-433.0127019"
	   x2="250"
	   y1="-288.6751346"
	   x1="500" />
	<line
	   id="line2-3"
	   y2="-433.0127019"
	   x2="750"
	   y1="-288.6751346"
	   x1="500" />
	<text
	   x="440"
	   y="-500"
	   id="up_2">30.8%</text>
	<text
	   x="250"
	   y="-150"
	   id="down_left_2">36.6%</text>
	<text
	   x="630"
	   y="-150"
	   id="down_right_2">32.6%</text>
  </g>
  <g id="fig3" transform="translate(550,1000)">
	<polygon points="0.0,-0.0 1000.0,-0.0 500.0,-866.0254038" />
	<polygon id="triangle3b" points="250,-144.3375673 750,-144.3375673 500,-577.3502692" />
	<line
	   id="line3-1"
	   x1="125"
	   y1="-216.5063509"
	   x2="250"
	   y2="-144.3375673" />
	<line
	   id="line3-2"
	   x1="375"
	   y1="-649.5190528"
	   x2="500"
	   y2="-577.3502692" />
	<line
	   id="line3-3"
	   x1="625"
	   y1="-649.5190528"
	   x2="500"
	   y2="-577.3502692" />
	<line
	   id="line3-4"
	   x1="875"
	   y1="-216.5063509"
	   x2="750"
	   y2="-144.3375673" />
	<line
	   id="line3-5"
	   x1="750"
	   y1="-0.0"
	   x2="750"
	   y2="-144.3375673" />
	<line
	   id="line3-6"
	   x1="250"
	   y1="-0.0"
	   x2="250"
	   y2="-144.3375673" />
	<text
	   x="500"
	   y="-660"
	   text-anchor="middle"
	   id="up_3">25.8%</text>
	<text
	   y="-50"
	   x="70"
	   id="down_left_3">32.2%</text>
	<text
	   y="-50"
	   x="770"
	   id="down_right_3">27.8%</text>
	<text
	   x="500"
	   y="-50"
	   text-anchor="middle"
	   id="down_side_3">1.2%</text>
	<text
	   x="500"
	   y="-280"
	   text-anchor="middle"
	   id="center_3">11.4%</text>
	<text
	   x="685.0"
	   y="-390.8439"
	   text-anchor="middle"
	   transform="rotate(60,665.0,-380.8439)"
	   id="right_side_3">0.4%</text>
	<text
	   x="315.0"
	   y="-390.8439"
	   text-anchor="middle"
	   transform="rotate(-60,335.0,-380.8439)"
	   id="left_side_3">1.2%</text>
  </g>
</g></g>
</svg>
