<?xml version="1.0" encoding="UTF-8" standalone="no"?>
<!DOCTYPE svg PUBLIC "-//W3C//DTD SVG 1.1//EN" "http://www.w3.org/Graphics/SVG/1.1/DTD/svg11.dtd">
<svg
   xmlns:svg="http://www.w3.org/2000/svg"
   xmlns="http://www.w3.org/2000/svg"
   xmlns:xlink="http://www.w3.org/1999/xlink"
   version="1.1"
   baseProfile="full"
   id="body"
   width="800px"
   height="800px"
   viewBox="0 0 1000 1000"
   preserveAspectRatio="none">
  <defs>
    <style type="text/css"><![CDATA[
      circle{ stroke: none; }
      polygon{ stroke: black; stroke-width: 2px; fill: none; }
      line{ stroke: black; stroke-width: 2px; }
      text{ font-size:50px; }
    ]]></style>
  </defs>
  <title
     id="title1">SVG drawing</title>
<g transform="scale(0.45)"><g transform="translate(600,1050)">
  <g id="fig1">
	<polygon points="0.0,-0.0 1000.0,-0.0 500,-866.0254038" />
	<circle cx="0.0000000012" cy="-0.0000000006" r="2" />
	<circle cx="1000.0000000000" cy="-0.0000000000" r="2" />
	<circle cx="499.9999999985" cy="-866.0254037960" r="2" />
	<circle cx="500.0000000000" cy="-866.0254038000" r="2" />
	<circle cx="999.9999143312" cy="-0.0000538224" r="2" />
	<circle cx="500.2108000136" cy="-288.8069728794" r="2" />
	<circle cx="1000.0000000000" cy="-0.0000000000" r="2" />
	<circle cx="500.0000000000" cy="-866.0254038000" r="2" />
	<circle cx="0.0000856641" cy="-0.0000538095" r="2" />
	<circle cx="500.0000000000" cy="-866.0254038000" r="2" />
	<circle cx="341.1604851725" cy="-95.5719366478" r="2" />
	<circle cx="0.0000000000" cy="-0.0000000000" r="2" />
	<circle cx="1000.0000000000" cy="-0.0000000000" r="2" />
	<circle cx="725.4382399985" cy="-157.8401806636" r="2" />
	<circle cx="500.0000000000" cy="-866.0254038000" r="2" />
	<circle cx="500.3943897061" cy="-288.2428839204" r="2" />
	<circle cx="0.0000000002" cy="-0.0000000001" r="2" />
	<circle cx="0.0000002189" cy="-0.0000001264" r="2" />
	<circle cx="729.2124118192" cy="-135.0678745894" r="2" />
	<circle cx="156.0641552293" cy="-90.0908487601" r="2" />
	<circle cx="382.0700280819" cy="-117.0636256614" r="2" />
	<circle cx="2.1358004351" cy="-0.6498554506" r="2" />
	<circle cx="633.8824006655" cy="-396.3464033852" r="2" />
	<circle cx="499.9999998317" cy="-866.0254018184" r="2" />
	<circle cx="0.0000000000" cy="-0.0000000000" r="2" />
	<circle cx="0.0008723213" cy="-0.0005037437" r="2" />
	<circle cx="500.0000000000" cy="-866.0254038000" r="2" />
	<circle cx="1000.0000000000" cy="-0.0000000000" r="2" />
	<circle cx="0.0000000000" cy="-0.0000000000" r="2" />
	<circle cx="387.3809206788" cy="-104.0184544047" r="2" />
	<circle cx="500.0000000001" cy="-866.0254020771" r="2" />
	<circle cx="499.9999455159" cy="-865.6011802416" r="2" />
	<circle cx="0.0000003055" cy="-0.0000001764" r="2" />
	<circle cx="0.0000016855" cy="-0.0000011203" r="2" />
	<circle cx="999.9999955322" cy="-0.0000026244" r="2" />
	<circle cx="1000.0000000000" cy="-0.0000000000" r="2" />
	<circle cx="1000.0000000000" cy="-0.0000000000" r="2" />
	<circle cx="1.9718336771" cy="-1.1222301000" r="2" />
	<circle cx="1000.0000000000" cy="-0.0000000000" r="2" />
	<circle cx="999.9999990102" cy="-0.0000004930" r="2" />
	<circle cx="500.0000000000" cy="-866.0254038000" r="2" />
	<circle cx="999.9999999999" cy="-0.0000000001" r="2" />
	<circle cx="0.0000000000" cy="-0.0000000000" r="2" />
	<circle cx="1000.0000000000" cy="-0.0000000000" r="2" />
	<circle cx="500.0000006157" cy="-866.0237149397" r="2" />
	<circle cx="485.7431823406" cy="-595.2655028401" r="2" />
	<circle cx="15.7761354223" cy="-10.3340960503" r="2" />
	<circle cx="999.9858167417" cy="-0.0081915797" r="2" />
	<circle cx="0.0000000000" cy="-0.0000000000" r="2" />
	<circle cx="0.0000000000" cy="-0.0000000000" r="2" />
	<circle cx="500.0000000000" cy="-866.0254038000" r="2" />
	<circle cx="371.4277030535" cy="-214.3415160710" r="2" />
	<circle cx="0.0000000000" cy="-0.0000000000" r="2" />
	<circle cx="0.0000001202" cy="-0.0000000694" r="2" />
	<circle cx="0.0000000597" cy="-0.0000000357" r="2" />
	<circle cx="0.0000000000" cy="-0.0000000000" r="2" />
	<circle cx="999.9960921254" cy="-0.0027271018" r="2" />
	<circle cx="0.0000000000" cy="-0.0000000000" r="2" />
	<circle cx="500.0000000000" cy="-866.0254038000" r="2" />
	<circle cx="1000.0000000000" cy="-0.0000000000" r="2" />
	<circle cx="0.1027106144" cy="-0.0548355898" r="2" />
	<circle cx="500.0000000000" cy="-866.0254038000" r="2" />
	<circle cx="500.0000000000" cy="-866.0254037743" r="2" />
	<circle cx="999.7472759345" cy="-0.2135420968" r="2" />
	<circle cx="500.0000000000" cy="-866.0254038000" r="2" />
	<circle cx="1000.0000000000" cy="-0.0000000000" r="2" />
	<circle cx="500.0000000000" cy="-866.0254038000" r="2" />
	<circle cx="0.0000000000" cy="-0.0000000000" r="2" />
	<circle cx="500.0000000000" cy="-866.0254038000" r="2" />
	<circle cx="499.9999999493" cy="-866.0250472920" r="2" />
	<circle cx="0.1068354147" cy="-0.0616538867" r="2" />
	<circle cx="499.9999934072" cy="-866.0253462258" r="2" />
	<circle cx="999.9967539246" cy="-0.0018737446" r="2" />
	<circle cx="500.0000000000" cy="-866.0254038000" r="2" />
	<circle cx="500.0000000000" cy="-866.0254038000" r="2" />
	<circle cx="0.0000000000" cy="-0.0000000000" r="2" />
	<circle cx="999.9355190844" cy="-0.0324313420" r="2" />
	<circle cx="0.0000000000" cy="-0.0000000000" r="2" />
	<circle cx="41.3918320636" cy="-22.9333706242" r="2" />
	<circle cx="999.9999999999" cy="-0.0000000001" r="2" />
	<circle cx="500.0000000000" cy="-866.0254038000" r="2" />
	<circle cx="500.0000000000" cy="-866.0254038000" r="2" />
	<circle cx="427.3735466628" cy="-246.6394388712" r="2" />
	<circle cx="999.9999973018" cy="-0.0000015574" r="2" />
	<circle cx="999.9999552631" cy="-0.0000189540" r="2" />
	<circle cx="0.0000000004" cy="-0.0000000002" r="2" />
	<circle cx="0.0000000000" cy="-0.0000000000" r="2" />
	<circle cx="500.0000000000" cy="-866.0254038000" r="2" />
	<circle cx="0.0000000000" cy="-0.0000000000" r="2" />
	<circle cx="1000.0000000000" cy="-0.0000000000" r="2" />
	<circle cx="1000.0000000000" cy="-0.0000000000" r="2" />
	<circle cx="1000.0000000000" cy="-0.0000000000" r="2" />
	<circle cx="1000.0000000000" cy="-0.0000000000" r="2" />
	<circle cx="500.0000000000" cy="-866.0254038000" r="2" />
	<circle cx="0.0000000042" cy="-0.0000000032" r="2" />
	<circle cx="500.0000875358" cy="-865.9435093605" r="2" />
	<circle cx="999.9999829593" cy="-0.0000092270" r="2" />
	<circle cx="1000.0000000000" cy="-0.0000000000" r="2" />
	<circle cx="999.9482317609" cy="-0.0297975801" r="2" />
	<circle cx="0.1236072430" cy="-0.0713845603" r="2" />
	<circle cx="500.0000000000" cy="-866.0254038000" r="2" />
	<circle cx="0.0000001017" cy="-0.0000000588" r="2" />
	<circle cx="500.0000000000" cy="-866.0254038000" r="2" />
	<circle cx="0.0000086194" cy="-0.0000049798" r="2" />
	<circle cx="0.0000000000" cy="-0.0000000000" r="2" />
	<circle cx="0.6091151342" cy="-0.3516517230" r="2" />
	<circle cx="0.0000020127" cy="-0.0000011614" r="2" />
	<circle cx="568.5564969908" cy="-249.0458307553" r="2" />
	<circle cx="120.9839988117" cy="-75.1552880468" r="2" />
	<circle cx="0.7630131183" cy="-0.4407296688" r="2" />
	<circle cx="500.0000000000" cy="-866.0254038000" r="2" />
	<circle cx="1000.0000000000" cy="-0.0000000000" r="2" />
	<circle cx="500.0000009570" cy="-866.0251634348" r="2" />
	<circle cx="499.9809470221" cy="-852.7739115770" r="2" />
	<circle cx="0.0000000000" cy="-0.0000000000" r="2" />
	<circle cx="500.0000000000" cy="-866.0254038000" r="2" />
	<circle cx="656.1559561819" cy="-233.7575443730" r="2" />
	<circle cx="500.0000000000" cy="-866.0254038000" r="2" />
	<circle cx="500.0000000000" cy="-866.0254038000" r="2" />
	<circle cx="508.4364810460" cy="-408.8579235803" r="2" />
	<circle cx="1000.0000000000" cy="-0.0000000000" r="2" />
	<circle cx="0.0000000000" cy="-0.0000000000" r="2" />
	<circle cx="500.0000000000" cy="-866.0254038000" r="2" />
	<circle cx="0.0000000000" cy="-0.0000000000" r="2" />
	<circle cx="500.0000000000" cy="-866.0254038000" r="2" />
	<circle cx="500.0000000000" cy="-866.0254038000" r="2" />
	<circle cx="0.0000186461" cy="-0.0000107610" r="2" />
	<circle cx="685.7274835830" cy="-221.4621420358" r="2" />
	<circle cx="1000.0000000000" cy="-0.0000000000" r="2" />
	<circle cx="999.9999999778" cy="-0.0000000194" r="2" />
	<circle cx="500.0004768414" cy="-865.9001030988" r="2" />
	<circle cx="109.8474914100" cy="-43.2142958491" r="2" />
	<circle cx="1000.0000000000" cy="-0.0000000000" r="2" />
	<circle cx="999.9918810425" cy="-0.0054660107" r="2" />
	<circle cx="500.4096810805" cy="-798.4489440495" r="2" />
	<circle cx="758.7899389346" cy="-139.3616773720" r="2" />
	<circle cx="1000.0000000000" cy="-0.0000000000" r="2" />
	<circle cx="500.0000000000" cy="-866.0254038000" r="2" />
	<circle cx="999.9999853937" cy="-0.0000084294" r="2" />
	<circle cx="1000.0000000000" cy="-0.0000000000" r="2" />
	<circle cx="1000.0000000000" cy="-0.0000000000" r="2" />
	<circle cx="999.9376417796" cy="-0.0404676000" r="2" />
	<circle cx="0.0000000000" cy="-0.0000000000" r="2" />
	<circle cx="500.0000000000" cy="-866.0254038000" r="2" />
	<circle cx="0.2284180311" cy="-0.1270980747" r="2" />
	<circle cx="500.0000000000" cy="-866.0254038000" r="2" />
	<circle cx="500.0000000000" cy="-866.0254038000" r="2" />
	<circle cx="500.1159001034" cy="-508.5033647545" r="2" />
	<circle cx="499.9999999508" cy="-866.0253951378" r="2" />
	<circle cx="785.5592643543" cy="-91.3420280436" r="2" />
	<circle cx="500.0000016882" cy="-866.0209014658" r="2" />
	<circle cx="500.0000000000" cy="-866.0254038000" r="2" />
	<circle cx="463.4769729264" cy="-43.8811088219" r="2" />
	<circle cx="0.0000000000" cy="-0.0000000000" r="2" />
	<circle cx="0.0000000001" cy="-0.0000000000" r="2" />
	<circle cx="0.0000000246" cy="-0.0000000142" r="2" />
	<circle cx="500.0000000000" cy="-866.0254037983" r="2" />
	<circle cx="999.8833733489" cy="-0.0673477311" r="2" />
	<circle cx="0.0000000000" cy="-0.0000000000" r="2" />
	<circle cx="500.0000000240" cy="-866.0254031136" r="2" />
	<circle cx="500.0000000000" cy="-866.0254038000" r="2" />
	<circle cx="500.3794408267" cy="-860.9123610395" r="2" />
	<circle cx="191.8630620884" cy="-110.8558033802" r="2" />
	<circle cx="501.8796574567" cy="-833.9180474295" r="2" />
	<circle cx="0.0000000000" cy="-0.0000000000" r="2" />
	<circle cx="0.0000120707" cy="-0.0000071951" r="2" />
	<circle cx="0.0000000000" cy="-0.0000000000" r="2" />
	<circle cx="999.9999931884" cy="-0.0000019980" r="2" />
	<circle cx="499.9999999959" cy="-866.0253225610" r="2" />
	<circle cx="232.2159596998" cy="-139.2927447289" r="2" />
	<circle cx="500.0000000666" cy="-866.0228209522" r="2" />
	<circle cx="500.0000000000" cy="-866.0254038000" r="2" />
	<circle cx="1000.0000000000" cy="-0.0000000000" r="2" />
	<circle cx="1000.0000000000" cy="-0.0000000000" r="2" />
	<circle cx="500.0000000000" cy="-866.0254038000" r="2" />
	<circle cx="500.0011769289" cy="-840.4987697605" r="2" />
	<circle cx="999.9999997688" cy="-0.0000000761" r="2" />
	<circle cx="0.0000000000" cy="-0.0000000000" r="2" />
	<circle cx="0.0000000000" cy="-0.0000000000" r="2" />
	<circle cx="1000.0000000000" cy="-0.0000000000" r="2" />
	<circle cx="500.0000000000" cy="-866.0254038000" r="2" />
	<circle cx="1000.0000000000" cy="-0.0000000000" r="2" />
	<circle cx="0.0000000000" cy="-0.0000000000" r="2" />
	<circle cx="500.0000000000" cy="-866.0254038000" r="2" />
	<circle cx="945.4889998100" cy="-31.4768141442" r="2" />
	<circle cx="500.0000000000" cy="-866.0254038000" r="2" />
	<circle cx="999.9778752406" cy="-0.0127765681" r="2" />
	<circle cx="0.0000000000" cy="-0.0000000000" r="2" />
	<circle cx="1000.0000000000" cy="-0.0000000000" r="2" />
	<circle cx="500.0000000000" cy="-866.0254038000" r="2" />
	<circle cx="0.0001862554" cy="-0.0000912712" r="2" />
	<circle cx="500.0000000000" cy="-866.0254038000" r="2" />
	<circle cx="0.0000000000" cy="-0.0000000000" r="2" />
	<circle cx="499.9989166386" cy="-858.9074337439" r="2" />
	<circle cx="500.0000001180" cy="-866.0251976527" r="2" />
	<circle cx="499.9999994531" cy="-866.0253419880" r="2" />
	<circle cx="0.0000000000" cy="-0.0000000000" r="2" />
	<circle cx="0.0000000000" cy="-0.0000000000" r="2" />
	<circle cx="1000.0000000000" cy="-0.0000000000" r="2" />
	<circle cx="1000.0000000000" cy="-0.0000000000" r="2" />
	<circle cx="0.0000000000" cy="-0.0000000000" r="2" />
	<circle cx="1000.0000000000" cy="-0.0000000000" r="2" />
	<circle cx="500.0000000000" cy="-866.0254038000" r="2" />
	<circle cx="999.6826119179" cy="-0.0935165890" r="2" />
	<circle cx="500.0000000000" cy="-866.0254038000" r="2" />
	<circle cx="999.7494057442" cy="-0.2229059489" r="2" />
	<circle cx="517.2773985133" cy="-272.6238516670" r="2" />
	<circle cx="0.0000000000" cy="-0.0000000000" r="2" />
	<circle cx="1000.0000000000" cy="-0.0000000000" r="2" />
	<circle cx="0.2881758733" cy="-0.1361909575" r="2" />
	<circle cx="500.0000000000" cy="-866.0254037569" r="2" />
	<circle cx="430.6755115736" cy="-255.5368489787" r="2" />
	<circle cx="999.9999999411" cy="-0.0000000263" r="2" />
	<circle cx="0.0000000000" cy="-0.0000000000" r="2" />
	<circle cx="500.0000000000" cy="-866.0254038000" r="2" />
	<circle cx="0.0000202585" cy="-0.0000128989" r="2" />
	<circle cx="0.0000004631" cy="-0.0000002674" r="2" />
	<circle cx="500.0000000000" cy="-866.0254038000" r="2" />
	<circle cx="0.0001205885" cy="-0.0000686944" r="2" />
	<circle cx="141.7536215414" cy="-61.6019721050" r="2" />
	<circle cx="500.0000000000" cy="-866.0254038000" r="2" />
	<circle cx="0.0000019480" cy="-0.0000011256" r="2" />
	<circle cx="500.0000002384" cy="-866.0253927315" r="2" />
	<circle cx="999.9999999760" cy="-0.0000000142" r="2" />
	<circle cx="500.0000000000" cy="-866.0254038000" r="2" />
	<circle cx="0.0000000000" cy="-0.0000000000" r="2" />
	<circle cx="500.0000000000" cy="-866.0254038000" r="2" />
	<circle cx="499.9997095530" cy="-866.0236515714" r="2" />
	<circle cx="1000.0000000000" cy="-0.0000000000" r="2" />
	<circle cx="545.7005092667" cy="-250.5290347733" r="2" />
	<circle cx="499.9908370828" cy="-854.8360280500" r="2" />
	<circle cx="500.1201094049" cy="-400.4295706165" r="2" />
	<circle cx="533.0238653987" cy="-403.4711518660" r="2" />
	<circle cx="0.0003050513" cy="-0.0001871464" r="2" />
	<circle cx="292.9262549082" cy="-169.0719862513" r="2" />
	<circle cx="999.9999999969" cy="-0.0000000022" r="2" />
	<circle cx="999.9999994303" cy="-0.0000003931" r="2" />
	<circle cx="0.0000000000" cy="-0.0000000000" r="2" />
	<circle cx="1000.0000000000" cy="-0.0000000000" r="2" />
	<circle cx="1000.0000000000" cy="-0.0000000000" r="2" />
	<circle cx="0.0000000000" cy="-0.0000000000" r="2" />
	<circle cx="1000.0000000000" cy="-0.0000000000" r="2" />
	<circle cx="1000.0000000000" cy="-0.0000000000" r="2" />
	<circle cx="450.8475107421" cy="-262.9957677110" r="2" />
	<circle cx="0.0771008830" cy="-0.0471106234" r="2" />
	<circle cx="500.0000000000" cy="-866.0254038000" r="2" />
	<circle cx="500.0000000000" cy="-866.0254038000" r="2" />
	<circle cx="1000.0000000000" cy="-0.0000000000" r="2" />
	<circle cx="500.0000000000" cy="-866.0254038000" r="2" />
	<circle cx="403.2113358684" cy="-232.9058954274" r="2" />
	<circle cx="999.9997788347" cy="-0.0001306997" r="2" />
	<circle cx="500.0000000000" cy="-866.0254038000" r="2" />
	<circle cx="500.0000000000" cy="-866.0254038000" r="2" />
	<circle cx="0.0000000000" cy="-0.0000000000" r="2" />
	<circle cx="672.7887228883" cy="-329.0264268614" r="2" />
	<circle cx="0.0000000000" cy="-0.0000000000" r="2" />
	<circle cx="0.0000000000" cy="-0.0000000000" r="2" />
	<circle cx="0.0000006170" cy="-0.0000003540" r="2" />
	<circle cx="0.0000000000" cy="-0.0000000000" r="2" />
	<circle cx="500.0000479088" cy="-866.0246620539" r="2" />
	<circle cx="908.0521283565" cy="-55.9566416121" r="2" />
	<circle cx="0.0000000000" cy="-0.0000000000" r="2" />
	<circle cx="999.9999999995" cy="-0.0000000003" r="2" />
	<circle cx="0.0000004977" cy="-0.0000003040" r="2" />
	<circle cx="999.8048245221" cy="-0.1811203402" r="2" />
	<circle cx="999.9999976187" cy="-0.0000013751" r="2" />
	<circle cx="0.0000000000" cy="-0.0000000000" r="2" />
	<circle cx="999.9991161223" cy="-0.0005205741" r="2" />
	<circle cx="499.9999995386" cy="-866.0250655933" r="2" />
	<circle cx="1000.0000000000" cy="-0.0000000000" r="2" />
	<circle cx="500.0000000000" cy="-866.0254038000" r="2" />
	<circle cx="548.1735782480" cy="-87.0710050208" r="2" />
	<circle cx="500.0000353050" cy="-865.3976290238" r="2" />
	<circle cx="999.8917193686" cy="-0.0630765823" r="2" />
	<circle cx="0.0000000000" cy="-0.0000000000" r="2" />
	<circle cx="1000.0000000000" cy="-0.0000000000" r="2" />
	<circle cx="999.9852198185" cy="-0.0089336791" r="2" />
	<circle cx="21.1031641123" cy="-12.2205238359" r="2" />
	<circle cx="500.0000557193" cy="-865.9861947067" r="2" />
	<circle cx="499.9999055844" cy="-865.2494033125" r="2" />
	<circle cx="2.8868225196" cy="-1.8961935340" r="2" />
	<circle cx="500.0000000000" cy="-866.0254038000" r="2" />
	<circle cx="500.0000000000" cy="-866.0254038000" r="2" />
	<circle cx="999.9790435431" cy="-0.0074762256" r="2" />
	<circle cx="500.0000000000" cy="-866.0254038000" r="2" />
	<circle cx="999.9998951201" cy="-0.0000857433" r="2" />
	<circle cx="774.3928412795" cy="-158.9101944135" r="2" />
	<circle cx="499.7941773268" cy="-334.2617293900" r="2" />
	<circle cx="0.0934045131" cy="-0.0557740505" r="2" />
	<circle cx="0.0000004152" cy="-0.0000003990" r="2" />
	<circle cx="500.0000000000" cy="-866.0254038000" r="2" />
	<circle cx="0.0000000000" cy="-0.0000000000" r="2" />
	<circle cx="999.9997364248" cy="-0.0001824213" r="2" />
	<circle cx="500.0006352675" cy="-865.9881503925" r="2" />
	<circle cx="0.0000000000" cy="-0.0000000000" r="2" />
	<circle cx="500.0000542341" cy="-866.0251387644" r="2" />
	<circle cx="808.5790214049" cy="-280.3177450774" r="2" />
	<circle cx="0.0000000000" cy="-0.0000000000" r="2" />
	<circle cx="1000.0000000000" cy="-0.0000000000" r="2" />
	<circle cx="1000.0000000000" cy="-0.0000000000" r="2" />
	<circle cx="453.3983094927" cy="-285.8385573113" r="2" />
	<circle cx="999.9999968340" cy="-0.0000013432" r="2" />
	<circle cx="999.4444514516" cy="-0.3207688244" r="2" />
	<circle cx="0.0000001500" cy="-0.0000000882" r="2" />
	<circle cx="500.0000000000" cy="-866.0254038000" r="2" />
	<circle cx="737.5678849823" cy="-354.9073984952" r="2" />
	<circle cx="999.9999997806" cy="-0.0000001267" r="2" />
	<circle cx="499.9999732129" cy="-866.0252311128" r="2" />
	<circle cx="495.9562575290" cy="-804.5727579722" r="2" />
	<circle cx="500.0034397141" cy="-841.9882339942" r="2" />
	<circle cx="0.0000000000" cy="-0.0000000000" r="2" />
	<circle cx="500.0000000000" cy="-866.0254038000" r="2" />
	<circle cx="500.1429477478" cy="-285.5600647615" r="2" />
	<circle cx="500.0585767374" cy="-865.6997774867" r="2" />
	<circle cx="1000.0000000000" cy="-0.0000000000" r="2" />
	<circle cx="935.8232275744" cy="-72.9861731867" r="2" />
	<circle cx="499.9995852012" cy="-865.7237834302" r="2" />
	<circle cx="0.0001721718" cy="-0.0001156669" r="2" />
	<circle cx="1000.0000000000" cy="-0.0000000000" r="2" />
	<circle cx="500.0002190407" cy="-864.6289646021" r="2" />
	<circle cx="1000.0000000000" cy="-0.0000000000" r="2" />
	<circle cx="500.0000000000" cy="-866.0254038000" r="2" />
	<circle cx="500.0000000000" cy="-866.0254038000" r="2" />
	<circle cx="999.9999999983" cy="-0.0000000010" r="2" />
	<circle cx="0.0000000000" cy="-0.0000000000" r="2" />
	<circle cx="73.4942468412" cy="-42.4257125572" r="2" />
	<circle cx="0.0000000000" cy="-0.0000000000" r="2" />
	<circle cx="999.8245882540" cy="-0.1012470382" r="2" />
	<circle cx="0.0000000000" cy="-0.0000000000" r="2" />
	<circle cx="500.0000000002" cy="-866.0254015662" r="2" />
	<circle cx="999.6670514160" cy="-0.2195190022" r="2" />
	<circle cx="966.6062828586" cy="-18.5834308249" r="2" />
	<circle cx="0.0000000000" cy="-0.0000000000" r="2" />
	<circle cx="0.0000000000" cy="-0.0000000000" r="2" />
	<circle cx="999.9999912388" cy="-0.0000050590" r="2" />
	<circle cx="1000.0000000000" cy="-0.0000000000" r="2" />
	<circle cx="500.0000000000" cy="-866.0254037859" r="2" />
	<circle cx="0.0000001503" cy="-0.0000000867" r="2" />
	<circle cx="1000.0000000000" cy="-0.0000000000" r="2" />
	<circle cx="500.0000000002" cy="-866.0254023314" r="2" />
	<circle cx="1000.0000000000" cy="-0.0000000000" r="2" />
	<circle cx="0.0000000000" cy="-0.0000000000" r="2" />
	<circle cx="500.0044448277" cy="-866.0118835293" r="2" />
	<circle cx="0.1037836485" cy="-0.0599582398" r="2" />
	<circle cx="1000.0000000000" cy="-0.0000000000" r="2" />
	<circle cx="500.0000000000" cy="-866.0254038000" r="2" />
	<circle cx="0.0000000283" cy="-0.0000000077" r="2" />
	<circle cx="0.0000212565" cy="-0.0000144093" r="2" />
	<circle cx="999.9999817022" cy="-0.0000105637" r="2" />
	<circle cx="355.7741928147" cy="-121.0232052703" r="2" />
	<circle cx="0.0000000000" cy="-0.0000000000" r="2" />
	<circle cx="0.0000000684" cy="-0.0000000633" r="2" />
	<circle cx="421.9853863884" cy="-243.5620109529" r="2" />
	<circle cx="0.0000000000" cy="-0.0000000000" r="2" />
	<circle cx="1000.0000000000" cy="-0.0000000000" r="2" />
	<circle cx="443.3621656078" cy="-295.2921323056" r="2" />
	<circle cx="500.0000000013" cy="-866.0253845924" r="2" />
	<circle cx="7.3024713602" cy="-7.0613733290" r="2" />
	<circle cx="500.0000000000" cy="-866.0254038000" r="2" />
	<circle cx="500.0000000000" cy="-866.0254038000" r="2" />
	<circle cx="183.3077614205" cy="-110.1101822219" r="2" />
	<circle cx="0.0000000040" cy="-0.0000000023" r="2" />
	<circle cx="500.0000000000" cy="-866.0254038000" r="2" />
	<circle cx="0.0000399749" cy="-0.0000239320" r="2" />
	<circle cx="999.4555752049" cy="-0.3142421678" r="2" />
	<circle cx="500.0000000000" cy="-866.0254038000" r="2" />
	<circle cx="0.4900758044" cy="-0.2828632813" r="2" />
	<circle cx="0.0000000000" cy="-0.0000000000" r="2" />
	<circle cx="0.0000000000" cy="-0.0000000000" r="2" />
	<circle cx="500.3790395732" cy="-860.9187584080" r="2" />
	<circle cx="1000.0000000000" cy="-0.0000000000" r="2" />
	<circle cx="0.0000000000" cy="-0.0000000000" r="2" />
	<circle cx="0.0000000000" cy="-0.0000000000" r="2" />
	<circle cx="0.0000000172" cy="-0.0000000129" r="2" />
	<circle cx="0.0000000000" cy="-0.0000000000" r="2" />
	<circle cx="500.0000000000" cy="-866.0254038000" r="2" />
	<circle cx="500.0000000000" cy="-866.0254038000" r="2" />
	<circle cx="783.7847738032" cy="-150.1087331645" r="2" />
	<circle cx="1000.0000000000" cy="-0.0000000000" r="2" />
	<circle cx="0.0000308994" cy="-0.0000237389" r="2" />
	<circle cx="0.0000000000" cy="-0.0000000000" r="2" />
	<circle cx="0.0000000000" cy="-0.0000000000" r="2" />
	<circle cx="500.0000000000" cy="-866.0254038000" r="2" />
	<circle cx="0.0000000001" cy="-0.0000000000" r="2" />
	<circle cx="500.0000000000" cy="-866.0254038000" r="2" />
	<circle cx="0.0020724733" cy="-0.0011966534" r="2" />
	<circle cx="500.0000000000" cy="-866.0254038000" r="2" />
	<circle cx="500.0000000000" cy="-866.0254038000" r="2" />
	<circle cx="1000.0000000000" cy="-0.0000000000" r="2" />
	<circle cx="0.0003586788" cy="-0.0002067449" r="2" />
	<circle cx="999.9999127254" cy="-0.0000568434" r="2" />
	<circle cx="0.0000000000" cy="-0.0000000000" r="2" />
	<circle cx="0.0133964751" cy="-0.0077273478" r="2" />
	<circle cx="0.0000000000" cy="-0.0000000000" r="2" />
	<circle cx="0.0000000000" cy="-0.0000000000" r="2" />
	<circle cx="500.0000000000" cy="-866.0254038000" r="2" />
	<circle cx="0.0000000000" cy="-0.0000000000" r="2" />
	<circle cx="382.1588043003" cy="-384.2229932565" r="2" />
	<circle cx="999.9999997280" cy="-0.0000001570" r="2" />
	<circle cx="500.0013209770" cy="-857.5003766081" r="2" />
	<circle cx="500.0000000000" cy="-866.0254038000" r="2" />
	<circle cx="999.9991205612" cy="-0.0005083446" r="2" />
	<circle cx="998.2833452742" cy="-1.1962570237" r="2" />
	<circle cx="0.0000000000" cy="-0.0000000000" r="2" />
	<circle cx="500.0000000000" cy="-866.0254038000" r="2" />
	<circle cx="27.7684238148" cy="-16.0237819234" r="2" />
	<circle cx="500.0000000000" cy="-866.0254038000" r="2" />
	<circle cx="0.0000000000" cy="-0.0000000000" r="2" />
	<circle cx="0.0000000000" cy="-0.0000000000" r="2" />
	<circle cx="1000.0000000000" cy="-0.0000000000" r="2" />
	<circle cx="0.0000000000" cy="-0.0000000000" r="2" />
	<circle cx="0.0000000000" cy="-0.0000000000" r="2" />
	<circle cx="878.4146749009" cy="-78.3206211486" r="2" />
	<circle cx="999.9999999999" cy="-0.0000000001" r="2" />
	<circle cx="500.0000000000" cy="-866.0254038000" r="2" />
	<circle cx="0.0000000000" cy="-0.0000000000" r="2" />
	<circle cx="0.0000000614" cy="-0.0000000354" r="2" />
	<circle cx="499.5102923529" cy="-862.2584748282" r="2" />
	<circle cx="499.9803694754" cy="-865.5321691091" r="2" />
	<circle cx="500.0003025117" cy="-865.0827696420" r="2" />
	<circle cx="500.0000000000" cy="-866.0254038000" r="2" />
	<circle cx="494.0114076331" cy="-415.3666863940" r="2" />
	<circle cx="1000.0000000000" cy="-0.0000000000" r="2" />
	<circle cx="967.9913271024" cy="-17.4349276286" r="2" />
	<circle cx="500.0000000905" cy="-866.0254035648" r="2" />
	<circle cx="0.0000000000" cy="-0.0000000000" r="2" />
	<circle cx="0.0000000000" cy="-0.0000000000" r="2" />
	<circle cx="0.0000000000" cy="-0.0000000000" r="2" />
	<circle cx="241.6174767688" cy="-123.0326638954" r="2" />
	<circle cx="35.5990224939" cy="-22.4086828287" r="2" />
	<circle cx="500.0000000000" cy="-866.0254038000" r="2" />
	<circle cx="685.3398388552" cy="-174.7494762775" r="2" />
	<circle cx="0.0000000033" cy="-0.0000000018" r="2" />
	<circle cx="0.0000001869" cy="-0.0000001610" r="2" />
	<circle cx="1000.0000000000" cy="-0.0000000000" r="2" />
	<circle cx="1000.0000000000" cy="-0.0000000000" r="2" />
	<circle cx="500.0000000000" cy="-866.0254037291" r="2" />
	<circle cx="608.6314929418" cy="-235.2316742429" r="2" />
	<circle cx="999.4011171672" cy="-0.5309780383" r="2" />
	<circle cx="1000.0000000000" cy="-0.0000000000" r="2" />
	<circle cx="999.7232473690" cy="-0.1573787947" r="2" />
	<circle cx="563.6990253770" cy="-251.7695003758" r="2" />
	<circle cx="508.0538035584" cy="-767.1849121155" r="2" />
	<circle cx="1000.0000000000" cy="-0.0000000000" r="2" />
	<circle cx="500.0552831761" cy="-366.2015326852" r="2" />
	<circle cx="0.7588208574" cy="-0.4379756677" r="2" />
	<circle cx="47.3414701551" cy="-27.3642051863" r="2" />
	<circle cx="0.0000000000" cy="-0.0000000000" r="2" />
	<circle cx="124.2262001461" cy="-91.9614253649" r="2" />
	<circle cx="1000.0000000000" cy="-0.0000000000" r="2" />
	<circle cx="0.0000000000" cy="-0.0000000000" r="2" />
	<circle cx="500.1799721335" cy="-288.5305985060" r="2" />
	<circle cx="500.0000055705" cy="-866.0253724372" r="2" />
	<circle cx="499.9999999999" cy="-866.0254032654" r="2" />
	<circle cx="1000.0000000000" cy="-0.0000000000" r="2" />
	<circle cx="0.0000000000" cy="-0.0000000000" r="2" />
	<circle cx="1000.0000000000" cy="-0.0000000000" r="2" />
	<circle cx="506.8588318013" cy="-416.5476089519" r="2" />
	<circle cx="169.8134070925" cy="-88.1534291292" r="2" />
	<circle cx="999.9999998581" cy="-0.0000000812" r="2" />
	<circle cx="0.0003781561" cy="-0.0001091510" r="2" />
	<circle cx="0.0000000000" cy="-0.0000000000" r="2" />
	<circle cx="500.0000000000" cy="-866.0254038000" r="2" />
	<circle cx="0.0000000000" cy="-0.0000000000" r="2" />
	<circle cx="1000.0000000000" cy="-0.0000000000" r="2" />
	<circle cx="13.7478215304" cy="-7.9311847877" r="2" />
	<circle cx="500.0000000000" cy="-866.0254038000" r="2" />
	<circle cx="6.2637288516" cy="-3.6351637130" r="2" />
	<circle cx="4.9996947367" cy="-2.8859482333" r="2" />
	<circle cx="499.9999225017" cy="-857.4006831281" r="2" />
	<circle cx="498.7387787982" cy="-658.6649230445" r="2" />
	<circle cx="999.7044417777" cy="-0.3014903243" r="2" />
	<circle cx="325.3481847183" cy="-232.1928362301" r="2" />
	<circle cx="0.0000003833" cy="-0.0000002213" r="2" />
	<circle cx="500.0000000000" cy="-866.0254038000" r="2" />
	<circle cx="500.0000000000" cy="-866.0254038000" r="2" />
	<circle cx="0.0013641738" cy="-0.0007874711" r="2" />
	<circle cx="1000.0000000000" cy="-0.0000000000" r="2" />
	<circle cx="21.0607206219" cy="-16.3806636218" r="2" />
	<circle cx="500.0000000000" cy="-866.0254038000" r="2" />
	<circle cx="998.7929057314" cy="-0.6978673010" r="2" />
	<circle cx="0.0000000000" cy="-0.0000000000" r="2" />
	<circle cx="500.0000000000" cy="-866.0254038000" r="2" />
	<circle cx="999.9999999777" cy="-0.0000000129" r="2" />
	<circle cx="514.2887927815" cy="-412.4505227814" r="2" />
	<circle cx="500.0000000000" cy="-866.0254036760" r="2" />
	<circle cx="1000.0000000000" cy="-0.0000000000" r="2" />
	<circle cx="499.9999455080" cy="-865.3968236737" r="2" />
	<circle cx="1000.0000000000" cy="-0.0000000000" r="2" />
	<circle cx="993.3001060210" cy="-3.1408746005" r="2" />
	<circle cx="999.9999846334" cy="-0.0000088668" r="2" />
	<circle cx="500.2155866779" cy="-404.0999074637" r="2" />
	<circle cx="21.1348606885" cy="-12.1656111627" r="2" />
	<circle cx="70.4171454934" cy="-46.8331947885" r="2" />
	<circle cx="499.9999999999" cy="-866.0254032649" r="2" />
	<circle cx="500.0000000000" cy="-866.0254038000" r="2" />
	<circle cx="499.9999999997" cy="-866.0254029605" r="2" />
	<circle cx="0.0000000000" cy="-0.0000000000" r="2" />
	<circle cx="586.1882254826" cy="-277.0784343624" r="2" />
	<circle cx="500.0000000000" cy="-866.0254038000" r="2" />
  </g>
  <g id="fig2" transform="translate(-550.0,1000)">
	<polygon points="0.0,-0.0 1000.0,-0.0 500.0,-866.0254038" />
	<line
	   id="line2-1"
	   y2="-0.0"
	   x2="500"
	   y1="-288.6751346"
	   x1="500" />
	<line
	   id="line2-2"
	   y2="-433.0127019"
	   x2="250"
	   y1="-288.6751346"
	   x1="500" />
	<line
	   id="line2-3"
	   y2="-433.0127019"
	   x2="750"
	   y1="-288.6751346"
	   x1="500" />
	<text
	   x="440"
	   y="-500"
	   id="up_2">32.8%</text>
	<text
	   x="250"
	   y="-150"
	   id="down_left_2">36.6%</text>
	<text
	   x="630"
	   y="-150"
	   id="down_right_2">30.6%</text>
  </g>
  <g id="fig3" transform="translate(550,1000)">
	<polygon points="0.0,-0.0 1000.0,-0.0 500.0,-866.0254038" />
	<polygon id="triangle3b" points="250,-144.3375673 750,-144.3375673 500,-577.3502692" />
	<line
	   id="line3-1"
	   x1="125"
	   y1="-216.5063509"
	   x2="250"
	   y2="-144.3375673" />
	<line
	   id="line3-2"
	   x1="375"
	   y1="-649.5190528"
	   x2="500"
	   y2="-577.3502692" />
	<line
	   id="line3-3"
	   x1="625"
	   y1="-649.5190528"
	   x2="500"
	   y2="-577.3502692" />
	<line
	   id="line3-4"
	   x1="875"
	   y1="-216.5063509"
	   x2="750"
	   y2="-144.3375673" />
	<line
	   id="line3-5"
	   x1="750"
	   y1="-0.0"
	   x2="750"
	   y2="-144.3375673" />
	<line
	   id="line3-6"
	   x1="250"
	   y1="-0.0"
	   x2="250"
	   y2="-144.3375673" />
	<text
	   x="500"
	   y="-660"
	   text-anchor="middle"
	   id="up_3">30.2%</text>
	<text
	   y="-50"
	   x="70"
	   id="down_left_3">33.6%</text>
	<text
	   y="-50"
	   x="770"
	   id="down_right_3">26.8%</text>
	<text
	   x="500"
	   y="-50"
	   text-anchor="middle"
	   id="down_side_3">1.4%</text>
	<text
	   x="500"
	   y="-280"
	   text-anchor="middle"
	   id="center_3">6.8%</text>
	<text
	   x="685.0"
	   y="-390.8439"
	   text-anchor="middle"
	   transform="rotate(60,665.0,-380.8439)"
	   id="right_side_3">1.0%</text>
	<text
	   x="315.0"
	   y="-390.8439"
	   text-anchor="middle"
	   transform="rotate(-60,335.0,-380.8439)"
	   id="left_side_3">0.2%</text>
  </g>
</g></g>
</svg>
