<?xml version="1.0" encoding="UTF-8" standalone="no"?>
<!DOCTYPE svg PUBLIC "-//W3C//DTD SVG 1.1//EN" "http://www.w3.org/Graphics/SVG/1.1/DTD/svg11.dtd">
<svg
   xmlns:svg="http://www.w3.org/2000/svg"
   xmlns="http://www.w3.org/2000/svg"
   xmlns:xlink="http://www.w3.org/1999/xlink"
   version="1.1"
   baseProfile="full"
   id="body"
   width="800px"
   height="800px"
   viewBox="0 0 1000 1000"
   preserveAspectRatio="none">
  <defs>
    <style type="text/css"><![CDATA[
      circle{ stroke: none; }
      polygon{ stroke: black; stroke-width: 2px; fill: none; }
      line{ stroke: black; stroke-width: 2px; }
      text{ font-size:50px; }
    ]]></style>
  </defs>
  <title
     id="title1">SVG drawing</title>
<g transform="scale(0.45)"><g transform="translate(600,1050)">
  <g id="fig1">
	<polygon points="0.0,-0.0 1000.0,-0.0 500,-866.0254038" />
	<circle cx="500.0009745714" cy="-288.6745706436" r="2" />
	<circle cx="999.7819217142" cy="-0.1259435139" r="2" />
	<circle cx="500.0000000000" cy="-866.0254038000" r="2" />
	<circle cx="499.9998003430" cy="-857.3230584518" r="2" />
	<circle cx="500.0029599667" cy="-288.6734256621" r="2" />
	<circle cx="500.0000010051" cy="-288.6751265860" r="2" />
	<circle cx="1000.0000000000" cy="-0.0000000000" r="2" />
	<circle cx="0.0000317475" cy="-0.0000183294" r="2" />
	<circle cx="0.0000000000" cy="-0.0000000000" r="2" />
	<circle cx="499.9999582627" cy="-288.6751644617" r="2" />
	<circle cx="0.0000000000" cy="-0.0000000000" r="2" />
	<circle cx="0.0000000000" cy="-0.0000000000" r="2" />
	<circle cx="499.9999920094" cy="-288.6751380721" r="2" />
	<circle cx="500.0000005045" cy="-288.6750784176" r="2" />
	<circle cx="0.0000000447" cy="-0.0000000258" r="2" />
	<circle cx="500.0000000000" cy="-866.0254038000" r="2" />
	<circle cx="0.0000000000" cy="-0.0000000000" r="2" />
	<circle cx="500.0000000000" cy="-866.0254038000" r="2" />
	<circle cx="999.1726185510" cy="-0.4776973767" r="2" />
	<circle cx="999.9752302306" cy="-0.0143008243" r="2" />
	<circle cx="999.1726116939" cy="-0.4777517753" r="2" />
	<circle cx="0.0000000000" cy="-0.0000000000" r="2" />
	<circle cx="500.0000084009" cy="-288.6751428323" r="2" />
	<circle cx="1000.0000000000" cy="-0.0000000000" r="2" />
	<circle cx="499.9999995444" cy="-288.6751319722" r="2" />
	<circle cx="0.4591927761" cy="-0.2651129533" r="2" />
	<circle cx="999.5408089961" cy="-0.2651161694" r="2" />
	<circle cx="0.0705596810" cy="-0.0407376317" r="2" />
	<circle cx="999.8056387688" cy="-0.1122145091" r="2" />
	<circle cx="999.9752382825" cy="-0.0142961552" r="2" />
	<circle cx="500.0000013990" cy="-288.6751319406" r="2" />
	<circle cx="499.9999971491" cy="-288.6751358538" r="2" />
	<circle cx="999.9752382580" cy="-0.0142961983" r="2" />
	<circle cx="500.0000023307" cy="-288.6751375947" r="2" />
	<circle cx="999.7819217142" cy="-0.1259435139" r="2" />
	<circle cx="499.9999963322" cy="-864.9540622352" r="2" />
	<circle cx="999.9551862930" cy="-0.0258731598" r="2" />
	<circle cx="0.0000000000" cy="-0.0000000000" r="2" />
	<circle cx="999.1726106860" cy="-0.4776960200" r="2" />
	<circle cx="999.9896016701" cy="-0.0060047972" r="2" />
	<circle cx="1000.0000000000" cy="-0.0000000000" r="2" />
	<circle cx="0.8273313009" cy="-0.4776634652" r="2" />
	<circle cx="500.0000049740" cy="-865.4306370191" r="2" />
	<circle cx="1000.0000000000" cy="-0.0000000000" r="2" />
	<circle cx="499.9999582833" cy="-288.6751644186" r="2" />
	<circle cx="999.0721894067" cy="-0.5356676061" r="2" />
	<circle cx="0.4591494908" cy="-0.2650851950" r="2" />
	<circle cx="0.0000000000" cy="-0.0000000000" r="2" />
	<circle cx="499.9999333586" cy="-288.6751724551" r="2" />
	<circle cx="499.9999793016" cy="-288.6751465502" r="2" />
	<circle cx="500.0000029837" cy="-288.6751364851" r="2" />
	<circle cx="499.9999999895" cy="-866.0133442412" r="2" />
	<circle cx="500.0000000000" cy="-288.6751349666" r="2" />
	<circle cx="499.9999969326" cy="-288.6751358934" r="2" />
	<circle cx="499.9999589569" cy="-288.6751633813" r="2" />
	<circle cx="0.0000000447" cy="-0.0000000258" r="2" />
	<circle cx="999.7819217142" cy="-0.1259435139" r="2" />
	<circle cx="500.0000000000" cy="-866.0254038000" r="2" />
	<circle cx="1000.0000000000" cy="-0.0000000000" r="2" />
	<circle cx="999.9998819411" cy="-0.0000681611" r="2" />
	<circle cx="992.4636476843" cy="-4.3513455817" r="2" />
	<circle cx="500.0000008260" cy="-865.8009199656" r="2" />
	<circle cx="500.0000010723" cy="-288.6751265959" r="2" />
	<circle cx="0.1944081147" cy="-0.1122395306" r="2" />
	<circle cx="499.9999798751" cy="-288.6751462192" r="2" />
	<circle cx="499.9999346601" cy="-288.6751665391" r="2" />
	<circle cx="1000.0000000000" cy="-0.0000000000" r="2" />
	<circle cx="0.2181550031" cy="-0.1259968123" r="2" />
	<circle cx="500.0000000000" cy="-866.0254038000" r="2" />
	<circle cx="500.0000000000" cy="-866.0254038000" r="2" />
	<circle cx="499.9999915691" cy="-288.6751412697" r="2" />
	<circle cx="1.4548687376" cy="-0.8399625975" r="2" />
	<circle cx="1000.0000000000" cy="-0.0000000000" r="2" />
	<circle cx="500.0008414168" cy="-288.6746527021" r="2" />
	<circle cx="0.0000000000" cy="-0.0000000000" r="2" />
	<circle cx="1000.0000000000" cy="-0.0000000000" r="2" />
	<circle cx="999.9999893886" cy="-0.0000061284" r="2" />
	<circle cx="499.9970400162" cy="-288.6734256525" r="2" />
	<circle cx="499.9999288219" cy="-288.6751741975" r="2" />
	<circle cx="0.0000000000" cy="-0.0000000000" r="2" />
	<circle cx="499.9973261593" cy="-288.6735908574" r="2" />
	<circle cx="0.0000085278" cy="-0.0000049235" r="2" />
	<circle cx="500.0000000000" cy="-866.0254038000" r="2" />
	<circle cx="500.0000410431" cy="-288.6751633813" r="2" />
	<circle cx="500.0000114998" cy="-288.6751383396" r="2" />
	<circle cx="999.4849713253" cy="-0.2972803575" r="2" />
	<circle cx="500.0000000000" cy="-866.0254038000" r="2" />
	<circle cx="0.0000286122" cy="-0.0000165192" r="2" />
	<circle cx="1000.0000000000" cy="-0.0000000000" r="2" />
	<circle cx="499.9999978770" cy="-288.6751364050" r="2" />
	<circle cx="500.0006309685" cy="-288.6747742242" r="2" />
	<circle cx="999.9633707416" cy="-0.0211479121" r="2" />
	<circle cx="500.0000482957" cy="-288.6751631457" r="2" />
	<circle cx="500.0000000000" cy="-866.0254038000" r="2" />
	<circle cx="500.0000084009" cy="-288.6751428323" r="2" />
	<circle cx="500.0000446306" cy="-288.6751302630" r="2" />
	<circle cx="500.0000000000" cy="-865.4952728128" r="2" />
	<circle cx="500.0000000000" cy="-866.0254038000" r="2" />
	<circle cx="500.0000000046" cy="-866.0253591447" r="2" />
	<circle cx="0.0000000000" cy="-0.0000000000" r="2" />
	<circle cx="500.0000030571" cy="-288.6751362025" r="2" />
	<circle cx="499.9999986916" cy="-288.6751332829" r="2" />
	<circle cx="500.0000000000" cy="-288.6751113617" r="2" />
	<circle cx="0.0000000000" cy="-0.0000000000" r="2" />
	<circle cx="499.9999978132" cy="-865.4306322569" r="2" />
	<circle cx="500.0000000000" cy="-866.0254038000" r="2" />
	<circle cx="0.0406532804" cy="-0.0234711872" r="2" />
	<circle cx="500.0000036031" cy="-865.0701664659" r="2" />
	<circle cx="499.9999885002" cy="-288.6751383876" r="2" />
	<circle cx="499.9999920626" cy="-288.6751300173" r="2" />
	<circle cx="499.9999999943" cy="-866.0133390173" r="2" />
	<circle cx="999.5408072068" cy="-0.2651129830" r="2" />
	<circle cx="499.9999999859" cy="-866.0208026398" r="2" />
	<circle cx="500.0009489338" cy="-288.6745880177" r="2" />
	<circle cx="999.0721077010" cy="-0.5358088509" r="2" />
	<circle cx="500.0000035018" cy="-288.6751366218" r="2" />
	<circle cx="1000.0000000000" cy="-0.0000000000" r="2" />
	<circle cx="500.0000000000" cy="-866.0254038000" r="2" />
	<circle cx="500.0000030416" cy="-865.0700821880" r="2" />
	<circle cx="999.9964500505" cy="-0.0020495710" r="2" />
	<circle cx="999.0721937945" cy="-0.5356723517" r="2" />
	<circle cx="499.9999322245" cy="-288.6751731944" r="2" />
	<circle cx="1000.0000000000" cy="-0.0000000000" r="2" />
	<circle cx="999.9997387400" cy="-0.0001508390" r="2" />
	<circle cx="500.0000005698" cy="-288.6751343693" r="2" />
	<circle cx="0.0447905001" cy="-0.0258598073" r="2" />
	<circle cx="500.0000000000" cy="-866.0254038000" r="2" />
	<circle cx="499.9999956500" cy="-864.9542259516" r="2" />
	<circle cx="500.0000000000" cy="-866.0254038000" r="2" />
	<circle cx="1000.0000000000" cy="-0.0000000000" r="2" />
	<circle cx="999.9895470726" cy="-0.0060349938" r="2" />
	<circle cx="1000.0000000000" cy="-0.0000000000" r="2" />
	<circle cx="0.4591519553" cy="-0.2650894086" r="2" />
	<circle cx="499.9999999369" cy="-866.0031182246" r="2" />
	<circle cx="1.2978414176" cy="-0.7493039962" r="2" />
	<circle cx="500.0000000000" cy="-288.6783825831" r="2" />
	<circle cx="0.0024512356" cy="-0.0014152215" r="2" />
	<circle cx="999.5408089961" cy="-0.2651161694" r="2" />
	<circle cx="0.0447994862" cy="-0.0258649954" r="2" />
	<circle cx="0.0039847588" cy="-0.0023006016" r="2" />
	<circle cx="0.0039847427" cy="-0.0023005922" r="2" />
	<circle cx="500.0000000000" cy="-866.0254038000" r="2" />
	<circle cx="0.0000000000" cy="-0.0000000000" r="2" />
	<circle cx="1.4548634550" cy="-0.8399719979" r="2" />
	<circle cx="500.0000000341" cy="-866.0063930239" r="2" />
	<circle cx="999.1728092570" cy="-0.4776973938" r="2" />
	<circle cx="500.0000000000" cy="-866.0254038000" r="2" />
	<circle cx="0.0000000000" cy="-0.0000000000" r="2" />
	<circle cx="499.9974688964" cy="-288.6736732667" r="2" />
	<circle cx="1000.0000000000" cy="-0.0000000000" r="2" />
	<circle cx="500.0000000000" cy="-288.6783871611" r="2" />
	<circle cx="500.0000015606" cy="-288.6751239638" r="2" />
	<circle cx="500.0000000000" cy="-866.0254038000" r="2" />
	<circle cx="0.0000106097" cy="-0.0000061255" r="2" />
	<circle cx="1.4548687376" cy="-0.8399625975" r="2" />
	<circle cx="999.9942262356" cy="-0.0033334824" r="2" />
	<circle cx="999.1727412369" cy="-0.4776231885" r="2" />
	<circle cx="0.0000000000" cy="-0.0000000000" r="2" />
	<circle cx="499.9999999965" cy="-866.0253080986" r="2" />
	<circle cx="500.0000000000" cy="-866.0254038000" r="2" />
	<circle cx="0.0000093661" cy="-0.0000054075" r="2" />
	<circle cx="1000.0000000000" cy="-0.0000000000" r="2" />
	<circle cx="0.5150449981" cy="-0.2973588474" r="2" />
	<circle cx="0.0000000000" cy="-0.0000000000" r="2" />
	<circle cx="1000.0000000000" cy="-0.0000000000" r="2" />
	<circle cx="0.0015542988" cy="-0.0008973748" r="2" />
	<circle cx="1000.0000000000" cy="-0.0000000000" r="2" />
	<circle cx="1000.0000000000" cy="-0.0000000000" r="2" />
	<circle cx="0.0000000000" cy="-0.0000000000" r="2" />
	<circle cx="999.5408136724" cy="-0.2651161134" r="2" />
	<circle cx="1000.0000000000" cy="-0.0000000000" r="2" />
	<circle cx="500.0000232777" cy="-288.6751480393" r="2" />
	<circle cx="499.9999767478" cy="-288.6751480713" r="2" />
	<circle cx="499.9999921852" cy="-864.9540726533" r="2" />
	<circle cx="0.0000000000" cy="-0.0000000000" r="2" />
	<circle cx="0.0000000000" cy="-0.0000000000" r="2" />
	<circle cx="499.9999321992" cy="-288.6751731812" r="2" />
	<circle cx="500.0000000000" cy="-866.0254038000" r="2" />
	<circle cx="0.0447994862" cy="-0.0258649954" r="2" />
	<circle cx="499.9999999997" cy="-288.6785524752" r="2" />
	<circle cx="500.0000000000" cy="-866.0236090506" r="2" />
	<circle cx="1000.0000000000" cy="-0.0000000000" r="2" />
	<circle cx="7.9253993925" cy="-4.5757703174" r="2" />
	<circle cx="500.0000000000" cy="-866.0254038000" r="2" />
	<circle cx="499.9999511979" cy="-288.6751064241" r="2" />
	<circle cx="499.9999974660" cy="-288.6751355000" r="2" />
	<circle cx="500.0000043879" cy="-865.9439208723" r="2" />
	<circle cx="500.0000000000" cy="-866.0253081382" r="2" />
	<circle cx="1000.0000000000" cy="-0.0000000000" r="2" />
	<circle cx="0.9278061057" cy="-0.5356722876" r="2" />
	<circle cx="1000.0000000000" cy="-0.0000000000" r="2" />
	<circle cx="999.4849137939" cy="-0.2973877064" r="2" />
	<circle cx="1000.0000000000" cy="-0.0000000000" r="2" />
	<circle cx="500.0000000000" cy="-866.0254038000" r="2" />
	<circle cx="1000.0000000000" cy="-0.0000000000" r="2" />
	<circle cx="500.0000000000" cy="-866.0254038000" r="2" />
	<circle cx="500.0000696184" cy="-865.0698887259" r="2" />
	<circle cx="499.9999767479" cy="-288.6751480713" r="2" />
	<circle cx="500.0000000000" cy="-866.0254038000" r="2" />
	<circle cx="500.0000020076" cy="-288.6751363325" r="2" />
	<circle cx="500.0000696184" cy="-865.0698887259" r="2" />
	<circle cx="0.0000000000" cy="-0.0000000000" r="2" />
	<circle cx="0.8273892074" cy="-0.4776959301" r="2" />
	<circle cx="1000.0000000000" cy="-0.0000000000" r="2" />
	<circle cx="0.0000317475" cy="-0.0000183294" r="2" />
	<circle cx="500.0000000000" cy="-866.0254038000" r="2" />
	<circle cx="499.9999526107" cy="-288.6751627668" r="2" />
	<circle cx="500.0000009867" cy="-288.6751341068" r="2" />
	<circle cx="0.0164638325" cy="-0.0095053597" r="2" />
	<circle cx="500.0000000000" cy="-866.0254038000" r="2" />
	<circle cx="500.0000000000" cy="-866.0252847885" r="2" />
	<circle cx="500.0000780220" cy="-864.9539212361" r="2" />
	<circle cx="0.0000000000" cy="-0.0000000000" r="2" />
	<circle cx="999.0724170105" cy="-0.5356739046" r="2" />
	<circle cx="500.0000036031" cy="-865.0701664659" r="2" />
	<circle cx="0.0000000000" cy="-0.0000000000" r="2" />
	<circle cx="1000.0000000000" cy="-0.0000000000" r="2" />
	<circle cx="499.9999978132" cy="-865.4306322569" r="2" />
	<circle cx="500.0000674452" cy="-288.6751728725" r="2" />
	<circle cx="0.0104438691" cy="-0.0060297707" r="2" />
	<circle cx="500.0000439267" cy="-288.6751308711" r="2" />
	<circle cx="0.8272676866" cy="-0.4776232245" r="2" />
	<circle cx="500.0000000105" cy="-866.0133442412" r="2" />
	<circle cx="500.0000000000" cy="-866.0254038000" r="2" />
	<circle cx="0.0705596579" cy="-0.0407376566" r="2" />
	<circle cx="0.0247617422" cy="-0.0142961985" r="2" />
	<circle cx="499.9999995867" cy="-288.6751312971" r="2" />
	<circle cx="500.0000000000" cy="-866.0254038000" r="2" />
	<circle cx="0.0035499615" cy="-0.0020495712" r="2" />
	<circle cx="499.9999517043" cy="-288.6751632057" r="2" />
	<circle cx="0.0000000000" cy="-0.0000000000" r="2" />
	<circle cx="500.0000000000" cy="-866.0254038000" r="2" />
	<circle cx="0.0000000000" cy="-0.0000000000" r="2" />
	<circle cx="500.0000666414" cy="-288.6751723785" r="2" />
	<circle cx="0.0000000000" cy="-0.0000000000" r="2" />
	<circle cx="0.8273931820" cy="-0.4776921374" r="2" />
	<circle cx="0.0247697715" cy="-0.0143008209" r="2" />
	<circle cx="1000.0000000000" cy="-0.0000000000" r="2" />
	<circle cx="499.9970400162" cy="-288.6734256525" r="2" />
	<circle cx="500.0000000000" cy="-866.0254038000" r="2" />
	<circle cx="0.1944082844" cy="-0.1122426325" r="2" />
	<circle cx="0.0000000000" cy="-0.0000000000" r="2" />
	<circle cx="500.0000000000" cy="-866.0254038000" r="2" />
	<circle cx="500.0000000035" cy="-866.0253080986" r="2" />
	<circle cx="499.9991585831" cy="-288.6746461225" r="2" />
	<circle cx="500.0000030674" cy="-288.6751358468" r="2" />
	<circle cx="500.0000000000" cy="-866.0254038000" r="2" />
	<circle cx="500.0000446307" cy="-288.6751302630" r="2" />
	<circle cx="0.0000000000" cy="-0.0000000000" r="2" />
	<circle cx="0.0164638325" cy="-0.0095053597" r="2" />
	<circle cx="0.0000001671" cy="-0.0000000964" r="2" />
	<circle cx="499.9999973582" cy="-288.6751366983" r="2" />
	<circle cx="500.0000030674" cy="-288.6751358468" r="2" />
	<circle cx="499.9999962850" cy="-864.9540624434" r="2" />
	<circle cx="999.9952857204" cy="-0.0027217627" r="2" />
	<circle cx="499.9999288219" cy="-288.6751741975" r="2" />
	<circle cx="500.0000653399" cy="-288.6751665391" r="2" />
	<circle cx="0.0000000000" cy="-0.0000000000" r="2" />
	<circle cx="1000.0000000000" cy="-0.0000000000" r="2" />
	<circle cx="7.9254330334" cy="-4.5757120507" r="2" />
	<circle cx="0.0000000000" cy="-0.0000000000" r="2" />
	<circle cx="500.0000482957" cy="-288.6751631457" r="2" />
	<circle cx="998.5451365068" cy="-0.8399720373" r="2" />
	<circle cx="0.8271908215" cy="-0.4776975299" r="2" />
	<circle cx="999.9551862930" cy="-0.0258731598" r="2" />
	<circle cx="500.0000041547" cy="-865.4951786711" r="2" />
	<circle cx="499.9999984393" cy="-288.6751239638" r="2" />
	<circle cx="499.9999293337" cy="-288.6751732720" r="2" />
	<circle cx="0.0000000000" cy="-0.0000000000" r="2" />
	<circle cx="500.0000008224" cy="-865.8009199928" r="2" />
	<circle cx="0.0000000447" cy="-0.0000000258" r="2" />
	<circle cx="500.0000000000" cy="-866.0254038000" r="2" />
	<circle cx="500.0000473893" cy="-288.6751627070" r="2" />
	<circle cx="499.9999969326" cy="-288.6751358934" r="2" />
	<circle cx="0.0000000000" cy="-0.0000000000" r="2" />
	<circle cx="500.0000000000" cy="-866.0253939578" r="2" />
	<circle cx="0.0035499615" cy="-0.0020495712" r="2" />
	<circle cx="0.0000828455" cy="-0.0000478309" r="2" />
	<circle cx="500.0000000000" cy="-866.0254038000" r="2" />
	<circle cx="500.0000000000" cy="-866.0254038000" r="2" />
	<circle cx="0.0103971373" cy="-0.0060027900" r="2" />
	<circle cx="500.0026738407" cy="-288.6735908574" r="2" />
	<circle cx="1000.0000000000" cy="-0.0000000000" r="2" />
	<circle cx="0.0000000000" cy="-0.0000000000" r="2" />
	<circle cx="500.0000000000" cy="-866.0252674770" r="2" />
	<circle cx="500.0000000000" cy="-866.0254038000" r="2" />
	<circle cx="999.1726099129" cy="-0.4776974554" r="2" />
	<circle cx="500.0000439708" cy="-288.6751308330" r="2" />
	<circle cx="500.0000000000" cy="-866.0254036072" r="2" />
	<circle cx="500.0000000000" cy="-866.0254037484" r="2" />
	<circle cx="499.9999980092" cy="-288.6751333846" r="2" />
	<circle cx="1000.0000000000" cy="-0.0000000000" r="2" />
	<circle cx="0.0000000000" cy="-0.0000000000" r="2" />
	<circle cx="999.0721937945" cy="-0.5356723517" r="2" />
	<circle cx="1000.0000000000" cy="-0.0000000000" r="2" />
	<circle cx="500.0000036678" cy="-864.9540623828" r="2" />
	<circle cx="998.7021647725" cy="-0.7493085614" r="2" />
	<circle cx="500.0000665724" cy="-288.6751722889" r="2" />
	<circle cx="500.0000035018" cy="-288.6751366218" r="2" />
	<circle cx="0.0000828855" cy="-0.0000478540" r="2" />
	<circle cx="999.8056148153" cy="-0.1122292889" r="2" />
	<circle cx="999.0721077010" cy="-0.5358088509" r="2" />
	<circle cx="499.9999999999" cy="-866.0252674777" r="2" />
	<circle cx="1000.0000000000" cy="-0.0000000000" r="2" />
	<circle cx="1000.0000000000" cy="-0.0000000000" r="2" />
	<circle cx="500.0028124872" cy="-288.6735069523" r="2" />
	<circle cx="500.0000004133" cy="-288.6751312971" r="2" />
	<circle cx="500.0000003815" cy="-288.6751344537" r="2" />
	<circle cx="499.9999429926" cy="-864.9540294607" r="2" />
	<circle cx="0.0448136934" cy="-0.0258731560" r="2" />
	<circle cx="500.0000000000" cy="-866.0254038000" r="2" />
	<circle cx="0.8273312625" cy="-0.4776634335" r="2" />
	<circle cx="999.9752302557" cy="-0.0143008301" r="2" />
	<circle cx="499.9999999939" cy="-866.0133338043" r="2" />
	<circle cx="1000.0000000000" cy="-0.0000000000" r="2" />
	<circle cx="999.4849193761" cy="-0.2973876536" r="2" />
	<circle cx="999.9998969167" cy="-0.0000595341" r="2" />
	<circle cx="999.9633711934" cy="-0.0211479117" r="2" />
	<circle cx="1000.0000000000" cy="-0.0000000000" r="2" />
	<circle cx="0.0000000000" cy="-0.0000000000" r="2" />
	<circle cx="1000.0000000000" cy="-0.0000000000" r="2" />
	<circle cx="499.9999328633" cy="-288.6751727476" r="2" />
	<circle cx="0.0000000000" cy="-0.0000000000" r="2" />
	<circle cx="0.5149966029" cy="-0.2973334273" r="2" />
	<circle cx="499.9999915991" cy="-288.6751411823" r="2" />
	<circle cx="500.0000021868" cy="-865.4306321750" r="2" />
	<circle cx="1000.0000000000" cy="-0.0000000000" r="2" />
	<circle cx="0.0448136934" cy="-0.0258731560" r="2" />
	<circle cx="499.9999994599" cy="-288.6750565622" r="2" />
	<circle cx="500.0000019303" cy="-288.6751334955" r="2" />
	<circle cx="0.0035499616" cy="-0.0020495713" r="2" />
	<circle cx="1000.0000000000" cy="-0.0000000000" r="2" />
	<circle cx="500.0000029313" cy="-865.4307419876" r="2" />
	<circle cx="500.0000000000" cy="-866.0254038000" r="2" />
	<circle cx="0.9278087342" cy="-0.5356674398" r="2" />
	<circle cx="500.0000000000" cy="-866.0254038000" r="2" />
	<circle cx="499.9999955295" cy="-864.5267882069" r="2" />
	<circle cx="0.0000000000" cy="-0.0000000000" r="2" />
	<circle cx="0.0000000000" cy="-0.0000000000" r="2" />
	<circle cx="499.9991652713" cy="-288.6746526692" r="2" />
	<circle cx="0.0000317475" cy="-0.0000183294" r="2" />
	<circle cx="500.0000000000" cy="-866.0254038000" r="2" />
	<circle cx="499.9999894371" cy="-288.6750820146" r="2" />
	<circle cx="0.0192999694" cy="-0.0111428425" r="2" />
	<circle cx="0.0000000000" cy="-0.0000000000" r="2" />
	<circle cx="0.0000000000" cy="-0.0000000000" r="2" />
	<circle cx="500.0000004444" cy="-288.6751312331" r="2" />
	<circle cx="999.9960152520" cy="-0.0023006015" r="2" />
	<circle cx="0.8273886761" cy="-0.4776847310" r="2" />
	<circle cx="499.9999989277" cy="-288.6751265959" r="2" />
	<circle cx="499.9999958167" cy="-865.4952260253" r="2" />
	<circle cx="0.8273913005" cy="-0.4776920416" r="2" />
	<circle cx="999.0724170105" cy="-0.5356739046" r="2" />
	<circle cx="999.9998969003" cy="-0.0000595057" r="2" />
	<circle cx="500.0000006850" cy="-288.6751249586" r="2" />
	<circle cx="0.0000828455" cy="-0.0000478309" r="2" />
	<circle cx="0.2180885447" cy="-0.1259134800" r="2" />
	<circle cx="500.0000000000" cy="-866.0254038000" r="2" />
	<circle cx="500.0000000149" cy="-866.0133390331" r="2" />
	<circle cx="0.8273901459" cy="-0.4776974625" r="2" />
	<circle cx="499.9974688964" cy="-288.6736732667" r="2" />
	<circle cx="500.0028167833" cy="-288.6735083292" r="2" />
	<circle cx="992.8511562887" cy="-4.1278874606" r="2" />
	<circle cx="499.9999955962" cy="-288.6750632609" r="2" />
	<circle cx="499.9999925565" cy="-288.6751377362" r="2" />
	<circle cx="0.0013091502" cy="-0.0007558383" r="2" />
	<circle cx="0.0000000000" cy="-0.0000000000" r="2" />
	<circle cx="0.4591910038" cy="-0.2651161692" r="2" />
	<circle cx="500.0000000000" cy="-866.0254038000" r="2" />
	<circle cx="499.9999999984" cy="-866.0236090540" r="2" />
	<circle cx="499.9999958453" cy="-865.4951786757" r="2" />
	<circle cx="499.9999921852" cy="-864.9540726533" r="2" />
	<circle cx="999.9912095555" cy="-0.0050752150" r="2" />
	<circle cx="500.0000000000" cy="-866.0254038000" r="2" />
	<circle cx="500.0000000000" cy="-866.0254038000" r="2" />
	<circle cx="999.9998819411" cy="-0.0000681611" r="2" />
	<circle cx="499.9999450678" cy="-865.4952667186" r="2" />
	<circle cx="999.7818303794" cy="-0.1259937924" r="2" />
	<circle cx="499.9999970164" cy="-288.6751363446" r="2" />
	<circle cx="0.5150805858" cy="-0.2973875876" r="2" />
	<circle cx="499.9999293337" cy="-288.6751732720" r="2" />
	<circle cx="1000.0000000000" cy="-0.0000000000" r="2" />
	<circle cx="500.0000000000" cy="-866.0253081382" r="2" />
	<circle cx="0.0000000000" cy="-0.0000000000" r="2" />
	<circle cx="0.0000000000" cy="-0.0000000000" r="2" />
	<circle cx="500.0000000000" cy="-866.0254038000" r="2" />
	<circle cx="499.9999969609" cy="-865.0700821938" r="2" />
	<circle cx="500.0000000000" cy="-865.9831079767" r="2" />
	<circle cx="499.9999970163" cy="-288.6751363915" r="2" />
	<circle cx="500.0000035018" cy="-288.6751366218" r="2" />
	<circle cx="500.0000000000" cy="-858.2186141289" r="2" />
	<circle cx="0.0000000000" cy="-0.0000000000" r="2" />
	<circle cx="499.9999999860" cy="-866.0133338177" r="2" />
	<circle cx="1000.0000000000" cy="-0.0000000000" r="2" />
	<circle cx="499.9999325548" cy="-288.6751729477" r="2" />
	<circle cx="0.0104529272" cy="-0.0060349936" r="2" />
	<circle cx="500.0000000059" cy="-865.9967928793" r="2" />
	<circle cx="500.0000000000" cy="-288.6751106996" r="2" />
	<circle cx="999.9806999579" cy="-0.0111428429" r="2" />
	<circle cx="500.0025314165" cy="-288.6736734588" r="2" />
	<circle cx="0.4591069024" cy="-0.2650654937" r="2" />
	<circle cx="500.0000070316" cy="-288.6751305403" r="2" />
	<circle cx="500.0000021714" cy="-865.4306322572" r="2" />
	<circle cx="999.9752302261" cy="-0.0143008262" r="2" />
	<circle cx="1000.0000000000" cy="-0.0000000000" r="2" />
	<circle cx="0.0000317475" cy="-0.0000183294" r="2" />
	<circle cx="0.5150862226" cy="-0.2973877008" r="2" />
	<circle cx="0.0000000000" cy="-0.0000000000" r="2" />
	<circle cx="0.9276765414" cy="-0.5355942988" r="2" />
	<circle cx="500.0000000000" cy="-857.3215995566" r="2" />
	<circle cx="999.9998969167" cy="-0.0000595341" r="2" />
	<circle cx="1000.0000000000" cy="-0.0000000000" r="2" />
	<circle cx="0.0000000000" cy="-0.0000000000" r="2" />
	<circle cx="1000.0000000000" cy="-0.0000000000" r="2" />
	<circle cx="499.9999999954" cy="-866.0253591447" r="2" />
	<circle cx="500.0000000000" cy="-866.0254038000" r="2" />
	<circle cx="500.0000010051" cy="-288.6751265860" r="2" />
	<circle cx="500.0000000000" cy="-866.0254038000" r="2" />
	<circle cx="500.0000000000" cy="-866.0253671412" r="2" />
	<circle cx="500.0000000000" cy="-866.0254038000" r="2" />
	<circle cx="500.0000000000" cy="-856.8739790815" r="2" />
	<circle cx="999.0721942325" cy="-0.5356588045" r="2" />
	<circle cx="0.2180783083" cy="-0.1259435528" r="2" />
	<circle cx="500.0000000000" cy="-866.0254038000" r="2" />
	<circle cx="0.1944081147" cy="-0.1122395306" r="2" />
	<circle cx="500.0000049740" cy="-865.4306370191" r="2" />
	<circle cx="0.0000000000" cy="-0.0000000000" r="2" />
	<circle cx="0.0000000000" cy="-0.0000000000" r="2" />
	<circle cx="500.0000000000" cy="-866.0254038000" r="2" />
	<circle cx="0.0104438691" cy="-0.0060297707" r="2" />
	<circle cx="1000.0000000000" cy="-0.0000000000" r="2" />
	<circle cx="500.0000000000" cy="-866.0254038000" r="2" />
	<circle cx="1000.0000000000" cy="-0.0000000000" r="2" />
	<circle cx="500.0000002587" cy="-865.9784618740" r="2" />
	<circle cx="500.0000000000" cy="-866.0254038000" r="2" />
	<circle cx="500.0000063925" cy="-288.6751395438" r="2" />
	<circle cx="499.9999989123" cy="-288.6751265589" r="2" />
	<circle cx="500.0000000000" cy="-857.3227161118" r="2" />
	<circle cx="500.0000000018" cy="-288.6758592667" r="2" />
	<circle cx="0.9276606993" cy="-0.5355851544" r="2" />
	<circle cx="999.1727340408" cy="-0.4776231855" r="2" />
	<circle cx="500.0000000000" cy="-866.0252847885" r="2" />
	<circle cx="0.8273886761" cy="-0.4776847310" r="2" />
	<circle cx="499.9999334276" cy="-288.6751723872" r="2" />
	<circle cx="500.0000024791" cy="-288.6751363582" r="2" />
	<circle cx="0.0000000000" cy="-0.0000000000" r="2" />
	<circle cx="500.0000034999" cy="-288.6751361364" r="2" />
	<circle cx="999.8055917205" cy="-0.1122426244" r="2" />
	<circle cx="500.0029557737" cy="-288.6734284571" r="2" />
	<circle cx="0.0000000000" cy="-0.0000000000" r="2" />
	<circle cx="500.0000029780" cy="-288.6751368742" r="2" />
	<circle cx="999.9552096031" cy="-0.0258597995" r="2" />
	<circle cx="500.0000000000" cy="-866.0254038000" r="2" />
	<circle cx="500.0000000000" cy="-865.9831079767" r="2" />
	<circle cx="500.0000000000" cy="-866.0254038000" r="2" />
	<circle cx="0.0000633505" cy="-0.0000365754" r="2" />
	<circle cx="0.0000000000" cy="-0.0000000000" r="2" />
	<circle cx="992.8513848847" cy="-4.1275933385" r="2" />
	<circle cx="999.0721937945" cy="-0.5356723517" r="2" />
	<circle cx="0.8273901459" cy="-0.4776974625" r="2" />
	<circle cx="499.9973261593" cy="-288.6735908574" r="2" />
	<circle cx="0.0000000000" cy="-0.0000000000" r="2" />
	<circle cx="999.9895478729" cy="-0.0060369567" r="2" />
	<circle cx="500.0000030213" cy="-288.6751362013" r="2" />
	<circle cx="499.9999999999" cy="-288.6782220700" r="2" />
	<circle cx="0.0000000000" cy="-0.0000000000" r="2" />
	<circle cx="0.0000000000" cy="-0.0000000000" r="2" />
	<circle cx="500.0000000000" cy="-866.0254038000" r="2" />
	<circle cx="500.0000478637" cy="-288.6751628965" r="2" />
	<circle cx="999.1726185510" cy="-0.4776973767" r="2" />
	<circle cx="1000.0000000000" cy="-0.0000000000" r="2" />
	<circle cx="500.0000000000" cy="-866.0254038000" r="2" />
	<circle cx="1000.0000000000" cy="-0.0000000000" r="2" />
	<circle cx="0.0000000000" cy="-0.0000000000" r="2" />
	<circle cx="499.9999999750" cy="-865.9968114462" r="2" />
	<circle cx="0.0000000447" cy="-0.0000000258" r="2" />
	<circle cx="500.0000000000" cy="-866.0254038000" r="2" />
	<circle cx="499.9999960472" cy="-288.6751357422" r="2" />
	<circle cx="999.0721937945" cy="-0.5356723517" r="2" />
	<circle cx="0.0000000447" cy="-0.0000000258" r="2" />
	<circle cx="1000.0000000000" cy="-0.0000000000" r="2" />
	<circle cx="1000.0000000000" cy="-0.0000000000" r="2" />
	<circle cx="500.0000000000" cy="-866.0254038000" r="2" />
	<circle cx="500.0028171102" cy="-288.6735085205" r="2" />
	<circle cx="0.0247777707" cy="-0.0143054223" r="2" />
	<circle cx="500.0000030316" cy="-865.0700143057" r="2" />
	<circle cx="499.9999777889" cy="-288.6751474702" r="2" />
	<circle cx="1000.0000000000" cy="-0.0000000000" r="2" />
	<circle cx="0.0000000000" cy="-0.0000000000" r="2" />
	<circle cx="0.0000000000" cy="-0.0000000000" r="2" />
	<circle cx="1000.0000000000" cy="-0.0000000000" r="2" />
	<circle cx="0.0447994862" cy="-0.0258649954" r="2" />
	<circle cx="500.0000000000" cy="-866.0254038000" r="2" />
	<circle cx="1000.0000000000" cy="-0.0000000000" r="2" />
	<circle cx="999.9960152606" cy="-0.0023005679" r="2" />
	<circle cx="0.9278061057" cy="-0.5356722876" r="2" />
	<circle cx="999.9986908562" cy="-0.0007558271" r="2" />
	<circle cx="998.5451393011" cy="-0.8399486193" r="2" />
	<circle cx="500.0000017882" cy="-865.8009216480" r="2" />
	<circle cx="500.0000000000" cy="-866.0254038000" r="2" />
  </g>
  <g id="fig2" transform="translate(-550.0,1000)">
	<polygon points="0.0,-0.0 1000.0,-0.0 500.0,-866.0254038" />
	<line
	   id="line2-1"
	   y2="-0.0"
	   x2="500"
	   y1="-288.6751346"
	   x1="500" />
	<line
	   id="line2-2"
	   y2="-433.0127019"
	   x2="250"
	   y1="-288.6751346"
	   x1="500" />
	<line
	   id="line2-3"
	   y2="-433.0127019"
	   x2="750"
	   y1="-288.6751346"
	   x1="500" />
	<text
	   x="440"
	   y="-500"
	   id="up_2">32.2%</text>
	<text
	   x="250"
	   y="-150"
	   id="down_left_2">35.4%</text>
	<text
	   x="630"
	   y="-150"
	   id="down_right_2">32.4%</text>
  </g>
  <g id="fig3" transform="translate(550,1000)">
	<polygon points="0.0,-0.0 1000.0,-0.0 500.0,-866.0254038" />
	<polygon id="triangle3b" points="250,-144.3375673 750,-144.3375673 500,-577.3502692" />
	<line
	   id="line3-1"
	   x1="125"
	   y1="-216.5063509"
	   x2="250"
	   y2="-144.3375673" />
	<line
	   id="line3-2"
	   x1="375"
	   y1="-649.5190528"
	   x2="500"
	   y2="-577.3502692" />
	<line
	   id="line3-3"
	   x1="625"
	   y1="-649.5190528"
	   x2="500"
	   y2="-577.3502692" />
	<line
	   id="line3-4"
	   x1="875"
	   y1="-216.5063509"
	   x2="750"
	   y2="-144.3375673" />
	<line
	   id="line3-5"
	   x1="750"
	   y1="-0.0"
	   x2="750"
	   y2="-144.3375673" />
	<line
	   id="line3-6"
	   x1="250"
	   y1="-0.0"
	   x2="250"
	   y2="-144.3375673" />
	<text
	   x="500"
	   y="-660"
	   text-anchor="middle"
	   id="up_3">25.2%</text>
	<text
	   y="-50"
	   x="70"
	   id="down_left_3">27.4%</text>
	<text
	   y="-50"
	   x="770"
	   id="down_right_3">23.6%</text>
	<text
	   x="500"
	   y="-50"
	   text-anchor="middle"
	   id="down_side_3">0.0%</text>
	<text
	   x="500"
	   y="-280"
	   text-anchor="middle"
	   id="center_3">23.8%</text>
	<text
	   x="685.0"
	   y="-390.8439"
	   text-anchor="middle"
	   transform="rotate(60,665.0,-380.8439)"
	   id="right_side_3">0.0%</text>
	<text
	   x="315.0"
	   y="-390.8439"
	   text-anchor="middle"
	   transform="rotate(-60,335.0,-380.8439)"
	   id="left_side_3">0.0%</text>
  </g>
</g></g>
</svg>
