<?xml version="1.0" encoding="UTF-8" standalone="no"?>
<!DOCTYPE svg PUBLIC "-//W3C//DTD SVG 1.1//EN" "http://www.w3.org/Graphics/SVG/1.1/DTD/svg11.dtd">
<svg
   xmlns:svg="http://www.w3.org/2000/svg"
   xmlns="http://www.w3.org/2000/svg"
   xmlns:xlink="http://www.w3.org/1999/xlink"
   version="1.1"
   baseProfile="full"
   id="body"
   width="800px"
   height="800px"
   viewBox="0 0 1000 1000"
   preserveAspectRatio="none">
  <defs>
    <style type="text/css"><![CDATA[
      circle{ stroke: none; }
      polygon{ stroke: black; stroke-width: 2px; fill: none; }
      line{ stroke: black; stroke-width: 2px; }
      text{ font-size:50px; }
    ]]></style>
  </defs>
  <title
     id="title1">SVG drawing</title>
<g transform="scale(0.45)"><g transform="translate(600,1050)">
  <g id="fig1">
	<polygon points="0.0,-0.0 1000.0,-0.0 500,-866.0254038" />
	<circle cx="500.0000000000" cy="-866.0254038000" r="2" />
	<circle cx="1000.0000000000" cy="-0.0000000000" r="2" />
	<circle cx="500.0000000000" cy="-866.0254038000" r="2" />
	<circle cx="500.0000002360" cy="-866.0240221911" r="2" />
	<circle cx="500.0000029617" cy="-866.0139990049" r="2" />
	<circle cx="500.0000000000" cy="-866.0254038000" r="2" />
	<circle cx="499.9999999987" cy="-866.0254005915" r="2" />
	<circle cx="999.8820786095" cy="-0.0560014332" r="2" />
	<circle cx="0.0000000000" cy="-0.0000000000" r="2" />
	<circle cx="584.5662682755" cy="-133.7421280604" r="2" />
	<circle cx="1000.0000000000" cy="-0.0000000000" r="2" />
	<circle cx="1000.0000000000" cy="-0.0000000000" r="2" />
	<circle cx="460.0585158367" cy="-446.0172312825" r="2" />
	<circle cx="499.9964579981" cy="-857.7833335434" r="2" />
	<circle cx="0.0557116482" cy="-0.0321661488" r="2" />
	<circle cx="999.9999503926" cy="-0.0000286446" r="2" />
	<circle cx="0.0000000317" cy="-0.0000000209" r="2" />
	<circle cx="12.2505139741" cy="-7.0339980400" r="2" />
	<circle cx="998.5826469324" cy="-1.1623141041" r="2" />
	<circle cx="0.0000000000" cy="-0.0000000000" r="2" />
	<circle cx="1000.0000000000" cy="-0.0000000000" r="2" />
	<circle cx="1000.0000000000" cy="-0.0000000000" r="2" />
	<circle cx="0.0000000000" cy="-0.0000000000" r="2" />
	<circle cx="1000.0000000000" cy="-0.0000000000" r="2" />
	<circle cx="1000.0000000000" cy="-0.0000000000" r="2" />
	<circle cx="500.0000000000" cy="-866.0254038000" r="2" />
	<circle cx="989.8747223305" cy="-5.8465338643" r="2" />
	<circle cx="0.0000000000" cy="-0.0000000000" r="2" />
	<circle cx="1000.0000000000" cy="-0.0000000000" r="2" />
	<circle cx="0.0000000000" cy="-0.0000000000" r="2" />
	<circle cx="500.0000000000" cy="-866.0254038000" r="2" />
	<circle cx="1000.0000000000" cy="-0.0000000000" r="2" />
	<circle cx="651.0499760416" cy="-601.1633797456" r="2" />
	<circle cx="499.9995999284" cy="-858.4725645234" r="2" />
	<circle cx="500.0000000000" cy="-866.0254038000" r="2" />
	<circle cx="500.0000000000" cy="-866.0254038000" r="2" />
	<circle cx="1000.0000000000" cy="-0.0000000000" r="2" />
	<circle cx="500.0000000000" cy="-866.0254038000" r="2" />
	<circle cx="499.9997232262" cy="-866.0013028640" r="2" />
	<circle cx="505.7189421497" cy="-845.7428066740" r="2" />
	<circle cx="1000.0000000000" cy="-0.0000000000" r="2" />
	<circle cx="0.0000000000" cy="-0.0000000000" r="2" />
	<circle cx="0.0039673455" cy="-0.0022915033" r="2" />
	<circle cx="999.6207870509" cy="-0.3430775175" r="2" />
	<circle cx="450.1510775891" cy="-462.1113757680" r="2" />
	<circle cx="1000.0000000000" cy="-0.0000000000" r="2" />
	<circle cx="500.0000000001" cy="-866.0253822678" r="2" />
	<circle cx="999.9860833685" cy="-0.0080355574" r="2" />
	<circle cx="1000.0000000000" cy="-0.0000000000" r="2" />
	<circle cx="500.0000000000" cy="-866.0254037975" r="2" />
	<circle cx="999.9999790533" cy="-0.0000116286" r="2" />
	<circle cx="0.0000000000" cy="-0.0000000000" r="2" />
	<circle cx="500.0000000000" cy="-866.0254038000" r="2" />
	<circle cx="499.0847194790" cy="-855.8174444509" r="2" />
	<circle cx="1000.0000000000" cy="-0.0000000000" r="2" />
	<circle cx="2.9109775518" cy="-1.3798044376" r="2" />
	<circle cx="999.9999998511" cy="-0.0000000860" r="2" />
	<circle cx="500.0000000000" cy="-866.0254038000" r="2" />
	<circle cx="500.0000000000" cy="-866.0254038000" r="2" />
	<circle cx="1000.0000000000" cy="-0.0000000000" r="2" />
	<circle cx="1000.0000000000" cy="-0.0000000000" r="2" />
	<circle cx="500.0031852951" cy="-853.0296797833" r="2" />
	<circle cx="0.0000000000" cy="-0.0000000000" r="2" />
	<circle cx="500.0000000000" cy="-866.0254038000" r="2" />
	<circle cx="0.0000000000" cy="-0.0000000000" r="2" />
	<circle cx="246.1691551243" cy="-140.5536230857" r="2" />
	<circle cx="500.0000000000" cy="-866.0254038000" r="2" />
	<circle cx="500.0000000000" cy="-866.0254038000" r="2" />
	<circle cx="500.0000000000" cy="-866.0254038000" r="2" />
	<circle cx="0.0000000000" cy="-0.0000000000" r="2" />
	<circle cx="500.0000000000" cy="-866.0254037985" r="2" />
	<circle cx="999.8765935357" cy="-0.0653676179" r="2" />
	<circle cx="500.0008661468" cy="-842.1457936551" r="2" />
	<circle cx="1000.0000000000" cy="-0.0000000000" r="2" />
	<circle cx="500.0000000000" cy="-866.0254038000" r="2" />
	<circle cx="1000.0000000000" cy="-0.0000000000" r="2" />
	<circle cx="500.0000000000" cy="-866.0254038000" r="2" />
	<circle cx="499.9999997061" cy="-866.0240070619" r="2" />
	<circle cx="527.1856509769" cy="-259.4141182065" r="2" />
	<circle cx="500.0001220492" cy="-863.0039896184" r="2" />
	<circle cx="997.7332585178" cy="-1.2550530261" r="2" />
	<circle cx="2.6504657594" cy="-1.8310999068" r="2" />
	<circle cx="499.9994597797" cy="-862.0851503193" r="2" />
	<circle cx="734.9411544344" cy="-289.4822677174" r="2" />
	<circle cx="12.2134293962" cy="-8.3532056223" r="2" />
	<circle cx="499.9999927908" cy="-865.9613084018" r="2" />
	<circle cx="111.1261503083" cy="-40.2527030637" r="2" />
	<circle cx="1000.0000000000" cy="-0.0000000000" r="2" />
	<circle cx="0.0000000000" cy="-0.0000000000" r="2" />
	<circle cx="499.9999999999" cy="-866.0254036155" r="2" />
	<circle cx="0.0000000000" cy="-0.0000000000" r="2" />
	<circle cx="9.1087680414" cy="-11.5825752166" r="2" />
	<circle cx="280.0425901688" cy="-68.0832876608" r="2" />
	<circle cx="1000.0000000000" cy="-0.0000000000" r="2" />
	<circle cx="1000.0000000000" cy="-0.0000000000" r="2" />
	<circle cx="500.0000123420" cy="-865.9935572492" r="2" />
	<circle cx="1000.0000000000" cy="-0.0000000000" r="2" />
	<circle cx="500.0000000000" cy="-866.0254038000" r="2" />
	<circle cx="500.0000000000" cy="-866.0254038000" r="2" />
	<circle cx="0.0000000000" cy="-0.0000000000" r="2" />
	<circle cx="421.4591988586" cy="-204.4395636465" r="2" />
	<circle cx="1000.0000000000" cy="-0.0000000000" r="2" />
	<circle cx="12.9864543802" cy="-6.0712198498" r="2" />
	<circle cx="500.0000000000" cy="-866.0254038000" r="2" />
	<circle cx="454.9660252341" cy="-548.3658135932" r="2" />
	<circle cx="0.0015471076" cy="-0.0026345366" r="2" />
	<circle cx="1000.0000000000" cy="-0.0000000000" r="2" />
	<circle cx="0.0000000000" cy="-0.0000000000" r="2" />
	<circle cx="0.0000000000" cy="-0.0000000000" r="2" />
	<circle cx="0.0000000000" cy="-0.0000000000" r="2" />
	<circle cx="0.1443438144" cy="-0.0821169227" r="2" />
	<circle cx="0.0000000000" cy="-0.0000000000" r="2" />
	<circle cx="0.0000000431" cy="-0.0000000249" r="2" />
	<circle cx="2.3616219856" cy="-1.5543853365" r="2" />
	<circle cx="0.0000000020" cy="-0.0000000012" r="2" />
	<circle cx="1000.0000000000" cy="-0.0000000000" r="2" />
	<circle cx="0.0000000000" cy="-0.0000000000" r="2" />
	<circle cx="996.5322935624" cy="-2.7425031544" r="2" />
	<circle cx="499.9994708406" cy="-866.0152584599" r="2" />
	<circle cx="529.2881974922" cy="-228.4282604493" r="2" />
	<circle cx="162.0919385516" cy="-121.8991519328" r="2" />
	<circle cx="1000.0000000000" cy="-0.0000000000" r="2" />
	<circle cx="1000.0000000000" cy="-0.0000000000" r="2" />
	<circle cx="500.0000000000" cy="-866.0254038000" r="2" />
	<circle cx="1000.0000000000" cy="-0.0000000000" r="2" />
	<circle cx="0.0000000000" cy="-0.0000000000" r="2" />
	<circle cx="500.0000000000" cy="-866.0254038000" r="2" />
	<circle cx="1000.0000000000" cy="-0.0000000000" r="2" />
	<circle cx="424.6792004320" cy="-544.6114592746" r="2" />
	<circle cx="0.0000000000" cy="-0.0000000000" r="2" />
	<circle cx="1000.0000000000" cy="-0.0000000000" r="2" />
	<circle cx="498.8646978547" cy="-822.9953831851" r="2" />
	<circle cx="999.9999999705" cy="-0.0000000170" r="2" />
	<circle cx="0.0000000000" cy="-0.0000000000" r="2" />
	<circle cx="500.0000000000" cy="-866.0254038000" r="2" />
	<circle cx="75.1238967498" cy="-59.9987575913" r="2" />
	<circle cx="499.9999999998" cy="-866.0254026584" r="2" />
	<circle cx="1.8749498985" cy="-1.0853178783" r="2" />
	<circle cx="0.0000000000" cy="-0.0000000000" r="2" />
	<circle cx="0.0000001286" cy="-0.0000000742" r="2" />
	<circle cx="999.9998700315" cy="-0.0000003346" r="2" />
	<circle cx="999.9878415220" cy="-0.0197645725" r="2" />
	<circle cx="0.0004103586" cy="-0.0002647743" r="2" />
	<circle cx="1000.0000000000" cy="-0.0000000000" r="2" />
	<circle cx="0.0000067481" cy="-0.0000038936" r="2" />
	<circle cx="500.0000000000" cy="-866.0254038000" r="2" />
	<circle cx="999.7187935991" cy="-0.1623409087" r="2" />
	<circle cx="0.0000000000" cy="-0.0000000000" r="2" />
	<circle cx="0.0000000000" cy="-0.0000000000" r="2" />
	<circle cx="500.0000000000" cy="-866.0254038000" r="2" />
	<circle cx="0.0609861134" cy="-0.0344739227" r="2" />
	<circle cx="999.9999997571" cy="-0.0000001934" r="2" />
	<circle cx="0.0000000000" cy="-0.0000000000" r="2" />
	<circle cx="1000.0000000000" cy="-0.0000000000" r="2" />
	<circle cx="0.0000000000" cy="-0.0000000000" r="2" />
	<circle cx="140.5253714042" cy="-42.4990565483" r="2" />
	<circle cx="497.2396101427" cy="-848.7522234794" r="2" />
	<circle cx="999.9999360206" cy="-0.0000369759" r="2" />
	<circle cx="1000.0000000000" cy="-0.0000000000" r="2" />
	<circle cx="0.0000000000" cy="-0.0000000000" r="2" />
	<circle cx="500.0000000000" cy="-866.0254038000" r="2" />
	<circle cx="0.0000093751" cy="-0.0000054192" r="2" />
	<circle cx="0.0526425305" cy="-0.0297348852" r="2" />
	<circle cx="500.0000000000" cy="-866.0254038000" r="2" />
	<circle cx="6.7901290511" cy="-3.9199618503" r="2" />
	<circle cx="0.0000000000" cy="-0.0000000000" r="2" />
	<circle cx="0.0000002888" cy="-0.0000001136" r="2" />
	<circle cx="500.0000000000" cy="-866.0254038000" r="2" />
	<circle cx="0.0000000000" cy="-0.0000000000" r="2" />
	<circle cx="0.0000000000" cy="-0.0000000000" r="2" />
	<circle cx="998.3030768810" cy="-0.9329196884" r="2" />
	<circle cx="499.9999083848" cy="-866.0241503220" r="2" />
	<circle cx="500.0000000000" cy="-866.0254038000" r="2" />
	<circle cx="0.0182044149" cy="-0.0105020164" r="2" />
	<circle cx="0.0000000000" cy="-0.0000000000" r="2" />
	<circle cx="500.0121528462" cy="-865.6295353813" r="2" />
	<circle cx="398.1705031369" cy="-124.4488437077" r="2" />
	<circle cx="0.0000000000" cy="-0.0000000000" r="2" />
	<circle cx="500.0000000000" cy="-866.0254038000" r="2" />
	<circle cx="499.9999999988" cy="-866.0253951341" r="2" />
	<circle cx="0.0000000000" cy="-0.0000000000" r="2" />
	<circle cx="500.0010197967" cy="-861.8960249281" r="2" />
	<circle cx="500.0000000000" cy="-866.0254038000" r="2" />
	<circle cx="999.6753757822" cy="-0.0107036582" r="2" />
	<circle cx="0.0000000000" cy="-0.0000000000" r="2" />
	<circle cx="489.7796064207" cy="-772.1008648627" r="2" />
	<circle cx="0.0004718945" cy="-0.0003241166" r="2" />
	<circle cx="2.9692026063" cy="-1.7156586494" r="2" />
	<circle cx="499.9999998719" cy="-866.0244430543" r="2" />
	<circle cx="0.0000000000" cy="-0.0000000000" r="2" />
	<circle cx="500.0000000000" cy="-866.0254038000" r="2" />
	<circle cx="500.0000000000" cy="-866.0254038000" r="2" />
	<circle cx="1000.0000000000" cy="-0.0000000000" r="2" />
	<circle cx="995.8589984087" cy="-0.5060794161" r="2" />
	<circle cx="1000.0000000000" cy="-0.0000000000" r="2" />
	<circle cx="1000.0000000000" cy="-0.0000000000" r="2" />
	<circle cx="0.0000003751" cy="-0.0000002060" r="2" />
	<circle cx="0.0000000000" cy="-0.0000000000" r="2" />
	<circle cx="44.5547589497" cy="-7.4278850564" r="2" />
	<circle cx="1000.0000000000" cy="-0.0000000000" r="2" />
	<circle cx="0.0000000000" cy="-0.0000000000" r="2" />
	<circle cx="0.0000000000" cy="-0.0000000000" r="2" />
	<circle cx="1000.0000000000" cy="-0.0000000000" r="2" />
	<circle cx="639.2393117254" cy="-271.7889046693" r="2" />
	<circle cx="999.9999597182" cy="-0.0000290675" r="2" />
	<circle cx="994.9183250320" cy="-2.7702811304" r="2" />
	<circle cx="500.0000000000" cy="-866.0254038000" r="2" />
	<circle cx="500.0000001724" cy="-866.0254035015" r="2" />
	<circle cx="0.0000000000" cy="-0.0000000000" r="2" />
	<circle cx="1000.0000000000" cy="-0.0000000000" r="2" />
	<circle cx="999.0660893822" cy="-0.5394636678" r="2" />
	<circle cx="1000.0000000000" cy="-0.0000000000" r="2" />
	<circle cx="999.3907973280" cy="-0.4125359698" r="2" />
	<circle cx="500.0000000000" cy="-866.0254038000" r="2" />
	<circle cx="2.8804139294" cy="-0.5492039403" r="2" />
	<circle cx="0.0000683644" cy="-0.0000395467" r="2" />
	<circle cx="499.9999986619" cy="-866.0253752154" r="2" />
	<circle cx="509.5310727225" cy="-842.2907838185" r="2" />
	<circle cx="500.0000355519" cy="-866.0253422077" r="2" />
	<circle cx="1000.0000000000" cy="-0.0000000000" r="2" />
	<circle cx="444.7165990971" cy="-441.8956513020" r="2" />
	<circle cx="1000.0000000000" cy="-0.0000000000" r="2" />
	<circle cx="500.0000000000" cy="-866.0254038000" r="2" />
	<circle cx="994.7777546771" cy="-3.0102272937" r="2" />
	<circle cx="1000.0000000000" cy="-0.0000000000" r="2" />
	<circle cx="0.0000000003" cy="-0.0000000002" r="2" />
	<circle cx="417.3145101019" cy="-200.6813465561" r="2" />
	<circle cx="0.5692393381" cy="-0.2991940288" r="2" />
	<circle cx="982.4163017610" cy="-10.1485898564" r="2" />
	<circle cx="500.0000000000" cy="-866.0254038000" r="2" />
	<circle cx="500.0000000000" cy="-866.0254038000" r="2" />
	<circle cx="500.0000000000" cy="-866.0254038000" r="2" />
	<circle cx="1000.0000000000" cy="-0.0000000000" r="2" />
	<circle cx="4.3107681821" cy="-4.2355912765" r="2" />
	<circle cx="0.0000003752" cy="-0.0000002060" r="2" />
	<circle cx="1000.0000000000" cy="-0.0000000000" r="2" />
	<circle cx="0.0000000000" cy="-0.0000000000" r="2" />
	<circle cx="500.0000000000" cy="-866.0254038000" r="2" />
	<circle cx="499.9857070770" cy="-829.0907270164" r="2" />
	<circle cx="0.0000000000" cy="-0.0000000000" r="2" />
	<circle cx="500.0000334695" cy="-865.8977571426" r="2" />
	<circle cx="987.6441729984" cy="-7.6000952284" r="2" />
	<circle cx="814.6584117381" cy="-106.9769606818" r="2" />
	<circle cx="0.0433908565" cy="-0.0746015521" r="2" />
	<circle cx="483.7008119743" cy="-669.8183463522" r="2" />
	<circle cx="502.3474546965" cy="-830.8463357714" r="2" />
	<circle cx="500.8393665826" cy="-845.1263824304" r="2" />
	<circle cx="0.0000000000" cy="-0.0000000000" r="2" />
	<circle cx="1000.0000000000" cy="-0.0000000000" r="2" />
	<circle cx="1000.0000000000" cy="-0.0000000000" r="2" />
	<circle cx="500.0025821414" cy="-863.8612786648" r="2" />
	<circle cx="0.0000000000" cy="-0.0000000000" r="2" />
	<circle cx="1000.0000000000" cy="-0.0000000000" r="2" />
	<circle cx="500.0000000231" cy="-866.0250266151" r="2" />
	<circle cx="999.9998023898" cy="-0.0001140733" r="2" />
	<circle cx="0.0000000000" cy="-0.0000000000" r="2" />
	<circle cx="500.0000000000" cy="-866.0254038000" r="2" />
	<circle cx="5.7995287175" cy="-3.3464463766" r="2" />
	<circle cx="500.0000000000" cy="-866.0254038000" r="2" />
	<circle cx="0.0000000000" cy="-0.0000000000" r="2" />
	<circle cx="999.9904361024" cy="-0.0045504891" r="2" />
	<circle cx="3.8896359394" cy="-2.2449415686" r="2" />
	<circle cx="0.0000000000" cy="-0.0000000000" r="2" />
	<circle cx="5.4519674323" cy="-0.6760857337" r="2" />
	<circle cx="453.5130288575" cy="-229.6131720538" r="2" />
	<circle cx="500.0000000000" cy="-866.0254038000" r="2" />
	<circle cx="500.0000000000" cy="-866.0254038000" r="2" />
	<circle cx="0.7584218382" cy="-0.4927922920" r="2" />
	<circle cx="870.7029773056" cy="-0.0173338490" r="2" />
	<circle cx="394.2153112801" cy="-421.2168315825" r="2" />
	<circle cx="747.2057828334" cy="-197.9953535227" r="2" />
	<circle cx="0.0951080134" cy="-0.0549399260" r="2" />
	<circle cx="1000.0000000000" cy="-0.0000000000" r="2" />
	<circle cx="500.0000000000" cy="-866.0254038000" r="2" />
	<circle cx="1000.0000000000" cy="-0.0000000000" r="2" />
	<circle cx="0.0000000000" cy="-0.0000000000" r="2" />
	<circle cx="500.0000000000" cy="-866.0254038000" r="2" />
	<circle cx="500.6389716236" cy="-831.2731052395" r="2" />
	<circle cx="12.0372817904" cy="-7.7580980973" r="2" />
	<circle cx="506.3310778796" cy="-671.3957847405" r="2" />
	<circle cx="719.6275464422" cy="-68.0011029929" r="2" />
	<circle cx="999.9628081629" cy="-0.0157315249" r="2" />
	<circle cx="500.0000000000" cy="-866.0254038000" r="2" />
	<circle cx="1000.0000000000" cy="-0.0000000000" r="2" />
	<circle cx="999.9999986798" cy="-0.0000006365" r="2" />
	<circle cx="522.9800810459" cy="-825.5894772289" r="2" />
	<circle cx="999.0454357495" cy="-0.7109023920" r="2" />
	<circle cx="500.0000000000" cy="-866.0254038000" r="2" />
	<circle cx="0.0000000000" cy="-0.0000000000" r="2" />
	<circle cx="1000.0000000000" cy="-0.0000000000" r="2" />
	<circle cx="1000.0000000000" cy="-0.0000000000" r="2" />
	<circle cx="1000.0000000000" cy="-0.0000000000" r="2" />
	<circle cx="711.9552612500" cy="-164.1844699186" r="2" />
	<circle cx="999.9999999997" cy="-0.0000000002" r="2" />
	<circle cx="0.0000000000" cy="-0.0000000000" r="2" />
	<circle cx="499.9999990410" cy="-866.0195071136" r="2" />
	<circle cx="0.0000003763" cy="-0.0000000000" r="2" />
	<circle cx="4.4330530879" cy="-1.9807739063" r="2" />
	<circle cx="500.0000000000" cy="-866.0254038000" r="2" />
	<circle cx="26.5375265087" cy="-15.3172227012" r="2" />
	<circle cx="0.0000000000" cy="-0.0000000000" r="2" />
	<circle cx="500.0000000000" cy="-866.0254038000" r="2" />
	<circle cx="999.9999961972" cy="-0.0000021974" r="2" />
	<circle cx="376.0121765564" cy="-231.2954908005" r="2" />
	<circle cx="0.0000000000" cy="-0.0000000000" r="2" />
	<circle cx="991.9183925986" cy="-4.6643445842" r="2" />
	<circle cx="1000.0000000000" cy="-0.0000000000" r="2" />
	<circle cx="0.0000000000" cy="-0.0000000000" r="2" />
	<circle cx="4.4257814269" cy="-2.5951085062" r="2" />
	<circle cx="999.0656161734" cy="-0.5392588801" r="2" />
	<circle cx="500.0000000000" cy="-866.0254038000" r="2" />
	<circle cx="1000.0000000000" cy="-0.0000000000" r="2" />
	<circle cx="1.5366200375" cy="-0.8869013912" r="2" />
	<circle cx="0.0000000000" cy="-0.0000000000" r="2" />
	<circle cx="1000.0000000000" cy="-0.0000000000" r="2" />
	<circle cx="0.0000000000" cy="-0.0000000000" r="2" />
	<circle cx="0.0000009796" cy="-0.0000005703" r="2" />
	<circle cx="999.9999960821" cy="-0.0000022623" r="2" />
	<circle cx="27.4404695076" cy="-15.5457572677" r="2" />
	<circle cx="500.0000000000" cy="-866.0254038000" r="2" />
	<circle cx="1000.0000000000" cy="-0.0000000000" r="2" />
	<circle cx="500.0000000000" cy="-866.0254038000" r="2" />
	<circle cx="1000.0000000000" cy="-0.0000000000" r="2" />
	<circle cx="0.0000016383" cy="-0.0000009460" r="2" />
	<circle cx="999.9998841959" cy="-0.0000051347" r="2" />
	<circle cx="500.0000000000" cy="-866.0254038000" r="2" />
	<circle cx="500.0000000000" cy="-866.0254038000" r="2" />
	<circle cx="501.9659944773" cy="-857.6174329042" r="2" />
	<circle cx="68.1582040468" cy="-39.9425471016" r="2" />
	<circle cx="500.0000000000" cy="-866.0254038000" r="2" />
	<circle cx="500.0000000000" cy="-866.0254038000" r="2" />
	<circle cx="499.9997443216" cy="-864.7768451342" r="2" />
	<circle cx="502.3576634346" cy="-826.8978085044" r="2" />
	<circle cx="500.0011332383" cy="-865.9119923542" r="2" />
	<circle cx="500.0001358790" cy="-865.8848780701" r="2" />
	<circle cx="3.4459230097" cy="-1.9905994014" r="2" />
	<circle cx="0.0000000000" cy="-0.0000000000" r="2" />
	<circle cx="1000.0000000000" cy="-0.0000000000" r="2" />
	<circle cx="0.0000000000" cy="-0.0000000000" r="2" />
	<circle cx="500.0000000278" cy="-866.0253448291" r="2" />
	<circle cx="500.0000000032" cy="-866.0254036155" r="2" />
	<circle cx="0.0000000000" cy="-0.0000000000" r="2" />
	<circle cx="0.0000490516" cy="-0.0000000052" r="2" />
	<circle cx="1000.0000000000" cy="-0.0000000000" r="2" />
	<circle cx="999.9975545565" cy="-0.0014878479" r="2" />
	<circle cx="499.2934114484" cy="-850.8076318707" r="2" />
	<circle cx="956.7148819830" cy="-24.3939114281" r="2" />
	<circle cx="500.0000000000" cy="-866.0254038000" r="2" />
	<circle cx="256.4155703149" cy="-440.3141577261" r="2" />
	<circle cx="1000.0000000000" cy="-0.0000000000" r="2" />
	<circle cx="500.0000000000" cy="-866.0254038000" r="2" />
	<circle cx="951.9107872912" cy="-23.4129115796" r="2" />
	<circle cx="0.0000000000" cy="-0.0000000000" r="2" />
	<circle cx="990.5963639278" cy="-3.6055341613" r="2" />
	<circle cx="1000.0000000000" cy="-0.0000000000" r="2" />
	<circle cx="0.0000000007" cy="-0.0000000004" r="2" />
	<circle cx="1000.0000000000" cy="-0.0000000000" r="2" />
	<circle cx="1000.0000000000" cy="-0.0000000000" r="2" />
	<circle cx="185.9742946011" cy="-81.1404968997" r="2" />
	<circle cx="500.0000000000" cy="-866.0254038000" r="2" />
	<circle cx="523.9185368286" cy="-474.7973130486" r="2" />
	<circle cx="500.0000000000" cy="-866.0254038000" r="2" />
	<circle cx="1000.0000000000" cy="-0.0000000000" r="2" />
	<circle cx="1000.0000000000" cy="-0.0000000000" r="2" />
	<circle cx="0.0000000000" cy="-0.0000000000" r="2" />
	<circle cx="999.9999864714" cy="-0.0000078130" r="2" />
	<circle cx="0.0000000000" cy="-0.0000000000" r="2" />
	<circle cx="0.0000000105" cy="-0.0000000061" r="2" />
	<circle cx="1000.0000000000" cy="-0.0000000000" r="2" />
	<circle cx="999.8556587567" cy="-0.0821005659" r="2" />
	<circle cx="0.0000000000" cy="-0.0000000000" r="2" />
	<circle cx="999.9999999999" cy="-0.0000000000" r="2" />
	<circle cx="500.0000000000" cy="-866.0254038000" r="2" />
	<circle cx="508.1807818564" cy="-652.5393568672" r="2" />
	<circle cx="877.5839161306" cy="-112.2455783139" r="2" />
	<circle cx="500.0000000000" cy="-866.0254038000" r="2" />
	<circle cx="500.0000000000" cy="-866.0254037812" r="2" />
	<circle cx="0.0000000000" cy="-0.0000000000" r="2" />
	<circle cx="500.0000000000" cy="-866.0254038000" r="2" />
	<circle cx="0.0000000000" cy="-0.0000000000" r="2" />
	<circle cx="1000.0000000000" cy="-0.0000000000" r="2" />
	<circle cx="0.0092919513" cy="-0.0058863352" r="2" />
	<circle cx="500.0000000000" cy="-866.0254038000" r="2" />
	<circle cx="0.0000000000" cy="-0.0000000000" r="2" />
	<circle cx="0.0000000000" cy="-0.0000000000" r="2" />
	<circle cx="500.0000250200" cy="-865.9794966435" r="2" />
	<circle cx="0.0000000000" cy="-0.0000000000" r="2" />
	<circle cx="584.7171050932" cy="-203.6178909334" r="2" />
	<circle cx="999.9999966827" cy="-0.0000022050" r="2" />
	<circle cx="0.0000000000" cy="-0.0000000000" r="2" />
	<circle cx="0.0049888003" cy="-0.0028791299" r="2" />
	<circle cx="0.0000000000" cy="-0.0000000000" r="2" />
	<circle cx="999.9999915904" cy="-0.0000145659" r="2" />
	<circle cx="501.6413494629" cy="-862.0186881270" r="2" />
	<circle cx="0.0000000000" cy="-0.0000000000" r="2" />
	<circle cx="0.0000000000" cy="-0.0000000000" r="2" />
	<circle cx="499.9570947515" cy="-865.9505364372" r="2" />
	<circle cx="500.0000000000" cy="-866.0254038000" r="2" />
	<circle cx="500.0000000000" cy="-866.0254038000" r="2" />
	<circle cx="500.0000000000" cy="-866.0254038000" r="2" />
	<circle cx="1000.0000000000" cy="-0.0000000000" r="2" />
	<circle cx="500.0000000000" cy="-866.0254038000" r="2" />
	<circle cx="994.2680865772" cy="-0.3760556429" r="2" />
	<circle cx="999.9999817031" cy="-0.0000107657" r="2" />
	<circle cx="1000.0000000000" cy="-0.0000000000" r="2" />
	<circle cx="1000.0000000000" cy="-0.0000000000" r="2" />
	<circle cx="0.0000350635" cy="-0.0000202350" r="2" />
	<circle cx="0.0000009833" cy="-0.0000005631" r="2" />
	<circle cx="1000.0000000000" cy="-0.0000000000" r="2" />
	<circle cx="0.0000000000" cy="-0.0000000000" r="2" />
	<circle cx="500.0000000000" cy="-866.0254038000" r="2" />
	<circle cx="999.9555514806" cy="-0.0369589482" r="2" />
	<circle cx="94.5162640341" cy="-24.8195062413" r="2" />
	<circle cx="1000.0000000000" cy="-0.0000000000" r="2" />
	<circle cx="499.9999998334" cy="-866.0019488825" r="2" />
	<circle cx="1000.0000000000" cy="-0.0000000000" r="2" />
	<circle cx="0.0000000000" cy="-0.0000000000" r="2" />
	<circle cx="0.0000000000" cy="-0.0000000000" r="2" />
	<circle cx="500.0000000000" cy="-866.0254038000" r="2" />
	<circle cx="941.5800727064" cy="-94.1642483160" r="2" />
	<circle cx="983.7574330121" cy="-10.1585726544" r="2" />
	<circle cx="0.0000000000" cy="-0.0000000000" r="2" />
	<circle cx="999.9999311494" cy="-0.0000361421" r="2" />
	<circle cx="1000.0000000000" cy="-0.0000000000" r="2" />
	<circle cx="500.0000000000" cy="-866.0254038000" r="2" />
	<circle cx="499.9980232464" cy="-866.0120231831" r="2" />
	<circle cx="0.0000000000" cy="-0.0000000000" r="2" />
	<circle cx="0.0000000000" cy="-0.0000000000" r="2" />
	<circle cx="999.9975774442" cy="-0.0013985544" r="2" />
	<circle cx="0.0002579603" cy="-0.0001489535" r="2" />
	<circle cx="499.9999999990" cy="-866.0254037734" r="2" />
	<circle cx="0.0000000000" cy="-0.0000000000" r="2" />
	<circle cx="1000.0000000000" cy="-0.0000000000" r="2" />
	<circle cx="1000.0000000000" cy="-0.0000000000" r="2" />
	<circle cx="595.0222959474" cy="-591.7044410347" r="2" />
	<circle cx="0.0000264660" cy="-0.0000152789" r="2" />
	<circle cx="0.2095682920" cy="-0.1210583410" r="2" />
	<circle cx="999.9996973609" cy="-0.0001747558" r="2" />
	<circle cx="499.9982749963" cy="-865.6904243005" r="2" />
	<circle cx="500.0000000000" cy="-866.0254038000" r="2" />
	<circle cx="1000.0000000000" cy="-0.0000000000" r="2" />
	<circle cx="0.8135260496" cy="-0.6624275583" r="2" />
	<circle cx="500.0000000000" cy="-866.0254038000" r="2" />
	<circle cx="0.0000000000" cy="-0.0000000000" r="2" />
	<circle cx="0.0000000000" cy="-0.0000000000" r="2" />
	<circle cx="0.0058607885" cy="-0.0033855224" r="2" />
	<circle cx="1000.0000000000" cy="-0.0000000000" r="2" />
	<circle cx="1000.0000000000" cy="-0.0000000000" r="2" />
	<circle cx="500.0000000000" cy="-866.0254038000" r="2" />
	<circle cx="0.0000000000" cy="-0.0000000000" r="2" />
	<circle cx="1000.0000000000" cy="-0.0000000000" r="2" />
	<circle cx="1000.0000000000" cy="-0.0000000000" r="2" />
	<circle cx="500.0000000000" cy="-866.0254038000" r="2" />
	<circle cx="0.0000000000" cy="-0.0000000000" r="2" />
	<circle cx="1000.0000000000" cy="-0.0000000000" r="2" />
	<circle cx="500.0000000000" cy="-866.0254038000" r="2" />
	<circle cx="487.0185593023" cy="-312.0313120264" r="2" />
	<circle cx="1000.0000000000" cy="-0.0000000000" r="2" />
	<circle cx="500.0000000003" cy="-866.0254028646" r="2" />
	<circle cx="500.0000000000" cy="-866.0254035995" r="2" />
	<circle cx="500.0000000000" cy="-866.0254038000" r="2" />
	<circle cx="0.0002334665" cy="-0.0001331931" r="2" />
	<circle cx="1000.0000000000" cy="-0.0000000000" r="2" />
	<circle cx="562.1032808326" cy="-190.7081292725" r="2" />
	<circle cx="0.0000003757" cy="-0.0000002983" r="2" />
	<circle cx="94.5373144060" cy="-24.8279298225" r="2" />
	<circle cx="987.7872703821" cy="-8.3519752064" r="2" />
	<circle cx="999.1535233171" cy="-0.3691679940" r="2" />
	<circle cx="984.0834282814" cy="-9.9497005764" r="2" />
	<circle cx="1000.0000000000" cy="-0.0000000000" r="2" />
	<circle cx="993.2285707554" cy="-3.9123617149" r="2" />
	<circle cx="999.9048961889" cy="-0.0549326466" r="2" />
	<circle cx="999.9999675834" cy="-0.0000170739" r="2" />
	<circle cx="1000.0000000000" cy="-0.0000000000" r="2" />
	<circle cx="500.0000000000" cy="-866.0254038000" r="2" />
	<circle cx="1000.0000000000" cy="-0.0000000000" r="2" />
	<circle cx="500.0000000000" cy="-866.0254038000" r="2" />
	<circle cx="1000.0000000000" cy="-0.0000000000" r="2" />
	<circle cx="500.0000000000" cy="-866.0254038000" r="2" />
	<circle cx="367.3674062493" cy="-192.7493641041" r="2" />
	<circle cx="184.6667704862" cy="-106.5828829228" r="2" />
	<circle cx="500.0000000000" cy="-866.0254038000" r="2" />
	<circle cx="115.2260606331" cy="-1.2338425099" r="2" />
	<circle cx="500.0000000000" cy="-866.0254038000" r="2" />
	<circle cx="999.9933472589" cy="-0.0037855759" r="2" />
	<circle cx="1000.0000000000" cy="-0.0000000000" r="2" />
	<circle cx="1000.0000000000" cy="-0.0000000000" r="2" />
	<circle cx="4.2844215149" cy="-2.4732298358" r="2" />
	<circle cx="499.9999999995" cy="-866.0253972563" r="2" />
	<circle cx="500.0000000000" cy="-866.0254038000" r="2" />
	<circle cx="999.9999755404" cy="-0.0000141236" r="2" />
	<circle cx="0.0000000000" cy="-0.0000000000" r="2" />
	<circle cx="499.9972039222" cy="-857.7809350551" r="2" />
	<circle cx="1000.0000000000" cy="-0.0000000000" r="2" />
	<circle cx="500.0000000000" cy="-866.0254038000" r="2" />
	<circle cx="1000.0000000000" cy="-0.0000000000" r="2" />
	<circle cx="0.0000000000" cy="-0.0000000000" r="2" />
	<circle cx="223.4224542241" cy="-193.9028777329" r="2" />
	<circle cx="0.0000000000" cy="-0.0000000000" r="2" />
	<circle cx="999.9999972091" cy="-0.0000048337" r="2" />
  </g>
  <g id="fig2" transform="translate(-550.0,1000)">
	<polygon points="0.0,-0.0 1000.0,-0.0 500.0,-866.0254038" />
	<line
	   id="line2-1"
	   y2="-0.0"
	   x2="500"
	   y1="-288.6751346"
	   x1="500" />
	<line
	   id="line2-2"
	   y2="-433.0127019"
	   x2="250"
	   y1="-288.6751346"
	   x1="500" />
	<line
	   id="line2-3"
	   y2="-433.0127019"
	   x2="750"
	   y1="-288.6751346"
	   x1="500" />
	<text
	   x="440"
	   y="-500"
	   id="up_2">32.2%</text>
	<text
	   x="250"
	   y="-150"
	   id="down_left_2">33.6%</text>
	<text
	   x="630"
	   y="-150"
	   id="down_right_2">34.2%</text>
  </g>
  <g id="fig3" transform="translate(550,1000)">
	<polygon points="0.0,-0.0 1000.0,-0.0 500.0,-866.0254038" />
	<polygon id="triangle3b" points="250,-144.3375673 750,-144.3375673 500,-577.3502692" />
	<line
	   id="line3-1"
	   x1="125"
	   y1="-216.5063509"
	   x2="250"
	   y2="-144.3375673" />
	<line
	   id="line3-2"
	   x1="375"
	   y1="-649.5190528"
	   x2="500"
	   y2="-577.3502692" />
	<line
	   id="line3-3"
	   x1="625"
	   y1="-649.5190528"
	   x2="500"
	   y2="-577.3502692" />
	<line
	   id="line3-4"
	   x1="875"
	   y1="-216.5063509"
	   x2="750"
	   y2="-144.3375673" />
	<line
	   id="line3-5"
	   x1="750"
	   y1="-0.0"
	   x2="750"
	   y2="-144.3375673" />
	<line
	   id="line3-6"
	   x1="250"
	   y1="-0.0"
	   x2="250"
	   y2="-144.3375673" />
	<text
	   x="500"
	   y="-660"
	   text-anchor="middle"
	   id="up_3">30.0%</text>
	<text
	   y="-50"
	   x="70"
	   id="down_left_3">32.0%</text>
	<text
	   y="-50"
	   x="770"
	   id="down_right_3">32.2%</text>
	<text
	   x="500"
	   y="-50"
	   text-anchor="middle"
	   id="down_side_3">0.8%</text>
	<text
	   x="500"
	   y="-280"
	   text-anchor="middle"
	   id="center_3">3.2%</text>
	<text
	   x="685.0"
	   y="-390.8439"
	   text-anchor="middle"
	   transform="rotate(60,665.0,-380.8439)"
	   id="right_side_3">0.8%</text>
	<text
	   x="315.0"
	   y="-390.8439"
	   text-anchor="middle"
	   transform="rotate(-60,335.0,-380.8439)"
	   id="left_side_3">1.0%</text>
  </g>
</g></g>
</svg>
