<?xml version="1.0" encoding="UTF-8" standalone="no"?>
<!DOCTYPE svg PUBLIC "-//W3C//DTD SVG 1.1//EN" "http://www.w3.org/Graphics/SVG/1.1/DTD/svg11.dtd">
<svg
   xmlns:svg="http://www.w3.org/2000/svg"
   xmlns="http://www.w3.org/2000/svg"
   xmlns:xlink="http://www.w3.org/1999/xlink"
   version="1.1"
   baseProfile="full"
   id="body"
   width="800px"
   height="800px"
   viewBox="0 0 1000 1000"
   preserveAspectRatio="none">
  <defs>
    <style type="text/css"><![CDATA[
      circle{ stroke: none; }
      polygon{ stroke: black; stroke-width: 2px; fill: none; }
      line{ stroke: black; stroke-width: 2px; }
      text{ font-size:50px; }
    ]]></style>
  </defs>
  <title
     id="title1">SVG drawing</title>
<g transform="scale(0.45)"><g transform="translate(600,1050)">
  <g id="fig1">
	<polygon points="0.0,-0.0 1000.0,-0.0 500,-866.0254038" />
	<circle cx="1000.0000000000" cy="-0.0000000000" r="2" />
	<circle cx="1000.0000000000" cy="-0.0000000000" r="2" />
	<circle cx="500.0000000000" cy="-866.0254038000" r="2" />
	<circle cx="0.0000000000" cy="-0.0000000000" r="2" />
	<circle cx="608.6319939428" cy="-225.1187041800" r="2" />
	<circle cx="500.0000000525" cy="-866.0254023115" r="2" />
	<circle cx="0.0000000000" cy="-0.0000000000" r="2" />
	<circle cx="500.1334801628" cy="-302.0857295613" r="2" />
	<circle cx="500.0000000000" cy="-866.0254038000" r="2" />
	<circle cx="1000.0000000000" cy="-0.0000000000" r="2" />
	<circle cx="0.0000000007" cy="-0.0000000004" r="2" />
	<circle cx="500.0000000000" cy="-866.0254038000" r="2" />
	<circle cx="993.2122199065" cy="-2.4647392854" r="2" />
	<circle cx="999.9999995578" cy="-0.0000002819" r="2" />
	<circle cx="508.8815940829" cy="-383.9273382052" r="2" />
	<circle cx="999.9999999989" cy="-0.0000000006" r="2" />
	<circle cx="0.0000000000" cy="-0.0000000000" r="2" />
	<circle cx="0.0000000000" cy="-0.0000000000" r="2" />
	<circle cx="1000.0000000000" cy="-0.0000000000" r="2" />
	<circle cx="500.0000000000" cy="-866.0254038000" r="2" />
	<circle cx="0.0000000000" cy="-0.0000000000" r="2" />
	<circle cx="500.0000000000" cy="-866.0254038000" r="2" />
	<circle cx="999.9999999997" cy="-0.0000000002" r="2" />
	<circle cx="531.8238198079" cy="-270.3418178086" r="2" />
	<circle cx="500.0000000000" cy="-866.0254038000" r="2" />
	<circle cx="1000.0000000000" cy="-0.0000000000" r="2" />
	<circle cx="940.1750576407" cy="-32.5865926009" r="2" />
	<circle cx="277.1153511933" cy="-155.5734821525" r="2" />
	<circle cx="1000.0000000000" cy="-0.0000000000" r="2" />
	<circle cx="70.1901071175" cy="-39.7992676498" r="2" />
	<circle cx="832.5359968947" cy="-60.6970156775" r="2" />
	<circle cx="499.8249468657" cy="-738.3786864413" r="2" />
	<circle cx="69.3722252611" cy="-40.0146169436" r="2" />
	<circle cx="323.0745064507" cy="-177.1900972781" r="2" />
	<circle cx="999.9999993527" cy="-0.0000003739" r="2" />
	<circle cx="964.7864244656" cy="-3.4858711981" r="2" />
	<circle cx="1000.0000000000" cy="-0.0000000000" r="2" />
	<circle cx="500.0000004497" cy="-866.0253487903" r="2" />
	<circle cx="500.0000000000" cy="-866.0254037995" r="2" />
	<circle cx="547.2094114188" cy="-261.3750592031" r="2" />
	<circle cx="997.2624334555" cy="-1.5788676040" r="2" />
	<circle cx="999.9999999913" cy="-0.0000000050" r="2" />
	<circle cx="0.0000000000" cy="-0.0000000000" r="2" />
	<circle cx="500.0000000000" cy="-866.0254038000" r="2" />
	<circle cx="0.1650715705" cy="-0.0985103814" r="2" />
	<circle cx="1000.0000000000" cy="-0.0000000000" r="2" />
	<circle cx="223.5067705911" cy="-146.9794276530" r="2" />
	<circle cx="999.9999999473" cy="-0.0000000304" r="2" />
	<circle cx="500.2299026770" cy="-288.4493479290" r="2" />
	<circle cx="999.9999989347" cy="-0.0000006133" r="2" />
	<circle cx="1000.0000000000" cy="-0.0000000000" r="2" />
	<circle cx="500.0000000000" cy="-866.0254038000" r="2" />
	<circle cx="999.9999999980" cy="-0.0000000012" r="2" />
	<circle cx="506.5485936812" cy="-840.9850819115" r="2" />
	<circle cx="0.0000984269" cy="-0.0000567948" r="2" />
	<circle cx="481.6144766374" cy="-131.3187389348" r="2" />
	<circle cx="999.9990817312" cy="-0.0005304754" r="2" />
	<circle cx="745.1699756851" cy="-64.9461925723" r="2" />
	<circle cx="499.9999999998" cy="-866.0254037883" r="2" />
	<circle cx="0.0000000000" cy="-0.0000000000" r="2" />
	<circle cx="994.2602486986" cy="-3.1261278896" r="2" />
	<circle cx="0.0000000000" cy="-0.0000000000" r="2" />
	<circle cx="0.0000000000" cy="-0.0000000000" r="2" />
	<circle cx="500.0000000005" cy="-866.0253732787" r="2" />
	<circle cx="999.9999945365" cy="-0.0000032582" r="2" />
	<circle cx="500.0271603700" cy="-706.5510351531" r="2" />
	<circle cx="1000.0000000000" cy="-0.0000000000" r="2" />
	<circle cx="534.0853432885" cy="-547.3720445908" r="2" />
	<circle cx="0.0010546060" cy="-0.0006088214" r="2" />
	<circle cx="0.0000004692" cy="-0.0000003445" r="2" />
	<circle cx="0.0000000000" cy="-0.0000000000" r="2" />
	<circle cx="999.9707841859" cy="-0.0155290120" r="2" />
	<circle cx="0.0000000000" cy="-0.0000000000" r="2" />
	<circle cx="500.0702597033" cy="-315.7037556812" r="2" />
	<circle cx="500.0095348950" cy="-476.7336739142" r="2" />
	<circle cx="1000.0000000000" cy="-0.0000000000" r="2" />
	<circle cx="0.0000000000" cy="-0.0000000000" r="2" />
	<circle cx="993.1155652485" cy="-3.7026691221" r="2" />
	<circle cx="0.0000003556" cy="-0.0000002059" r="2" />
	<circle cx="500.0000001639" cy="-866.0253943949" r="2" />
	<circle cx="999.9999989059" cy="-0.0000006319" r="2" />
	<circle cx="388.2778693049" cy="-358.6924374374" r="2" />
	<circle cx="500.0000000000" cy="-866.0254038000" r="2" />
	<circle cx="1000.0000000000" cy="-0.0000000000" r="2" />
	<circle cx="0.0000000000" cy="-0.0000000000" r="2" />
	<circle cx="869.2081616555" cy="-75.5216414135" r="2" />
	<circle cx="0.0000000000" cy="-0.0000000000" r="2" />
	<circle cx="993.3486064604" cy="-4.1153094209" r="2" />
	<circle cx="500.0000000005" cy="-866.0254014907" r="2" />
	<circle cx="918.7333577507" cy="-15.2248415879" r="2" />
	<circle cx="500.0000000000" cy="-866.0254038000" r="2" />
	<circle cx="500.0000000000" cy="-866.0254038000" r="2" />
	<circle cx="500.0000000000" cy="-866.0254038000" r="2" />
	<circle cx="500.0000000000" cy="-866.0254038000" r="2" />
	<circle cx="499.9472080433" cy="-668.7276947080" r="2" />
	<circle cx="18.3292882295" cy="-9.5590859902" r="2" />
	<circle cx="500.1751347764" cy="-738.3738083945" r="2" />
	<circle cx="500.0000000000" cy="-866.0254038000" r="2" />
	<circle cx="500.0000000000" cy="-866.0254038000" r="2" />
	<circle cx="775.5539927293" cy="-123.0301486036" r="2" />
	<circle cx="1000.0000000000" cy="-0.0000000000" r="2" />
	<circle cx="991.5477331592" cy="-5.2584622701" r="2" />
	<circle cx="0.0000000000" cy="-0.0000000000" r="2" />
	<circle cx="500.0000000000" cy="-866.0254037994" r="2" />
	<circle cx="0.0000000000" cy="-0.0000000000" r="2" />
	<circle cx="0.0262373152" cy="-0.0156208479" r="2" />
	<circle cx="500.0000000002" cy="-866.0254034590" r="2" />
	<circle cx="1000.0000000000" cy="-0.0000000000" r="2" />
	<circle cx="999.8879665025" cy="-0.0646884298" r="2" />
	<circle cx="1000.0000000000" cy="-0.0000000000" r="2" />
	<circle cx="307.6115341919" cy="-135.8255206863" r="2" />
	<circle cx="813.9944671232" cy="-91.5696029772" r="2" />
	<circle cx="1.0806438737" cy="-0.6238843884" r="2" />
	<circle cx="500.0000000000" cy="-866.0254038000" r="2" />
	<circle cx="0.0000000000" cy="-0.0000000000" r="2" />
	<circle cx="999.9989706303" cy="-0.0005946933" r="2" />
	<circle cx="510.1527895942" cy="-282.5940970237" r="2" />
	<circle cx="1000.0000000000" cy="-0.0000000000" r="2" />
	<circle cx="1000.0000000000" cy="-0.0000000000" r="2" />
	<circle cx="500.0000000000" cy="-866.0254037994" r="2" />
	<circle cx="500.0714194334" cy="-288.7995309560" r="2" />
	<circle cx="628.4791562107" cy="-199.5385105524" r="2" />
	<circle cx="1000.0000000000" cy="-0.0000000000" r="2" />
	<circle cx="1000.0000000000" cy="-0.0000000000" r="2" />
	<circle cx="0.0000000000" cy="-0.0000000000" r="2" />
	<circle cx="1000.0000000000" cy="-0.0000000000" r="2" />
	<circle cx="0.0000000000" cy="-0.0000000000" r="2" />
	<circle cx="1000.0000000000" cy="-0.0000000000" r="2" />
	<circle cx="398.0447392409" cy="-233.0409466699" r="2" />
	<circle cx="1000.0000000000" cy="-0.0000000000" r="2" />
	<circle cx="1000.0000000000" cy="-0.0000000000" r="2" />
	<circle cx="500.0000000000" cy="-866.0254038000" r="2" />
	<circle cx="1000.0000000000" cy="-0.0000000000" r="2" />
	<circle cx="500.0000000003" cy="-866.0254008303" r="2" />
	<circle cx="0.0002434538" cy="-0.0001407641" r="2" />
	<circle cx="0.0001130036" cy="-0.0000644627" r="2" />
	<circle cx="500.0000000000" cy="-866.0254037998" r="2" />
	<circle cx="0.0000000000" cy="-0.0000000000" r="2" />
	<circle cx="0.0000000000" cy="-0.0000000000" r="2" />
	<circle cx="500.0000000002" cy="-866.0254037976" r="2" />
	<circle cx="500.0000000000" cy="-866.0254038000" r="2" />
	<circle cx="500.0000000000" cy="-866.0254038000" r="2" />
	<circle cx="482.8264728497" cy="-728.2964416522" r="2" />
	<circle cx="0.0001356471" cy="-0.0000782296" r="2" />
	<circle cx="516.2685980206" cy="-779.2396412070" r="2" />
	<circle cx="500.0000000000" cy="-866.0254038000" r="2" />
	<circle cx="500.0000000000" cy="-866.0254038000" r="2" />
	<circle cx="499.9997837860" cy="-865.8312271734" r="2" />
	<circle cx="0.0000000000" cy="-0.0000000000" r="2" />
	<circle cx="0.0000035055" cy="-0.0000020230" r="2" />
	<circle cx="500.0000000000" cy="-866.0254038000" r="2" />
	<circle cx="0.0000000000" cy="-0.0000000000" r="2" />
	<circle cx="500.0000000000" cy="-866.0254038000" r="2" />
	<circle cx="523.3978320172" cy="-744.9217670894" r="2" />
	<circle cx="451.1479318365" cy="-260.5970591469" r="2" />
	<circle cx="1000.0000000000" cy="-0.0000000000" r="2" />
	<circle cx="0.0000000000" cy="-0.0000000000" r="2" />
	<circle cx="500.0000000000" cy="-866.0254038000" r="2" />
	<circle cx="0.0000000001" cy="-0.0000000000" r="2" />
	<circle cx="0.0000000000" cy="-0.0000000000" r="2" />
	<circle cx="1000.0000000000" cy="-0.0000000000" r="2" />
	<circle cx="571.6059350109" cy="-289.3353491832" r="2" />
	<circle cx="499.9999999965" cy="-866.0254037931" r="2" />
	<circle cx="500.0000000000" cy="-866.0254037937" r="2" />
	<circle cx="16.1008828332" cy="-9.6621435996" r="2" />
	<circle cx="999.9999992855" cy="-0.0000004127" r="2" />
	<circle cx="500.0000000000" cy="-866.0254038000" r="2" />
	<circle cx="0.0000000000" cy="-0.0000000000" r="2" />
	<circle cx="0.0000000000" cy="-0.0000000000" r="2" />
	<circle cx="698.8854595123" cy="-176.2476838430" r="2" />
	<circle cx="500.0000000000" cy="-866.0254038000" r="2" />
	<circle cx="999.9999999991" cy="-0.0000000005" r="2" />
	<circle cx="1000.0000000000" cy="-0.0000000000" r="2" />
	<circle cx="0.0000000000" cy="-0.0000000000" r="2" />
	<circle cx="0.0000000000" cy="-0.0000000000" r="2" />
	<circle cx="742.5170704648" cy="-31.1376767619" r="2" />
	<circle cx="1000.0000000000" cy="-0.0000000000" r="2" />
	<circle cx="1000.0000000000" cy="-0.0000000000" r="2" />
	<circle cx="0.0015611772" cy="-0.0009015532" r="2" />
	<circle cx="500.0000000002" cy="-866.0254026761" r="2" />
	<circle cx="499.9999021680" cy="-866.0239754887" r="2" />
	<circle cx="0.0000000001" cy="-0.0000000001" r="2" />
	<circle cx="482.8871331047" cy="-663.9395026959" r="2" />
	<circle cx="500.0000000000" cy="-866.0254037997" r="2" />
	<circle cx="0.0000000000" cy="-0.0000000000" r="2" />
	<circle cx="1000.0000000000" cy="-0.0000000000" r="2" />
	<circle cx="0.0000047245" cy="-0.0000027275" r="2" />
	<circle cx="723.3867126669" cy="-150.9434873282" r="2" />
	<circle cx="620.3594329114" cy="-194.1242299457" r="2" />
	<circle cx="500.0000000000" cy="-866.0254038000" r="2" />
	<circle cx="0.0000000000" cy="-0.0000000000" r="2" />
	<circle cx="500.0000000000" cy="-866.0254038000" r="2" />
	<circle cx="853.6221857106" cy="-109.5521750530" r="2" />
	<circle cx="694.5328096470" cy="-206.7593673214" r="2" />
	<circle cx="1000.0000000000" cy="-0.0000000000" r="2" />
	<circle cx="0.0077371165" cy="-0.0041418644" r="2" />
	<circle cx="500.0000000000" cy="-866.0254038000" r="2" />
	<circle cx="453.7379602452" cy="-302.2882416451" r="2" />
	<circle cx="1000.0000000000" cy="-0.0000000000" r="2" />
	<circle cx="1000.0000000000" cy="-0.0000000000" r="2" />
	<circle cx="0.0000000000" cy="-0.0000000000" r="2" />
	<circle cx="1000.0000000000" cy="-0.0000000000" r="2" />
	<circle cx="0.0000000017" cy="-0.0000000009" r="2" />
	<circle cx="0.0000000000" cy="-0.0000000000" r="2" />
	<circle cx="500.0000000000" cy="-866.0254038000" r="2" />
	<circle cx="1000.0000000000" cy="-0.0000000000" r="2" />
	<circle cx="500.0000000000" cy="-866.0254038000" r="2" />
	<circle cx="0.0005080931" cy="-0.0002930960" r="2" />
	<circle cx="0.0000000000" cy="-0.0000000000" r="2" />
	<circle cx="0.0000001189" cy="-0.0000000687" r="2" />
	<circle cx="500.0000000000" cy="-866.0254038000" r="2" />
	<circle cx="1000.0000000000" cy="-0.0000000000" r="2" />
	<circle cx="0.0188674044" cy="-0.0109066064" r="2" />
	<circle cx="500.0000000000" cy="-866.0254038000" r="2" />
	<circle cx="999.9999999999" cy="-0.0000000001" r="2" />
	<circle cx="967.6094277431" cy="-25.5612779085" r="2" />
	<circle cx="0.0000000000" cy="-0.0000000000" r="2" />
	<circle cx="994.4714411205" cy="-4.6452354109" r="2" />
	<circle cx="983.8847017561" cy="-9.9952282341" r="2" />
	<circle cx="276.6495447040" cy="-150.9850258585" r="2" />
	<circle cx="498.1537810924" cy="-855.6232781994" r="2" />
	<circle cx="1000.0000000000" cy="-0.0000000000" r="2" />
	<circle cx="1000.0000000000" cy="-0.0000000000" r="2" />
	<circle cx="999.9999999993" cy="-0.0000000004" r="2" />
	<circle cx="500.0000000000" cy="-866.0254038000" r="2" />
	<circle cx="369.6825214189" cy="-230.2382099086" r="2" />
	<circle cx="1000.0000000000" cy="-0.0000000000" r="2" />
	<circle cx="0.0000000457" cy="-0.0000000412" r="2" />
	<circle cx="500.0000000000" cy="-866.0254038000" r="2" />
	<circle cx="0.0000000000" cy="-0.0000000000" r="2" />
	<circle cx="499.9999997930" cy="-866.0235935381" r="2" />
	<circle cx="0.0000000000" cy="-0.0000000000" r="2" />
	<circle cx="0.0000019508" cy="-0.0000011263" r="2" />
	<circle cx="991.0657429222" cy="-1.0887636102" r="2" />
	<circle cx="1000.0000000000" cy="-0.0000000000" r="2" />
	<circle cx="499.9759246445" cy="-623.4448442729" r="2" />
	<circle cx="331.0160037300" cy="-180.5212305108" r="2" />
	<circle cx="0.0000000000" cy="-0.0000000000" r="2" />
	<circle cx="499.9992428507" cy="-866.0024105918" r="2" />
	<circle cx="0.0000000000" cy="-0.0000000000" r="2" />
	<circle cx="0.0000000000" cy="-0.0000000000" r="2" />
	<circle cx="500.0000000000" cy="-866.0254038000" r="2" />
	<circle cx="0.0003388158" cy="-0.0001662677" r="2" />
	<circle cx="581.3890766807" cy="-227.7371589506" r="2" />
	<circle cx="748.9175785630" cy="-128.4191669403" r="2" />
	<circle cx="1000.0000000000" cy="-0.0000000000" r="2" />
	<circle cx="500.0000000000" cy="-866.0254037969" r="2" />
	<circle cx="0.0000000000" cy="-0.0000000000" r="2" />
	<circle cx="0.0015611884" cy="-0.0009011808" r="2" />
	<circle cx="0.0000000000" cy="-0.0000000000" r="2" />
	<circle cx="318.7341190431" cy="-300.2173326639" r="2" />
	<circle cx="788.3497406696" cy="-115.8790464891" r="2" />
	<circle cx="500.0000000000" cy="-866.0254037994" r="2" />
	<circle cx="489.3450301146" cy="-814.3012819530" r="2" />
	<circle cx="0.0000000001" cy="-0.0000000001" r="2" />
	<circle cx="0.0011289470" cy="-0.0006514537" r="2" />
	<circle cx="0.0000000000" cy="-0.0000000000" r="2" />
	<circle cx="0.0000000000" cy="-0.0000000000" r="2" />
	<circle cx="0.0000000000" cy="-0.0000000000" r="2" />
	<circle cx="999.9999953795" cy="-0.0000026759" r="2" />
	<circle cx="0.0000702989" cy="-0.0000460200" r="2" />
	<circle cx="1000.0000000000" cy="-0.0000000000" r="2" />
	<circle cx="486.2422305364" cy="-720.2857469867" r="2" />
	<circle cx="500.0000000000" cy="-866.0254038000" r="2" />
	<circle cx="499.9999966355" cy="-866.0253856713" r="2" />
	<circle cx="509.0169327177" cy="-466.5149415622" r="2" />
	<circle cx="500.1443492678" cy="-288.6753122105" r="2" />
	<circle cx="1000.0000000000" cy="-0.0000000000" r="2" />
	<circle cx="1000.0000000000" cy="-0.0000000000" r="2" />
	<circle cx="1000.0000000000" cy="-0.0000000000" r="2" />
	<circle cx="0.0000000000" cy="-0.0000000000" r="2" />
	<circle cx="562.0538908696" cy="-536.9697254892" r="2" />
	<circle cx="481.0801063421" cy="-766.8330395613" r="2" />
	<circle cx="726.9103602465" cy="-188.4353057922" r="2" />
	<circle cx="0.0000000000" cy="-0.0000000000" r="2" />
	<circle cx="499.9999999766" cy="-866.0247420341" r="2" />
	<circle cx="500.0000000000" cy="-866.0254038000" r="2" />
	<circle cx="500.0000000000" cy="-866.0254038000" r="2" />
	<circle cx="0.0474463896" cy="-0.0273727452" r="2" />
	<circle cx="500.0000000000" cy="-866.0254038000" r="2" />
	<circle cx="500.0000000000" cy="-866.0254038000" r="2" />
	<circle cx="37.0572267636" cy="-15.7302795025" r="2" />
	<circle cx="500.0000000000" cy="-866.0254038000" r="2" />
	<circle cx="541.5140952114" cy="-264.7737140495" r="2" />
	<circle cx="1000.0000000000" cy="-0.0000000000" r="2" />
	<circle cx="726.6759385063" cy="-157.6540320237" r="2" />
	<circle cx="999.9999999953" cy="-0.0000000027" r="2" />
	<circle cx="196.3253894096" cy="-102.9081346169" r="2" />
	<circle cx="500.0000000013" cy="-866.0254032685" r="2" />
	<circle cx="500.0000000000" cy="-866.0254033373" r="2" />
	<circle cx="500.0000000000" cy="-866.0254037999" r="2" />
	<circle cx="0.0000000000" cy="-0.0000000000" r="2" />
	<circle cx="1000.0000000000" cy="-0.0000000000" r="2" />
	<circle cx="999.9988713372" cy="-0.0006519668" r="2" />
	<circle cx="1000.0000000000" cy="-0.0000000000" r="2" />
	<circle cx="3.9404432728" cy="-3.9696490815" r="2" />
	<circle cx="500.0000000000" cy="-866.0254037907" r="2" />
	<circle cx="1000.0000000000" cy="-0.0000000000" r="2" />
	<circle cx="0.0000000126" cy="-0.0000000079" r="2" />
	<circle cx="1000.0000000000" cy="-0.0000000000" r="2" />
	<circle cx="500.0000000000" cy="-866.0254037777" r="2" />
	<circle cx="508.6339072484" cy="-833.7864383119" r="2" />
	<circle cx="999.9999990371" cy="-0.0000005653" r="2" />
	<circle cx="500.0000000000" cy="-866.0254038000" r="2" />
	<circle cx="552.5087314896" cy="-720.4784865289" r="2" />
	<circle cx="0.0000000000" cy="-0.0000000000" r="2" />
	<circle cx="1000.0000000000" cy="-0.0000000000" r="2" />
	<circle cx="500.0000000000" cy="-866.0254038000" r="2" />
	<circle cx="500.0000000000" cy="-866.0254038000" r="2" />
	<circle cx="999.9999999648" cy="-0.0000000203" r="2" />
	<circle cx="1000.0000000000" cy="-0.0000000000" r="2" />
	<circle cx="771.0192564717" cy="-101.1571764476" r="2" />
	<circle cx="0.2883053114" cy="-0.1599463845" r="2" />
	<circle cx="923.9020070671" cy="-43.9481197664" r="2" />
	<circle cx="0.0000000001" cy="-0.0000000000" r="2" />
	<circle cx="0.0005942447" cy="-0.0003838915" r="2" />
	<circle cx="981.4955850141" cy="-23.4878234894" r="2" />
	<circle cx="180.8913424689" cy="-95.9823837988" r="2" />
	<circle cx="500.0000008736" cy="-866.0253664863" r="2" />
	<circle cx="259.0137349363" cy="-188.8196442403" r="2" />
	<circle cx="500.0000000001" cy="-866.0254037986" r="2" />
	<circle cx="500.2309454511" cy="-327.0297659212" r="2" />
	<circle cx="500.0000000001" cy="-866.0253975210" r="2" />
	<circle cx="500.0000000094" cy="-866.0254037817" r="2" />
	<circle cx="999.9891089042" cy="-0.0063069834" r="2" />
	<circle cx="500.0000000000" cy="-866.0254035984" r="2" />
	<circle cx="0.0000000000" cy="-0.0000000000" r="2" />
	<circle cx="502.5931661096" cy="-440.1547341294" r="2" />
	<circle cx="1000.0000000000" cy="-0.0000000000" r="2" />
	<circle cx="0.0000000000" cy="-0.0000000000" r="2" />
	<circle cx="0.0000000000" cy="-0.0000000000" r="2" />
	<circle cx="1000.0000000000" cy="-0.0000000000" r="2" />
	<circle cx="0.0000151146" cy="-0.0000087253" r="2" />
	<circle cx="500.0000000000" cy="-866.0254038000" r="2" />
	<circle cx="1000.0000000000" cy="-0.0000000000" r="2" />
	<circle cx="540.6234098600" cy="-265.1100528312" r="2" />
	<circle cx="500.0000254168" cy="-866.0250272778" r="2" />
	<circle cx="1000.0000000000" cy="-0.0000000000" r="2" />
	<circle cx="0.0000000000" cy="-0.0000000000" r="2" />
	<circle cx="1000.0000000000" cy="-0.0000000000" r="2" />
	<circle cx="0.0000000000" cy="-0.0000000000" r="2" />
	<circle cx="1000.0000000000" cy="-0.0000000000" r="2" />
	<circle cx="999.9999865316" cy="-0.0000041712" r="2" />
	<circle cx="500.0000000000" cy="-866.0254028829" r="2" />
	<circle cx="1000.0000000000" cy="-0.0000000000" r="2" />
	<circle cx="933.3411276077" cy="-4.7771148657" r="2" />
	<circle cx="0.0000000000" cy="-0.0000000000" r="2" />
	<circle cx="499.9999988816" cy="-866.0254010311" r="2" />
	<circle cx="0.0000000000" cy="-0.0000000000" r="2" />
	<circle cx="1000.0000000000" cy="-0.0000000000" r="2" />
	<circle cx="499.9999999768" cy="-866.0254027387" r="2" />
	<circle cx="0.0000000000" cy="-0.0000000000" r="2" />
	<circle cx="999.9999999872" cy="-0.0000000074" r="2" />
	<circle cx="0.4913958846" cy="-0.0575851049" r="2" />
	<circle cx="999.9992121808" cy="-0.0004545227" r="2" />
	<circle cx="38.9613488775" cy="-22.4790224709" r="2" />
	<circle cx="11.6726344920" cy="-6.7362771155" r="2" />
	<circle cx="500.0000000000" cy="-866.0254038000" r="2" />
	<circle cx="500.0000000000" cy="-866.0254037899" r="2" />
	<circle cx="500.7857804766" cy="-288.0831732318" r="2" />
	<circle cx="0.0000000000" cy="-0.0000000000" r="2" />
	<circle cx="999.9999686606" cy="-0.0000312936" r="2" />
	<circle cx="0.0004894963" cy="-0.0002827332" r="2" />
	<circle cx="505.6723706957" cy="-802.0712023452" r="2" />
	<circle cx="0.0000000000" cy="-0.0000000000" r="2" />
	<circle cx="516.9368036244" cy="-428.9627923321" r="2" />
	<circle cx="0.0000000000" cy="-0.0000000000" r="2" />
	<circle cx="500.0000000000" cy="-866.0254038000" r="2" />
	<circle cx="500.0000000000" cy="-866.0254038000" r="2" />
	<circle cx="517.0133077521" cy="-777.3383773437" r="2" />
	<circle cx="0.0505653398" cy="-0.0294407528" r="2" />
	<circle cx="53.1707092405" cy="-17.5677771421" r="2" />
	<circle cx="475.1888107160" cy="-289.5248496502" r="2" />
	<circle cx="499.9999977465" cy="-866.0181757010" r="2" />
	<circle cx="500.0000000000" cy="-866.0254038000" r="2" />
	<circle cx="1000.0000000000" cy="-0.0000000000" r="2" />
	<circle cx="426.3811094870" cy="-385.8054297562" r="2" />
	<circle cx="184.6570893347" cy="-112.4168396732" r="2" />
	<circle cx="801.8204216119" cy="-101.8822473165" r="2" />
	<circle cx="1000.0000000000" cy="-0.0000000000" r="2" />
	<circle cx="500.0000000000" cy="-866.0254038000" r="2" />
	<circle cx="488.9110763287" cy="-838.2566535800" r="2" />
	<circle cx="0.0344100973" cy="-0.0198579649" r="2" />
	<circle cx="1000.0000000000" cy="-0.0000000000" r="2" />
	<circle cx="867.7536027041" cy="-76.3754530530" r="2" />
	<circle cx="0.0000000000" cy="-0.0000000000" r="2" />
	<circle cx="500.2393044196" cy="-288.5292516731" r="2" />
	<circle cx="999.9999778146" cy="-0.0000128080" r="2" />
	<circle cx="0.0000000010" cy="-0.0000000006" r="2" />
	<circle cx="426.3811094870" cy="-385.8054297562" r="2" />
	<circle cx="0.0000000000" cy="-0.0000000000" r="2" />
	<circle cx="0.0000000000" cy="-0.0000000000" r="2" />
	<circle cx="500.0000000000" cy="-866.0254038000" r="2" />
	<circle cx="746.0947276736" cy="-217.9632532211" r="2" />
	<circle cx="0.0000003667" cy="-0.0000001673" r="2" />
	<circle cx="807.8507461784" cy="-200.5762683346" r="2" />
	<circle cx="1000.0000000000" cy="-0.0000000000" r="2" />
	<circle cx="500.0997681700" cy="-502.8290206089" r="2" />
	<circle cx="500.0000168567" cy="-866.0244653084" r="2" />
	<circle cx="0.0000000000" cy="-0.0000000000" r="2" />
	<circle cx="991.5141452472" cy="-4.5110134672" r="2" />
	<circle cx="327.6253615177" cy="-172.0410665306" r="2" />
	<circle cx="0.0000000000" cy="-0.0000000000" r="2" />
	<circle cx="1000.0000000000" cy="-0.0000000000" r="2" />
	<circle cx="506.8062994147" cy="-287.8046176495" r="2" />
	<circle cx="853.8893503981" cy="-49.5615646821" r="2" />
	<circle cx="500.0000000000" cy="-866.0254038000" r="2" />
	<circle cx="311.6713037413" cy="-419.4914649331" r="2" />
	<circle cx="0.0000000000" cy="-0.0000000000" r="2" />
	<circle cx="500.0000000000" cy="-866.0254038000" r="2" />
	<circle cx="500.0554674589" cy="-459.0138415801" r="2" />
	<circle cx="831.8275187814" cy="-119.9186228936" r="2" />
	<circle cx="500.0000000000" cy="-866.0254038000" r="2" />
	<circle cx="53.5299607762" cy="-18.4215893111" r="2" />
	<circle cx="0.0000000000" cy="-0.0000000000" r="2" />
	<circle cx="0.0000000000" cy="-0.0000000000" r="2" />
	<circle cx="0.0000000000" cy="-0.0000000000" r="2" />
	<circle cx="1000.0000000000" cy="-0.0000000000" r="2" />
	<circle cx="498.7906475703" cy="-857.2949318564" r="2" />
	<circle cx="0.0000000000" cy="-0.0000000000" r="2" />
	<circle cx="499.9999999481" cy="-866.0254032116" r="2" />
	<circle cx="999.9999999726" cy="-0.0000000158" r="2" />
	<circle cx="0.0000000000" cy="-0.0000000000" r="2" />
	<circle cx="0.0000000002" cy="-0.0000000001" r="2" />
	<circle cx="485.7226380905" cy="-753.6052111085" r="2" />
	<circle cx="999.9999990796" cy="-0.0000005312" r="2" />
	<circle cx="999.9999999973" cy="-0.0000000015" r="2" />
	<circle cx="999.3844133432" cy="-0.1439846771" r="2" />
	<circle cx="3.9736652952" cy="-2.7502728044" r="2" />
	<circle cx="500.0000000000" cy="-866.0254038000" r="2" />
	<circle cx="971.0746648462" cy="-24.7966480771" r="2" />
	<circle cx="999.9999999981" cy="-0.0000000011" r="2" />
	<circle cx="0.0000000003" cy="-0.0000000001" r="2" />
	<circle cx="0.0000000000" cy="-0.0000000000" r="2" />
	<circle cx="500.0000000000" cy="-866.0254038000" r="2" />
	<circle cx="0.0000000001" cy="-0.0000000000" r="2" />
	<circle cx="500.0000000000" cy="-866.0254038000" r="2" />
	<circle cx="1000.0000000000" cy="-0.0000000000" r="2" />
	<circle cx="499.9999338886" cy="-866.0207041201" r="2" />
	<circle cx="0.0000000000" cy="-0.0000000000" r="2" />
	<circle cx="500.6569781709" cy="-856.2721492826" r="2" />
	<circle cx="0.3881283228" cy="-0.2351180444" r="2" />
	<circle cx="259.7207385247" cy="-154.8803098153" r="2" />
	<circle cx="500.0000000359" cy="-866.0251536835" r="2" />
	<circle cx="500.6832268655" cy="-698.4226031117" r="2" />
	<circle cx="6.6044824645" cy="-4.4218573211" r="2" />
	<circle cx="0.0000000000" cy="-0.0000000000" r="2" />
	<circle cx="500.0000000003" cy="-866.0254027647" r="2" />
	<circle cx="1000.0000000000" cy="-0.0000000000" r="2" />
	<circle cx="1000.0000000000" cy="-0.0000000000" r="2" />
	<circle cx="144.8088920403" cy="-84.3936164626" r="2" />
	<circle cx="0.0000000000" cy="-0.0000000000" r="2" />
	<circle cx="642.2507517522" cy="-269.6343964461" r="2" />
	<circle cx="500.0000000000" cy="-866.0254038000" r="2" />
	<circle cx="500.0000000000" cy="-866.0254038000" r="2" />
	<circle cx="999.9991253404" cy="-0.0006116704" r="2" />
	<circle cx="1000.0000000000" cy="-0.0000000000" r="2" />
	<circle cx="999.9811230484" cy="-0.0108831646" r="2" />
	<circle cx="999.9993025112" cy="-0.0004027809" r="2" />
	<circle cx="1000.0000000000" cy="-0.0000000000" r="2" />
	<circle cx="277.0856372157" cy="-155.5288228149" r="2" />
	<circle cx="1000.0000000000" cy="-0.0000000000" r="2" />
	<circle cx="500.0000000000" cy="-866.0254038000" r="2" />
	<circle cx="3.7737017633" cy="-2.6300395142" r="2" />
	<circle cx="824.3192953249" cy="-100.0499423694" r="2" />
	<circle cx="500.0000000000" cy="-866.0254038000" r="2" />
	<circle cx="552.4381690692" cy="-720.6069526365" r="2" />
	<circle cx="0.0000000000" cy="-0.0000000000" r="2" />
	<circle cx="0.0000000000" cy="-0.0000000000" r="2" />
	<circle cx="869.2912258286" cy="-75.5077239829" r="2" />
	<circle cx="486.9924043916" cy="-385.3121200741" r="2" />
	<circle cx="0.0000000002" cy="-0.0000000001" r="2" />
	<circle cx="1000.0000000000" cy="-0.0000000000" r="2" />
	<circle cx="500.0000000000" cy="-866.0254038000" r="2" />
	<circle cx="420.7398860537" cy="-276.3476983101" r="2" />
	<circle cx="1000.0000000000" cy="-0.0000000000" r="2" />
	<circle cx="500.0433796367" cy="-859.5933706769" r="2" />
	<circle cx="996.7560845865" cy="-1.8736534060" r="2" />
	<circle cx="499.9999999466" cy="-866.0254023096" r="2" />
	<circle cx="0.0000000186" cy="-0.0000000108" r="2" />
	<circle cx="1000.0000000000" cy="-0.0000000000" r="2" />
	<circle cx="0.0000000000" cy="-0.0000000000" r="2" />
	<circle cx="0.7081243689" cy="-0.4083757495" r="2" />
	<circle cx="0.0000000000" cy="-0.0000000000" r="2" />
	<circle cx="1000.0000000000" cy="-0.0000000000" r="2" />
	<circle cx="825.4860935788" cy="-102.2109691075" r="2" />
	<circle cx="0.0000000000" cy="-0.0000000000" r="2" />
	<circle cx="500.0000000000" cy="-866.0254037956" r="2" />
	<circle cx="1000.0000000000" cy="-0.0000000000" r="2" />
	<circle cx="500.0000000000" cy="-866.0254038000" r="2" />
	<circle cx="999.9999987194" cy="-0.0000007397" r="2" />
	<circle cx="0.0000000000" cy="-0.0000000000" r="2" />
	<circle cx="500.0000000000" cy="-866.0254038000" r="2" />
	<circle cx="262.7378571385" cy="-243.6241890014" r="2" />
	<circle cx="0.0000000000" cy="-0.0000000000" r="2" />
	<circle cx="500.0000000000" cy="-866.0254038000" r="2" />
	<circle cx="0.0000000002" cy="-0.0000000001" r="2" />
	<circle cx="1000.0000000000" cy="-0.0000000000" r="2" />
	<circle cx="0.0000000000" cy="-0.0000000000" r="2" />
	<circle cx="0.0000000000" cy="-0.0000000000" r="2" />
  </g>
  <g id="fig2" transform="translate(-550.0,1000)">
	<polygon points="0.0,-0.0 1000.0,-0.0 500.0,-866.0254038" />
	<line
	   id="line2-1"
	   y2="-0.0"
	   x2="500"
	   y1="-288.6751346"
	   x1="500" />
	<line
	   id="line2-2"
	   y2="-433.0127019"
	   x2="250"
	   y1="-288.6751346"
	   x1="500" />
	<line
	   id="line2-3"
	   y2="-433.0127019"
	   x2="750"
	   y1="-288.6751346"
	   x1="500" />
	<text
	   x="440"
	   y="-500"
	   id="up_2">31.4%</text>
	<text
	   x="250"
	   y="-150"
	   id="down_left_2">33.6%</text>
	<text
	   x="630"
	   y="-150"
	   id="down_right_2">35.0%</text>
  </g>
  <g id="fig3" transform="translate(550,1000)">
	<polygon points="0.0,-0.0 1000.0,-0.0 500.0,-866.0254038" />
	<polygon id="triangle3b" points="250,-144.3375673 750,-144.3375673 500,-577.3502692" />
	<line
	   id="line3-1"
	   x1="125"
	   y1="-216.5063509"
	   x2="250"
	   y2="-144.3375673" />
	<line
	   id="line3-2"
	   x1="375"
	   y1="-649.5190528"
	   x2="500"
	   y2="-577.3502692" />
	<line
	   id="line3-3"
	   x1="625"
	   y1="-649.5190528"
	   x2="500"
	   y2="-577.3502692" />
	<line
	   id="line3-4"
	   x1="875"
	   y1="-216.5063509"
	   x2="750"
	   y2="-144.3375673" />
	<line
	   id="line3-5"
	   x1="750"
	   y1="-0.0"
	   x2="750"
	   y2="-144.3375673" />
	<line
	   id="line3-6"
	   x1="250"
	   y1="-0.0"
	   x2="250"
	   y2="-144.3375673" />
	<text
	   x="500"
	   y="-660"
	   text-anchor="middle"
	   id="up_3">27.8%</text>
	<text
	   y="-50"
	   x="70"
	   id="down_left_3">30.0%</text>
	<text
	   y="-50"
	   x="770"
	   id="down_right_3">29.8%</text>
	<text
	   x="500"
	   y="-50"
	   text-anchor="middle"
	   id="down_side_3">1.0%</text>
	<text
	   x="500"
	   y="-280"
	   text-anchor="middle"
	   id="center_3">9.6%</text>
	<text
	   x="685.0"
	   y="-390.8439"
	   text-anchor="middle"
	   transform="rotate(60,665.0,-380.8439)"
	   id="right_side_3">1.0%</text>
	<text
	   x="315.0"
	   y="-390.8439"
	   text-anchor="middle"
	   transform="rotate(-60,335.0,-380.8439)"
	   id="left_side_3">0.8%</text>
  </g>
</g></g>
</svg>
