<?xml version="1.0" encoding="UTF-8" standalone="no"?>
<!DOCTYPE svg PUBLIC "-//W3C//DTD SVG 1.1//EN" "http://www.w3.org/Graphics/SVG/1.1/DTD/svg11.dtd">
<svg
   xmlns:svg="http://www.w3.org/2000/svg"
   xmlns="http://www.w3.org/2000/svg"
   xmlns:xlink="http://www.w3.org/1999/xlink"
   version="1.1"
   baseProfile="full"
   id="body"
   width="800px"
   height="800px"
   viewBox="0 0 1000 1000"
   preserveAspectRatio="none">
  <defs>
    <style type="text/css"><![CDATA[
      circle{ stroke: none; }
      polygon{ stroke: black; stroke-width: 2px; fill: none; }
      line{ stroke: black; stroke-width: 2px; }
      text{ font-size:50px; }
    ]]></style>
  </defs>
  <title
     id="title1">SVG drawing</title>
<g transform="scale(0.45)"><g transform="translate(600,1050)">
  <g id="fig1">
	<polygon points="0.0,-0.0 1000.0,-0.0 500,-866.0254038" />
	<circle cx="0.7159747218" cy="-0.4133981355" r="2" />
	<circle cx="500.0000000308" cy="-866.0239200296" r="2" />
	<circle cx="500.0000000000" cy="-866.0254038000" r="2" />
	<circle cx="999.9996795146" cy="-0.0001856158" r="2" />
	<circle cx="0.0000000693" cy="-0.0000000400" r="2" />
	<circle cx="844.2774812498" cy="-89.8910040269" r="2" />
	<circle cx="372.0378364326" cy="-210.6721671303" r="2" />
	<circle cx="517.8159154870" cy="-311.8944208333" r="2" />
	<circle cx="925.2585364850" cy="-43.1509167194" r="2" />
	<circle cx="0.0000000032" cy="-0.0000000018" r="2" />
	<circle cx="500.0000000000" cy="-866.0254038000" r="2" />
	<circle cx="993.5415576360" cy="-3.7286003394" r="2" />
	<circle cx="500.0000000000" cy="-866.0254038000" r="2" />
	<circle cx="999.9999999764" cy="-0.0000000136" r="2" />
	<circle cx="500.6776267812" cy="-842.1736869824" r="2" />
	<circle cx="999.6984590187" cy="-0.1741022623" r="2" />
	<circle cx="500.0000000000" cy="-866.0254038000" r="2" />
	<circle cx="500.0000000000" cy="-866.0254037999" r="2" />
	<circle cx="999.9708275469" cy="-0.0168431307" r="2" />
	<circle cx="0.0000000026" cy="-0.0000000016" r="2" />
	<circle cx="901.3635518730" cy="-48.2686287302" r="2" />
	<circle cx="0.1456406084" cy="-0.0840897944" r="2" />
	<circle cx="0.0000000000" cy="-0.0000000000" r="2" />
	<circle cx="500.0012450982" cy="-738.6288145514" r="2" />
	<circle cx="500.0000069446" cy="-865.7926118190" r="2" />
	<circle cx="0.0000000000" cy="-0.0000000000" r="2" />
	<circle cx="721.2597879849" cy="-160.9344218970" r="2" />
	<circle cx="0.0000000003" cy="-0.0000000002" r="2" />
	<circle cx="999.9999999996" cy="-0.0000000002" r="2" />
	<circle cx="499.9999917668" cy="-865.8955025693" r="2" />
	<circle cx="500.0000066167" cy="-865.7691790746" r="2" />
	<circle cx="999.9999967866" cy="-0.0000018553" r="2" />
	<circle cx="500.0000625926" cy="-860.8318905329" r="2" />
	<circle cx="0.0000000000" cy="-0.0000000000" r="2" />
	<circle cx="0.0000000077" cy="-0.0000000044" r="2" />
	<circle cx="0.0000255596" cy="-0.0000147561" r="2" />
	<circle cx="1000.0000000000" cy="-0.0000000000" r="2" />
	<circle cx="999.9762862961" cy="-0.0136992937" r="2" />
	<circle cx="999.9742566550" cy="-0.0148584928" r="2" />
	<circle cx="535.0576477639" cy="-225.8787095876" r="2" />
	<circle cx="497.4475596331" cy="-836.1087946094" r="2" />
	<circle cx="999.9999999998" cy="-0.0000000001" r="2" />
	<circle cx="0.0000000000" cy="-0.0000000000" r="2" />
	<circle cx="360.2192092229" cy="-207.9402838354" r="2" />
	<circle cx="298.3393166488" cy="-185.2241396298" r="2" />
	<circle cx="1000.0000000000" cy="-0.0000000000" r="2" />
	<circle cx="1000.0000000000" cy="-0.0000000000" r="2" />
	<circle cx="999.9999999967" cy="-0.0000000019" r="2" />
	<circle cx="992.7844625672" cy="-4.7232142792" r="2" />
	<circle cx="500.0000000000" cy="-866.0254037870" r="2" />
	<circle cx="500.0000000000" cy="-866.0254038000" r="2" />
	<circle cx="0.0000000000" cy="-0.0000000000" r="2" />
	<circle cx="999.9999999997" cy="-0.0000000002" r="2" />
	<circle cx="988.6934292267" cy="-6.5277406859" r="2" />
	<circle cx="499.9344239570" cy="-396.4637388171" r="2" />
	<circle cx="492.2269595794" cy="-284.1625090460" r="2" />
	<circle cx="499.9999999999" cy="-866.0254033253" r="2" />
	<circle cx="500.0000000000" cy="-866.0254038000" r="2" />
	<circle cx="18.0142501945" cy="-10.4000715830" r="2" />
	<circle cx="499.9995993232" cy="-861.1732182038" r="2" />
	<circle cx="457.4125306148" cy="-264.0026991122" r="2" />
	<circle cx="999.9999999618" cy="-0.0000000221" r="2" />
	<circle cx="654.4493182388" cy="-191.8094928071" r="2" />
	<circle cx="499.3825235261" cy="-286.6563148557" r="2" />
	<circle cx="658.6870203078" cy="-184.7057875090" r="2" />
	<circle cx="499.9969817885" cy="-852.3491871356" r="2" />
	<circle cx="1000.0000000000" cy="-0.0000000000" r="2" />
	<circle cx="0.0000000000" cy="-0.0000000000" r="2" />
	<circle cx="1000.0000000000" cy="-0.0000000000" r="2" />
	<circle cx="999.9999999973" cy="-0.0000000016" r="2" />
	<circle cx="993.8245206591" cy="-3.5591203805" r="2" />
	<circle cx="500.0000000000" cy="-866.0254037874" r="2" />
	<circle cx="999.9893830649" cy="-0.0061288156" r="2" />
	<circle cx="500.0031836351" cy="-726.3201088689" r="2" />
	<circle cx="0.0000000000" cy="-0.0000000000" r="2" />
	<circle cx="499.9998560295" cy="-862.8401878065" r="2" />
	<circle cx="0.0000002074" cy="-0.0000001197" r="2" />
	<circle cx="0.0000000332" cy="-0.0000000191" r="2" />
	<circle cx="31.7733588138" cy="-18.3444625698" r="2" />
	<circle cx="997.1294463268" cy="-1.6574860818" r="2" />
	<circle cx="999.7947826536" cy="-0.1184715498" r="2" />
	<circle cx="533.6616739554" cy="-271.5399149748" r="2" />
	<circle cx="1.1418279365" cy="-0.6592143977" r="2" />
	<circle cx="1000.0000000000" cy="-0.0000000000" r="2" />
	<circle cx="999.9974715927" cy="-0.0014597744" r="2" />
	<circle cx="499.9620039398" cy="-546.3370356844" r="2" />
	<circle cx="916.4142407683" cy="-47.0776681042" r="2" />
	<circle cx="499.9999995215" cy="-866.0167074764" r="2" />
	<circle cx="999.9999999423" cy="-0.0000000333" r="2" />
	<circle cx="23.2877810947" cy="-13.4436814589" r="2" />
	<circle cx="499.7113858094" cy="-669.0213715994" r="2" />
	<circle cx="500.0001866964" cy="-856.4333762398" r="2" />
	<circle cx="484.2532019420" cy="-279.5608266166" r="2" />
	<circle cx="999.9999999925" cy="-0.0000000043" r="2" />
	<circle cx="500.0000000001" cy="-866.0253981863" r="2" />
	<circle cx="67.5311487988" cy="-13.1680172405" r="2" />
	<circle cx="500.0000000000" cy="-866.0254038000" r="2" />
	<circle cx="500.0000000000" cy="-866.0254038000" r="2" />
	<circle cx="500.0000000000" cy="-866.0254037114" r="2" />
	<circle cx="499.9918868782" cy="-865.2692139526" r="2" />
	<circle cx="1000.0000000000" cy="-0.0000000000" r="2" />
	<circle cx="500.0000000000" cy="-866.0254038000" r="2" />
	<circle cx="554.8961396461" cy="-256.9247722679" r="2" />
	<circle cx="997.1651172716" cy="-1.6353222995" r="2" />
	<circle cx="1000.0000000000" cy="-0.0000000000" r="2" />
	<circle cx="500.0000000000" cy="-866.0254038000" r="2" />
	<circle cx="984.9249209193" cy="-10.3875289823" r="2" />
	<circle cx="0.0000000000" cy="-0.0000000000" r="2" />
	<circle cx="0.0000407761" cy="-0.0000235434" r="2" />
	<circle cx="0.0000000000" cy="-0.0000000000" r="2" />
	<circle cx="930.2601174063" cy="-40.2824845307" r="2" />
	<circle cx="0.0000000000" cy="-0.0000000000" r="2" />
	<circle cx="995.7932569702" cy="-2.4291820157" r="2" />
	<circle cx="500.0000000000" cy="-866.0254037986" r="2" />
	<circle cx="500.0005211729" cy="-819.1418992064" r="2" />
	<circle cx="500.0041097345" cy="-661.9451619258" r="2" />
	<circle cx="1000.0000000000" cy="-0.0000000000" r="2" />
	<circle cx="961.9768348851" cy="-21.9497435005" r="2" />
	<circle cx="1000.0000000000" cy="-0.0000000000" r="2" />
	<circle cx="499.9999999969" cy="-866.0253893790" r="2" />
	<circle cx="0.0007968297" cy="-0.0004600316" r="2" />
	<circle cx="519.9615331912" cy="-378.5157806800" r="2" />
	<circle cx="499.9998934529" cy="-850.8242678350" r="2" />
	<circle cx="0.0000000000" cy="-0.0000000000" r="2" />
	<circle cx="238.9700672765" cy="-137.9711824019" r="2" />
	<circle cx="499.9999999986" cy="-866.0253191222" r="2" />
	<circle cx="499.9709664683" cy="-288.6911324406" r="2" />
	<circle cx="0.0000000001" cy="-0.0000000000" r="2" />
	<circle cx="1000.0000000000" cy="-0.0000000000" r="2" />
	<circle cx="999.9362262653" cy="-0.0368144427" r="2" />
	<circle cx="0.9237660882" cy="-0.3653540820" r="2" />
	<circle cx="499.9999989252" cy="-866.0205084952" r="2" />
	<circle cx="999.9999992747" cy="-0.0000004187" r="2" />
	<circle cx="499.9999922559" cy="-865.8829856563" r="2" />
	<circle cx="499.9999999929" cy="-866.0244837000" r="2" />
	<circle cx="500.0000000000" cy="-866.0254038000" r="2" />
	<circle cx="999.6764449659" cy="-0.1868119729" r="2" />
	<circle cx="499.9999835016" cy="-863.4975811504" r="2" />
	<circle cx="0.0000000000" cy="-0.0000000000" r="2" />
	<circle cx="397.0111480641" cy="-200.7189727721" r="2" />
	<circle cx="2.7615538216" cy="-1.5945821723" r="2" />
	<circle cx="500.0000000000" cy="-866.0254038000" r="2" />
	<circle cx="500.0000000000" cy="-866.0254038000" r="2" />
	<circle cx="500.0000000000" cy="-866.0254038000" r="2" />
	<circle cx="0.0000000000" cy="-0.0000000000" r="2" />
	<circle cx="1000.0000000000" cy="-0.0000000000" r="2" />
	<circle cx="500.0000000000" cy="-866.0254038000" r="2" />
	<circle cx="0.0006553328" cy="-0.0003783713" r="2" />
	<circle cx="500.0000000000" cy="-866.0254037999" r="2" />
	<circle cx="500.0000000000" cy="-866.0254038000" r="2" />
	<circle cx="0.0000000000" cy="-0.0000000000" r="2" />
	<circle cx="500.0000000000" cy="-866.0254038000" r="2" />
	<circle cx="39.6951864514" cy="-22.9163065575" r="2" />
	<circle cx="500.0000000003" cy="-866.0254019431" r="2" />
	<circle cx="1000.0000000000" cy="-0.0000000000" r="2" />
	<circle cx="1000.0000000000" cy="-0.0000000000" r="2" />
	<circle cx="500.0000000000" cy="-866.0254038000" r="2" />
	<circle cx="933.1313587016" cy="-38.6025194212" r="2" />
	<circle cx="1000.0000000000" cy="-0.0000000000" r="2" />
	<circle cx="475.3203321836" cy="-331.7608952037" r="2" />
	<circle cx="999.9883267917" cy="-0.0067396749" r="2" />
	<circle cx="777.4520361619" cy="-162.0374688231" r="2" />
	<circle cx="1000.0000000000" cy="-0.0000000000" r="2" />
	<circle cx="996.6827803072" cy="-1.9149124090" r="2" />
	<circle cx="999.9999993503" cy="-0.0000003751" r="2" />
	<circle cx="1000.0000000000" cy="-0.0000000000" r="2" />
	<circle cx="483.1173285125" cy="-462.3878465405" r="2" />
	<circle cx="0.0000000000" cy="-0.0000000000" r="2" />
	<circle cx="500.0000000000" cy="-866.0254037998" r="2" />
	<circle cx="499.9976053421" cy="-864.9799642096" r="2" />
	<circle cx="0.0000000232" cy="-0.0000000134" r="2" />
	<circle cx="500.0000000000" cy="-866.0254038000" r="2" />
	<circle cx="999.5850839225" cy="-0.2395531249" r="2" />
	<circle cx="962.2937771329" cy="-21.7678214498" r="2" />
	<circle cx="24.8359920060" cy="-14.3410310249" r="2" />
	<circle cx="500.0000000000" cy="-866.0254038000" r="2" />
	<circle cx="0.0151838406" cy="-0.0087657012" r="2" />
	<circle cx="500.0000000000" cy="-866.0254037907" r="2" />
	<circle cx="500.0000000000" cy="-866.0254038000" r="2" />
	<circle cx="499.9997163417" cy="-792.0314707799" r="2" />
	<circle cx="0.0000000281" cy="-0.0000000162" r="2" />
	<circle cx="514.7661978852" cy="-319.4472297158" r="2" />
	<circle cx="998.6471370298" cy="-0.7810265124" r="2" />
	<circle cx="0.0000000000" cy="-0.0000000000" r="2" />
	<circle cx="526.7067036097" cy="-273.3447252664" r="2" />
	<circle cx="500.0000000000" cy="-866.0254037989" r="2" />
	<circle cx="1000.0000000000" cy="-0.0000000000" r="2" />
	<circle cx="446.1575926316" cy="-349.7848878369" r="2" />
	<circle cx="0.0000000000" cy="-0.0000000000" r="2" />
	<circle cx="0.0151838406" cy="-0.0087657012" r="2" />
	<circle cx="0.0000000000" cy="-0.0000000000" r="2" />
	<circle cx="500.0000000000" cy="-866.0254037760" r="2" />
	<circle cx="487.0133515968" cy="-281.1806619420" r="2" />
	<circle cx="1000.0000000000" cy="-0.0000000000" r="2" />
	<circle cx="999.9999925086" cy="-0.0000043251" r="2" />
	<circle cx="500.0000000000" cy="-866.0254037945" r="2" />
	<circle cx="999.4402398439" cy="-0.3231617337" r="2" />
	<circle cx="999.9994068275" cy="-0.0003423484" r="2" />
	<circle cx="381.5156086027" cy="-220.2610769427" r="2" />
	<circle cx="0.9631698157" cy="-0.5560774341" r="2" />
	<circle cx="0.0000000000" cy="-0.0000000000" r="2" />
	<circle cx="150.5388416864" cy="-86.9033075747" r="2" />
	<circle cx="0.0004512183" cy="-0.0002604650" r="2" />
	<circle cx="987.2207788388" cy="-7.3769219830" r="2" />
	<circle cx="1.7961573670" cy="-1.1218394005" r="2" />
	<circle cx="0.0000000135" cy="-0.0000000078" r="2" />
	<circle cx="500.0000000000" cy="-866.0254038000" r="2" />
	<circle cx="500.0000000000" cy="-866.0254034719" r="2" />
	<circle cx="1000.0000000000" cy="-0.0000000000" r="2" />
	<circle cx="0.0000000347" cy="-0.0000000200" r="2" />
	<circle cx="500.0000000000" cy="-866.0254038000" r="2" />
	<circle cx="499.9362457046" cy="-864.7059951378" r="2" />
	<circle cx="0.0000007258" cy="-0.0000004191" r="2" />
	<circle cx="499.3854709834" cy="-580.4343998165" r="2" />
	<circle cx="0.0000001767" cy="-0.0000001020" r="2" />
	<circle cx="1000.0000000000" cy="-0.0000000000" r="2" />
	<circle cx="0.0000000019" cy="-0.0000000011" r="2" />
	<circle cx="999.9999998705" cy="-0.0000000748" r="2" />
	<circle cx="999.5253965173" cy="-0.2739843020" r="2" />
	<circle cx="0.0000000000" cy="-0.0000000000" r="2" />
	<circle cx="62.1559888531" cy="-35.8836165520" r="2" />
	<circle cx="499.6772307642" cy="-702.7005010119" r="2" />
	<circle cx="500.0014385524" cy="-851.1303824586" r="2" />
	<circle cx="1000.0000000000" cy="-0.0000000000" r="2" />
	<circle cx="999.9999998107" cy="-0.0000001093" r="2" />
	<circle cx="0.0023052112" cy="-0.0013307279" r="2" />
	<circle cx="0.0000000065" cy="-0.0000000038" r="2" />
	<circle cx="0.0000000000" cy="-0.0000000000" r="2" />
	<circle cx="0.0000000000" cy="-0.0000000000" r="2" />
	<circle cx="1000.0000000000" cy="-0.0000000000" r="2" />
	<circle cx="499.9999999999" cy="-866.0254022193" r="2" />
	<circle cx="0.0000000000" cy="-0.0000000000" r="2" />
	<circle cx="0.0001321711" cy="-0.0000763018" r="2" />
	<circle cx="0.0000000002" cy="-0.0000000001" r="2" />
	<circle cx="0.0000000000" cy="-0.0000000000" r="2" />
	<circle cx="500.0000080711" cy="-865.7442583102" r="2" />
	<circle cx="24.2123693157" cy="-13.9784018452" r="2" />
	<circle cx="0.0000006861" cy="-0.0000003961" r="2" />
	<circle cx="999.9999988428" cy="-0.0000006680" r="2" />
	<circle cx="500.0000000000" cy="-866.0254038000" r="2" />
	<circle cx="0.0000000000" cy="-0.0000000000" r="2" />
	<circle cx="500.0000000000" cy="-866.0254038000" r="2" />
	<circle cx="35.3899725054" cy="-20.4336370684" r="2" />
	<circle cx="500.0000000000" cy="-866.0254037971" r="2" />
	<circle cx="999.9999998109" cy="-0.0000001100" r="2" />
	<circle cx="0.4416841170" cy="-0.2550078324" r="2" />
	<circle cx="0.1233532275" cy="-0.0712309551" r="2" />
	<circle cx="499.9999903853" cy="-861.1153484526" r="2" />
	<circle cx="460.2828894263" cy="-267.2652608472" r="2" />
	<circle cx="999.9999980832" cy="-0.0000011070" r="2" />
	<circle cx="499.9849273301" cy="-645.8427541261" r="2" />
	<circle cx="0.0000000000" cy="-0.0000000000" r="2" />
	<circle cx="994.8009129877" cy="-3.0014353913" r="2" />
	<circle cx="999.9009316500" cy="-0.0571571124" r="2" />
	<circle cx="499.9999926449" cy="-859.5968585048" r="2" />
	<circle cx="0.0000000001" cy="-0.0000000001" r="2" />
	<circle cx="0.0000000020" cy="-0.0000000012" r="2" />
	<circle cx="91.8115446972" cy="-53.0104570041" r="2" />
	<circle cx="499.9999999990" cy="-866.0251555260" r="2" />
	<circle cx="0.0000105918" cy="-0.0000061154" r="2" />
	<circle cx="1000.0000000000" cy="-0.0000000000" r="2" />
	<circle cx="497.8396092021" cy="-680.1788734820" r="2" />
	<circle cx="999.9999999862" cy="-0.0000000078" r="2" />
	<circle cx="500.0000000000" cy="-866.0254038000" r="2" />
	<circle cx="1000.0000000000" cy="-0.0000000000" r="2" />
	<circle cx="0.0000000000" cy="-0.0000000000" r="2" />
	<circle cx="913.9727981530" cy="-49.6159685381" r="2" />
	<circle cx="0.0000000000" cy="-0.0000000000" r="2" />
	<circle cx="0.0000000000" cy="-0.0000000000" r="2" />
	<circle cx="1000.0000000000" cy="-0.0000000000" r="2" />
	<circle cx="999.9926033229" cy="-0.0042701081" r="2" />
	<circle cx="0.0000000000" cy="-0.0000000000" r="2" />
	<circle cx="961.2667793934" cy="-22.3607537379" r="2" />
	<circle cx="499.9994611666" cy="-855.2736773874" r="2" />
	<circle cx="500.0000000012" cy="-866.0252959730" r="2" />
	<circle cx="0.0000000000" cy="-0.0000000000" r="2" />
	<circle cx="112.0506750349" cy="-64.6956044976" r="2" />
	<circle cx="499.9999755265" cy="-865.3353434291" r="2" />
	<circle cx="1000.0000000000" cy="-0.0000000000" r="2" />
	<circle cx="999.6356159076" cy="-0.2103486317" r="2" />
	<circle cx="466.6479631384" cy="-269.4448869839" r="2" />
	<circle cx="994.6436612357" cy="-3.0930213554" r="2" />
	<circle cx="0.0000342759" cy="-0.0000197895" r="2" />
	<circle cx="999.9999925098" cy="-0.0000043263" r="2" />
	<circle cx="499.9729379186" cy="-288.6750290508" r="2" />
	<circle cx="2.3798610559" cy="-1.3354264770" r="2" />
	<circle cx="1.3835199391" cy="-0.7988301016" r="2" />
	<circle cx="500.0000000000" cy="-866.0254034678" r="2" />
	<circle cx="0.0000000011" cy="-0.0000000006" r="2" />
	<circle cx="1000.0000000000" cy="-0.0000000000" r="2" />
	<circle cx="500.0000000000" cy="-866.0254038000" r="2" />
	<circle cx="1000.0000000000" cy="-0.0000000000" r="2" />
	<circle cx="500.0000000000" cy="-866.0254037750" r="2" />
	<circle cx="8.5355085541" cy="-2.6708294125" r="2" />
	<circle cx="1000.0000000000" cy="-0.0000000000" r="2" />
	<circle cx="72.4234148431" cy="-41.8080420916" r="2" />
	<circle cx="999.9999922056" cy="-0.0000045020" r="2" />
	<circle cx="0.0000002132" cy="-0.0000001231" r="2" />
	<circle cx="999.9999999998" cy="-0.0000000001" r="2" />
	<circle cx="500.0000000000" cy="-866.0254038000" r="2" />
	<circle cx="0.0000000000" cy="-0.0000000000" r="2" />
	<circle cx="0.6163995990" cy="-0.3558514159" r="2" />
	<circle cx="911.8982465863" cy="-50.8589078897" r="2" />
	<circle cx="999.9999757748" cy="-0.0000139795" r="2" />
	<circle cx="0.0000001370" cy="-0.0000000791" r="2" />
	<circle cx="499.9998918672" cy="-858.9877431172" r="2" />
	<circle cx="999.9999993086" cy="-0.0000003992" r="2" />
	<circle cx="499.9794943631" cy="-343.4255661833" r="2" />
	<circle cx="6.1227887942" cy="-3.5355686700" r="2" />
	<circle cx="500.0000000000" cy="-866.0254038000" r="2" />
	<circle cx="983.5846156816" cy="-9.4770693151" r="2" />
	<circle cx="500.0000000000" cy="-866.0254037999" r="2" />
	<circle cx="1000.0000000000" cy="-0.0000000000" r="2" />
	<circle cx="1000.0000000000" cy="-0.0000000000" r="2" />
	<circle cx="500.0000000000" cy="-866.0254038000" r="2" />
	<circle cx="999.9950663776" cy="-0.0028483762" r="2" />
	<circle cx="1000.0000000000" cy="-0.0000000000" r="2" />
	<circle cx="500.0000009238" cy="-866.0197077126" r="2" />
	<circle cx="0.0488373564" cy="-0.0281944905" r="2" />
	<circle cx="0.0000000000" cy="-0.0000000000" r="2" />
	<circle cx="657.7049766149" cy="-201.6038845102" r="2" />
	<circle cx="500.0000000000" cy="-866.0254038000" r="2" />
	<circle cx="499.9999997693" cy="-866.0245653522" r="2" />
	<circle cx="499.9953492268" cy="-288.6746719916" r="2" />
	<circle cx="918.0845464738" cy="-47.2880420894" r="2" />
	<circle cx="995.4567447476" cy="-2.6224324695" r="2" />
	<circle cx="155.5627352630" cy="-89.8223748451" r="2" />
	<circle cx="0.0000000002" cy="-0.0000000001" r="2" />
	<circle cx="500.0000000000" cy="-866.0254038000" r="2" />
	<circle cx="0.0000000051" cy="-0.0000000029" r="2" />
	<circle cx="500.1616145667" cy="-379.7797453501" r="2" />
	<circle cx="10.2699947133" cy="-5.8733739249" r="2" />
	<circle cx="487.9702836559" cy="-282.9426667855" r="2" />
	<circle cx="409.6495990766" cy="-236.4916283676" r="2" />
	<circle cx="999.9999999989" cy="-0.0000000006" r="2" />
	<circle cx="0.0605429621" cy="-0.0349572449" r="2" />
	<circle cx="1000.0000000000" cy="-0.0000000000" r="2" />
	<circle cx="0.0000000000" cy="-0.0000000000" r="2" />
	<circle cx="46.5408913149" cy="-26.6742627813" r="2" />
	<circle cx="999.9999999852" cy="-0.0000000086" r="2" />
	<circle cx="0.0000000000" cy="-0.0000000000" r="2" />
	<circle cx="0.0000000000" cy="-0.0000000000" r="2" />
	<circle cx="17.8988971200" cy="-10.3346258149" r="2" />
	<circle cx="567.6994955494" cy="-249.5632057281" r="2" />
	<circle cx="0.0000142849" cy="-0.0000082646" r="2" />
	<circle cx="999.9924399388" cy="-0.0043641652" r="2" />
	<circle cx="0.0000000000" cy="-0.0000000000" r="2" />
	<circle cx="0.0021150559" cy="-0.0012212651" r="2" />
	<circle cx="1000.0000000000" cy="-0.0000000000" r="2" />
	<circle cx="499.9999983410" cy="-866.0143512698" r="2" />
	<circle cx="0.0000000000" cy="-0.0000000000" r="2" />
	<circle cx="610.1183027982" cy="-229.3365006026" r="2" />
	<circle cx="500.0000000913" cy="-866.0250929084" r="2" />
	<circle cx="0.0000000000" cy="-0.0000000000" r="2" />
	<circle cx="0.0881745337" cy="-0.0509057670" r="2" />
	<circle cx="500.0000000000" cy="-866.0254034731" r="2" />
	<circle cx="112.9836070002" cy="-74.6861863005" r="2" />
	<circle cx="500.0000000000" cy="-866.0254038000" r="2" />
	<circle cx="499.9999999999" cy="-866.0254035915" r="2" />
	<circle cx="99.1270439955" cy="-57.2324010038" r="2" />
	<circle cx="52.4048621737" cy="-40.3108286680" r="2" />
	<circle cx="1000.0000000000" cy="-0.0000000000" r="2" />
	<circle cx="999.3401532675" cy="-0.3710684160" r="2" />
	<circle cx="500.0008119620" cy="-848.0112576656" r="2" />
	<circle cx="0.0000000333" cy="-0.0000000192" r="2" />
	<circle cx="500.0000000000" cy="-866.0254038000" r="2" />
	<circle cx="0.0000000000" cy="-0.0000000000" r="2" />
	<circle cx="1000.0000000000" cy="-0.0000000000" r="2" />
	<circle cx="500.0016654796" cy="-831.0697432380" r="2" />
	<circle cx="943.7466531303" cy="-33.4214450731" r="2" />
	<circle cx="0.0000000001" cy="-0.0000000000" r="2" />
	<circle cx="500.0000000000" cy="-866.0254038000" r="2" />
	<circle cx="0.0000000000" cy="-0.0000000000" r="2" />
	<circle cx="499.9981060715" cy="-740.1144620846" r="2" />
	<circle cx="500.0000000000" cy="-866.0254037962" r="2" />
	<circle cx="20.7070166170" cy="-11.9551016735" r="2" />
	<circle cx="500.0000000000" cy="-866.0254038000" r="2" />
	<circle cx="0.0000000000" cy="-0.0000000000" r="2" />
	<circle cx="999.9999999881" cy="-0.0000000069" r="2" />
	<circle cx="999.9999963529" cy="-0.0000021058" r="2" />
	<circle cx="999.9999999995" cy="-0.0000000003" r="2" />
	<circle cx="0.0000000000" cy="-0.0000000000" r="2" />
	<circle cx="500.0006807424" cy="-842.0318947928" r="2" />
	<circle cx="999.9998954922" cy="-0.0000602844" r="2" />
	<circle cx="499.9886122297" cy="-782.4122175361" r="2" />
	<circle cx="0.0000000000" cy="-0.0000000000" r="2" />
	<circle cx="83.5365343084" cy="-60.4775026699" r="2" />
	<circle cx="499.9999999859" cy="-866.0251321836" r="2" />
	<circle cx="999.9919225019" cy="-0.0046637604" r="2" />
	<circle cx="500.0871541370" cy="-347.8125902243" r="2" />
	<circle cx="889.9428240743" cy="-72.6081795029" r="2" />
	<circle cx="999.9999999866" cy="-0.0000000074" r="2" />
	<circle cx="17.1757177668" cy="-11.0703669196" r="2" />
	<circle cx="664.0580778932" cy="-193.9571830420" r="2" />
	<circle cx="999.9992032266" cy="-0.0004600337" r="2" />
	<circle cx="962.2937771329" cy="-21.7678214498" r="2" />
	<circle cx="0.0000000000" cy="-0.0000000000" r="2" />
	<circle cx="0.0000000000" cy="-0.0000000000" r="2" />
	<circle cx="1000.0000000000" cy="-0.0000000000" r="2" />
	<circle cx="0.0003598388" cy="-0.0002076419" r="2" />
	<circle cx="499.9999999997" cy="-866.0253636951" r="2" />
	<circle cx="999.9999999911" cy="-0.0000000051" r="2" />
	<circle cx="500.0000214928" cy="-865.9619800817" r="2" />
	<circle cx="500.0000000000" cy="-866.0254038000" r="2" />
	<circle cx="19.8530932526" cy="-11.4923949181" r="2" />
	<circle cx="902.1641291377" cy="-56.4804787178" r="2" />
	<circle cx="0.0000000000" cy="-0.0000000000" r="2" />
	<circle cx="287.9728302355" cy="-166.2721226235" r="2" />
	<circle cx="713.4073329361" cy="-165.4552391626" r="2" />
	<circle cx="22.0912285541" cy="-13.3693632439" r="2" />
	<circle cx="500.0000000000" cy="-866.0254038000" r="2" />
	<circle cx="999.9999651857" cy="-0.0000200873" r="2" />
	<circle cx="499.8935599086" cy="-288.7366030218" r="2" />
	<circle cx="499.9999930582" cy="-865.9539601817" r="2" />
	<circle cx="0.0000001800" cy="-0.0000001039" r="2" />
	<circle cx="999.2841733510" cy="-0.4131840760" r="2" />
	<circle cx="999.9999999967" cy="-0.0000000019" r="2" />
	<circle cx="499.9870019486" cy="-738.0386787219" r="2" />
	<circle cx="0.0000000000" cy="-0.0000000000" r="2" />
	<circle cx="0.0000000000" cy="-0.0000000000" r="2" />
	<circle cx="500.0000000000" cy="-866.0254038000" r="2" />
	<circle cx="500.0000000000" cy="-866.0254038000" r="2" />
	<circle cx="481.3067136603" cy="-277.6398168534" r="2" />
	<circle cx="1000.0000000000" cy="-0.0000000000" r="2" />
	<circle cx="500.0000000000" cy="-866.0254038000" r="2" />
	<circle cx="500.0000000726" cy="-866.0247021371" r="2" />
	<circle cx="493.6150350057" cy="-292.1511785274" r="2" />
	<circle cx="883.8176601738" cy="-67.0766917540" r="2" />
	<circle cx="975.8374767538" cy="-13.9502888564" r="2" />
	<circle cx="504.5890437673" cy="-779.0775223434" r="2" />
	<circle cx="984.2397029031" cy="-9.0988936070" r="2" />
	<circle cx="500.0000000000" cy="-866.0254037984" r="2" />
	<circle cx="999.9997213328" cy="-0.0001608621" r="2" />
	<circle cx="0.0000000008" cy="-0.0000000005" r="2" />
	<circle cx="0.0028450591" cy="-0.0016426518" r="2" />
	<circle cx="38.8439569589" cy="-22.4265470096" r="2" />
	<circle cx="500.8899825393" cy="-841.4560625500" r="2" />
	<circle cx="0.0000039417" cy="-0.0000022757" r="2" />
	<circle cx="997.6332924487" cy="-1.3663015409" r="2" />
	<circle cx="490.8752344847" cy="-279.4073061143" r="2" />
	<circle cx="1000.0000000000" cy="-0.0000000000" r="2" />
	<circle cx="500.0000000000" cy="-866.0254038000" r="2" />
	<circle cx="985.1764195199" cy="-8.5228329013" r="2" />
	<circle cx="1000.0000000000" cy="-0.0000000000" r="2" />
	<circle cx="499.9644111290" cy="-294.9753346944" r="2" />
	<circle cx="499.9999994592" cy="-866.0131287877" r="2" />
	<circle cx="999.9999999996" cy="-0.0000000002" r="2" />
	<circle cx="462.4216562663" cy="-305.3832570301" r="2" />
	<circle cx="500.0000000000" cy="-866.0254000417" r="2" />
	<circle cx="0.0000000001" cy="-0.0000000000" r="2" />
	<circle cx="499.9815563540" cy="-303.6499181320" r="2" />
	<circle cx="500.0000000452" cy="-866.0234800379" r="2" />
	<circle cx="0.0000007833" cy="-0.0000004523" r="2" />
	<circle cx="500.0030723969" cy="-709.5874180659" r="2" />
	<circle cx="0.0000000000" cy="-0.0000000000" r="2" />
	<circle cx="500.0000000000" cy="-866.0254038000" r="2" />
	<circle cx="0.0000000000" cy="-0.0000000000" r="2" />
	<circle cx="519.6715425498" cy="-277.2638388603" r="2" />
	<circle cx="875.4284188318" cy="-71.9246805628" r="2" />
	<circle cx="500.0000000000" cy="-866.0254038000" r="2" />
	<circle cx="500.0000000000" cy="-866.0254038000" r="2" />
	<circle cx="499.9986809695" cy="-851.7915332189" r="2" />
	<circle cx="500.0000000000" cy="-866.0254038000" r="2" />
	<circle cx="999.6775477399" cy="-0.1861179611" r="2" />
	<circle cx="500.0036528576" cy="-847.5875762863" r="2" />
	<circle cx="498.0393252445" cy="-287.9104072514" r="2" />
	<circle cx="999.9999999167" cy="-0.0000000480" r="2" />
	<circle cx="0.0000000017" cy="-0.0000000010" r="2" />
	<circle cx="0.0000000000" cy="-0.0000000000" r="2" />
	<circle cx="0.0939388417" cy="-0.0542336204" r="2" />
	<circle cx="0.0000000009" cy="-0.0000000005" r="2" />
	<circle cx="500.0000585515" cy="-862.0367898179" r="2" />
	<circle cx="500.0000000000" cy="-866.0254038000" r="2" />
	<circle cx="999.4428436021" cy="-0.3216860108" r="2" />
	<circle cx="500.0000000000" cy="-866.0254038000" r="2" />
	<circle cx="494.7989872497" cy="-806.8715592883" r="2" />
	<circle cx="485.2395427466" cy="-319.6597220625" r="2" />
	<circle cx="500.0000000000" cy="-866.0254037999" r="2" />
	<circle cx="1000.0000000000" cy="-0.0000000000" r="2" />
	<circle cx="0.0000000002" cy="-0.0000000001" r="2" />
	<circle cx="500.0000000000" cy="-866.0254038000" r="2" />
	<circle cx="1000.0000000000" cy="-0.0000000000" r="2" />
	<circle cx="999.9999999988" cy="-0.0000000007" r="2" />
	<circle cx="499.9925355464" cy="-477.6397034309" r="2" />
	<circle cx="426.7567747115" cy="-276.0011611288" r="2" />
	<circle cx="0.0000000000" cy="-0.0000000000" r="2" />
	<circle cx="500.0000000000" cy="-866.0254038000" r="2" />
	<circle cx="999.9061837917" cy="-0.0605096987" r="2" />
	<circle cx="500.0000000000" cy="-866.0254038000" r="2" />
	<circle cx="0.0181162702" cy="-0.0104573353" r="2" />
	<circle cx="568.3730664028" cy="-249.1868119174" r="2" />
	<circle cx="982.4235882838" cy="-10.9790370299" r="2" />
	<circle cx="500.0002966390" cy="-858.9739735145" r="2" />
	<circle cx="500.0000000000" cy="-866.0254037814" r="2" />
	<circle cx="0.0000000000" cy="-0.0000000000" r="2" />
	<circle cx="499.9999999875" cy="-866.0247925709" r="2" />
	<circle cx="477.2387456324" cy="-275.5584169590" r="2" />
	<circle cx="1000.0000000000" cy="-0.0000000000" r="2" />
	<circle cx="735.1370752529" cy="-152.9050773313" r="2" />
	<circle cx="500.0000000000" cy="-866.0254038000" r="2" />
  </g>
  <g id="fig2" transform="translate(-550.0,1000)">
	<polygon points="0.0,-0.0 1000.0,-0.0 500.0,-866.0254038" />
	<line
	   id="line2-1"
	   y2="-0.0"
	   x2="500"
	   y1="-288.6751346"
	   x1="500" />
	<line
	   id="line2-2"
	   y2="-433.0127019"
	   x2="250"
	   y1="-288.6751346"
	   x1="500" />
	<line
	   id="line2-3"
	   y2="-433.0127019"
	   x2="750"
	   y1="-288.6751346"
	   x1="500" />
	<text
	   x="440"
	   y="-500"
	   id="up_2">32.4%</text>
	<text
	   x="250"
	   y="-150"
	   id="down_left_2">35.0%</text>
	<text
	   x="630"
	   y="-150"
	   id="down_right_2">32.6%</text>
  </g>
  <g id="fig3" transform="translate(550,1000)">
	<polygon points="0.0,-0.0 1000.0,-0.0 500.0,-866.0254038" />
	<polygon id="triangle3b" points="250,-144.3375673 750,-144.3375673 500,-577.3502692" />
	<line
	   id="line3-1"
	   x1="125"
	   y1="-216.5063509"
	   x2="250"
	   y2="-144.3375673" />
	<line
	   id="line3-2"
	   x1="375"
	   y1="-649.5190528"
	   x2="500"
	   y2="-577.3502692" />
	<line
	   id="line3-3"
	   x1="625"
	   y1="-649.5190528"
	   x2="500"
	   y2="-577.3502692" />
	<line
	   id="line3-4"
	   x1="875"
	   y1="-216.5063509"
	   x2="750"
	   y2="-144.3375673" />
	<line
	   id="line3-5"
	   x1="750"
	   y1="-0.0"
	   x2="750"
	   y2="-144.3375673" />
	<line
	   id="line3-6"
	   x1="250"
	   y1="-0.0"
	   x2="250"
	   y2="-144.3375673" />
	<text
	   x="500"
	   y="-660"
	   text-anchor="middle"
	   id="up_3">29.2%</text>
	<text
	   y="-50"
	   x="70"
	   id="down_left_3">30.0%</text>
	<text
	   y="-50"
	   x="770"
	   id="down_right_3">29.4%</text>
	<text
	   x="500"
	   y="-50"
	   text-anchor="middle"
	   id="down_side_3">0.0%</text>
	<text
	   x="500"
	   y="-280"
	   text-anchor="middle"
	   id="center_3">11.2%</text>
	<text
	   x="685.0"
	   y="-390.8439"
	   text-anchor="middle"
	   transform="rotate(60,665.0,-380.8439)"
	   id="right_side_3">0.2%</text>
	<text
	   x="315.0"
	   y="-390.8439"
	   text-anchor="middle"
	   transform="rotate(-60,335.0,-380.8439)"
	   id="left_side_3">0.0%</text>
  </g>
</g></g>
</svg>
