<?xml version="1.0" encoding="UTF-8" standalone="no"?>
<!DOCTYPE svg PUBLIC "-//W3C//DTD SVG 1.1//EN" "http://www.w3.org/Graphics/SVG/1.1/DTD/svg11.dtd">
<svg
   xmlns:svg="http://www.w3.org/2000/svg"
   xmlns="http://www.w3.org/2000/svg"
   xmlns:xlink="http://www.w3.org/1999/xlink"
   version="1.1"
   baseProfile="full"
   id="body"
   width="800px"
   height="800px"
   viewBox="0 0 1000 1000"
   preserveAspectRatio="none">
  <defs>
    <style type="text/css"><![CDATA[
      circle{ stroke: none; }
      polygon{ stroke: black; stroke-width: 2px; fill: none; }
      line{ stroke: black; stroke-width: 2px; }
      text{ font-size:50px; }
    ]]></style>
  </defs>
  <title
     id="title1">SVG drawing</title>
<g transform="scale(0.45)"><g transform="translate(600,1050)">
  <g id="fig1">
	<polygon points="0.0,-0.0 1000.0,-0.0 500,-866.0254038" />
	<circle cx="1000.0000000000" cy="-0.0000000000" r="2" />
	<circle cx="0.0894019896" cy="-0.0515246611" r="2" />
	<circle cx="1000.0000000000" cy="-0.0000000000" r="2" />
	<circle cx="0.0000000000" cy="-0.0000000000" r="2" />
	<circle cx="999.9999983155" cy="-0.0000011204" r="2" />
	<circle cx="0.0345979405" cy="-0.0199136380" r="2" />
	<circle cx="0.3130065879" cy="-0.1804265103" r="2" />
	<circle cx="451.9638814593" cy="-260.7786929996" r="2" />
	<circle cx="500.0000000000" cy="-866.0254038000" r="2" />
	<circle cx="483.0291144494" cy="-278.9012748043" r="2" />
	<circle cx="0.0000000000" cy="-0.0000000000" r="2" />
	<circle cx="500.0000000000" cy="-866.0254038000" r="2" />
	<circle cx="999.9610255358" cy="-0.0224298568" r="2" />
	<circle cx="0.0000000000" cy="-0.0000000000" r="2" />
	<circle cx="1000.0000000000" cy="-0.0000000000" r="2" />
	<circle cx="491.2820146578" cy="-301.5261731283" r="2" />
	<circle cx="118.7122669650" cy="-68.5526927182" r="2" />
	<circle cx="500.0000000000" cy="-866.0254038000" r="2" />
	<circle cx="997.2686954330" cy="-1.8810682821" r="2" />
	<circle cx="499.9999975448" cy="-866.0253955709" r="2" />
	<circle cx="500.0000005605" cy="-863.4852105274" r="2" />
	<circle cx="0.4380875742" cy="-0.3766057764" r="2" />
	<circle cx="0.0000000000" cy="-0.0000000000" r="2" />
	<circle cx="500.0000000000" cy="-866.0254038000" r="2" />
	<circle cx="999.9981083866" cy="-0.0010922248" r="2" />
	<circle cx="0.0000000000" cy="-0.0000000000" r="2" />
	<circle cx="0.0000000000" cy="-0.0000000000" r="2" />
	<circle cx="0.0000000000" cy="-0.0000000000" r="2" />
	<circle cx="999.9999999997" cy="-0.0000000001" r="2" />
	<circle cx="500.0384325056" cy="-343.5256796903" r="2" />
	<circle cx="500.0000000000" cy="-866.0254038000" r="2" />
	<circle cx="999.9684148088" cy="-0.0184853103" r="2" />
	<circle cx="0.2204486846" cy="-0.1072124525" r="2" />
	<circle cx="1000.0000000000" cy="-0.0000000000" r="2" />
	<circle cx="1000.0000000000" cy="-0.0000000000" r="2" />
	<circle cx="500.0000000000" cy="-866.0254038000" r="2" />
	<circle cx="0.0000000000" cy="-0.0000000000" r="2" />
	<circle cx="500.0000000168" cy="-866.0253886968" r="2" />
	<circle cx="500.0000000000" cy="-866.0254038000" r="2" />
	<circle cx="23.4584039104" cy="-12.2221199499" r="2" />
	<circle cx="1000.0000000000" cy="-0.0000000000" r="2" />
	<circle cx="1000.0000000000" cy="-0.0000000000" r="2" />
	<circle cx="0.0000432246" cy="-0.0000369005" r="2" />
	<circle cx="0.3489734120" cy="-0.2049157752" r="2" />
	<circle cx="0.0000000038" cy="-0.0000000027" r="2" />
	<circle cx="261.4966112412" cy="-87.7297492526" r="2" />
	<circle cx="510.1633972562" cy="-294.4817694172" r="2" />
	<circle cx="0.0000034958" cy="-0.0000020183" r="2" />
	<circle cx="500.0000000000" cy="-866.0254037999" r="2" />
	<circle cx="499.9999999998" cy="-866.0254012720" r="2" />
	<circle cx="500.0000000000" cy="-866.0254038000" r="2" />
	<circle cx="493.5064731921" cy="-389.8813950662" r="2" />
	<circle cx="500.0073505666" cy="-302.0972208031" r="2" />
	<circle cx="507.8226472544" cy="-491.0088492056" r="2" />
	<circle cx="3.6337289824" cy="-2.0981290311" r="2" />
	<circle cx="500.0000927043" cy="-864.8982332822" r="2" />
	<circle cx="1000.0000000000" cy="-0.0000000000" r="2" />
	<circle cx="0.0000000000" cy="-0.0000000000" r="2" />
	<circle cx="499.9779517479" cy="-845.1356124594" r="2" />
	<circle cx="1000.0000000000" cy="-0.0000000000" r="2" />
	<circle cx="0.0048781885" cy="-0.0028166159" r="2" />
	<circle cx="0.0000049509" cy="-0.0000021349" r="2" />
	<circle cx="500.0000000000" cy="-866.0254037900" r="2" />
	<circle cx="1000.0000000000" cy="-0.0000000000" r="2" />
	<circle cx="999.9959572789" cy="-0.0022197589" r="2" />
	<circle cx="500.0000000000" cy="-866.0254037850" r="2" />
	<circle cx="1000.0000000000" cy="-0.0000000000" r="2" />
	<circle cx="997.9537598598" cy="-1.1814456668" r="2" />
	<circle cx="500.0000101840" cy="-866.0253501859" r="2" />
	<circle cx="352.9583487269" cy="-193.7719522109" r="2" />
	<circle cx="0.0000554681" cy="-0.0000043346" r="2" />
	<circle cx="49.8983052514" cy="-2.6552385547" r="2" />
	<circle cx="0.0000000000" cy="-0.0000000000" r="2" />
	<circle cx="0.0000000000" cy="-0.0000000000" r="2" />
	<circle cx="500.0771879603" cy="-358.2471698634" r="2" />
	<circle cx="499.9999999971" cy="-866.0254031827" r="2" />
	<circle cx="499.9999774492" cy="-866.0252842536" r="2" />
	<circle cx="500.0000008604" cy="-866.0254021105" r="2" />
	<circle cx="0.0000002205" cy="-0.0000001628" r="2" />
	<circle cx="499.9999985983" cy="-866.0253953466" r="2" />
	<circle cx="500.0000000000" cy="-866.0254038000" r="2" />
	<circle cx="0.0000000000" cy="-0.0000000000" r="2" />
	<circle cx="499.9999985202" cy="-288.6751393811" r="2" />
	<circle cx="27.2488810311" cy="-41.8859481189" r="2" />
	<circle cx="995.6976837303" cy="-3.7904930119" r="2" />
	<circle cx="500.0745045084" cy="-865.1974037579" r="2" />
	<circle cx="0.0000000000" cy="-0.0000000000" r="2" />
	<circle cx="999.9983099648" cy="-0.0009756049" r="2" />
	<circle cx="0.0000000000" cy="-0.0000000000" r="2" />
	<circle cx="0.0000000000" cy="-0.0000000000" r="2" />
	<circle cx="0.4535049373" cy="-0.1637727432" r="2" />
	<circle cx="0.0000002729" cy="-0.0000000215" r="2" />
	<circle cx="0.0188009018" cy="-0.0323017717" r="2" />
	<circle cx="0.0000000000" cy="-0.0000000000" r="2" />
	<circle cx="0.0000000000" cy="-0.0000000000" r="2" />
	<circle cx="0.0000000747" cy="-0.0000000431" r="2" />
	<circle cx="999.9999538099" cy="-0.0000158497" r="2" />
	<circle cx="999.9999744728" cy="-0.0000090152" r="2" />
	<circle cx="505.7926186912" cy="-287.8302639129" r="2" />
	<circle cx="0.0008812737" cy="-0.0005089524" r="2" />
	<circle cx="500.0000000000" cy="-866.0254038000" r="2" />
	<circle cx="0.0000000000" cy="-0.0000000000" r="2" />
	<circle cx="674.3412043493" cy="-481.1516381634" r="2" />
	<circle cx="667.3801314527" cy="-192.0550273497" r="2" />
	<circle cx="0.0000000000" cy="-0.0000000000" r="2" />
	<circle cx="1000.0000000000" cy="-0.0000000000" r="2" />
	<circle cx="500.0000000000" cy="-866.0254038000" r="2" />
	<circle cx="492.2418643813" cy="-289.2608350408" r="2" />
	<circle cx="492.6817205781" cy="-846.0338462925" r="2" />
	<circle cx="999.9999999999" cy="-0.0000000001" r="2" />
	<circle cx="0.0000000000" cy="-0.0000000000" r="2" />
	<circle cx="500.0000000000" cy="-866.0254038000" r="2" />
	<circle cx="1000.0000000000" cy="-0.0000000000" r="2" />
	<circle cx="998.7806451055" cy="-0.7488539980" r="2" />
	<circle cx="1000.0000000000" cy="-0.0000000000" r="2" />
	<circle cx="500.0000000000" cy="-866.0254038000" r="2" />
	<circle cx="999.9999995807" cy="-0.0000003686" r="2" />
	<circle cx="1000.0000000000" cy="-0.0000000000" r="2" />
	<circle cx="1000.0000000000" cy="-0.0000000000" r="2" />
	<circle cx="0.0000000000" cy="-0.0000000000" r="2" />
	<circle cx="499.9999970271" cy="-866.0247934361" r="2" />
	<circle cx="999.9999999999" cy="-0.0000000000" r="2" />
	<circle cx="1000.0000000000" cy="-0.0000000000" r="2" />
	<circle cx="0.0000080776" cy="-0.0000046642" r="2" />
	<circle cx="999.9999915803" cy="-0.0000009834" r="2" />
	<circle cx="500.0000000004" cy="-866.0254033773" r="2" />
	<circle cx="999.4668328766" cy="-0.3077457364" r="2" />
	<circle cx="0.0000058985" cy="-0.0000062400" r="2" />
	<circle cx="500.0000000000" cy="-866.0254038000" r="2" />
	<circle cx="999.9999996003" cy="-0.0000002338" r="2" />
	<circle cx="500.0000000000" cy="-866.0254038000" r="2" />
	<circle cx="500.0000001684" cy="-866.0224241161" r="2" />
	<circle cx="0.0000000000" cy="-0.0000000000" r="2" />
	<circle cx="500.0000000000" cy="-866.0254037999" r="2" />
	<circle cx="500.0000000000" cy="-866.0254036593" r="2" />
	<circle cx="499.9999999053" cy="-866.0210330273" r="2" />
	<circle cx="1000.0000000000" cy="-0.0000000000" r="2" />
	<circle cx="500.0000000000" cy="-866.0254038000" r="2" />
	<circle cx="500.0000000000" cy="-866.0254038000" r="2" />
	<circle cx="1000.0000000000" cy="-0.0000000000" r="2" />
	<circle cx="1000.0000000000" cy="-0.0000000000" r="2" />
	<circle cx="0.0000007670" cy="-0.0000004429" r="2" />
	<circle cx="500.0000033515" cy="-866.0253929170" r="2" />
	<circle cx="823.0661474494" cy="-102.1528041929" r="2" />
	<circle cx="0.0000000000" cy="-0.0000000000" r="2" />
	<circle cx="500.0000000000" cy="-866.0254038000" r="2" />
	<circle cx="1000.0000000000" cy="-0.0000000000" r="2" />
	<circle cx="0.0000000000" cy="-0.0000000000" r="2" />
	<circle cx="999.9999041820" cy="-0.0000788590" r="2" />
	<circle cx="500.0000000000" cy="-866.0254038000" r="2" />
	<circle cx="664.9991730005" cy="-193.4127677942" r="2" />
	<circle cx="999.9938082933" cy="-0.0037163038" r="2" />
	<circle cx="500.0000000000" cy="-866.0254038000" r="2" />
	<circle cx="500.0000000000" cy="-866.0254038000" r="2" />
	<circle cx="999.9999793876" cy="-0.0000122394" r="2" />
	<circle cx="499.9999875825" cy="-866.0252708203" r="2" />
	<circle cx="94.6020354244" cy="-80.9837722597" r="2" />
	<circle cx="1000.0000000000" cy="-0.0000000000" r="2" />
	<circle cx="1000.0000000000" cy="-0.0000000000" r="2" />
	<circle cx="500.0000000000" cy="-866.0254038000" r="2" />
	<circle cx="136.6576507816" cy="-15.0797631434" r="2" />
	<circle cx="2.9929192354" cy="-1.7103894468" r="2" />
	<circle cx="500.0000000000" cy="-866.0254037125" r="2" />
	<circle cx="0.0000000000" cy="-0.0000000000" r="2" />
	<circle cx="88.3138443914" cy="-79.9500742066" r="2" />
	<circle cx="499.5808999709" cy="-425.5264528717" r="2" />
	<circle cx="491.6826119096" cy="-284.4952304432" r="2" />
	<circle cx="0.0000001034" cy="-0.0000000804" r="2" />
	<circle cx="999.9999998836" cy="-0.0000000672" r="2" />
	<circle cx="1000.0000000000" cy="-0.0000000000" r="2" />
	<circle cx="0.0000000006" cy="-0.0000000004" r="2" />
	<circle cx="0.0000000000" cy="-0.0000000000" r="2" />
	<circle cx="0.0000000000" cy="-0.0000000000" r="2" />
	<circle cx="499.9933015424" cy="-865.9702202362" r="2" />
	<circle cx="908.3063622176" cy="-52.9411779247" r="2" />
	<circle cx="0.0000000000" cy="-0.0000000000" r="2" />
	<circle cx="0.0000000002" cy="-0.0000000001" r="2" />
	<circle cx="501.8025861586" cy="-287.7367213908" r="2" />
	<circle cx="500.6884319331" cy="-860.3287979671" r="2" />
	<circle cx="500.0080087985" cy="-712.0649897652" r="2" />
	<circle cx="1000.0000000000" cy="-0.0000000000" r="2" />
	<circle cx="0.0000000000" cy="-0.0000000000" r="2" />
	<circle cx="0.0067483585" cy="-0.0037871314" r="2" />
	<circle cx="500.0000490616" cy="-864.6480568531" r="2" />
	<circle cx="0.0000000000" cy="-0.0000000000" r="2" />
	<circle cx="0.0686547648" cy="-0.0407874739" r="2" />
	<circle cx="0.0000000000" cy="-0.0000000000" r="2" />
	<circle cx="1000.0000000000" cy="-0.0000000000" r="2" />
	<circle cx="0.0000000000" cy="-0.0000000000" r="2" />
	<circle cx="552.5701559608" cy="-427.4047325338" r="2" />
	<circle cx="0.0000000000" cy="-0.0000000000" r="2" />
	<circle cx="0.0000000000" cy="-0.0000000000" r="2" />
	<circle cx="1.4100153217" cy="-0.8140726963" r="2" />
	<circle cx="1000.0000000000" cy="-0.0000000000" r="2" />
	<circle cx="500.0000000221" cy="-866.0253896800" r="2" />
	<circle cx="500.0000000000" cy="-866.0254038000" r="2" />
	<circle cx="500.0000000000" cy="-866.0254038000" r="2" />
	<circle cx="0.0000000000" cy="-0.0000000000" r="2" />
	<circle cx="500.0000000000" cy="-866.0254038000" r="2" />
	<circle cx="499.5879855506" cy="-864.6379479171" r="2" />
	<circle cx="789.0827973803" cy="-129.7030109831" r="2" />
	<circle cx="500.0210404439" cy="-864.4670250147" r="2" />
	<circle cx="998.7783262366" cy="-0.2111093553" r="2" />
	<circle cx="0.0000000000" cy="-0.0000000000" r="2" />
	<circle cx="499.9887897566" cy="-864.5198931256" r="2" />
	<circle cx="512.1414884616" cy="-281.6831285039" r="2" />
	<circle cx="4.5984798536" cy="-3.9483738274" r="2" />
	<circle cx="0.0000008721" cy="-0.0000004982" r="2" />
	<circle cx="0.0000000000" cy="-0.0000000000" r="2" />
	<circle cx="562.5922044580" cy="-252.6249882929" r="2" />
	<circle cx="999.9999995857" cy="-0.0000002721" r="2" />
	<circle cx="499.9418691595" cy="-865.8566419281" r="2" />
	<circle cx="1000.0000000000" cy="-0.0000000000" r="2" />
	<circle cx="1000.0000000000" cy="-0.0000000000" r="2" />
	<circle cx="1000.0000000000" cy="-0.0000000000" r="2" />
	<circle cx="500.0000000000" cy="-866.0254038000" r="2" />
	<circle cx="500.0000000000" cy="-866.0254038000" r="2" />
	<circle cx="999.6552811095" cy="-0.2959203856" r="2" />
	<circle cx="0.0000000000" cy="-0.0000000000" r="2" />
	<circle cx="1000.0000000000" cy="-0.0000000000" r="2" />
	<circle cx="0.0000102289" cy="-0.0000061285" r="2" />
	<circle cx="500.0000000000" cy="-866.0254038000" r="2" />
	<circle cx="0.0000000000" cy="-0.0000000000" r="2" />
	<circle cx="0.0000000000" cy="-0.0000000000" r="2" />
	<circle cx="999.6582393269" cy="-0.1972883598" r="2" />
	<circle cx="500.0000000000" cy="-866.0254038000" r="2" />
	<circle cx="606.9852708407" cy="-431.4784861156" r="2" />
	<circle cx="442.0843488876" cy="-255.1168499763" r="2" />
	<circle cx="0.0000083338" cy="-0.0000087023" r="2" />
	<circle cx="0.0000000000" cy="-0.0000000000" r="2" />
	<circle cx="500.0000000000" cy="-866.0254038000" r="2" />
	<circle cx="499.2871188204" cy="-437.9977762688" r="2" />
	<circle cx="1000.0000000000" cy="-0.0000000000" r="2" />
	<circle cx="0.0000000001" cy="-0.0000000001" r="2" />
	<circle cx="1000.0000000000" cy="-0.0000000000" r="2" />
	<circle cx="1000.0000000000" cy="-0.0000000000" r="2" />
	<circle cx="492.6989173881" cy="-272.5425659653" r="2" />
	<circle cx="500.0000000000" cy="-866.0254038000" r="2" />
	<circle cx="0.0000000000" cy="-0.0000000000" r="2" />
	<circle cx="177.4908325058" cy="-3.4303341159" r="2" />
	<circle cx="500.0000000000" cy="-866.0254038000" r="2" />
	<circle cx="500.0000000000" cy="-866.0254037996" r="2" />
	<circle cx="500.0003116780" cy="-866.0247377055" r="2" />
	<circle cx="999.9523055030" cy="-0.0352263431" r="2" />
	<circle cx="499.9999518943" cy="-864.9697679587" r="2" />
	<circle cx="500.0000000000" cy="-866.0254038000" r="2" />
	<circle cx="501.5249559448" cy="-832.2807237237" r="2" />
	<circle cx="999.9999999982" cy="-0.0000000003" r="2" />
	<circle cx="1.9036787183" cy="-0.3398011897" r="2" />
	<circle cx="1000.0000000000" cy="-0.0000000000" r="2" />
	<circle cx="0.0000000000" cy="-0.0000000000" r="2" />
	<circle cx="0.0000000000" cy="-0.0000000000" r="2" />
	<circle cx="334.9989080999" cy="-193.4133788376" r="2" />
	<circle cx="1000.0000000000" cy="-0.0000000000" r="2" />
	<circle cx="999.8851384643" cy="-0.1275072552" r="2" />
	<circle cx="500.0389871385" cy="-865.6411596600" r="2" />
	<circle cx="1000.0000000000" cy="-0.0000000000" r="2" />
	<circle cx="500.0000000000" cy="-866.0254038000" r="2" />
	<circle cx="499.9983120652" cy="-811.4204493278" r="2" />
	<circle cx="552.3173814701" cy="-589.8244032182" r="2" />
	<circle cx="500.0000000006" cy="-866.0254037929" r="2" />
	<circle cx="500.1309332584" cy="-854.3012597441" r="2" />
	<circle cx="0.0131036486" cy="-0.0075642630" r="2" />
	<circle cx="499.9999943662" cy="-866.0253939858" r="2" />
	<circle cx="0.0000000000" cy="-0.0000000000" r="2" />
	<circle cx="0.0000000000" cy="-0.0000000000" r="2" />
	<circle cx="492.6940101374" cy="-821.4721487980" r="2" />
	<circle cx="1000.0000000000" cy="-0.0000000000" r="2" />
	<circle cx="1000.0000000000" cy="-0.0000000000" r="2" />
	<circle cx="1000.0000000000" cy="-0.0000000000" r="2" />
	<circle cx="1000.0000000000" cy="-0.0000000000" r="2" />
	<circle cx="0.0000000000" cy="-0.0000000000" r="2" />
	<circle cx="0.0003256279" cy="-0.0001874532" r="2" />
	<circle cx="1000.0000000000" cy="-0.0000000000" r="2" />
	<circle cx="1000.0000000000" cy="-0.0000000000" r="2" />
	<circle cx="999.9999994610" cy="-0.0000003190" r="2" />
	<circle cx="999.9543647461" cy="-0.0255008488" r="2" />
	<circle cx="999.6055140648" cy="-0.4395877165" r="2" />
	<circle cx="0.0000000000" cy="-0.0000000000" r="2" />
	<circle cx="500.0000000000" cy="-866.0254038000" r="2" />
	<circle cx="999.9999240293" cy="-0.0000433223" r="2" />
	<circle cx="500.0000000000" cy="-866.0254032689" r="2" />
	<circle cx="1000.0000000000" cy="-0.0000000000" r="2" />
	<circle cx="0.0000000000" cy="-0.0000000000" r="2" />
	<circle cx="1000.0000000000" cy="-0.0000000000" r="2" />
	<circle cx="500.0000000000" cy="-866.0254038000" r="2" />
	<circle cx="500.0000000000" cy="-866.0254038000" r="2" />
	<circle cx="1000.0000000000" cy="-0.0000000000" r="2" />
	<circle cx="500.0672239788" cy="-288.6363210719" r="2" />
	<circle cx="1000.0000000000" cy="-0.0000000000" r="2" />
	<circle cx="500.0000000000" cy="-866.0254038000" r="2" />
	<circle cx="0.0000000000" cy="-0.0000000000" r="2" />
	<circle cx="500.0000000000" cy="-866.0254038000" r="2" />
	<circle cx="0.0000000000" cy="-0.0000000000" r="2" />
	<circle cx="999.8964573094" cy="-0.0596908788" r="2" />
	<circle cx="500.0000000000" cy="-866.0254038000" r="2" />
	<circle cx="994.1469039138" cy="-2.0751204480" r="2" />
	<circle cx="500.0000000000" cy="-866.0254038000" r="2" />
	<circle cx="497.7233464824" cy="-275.7224028056" r="2" />
	<circle cx="1000.0000000000" cy="-0.0000000000" r="2" />
	<circle cx="58.3221721911" cy="-33.6740098639" r="2" />
	<circle cx="499.9999976478" cy="-866.0243202110" r="2" />
	<circle cx="999.9999999987" cy="-0.0000000009" r="2" />
	<circle cx="0.0000000000" cy="-0.0000000000" r="2" />
	<circle cx="499.9995552622" cy="-865.4924124677" r="2" />
	<circle cx="1000.0000000000" cy="-0.0000000000" r="2" />
	<circle cx="500.0000299925" cy="-864.1460827304" r="2" />
	<circle cx="999.9997336091" cy="-0.0001536999" r="2" />
	<circle cx="500.2535951969" cy="-834.7297453596" r="2" />
	<circle cx="500.0000000000" cy="-866.0254038000" r="2" />
	<circle cx="1000.0000000000" cy="-0.0000000000" r="2" />
	<circle cx="1000.0000000000" cy="-0.0000000000" r="2" />
	<circle cx="545.5127129767" cy="-262.3985331593" r="2" />
	<circle cx="217.4915849317" cy="-124.1190962980" r="2" />
	<circle cx="0.0000000000" cy="-0.0000000000" r="2" />
	<circle cx="559.9600535035" cy="-254.0495043126" r="2" />
	<circle cx="418.1425037441" cy="-364.1925896523" r="2" />
	<circle cx="1000.0000000000" cy="-0.0000000000" r="2" />
	<circle cx="500.0000000000" cy="-866.0254038000" r="2" />
	<circle cx="0.0000000000" cy="-0.0000000000" r="2" />
	<circle cx="0.0000000018" cy="-0.0000000011" r="2" />
	<circle cx="1000.0000000000" cy="-0.0000000000" r="2" />
	<circle cx="502.7916696514" cy="-291.9834367582" r="2" />
	<circle cx="0.0000000000" cy="-0.0000000000" r="2" />
	<circle cx="999.9999999988" cy="-0.0000000007" r="2" />
	<circle cx="503.2123348669" cy="-856.4176526658" r="2" />
	<circle cx="0.0000000000" cy="-0.0000000000" r="2" />
	<circle cx="1000.0000000000" cy="-0.0000000000" r="2" />
	<circle cx="0.0000000000" cy="-0.0000000000" r="2" />
	<circle cx="82.4654790020" cy="-63.8166601655" r="2" />
	<circle cx="999.9478250721" cy="-0.0234054081" r="2" />
	<circle cx="0.0001391635" cy="-0.0000503126" r="2" />
	<circle cx="0.0000000000" cy="-0.0000000000" r="2" />
	<circle cx="1000.0000000000" cy="-0.0000000000" r="2" />
	<circle cx="999.9999989671" cy="-0.0000015900" r="2" />
	<circle cx="0.0000000000" cy="-0.0000000000" r="2" />
	<circle cx="500.0000000000" cy="-866.0254038000" r="2" />
	<circle cx="0.0004154881" cy="-0.0002398534" r="2" />
	<circle cx="500.0000234499" cy="-864.7730306227" r="2" />
	<circle cx="1000.0000000000" cy="-0.0000000000" r="2" />
	<circle cx="1000.0000000000" cy="-0.0000000000" r="2" />
	<circle cx="0.0000000000" cy="-0.0000000000" r="2" />
	<circle cx="494.6370203081" cy="-851.6489285061" r="2" />
	<circle cx="1000.0000000000" cy="-0.0000000000" r="2" />
	<circle cx="500.0000000000" cy="-866.0254038000" r="2" />
	<circle cx="499.9987825354" cy="-865.9501419867" r="2" />
	<circle cx="975.1387287428" cy="-7.9095102126" r="2" />
	<circle cx="0.0000000000" cy="-0.0000000000" r="2" />
	<circle cx="1000.0000000000" cy="-0.0000000000" r="2" />
	<circle cx="998.4333101051" cy="-0.8966111677" r="2" />
	<circle cx="823.0074267772" cy="-102.2161042769" r="2" />
	<circle cx="0.0000000000" cy="-0.0000000000" r="2" />
	<circle cx="999.9999999986" cy="-0.0000000008" r="2" />
	<circle cx="500.0000000000" cy="-866.0254038000" r="2" />
	<circle cx="0.0000000000" cy="-0.0000000000" r="2" />
	<circle cx="1000.0000000000" cy="-0.0000000000" r="2" />
	<circle cx="0.0000000508" cy="-0.0000000293" r="2" />
	<circle cx="993.1307734171" cy="-8.1191843948" r="2" />
	<circle cx="0.0000002934" cy="-0.0000000628" r="2" />
	<circle cx="0.0190708752" cy="-0.0193661664" r="2" />
	<circle cx="1000.0000000000" cy="-0.0000000000" r="2" />
	<circle cx="1000.0000000000" cy="-0.0000000000" r="2" />
	<circle cx="0.0000000000" cy="-0.0000000000" r="2" />
	<circle cx="6.6602289284" cy="-7.6308613275" r="2" />
	<circle cx="499.9999997717" cy="-866.0253839143" r="2" />
	<circle cx="1000.0000000000" cy="-0.0000000000" r="2" />
	<circle cx="501.3837056678" cy="-764.5088296078" r="2" />
	<circle cx="0.0000000038" cy="-0.0000000027" r="2" />
	<circle cx="500.0000000000" cy="-866.0254038000" r="2" />
	<circle cx="500.0000000000" cy="-866.0254038000" r="2" />
	<circle cx="500.0000000000" cy="-866.0254038000" r="2" />
	<circle cx="0.0030300668" cy="-0.0017514805" r="2" />
	<circle cx="0.0000000021" cy="-0.0000000012" r="2" />
	<circle cx="318.1569181120" cy="-198.2893369077" r="2" />
	<circle cx="499.9879223160" cy="-865.9170223025" r="2" />
	<circle cx="499.9998375811" cy="-865.9837577091" r="2" />
	<circle cx="908.2811257323" cy="-152.0024190219" r="2" />
	<circle cx="632.7209978408" cy="-213.3363403190" r="2" />
	<circle cx="500.0175746666" cy="-864.1529161921" r="2" />
	<circle cx="469.3483387744" cy="-185.4928060922" r="2" />
	<circle cx="999.9999597318" cy="-0.0000324852" r="2" />
	<circle cx="0.0129921350" cy="-0.0075022595" r="2" />
	<circle cx="500.0000000000" cy="-866.0254038000" r="2" />
	<circle cx="154.9431598054" cy="-89.4564775253" r="2" />
	<circle cx="500.0000000000" cy="-866.0254038000" r="2" />
	<circle cx="0.0000000703" cy="-0.0000000405" r="2" />
	<circle cx="499.3450397919" cy="-834.2440457611" r="2" />
	<circle cx="999.9999999987" cy="-0.0000000007" r="2" />
	<circle cx="500.0000000000" cy="-866.0254038000" r="2" />
	<circle cx="500.0005980016" cy="-865.6152513493" r="2" />
	<circle cx="336.8893677234" cy="-194.5230933676" r="2" />
	<circle cx="500.0000000000" cy="-866.0254037769" r="2" />
	<circle cx="999.9999861191" cy="-0.0000062847" r="2" />
	<circle cx="0.0000000000" cy="-0.0000000000" r="2" />
	<circle cx="500.0000000000" cy="-866.0254038000" r="2" />
	<circle cx="500.0000000000" cy="-866.0254038000" r="2" />
	<circle cx="496.4882035729" cy="-291.1233440779" r="2" />
	<circle cx="500.0000000000" cy="-866.0254038000" r="2" />
	<circle cx="0.0000000000" cy="-0.0000000000" r="2" />
	<circle cx="999.6510271124" cy="-0.2049140672" r="2" />
	<circle cx="2.0205332551" cy="-0.6191529720" r="2" />
	<circle cx="500.0000510116" cy="-863.6626007781" r="2" />
	<circle cx="1000.0000000000" cy="-0.0000000000" r="2" />
	<circle cx="499.9999999915" cy="-866.0254031415" r="2" />
	<circle cx="500.0000000000" cy="-866.0254038000" r="2" />
	<circle cx="501.1201254807" cy="-860.0689884604" r="2" />
	<circle cx="114.3574468315" cy="-38.4673337215" r="2" />
	<circle cx="0.0000000000" cy="-0.0000000000" r="2" />
	<circle cx="1000.0000000000" cy="-0.0000000000" r="2" />
	<circle cx="498.8031426431" cy="-274.5383363061" r="2" />
	<circle cx="182.9702045549" cy="-105.6167971841" r="2" />
	<circle cx="0.0000000000" cy="-0.0000000000" r="2" />
	<circle cx="500.0000000000" cy="-866.0254038000" r="2" />
	<circle cx="499.9999999999" cy="-866.0254024956" r="2" />
	<circle cx="0.0000000000" cy="-0.0000000000" r="2" />
	<circle cx="998.6056841870" cy="-0.8049446091" r="2" />
	<circle cx="500.0000000000" cy="-866.0254038000" r="2" />
	<circle cx="498.3528191668" cy="-860.4059381075" r="2" />
	<circle cx="500.0000000000" cy="-866.0254038000" r="2" />
	<circle cx="500.0000000000" cy="-866.0254038000" r="2" />
	<circle cx="0.9961722880" cy="-0.5741232958" r="2" />
	<circle cx="1000.0000000000" cy="-0.0000000000" r="2" />
	<circle cx="1000.0000000000" cy="-0.0000000000" r="2" />
	<circle cx="1000.0000000000" cy="-0.0000000000" r="2" />
	<circle cx="0.0000000025" cy="-0.0000000015" r="2" />
	<circle cx="2.1456813482" cy="-1.2388096851" r="2" />
	<circle cx="0.0000000000" cy="-0.0000000000" r="2" />
	<circle cx="500.0000000000" cy="-866.0254003297" r="2" />
	<circle cx="500.0000000000" cy="-866.0254037982" r="2" />
	<circle cx="500.0000000000" cy="-866.0254038000" r="2" />
	<circle cx="0.0000000000" cy="-0.0000000000" r="2" />
	<circle cx="500.0000000000" cy="-866.0254038000" r="2" />
	<circle cx="494.8100785296" cy="-828.4149519789" r="2" />
	<circle cx="999.9999999975" cy="-0.0000000015" r="2" />
	<circle cx="1000.0000000000" cy="-0.0000000000" r="2" />
	<circle cx="0.0000001630" cy="-0.0000000262" r="2" />
	<circle cx="1000.0000000000" cy="-0.0000000000" r="2" />
	<circle cx="500.0000000000" cy="-866.0253310057" r="2" />
	<circle cx="500.0000000000" cy="-866.0254038000" r="2" />
	<circle cx="1000.0000000000" cy="-0.0000000000" r="2" />
	<circle cx="500.0000000000" cy="-866.0254038000" r="2" />
	<circle cx="500.0000000000" cy="-866.0254038000" r="2" />
	<circle cx="1000.0000000000" cy="-0.0000000000" r="2" />
	<circle cx="500.0000000000" cy="-866.0254038000" r="2" />
	<circle cx="499.9210513150" cy="-360.9109872089" r="2" />
	<circle cx="0.0000000000" cy="-0.0000000000" r="2" />
	<circle cx="500.0000000000" cy="-866.0254038000" r="2" />
	<circle cx="998.6609186781" cy="-0.7974109468" r="2" />
	<circle cx="500.0000000000" cy="-866.0254038000" r="2" />
	<circle cx="0.3570339683" cy="-0.2909537694" r="2" />
	<circle cx="1000.0000000000" cy="-0.0000000000" r="2" />
	<circle cx="0.0000000000" cy="-0.0000000000" r="2" />
	<circle cx="500.0000000000" cy="-866.0254038000" r="2" />
	<circle cx="999.9999961544" cy="-0.0000022166" r="2" />
	<circle cx="0.0000000000" cy="-0.0000000000" r="2" />
	<circle cx="0.0000000000" cy="-0.0000000000" r="2" />
	<circle cx="999.9999992874" cy="-0.0000004115" r="2" />
	<circle cx="499.9347832421" cy="-275.5752024891" r="2" />
	<circle cx="500.0672239788" cy="-288.6363210719" r="2" />
	<circle cx="0.0000000000" cy="-0.0000000000" r="2" />
	<circle cx="500.0000000000" cy="-866.0254038000" r="2" />
	<circle cx="1000.0000000000" cy="-0.0000000000" r="2" />
	<circle cx="0.0000000000" cy="-0.0000000000" r="2" />
	<circle cx="0.0000000000" cy="-0.0000000000" r="2" />
	<circle cx="500.0000000000" cy="-866.0254038000" r="2" />
	<circle cx="0.0000000000" cy="-0.0000000000" r="2" />
	<circle cx="500.0000045971" cy="-865.9979100517" r="2" />
	<circle cx="499.9999998221" cy="-866.0254028509" r="2" />
	<circle cx="564.1560835571" cy="-251.7570402582" r="2" />
	<circle cx="0.0000007402" cy="-0.0000002554" r="2" />
	<circle cx="999.9929346682" cy="-0.0040800605" r="2" />
	<circle cx="999.9999999981" cy="-0.0000000011" r="2" />
	<circle cx="0.0000000000" cy="-0.0000000000" r="2" />
	<circle cx="499.9999998499" cy="-866.0253813986" r="2" />
	<circle cx="1000.0000000000" cy="-0.0000000000" r="2" />
	<circle cx="999.9983100504" cy="-0.0009758079" r="2" />
	<circle cx="500.0000000000" cy="-866.0254038000" r="2" />
	<circle cx="556.4311083256" cy="-755.0613188819" r="2" />
	<circle cx="500.0000000000" cy="-866.0254038000" r="2" />
	<circle cx="0.0000000000" cy="-0.0000000000" r="2" />
	<circle cx="999.9999892866" cy="-0.0000061831" r="2" />
	<circle cx="499.9288064125" cy="-833.0088487989" r="2" />
	<circle cx="0.0838241503" cy="-0.0483958958" r="2" />
	<circle cx="25.4804751950" cy="-15.4994043493" r="2" />
	<circle cx="500.0000000000" cy="-866.0254038000" r="2" />
	<circle cx="0.0025806676" cy="-0.0014897832" r="2" />
	<circle cx="1000.0000000000" cy="-0.0000000000" r="2" />
	<circle cx="999.9999997052" cy="-0.0000001702" r="2" />
	<circle cx="1.6322388373" cy="-0.9422534792" r="2" />
	<circle cx="999.9678489890" cy="-0.0184819186" r="2" />
	<circle cx="0.0000000000" cy="-0.0000000000" r="2" />
	<circle cx="1000.0000000000" cy="-0.0000000000" r="2" />
	<circle cx="999.4257496974" cy="-0.5018187032" r="2" />
	<circle cx="0.0000000000" cy="-0.0000000000" r="2" />
	<circle cx="996.1807607679" cy="-2.2052871698" r="2" />
	<circle cx="500.0000000000" cy="-866.0254038000" r="2" />
	<circle cx="0.0000000009" cy="-0.0000000005" r="2" />
	<circle cx="999.9999999978" cy="-0.0000000013" r="2" />
	<circle cx="0.0864303785" cy="-0.0399684697" r="2" />
	<circle cx="0.0000000000" cy="-0.0000000000" r="2" />
  </g>
  <g id="fig2" transform="translate(-550.0,1000)">
	<polygon points="0.0,-0.0 1000.0,-0.0 500.0,-866.0254038" />
	<line
	   id="line2-1"
	   y2="-0.0"
	   x2="500"
	   y1="-288.6751346"
	   x1="500" />
	<line
	   id="line2-2"
	   y2="-433.0127019"
	   x2="250"
	   y1="-288.6751346"
	   x1="500" />
	<line
	   id="line2-3"
	   y2="-433.0127019"
	   x2="750"
	   y1="-288.6751346"
	   x1="500" />
	<text
	   x="440"
	   y="-500"
	   id="up_2">33.4%</text>
	<text
	   x="250"
	   y="-150"
	   id="down_left_2">35.0%</text>
	<text
	   x="630"
	   y="-150"
	   id="down_right_2">31.6%</text>
  </g>
  <g id="fig3" transform="translate(550,1000)">
	<polygon points="0.0,-0.0 1000.0,-0.0 500.0,-866.0254038" />
	<polygon id="triangle3b" points="250,-144.3375673 750,-144.3375673 500,-577.3502692" />
	<line
	   id="line3-1"
	   x1="125"
	   y1="-216.5063509"
	   x2="250"
	   y2="-144.3375673" />
	<line
	   id="line3-2"
	   x1="375"
	   y1="-649.5190528"
	   x2="500"
	   y2="-577.3502692" />
	<line
	   id="line3-3"
	   x1="625"
	   y1="-649.5190528"
	   x2="500"
	   y2="-577.3502692" />
	<line
	   id="line3-4"
	   x1="875"
	   y1="-216.5063509"
	   x2="750"
	   y2="-144.3375673" />
	<line
	   id="line3-5"
	   x1="750"
	   y1="-0.0"
	   x2="750"
	   y2="-144.3375673" />
	<line
	   id="line3-6"
	   x1="250"
	   y1="-0.0"
	   x2="250"
	   y2="-144.3375673" />
	<text
	   x="500"
	   y="-660"
	   text-anchor="middle"
	   id="up_3">30.0%</text>
	<text
	   y="-50"
	   x="70"
	   id="down_left_3">32.0%</text>
	<text
	   y="-50"
	   x="770"
	   id="down_right_3">29.0%</text>
	<text
	   x="500"
	   y="-50"
	   text-anchor="middle"
	   id="down_side_3">0.2%</text>
	<text
	   x="500"
	   y="-280"
	   text-anchor="middle"
	   id="center_3">8.2%</text>
	<text
	   x="685.0"
	   y="-390.8439"
	   text-anchor="middle"
	   transform="rotate(60,665.0,-380.8439)"
	   id="right_side_3">0.6%</text>
	<text
	   x="315.0"
	   y="-390.8439"
	   text-anchor="middle"
	   transform="rotate(-60,335.0,-380.8439)"
	   id="left_side_3">0.0%</text>
  </g>
</g></g>
</svg>
