<?xml version="1.0" encoding="UTF-8" standalone="no"?>
<!DOCTYPE svg PUBLIC "-//W3C//DTD SVG 1.1//EN" "http://www.w3.org/Graphics/SVG/1.1/DTD/svg11.dtd">
<svg
   xmlns:svg="http://www.w3.org/2000/svg"
   xmlns="http://www.w3.org/2000/svg"
   xmlns:xlink="http://www.w3.org/1999/xlink"
   version="1.1"
   baseProfile="full"
   id="body"
   width="800px"
   height="800px"
   viewBox="0 0 1000 1000"
   preserveAspectRatio="none">
  <defs>
    <style type="text/css"><![CDATA[
      circle{ stroke: none; }
      polygon{ stroke: black; stroke-width: 2px; fill: none; }
      line{ stroke: black; stroke-width: 2px; }
      text{ font-size:50px; }
    ]]></style>
  </defs>
  <title
     id="title1">SVG drawing</title>
<g transform="scale(0.45)"><g transform="translate(600,1050)">
  <g id="fig1">
	<polygon points="0.0,-0.0 1000.0,-0.0 500,-866.0254038" />
	<circle cx="500.0000003662" cy="-866.0254025931" r="2" />
	<circle cx="336.5002955838" cy="-193.4087330582" r="2" />
	<circle cx="493.4614101979" cy="-303.6318708894" r="2" />
	<circle cx="999.9999404018" cy="-0.0000344471" r="2" />
	<circle cx="28.8760226385" cy="-0.7978943848" r="2" />
	<circle cx="958.5639624368" cy="-71.6195055373" r="2" />
	<circle cx="500.0000000000" cy="-866.0254038000" r="2" />
	<circle cx="787.2835116459" cy="-264.0343653544" r="2" />
	<circle cx="0.5370229838" cy="-0.3103194283" r="2" />
	<circle cx="500.0966279665" cy="-288.4323913739" r="2" />
	<circle cx="0.0000000000" cy="-0.0000000000" r="2" />
	<circle cx="0.1565904801" cy="-0.1810136582" r="2" />
	<circle cx="999.9999999982" cy="-0.0000000010" r="2" />
	<circle cx="1000.0000000000" cy="-0.0000000000" r="2" />
	<circle cx="506.0025748444" cy="-326.1829953344" r="2" />
	<circle cx="79.6995106274" cy="-137.0674981536" r="2" />
	<circle cx="1000.0000000000" cy="-0.0000000000" r="2" />
	<circle cx="986.5252846388" cy="-7.7796148670" r="2" />
	<circle cx="506.7779469036" cy="-243.4444598817" r="2" />
	<circle cx="500.0009609627" cy="-850.4634214620" r="2" />
	<circle cx="999.9749375591" cy="-0.0080032152" r="2" />
	<circle cx="500.0000000000" cy="-866.0254038000" r="2" />
	<circle cx="47.3043450039" cy="-76.6586462746" r="2" />
	<circle cx="999.9999992851" cy="-0.0000000008" r="2" />
	<circle cx="0.0000000100" cy="-0.0000000171" r="2" />
	<circle cx="1000.0000000000" cy="-0.0000000000" r="2" />
	<circle cx="499.9999809219" cy="-866.0250771592" r="2" />
	<circle cx="500.0000000000" cy="-866.0254038000" r="2" />
	<circle cx="999.9999999976" cy="-0.0000000000" r="2" />
	<circle cx="1000.0000000000" cy="-0.0000000000" r="2" />
	<circle cx="1000.0000000000" cy="-0.0000000000" r="2" />
	<circle cx="500.0152931535" cy="-865.9684723894" r="2" />
	<circle cx="508.7202703703" cy="-840.3042627438" r="2" />
	<circle cx="1000.0000000000" cy="-0.0000000000" r="2" />
	<circle cx="1000.0000000000" cy="-0.0000000000" r="2" />
	<circle cx="372.4930627003" cy="-641.8616527209" r="2" />
	<circle cx="500.0000003926" cy="-866.0211510903" r="2" />
	<circle cx="1000.0000000000" cy="-0.0000000000" r="2" />
	<circle cx="1000.0000000000" cy="-0.0000000000" r="2" />
	<circle cx="1000.0000000000" cy="-0.0000000000" r="2" />
	<circle cx="500.0000000000" cy="-866.0254038000" r="2" />
	<circle cx="999.9999894367" cy="-0.0000108188" r="2" />
	<circle cx="0.0000000000" cy="-0.0000000000" r="2" />
	<circle cx="0.0000000028" cy="-0.0000000049" r="2" />
	<circle cx="1000.0000000000" cy="-0.0000000000" r="2" />
	<circle cx="0.0001120964" cy="-0.0001359400" r="2" />
	<circle cx="485.4021381922" cy="-393.7039240563" r="2" />
	<circle cx="509.7421846761" cy="-283.1083588471" r="2" />
	<circle cx="1000.0000000000" cy="-0.0000000000" r="2" />
	<circle cx="500.0000000000" cy="-866.0254038000" r="2" />
	<circle cx="795.8915931611" cy="-117.7967571357" r="2" />
	<circle cx="500.0001628394" cy="-864.8878968759" r="2" />
	<circle cx="500.0000000002" cy="-866.0254015259" r="2" />
	<circle cx="500.0000000000" cy="-866.0254038000" r="2" />
	<circle cx="1000.0000000000" cy="-0.0000000000" r="2" />
	<circle cx="0.0000000000" cy="-0.0000000000" r="2" />
	<circle cx="1000.0000000000" cy="-0.0000000000" r="2" />
	<circle cx="0.0000000688" cy="-0.0000000397" r="2" />
	<circle cx="1000.0000000000" cy="-0.0000000000" r="2" />
	<circle cx="499.9994073745" cy="-864.3678316307" r="2" />
	<circle cx="0.3177666365" cy="-0.1409760508" r="2" />
	<circle cx="999.9999858084" cy="-0.0000081936" r="2" />
	<circle cx="0.0000000000" cy="-0.0000000000" r="2" />
	<circle cx="0.0936494721" cy="-0.0540528842" r="2" />
	<circle cx="0.0215736051" cy="-0.0128777220" r="2" />
	<circle cx="0.0000000000" cy="-0.0000000000" r="2" />
	<circle cx="1000.0000000000" cy="-0.0000000000" r="2" />
	<circle cx="0.0000000006" cy="-0.0000000003" r="2" />
	<circle cx="1000.0000000000" cy="-0.0000000000" r="2" />
	<circle cx="500.0000000000" cy="-866.0254038000" r="2" />
	<circle cx="67.5104280281" cy="-14.2674881069" r="2" />
	<circle cx="0.0059831507" cy="-0.0061540542" r="2" />
	<circle cx="999.9229426753" cy="-0.0444933193" r="2" />
	<circle cx="0.0000000000" cy="-0.0000000000" r="2" />
	<circle cx="0.0870808907" cy="-0.0694015720" r="2" />
	<circle cx="538.2663454253" cy="-266.6867213775" r="2" />
	<circle cx="1000.0000000000" cy="-0.0000000000" r="2" />
	<circle cx="500.0437588274" cy="-865.7004238890" r="2" />
	<circle cx="500.0000000000" cy="-866.0254038000" r="2" />
	<circle cx="500.0025186340" cy="-857.9273623605" r="2" />
	<circle cx="998.2552100221" cy="-2.5270083231" r="2" />
	<circle cx="500.0000000000" cy="-866.0254038000" r="2" />
	<circle cx="999.9995563770" cy="-0.0000127026" r="2" />
	<circle cx="500.0000000000" cy="-866.0254038000" r="2" />
	<circle cx="515.1829995586" cy="-836.4836337675" r="2" />
	<circle cx="1000.0000000000" cy="-0.0000000000" r="2" />
	<circle cx="0.0000000000" cy="-0.0000000000" r="2" />
	<circle cx="999.9999999980" cy="-0.0000000013" r="2" />
	<circle cx="500.0000000000" cy="-866.0254038000" r="2" />
	<circle cx="1000.0000000000" cy="-0.0000000000" r="2" />
	<circle cx="0.0000000000" cy="-0.0000000000" r="2" />
	<circle cx="1000.0000000000" cy="-0.0000000000" r="2" />
	<circle cx="0.0000000000" cy="-0.0000000000" r="2" />
	<circle cx="0.0000000000" cy="-0.0000000000" r="2" />
	<circle cx="1000.0000000000" cy="-0.0000000000" r="2" />
	<circle cx="500.0000000000" cy="-866.0254038000" r="2" />
	<circle cx="0.0000000000" cy="-0.0000000000" r="2" />
	<circle cx="0.0129049285" cy="-0.0074510745" r="2" />
	<circle cx="491.1671399997" cy="-849.5370175971" r="2" />
	<circle cx="1000.0000000000" cy="-0.0000000000" r="2" />
	<circle cx="47.3182101440" cy="-7.4937185063" r="2" />
	<circle cx="0.0000000000" cy="-0.0000000000" r="2" />
	<circle cx="1000.0000000000" cy="-0.0000000000" r="2" />
	<circle cx="0.0000000000" cy="-0.0000000000" r="2" />
	<circle cx="1000.0000000000" cy="-0.0000000000" r="2" />
	<circle cx="500.0000000560" cy="-866.0252241514" r="2" />
	<circle cx="499.9999202165" cy="-866.0131879341" r="2" />
	<circle cx="499.9839647893" cy="-865.9973472955" r="2" />
	<circle cx="0.0000000000" cy="-0.0000000000" r="2" />
	<circle cx="500.0000000000" cy="-866.0254038000" r="2" />
	<circle cx="499.9997439415" cy="-866.0055284330" r="2" />
	<circle cx="0.0000000000" cy="-0.0000000000" r="2" />
	<circle cx="33.1710838576" cy="-1.6216987118" r="2" />
	<circle cx="1000.0000000000" cy="-0.0000000000" r="2" />
	<circle cx="142.4676068606" cy="-4.9220504118" r="2" />
	<circle cx="431.6712338500" cy="-23.8650200036" r="2" />
	<circle cx="500.0000000000" cy="-866.0254038000" r="2" />
	<circle cx="1000.0000000000" cy="-0.0000000000" r="2" />
	<circle cx="0.0000000000" cy="-0.0000000000" r="2" />
	<circle cx="823.3791824375" cy="-158.8797082678" r="2" />
	<circle cx="0.0000000000" cy="-0.0000000000" r="2" />
	<circle cx="389.5190747505" cy="-0.0005842107" r="2" />
	<circle cx="0.0000000000" cy="-0.0000000000" r="2" />
	<circle cx="0.0000000000" cy="-0.0000000000" r="2" />
	<circle cx="999.9999999958" cy="-0.0000000024" r="2" />
	<circle cx="500.0000000000" cy="-866.0254038000" r="2" />
	<circle cx="1.3092756176" cy="-0.4498770851" r="2" />
	<circle cx="500.0000000000" cy="-866.0254038000" r="2" />
	<circle cx="548.2955145821" cy="-632.2569428697" r="2" />
	<circle cx="0.0000000000" cy="-0.0000000000" r="2" />
	<circle cx="596.4313164877" cy="-257.8381085668" r="2" />
	<circle cx="1000.0000000000" cy="-0.0000000000" r="2" />
	<circle cx="0.0000000000" cy="-0.0000000000" r="2" />
	<circle cx="500.4871347967" cy="-862.0778076982" r="2" />
	<circle cx="0.0000000000" cy="-0.0000000000" r="2" />
	<circle cx="1000.0000000000" cy="-0.0000000000" r="2" />
	<circle cx="395.0190854078" cy="-228.1393318048" r="2" />
	<circle cx="0.0000000000" cy="-0.0000000000" r="2" />
	<circle cx="500.0000811603" cy="-866.0251353234" r="2" />
	<circle cx="999.9999460339" cy="-0.0000306332" r="2" />
	<circle cx="502.2038260442" cy="-855.3845497625" r="2" />
	<circle cx="992.2697572308" cy="-0.1269932019" r="2" />
	<circle cx="500.0000000000" cy="-866.0254038000" r="2" />
	<circle cx="500.0000000000" cy="-866.0254038000" r="2" />
	<circle cx="534.2221606845" cy="-272.3517689344" r="2" />
	<circle cx="999.9876761152" cy="-0.0071183335" r="2" />
	<circle cx="500.0000002094" cy="-866.0253879474" r="2" />
	<circle cx="0.0325670345" cy="-0.0411346931" r="2" />
	<circle cx="479.4750203228" cy="-830.4750541158" r="2" />
	<circle cx="1000.0000000000" cy="-0.0000000000" r="2" />
	<circle cx="0.0000000000" cy="-0.0000000000" r="2" />
	<circle cx="1000.0000000000" cy="-0.0000000000" r="2" />
	<circle cx="1000.0000000000" cy="-0.0000000000" r="2" />
	<circle cx="999.9994044967" cy="-0.0002571103" r="2" />
	<circle cx="999.9215434931" cy="-0.0432439633" r="2" />
	<circle cx="0.0000000000" cy="-0.0000000000" r="2" />
	<circle cx="0.0000000000" cy="-0.0000000000" r="2" />
	<circle cx="500.0000000000" cy="-866.0254037999" r="2" />
	<circle cx="0.0000000044" cy="-0.0000000026" r="2" />
	<circle cx="1000.0000000000" cy="-0.0000000000" r="2" />
	<circle cx="999.9999997138" cy="-0.0000004934" r="2" />
	<circle cx="0.0000000000" cy="-0.0000000000" r="2" />
	<circle cx="0.0000000000" cy="-0.0000000000" r="2" />
	<circle cx="500.0000000000" cy="-866.0254038000" r="2" />
	<circle cx="500.0000000000" cy="-866.0254038000" r="2" />
	<circle cx="1000.0000000000" cy="-0.0000000000" r="2" />
	<circle cx="1000.0000000000" cy="-0.0000000000" r="2" />
	<circle cx="0.0154998697" cy="-0.0046120306" r="2" />
	<circle cx="500.0000000000" cy="-866.0254038000" r="2" />
	<circle cx="500.0000000000" cy="-866.0254038000" r="2" />
	<circle cx="864.9941829780" cy="-192.1706854712" r="2" />
	<circle cx="0.0000000000" cy="-0.0000000000" r="2" />
	<circle cx="0.0000000000" cy="-0.0000000000" r="2" />
	<circle cx="499.9999999996" cy="-866.0254027018" r="2" />
	<circle cx="999.8877415418" cy="-0.1741176456" r="2" />
	<circle cx="999.9996357707" cy="-0.0002100561" r="2" />
	<circle cx="1000.0000000000" cy="-0.0000000000" r="2" />
	<circle cx="500.0000000853" cy="-866.0254022653" r="2" />
	<circle cx="1000.0000000000" cy="-0.0000000000" r="2" />
	<circle cx="1000.0000000000" cy="-0.0000000000" r="2" />
	<circle cx="999.8244541058" cy="-0.1014456267" r="2" />
	<circle cx="535.0769440228" cy="-268.5566442054" r="2" />
	<circle cx="0.3804193103" cy="-0.6477507984" r="2" />
	<circle cx="0.0000000000" cy="-0.0000000000" r="2" />
	<circle cx="472.2642395575" cy="-654.5562621261" r="2" />
	<circle cx="500.0000000000" cy="-866.0254038000" r="2" />
	<circle cx="0.0819636149" cy="-0.0342386054" r="2" />
	<circle cx="999.9999999690" cy="-0.0000000186" r="2" />
	<circle cx="499.9999999960" cy="-866.0254037930" r="2" />
	<circle cx="999.9999494717" cy="-0.0000274418" r="2" />
	<circle cx="999.9894015795" cy="-0.0160454082" r="2" />
	<circle cx="0.0000000000" cy="-0.0000000000" r="2" />
	<circle cx="57.9650953681" cy="-1.7542879967" r="2" />
	<circle cx="999.9998397321" cy="-0.0000924940" r="2" />
	<circle cx="500.0000035534" cy="-866.0004230700" r="2" />
	<circle cx="0.0000000000" cy="-0.0000000000" r="2" />
	<circle cx="999.9991989987" cy="-0.0004621826" r="2" />
	<circle cx="500.0000000000" cy="-866.0254038000" r="2" />
	<circle cx="557.2497651944" cy="-666.2398200131" r="2" />
	<circle cx="0.0000000000" cy="-0.0000000000" r="2" />
	<circle cx="499.9999999998" cy="-866.0254037888" r="2" />
	<circle cx="500.0000000000" cy="-866.0254038000" r="2" />
	<circle cx="418.6820688697" cy="-241.6239848583" r="2" />
	<circle cx="500.0000000000" cy="-866.0254038000" r="2" />
	<circle cx="0.0000000000" cy="-0.0000000000" r="2" />
	<circle cx="999.9999890157" cy="-0.0000060911" r="2" />
	<circle cx="0.0000000000" cy="-0.0000000000" r="2" />
	<circle cx="0.0000000000" cy="-0.0000000000" r="2" />
	<circle cx="999.9999999642" cy="-0.0000000207" r="2" />
	<circle cx="998.0404268261" cy="-0.1151605259" r="2" />
	<circle cx="500.0000000000" cy="-866.0254038000" r="2" />
	<circle cx="500.0001273385" cy="-866.0209401879" r="2" />
	<circle cx="999.9996840137" cy="-0.0000004933" r="2" />
	<circle cx="0.0000000000" cy="-0.0000000000" r="2" />
	<circle cx="0.0000000000" cy="-0.0000000000" r="2" />
	<circle cx="0.0000000181" cy="-0.0000000104" r="2" />
	<circle cx="1000.0000000000" cy="-0.0000000000" r="2" />
	<circle cx="839.2547101166" cy="-69.7956914548" r="2" />
	<circle cx="0.0000000000" cy="-0.0000000000" r="2" />
	<circle cx="1000.0000000000" cy="-0.0000000000" r="2" />
	<circle cx="1000.0000000000" cy="-0.0000000000" r="2" />
	<circle cx="500.0000000000" cy="-866.0254038000" r="2" />
	<circle cx="999.9999873963" cy="-0.0000000050" r="2" />
	<circle cx="999.9653952047" cy="-0.0199823040" r="2" />
	<circle cx="0.0000000000" cy="-0.0000000000" r="2" />
	<circle cx="499.9997266360" cy="-866.0231696554" r="2" />
	<circle cx="1000.0000000000" cy="-0.0000000000" r="2" />
	<circle cx="999.9995782445" cy="-0.0002461376" r="2" />
	<circle cx="999.8928920493" cy="-0.0618829769" r="2" />
	<circle cx="500.0000000000" cy="-866.0254038000" r="2" />
	<circle cx="0.3795220700" cy="-0.3429222323" r="2" />
	<circle cx="0.0000447415" cy="-0.0000258442" r="2" />
	<circle cx="999.6446808255" cy="-0.4384379805" r="2" />
	<circle cx="999.8532059434" cy="-0.0004803449" r="2" />
	<circle cx="0.0000000000" cy="-0.0000000000" r="2" />
	<circle cx="953.8921685610" cy="-51.3291465877" r="2" />
	<circle cx="0.0000000000" cy="-0.0000000000" r="2" />
	<circle cx="1000.0000000000" cy="-0.0000000000" r="2" />
	<circle cx="0.0000000001" cy="-0.0000000000" r="2" />
	<circle cx="500.0000000000" cy="-866.0254038000" r="2" />
	<circle cx="1000.0000000000" cy="-0.0000000000" r="2" />
	<circle cx="500.0000000000" cy="-866.0254038000" r="2" />
	<circle cx="500.0000000000" cy="-866.0254038000" r="2" />
	<circle cx="502.5164145626" cy="-742.6041881950" r="2" />
	<circle cx="0.0000000000" cy="-0.0000000000" r="2" />
	<circle cx="1000.0000000000" cy="-0.0000000000" r="2" />
	<circle cx="499.9983330895" cy="-866.0197125338" r="2" />
	<circle cx="0.0000000000" cy="-0.0000000000" r="2" />
	<circle cx="428.9530640727" cy="-675.2644432334" r="2" />
	<circle cx="1000.0000000000" cy="-0.0000000000" r="2" />
	<circle cx="0.0000000206" cy="-0.0000000119" r="2" />
	<circle cx="500.0000000000" cy="-866.0254038000" r="2" />
	<circle cx="0.0037441661" cy="-0.0021677541" r="2" />
	<circle cx="0.0039170250" cy="-0.0024088661" r="2" />
	<circle cx="0.0000000000" cy="-0.0000000000" r="2" />
	<circle cx="0.0000000000" cy="-0.0000000000" r="2" />
	<circle cx="500.0000000000" cy="-866.0254038000" r="2" />
	<circle cx="1000.0000000000" cy="-0.0000000000" r="2" />
	<circle cx="0.1330786715" cy="-0.0679956718" r="2" />
	<circle cx="0.0000000000" cy="-0.0000000000" r="2" />
	<circle cx="500.0000000000" cy="-866.0254038000" r="2" />
	<circle cx="499.9921730048" cy="-865.7728767837" r="2" />
	<circle cx="499.9999901625" cy="-866.0252202386" r="2" />
	<circle cx="0.0000000000" cy="-0.0000000000" r="2" />
	<circle cx="1000.0000000000" cy="-0.0000000000" r="2" />
	<circle cx="999.9999998440" cy="-0.0000001539" r="2" />
	<circle cx="500.0000122081" cy="-866.0253244352" r="2" />
	<circle cx="500.0000000000" cy="-866.0254038000" r="2" />
	<circle cx="1000.0000000000" cy="-0.0000000000" r="2" />
	<circle cx="0.0000000000" cy="-0.0000000000" r="2" />
	<circle cx="500.0000000000" cy="-866.0254038000" r="2" />
	<circle cx="500.0000000000" cy="-866.0254038000" r="2" />
	<circle cx="1000.0000000000" cy="-0.0000000000" r="2" />
	<circle cx="500.0000000000" cy="-866.0254038000" r="2" />
	<circle cx="499.8213523087" cy="-860.9558841273" r="2" />
	<circle cx="500.0000000000" cy="-866.0254038000" r="2" />
	<circle cx="1000.0000000000" cy="-0.0000000000" r="2" />
	<circle cx="0.0000000000" cy="-0.0000000000" r="2" />
	<circle cx="1000.0000000000" cy="-0.0000000000" r="2" />
	<circle cx="1000.0000000000" cy="-0.0000000000" r="2" />
	<circle cx="391.6618948308" cy="-279.4515210553" r="2" />
	<circle cx="992.4758400069" cy="-1.6129650580" r="2" />
	<circle cx="499.9966707959" cy="-865.8818161812" r="2" />
	<circle cx="519.7639826207" cy="-253.1676554711" r="2" />
	<circle cx="714.7395524530" cy="-456.1449981350" r="2" />
	<circle cx="0.0000000003" cy="-0.0000000002" r="2" />
	<circle cx="0.0000000000" cy="-0.0000000000" r="2" />
	<circle cx="862.3386292467" cy="-79.4769997876" r="2" />
	<circle cx="1000.0000000000" cy="-0.0000000000" r="2" />
	<circle cx="935.7620203737" cy="-37.1157320862" r="2" />
	<circle cx="500.0000000000" cy="-866.0254038000" r="2" />
	<circle cx="0.0000000000" cy="-0.0000000000" r="2" />
	<circle cx="500.0000000000" cy="-866.0254038000" r="2" />
	<circle cx="142.4674936651" cy="-4.9218368568" r="2" />
	<circle cx="0.0000000000" cy="-0.0000000000" r="2" />
	<circle cx="1000.0000000000" cy="-0.0000000000" r="2" />
	<circle cx="0.0003138488" cy="-0.0002386379" r="2" />
	<circle cx="1000.0000000000" cy="-0.0000000000" r="2" />
	<circle cx="0.0000000004" cy="-0.0000000002" r="2" />
	<circle cx="0.0000000000" cy="-0.0000000000" r="2" />
	<circle cx="0.0000000000" cy="-0.0000000000" r="2" />
	<circle cx="1000.0000000000" cy="-0.0000000000" r="2" />
	<circle cx="0.4367975303" cy="-0.2589368245" r="2" />
	<circle cx="499.9472835389" cy="-315.7043863588" r="2" />
	<circle cx="999.9999960719" cy="-0.0000000014" r="2" />
	<circle cx="486.1546952220" cy="-353.4876761826" r="2" />
	<circle cx="500.0000000000" cy="-866.0254038000" r="2" />
	<circle cx="756.7136414829" cy="-140.3835165399" r="2" />
	<circle cx="500.0000000000" cy="-866.0254037897" r="2" />
	<circle cx="1000.0000000000" cy="-0.0000000000" r="2" />
	<circle cx="500.0000000000" cy="-866.0254038000" r="2" />
	<circle cx="0.0000000000" cy="-0.0000000000" r="2" />
	<circle cx="390.5898895850" cy="-179.9655512730" r="2" />
	<circle cx="520.1477306774" cy="-253.3562332558" r="2" />
	<circle cx="0.0000008439" cy="-0.0000000010" r="2" />
	<circle cx="0.0000000000" cy="-0.0000000000" r="2" />
	<circle cx="0.0819813607" cy="-0.0342175961" r="2" />
	<circle cx="0.0000000000" cy="-0.0000000000" r="2" />
	<circle cx="499.9999999194" cy="-866.0249718342" r="2" />
	<circle cx="500.0000000000" cy="-866.0254038000" r="2" />
	<circle cx="500.0000000000" cy="-866.0254037973" r="2" />
	<circle cx="0.0003160018" cy="-0.0000004932" r="2" />
	<circle cx="0.9138632833" cy="-0.4916706344" r="2" />
	<circle cx="500.0000000000" cy="-866.0254038000" r="2" />
	<circle cx="500.0000064291" cy="-866.0252781456" r="2" />
	<circle cx="1000.0000000000" cy="-0.0000000000" r="2" />
	<circle cx="0.0000000000" cy="-0.0000000000" r="2" />
	<circle cx="0.0000079058" cy="-0.0000042392" r="2" />
	<circle cx="0.0000000000" cy="-0.0000000000" r="2" />
	<circle cx="999.8547448900" cy="-0.0844849234" r="2" />
	<circle cx="1.3798386163" cy="-0.7969402201" r="2" />
	<circle cx="500.0000000000" cy="-866.0254038000" r="2" />
	<circle cx="1000.0000000000" cy="-0.0000000000" r="2" />
	<circle cx="203.1121854809" cy="-117.3741330719" r="2" />
	<circle cx="1000.0000000000" cy="-0.0000000000" r="2" />
	<circle cx="376.0005677192" cy="-207.4136000116" r="2" />
	<circle cx="1000.0000000000" cy="-0.0000000000" r="2" />
	<circle cx="0.0000000000" cy="-0.0000000000" r="2" />
	<circle cx="0.1663541280" cy="-0.0944833050" r="2" />
	<circle cx="0.0000000000" cy="-0.0000000000" r="2" />
	<circle cx="499.9882531185" cy="-865.1211673582" r="2" />
	<circle cx="1000.0000000000" cy="-0.0000000000" r="2" />
	<circle cx="500.0016626694" cy="-863.0723431392" r="2" />
	<circle cx="452.6584991713" cy="-261.2102556489" r="2" />
	<circle cx="500.0000000000" cy="-866.0254038000" r="2" />
	<circle cx="0.0000041981" cy="-0.0000024234" r="2" />
	<circle cx="499.9999997394" cy="-866.0228565072" r="2" />
	<circle cx="483.8876313194" cy="-280.2829239566" r="2" />
	<circle cx="0.0000000000" cy="-0.0000000000" r="2" />
	<circle cx="0.0000000000" cy="-0.0000000000" r="2" />
	<circle cx="1000.0000000000" cy="-0.0000000000" r="2" />
	<circle cx="500.0000000000" cy="-866.0254038000" r="2" />
	<circle cx="0.0000000001" cy="-0.0000000000" r="2" />
	<circle cx="500.0000000000" cy="-866.0254038000" r="2" />
	<circle cx="0.0000000000" cy="-0.0000000000" r="2" />
	<circle cx="500.0000000000" cy="-866.0254038000" r="2" />
	<circle cx="499.9369997805" cy="-865.3397491207" r="2" />
	<circle cx="504.6618538772" cy="-856.1289142677" r="2" />
	<circle cx="500.0000000000" cy="-866.0254038000" r="2" />
	<circle cx="500.0000000000" cy="-866.0254038000" r="2" />
	<circle cx="999.9999701224" cy="-0.0000516879" r="2" />
	<circle cx="500.0000000000" cy="-866.0254038000" r="2" />
	<circle cx="0.0091070878" cy="-0.0000778574" r="2" />
	<circle cx="1000.0000000000" cy="-0.0000000000" r="2" />
	<circle cx="1000.0000000000" cy="-0.0000000000" r="2" />
	<circle cx="500.0000000000" cy="-866.0254038000" r="2" />
	<circle cx="500.0000000000" cy="-866.0254038000" r="2" />
	<circle cx="0.0000000000" cy="-0.0000000000" r="2" />
	<circle cx="1000.0000000000" cy="-0.0000000000" r="2" />
	<circle cx="999.9894000278" cy="-0.0160477588" r="2" />
	<circle cx="999.9481907825" cy="-0.0299163218" r="2" />
	<circle cx="500.0000000000" cy="-866.0254038000" r="2" />
	<circle cx="0.0000000000" cy="-0.0000000000" r="2" />
	<circle cx="1000.0000000000" cy="-0.0000000000" r="2" />
	<circle cx="500.0000000000" cy="-866.0254038000" r="2" />
	<circle cx="503.8813240026" cy="-281.3643004352" r="2" />
	<circle cx="0.0000000000" cy="-0.0000000000" r="2" />
	<circle cx="500.0272238720" cy="-814.6017725981" r="2" />
	<circle cx="0.0000000000" cy="-0.0000000000" r="2" />
	<circle cx="0.0000000000" cy="-0.0000000000" r="2" />
	<circle cx="1000.0000000000" cy="-0.0000000000" r="2" />
	<circle cx="1000.0000000000" cy="-0.0000000000" r="2" />
	<circle cx="491.6890305067" cy="-851.5482978912" r="2" />
	<circle cx="369.8003979744" cy="-640.5129493476" r="2" />
	<circle cx="999.9918805880" cy="-0.0050460918" r="2" />
	<circle cx="499.9999999757" cy="-866.0254035568" r="2" />
	<circle cx="225.9095716324" cy="-73.5183126088" r="2" />
	<circle cx="500.0000000000" cy="-866.0254038000" r="2" />
	<circle cx="84.8978782659" cy="-144.8745731994" r="2" />
	<circle cx="999.9999356410" cy="-0.0000371317" r="2" />
	<circle cx="0.0213716423" cy="-0.0006345755" r="2" />
	<circle cx="500.0000000000" cy="-866.0254038000" r="2" />
	<circle cx="499.9999993354" cy="-866.0254002465" r="2" />
	<circle cx="499.9943988036" cy="-865.9652688131" r="2" />
	<circle cx="999.9968221463" cy="-0.0018346735" r="2" />
	<circle cx="0.0000002863" cy="-0.0000004936" r="2" />
	<circle cx="0.0000000000" cy="-0.0000000000" r="2" />
	<circle cx="500.0000000000" cy="-866.0254038000" r="2" />
	<circle cx="499.9999999992" cy="-866.0253933860" r="2" />
	<circle cx="903.5769775472" cy="-74.7541531309" r="2" />
	<circle cx="500.0000000000" cy="-866.0254038000" r="2" />
	<circle cx="500.0000000000" cy="-866.0254037998" r="2" />
	<circle cx="1000.0000000000" cy="-0.0000000000" r="2" />
	<circle cx="500.0000000000" cy="-866.0254038000" r="2" />
	<circle cx="0.0000000000" cy="-0.0000000000" r="2" />
	<circle cx="468.9204208154" cy="-0.0001491725" r="2" />
	<circle cx="500.0000000000" cy="-866.0254038000" r="2" />
	<circle cx="999.9999999893" cy="-0.0000000185" r="2" />
	<circle cx="0.0000000000" cy="-0.0000000000" r="2" />
	<circle cx="313.2598041286" cy="-488.3337467175" r="2" />
	<circle cx="0.0000000000" cy="-0.0000000000" r="2" />
	<circle cx="999.9968613539" cy="-0.0018124152" r="2" />
	<circle cx="513.7590035504" cy="-840.5969815021" r="2" />
	<circle cx="999.9999999999" cy="-0.0000000000" r="2" />
	<circle cx="500.0000000000" cy="-866.0254038000" r="2" />
	<circle cx="0.0000000000" cy="-0.0000000000" r="2" />
	<circle cx="0.0000000000" cy="-0.0000000000" r="2" />
	<circle cx="235.0660382074" cy="-135.6792000657" r="2" />
	<circle cx="124.6787131217" cy="-0.0000158570" r="2" />
	<circle cx="500.0000000000" cy="-866.0254038000" r="2" />
	<circle cx="826.8125196635" cy="-99.9623716116" r="2" />
	<circle cx="999.9773666608" cy="-0.0130659361" r="2" />
	<circle cx="1000.0000000000" cy="-0.0000000000" r="2" />
	<circle cx="0.0000000014" cy="-0.0000000008" r="2" />
	<circle cx="500.0000000000" cy="-866.0254038000" r="2" />
	<circle cx="500.0000000000" cy="-866.0254038000" r="2" />
	<circle cx="0.0014302115" cy="-0.0000742136" r="2" />
	<circle cx="1000.0000000000" cy="-0.0000000000" r="2" />
	<circle cx="727.6351206656" cy="-471.7261280566" r="2" />
	<circle cx="1000.0000000000" cy="-0.0000000000" r="2" />
	<circle cx="0.0005967601" cy="-0.0003593955" r="2" />
	<circle cx="500.0040375718" cy="-866.0183225994" r="2" />
	<circle cx="500.0000000000" cy="-866.0254038000" r="2" />
	<circle cx="495.4339738146" cy="-285.9132192102" r="2" />
	<circle cx="0.0022244349" cy="-0.0012776254" r="2" />
	<circle cx="499.9965795579" cy="-866.0162392976" r="2" />
	<circle cx="1000.0000000000" cy="-0.0000000000" r="2" />
	<circle cx="0.0000000000" cy="-0.0000000000" r="2" />
	<circle cx="500.0000000000" cy="-866.0254038000" r="2" />
	<circle cx="999.5936705136" cy="-0.2083436354" r="2" />
	<circle cx="450.6917504753" cy="-776.5042076491" r="2" />
	<circle cx="0.0000000000" cy="-0.0000000000" r="2" />
	<circle cx="500.0000000000" cy="-866.0254037983" r="2" />
	<circle cx="500.0000000000" cy="-866.0254038000" r="2" />
	<circle cx="999.9773606287" cy="-0.0130671235" r="2" />
	<circle cx="0.0000000000" cy="-0.0000000000" r="2" />
	<circle cx="0.0000001661" cy="-0.0000001061" r="2" />
	<circle cx="499.9999995885" cy="-866.0253702714" r="2" />
	<circle cx="500.0000000000" cy="-866.0254038000" r="2" />
	<circle cx="465.7779730200" cy="-272.3540883911" r="2" />
	<circle cx="1000.0000000000" cy="-0.0000000000" r="2" />
	<circle cx="423.3371530023" cy="-227.5178517625" r="2" />
	<circle cx="999.8860086712" cy="-0.0657671883" r="2" />
	<circle cx="1000.0000000000" cy="-0.0000000000" r="2" />
	<circle cx="1000.0000000000" cy="-0.0000000000" r="2" />
	<circle cx="1000.0000000000" cy="-0.0000000000" r="2" />
	<circle cx="500.0000000000" cy="-866.0254038000" r="2" />
	<circle cx="999.9104402811" cy="-0.0002137208" r="2" />
	<circle cx="0.0160893459" cy="-0.0106815823" r="2" />
	<circle cx="500.0000000000" cy="-866.0254038000" r="2" />
	<circle cx="1000.0000000000" cy="-0.0000000000" r="2" />
	<circle cx="0.0002926367" cy="-0.0001007527" r="2" />
	<circle cx="211.3423788858" cy="-125.3359162183" r="2" />
	<circle cx="999.9999999995" cy="-0.0000000003" r="2" />
	<circle cx="998.8447510200" cy="-0.6740793288" r="2" />
	<circle cx="0.0000000000" cy="-0.0000000000" r="2" />
	<circle cx="499.9999999949" cy="-866.0254013774" r="2" />
	<circle cx="500.0000023636" cy="-866.0253653687" r="2" />
	<circle cx="826.2051953475" cy="-184.4598506648" r="2" />
	<circle cx="7.0749668047" cy="-2.7363620171" r="2" />
	<circle cx="555.8047675172" cy="-32.2657551821" r="2" />
	<circle cx="0.0011311694" cy="-0.0007550819" r="2" />
	<circle cx="0.0028630196" cy="-0.0016530540" r="2" />
	<circle cx="1000.0000000000" cy="-0.0000000000" r="2" />
	<circle cx="1000.0000000000" cy="-0.0000000000" r="2" />
	<circle cx="510.1042712034" cy="-731.5914730328" r="2" />
	<circle cx="0.0000000000" cy="-0.0000000000" r="2" />
	<circle cx="499.9999997516" cy="-866.0254033689" r="2" />
	<circle cx="1000.0000000000" cy="-0.0000000000" r="2" />
	<circle cx="500.0000000000" cy="-866.0254038000" r="2" />
	<circle cx="527.5215491326" cy="-267.5856036240" r="2" />
	<circle cx="500.0000000000" cy="-866.0254038000" r="2" />
	<circle cx="1000.0000000000" cy="-0.0000000000" r="2" />
	<circle cx="856.8531127072" cy="-26.6001573036" r="2" />
	<circle cx="0.3169734825" cy="-0.3735888132" r="2" />
	<circle cx="500.0000000000" cy="-866.0254038000" r="2" />
	<circle cx="0.1255653484" cy="-0.0813935187" r="2" />
	<circle cx="500.0000000000" cy="-866.0254038000" r="2" />
	<circle cx="3.0028607032" cy="-1.7460794943" r="2" />
	<circle cx="500.0000000000" cy="-866.0254038000" r="2" />
	<circle cx="500.0000000000" cy="-866.0254038000" r="2" />
	<circle cx="0.0000030093" cy="-0.0000008611" r="2" />
	<circle cx="1000.0000000000" cy="-0.0000000000" r="2" />
	<circle cx="0.0000000000" cy="-0.0000000000" r="2" />
	<circle cx="500.0000000000" cy="-866.0254038000" r="2" />
	<circle cx="498.8044495677" cy="-288.1222277893" r="2" />
	<circle cx="500.0000000000" cy="-866.0254038000" r="2" />
	<circle cx="469.8897081027" cy="-813.8726888920" r="2" />
	<circle cx="500.0000000000" cy="-866.0254038000" r="2" />
	<circle cx="1000.0000000000" cy="-0.0000000000" r="2" />
  </g>
  <g id="fig2" transform="translate(-550.0,1000)">
	<polygon points="0.0,-0.0 1000.0,-0.0 500.0,-866.0254038" />
	<line
	   id="line2-1"
	   y2="-0.0"
	   x2="500"
	   y1="-288.6751346"
	   x1="500" />
	<line
	   id="line2-2"
	   y2="-433.0127019"
	   x2="250"
	   y1="-288.6751346"
	   x1="500" />
	<line
	   id="line2-3"
	   y2="-433.0127019"
	   x2="750"
	   y1="-288.6751346"
	   x1="500" />
	<text
	   x="440"
	   y="-500"
	   id="up_2">32.2%</text>
	<text
	   x="250"
	   y="-150"
	   id="down_left_2">34.0%</text>
	<text
	   x="630"
	   y="-150"
	   id="down_right_2">33.8%</text>
  </g>
  <g id="fig3" transform="translate(550,1000)">
	<polygon points="0.0,-0.0 1000.0,-0.0 500.0,-866.0254038" />
	<polygon id="triangle3b" points="250,-144.3375673 750,-144.3375673 500,-577.3502692" />
	<line
	   id="line3-1"
	   x1="125"
	   y1="-216.5063509"
	   x2="250"
	   y2="-144.3375673" />
	<line
	   id="line3-2"
	   x1="375"
	   y1="-649.5190528"
	   x2="500"
	   y2="-577.3502692" />
	<line
	   id="line3-3"
	   x1="625"
	   y1="-649.5190528"
	   x2="500"
	   y2="-577.3502692" />
	<line
	   id="line3-4"
	   x1="875"
	   y1="-216.5063509"
	   x2="750"
	   y2="-144.3375673" />
	<line
	   id="line3-5"
	   x1="750"
	   y1="-0.0"
	   x2="750"
	   y2="-144.3375673" />
	<line
	   id="line3-6"
	   x1="250"
	   y1="-0.0"
	   x2="250"
	   y2="-144.3375673" />
	<text
	   x="500"
	   y="-660"
	   text-anchor="middle"
	   id="up_3">30.2%</text>
	<text
	   y="-50"
	   x="70"
	   id="down_left_3">31.0%</text>
	<text
	   y="-50"
	   x="770"
	   id="down_right_3">31.2%</text>
	<text
	   x="500"
	   y="-50"
	   text-anchor="middle"
	   id="down_side_3">0.8%</text>
	<text
	   x="500"
	   y="-280"
	   text-anchor="middle"
	   id="center_3">5.6%</text>
	<text
	   x="685.0"
	   y="-390.8439"
	   text-anchor="middle"
	   transform="rotate(60,665.0,-380.8439)"
	   id="right_side_3">0.6%</text>
	<text
	   x="315.0"
	   y="-390.8439"
	   text-anchor="middle"
	   transform="rotate(-60,335.0,-380.8439)"
	   id="left_side_3">0.6%</text>
  </g>
</g></g>
</svg>
