<?xml version="1.0" encoding="UTF-8" standalone="no"?>
<!DOCTYPE svg PUBLIC "-//W3C//DTD SVG 1.1//EN" "http://www.w3.org/Graphics/SVG/1.1/DTD/svg11.dtd">
<svg
   xmlns:svg="http://www.w3.org/2000/svg"
   xmlns="http://www.w3.org/2000/svg"
   xmlns:xlink="http://www.w3.org/1999/xlink"
   version="1.1"
   baseProfile="full"
   id="body"
   width="800px"
   height="800px"
   viewBox="0 0 1000 1000"
   preserveAspectRatio="none">
  <defs>
    <style type="text/css"><![CDATA[
      circle{ stroke: none; }
      polygon{ stroke: black; stroke-width: 2px; fill: none; }
      line{ stroke: black; stroke-width: 2px; }
      text{ font-size:50px; }
    ]]></style>
  </defs>
  <title
     id="title1">SVG drawing</title>
<g transform="scale(0.45)"><g transform="translate(600,1050)">
  <g id="fig1">
	<polygon points="0.0,-0.0 1000.0,-0.0 500,-866.0254038" />
	<circle cx="710.4866134570" cy="-167.0906215457" r="2" />
	<circle cx="565.6191261020" cy="-158.9778101014" r="2" />
	<circle cx="500.0000020955" cy="-865.9072189882" r="2" />
	<circle cx="999.9999999959" cy="-0.0000000024" r="2" />
	<circle cx="499.9895873872" cy="-359.9164892712" r="2" />
	<circle cx="0.0000000001" cy="-0.0000000000" r="2" />
	<circle cx="201.4426418943" cy="-116.2662611111" r="2" />
	<circle cx="1000.0000000000" cy="-0.0000000000" r="2" />
	<circle cx="0.0000000000" cy="-0.0000000000" r="2" />
	<circle cx="716.2418478522" cy="-174.1194096169" r="2" />
	<circle cx="500.0000000000" cy="-866.0254038000" r="2" />
	<circle cx="0.0000000092" cy="-0.0000000053" r="2" />
	<circle cx="1000.0000000000" cy="-0.0000000000" r="2" />
	<circle cx="622.3690144493" cy="-218.7670283911" r="2" />
	<circle cx="1000.0000000000" cy="-0.0000000000" r="2" />
	<circle cx="0.0000000000" cy="-0.0000000000" r="2" />
	<circle cx="503.7808176080" cy="-824.3792571853" r="2" />
	<circle cx="0.0000000000" cy="-0.0000000000" r="2" />
	<circle cx="0.0000000000" cy="-0.0000000000" r="2" />
	<circle cx="1000.0000000000" cy="-0.0000000000" r="2" />
	<circle cx="1000.0000000000" cy="-0.0000000000" r="2" />
	<circle cx="500.0000000000" cy="-866.0254038000" r="2" />
	<circle cx="500.0000000000" cy="-866.0254038000" r="2" />
	<circle cx="383.0448461542" cy="-274.9105339297" r="2" />
	<circle cx="0.0000000000" cy="-0.0000000000" r="2" />
	<circle cx="1000.0000000000" cy="-0.0000000000" r="2" />
	<circle cx="499.8920316765" cy="-303.1838836526" r="2" />
	<circle cx="413.3795565218" cy="-238.8330236660" r="2" />
	<circle cx="0.0000000000" cy="-0.0000000000" r="2" />
	<circle cx="500.0002846968" cy="-866.0220147491" r="2" />
	<circle cx="1000.0000000000" cy="-0.0000000000" r="2" />
	<circle cx="0.0000000000" cy="-0.0000000000" r="2" />
	<circle cx="500.0000000000" cy="-866.0254038000" r="2" />
	<circle cx="488.1025051194" cy="-351.2967848583" r="2" />
	<circle cx="500.0000000000" cy="-866.0254038000" r="2" />
	<circle cx="999.9999999982" cy="-0.0000000010" r="2" />
	<circle cx="499.9999999848" cy="-866.0254037214" r="2" />
	<circle cx="500.0000000000" cy="-866.0254038000" r="2" />
	<circle cx="0.0000000000" cy="-0.0000000000" r="2" />
	<circle cx="500.0000000000" cy="-866.0254037997" r="2" />
	<circle cx="499.9999999995" cy="-866.0254001341" r="2" />
	<circle cx="633.3495564735" cy="-210.6379353907" r="2" />
	<circle cx="0.0000024702" cy="-0.0000014265" r="2" />
	<circle cx="500.0000000000" cy="-866.0254038000" r="2" />
	<circle cx="0.0000000000" cy="-0.0000000000" r="2" />
	<circle cx="999.9999999430" cy="-0.0000000324" r="2" />
	<circle cx="0.0000000000" cy="-0.0000000000" r="2" />
	<circle cx="499.9999999999" cy="-866.0254033507" r="2" />
	<circle cx="999.9999998917" cy="-0.0000000625" r="2" />
	<circle cx="1000.0000000000" cy="-0.0000000000" r="2" />
	<circle cx="1000.0000000000" cy="-0.0000000000" r="2" />
	<circle cx="500.0000000000" cy="-866.0254038000" r="2" />
	<circle cx="1000.0000000000" cy="-0.0000000000" r="2" />
	<circle cx="0.0000000001" cy="-0.0000000001" r="2" />
	<circle cx="500.0000000000" cy="-866.0254037997" r="2" />
	<circle cx="532.1373940329" cy="-281.5159448098" r="2" />
	<circle cx="999.9994703491" cy="-0.0003057955" r="2" />
	<circle cx="1000.0000000000" cy="-0.0000000000" r="2" />
	<circle cx="0.0000000000" cy="-0.0000000000" r="2" />
	<circle cx="249.9322578955" cy="-137.9252237544" r="2" />
	<circle cx="1000.0000000000" cy="-0.0000000000" r="2" />
	<circle cx="0.0000000000" cy="-0.0000000000" r="2" />
	<circle cx="0.0000778903" cy="-0.0000449703" r="2" />
	<circle cx="999.9999999416" cy="-0.0000000337" r="2" />
	<circle cx="353.3744182594" cy="-183.9657075892" r="2" />
	<circle cx="514.8377861285" cy="-280.2278698468" r="2" />
	<circle cx="499.9999999999" cy="-866.0254037550" r="2" />
	<circle cx="0.0000000000" cy="-0.0000000000" r="2" />
	<circle cx="290.7659438109" cy="-21.2315020376" r="2" />
	<circle cx="1000.0000000000" cy="-0.0000000000" r="2" />
	<circle cx="0.0000000786" cy="-0.0000000453" r="2" />
	<circle cx="999.9999999506" cy="-0.0000000285" r="2" />
	<circle cx="0.0000000000" cy="-0.0000000000" r="2" />
	<circle cx="0.0000000013" cy="-0.0000000008" r="2" />
	<circle cx="1000.0000000000" cy="-0.0000000000" r="2" />
	<circle cx="0.0000000000" cy="-0.0000000000" r="2" />
	<circle cx="1000.0000000000" cy="-0.0000000000" r="2" />
	<circle cx="999.9999999633" cy="-0.0000000212" r="2" />
	<circle cx="500.0000000000" cy="-866.0254038000" r="2" />
	<circle cx="500.0000000000" cy="-866.0254038000" r="2" />
	<circle cx="509.7784921071" cy="-282.8729852832" r="2" />
	<circle cx="999.9999999999" cy="-0.0000000001" r="2" />
	<circle cx="499.9998429465" cy="-866.0151862638" r="2" />
	<circle cx="260.5236022365" cy="-150.3819342878" r="2" />
	<circle cx="711.8974840535" cy="-180.0999013390" r="2" />
	<circle cx="0.0000001705" cy="-0.0000001049" r="2" />
	<circle cx="1000.0000000000" cy="-0.0000000000" r="2" />
	<circle cx="0.0000031968" cy="-0.0000018456" r="2" />
	<circle cx="499.9999938237" cy="-865.9480203166" r="2" />
	<circle cx="500.0000000000" cy="-866.0254038000" r="2" />
	<circle cx="500.6415478014" cy="-288.2489756070" r="2" />
	<circle cx="0.0000000000" cy="-0.0000000000" r="2" />
	<circle cx="500.0000000000" cy="-866.0254038000" r="2" />
	<circle cx="500.0000000000" cy="-866.0254038000" r="2" />
	<circle cx="1000.0000000000" cy="-0.0000000000" r="2" />
	<circle cx="500.0000000000" cy="-866.0254038000" r="2" />
	<circle cx="1000.0000000000" cy="-0.0000000000" r="2" />
	<circle cx="999.9999999986" cy="-0.0000000008" r="2" />
	<circle cx="631.1243028589" cy="-212.9413945450" r="2" />
	<circle cx="500.0000000000" cy="-866.0254038000" r="2" />
	<circle cx="0.0000000000" cy="-0.0000000000" r="2" />
	<circle cx="999.9999999940" cy="-0.0000000036" r="2" />
	<circle cx="500.0000000000" cy="-866.0254038000" r="2" />
	<circle cx="500.0000000297" cy="-866.0254037345" r="2" />
	<circle cx="0.0000000020" cy="-0.0000000006" r="2" />
	<circle cx="342.8252854640" cy="-197.8014110191" r="2" />
	<circle cx="407.5206599935" cy="-216.9552212465" r="2" />
	<circle cx="0.0000000000" cy="-0.0000000000" r="2" />
	<circle cx="1000.0000000000" cy="-0.0000000000" r="2" />
	<circle cx="0.0000000000" cy="-0.0000000000" r="2" />
	<circle cx="999.9999999720" cy="-0.0000000126" r="2" />
	<circle cx="500.0000000000" cy="-866.0254038000" r="2" />
	<circle cx="0.0000000000" cy="-0.0000000000" r="2" />
	<circle cx="1000.0000000000" cy="-0.0000000000" r="2" />
	<circle cx="500.0000000000" cy="-866.0254038000" r="2" />
	<circle cx="1000.0000000000" cy="-0.0000000000" r="2" />
	<circle cx="524.5023862601" cy="-282.6854319023" r="2" />
	<circle cx="508.0306761552" cy="-283.8995389939" r="2" />
	<circle cx="500.0200779786" cy="-288.5869966097" r="2" />
	<circle cx="999.9999999999" cy="-0.0000000001" r="2" />
	<circle cx="500.0000000000" cy="-866.0254037998" r="2" />
	<circle cx="499.9999999994" cy="-866.0254037927" r="2" />
	<circle cx="500.0000000000" cy="-866.0254038000" r="2" />
	<circle cx="0.0001416563" cy="-0.0000056449" r="2" />
	<circle cx="500.0000000000" cy="-866.0254038000" r="2" />
	<circle cx="996.0606403317" cy="-1.2216397745" r="2" />
	<circle cx="0.0000000021" cy="-0.0000000012" r="2" />
	<circle cx="0.3622963660" cy="-0.2200531653" r="2" />
	<circle cx="500.0000000000" cy="-866.0254037999" r="2" />
	<circle cx="0.0000000057" cy="-0.0000000033" r="2" />
	<circle cx="0.0000000000" cy="-0.0000000000" r="2" />
	<circle cx="512.4112721538" cy="-308.5861344901" r="2" />
	<circle cx="0.0000000000" cy="-0.0000000000" r="2" />
	<circle cx="499.7198024442" cy="-310.1570180278" r="2" />
	<circle cx="0.0000001105" cy="-0.0000000638" r="2" />
	<circle cx="500.0000000000" cy="-866.0254038000" r="2" />
	<circle cx="0.0000000038" cy="-0.0000000022" r="2" />
	<circle cx="500.0000000000" cy="-866.0254038000" r="2" />
	<circle cx="0.0000000000" cy="-0.0000000000" r="2" />
	<circle cx="500.0000000000" cy="-866.0254038000" r="2" />
	<circle cx="0.0000000000" cy="-0.0000000000" r="2" />
	<circle cx="999.9997831069" cy="-0.0000138993" r="2" />
	<circle cx="500.0000000428" cy="-866.0253690012" r="2" />
	<circle cx="1000.0000000000" cy="-0.0000000000" r="2" />
	<circle cx="1000.0000000000" cy="-0.0000000000" r="2" />
	<circle cx="0.0000000000" cy="-0.0000000000" r="2" />
	<circle cx="0.0000000249" cy="-0.0000000179" r="2" />
	<circle cx="499.9997857614" cy="-866.0248996139" r="2" />
	<circle cx="999.9999948366" cy="-0.0000030000" r="2" />
	<circle cx="507.6753933449" cy="-488.2669637975" r="2" />
	<circle cx="0.0000000000" cy="-0.0000000000" r="2" />
	<circle cx="0.0000000000" cy="-0.0000000000" r="2" />
	<circle cx="803.7041236000" cy="-118.8966951178" r="2" />
	<circle cx="499.9999999448" cy="-866.0252091409" r="2" />
	<circle cx="509.8093621254" cy="-282.8860139614" r="2" />
	<circle cx="0.0000000000" cy="-0.0000000000" r="2" />
	<circle cx="499.9194196880" cy="-288.6066421867" r="2" />
	<circle cx="500.0135742477" cy="-660.8969670777" r="2" />
	<circle cx="532.1373940329" cy="-281.5159448098" r="2" />
	<circle cx="500.0000000000" cy="-866.0254038000" r="2" />
	<circle cx="500.0000000000" cy="-866.0254038000" r="2" />
	<circle cx="520.4693136110" cy="-727.9814321836" r="2" />
	<circle cx="1000.0000000000" cy="-0.0000000000" r="2" />
	<circle cx="7.5507914380" cy="-4.3564416961" r="2" />
	<circle cx="1000.0000000000" cy="-0.0000000000" r="2" />
	<circle cx="499.9300990792" cy="-290.7352611490" r="2" />
	<circle cx="500.0153808539" cy="-301.1699734681" r="2" />
	<circle cx="500.0000018275" cy="-866.0253942294" r="2" />
	<circle cx="0.0000000000" cy="-0.0000000000" r="2" />
	<circle cx="999.9999999999" cy="-0.0000000001" r="2" />
	<circle cx="7.7910062445" cy="-5.1081030813" r="2" />
	<circle cx="0.0150374921" cy="-0.0086825287" r="2" />
	<circle cx="1000.0000000000" cy="-0.0000000000" r="2" />
	<circle cx="0.0000000000" cy="-0.0000000000" r="2" />
	<circle cx="534.6473918663" cy="-394.3891432280" r="2" />
	<circle cx="1000.0000000000" cy="-0.0000000000" r="2" />
	<circle cx="999.9999994180" cy="-0.0000003362" r="2" />
	<circle cx="315.5803014473" cy="-182.2164375108" r="2" />
	<circle cx="500.0000000000" cy="-866.0254038000" r="2" />
	<circle cx="0.0000000420" cy="-0.0000000242" r="2" />
	<circle cx="0.0000000495" cy="-0.0000000281" r="2" />
	<circle cx="1000.0000000000" cy="-0.0000000000" r="2" />
	<circle cx="0.0000000000" cy="-0.0000000000" r="2" />
	<circle cx="1.1231697415" cy="-0.6784754107" r="2" />
	<circle cx="500.0000877245" cy="-864.5830110239" r="2" />
	<circle cx="1000.0000000000" cy="-0.0000000000" r="2" />
	<circle cx="989.3373683918" cy="-2.1168213680" r="2" />
	<circle cx="1000.0000000000" cy="-0.0000000000" r="2" />
	<circle cx="500.0000000000" cy="-866.0254038000" r="2" />
	<circle cx="264.8609826398" cy="-152.9085336475" r="2" />
	<circle cx="0.0000000000" cy="-0.0000000000" r="2" />
	<circle cx="0.0000000000" cy="-0.0000000000" r="2" />
	<circle cx="1000.0000000000" cy="-0.0000000000" r="2" />
	<circle cx="0.0000000000" cy="-0.0000000000" r="2" />
	<circle cx="1000.0000000000" cy="-0.0000000000" r="2" />
	<circle cx="0.0000000015" cy="-0.0000000009" r="2" />
	<circle cx="0.0000000000" cy="-0.0000000000" r="2" />
	<circle cx="500.0000000000" cy="-866.0254038000" r="2" />
	<circle cx="999.9999999999" cy="-0.0000000001" r="2" />
	<circle cx="500.7894986828" cy="-288.0777192908" r="2" />
	<circle cx="499.9999999902" cy="-866.0254037720" r="2" />
	<circle cx="1000.0000000000" cy="-0.0000000000" r="2" />
	<circle cx="499.9999999744" cy="-866.0254035340" r="2" />
	<circle cx="500.0000000000" cy="-866.0254038000" r="2" />
	<circle cx="500.0000000000" cy="-866.0254038000" r="2" />
	<circle cx="500.0000000160" cy="-866.0254037689" r="2" />
	<circle cx="0.0000000000" cy="-0.0000000000" r="2" />
	<circle cx="500.0000000000" cy="-866.0254038000" r="2" />
	<circle cx="0.0000000000" cy="-0.0000000000" r="2" />
	<circle cx="0.0000000006" cy="-0.0000000004" r="2" />
	<circle cx="500.0000000000" cy="-866.0254038000" r="2" />
	<circle cx="500.6140727009" cy="-782.4697107353" r="2" />
	<circle cx="999.9999999994" cy="-0.0000000003" r="2" />
	<circle cx="500.0000000000" cy="-866.0254038000" r="2" />
	<circle cx="500.0000000000" cy="-866.0254038000" r="2" />
	<circle cx="1000.0000000000" cy="-0.0000000000" r="2" />
	<circle cx="999.9999999982" cy="-0.0000000010" r="2" />
	<circle cx="1000.0000000000" cy="-0.0000000000" r="2" />
	<circle cx="500.0000000000" cy="-866.0254038000" r="2" />
	<circle cx="0.0000000058" cy="-0.0000000033" r="2" />
	<circle cx="0.0000000000" cy="-0.0000000000" r="2" />
	<circle cx="486.8903804607" cy="-386.5789480029" r="2" />
	<circle cx="999.9999998917" cy="-0.0000000625" r="2" />
	<circle cx="370.1583636425" cy="-217.6420159308" r="2" />
	<circle cx="500.0000000091" cy="-866.0254037684" r="2" />
	<circle cx="500.0000000000" cy="-866.0254038000" r="2" />
	<circle cx="500.0000000000" cy="-866.0254037996" r="2" />
	<circle cx="500.0000000000" cy="-866.0254038000" r="2" />
	<circle cx="3.9913310944" cy="-2.3050266061" r="2" />
	<circle cx="0.0000000065" cy="-0.0000000037" r="2" />
	<circle cx="999.9999998970" cy="-0.0000000595" r="2" />
	<circle cx="500.0000000000" cy="-866.0254038000" r="2" />
	<circle cx="1000.0000000000" cy="-0.0000000000" r="2" />
	<circle cx="999.8265796525" cy="-0.1002001874" r="2" />
	<circle cx="0.0000000000" cy="-0.0000000000" r="2" />
	<circle cx="999.9999999942" cy="-0.0000000033" r="2" />
	<circle cx="521.7791385718" cy="-276.2157514392" r="2" />
	<circle cx="494.4026730595" cy="-825.5557027093" r="2" />
	<circle cx="999.5488369996" cy="-0.1562555890" r="2" />
	<circle cx="500.0000000000" cy="-866.0254038000" r="2" />
	<circle cx="447.1037774794" cy="-258.0883748411" r="2" />
	<circle cx="0.0000000000" cy="-0.0000000000" r="2" />
	<circle cx="1000.0000000000" cy="-0.0000000000" r="2" />
	<circle cx="999.9999998240" cy="-0.0000000952" r="2" />
	<circle cx="0.0000000000" cy="-0.0000000000" r="2" />
	<circle cx="0.0000000000" cy="-0.0000000000" r="2" />
	<circle cx="507.8666179602" cy="-666.7278828695" r="2" />
	<circle cx="500.0000000000" cy="-866.0254038000" r="2" />
	<circle cx="995.1475193157" cy="-2.8022870112" r="2" />
	<circle cx="1000.0000000000" cy="-0.0000000000" r="2" />
	<circle cx="1000.0000000000" cy="-0.0000000000" r="2" />
	<circle cx="999.9999999993" cy="-0.0000000004" r="2" />
	<circle cx="290.4612993759" cy="-172.4711980445" r="2" />
	<circle cx="0.0000000000" cy="-0.0000000000" r="2" />
	<circle cx="0.0000000039" cy="-0.0000000023" r="2" />
	<circle cx="999.9999999997" cy="-0.0000000002" r="2" />
	<circle cx="999.9999999993" cy="-0.0000000004" r="2" />
	<circle cx="782.2909271019" cy="-129.9508256531" r="2" />
	<circle cx="500.1721614369" cy="-288.7299566564" r="2" />
	<circle cx="1000.0000000000" cy="-0.0000000000" r="2" />
	<circle cx="999.3918907967" cy="-0.4128664782" r="2" />
	<circle cx="0.0000000000" cy="-0.0000000000" r="2" />
	<circle cx="1000.0000000000" cy="-0.0000000000" r="2" />
	<circle cx="999.9999993925" cy="-0.0000003509" r="2" />
	<circle cx="0.0000000000" cy="-0.0000000000" r="2" />
	<circle cx="0.0000002596" cy="-0.0000001499" r="2" />
	<circle cx="572.2811256757" cy="-393.3504675331" r="2" />
	<circle cx="0.0030496435" cy="-0.0009212196" r="2" />
	<circle cx="497.3813875657" cy="-433.5521402647" r="2" />
	<circle cx="499.9388808069" cy="-288.7847218677" r="2" />
	<circle cx="0.0000003958" cy="-0.0000001248" r="2" />
	<circle cx="500.0000000000" cy="-866.0254037405" r="2" />
	<circle cx="500.0000000000" cy="-866.0254038000" r="2" />
	<circle cx="1000.0000000000" cy="-0.0000000000" r="2" />
	<circle cx="0.0000047717" cy="-0.0000007303" r="2" />
	<circle cx="133.2725668052" cy="-80.2193796478" r="2" />
	<circle cx="1000.0000000000" cy="-0.0000000000" r="2" />
	<circle cx="0.0001151771" cy="-0.0000518913" r="2" />
	<circle cx="0.0000000000" cy="-0.0000000000" r="2" />
	<circle cx="0.0000000000" cy="-0.0000000000" r="2" />
	<circle cx="520.9192278031" cy="-762.5487924904" r="2" />
	<circle cx="500.0497821439" cy="-381.0025478384" r="2" />
	<circle cx="472.5066109325" cy="-271.5044166996" r="2" />
	<circle cx="999.9999617550" cy="-0.0000278030" r="2" />
	<circle cx="0.0000000000" cy="-0.0000000000" r="2" />
	<circle cx="526.3661659902" cy="-552.3637924902" r="2" />
	<circle cx="500.0000000000" cy="-866.0254038000" r="2" />
	<circle cx="0.0000000000" cy="-0.0000000000" r="2" />
	<circle cx="499.8652314973" cy="-288.7834540179" r="2" />
	<circle cx="1000.0000000000" cy="-0.0000000000" r="2" />
	<circle cx="1000.0000000000" cy="-0.0000000000" r="2" />
	<circle cx="1000.0000000000" cy="-0.0000000000" r="2" />
	<circle cx="0.0000000000" cy="-0.0000000000" r="2" />
	<circle cx="500.0000000000" cy="-866.0254038000" r="2" />
	<circle cx="999.9999970623" cy="-0.0000016342" r="2" />
	<circle cx="999.9999814060" cy="-0.0000107372" r="2" />
	<circle cx="1000.0000000000" cy="-0.0000000000" r="2" />
	<circle cx="999.9999999559" cy="-0.0000000254" r="2" />
	<circle cx="704.8520375510" cy="-170.5061105692" r="2" />
	<circle cx="500.0000000000" cy="-866.0254037987" r="2" />
	<circle cx="54.9767430260" cy="-31.7378945722" r="2" />
	<circle cx="798.5512762354" cy="-116.2807074064" r="2" />
	<circle cx="500.0000000002" cy="-866.0253951237" r="2" />
	<circle cx="500.0000000000" cy="-866.0254038000" r="2" />
	<circle cx="999.9999418778" cy="-0.0000335670" r="2" />
	<circle cx="500.0000000000" cy="-866.0254038000" r="2" />
	<circle cx="999.9997867448" cy="-0.0001230684" r="2" />
	<circle cx="1000.0000000000" cy="-0.0000000000" r="2" />
	<circle cx="500.0000000000" cy="-866.0254038000" r="2" />
	<circle cx="499.9999982587" cy="-866.0253914228" r="2" />
	<circle cx="500.0000000000" cy="-866.0254038000" r="2" />
	<circle cx="999.9999999478" cy="-0.0000000737" r="2" />
	<circle cx="500.0000000000" cy="-866.0254038000" r="2" />
	<circle cx="537.0955780538" cy="-353.5147532656" r="2" />
	<circle cx="0.0000000440" cy="-0.0000000249" r="2" />
	<circle cx="373.2262609242" cy="-218.5197836590" r="2" />
	<circle cx="0.0000000703" cy="-0.0000000405" r="2" />
	<circle cx="445.1994362038" cy="-257.0630157164" r="2" />
	<circle cx="1000.0000000000" cy="-0.0000000000" r="2" />
	<circle cx="0.0000193360" cy="-0.0000111578" r="2" />
	<circle cx="0.0000000000" cy="-0.0000000000" r="2" />
	<circle cx="0.0000000000" cy="-0.0000000000" r="2" />
	<circle cx="1000.0000000000" cy="-0.0000000000" r="2" />
	<circle cx="500.0000000000" cy="-866.0254038000" r="2" />
	<circle cx="500.0000000000" cy="-866.0254038000" r="2" />
	<circle cx="500.6290825747" cy="-447.2518599379" r="2" />
	<circle cx="0.0000000000" cy="-0.0000000000" r="2" />
	<circle cx="0.0000002701" cy="-0.0000001559" r="2" />
	<circle cx="487.3057735853" cy="-281.4608415190" r="2" />
	<circle cx="500.0000000000" cy="-866.0254038000" r="2" />
	<circle cx="543.4234854943" cy="-252.9079833905" r="2" />
	<circle cx="0.0000000000" cy="-0.0000000000" r="2" />
	<circle cx="0.0000000004" cy="-0.0000000002" r="2" />
	<circle cx="0.0000000000" cy="-0.0000000000" r="2" />
	<circle cx="0.0000000000" cy="-0.0000000000" r="2" />
	<circle cx="419.3247355112" cy="-312.7521688665" r="2" />
	<circle cx="363.8548220603" cy="-105.4395961432" r="2" />
	<circle cx="500.0000000000" cy="-866.0254038000" r="2" />
	<circle cx="1000.0000000000" cy="-0.0000000000" r="2" />
	<circle cx="707.6258141752" cy="-168.6842168264" r="2" />
	<circle cx="502.8852591438" cy="-287.8355024911" r="2" />
	<circle cx="614.0442708665" cy="-216.7831073021" r="2" />
	<circle cx="500.0000000000" cy="-866.0254038000" r="2" />
	<circle cx="0.0000000000" cy="-0.0000000000" r="2" />
	<circle cx="500.0000000000" cy="-866.0254037929" r="2" />
	<circle cx="1000.0000000000" cy="-0.0000000000" r="2" />
	<circle cx="0.0000000000" cy="-0.0000000000" r="2" />
	<circle cx="810.7288089099" cy="-109.2404667622" r="2" />
	<circle cx="1000.0000000000" cy="-0.0000000000" r="2" />
	<circle cx="0.0000000000" cy="-0.0000000000" r="2" />
	<circle cx="498.8548234573" cy="-292.2005976495" r="2" />
	<circle cx="500.0000000000" cy="-866.0254038000" r="2" />
	<circle cx="999.9999993128" cy="-0.0000003967" r="2" />
	<circle cx="0.0000000289" cy="-0.0000000167" r="2" />
	<circle cx="513.9055889366" cy="-297.8332994684" r="2" />
	<circle cx="500.0000000000" cy="-866.0254038000" r="2" />
	<circle cx="500.0000000000" cy="-866.0254038000" r="2" />
	<circle cx="630.5112279121" cy="-201.2814129140" r="2" />
	<circle cx="500.0000000000" cy="-866.0254038000" r="2" />
	<circle cx="0.0000001851" cy="-0.0000001538" r="2" />
	<circle cx="1000.0000000000" cy="-0.0000000000" r="2" />
	<circle cx="500.0000000000" cy="-866.0254037994" r="2" />
	<circle cx="500.0000000000" cy="-866.0254038000" r="2" />
	<circle cx="499.9999992004" cy="-866.0254022651" r="2" />
	<circle cx="0.0000022330" cy="-0.0000012886" r="2" />
	<circle cx="0.0000000000" cy="-0.0000000000" r="2" />
	<circle cx="999.9999999999" cy="-0.0000000000" r="2" />
	<circle cx="500.0000000000" cy="-866.0254037996" r="2" />
	<circle cx="164.7792703168" cy="-94.5942482733" r="2" />
	<circle cx="722.7920325266" cy="-147.3173814637" r="2" />
	<circle cx="500.0000000000" cy="-866.0254038000" r="2" />
	<circle cx="0.0000000000" cy="-0.0000000000" r="2" />
	<circle cx="0.0000000000" cy="-0.0000000000" r="2" />
	<circle cx="3.4807974207" cy="-2.0304803464" r="2" />
	<circle cx="500.0000000000" cy="-866.0254038000" r="2" />
	<circle cx="500.0024494254" cy="-865.8747485409" r="2" />
	<circle cx="500.0000000000" cy="-866.0254038000" r="2" />
	<circle cx="0.0000000000" cy="-0.0000000000" r="2" />
	<circle cx="1000.0000000000" cy="-0.0000000000" r="2" />
	<circle cx="0.0000000000" cy="-0.0000000000" r="2" />
	<circle cx="1000.0000000000" cy="-0.0000000000" r="2" />
	<circle cx="0.0000000000" cy="-0.0000000000" r="2" />
	<circle cx="475.4964635833" cy="-274.5814347806" r="2" />
	<circle cx="506.2282139177" cy="-285.1122224257" r="2" />
	<circle cx="0.0000000000" cy="-0.0000000000" r="2" />
	<circle cx="0.0000000000" cy="-0.0000000000" r="2" />
	<circle cx="999.9999999976" cy="-0.0000000014" r="2" />
	<circle cx="500.0000000000" cy="-866.0254038000" r="2" />
	<circle cx="499.9262700841" cy="-288.6311248923" r="2" />
	<circle cx="500.0000000006" cy="-866.0253951188" r="2" />
	<circle cx="500.0000000000" cy="-866.0254037713" r="2" />
	<circle cx="500.0011655338" cy="-836.6393352567" r="2" />
	<circle cx="999.9999999878" cy="-0.0000000070" r="2" />
	<circle cx="0.0000000000" cy="-0.0000000000" r="2" />
	<circle cx="215.3633579358" cy="-269.5418973917" r="2" />
	<circle cx="1000.0000000000" cy="-0.0000000000" r="2" />
	<circle cx="500.0000000000" cy="-866.0254038000" r="2" />
	<circle cx="73.4045712109" cy="-42.3880058442" r="2" />
	<circle cx="0.0000000000" cy="-0.0000000000" r="2" />
	<circle cx="983.6974625246" cy="-9.4185434921" r="2" />
	<circle cx="499.9999999988" cy="-866.0254037934" r="2" />
	<circle cx="999.9999982538" cy="-0.0000010086" r="2" />
	<circle cx="500.0000000000" cy="-866.0254038000" r="2" />
	<circle cx="0.0000000000" cy="-0.0000000000" r="2" />
	<circle cx="416.4500478212" cy="-307.6600513801" r="2" />
	<circle cx="1000.0000000000" cy="-0.0000000000" r="2" />
	<circle cx="0.0000000000" cy="-0.0000000000" r="2" />
	<circle cx="497.8555050562" cy="-312.4565052641" r="2" />
	<circle cx="500.0000000000" cy="-866.0254038000" r="2" />
	<circle cx="0.0000000000" cy="-0.0000000000" r="2" />
	<circle cx="0.0000000635" cy="-0.0000000366" r="2" />
	<circle cx="500.0193050711" cy="-353.4176459891" r="2" />
	<circle cx="999.9998720234" cy="-0.0002173015" r="2" />
	<circle cx="0.0000000001" cy="-0.0000000001" r="2" />
	<circle cx="0.0000000000" cy="-0.0000000000" r="2" />
	<circle cx="0.0000000000" cy="-0.0000000000" r="2" />
	<circle cx="500.0000000000" cy="-866.0254038000" r="2" />
	<circle cx="811.9040363429" cy="-243.4227440481" r="2" />
	<circle cx="1000.0000000000" cy="-0.0000000000" r="2" />
	<circle cx="500.0000000000" cy="-866.0254038000" r="2" />
	<circle cx="16.3039156047" cy="-9.4211211961" r="2" />
	<circle cx="0.0000000000" cy="-0.0000000000" r="2" />
	<circle cx="821.9667920722" cy="-102.7798148627" r="2" />
	<circle cx="532.6284106264" cy="-335.1591650670" r="2" />
	<circle cx="460.9987951693" cy="-266.1144900901" r="2" />
	<circle cx="0.0000000000" cy="-0.0000000000" r="2" />
	<circle cx="0.0000000000" cy="-0.0000000000" r="2" />
	<circle cx="499.9999987294" cy="-866.0253963199" r="2" />
	<circle cx="0.0079042584" cy="-0.0045615707" r="2" />
	<circle cx="1000.0000000000" cy="-0.0000000000" r="2" />
	<circle cx="0.0000000000" cy="-0.0000000000" r="2" />
	<circle cx="484.1274064712" cy="-404.6274917163" r="2" />
	<circle cx="500.0000000000" cy="-866.0254038000" r="2" />
	<circle cx="999.9999998997" cy="-0.0000000577" r="2" />
	<circle cx="0.0000000000" cy="-0.0000000000" r="2" />
	<circle cx="0.0000000000" cy="-0.0000000000" r="2" />
	<circle cx="0.0000000000" cy="-0.0000000000" r="2" />
	<circle cx="500.0000000000" cy="-866.0254038000" r="2" />
	<circle cx="500.0000000000" cy="-866.0254037040" r="2" />
	<circle cx="1000.0000000000" cy="-0.0000000000" r="2" />
	<circle cx="1000.0000000000" cy="-0.0000000000" r="2" />
	<circle cx="0.0000000000" cy="-0.0000000000" r="2" />
	<circle cx="365.3466711499" cy="-213.5920792996" r="2" />
	<circle cx="0.0000062410" cy="-0.0000017017" r="2" />
	<circle cx="1000.0000000000" cy="-0.0000000000" r="2" />
	<circle cx="500.0000000000" cy="-866.0254038000" r="2" />
	<circle cx="999.9999999751" cy="-0.0000000179" r="2" />
	<circle cx="500.0000000000" cy="-866.0254031137" r="2" />
	<circle cx="999.9999999939" cy="-0.0000000033" r="2" />
	<circle cx="513.7632603552" cy="-698.0616970792" r="2" />
	<circle cx="486.1141500963" cy="-479.1594833102" r="2" />
	<circle cx="1000.0000000000" cy="-0.0000000000" r="2" />
	<circle cx="0.0023468923" cy="-0.0013550639" r="2" />
	<circle cx="500.0000000000" cy="-866.0254038000" r="2" />
	<circle cx="502.3978754406" cy="-768.8985546620" r="2" />
	<circle cx="662.0267358934" cy="-206.7287590700" r="2" />
	<circle cx="499.9999999866" cy="-866.0253256772" r="2" />
	<circle cx="0.0000000000" cy="-0.0000000000" r="2" />
	<circle cx="500.0000000000" cy="-866.0254038000" r="2" />
	<circle cx="500.0000000000" cy="-866.0254038000" r="2" />
	<circle cx="0.0000000000" cy="-0.0000000000" r="2" />
	<circle cx="999.9999999195" cy="-0.0000000754" r="2" />
	<circle cx="1000.0000000000" cy="-0.0000000000" r="2" />
	<circle cx="500.0000000000" cy="-866.0254038000" r="2" />
	<circle cx="500.0129270094" cy="-288.7227420285" r="2" />
	<circle cx="661.5600556253" cy="-199.8305583242" r="2" />
	<circle cx="684.4607010312" cy="-182.1356310881" r="2" />
	<circle cx="1000.0000000000" cy="-0.0000000000" r="2" />
	<circle cx="0.0000000003" cy="-0.0000000002" r="2" />
	<circle cx="958.0233782887" cy="-32.7650018228" r="2" />
	<circle cx="529.7051926274" cy="-273.0942578757" r="2" />
	<circle cx="1000.0000000000" cy="-0.0000000000" r="2" />
	<circle cx="1000.0000000000" cy="-0.0000000000" r="2" />
	<circle cx="516.2605495784" cy="-279.3423231194" r="2" />
	<circle cx="500.0000000000" cy="-866.0254038000" r="2" />
	<circle cx="499.8127317475" cy="-300.5134394589" r="2" />
	<circle cx="0.0000000000" cy="-0.0000000000" r="2" />
	<circle cx="499.9999999935" cy="-866.0254017408" r="2" />
	<circle cx="500.0000000000" cy="-866.0254038000" r="2" />
	<circle cx="1000.0000000000" cy="-0.0000000000" r="2" />
	<circle cx="1000.0000000000" cy="-0.0000000000" r="2" />
	<circle cx="1000.0000000000" cy="-0.0000000000" r="2" />
	<circle cx="1000.0000000000" cy="-0.0000000000" r="2" />
	<circle cx="993.0910749100" cy="-3.9913724010" r="2" />
	<circle cx="499.9908196914" cy="-862.5145435762" r="2" />
	<circle cx="500.0185992301" cy="-292.3876149331" r="2" />
	<circle cx="500.0000000000" cy="-866.0254037790" r="2" />
	<circle cx="0.0000000000" cy="-0.0000000000" r="2" />
	<circle cx="500.0000000000" cy="-866.0254038000" r="2" />
	<circle cx="1000.0000000000" cy="-0.0000000000" r="2" />
	<circle cx="500.0000000000" cy="-866.0254038000" r="2" />
	<circle cx="500.0000000000" cy="-866.0254037998" r="2" />
	<circle cx="0.0000000000" cy="-0.0000000000" r="2" />
	<circle cx="499.9999993521" cy="-866.0254025596" r="2" />
	<circle cx="500.0000000000" cy="-866.0254038000" r="2" />
	<circle cx="0.0000000004" cy="-0.0000000002" r="2" />
	<circle cx="500.3076081867" cy="-288.6041348877" r="2" />
	<circle cx="500.0000000000" cy="-866.0254038000" r="2" />
	<circle cx="499.9999999999" cy="-866.0254037987" r="2" />
	<circle cx="1000.0000000000" cy="-0.0000000000" r="2" />
  </g>
  <g id="fig2" transform="translate(-550.0,1000)">
	<polygon points="0.0,-0.0 1000.0,-0.0 500.0,-866.0254038" />
	<line
	   id="line2-1"
	   y2="-0.0"
	   x2="500"
	   y1="-288.6751346"
	   x1="500" />
	<line
	   id="line2-2"
	   y2="-433.0127019"
	   x2="250"
	   y1="-288.6751346"
	   x1="500" />
	<line
	   id="line2-3"
	   y2="-433.0127019"
	   x2="750"
	   y1="-288.6751346"
	   x1="500" />
	<text
	   x="440"
	   y="-500"
	   id="up_2">32.8%</text>
	<text
	   x="250"
	   y="-150"
	   id="down_left_2">33.8%</text>
	<text
	   x="630"
	   y="-150"
	   id="down_right_2">33.4%</text>
  </g>
  <g id="fig3" transform="translate(550,1000)">
	<polygon points="0.0,-0.0 1000.0,-0.0 500.0,-866.0254038" />
	<polygon id="triangle3b" points="250,-144.3375673 750,-144.3375673 500,-577.3502692" />
	<line
	   id="line3-1"
	   x1="125"
	   y1="-216.5063509"
	   x2="250"
	   y2="-144.3375673" />
	<line
	   id="line3-2"
	   x1="375"
	   y1="-649.5190528"
	   x2="500"
	   y2="-577.3502692" />
	<line
	   id="line3-3"
	   x1="625"
	   y1="-649.5190528"
	   x2="500"
	   y2="-577.3502692" />
	<line
	   id="line3-4"
	   x1="875"
	   y1="-216.5063509"
	   x2="750"
	   y2="-144.3375673" />
	<line
	   id="line3-5"
	   x1="750"
	   y1="-0.0"
	   x2="750"
	   y2="-144.3375673" />
	<line
	   id="line3-6"
	   x1="250"
	   y1="-0.0"
	   x2="250"
	   y2="-144.3375673" />
	<text
	   x="500"
	   y="-660"
	   text-anchor="middle"
	   id="up_3">27.2%</text>
	<text
	   y="-50"
	   x="70"
	   id="down_left_3">28.8%</text>
	<text
	   y="-50"
	   x="770"
	   id="down_right_3">26.6%</text>
	<text
	   x="500"
	   y="-50"
	   text-anchor="middle"
	   id="down_side_3">0.4%</text>
	<text
	   x="500"
	   y="-280"
	   text-anchor="middle"
	   id="center_3">16.4%</text>
	<text
	   x="685.0"
	   y="-390.8439"
	   text-anchor="middle"
	   transform="rotate(60,665.0,-380.8439)"
	   id="right_side_3">0.4%</text>
	<text
	   x="315.0"
	   y="-390.8439"
	   text-anchor="middle"
	   transform="rotate(-60,335.0,-380.8439)"
	   id="left_side_3">0.2%</text>
  </g>
</g></g>
</svg>
