<?xml version="1.0" encoding="UTF-8" standalone="no"?>
<!DOCTYPE svg PUBLIC "-//W3C//DTD SVG 1.1//EN" "http://www.w3.org/Graphics/SVG/1.1/DTD/svg11.dtd">
<svg
   xmlns:svg="http://www.w3.org/2000/svg"
   xmlns="http://www.w3.org/2000/svg"
   xmlns:xlink="http://www.w3.org/1999/xlink"
   version="1.1"
   baseProfile="full"
   id="body"
   width="800px"
   height="800px"
   viewBox="0 0 1000 1000"
   preserveAspectRatio="none">
  <defs>
    <style type="text/css"><![CDATA[
      circle{ stroke: none; }
      polygon{ stroke: black; stroke-width: 2px; fill: none; }
      line{ stroke: black; stroke-width: 2px; }
      text{ font-size:50px; }
    ]]></style>
  </defs>
  <title
     id="title1">SVG drawing</title>
<g transform="scale(0.45)"><g transform="translate(600,1050)">
  <g id="fig1">
	<polygon points="0.0,-0.0 1000.0,-0.0 500,-866.0254038" />
	<circle cx="1000.0000000000" cy="-0.0000000000" r="2" />
	<circle cx="0.0000000000" cy="-0.0000000000" r="2" />
	<circle cx="500.0000000000" cy="-866.0254037646" r="2" />
	<circle cx="995.8798469257" cy="-2.3778654911" r="2" />
	<circle cx="500.0000000116" cy="-866.0253826165" r="2" />
	<circle cx="500.0000000000" cy="-866.0254038000" r="2" />
	<circle cx="500.0000000000" cy="-866.0254038000" r="2" />
	<circle cx="491.1623769951" cy="-738.7890405237" r="2" />
	<circle cx="500.0015347196" cy="-778.3575099456" r="2" />
	<circle cx="948.3176958650" cy="-51.7099278192" r="2" />
	<circle cx="0.0000000000" cy="-0.0000000000" r="2" />
	<circle cx="0.0000031805" cy="-0.0000018362" r="2" />
	<circle cx="0.0000000000" cy="-0.0000000000" r="2" />
	<circle cx="0.0000000266" cy="-0.0000000082" r="2" />
	<circle cx="500.0000000000" cy="-866.0254038000" r="2" />
	<circle cx="494.3311437183" cy="-805.3279517839" r="2" />
	<circle cx="500.0000000112" cy="-866.0254037418" r="2" />
	<circle cx="500.0000000000" cy="-866.0254038000" r="2" />
	<circle cx="0.0000000000" cy="-0.0000000000" r="2" />
	<circle cx="500.0433916854" cy="-863.9919756437" r="2" />
	<circle cx="500.0000000000" cy="-866.0254037850" r="2" />
	<circle cx="1000.0000000000" cy="-0.0000000000" r="2" />
	<circle cx="0.0000000000" cy="-0.0000000000" r="2" />
	<circle cx="500.0000009686" cy="-865.4533742863" r="2" />
	<circle cx="500.0181111779" cy="-832.7595482741" r="2" />
	<circle cx="500.0000000000" cy="-866.0254038000" r="2" />
	<circle cx="999.9993965856" cy="-0.0003484154" r="2" />
	<circle cx="500.0000000000" cy="-866.0254038000" r="2" />
	<circle cx="280.7677171436" cy="-209.1208355165" r="2" />
	<circle cx="500.0000000000" cy="-866.0254038000" r="2" />
	<circle cx="500.0000000000" cy="-866.0254038000" r="2" />
	<circle cx="500.0000000000" cy="-866.0254038000" r="2" />
	<circle cx="0.0000002674" cy="-0.0000003421" r="2" />
	<circle cx="0.0016664031" cy="-0.0008468324" r="2" />
	<circle cx="0.3299667818" cy="-0.1923891021" r="2" />
	<circle cx="0.0000034831" cy="-0.0000011804" r="2" />
	<circle cx="500.0000000000" cy="-866.0254038000" r="2" />
	<circle cx="500.0000000280" cy="-866.0238896232" r="2" />
	<circle cx="0.0001530023" cy="-0.0000373528" r="2" />
	<circle cx="0.0000000000" cy="-0.0000000000" r="2" />
	<circle cx="0.0000000000" cy="-0.0000000000" r="2" />
	<circle cx="1000.0000000000" cy="-0.0000000000" r="2" />
	<circle cx="767.5772273278" cy="-134.2981213620" r="2" />
	<circle cx="0.0000000000" cy="-0.0000000000" r="2" />
	<circle cx="0.0000000000" cy="-0.0000000000" r="2" />
	<circle cx="805.4045733763" cy="-63.3020065302" r="2" />
	<circle cx="500.0000001225" cy="-866.0166139605" r="2" />
	<circle cx="0.0000000000" cy="-0.0000000000" r="2" />
	<circle cx="500.0000000000" cy="-866.0254038000" r="2" />
	<circle cx="0.0000000000" cy="-0.0000000000" r="2" />
	<circle cx="500.0000000000" cy="-866.0254037996" r="2" />
	<circle cx="0.1973874883" cy="-0.3154306682" r="2" />
	<circle cx="1000.0000000000" cy="-0.0000000000" r="2" />
	<circle cx="1000.0000000000" cy="-0.0000000000" r="2" />
	<circle cx="500.0000000000" cy="-866.0254038000" r="2" />
	<circle cx="499.9999999443" cy="-866.0244253053" r="2" />
	<circle cx="1000.0000000000" cy="-0.0000000000" r="2" />
	<circle cx="500.0113645521" cy="-866.0003498187" r="2" />
	<circle cx="500.0000000000" cy="-866.0254038000" r="2" />
	<circle cx="500.0000000000" cy="-866.0254038000" r="2" />
	<circle cx="0.0000004992" cy="-0.0000002692" r="2" />
	<circle cx="1000.0000000000" cy="-0.0000000000" r="2" />
	<circle cx="500.0000000000" cy="-866.0254038000" r="2" />
	<circle cx="500.0000000000" cy="-866.0254038000" r="2" />
	<circle cx="0.0000000000" cy="-0.0000000000" r="2" />
	<circle cx="1000.0000000000" cy="-0.0000000000" r="2" />
	<circle cx="1000.0000000000" cy="-0.0000000000" r="2" />
	<circle cx="0.0000001380" cy="-0.0000000796" r="2" />
	<circle cx="999.9988785492" cy="-0.0006079839" r="2" />
	<circle cx="1000.0000000000" cy="-0.0000000000" r="2" />
	<circle cx="0.0000432340" cy="-0.0000249565" r="2" />
	<circle cx="999.9999995423" cy="-0.0000002643" r="2" />
	<circle cx="500.0000000000" cy="-866.0254038000" r="2" />
	<circle cx="1000.0000000000" cy="-0.0000000000" r="2" />
	<circle cx="0.0000001277" cy="-0.0000000737" r="2" />
	<circle cx="500.0000000000" cy="-866.0254038000" r="2" />
	<circle cx="1000.0000000000" cy="-0.0000000000" r="2" />
	<circle cx="500.0000000000" cy="-866.0254038000" r="2" />
	<circle cx="0.0035433669" cy="-0.0020456711" r="2" />
	<circle cx="0.0000000000" cy="-0.0000000000" r="2" />
	<circle cx="500.0024079776" cy="-644.4165268755" r="2" />
	<circle cx="0.0000000000" cy="-0.0000000000" r="2" />
	<circle cx="1000.0000000000" cy="-0.0000000000" r="2" />
	<circle cx="500.0012157012" cy="-836.7930995904" r="2" />
	<circle cx="0.0000000660" cy="-0.0000000199" r="2" />
	<circle cx="979.2200131232" cy="-16.5119017263" r="2" />
	<circle cx="1000.0000000000" cy="-0.0000000000" r="2" />
	<circle cx="500.0000000000" cy="-866.0254038000" r="2" />
	<circle cx="500.0000000000" cy="-866.0254038000" r="2" />
	<circle cx="0.0000000001" cy="-0.0000000000" r="2" />
	<circle cx="0.0000000000" cy="-0.0000000000" r="2" />
	<circle cx="0.0000000251" cy="-0.0000000145" r="2" />
	<circle cx="500.0000000029" cy="-866.0254037174" r="2" />
	<circle cx="500.0000000000" cy="-866.0254038000" r="2" />
	<circle cx="970.2653822855" cy="-16.4363034153" r="2" />
	<circle cx="0.0000000000" cy="-0.0000000000" r="2" />
	<circle cx="0.0000000000" cy="-0.0000000000" r="2" />
	<circle cx="0.0000000000" cy="-0.0000000000" r="2" />
	<circle cx="1000.0000000000" cy="-0.0000000000" r="2" />
	<circle cx="499.9999987140" cy="-848.2100282291" r="2" />
	<circle cx="1000.0000000000" cy="-0.0000000000" r="2" />
	<circle cx="500.0000000000" cy="-866.0254038000" r="2" />
	<circle cx="499.9996022460" cy="-855.6227476432" r="2" />
	<circle cx="500.0000000000" cy="-866.0254038000" r="2" />
	<circle cx="0.0000000000" cy="-0.0000000000" r="2" />
	<circle cx="500.0000000000" cy="-866.0254038000" r="2" />
	<circle cx="1000.0000000000" cy="-0.0000000000" r="2" />
	<circle cx="1000.0000000000" cy="-0.0000000000" r="2" />
	<circle cx="0.0000000560" cy="-0.0000000195" r="2" />
	<circle cx="0.0000000000" cy="-0.0000000000" r="2" />
	<circle cx="500.0000000000" cy="-866.0254038000" r="2" />
	<circle cx="1000.0000000000" cy="-0.0000000000" r="2" />
	<circle cx="1000.0000000000" cy="-0.0000000000" r="2" />
	<circle cx="500.0000000000" cy="-866.0254038000" r="2" />
	<circle cx="1000.0000000000" cy="-0.0000000000" r="2" />
	<circle cx="1000.0000000000" cy="-0.0000000000" r="2" />
	<circle cx="672.8340491765" cy="-175.5253862578" r="2" />
	<circle cx="0.0000000000" cy="-0.0000000000" r="2" />
	<circle cx="979.6943938372" cy="-11.7110780856" r="2" />
	<circle cx="0.0000000000" cy="-0.0000000000" r="2" />
	<circle cx="1000.0000000000" cy="-0.0000000000" r="2" />
	<circle cx="0.0000000505" cy="-0.0000000485" r="2" />
	<circle cx="0.0000098488" cy="-0.0000056485" r="2" />
	<circle cx="999.9999999842" cy="-0.0000000047" r="2" />
	<circle cx="11.8864622906" cy="-6.8202980645" r="2" />
	<circle cx="500.0000000000" cy="-866.0254038000" r="2" />
	<circle cx="500.0000000000" cy="-866.0254038000" r="2" />
	<circle cx="0.0000000000" cy="-0.0000000000" r="2" />
	<circle cx="26.9154073485" cy="-15.4892672996" r="2" />
	<circle cx="998.8758616966" cy="-0.7228060811" r="2" />
	<circle cx="0.0000000000" cy="-0.0000000000" r="2" />
	<circle cx="1000.0000000000" cy="-0.0000000000" r="2" />
	<circle cx="999.9999999178" cy="-0.0000000475" r="2" />
	<circle cx="499.9998774471" cy="-862.0871996660" r="2" />
	<circle cx="973.7182961142" cy="-15.1791529847" r="2" />
	<circle cx="0.0000025792" cy="-0.0000015981" r="2" />
	<circle cx="1000.0000000000" cy="-0.0000000000" r="2" />
	<circle cx="500.0000000000" cy="-866.0254038000" r="2" />
	<circle cx="1000.0000000000" cy="-0.0000000000" r="2" />
	<circle cx="0.4732418557" cy="-0.2735365172" r="2" />
	<circle cx="1000.0000000000" cy="-0.0000000000" r="2" />
	<circle cx="1000.0000000000" cy="-0.0000000000" r="2" />
	<circle cx="0.0000000007" cy="-0.0000000004" r="2" />
	<circle cx="0.0000000000" cy="-0.0000000000" r="2" />
	<circle cx="500.0000000000" cy="-866.0254038000" r="2" />
	<circle cx="26.8797870950" cy="-15.5646312901" r="2" />
	<circle cx="1000.0000000000" cy="-0.0000000000" r="2" />
	<circle cx="1000.0000000000" cy="-0.0000000000" r="2" />
	<circle cx="499.9260204375" cy="-863.5269701471" r="2" />
	<circle cx="1000.0000000000" cy="-0.0000000000" r="2" />
	<circle cx="55.3184247856" cy="-25.4955906061" r="2" />
	<circle cx="1000.0000000000" cy="-0.0000000000" r="2" />
	<circle cx="499.9324504553" cy="-863.4978122935" r="2" />
	<circle cx="0.0010414643" cy="-0.0006013189" r="2" />
	<circle cx="500.0000000000" cy="-866.0254038000" r="2" />
	<circle cx="499.9999999958" cy="-866.0253560382" r="2" />
	<circle cx="500.0804794781" cy="-535.3532007772" r="2" />
	<circle cx="500.0003190936" cy="-857.2485458927" r="2" />
	<circle cx="1000.0000000000" cy="-0.0000000000" r="2" />
	<circle cx="1000.0000000000" cy="-0.0000000000" r="2" />
	<circle cx="500.0000000369" cy="-866.0253571261" r="2" />
	<circle cx="1000.0000000000" cy="-0.0000000000" r="2" />
	<circle cx="1000.0000000000" cy="-0.0000000000" r="2" />
	<circle cx="500.0000000000" cy="-866.0254038000" r="2" />
	<circle cx="0.0000000000" cy="-0.0000000000" r="2" />
	<circle cx="500.0000000001" cy="-866.0254031083" r="2" />
	<circle cx="500.0000000000" cy="-866.0254038000" r="2" />
	<circle cx="0.0000000035" cy="-0.0000000020" r="2" />
	<circle cx="500.0000000000" cy="-866.0254038000" r="2" />
	<circle cx="701.1252085856" cy="-172.7651492451" r="2" />
	<circle cx="1000.0000000000" cy="-0.0000000000" r="2" />
	<circle cx="500.0000000000" cy="-866.0254038000" r="2" />
	<circle cx="687.8717165548" cy="-180.2789968166" r="2" />
	<circle cx="500.0000000000" cy="-866.0254038000" r="2" />
	<circle cx="1000.0000000000" cy="-0.0000000000" r="2" />
	<circle cx="0.0008109036" cy="-0.0004684112" r="2" />
	<circle cx="500.0000000000" cy="-866.0254038000" r="2" />
	<circle cx="999.9999981931" cy="-0.0000020398" r="2" />
	<circle cx="0.0000000000" cy="-0.0000000000" r="2" />
	<circle cx="40.1075800489" cy="-23.4222784014" r="2" />
	<circle cx="500.0000000000" cy="-866.0254038000" r="2" />
	<circle cx="0.0000000000" cy="-0.0000000000" r="2" />
	<circle cx="1000.0000000000" cy="-0.0000000000" r="2" />
	<circle cx="5.3073383257" cy="-3.0639223263" r="2" />
	<circle cx="1000.0000000000" cy="-0.0000000000" r="2" />
	<circle cx="500.0002551886" cy="-866.0240009163" r="2" />
	<circle cx="500.0000000000" cy="-866.0254038000" r="2" />
	<circle cx="500.0000000000" cy="-866.0254038000" r="2" />
	<circle cx="0.0000000000" cy="-0.0000000000" r="2" />
	<circle cx="0.0000000000" cy="-0.0000000000" r="2" />
	<circle cx="500.0000000000" cy="-866.0254038000" r="2" />
	<circle cx="1000.0000000000" cy="-0.0000000000" r="2" />
	<circle cx="500.0000000000" cy="-866.0254038000" r="2" />
	<circle cx="130.7911927153" cy="-126.4772407804" r="2" />
	<circle cx="999.9800627264" cy="-0.0121613106" r="2" />
	<circle cx="999.9999999962" cy="-0.0000000022" r="2" />
	<circle cx="500.0000000000" cy="-866.0254038000" r="2" />
	<circle cx="999.9850076253" cy="-0.0126437695" r="2" />
	<circle cx="994.1742886512" cy="-3.3647499227" r="2" />
	<circle cx="0.0000000000" cy="-0.0000000000" r="2" />
	<circle cx="999.5264896180" cy="-0.2730710190" r="2" />
	<circle cx="1000.0000000000" cy="-0.0000000000" r="2" />
	<circle cx="0.0000000000" cy="-0.0000000000" r="2" />
	<circle cx="667.7573604732" cy="-179.6966499450" r="2" />
	<circle cx="999.7528195139" cy="-0.1427473777" r="2" />
	<circle cx="727.3599405012" cy="-157.4531939196" r="2" />
	<circle cx="494.7371190307" cy="-815.5518652683" r="2" />
	<circle cx="0.0000000000" cy="-0.0000000000" r="2" />
	<circle cx="0.0000000000" cy="-0.0000000000" r="2" />
	<circle cx="500.0000000000" cy="-866.0254038000" r="2" />
	<circle cx="0.0000000000" cy="-0.0000000000" r="2" />
	<circle cx="1000.0000000000" cy="-0.0000000000" r="2" />
	<circle cx="499.9999998458" cy="-866.0251366104" r="2" />
	<circle cx="0.0070569918" cy="-0.0054386311" r="2" />
	<circle cx="0.0000000003" cy="-0.0000000002" r="2" />
	<circle cx="499.9999998154" cy="-866.0254028691" r="2" />
	<circle cx="0.0000000000" cy="-0.0000000000" r="2" />
	<circle cx="425.5443186224" cy="-589.9626755901" r="2" />
	<circle cx="500.0000000000" cy="-866.0254038000" r="2" />
	<circle cx="499.9324971443" cy="-863.4980197866" r="2" />
	<circle cx="0.0000000000" cy="-0.0000000000" r="2" />
	<circle cx="999.9999999999" cy="-0.0000000000" r="2" />
	<circle cx="500.0000000000" cy="-866.0254038000" r="2" />
	<circle cx="0.0000000001" cy="-0.0000000000" r="2" />
	<circle cx="0.0000000000" cy="-0.0000000000" r="2" />
	<circle cx="1000.0000000000" cy="-0.0000000000" r="2" />
	<circle cx="90.5127330881" cy="-61.9731698013" r="2" />
	<circle cx="1000.0000000000" cy="-0.0000000000" r="2" />
	<circle cx="1000.0000000000" cy="-0.0000000000" r="2" />
	<circle cx="500.0000000000" cy="-866.0254038000" r="2" />
	<circle cx="500.0000009883" cy="-866.0253738322" r="2" />
	<circle cx="499.9999991239" cy="-866.0253982290" r="2" />
	<circle cx="0.0000000000" cy="-0.0000000000" r="2" />
	<circle cx="1000.0000000000" cy="-0.0000000000" r="2" />
	<circle cx="1000.0000000000" cy="-0.0000000000" r="2" />
	<circle cx="500.0000000000" cy="-866.0254038000" r="2" />
	<circle cx="999.9999999882" cy="-0.0000000117" r="2" />
	<circle cx="0.0000000000" cy="-0.0000000000" r="2" />
	<circle cx="941.9936755452" cy="-61.3554701131" r="2" />
	<circle cx="0.0000000000" cy="-0.0000000000" r="2" />
	<circle cx="500.0000149953" cy="-828.6277915641" r="2" />
	<circle cx="0.0008474451" cy="-0.0004892094" r="2" />
	<circle cx="813.0168144611" cy="-107.9506444518" r="2" />
	<circle cx="0.7504050421" cy="-0.4333024758" r="2" />
	<circle cx="999.8436601778" cy="-0.0764380033" r="2" />
	<circle cx="51.3871467630" cy="-29.6692531376" r="2" />
	<circle cx="0.0000000007" cy="-0.0000000004" r="2" />
	<circle cx="999.9999999987" cy="-0.0000000004" r="2" />
	<circle cx="1000.0000000000" cy="-0.0000000000" r="2" />
	<circle cx="499.9999999884" cy="-866.0254019488" r="2" />
	<circle cx="500.0000000000" cy="-866.0254038000" r="2" />
	<circle cx="500.4423632608" cy="-831.2992930759" r="2" />
	<circle cx="503.4710245016" cy="-812.0992816295" r="2" />
	<circle cx="0.0000000000" cy="-0.0000000000" r="2" />
	<circle cx="513.1765774048" cy="-789.3343752993" r="2" />
	<circle cx="999.9999219345" cy="-0.0000450796" r="2" />
	<circle cx="0.0000000000" cy="-0.0000000000" r="2" />
	<circle cx="1000.0000000000" cy="-0.0000000000" r="2" />
	<circle cx="500.0000000176" cy="-866.0254037375" r="2" />
	<circle cx="1000.0000000000" cy="-0.0000000000" r="2" />
	<circle cx="500.0000000000" cy="-866.0254038000" r="2" />
	<circle cx="1000.0000000000" cy="-0.0000000000" r="2" />
	<circle cx="499.9999999995" cy="-866.0254036094" r="2" />
	<circle cx="0.0000000000" cy="-0.0000000000" r="2" />
	<circle cx="0.0000000000" cy="-0.0000000000" r="2" />
	<circle cx="500.0000000000" cy="-866.0254038000" r="2" />
	<circle cx="499.9993906600" cy="-866.0097315712" r="2" />
	<circle cx="1000.0000000000" cy="-0.0000000000" r="2" />
	<circle cx="3.8935144309" cy="-2.2513870237" r="2" />
	<circle cx="999.9999996964" cy="-0.0000001753" r="2" />
	<circle cx="1000.0000000000" cy="-0.0000000000" r="2" />
	<circle cx="500.0000000000" cy="-866.0254038000" r="2" />
	<circle cx="788.2112190491" cy="-50.1792868251" r="2" />
	<circle cx="499.9917404476" cy="-865.9738059638" r="2" />
	<circle cx="500.0000000000" cy="-866.0254038000" r="2" />
	<circle cx="0.0000000000" cy="-0.0000000000" r="2" />
	<circle cx="0.0000000000" cy="-0.0000000000" r="2" />
	<circle cx="500.0001766376" cy="-866.0200552830" r="2" />
	<circle cx="999.9999980659" cy="-0.0000015635" r="2" />
	<circle cx="500.0000000000" cy="-866.0254038000" r="2" />
	<circle cx="999.9999999961" cy="-0.0000000023" r="2" />
	<circle cx="499.9999734806" cy="-866.0252648922" r="2" />
	<circle cx="500.0000000000" cy="-866.0254038000" r="2" />
	<circle cx="999.9999778339" cy="-0.0000163865" r="2" />
	<circle cx="57.8542720268" cy="-33.3561716806" r="2" />
	<circle cx="500.0000000000" cy="-866.0254038000" r="2" />
	<circle cx="0.0000000000" cy="-0.0000000000" r="2" />
	<circle cx="0.0000000000" cy="-0.0000000000" r="2" />
	<circle cx="999.9999996017" cy="-0.0000002299" r="2" />
	<circle cx="500.0000000000" cy="-866.0254038000" r="2" />
	<circle cx="1000.0000000000" cy="-0.0000000000" r="2" />
	<circle cx="999.9999184989" cy="-0.0000470403" r="2" />
	<circle cx="500.0000000000" cy="-866.0254038000" r="2" />
	<circle cx="500.0153499884" cy="-851.0853181167" r="2" />
	<circle cx="0.0000000000" cy="-0.0000000000" r="2" />
	<circle cx="6.0434997944" cy="-3.4886580435" r="2" />
	<circle cx="500.0000000000" cy="-866.0254038000" r="2" />
	<circle cx="0.0000000000" cy="-0.0000000000" r="2" />
	<circle cx="36.5492208355" cy="-5.6801419393" r="2" />
	<circle cx="500.0000000000" cy="-866.0254038000" r="2" />
	<circle cx="500.0000000000" cy="-866.0254038000" r="2" />
	<circle cx="500.0000000000" cy="-866.0254037851" r="2" />
	<circle cx="1000.0000000000" cy="-0.0000000000" r="2" />
	<circle cx="0.0000000000" cy="-0.0000000000" r="2" />
	<circle cx="987.6875211563" cy="-7.0869093986" r="2" />
	<circle cx="1000.0000000000" cy="-0.0000000000" r="2" />
	<circle cx="0.0000000000" cy="-0.0000000000" r="2" />
	<circle cx="500.0000000000" cy="-866.0254038000" r="2" />
	<circle cx="500.0000000000" cy="-866.0254038000" r="2" />
	<circle cx="0.0000000000" cy="-0.0000000000" r="2" />
	<circle cx="0.0000000000" cy="-0.0000000000" r="2" />
	<circle cx="0.0000000000" cy="-0.0000000000" r="2" />
	<circle cx="0.0000000000" cy="-0.0000000000" r="2" />
	<circle cx="0.0000119419" cy="-0.0000089460" r="2" />
	<circle cx="1000.0000000000" cy="-0.0000000000" r="2" />
	<circle cx="500.0426389580" cy="-865.1962278531" r="2" />
	<circle cx="500.0000000000" cy="-866.0254038000" r="2" />
	<circle cx="499.9999999932" cy="-866.0252372136" r="2" />
	<circle cx="0.0000432320" cy="-0.0000249560" r="2" />
	<circle cx="0.0000000000" cy="-0.0000000000" r="2" />
	<circle cx="0.0000000000" cy="-0.0000000000" r="2" />
	<circle cx="0.0000000000" cy="-0.0000000000" r="2" />
	<circle cx="500.0000000000" cy="-866.0254038000" r="2" />
	<circle cx="500.0000000000" cy="-866.0254038000" r="2" />
	<circle cx="923.9963999584" cy="-36.8111050021" r="2" />
	<circle cx="481.5597354281" cy="-788.4878169885" r="2" />
	<circle cx="999.9980832089" cy="-0.0011028473" r="2" />
	<circle cx="999.9999999561" cy="-0.0000000253" r="2" />
	<circle cx="499.9999997412" cy="-866.0250844782" r="2" />
	<circle cx="148.6919927293" cy="-85.7234656365" r="2" />
	<circle cx="499.9965472369" cy="-866.0061000373" r="2" />
	<circle cx="499.9999999998" cy="-866.0254029274" r="2" />
	<circle cx="500.0000000000" cy="-866.0254038000" r="2" />
	<circle cx="0.0000000000" cy="-0.0000000000" r="2" />
	<circle cx="499.9996307349" cy="-858.6652709716" r="2" />
	<circle cx="500.0000000000" cy="-866.0254038000" r="2" />
	<circle cx="1000.0000000000" cy="-0.0000000000" r="2" />
	<circle cx="999.9999999889" cy="-0.0000000061" r="2" />
	<circle cx="499.9945156987" cy="-866.0010545794" r="2" />
	<circle cx="0.0000000006" cy="-0.0000000003" r="2" />
	<circle cx="1000.0000000000" cy="-0.0000000000" r="2" />
	<circle cx="499.9994219172" cy="-611.2750220888" r="2" />
	<circle cx="0.0000000041" cy="-0.0000000024" r="2" />
	<circle cx="0.0000000000" cy="-0.0000000000" r="2" />
	<circle cx="0.0000000000" cy="-0.0000000000" r="2" />
	<circle cx="44.9663120707" cy="-29.9695566251" r="2" />
	<circle cx="0.0000000000" cy="-0.0000000000" r="2" />
	<circle cx="0.0000000000" cy="-0.0000000000" r="2" />
	<circle cx="1000.0000000000" cy="-0.0000000000" r="2" />
	<circle cx="500.0000000000" cy="-866.0254038000" r="2" />
	<circle cx="0.0000000000" cy="-0.0000000000" r="2" />
	<circle cx="1000.0000000000" cy="-0.0000000000" r="2" />
	<circle cx="0.0000000000" cy="-0.0000000000" r="2" />
	<circle cx="116.6856519770" cy="-145.8126705608" r="2" />
	<circle cx="757.4480096584" cy="-140.1633836232" r="2" />
	<circle cx="0.0000000000" cy="-0.0000000000" r="2" />
	<circle cx="500.0000000000" cy="-866.0254038000" r="2" />
	<circle cx="500.0011480475" cy="-858.2416339958" r="2" />
	<circle cx="0.0000000000" cy="-0.0000000000" r="2" />
	<circle cx="500.0000000000" cy="-866.0254038000" r="2" />
	<circle cx="1000.0000000000" cy="-0.0000000000" r="2" />
	<circle cx="0.0000047079" cy="-0.0000027184" r="2" />
	<circle cx="38.5826178158" cy="-34.3077687595" r="2" />
	<circle cx="500.0000000000" cy="-866.0254038000" r="2" />
	<circle cx="0.0000000000" cy="-0.0000000000" r="2" />
	<circle cx="999.9999999993" cy="-0.0000000004" r="2" />
	<circle cx="1000.0000000000" cy="-0.0000000000" r="2" />
	<circle cx="500.0000000000" cy="-866.0254038000" r="2" />
	<circle cx="500.0005705038" cy="-866.0120365988" r="2" />
	<circle cx="0.0000000000" cy="-0.0000000000" r="2" />
	<circle cx="0.0001071687" cy="-0.0000587951" r="2" />
	<circle cx="0.0000000000" cy="-0.0000000000" r="2" />
	<circle cx="500.0000001625" cy="-866.0254033975" r="2" />
	<circle cx="499.6642234598" cy="-864.5065731878" r="2" />
	<circle cx="426.7338533032" cy="-614.3002941250" r="2" />
	<circle cx="21.7990891271" cy="-12.5874600912" r="2" />
	<circle cx="1000.0000000000" cy="-0.0000000000" r="2" />
	<circle cx="1000.0000000000" cy="-0.0000000000" r="2" />
	<circle cx="687.0138578063" cy="-181.1375323429" r="2" />
	<circle cx="0.0000000000" cy="-0.0000000000" r="2" />
	<circle cx="1000.0000000000" cy="-0.0000000000" r="2" />
	<circle cx="500.0000000000" cy="-866.0254038000" r="2" />
	<circle cx="0.0000000000" cy="-0.0000000000" r="2" />
	<circle cx="1000.0000000000" cy="-0.0000000000" r="2" />
	<circle cx="0.0000000561" cy="-0.0000000195" r="2" />
	<circle cx="1000.0000000000" cy="-0.0000000000" r="2" />
	<circle cx="0.0000000000" cy="-0.0000000000" r="2" />
	<circle cx="500.0000000000" cy="-866.0254038000" r="2" />
	<circle cx="0.0000000000" cy="-0.0000000000" r="2" />
	<circle cx="1000.0000000000" cy="-0.0000000000" r="2" />
	<circle cx="497.2204029833" cy="-837.0708882740" r="2" />
	<circle cx="500.0000000000" cy="-866.0254038000" r="2" />
	<circle cx="500.0000000000" cy="-866.0254038000" r="2" />
	<circle cx="499.9999441086" cy="-866.0226139327" r="2" />
	<circle cx="500.0000000000" cy="-866.0254038000" r="2" />
	<circle cx="999.9999999966" cy="-0.0000000034" r="2" />
	<circle cx="500.0000113175" cy="-866.0248886673" r="2" />
	<circle cx="500.0000000000" cy="-866.0254037950" r="2" />
	<circle cx="67.6065210378" cy="-39.0369945534" r="2" />
	<circle cx="500.0000000000" cy="-866.0254038000" r="2" />
	<circle cx="0.3424225779" cy="-0.1285920025" r="2" />
	<circle cx="500.0000000000" cy="-866.0254038000" r="2" />
	<circle cx="1000.0000000000" cy="-0.0000000000" r="2" />
	<circle cx="0.0000000000" cy="-0.0000000000" r="2" />
	<circle cx="508.1300676041" cy="-843.4443881608" r="2" />
	<circle cx="0.0000000000" cy="-0.0000000000" r="2" />
	<circle cx="999.9999744785" cy="-0.0000147073" r="2" />
	<circle cx="123.4542667911" cy="-71.2791706678" r="2" />
	<circle cx="1000.0000000000" cy="-0.0000000000" r="2" />
	<circle cx="999.9999955405" cy="-0.0000025750" r="2" />
	<circle cx="26.2816650165" cy="-15.1790831715" r="2" />
	<circle cx="0.0000000000" cy="-0.0000000000" r="2" />
	<circle cx="0.0000000000" cy="-0.0000000000" r="2" />
	<circle cx="0.0000000000" cy="-0.0000000000" r="2" />
	<circle cx="0.9610806029" cy="-0.5548801722" r="2" />
	<circle cx="500.0000000360" cy="-866.0253571285" r="2" />
	<circle cx="500.0000000015" cy="-866.0245377195" r="2" />
	<circle cx="499.9997928345" cy="-852.0835257368" r="2" />
	<circle cx="0.0000000000" cy="-0.0000000000" r="2" />
	<circle cx="500.0000000000" cy="-866.0254038000" r="2" />
	<circle cx="500.0000000000" cy="-866.0254038000" r="2" />
	<circle cx="0.0000000029" cy="-0.0000000017" r="2" />
	<circle cx="499.9963603659" cy="-849.4694672820" r="2" />
	<circle cx="1000.0000000000" cy="-0.0000000000" r="2" />
	<circle cx="500.0000000000" cy="-866.0254038000" r="2" />
	<circle cx="0.0000010600" cy="-0.0000006121" r="2" />
	<circle cx="999.9999990939" cy="-0.0000005232" r="2" />
	<circle cx="499.9965457850" cy="-866.0060987316" r="2" />
	<circle cx="1000.0000000000" cy="-0.0000000000" r="2" />
	<circle cx="1000.0000000000" cy="-0.0000000000" r="2" />
	<circle cx="1000.0000000000" cy="-0.0000000000" r="2" />
	<circle cx="0.0000000000" cy="-0.0000000000" r="2" />
	<circle cx="1000.0000000000" cy="-0.0000000000" r="2" />
	<circle cx="500.0000000000" cy="-866.0254038000" r="2" />
	<circle cx="499.9940492491" cy="-857.1868862395" r="2" />
	<circle cx="2.2226084517" cy="-1.2052331678" r="2" />
	<circle cx="0.0000000000" cy="-0.0000000000" r="2" />
	<circle cx="1000.0000000000" cy="-0.0000000000" r="2" />
	<circle cx="500.0000000000" cy="-866.0254038000" r="2" />
	<circle cx="500.0002760317" cy="-814.8980310759" r="2" />
	<circle cx="0.0000000000" cy="-0.0000000000" r="2" />
	<circle cx="499.9848702048" cy="-865.9292474691" r="2" />
	<circle cx="999.9999999713" cy="-0.0000000171" r="2" />
	<circle cx="1000.0000000000" cy="-0.0000000000" r="2" />
	<circle cx="999.9999955402" cy="-0.0000025745" r="2" />
	<circle cx="500.0000000000" cy="-866.0254037995" r="2" />
	<circle cx="0.0000000000" cy="-0.0000000000" r="2" />
	<circle cx="942.2853730385" cy="-33.3674481299" r="2" />
	<circle cx="1000.0000000000" cy="-0.0000000000" r="2" />
	<circle cx="0.0000000000" cy="-0.0000000000" r="2" />
	<circle cx="500.0000000000" cy="-866.0254038000" r="2" />
	<circle cx="1000.0000000000" cy="-0.0000000000" r="2" />
	<circle cx="499.9997995523" cy="-865.6652669600" r="2" />
	<circle cx="0.0000009063" cy="-0.0000005234" r="2" />
	<circle cx="500.0069129483" cy="-836.1903397308" r="2" />
	<circle cx="499.9999938288" cy="-866.0253601774" r="2" />
	<circle cx="0.0000000000" cy="-0.0000000000" r="2" />
	<circle cx="500.0000000000" cy="-866.0254038000" r="2" />
	<circle cx="0.0000000000" cy="-0.0000000000" r="2" />
	<circle cx="499.7231896819" cy="-865.0507213524" r="2" />
	<circle cx="0.0000000000" cy="-0.0000000000" r="2" />
	<circle cx="0.0000047934" cy="-0.0000027681" r="2" />
	<circle cx="948.5444081792" cy="-34.3776391782" r="2" />
	<circle cx="980.0758317494" cy="-11.4993776983" r="2" />
	<circle cx="438.6785776109" cy="-717.0322745816" r="2" />
	<circle cx="500.0000000000" cy="-866.0254038000" r="2" />
	<circle cx="921.4903123431" cy="-23.2527470471" r="2" />
	<circle cx="500.0000000000" cy="-866.0254038000" r="2" />
	<circle cx="500.0000000000" cy="-866.0254037999" r="2" />
	<circle cx="0.0000000000" cy="-0.0000000000" r="2" />
	<circle cx="0.0000000000" cy="-0.0000000000" r="2" />
	<circle cx="0.0000043839" cy="-0.0000034253" r="2" />
	<circle cx="1000.0000000000" cy="-0.0000000000" r="2" />
	<circle cx="59.2080092358" cy="-34.1884190252" r="2" />
	<circle cx="999.9999427369" cy="-0.0000330160" r="2" />
	<circle cx="500.0000000000" cy="-866.0254038000" r="2" />
	<circle cx="0.0000043844" cy="-0.0000034257" r="2" />
	<circle cx="124.7640981725" cy="-71.6606122684" r="2" />
	<circle cx="500.0000000000" cy="-866.0254037998" r="2" />
	<circle cx="0.9825275525" cy="-0.2476370245" r="2" />
	<circle cx="0.0000000000" cy="-0.0000000000" r="2" />
	<circle cx="0.0000000000" cy="-0.0000000000" r="2" />
	<circle cx="0.0000000021" cy="-0.0000000008" r="2" />
	<circle cx="999.9999999995" cy="-0.0000000003" r="2" />
	<circle cx="500.0000000000" cy="-866.0254038000" r="2" />
	<circle cx="0.0000404022" cy="-0.0000233689" r="2" />
	<circle cx="978.8238219722" cy="-12.2260699619" r="2" />
	<circle cx="0.0000000000" cy="-0.0000000000" r="2" />
	<circle cx="56.5343177264" cy="-32.6877160207" r="2" />
	<circle cx="0.0138786046" cy="-0.0073107113" r="2" />
	<circle cx="992.3686598560" cy="-4.4042541837" r="2" />
	<circle cx="499.9944325994" cy="-865.9930108919" r="2" />
	<circle cx="500.0000000000" cy="-866.0254038000" r="2" />
	<circle cx="1000.0000000000" cy="-0.0000000000" r="2" />
	<circle cx="500.0001733498" cy="-862.6154727821" r="2" />
	<circle cx="499.9999998034" cy="-866.0254025537" r="2" />
	<circle cx="500.0000000000" cy="-866.0254038000" r="2" />
	<circle cx="0.0000000000" cy="-0.0000000000" r="2" />
	<circle cx="0.0000002194" cy="-0.0000001267" r="2" />
	<circle cx="713.6070724881" cy="-165.2263788861" r="2" />
  </g>
  <g id="fig2" transform="translate(-550.0,1000)">
	<polygon points="0.0,-0.0 1000.0,-0.0 500.0,-866.0254038" />
	<line
	   id="line2-1"
	   y2="-0.0"
	   x2="500"
	   y1="-288.6751346"
	   x1="500" />
	<line
	   id="line2-2"
	   y2="-433.0127019"
	   x2="250"
	   y1="-288.6751346"
	   x1="500" />
	<line
	   id="line2-3"
	   y2="-433.0127019"
	   x2="750"
	   y1="-288.6751346"
	   x1="500" />
	<text
	   x="440"
	   y="-500"
	   id="up_2">36.2%</text>
	<text
	   x="250"
	   y="-150"
	   id="down_left_2">34.6%</text>
	<text
	   x="630"
	   y="-150"
	   id="down_right_2">29.2%</text>
  </g>
  <g id="fig3" transform="translate(550,1000)">
	<polygon points="0.0,-0.0 1000.0,-0.0 500.0,-866.0254038" />
	<polygon id="triangle3b" points="250,-144.3375673 750,-144.3375673 500,-577.3502692" />
	<line
	   id="line3-1"
	   x1="125"
	   y1="-216.5063509"
	   x2="250"
	   y2="-144.3375673" />
	<line
	   id="line3-2"
	   x1="375"
	   y1="-649.5190528"
	   x2="500"
	   y2="-577.3502692" />
	<line
	   id="line3-3"
	   x1="625"
	   y1="-649.5190528"
	   x2="500"
	   y2="-577.3502692" />
	<line
	   id="line3-4"
	   x1="875"
	   y1="-216.5063509"
	   x2="750"
	   y2="-144.3375673" />
	<line
	   id="line3-5"
	   x1="750"
	   y1="-0.0"
	   x2="750"
	   y2="-144.3375673" />
	<line
	   id="line3-6"
	   x1="250"
	   y1="-0.0"
	   x2="250"
	   y2="-144.3375673" />
	<text
	   x="500"
	   y="-660"
	   text-anchor="middle"
	   id="up_3">35.6%</text>
	<text
	   y="-50"
	   x="70"
	   id="down_left_3">34.4%</text>
	<text
	   y="-50"
	   x="770"
	   id="down_right_3">27.8%</text>
	<text
	   x="500"
	   y="-50"
	   text-anchor="middle"
	   id="down_side_3">0.0%</text>
	<text
	   x="500"
	   y="-280"
	   text-anchor="middle"
	   id="center_3">1.6%</text>
	<text
	   x="685.0"
	   y="-390.8439"
	   text-anchor="middle"
	   transform="rotate(60,665.0,-380.8439)"
	   id="right_side_3">0.0%</text>
	<text
	   x="315.0"
	   y="-390.8439"
	   text-anchor="middle"
	   transform="rotate(-60,335.0,-380.8439)"
	   id="left_side_3">0.6%</text>
  </g>
</g></g>
</svg>
