<?xml version="1.0" encoding="UTF-8" standalone="no"?>
<!DOCTYPE svg PUBLIC "-//W3C//DTD SVG 1.1//EN" "http://www.w3.org/Graphics/SVG/1.1/DTD/svg11.dtd">
<svg
   xmlns:svg="http://www.w3.org/2000/svg"
   xmlns="http://www.w3.org/2000/svg"
   xmlns:xlink="http://www.w3.org/1999/xlink"
   version="1.1"
   baseProfile="full"
   id="body"
   width="800px"
   height="800px"
   viewBox="0 0 1000 1000"
   preserveAspectRatio="none">
  <defs>
    <style type="text/css"><![CDATA[
      circle{ stroke: none; }
      polygon{ stroke: black; stroke-width: 2px; fill: none; }
      line{ stroke: black; stroke-width: 2px; }
      text{ font-size:50px; }
    ]]></style>
  </defs>
  <title
     id="title1">SVG drawing</title>
<g transform="scale(0.45)"><g transform="translate(600,1050)">
  <g id="fig1">
	<polygon points="0.0,-0.0 1000.0,-0.0 500,-866.0254038" />
	<circle cx="330.7088283681" cy="-317.7796781684" r="2" />
	<circle cx="0.0611204907" cy="-0.0497971001" r="2" />
	<circle cx="372.5331813180" cy="-224.3189042705" r="2" />
	<circle cx="536.4928433865" cy="-267.6985665495" r="2" />
	<circle cx="999.9106992551" cy="-0.0517794709" r="2" />
	<circle cx="1000.0000000000" cy="-0.0000000000" r="2" />
	<circle cx="1000.0000000000" cy="-0.0000000000" r="2" />
	<circle cx="500.0000000000" cy="-866.0254038000" r="2" />
	<circle cx="220.1923313091" cy="-127.1600131538" r="2" />
	<circle cx="500.0208083949" cy="-816.0651982791" r="2" />
	<circle cx="0.0000000000" cy="-0.0000000000" r="2" />
	<circle cx="0.0000000013" cy="-0.0000000008" r="2" />
	<circle cx="500.0096656804" cy="-856.4028920846" r="2" />
	<circle cx="0.0000456822" cy="-0.0000263209" r="2" />
	<circle cx="999.9999999990" cy="-0.0000000006" r="2" />
	<circle cx="500.0000000000" cy="-866.0254038000" r="2" />
	<circle cx="817.4227029439" cy="-105.2572288409" r="2" />
	<circle cx="502.5222827728" cy="-290.2879642291" r="2" />
	<circle cx="0.0000000000" cy="-0.0000000000" r="2" />
	<circle cx="500.0113531403" cy="-607.4711520024" r="2" />
	<circle cx="0.0000000000" cy="-0.0000000000" r="2" />
	<circle cx="500.0000000000" cy="-866.0254037995" r="2" />
	<circle cx="83.0861489578" cy="-38.9681351793" r="2" />
	<circle cx="0.0000000165" cy="-0.0000000097" r="2" />
	<circle cx="500.0000000000" cy="-866.0254038000" r="2" />
	<circle cx="1000.0000000000" cy="-0.0000000000" r="2" />
	<circle cx="500.0000000000" cy="-866.0254038000" r="2" />
	<circle cx="506.1693267735" cy="-516.7821304270" r="2" />
	<circle cx="254.4741666783" cy="-146.8295051037" r="2" />
	<circle cx="323.9430267315" cy="-148.4012974358" r="2" />
	<circle cx="500.0000000000" cy="-866.0254038000" r="2" />
	<circle cx="1000.0000000000" cy="-0.0000000000" r="2" />
	<circle cx="500.0000000079" cy="-866.0253907300" r="2" />
	<circle cx="500.0000000000" cy="-866.0254038000" r="2" />
	<circle cx="0.0000000000" cy="-0.0000000000" r="2" />
	<circle cx="802.2929907448" cy="-114.1203612536" r="2" />
	<circle cx="500.0000000000" cy="-866.0254038000" r="2" />
	<circle cx="278.9545400999" cy="-141.2527535464" r="2" />
	<circle cx="500.0000000000" cy="-866.0254038000" r="2" />
	<circle cx="1.8884838698" cy="-1.0069218402" r="2" />
	<circle cx="500.0000000000" cy="-866.0254037966" r="2" />
	<circle cx="0.2102083568" cy="-0.1206445247" r="2" />
	<circle cx="850.0471361431" cy="-86.4700101343" r="2" />
	<circle cx="0.0000000000" cy="-0.0000000000" r="2" />
	<circle cx="113.7055996669" cy="-75.8466625908" r="2" />
	<circle cx="486.4254722218" cy="-451.4572638182" r="2" />
	<circle cx="0.0000000000" cy="-0.0000000000" r="2" />
	<circle cx="500.0000000000" cy="-866.0254038000" r="2" />
	<circle cx="500.0000000000" cy="-866.0254038000" r="2" />
	<circle cx="749.0574216199" cy="-151.1941862474" r="2" />
	<circle cx="1000.0000000000" cy="-0.0000000000" r="2" />
	<circle cx="0.0000000000" cy="-0.0000000000" r="2" />
	<circle cx="686.6596138446" cy="-180.9789260012" r="2" />
	<circle cx="1000.0000000000" cy="-0.0000000000" r="2" />
	<circle cx="254.3314496376" cy="-164.5657364914" r="2" />
	<circle cx="962.5564748988" cy="-21.6025984667" r="2" />
	<circle cx="695.2481872139" cy="-156.1298191535" r="2" />
	<circle cx="717.8562669087" cy="-164.3126738190" r="2" />
	<circle cx="499.9458168161" cy="-329.3396518118" r="2" />
	<circle cx="458.3497039275" cy="-264.6041870305" r="2" />
	<circle cx="500.3198840629" cy="-288.5135151276" r="2" />
	<circle cx="502.6325079530" cy="-742.8941294379" r="2" />
	<circle cx="466.2849206289" cy="-604.3447067285" r="2" />
	<circle cx="500.0000000000" cy="-866.0254038000" r="2" />
	<circle cx="500.0000000000" cy="-866.0254038000" r="2" />
	<circle cx="1000.0000000000" cy="-0.0000000000" r="2" />
	<circle cx="499.9734236083" cy="-575.8806268957" r="2" />
	<circle cx="500.8686980980" cy="-770.2163642104" r="2" />
	<circle cx="481.3979122318" cy="-283.6191047807" r="2" />
	<circle cx="167.1110730386" cy="-96.4149240456" r="2" />
	<circle cx="1000.0000000000" cy="-0.0000000000" r="2" />
	<circle cx="339.6959095919" cy="-134.0793478985" r="2" />
	<circle cx="999.9999999973" cy="-0.0000000016" r="2" />
	<circle cx="500.0012255629" cy="-824.5458591724" r="2" />
	<circle cx="0.0000000680" cy="-0.0000000393" r="2" />
	<circle cx="994.7109426062" cy="-3.0920944293" r="2" />
	<circle cx="0.0000000000" cy="-0.0000000000" r="2" />
	<circle cx="0.0000000000" cy="-0.0000000000" r="2" />
	<circle cx="0.0000000000" cy="-0.0000000000" r="2" />
	<circle cx="500.0000000000" cy="-866.0254038000" r="2" />
	<circle cx="0.0000000000" cy="-0.0000000000" r="2" />
	<circle cx="702.6545246343" cy="-157.3364381975" r="2" />
	<circle cx="1000.0000000000" cy="-0.0000000000" r="2" />
	<circle cx="925.1294474816" cy="-43.2233478570" r="2" />
	<circle cx="314.6642933907" cy="-462.6206728378" r="2" />
	<circle cx="500.0000000000" cy="-866.0254038000" r="2" />
	<circle cx="311.9756776044" cy="-186.1487474492" r="2" />
	<circle cx="821.3957577808" cy="-104.7515973733" r="2" />
	<circle cx="2.8476090931" cy="-2.6647670795" r="2" />
	<circle cx="0.0000000000" cy="-0.0000000000" r="2" />
	<circle cx="0.2252225019" cy="-0.1300322173" r="2" />
	<circle cx="500.0000000000" cy="-866.0254038000" r="2" />
	<circle cx="181.1919678970" cy="-104.6584905814" r="2" />
	<circle cx="500.0000000000" cy="-866.0254038000" r="2" />
	<circle cx="500.0026554912" cy="-841.8710328388" r="2" />
	<circle cx="0.0000000000" cy="-0.0000000000" r="2" />
	<circle cx="325.6486986151" cy="-188.3623150204" r="2" />
	<circle cx="135.6849766397" cy="-63.3700787622" r="2" />
	<circle cx="1000.0000000000" cy="-0.0000000000" r="2" />
	<circle cx="500.0000000000" cy="-866.0254038000" r="2" />
	<circle cx="0.0000000000" cy="-0.0000000000" r="2" />
	<circle cx="0.0000000000" cy="-0.0000000000" r="2" />
	<circle cx="733.8540313884" cy="-153.5804651540" r="2" />
	<circle cx="500.0000000000" cy="-866.0254038000" r="2" />
	<circle cx="499.9970941339" cy="-837.7424898803" r="2" />
	<circle cx="500.0000000000" cy="-866.0254038000" r="2" />
	<circle cx="500.0000000000" cy="-866.0254038000" r="2" />
	<circle cx="496.9158466483" cy="-295.8726916994" r="2" />
	<circle cx="500.0000000000" cy="-866.0254038000" r="2" />
	<circle cx="500.0000050681" cy="-865.9180941363" r="2" />
	<circle cx="0.0000000000" cy="-0.0000000000" r="2" />
	<circle cx="1000.0000000000" cy="-0.0000000000" r="2" />
	<circle cx="500.0000000005" cy="-866.0253994809" r="2" />
	<circle cx="499.9851042074" cy="-707.8009668221" r="2" />
	<circle cx="1000.0000000000" cy="-0.0000000000" r="2" />
	<circle cx="341.7665266782" cy="-157.5616312226" r="2" />
	<circle cx="500.0000000000" cy="-866.0254038000" r="2" />
	<circle cx="0.0000000000" cy="-0.0000000000" r="2" />
	<circle cx="499.7995939910" cy="-509.7314410021" r="2" />
	<circle cx="1000.0000000000" cy="-0.0000000000" r="2" />
	<circle cx="0.0000000000" cy="-0.0000000000" r="2" />
	<circle cx="0.5706272650" cy="-0.3294519304" r="2" />
	<circle cx="0.0000000000" cy="-0.0000000000" r="2" />
	<circle cx="756.5201587026" cy="-101.6422104324" r="2" />
	<circle cx="999.9999987459" cy="-0.0000007235" r="2" />
	<circle cx="0.0000000000" cy="-0.0000000000" r="2" />
	<circle cx="1000.0000000000" cy="-0.0000000000" r="2" />
	<circle cx="0.0000000000" cy="-0.0000000000" r="2" />
	<circle cx="0.0000000000" cy="-0.0000000000" r="2" />
	<circle cx="0.0000000000" cy="-0.0000000000" r="2" />
	<circle cx="0.1742846001" cy="-0.1007409982" r="2" />
	<circle cx="500.0487248286" cy="-289.1956044557" r="2" />
	<circle cx="1000.0000000000" cy="-0.0000000000" r="2" />
	<circle cx="501.9028012654" cy="-284.1475944408" r="2" />
	<circle cx="999.9999999453" cy="-0.0000000316" r="2" />
	<circle cx="499.9999461469" cy="-831.6295236479" r="2" />
	<circle cx="499.9967281637" cy="-800.3736983039" r="2" />
	<circle cx="500.0000000000" cy="-866.0254038000" r="2" />
	<circle cx="0.0000000000" cy="-0.0000000000" r="2" />
	<circle cx="970.9484298413" cy="-16.7938152251" r="2" />
	<circle cx="500.0000000000" cy="-866.0254038000" r="2" />
	<circle cx="0.0000000000" cy="-0.0000000000" r="2" />
	<circle cx="499.9999999982" cy="-866.0253547922" r="2" />
	<circle cx="500.0000000000" cy="-866.0254038000" r="2" />
	<circle cx="0.0000000000" cy="-0.0000000000" r="2" />
	<circle cx="0.0000000000" cy="-0.0000000000" r="2" />
	<circle cx="500.0000000000" cy="-866.0254038000" r="2" />
	<circle cx="0.0000000000" cy="-0.0000000000" r="2" />
	<circle cx="499.8354924328" cy="-428.6979103465" r="2" />
	<circle cx="0.0000000000" cy="-0.0000000000" r="2" />
	<circle cx="492.5667412345" cy="-296.6038633020" r="2" />
	<circle cx="500.0000000000" cy="-866.0254037899" r="2" />
	<circle cx="500.2948270399" cy="-306.8021598019" r="2" />
	<circle cx="1000.0000000000" cy="-0.0000000000" r="2" />
	<circle cx="101.9010589619" cy="-58.8321042031" r="2" />
	<circle cx="1000.0000000000" cy="-0.0000000000" r="2" />
	<circle cx="999.9782412433" cy="-0.0125564992" r="2" />
	<circle cx="0.0005452393" cy="-0.0002773862" r="2" />
	<circle cx="499.9940469370" cy="-685.0802074256" r="2" />
	<circle cx="0.0000000000" cy="-0.0000000000" r="2" />
	<circle cx="1000.0000000000" cy="-0.0000000000" r="2" />
	<circle cx="0.0000000000" cy="-0.0000000000" r="2" />
	<circle cx="0.0000000000" cy="-0.0000000000" r="2" />
	<circle cx="847.1702416378" cy="-88.1882944184" r="2" />
	<circle cx="0.0000000000" cy="-0.0000000000" r="2" />
	<circle cx="0.0000000000" cy="-0.0000000000" r="2" />
	<circle cx="500.0000000000" cy="-866.0254038000" r="2" />
	<circle cx="0.0000005349" cy="-0.0000003085" r="2" />
	<circle cx="0.0000000000" cy="-0.0000000000" r="2" />
	<circle cx="658.6842166154" cy="-178.2924851742" r="2" />
	<circle cx="1000.0000000000" cy="-0.0000000000" r="2" />
	<circle cx="500.0000000000" cy="-866.0254038000" r="2" />
	<circle cx="0.0000000000" cy="-0.0000000000" r="2" />
	<circle cx="100.5450760729" cy="-58.1222409370" r="2" />
	<circle cx="826.1422229356" cy="-100.1909732133" r="2" />
	<circle cx="0.0000000000" cy="-0.0000000000" r="2" />
	<circle cx="500.0001369198" cy="-865.7830802282" r="2" />
	<circle cx="0.0481832230" cy="-0.0278134037" r="2" />
	<circle cx="501.9769258148" cy="-527.0400946050" r="2" />
	<circle cx="577.5236698631" cy="-245.5782852576" r="2" />
	<circle cx="1000.0000000000" cy="-0.0000000000" r="2" />
	<circle cx="500.0000000000" cy="-866.0254038000" r="2" />
	<circle cx="999.9999999998" cy="-0.0000000001" r="2" />
	<circle cx="0.0000055677" cy="-0.0000032140" r="2" />
	<circle cx="500.0000000000" cy="-866.0254038000" r="2" />
	<circle cx="500.0000000000" cy="-866.0254038000" r="2" />
	<circle cx="0.0000000000" cy="-0.0000000000" r="2" />
	<circle cx="500.0000000000" cy="-866.0254038000" r="2" />
	<circle cx="499.9999999982" cy="-866.0253547922" r="2" />
	<circle cx="0.0000000000" cy="-0.0000000000" r="2" />
	<circle cx="0.0000000000" cy="-0.0000000000" r="2" />
	<circle cx="1000.0000000000" cy="-0.0000000000" r="2" />
	<circle cx="500.0000000000" cy="-866.0254038000" r="2" />
	<circle cx="157.4239039605" cy="-90.9220922746" r="2" />
	<circle cx="499.9985242481" cy="-832.4494481757" r="2" />
	<circle cx="970.3577076509" cy="-13.3196273309" r="2" />
	<circle cx="499.9999999866" cy="-866.0253431701" r="2" />
	<circle cx="961.4895144248" cy="-22.2460790920" r="2" />
	<circle cx="0.0000000000" cy="-0.0000000000" r="2" />
	<circle cx="0.0000000514" cy="-0.0000000297" r="2" />
	<circle cx="500.0000000000" cy="-866.0254037963" r="2" />
	<circle cx="999.9999961817" cy="-0.0000022038" r="2" />
	<circle cx="791.3720448418" cy="-120.8202196099" r="2" />
	<circle cx="500.0260423528" cy="-782.5585985906" r="2" />
	<circle cx="500.0000000000" cy="-866.0254038000" r="2" />
	<circle cx="0.0000000000" cy="-0.0000000000" r="2" />
	<circle cx="307.7037121221" cy="-180.2094215230" r="2" />
	<circle cx="577.6332528413" cy="-244.0837083857" r="2" />
	<circle cx="511.8576056937" cy="-286.0517148179" r="2" />
	<circle cx="500.0000000000" cy="-866.0254038000" r="2" />
	<circle cx="500.0271629566" cy="-746.1656256057" r="2" />
	<circle cx="1000.0000000000" cy="-0.0000000000" r="2" />
	<circle cx="500.0000000000" cy="-866.0254038000" r="2" />
	<circle cx="0.0000000000" cy="-0.0000000000" r="2" />
	<circle cx="499.8747362563" cy="-565.9231507331" r="2" />
	<circle cx="499.9951345468" cy="-610.9509972605" r="2" />
	<circle cx="998.9067674160" cy="-0.6309835553" r="2" />
	<circle cx="0.0000000000" cy="-0.0000000000" r="2" />
	<circle cx="42.3093560743" cy="-24.4173150716" r="2" />
	<circle cx="1000.0000000000" cy="-0.0000000000" r="2" />
	<circle cx="500.0000000000" cy="-866.0254038000" r="2" />
	<circle cx="1000.0000000000" cy="-0.0000000000" r="2" />
	<circle cx="0.0000000000" cy="-0.0000000000" r="2" />
	<circle cx="500.0000000000" cy="-866.0254038000" r="2" />
	<circle cx="990.1153052092" cy="-5.1347766718" r="2" />
	<circle cx="1000.0000000000" cy="-0.0000000000" r="2" />
	<circle cx="0.0000000000" cy="-0.0000000000" r="2" />
	<circle cx="122.5404369497" cy="-82.4530815523" r="2" />
	<circle cx="781.4974706521" cy="-208.6947690066" r="2" />
	<circle cx="494.4508915016" cy="-380.2586566854" r="2" />
	<circle cx="0.0000000000" cy="-0.0000000000" r="2" />
	<circle cx="33.3908145749" cy="-19.2694454414" r="2" />
	<circle cx="0.0000000000" cy="-0.0000000000" r="2" />
	<circle cx="506.9277096987" cy="-284.3047925173" r="2" />
	<circle cx="500.0000000000" cy="-866.0254038000" r="2" />
	<circle cx="1000.0000000000" cy="-0.0000000000" r="2" />
	<circle cx="336.0207126829" cy="-190.1840674169" r="2" />
	<circle cx="999.9999994317" cy="-0.0000003370" r="2" />
	<circle cx="764.4567402722" cy="-136.0716960780" r="2" />
	<circle cx="228.8487831376" cy="-132.1486895649" r="2" />
	<circle cx="0.0000000000" cy="-0.0000000000" r="2" />
	<circle cx="485.6308647355" cy="-545.9182626563" r="2" />
	<circle cx="991.3415123265" cy="-7.7679489029" r="2" />
	<circle cx="0.0000000000" cy="-0.0000000000" r="2" />
	<circle cx="500.0000000000" cy="-866.0254038000" r="2" />
	<circle cx="668.2811492161" cy="-191.4711558679" r="2" />
	<circle cx="1000.0000000000" cy="-0.0000000000" r="2" />
	<circle cx="495.4799720810" cy="-831.0603541650" r="2" />
	<circle cx="500.0000000000" cy="-866.0254038000" r="2" />
	<circle cx="500.0182162200" cy="-826.2099618218" r="2" />
	<circle cx="500.0000000000" cy="-866.0254038000" r="2" />
	<circle cx="500.0000000000" cy="-866.0254038000" r="2" />
	<circle cx="500.0000000000" cy="-866.0254038000" r="2" />
	<circle cx="1000.0000000000" cy="-0.0000000000" r="2" />
	<circle cx="499.9998331273" cy="-864.7631476533" r="2" />
	<circle cx="500.0001443087" cy="-865.7830685510" r="2" />
	<circle cx="0.0000000000" cy="-0.0000000000" r="2" />
	<circle cx="499.6409385876" cy="-321.6360847592" r="2" />
	<circle cx="1000.0000000000" cy="-0.0000000000" r="2" />
	<circle cx="500.0000000000" cy="-866.0254037109" r="2" />
	<circle cx="0.0000000000" cy="-0.0000000000" r="2" />
	<circle cx="499.9743539333" cy="-716.9720697004" r="2" />
	<circle cx="500.0000000000" cy="-866.0254038000" r="2" />
	<circle cx="582.7726379996" cy="-188.7428569278" r="2" />
	<circle cx="0.0000000000" cy="-0.0000000000" r="2" />
	<circle cx="507.1276674325" cy="-284.2476068188" r="2" />
	<circle cx="1000.0000000000" cy="-0.0000000000" r="2" />
	<circle cx="0.0000000000" cy="-0.0000000000" r="2" />
	<circle cx="499.9999996140" cy="-866.0247189936" r="2" />
	<circle cx="1000.0000000000" cy="-0.0000000000" r="2" />
	<circle cx="500.0000000000" cy="-866.0254038000" r="2" />
	<circle cx="500.0000000000" cy="-866.0254038000" r="2" />
	<circle cx="500.0000000000" cy="-866.0254038000" r="2" />
	<circle cx="0.0000199500" cy="-0.0000115028" r="2" />
	<circle cx="1000.0000000000" cy="-0.0000000000" r="2" />
	<circle cx="252.4640416008" cy="-145.7299979096" r="2" />
	<circle cx="500.0000000000" cy="-866.0254038000" r="2" />
	<circle cx="587.1402135253" cy="-238.6651816742" r="2" />
	<circle cx="500.0000000000" cy="-866.0254038000" r="2" />
	<circle cx="500.0000000000" cy="-866.0254038000" r="2" />
	<circle cx="564.6324295959" cy="-250.2844370114" r="2" />
	<circle cx="1000.0000000000" cy="-0.0000000000" r="2" />
	<circle cx="500.0000000000" cy="-866.0254038000" r="2" />
	<circle cx="1000.0000000000" cy="-0.0000000000" r="2" />
	<circle cx="1000.0000000000" cy="-0.0000000000" r="2" />
	<circle cx="1000.0000000000" cy="-0.0000000000" r="2" />
	<circle cx="481.8806002816" cy="-544.1127037247" r="2" />
	<circle cx="500.0000000000" cy="-866.0254038000" r="2" />
	<circle cx="500.0000000000" cy="-866.0254038000" r="2" />
	<circle cx="0.0000000000" cy="-0.0000000000" r="2" />
	<circle cx="999.9999999612" cy="-0.0000000224" r="2" />
	<circle cx="1000.0000000000" cy="-0.0000000000" r="2" />
	<circle cx="500.0000000000" cy="-866.0254038000" r="2" />
	<circle cx="441.7042413010" cy="-584.3658976093" r="2" />
	<circle cx="256.6084145235" cy="-148.6104794552" r="2" />
	<circle cx="500.0000000000" cy="-866.0254038000" r="2" />
	<circle cx="1000.0000000000" cy="-0.0000000000" r="2" />
	<circle cx="500.0000000000" cy="-866.0254038000" r="2" />
	<circle cx="1000.0000000000" cy="-0.0000000000" r="2" />
	<circle cx="0.0006331661" cy="-0.0003660228" r="2" />
	<circle cx="923.0978845301" cy="-44.4501807378" r="2" />
	<circle cx="2.6599870219" cy="-1.5332970761" r="2" />
	<circle cx="1000.0000000000" cy="-0.0000000000" r="2" />
	<circle cx="925.1351325651" cy="-43.2294167088" r="2" />
	<circle cx="797.2912778342" cy="-115.2419493396" r="2" />
	<circle cx="0.0000000000" cy="-0.0000000000" r="2" />
	<circle cx="500.0000000000" cy="-866.0254038000" r="2" />
	<circle cx="941.0758281712" cy="-32.2019472991" r="2" />
	<circle cx="1000.0000000000" cy="-0.0000000000" r="2" />
	<circle cx="499.1735798286" cy="-524.9844194248" r="2" />
	<circle cx="560.4319515821" cy="-264.5137512675" r="2" />
	<circle cx="1000.0000000000" cy="-0.0000000000" r="2" />
	<circle cx="70.1053123285" cy="-40.5221606440" r="2" />
	<circle cx="500.0000000001" cy="-866.0254034044" r="2" />
	<circle cx="688.4815858995" cy="-180.3461105257" r="2" />
	<circle cx="500.0000000000" cy="-866.0254038000" r="2" />
	<circle cx="500.0000000000" cy="-866.0254038000" r="2" />
	<circle cx="499.9986670784" cy="-829.7727413139" r="2" />
	<circle cx="0.0000000000" cy="-0.0000000000" r="2" />
	<circle cx="0.0000000000" cy="-0.0000000000" r="2" />
	<circle cx="0.0000000000" cy="-0.0000000000" r="2" />
	<circle cx="396.8217298568" cy="-237.6030540349" r="2" />
	<circle cx="0.0000000000" cy="-0.0000000000" r="2" />
	<circle cx="0.0000000000" cy="-0.0000000000" r="2" />
	<circle cx="690.9361612593" cy="-174.5178359758" r="2" />
	<circle cx="500.0000000000" cy="-866.0254038000" r="2" />
	<circle cx="500.0000000000" cy="-866.0254037822" r="2" />
	<circle cx="931.5844646864" cy="-47.8212513228" r="2" />
	<circle cx="0.0000000000" cy="-0.0000000000" r="2" />
	<circle cx="407.1275602756" cy="-215.6863282702" r="2" />
	<circle cx="1000.0000000000" cy="-0.0000000000" r="2" />
	<circle cx="500.0000000000" cy="-866.0254038000" r="2" />
	<circle cx="499.7278616486" cy="-420.7547071937" r="2" />
	<circle cx="0.0000000000" cy="-0.0000000000" r="2" />
	<circle cx="0.0000000000" cy="-0.0000000000" r="2" />
	<circle cx="499.9973997125" cy="-842.1887989349" r="2" />
	<circle cx="406.7635285397" cy="-334.4094486112" r="2" />
	<circle cx="500.0000000000" cy="-866.0254038000" r="2" />
	<circle cx="500.0000000000" cy="-866.0254038000" r="2" />
	<circle cx="0.0033503331" cy="-0.0019913028" r="2" />
	<circle cx="395.7678712290" cy="-228.4803322736" r="2" />
	<circle cx="1000.0000000000" cy="-0.0000000000" r="2" />
	<circle cx="1000.0000000000" cy="-0.0000000000" r="2" />
	<circle cx="1000.0000000000" cy="-0.0000000000" r="2" />
	<circle cx="1000.0000000000" cy="-0.0000000000" r="2" />
	<circle cx="999.9206886182" cy="-0.0457322550" r="2" />
	<circle cx="0.0000036935" cy="-0.0000021350" r="2" />
	<circle cx="500.2401987850" cy="-362.4483127200" r="2" />
	<circle cx="0.0000043726" cy="-0.0000025251" r="2" />
	<circle cx="1000.0000000000" cy="-0.0000000000" r="2" />
	<circle cx="0.0000000000" cy="-0.0000000000" r="2" />
	<circle cx="0.0000000000" cy="-0.0000000000" r="2" />
	<circle cx="38.2488144933" cy="-17.5750093257" r="2" />
	<circle cx="999.0865276318" cy="-0.6973633114" r="2" />
	<circle cx="999.9999845579" cy="-0.0000089117" r="2" />
	<circle cx="500.0000000000" cy="-866.0254038000" r="2" />
	<circle cx="1000.0000000000" cy="-0.0000000000" r="2" />
	<circle cx="500.0000000000" cy="-866.0254038000" r="2" />
	<circle cx="0.0000000000" cy="-0.0000000000" r="2" />
	<circle cx="500.0000000004" cy="-866.0253997253" r="2" />
	<circle cx="0.9146655827" cy="-0.2602801178" r="2" />
	<circle cx="500.0000000000" cy="-866.0254037620" r="2" />
	<circle cx="500.0000000000" cy="-866.0254038000" r="2" />
	<circle cx="0.0000000000" cy="-0.0000000000" r="2" />
	<circle cx="500.0000000000" cy="-866.0254038000" r="2" />
	<circle cx="500.0000000000" cy="-866.0208445012" r="2" />
	<circle cx="482.7580718321" cy="-574.2825125297" r="2" />
	<circle cx="0.0000000000" cy="-0.0000000000" r="2" />
	<circle cx="1000.0000000000" cy="-0.0000000000" r="2" />
	<circle cx="499.9288516963" cy="-288.6875947132" r="2" />
	<circle cx="500.0000000000" cy="-866.0254038000" r="2" />
	<circle cx="0.0000000000" cy="-0.0000000000" r="2" />
	<circle cx="486.3717012015" cy="-702.5803835636" r="2" />
	<circle cx="836.9267128369" cy="-94.1648464826" r="2" />
	<circle cx="0.0000000000" cy="-0.0000000000" r="2" />
	<circle cx="0.0000000000" cy="-0.0000000000" r="2" />
	<circle cx="876.1697725864" cy="-64.5976255901" r="2" />
	<circle cx="499.9990377239" cy="-850.4935202302" r="2" />
	<circle cx="500.0000000000" cy="-866.0254038000" r="2" />
	<circle cx="0.0000000000" cy="-0.0000000000" r="2" />
	<circle cx="0.0000000000" cy="-0.0000000000" r="2" />
	<circle cx="648.1379831310" cy="-204.7465574147" r="2" />
	<circle cx="499.9998828288" cy="-863.6189627888" r="2" />
	<circle cx="0.0000000000" cy="-0.0000000000" r="2" />
	<circle cx="38.4555600735" cy="-22.1868700893" r="2" />
	<circle cx="0.0000000000" cy="-0.0000000000" r="2" />
	<circle cx="0.0667393382" cy="-0.0385398109" r="2" />
	<circle cx="1000.0000000000" cy="-0.0000000000" r="2" />
	<circle cx="0.0000000000" cy="-0.0000000000" r="2" />
	<circle cx="1000.0000000000" cy="-0.0000000000" r="2" />
	<circle cx="1000.0000000000" cy="-0.0000000000" r="2" />
	<circle cx="0.0000000000" cy="-0.0000000000" r="2" />
	<circle cx="961.5416306904" cy="-22.1877863582" r="2" />
	<circle cx="1000.0000000000" cy="-0.0000000000" r="2" />
	<circle cx="500.0000000000" cy="-866.0254038000" r="2" />
	<circle cx="0.0000000000" cy="-0.0000000000" r="2" />
	<circle cx="1000.0000000000" cy="-0.0000000000" r="2" />
	<circle cx="499.8354330273" cy="-517.8099528809" r="2" />
	<circle cx="525.6087680973" cy="-251.2978510219" r="2" />
	<circle cx="909.5470426785" cy="-38.4746955332" r="2" />
	<circle cx="19.5224490273" cy="-11.2695145241" r="2" />
	<circle cx="0.0000000000" cy="-0.0000000000" r="2" />
	<circle cx="495.4507577432" cy="-505.9690939180" r="2" />
	<circle cx="500.0000000000" cy="-866.0254038000" r="2" />
	<circle cx="214.2181143975" cy="-114.4782168813" r="2" />
	<circle cx="175.2110828563" cy="-100.3785663873" r="2" />
	<circle cx="500.0000000000" cy="-866.0254038000" r="2" />
	<circle cx="0.0000000000" cy="-0.0000000000" r="2" />
	<circle cx="496.0870566141" cy="-281.6073279193" r="2" />
	<circle cx="500.0000000000" cy="-866.0254038000" r="2" />
	<circle cx="1000.0000000000" cy="-0.0000000000" r="2" />
	<circle cx="499.9872282831" cy="-433.8793057800" r="2" />
	<circle cx="500.0000000000" cy="-866.0254038000" r="2" />
	<circle cx="499.9999999935" cy="-866.0253907304" r="2" />
	<circle cx="500.0000000000" cy="-866.0254036829" r="2" />
	<circle cx="500.0000000000" cy="-866.0254037529" r="2" />
	<circle cx="500.0000000029" cy="-866.0253980581" r="2" />
	<circle cx="1000.0000000000" cy="-0.0000000000" r="2" />
	<circle cx="999.9999994759" cy="-0.0000003026" r="2" />
	<circle cx="500.0000000000" cy="-866.0254038000" r="2" />
	<circle cx="0.0000000000" cy="-0.0000000000" r="2" />
	<circle cx="332.7146533675" cy="-195.9104769216" r="2" />
	<circle cx="1000.0000000000" cy="-0.0000000000" r="2" />
	<circle cx="499.9241630882" cy="-706.4358858517" r="2" />
	<circle cx="500.0000000000" cy="-866.0254038000" r="2" />
	<circle cx="500.0000000000" cy="-866.0254038000" r="2" />
	<circle cx="0.0000000000" cy="-0.0000000000" r="2" />
	<circle cx="499.9922480806" cy="-663.1447383320" r="2" />
	<circle cx="1000.0000000000" cy="-0.0000000000" r="2" />
	<circle cx="254.5987902339" cy="-145.0163310702" r="2" />
	<circle cx="500.1672472627" cy="-523.6140468279" r="2" />
	<circle cx="578.0788927740" cy="-234.5829331155" r="2" />
	<circle cx="0.0000000000" cy="-0.0000000000" r="2" />
	<circle cx="0.7726614799" cy="-0.4458630660" r="2" />
	<circle cx="0.0000000000" cy="-0.0000000000" r="2" />
	<circle cx="614.3202888567" cy="-222.9161919216" r="2" />
	<circle cx="1000.0000000000" cy="-0.0000000000" r="2" />
	<circle cx="500.0000000000" cy="-866.0254038000" r="2" />
	<circle cx="164.5589765777" cy="-106.6849789540" r="2" />
	<circle cx="999.9999999998" cy="-0.0000000001" r="2" />
	<circle cx="778.2929141859" cy="-288.3641329074" r="2" />
	<circle cx="500.0000000000" cy="-866.0254038000" r="2" />
	<circle cx="1000.0000000000" cy="-0.0000000000" r="2" />
	<circle cx="1000.0000000000" cy="-0.0000000000" r="2" />
	<circle cx="1000.0000000000" cy="-0.0000000000" r="2" />
	<circle cx="0.0000000000" cy="-0.0000000000" r="2" />
	<circle cx="0.0000000000" cy="-0.0000000000" r="2" />
	<circle cx="733.8540313884" cy="-153.5804651540" r="2" />
	<circle cx="1000.0000000000" cy="-0.0000000000" r="2" />
	<circle cx="500.0000000025" cy="-866.0253962633" r="2" />
	<circle cx="500.0000000003" cy="-866.0254037955" r="2" />
	<circle cx="500.0000000000" cy="-866.0254038000" r="2" />
	<circle cx="0.0000000000" cy="-0.0000000000" r="2" />
	<circle cx="500.0000000000" cy="-866.0254038000" r="2" />
	<circle cx="0.0000000000" cy="-0.0000000000" r="2" />
	<circle cx="56.8059869802" cy="-32.6910218300" r="2" />
	<circle cx="1000.0000000000" cy="-0.0000000000" r="2" />
	<circle cx="909.4046552424" cy="-53.0582359746" r="2" />
	<circle cx="900.8477304293" cy="-57.2071203378" r="2" />
	<circle cx="573.2206209939" cy="-301.0033605686" r="2" />
	<circle cx="500.0000000000" cy="-866.0254038000" r="2" />
	<circle cx="560.1116790453" cy="-253.6835612660" r="2" />
	<circle cx="861.7841651928" cy="-79.7023996130" r="2" />
	<circle cx="999.9978957524" cy="-0.0012145854" r="2" />
	<circle cx="500.0000000000" cy="-866.0254036322" r="2" />
	<circle cx="1000.0000000000" cy="-0.0000000000" r="2" />
	<circle cx="500.0000000000" cy="-866.0254038000" r="2" />
	<circle cx="1000.0000000000" cy="-0.0000000000" r="2" />
	<circle cx="0.0000000000" cy="-0.0000000000" r="2" />
	<circle cx="1000.0000000000" cy="-0.0000000000" r="2" />
	<circle cx="1000.0000000000" cy="-0.0000000000" r="2" />
	<circle cx="0.0053671517" cy="-0.0031034384" r="2" />
	<circle cx="0.0000037416" cy="-0.0000021600" r="2" />
	<circle cx="486.1739188752" cy="-323.4838661047" r="2" />
	<circle cx="144.8105616336" cy="-75.3417821336" r="2" />
	<circle cx="1000.0000000000" cy="-0.0000000000" r="2" />
	<circle cx="972.4541142554" cy="-15.9044846019" r="2" />
	<circle cx="499.9634706897" cy="-594.0724765715" r="2" />
	<circle cx="0.0000000000" cy="-0.0000000000" r="2" />
	<circle cx="500.0000000000" cy="-866.0254038000" r="2" />
	<circle cx="0.0000000000" cy="-0.0000000000" r="2" />
	<circle cx="999.9999999995" cy="-0.0000000003" r="2" />
	<circle cx="500.0000000000" cy="-866.0254038000" r="2" />
	<circle cx="502.6325079530" cy="-742.8941294379" r="2" />
	<circle cx="0.0000000001" cy="-0.0000000000" r="2" />
	<circle cx="500.0048024485" cy="-804.8551152422" r="2" />
	<circle cx="499.7526089856" cy="-420.7739509857" r="2" />
	<circle cx="0.0000000000" cy="-0.0000000000" r="2" />
	<circle cx="941.5657796212" cy="-33.6790566424" r="2" />
	<circle cx="500.0207605834" cy="-433.8768015687" r="2" />
	<circle cx="600.9930184277" cy="-446.4914780484" r="2" />
	<circle cx="83.0725855642" cy="-48.1313618237" r="2" />
	<circle cx="343.2394506904" cy="-194.8841246426" r="2" />
	<circle cx="500.0000000000" cy="-866.0254038000" r="2" />
	<circle cx="0.0000000000" cy="-0.0000000000" r="2" />
	<circle cx="950.0166353946" cy="-27.2432387044" r="2" />
	<circle cx="999.9999996976" cy="-0.0000001746" r="2" />
	<circle cx="500.0000000000" cy="-866.0254038000" r="2" />
	<circle cx="500.0000000000" cy="-866.0254038000" r="2" />
	<circle cx="500.0000000000" cy="-866.0254038000" r="2" />
  </g>
  <g id="fig2" transform="translate(-550.0,1000)">
	<polygon points="0.0,-0.0 1000.0,-0.0 500.0,-866.0254038" />
	<line
	   id="line2-1"
	   y2="-0.0"
	   x2="500"
	   y1="-288.6751346"
	   x1="500" />
	<line
	   id="line2-2"
	   y2="-433.0127019"
	   x2="250"
	   y1="-288.6751346"
	   x1="500" />
	<line
	   id="line2-3"
	   y2="-433.0127019"
	   x2="750"
	   y1="-288.6751346"
	   x1="500" />
	<text
	   x="440"
	   y="-500"
	   id="up_2">35.6%</text>
	<text
	   x="250"
	   y="-150"
	   id="down_left_2">34.0%</text>
	<text
	   x="630"
	   y="-150"
	   id="down_right_2">30.4%</text>
  </g>
  <g id="fig3" transform="translate(550,1000)">
	<polygon points="0.0,-0.0 1000.0,-0.0 500.0,-866.0254038" />
	<polygon id="triangle3b" points="250,-144.3375673 750,-144.3375673 500,-577.3502692" />
	<line
	   id="line3-1"
	   x1="125"
	   y1="-216.5063509"
	   x2="250"
	   y2="-144.3375673" />
	<line
	   id="line3-2"
	   x1="375"
	   y1="-649.5190528"
	   x2="500"
	   y2="-577.3502692" />
	<line
	   id="line3-3"
	   x1="625"
	   y1="-649.5190528"
	   x2="500"
	   y2="-577.3502692" />
	<line
	   id="line3-4"
	   x1="875"
	   y1="-216.5063509"
	   x2="750"
	   y2="-144.3375673" />
	<line
	   id="line3-5"
	   x1="750"
	   y1="-0.0"
	   x2="750"
	   y2="-144.3375673" />
	<line
	   id="line3-6"
	   x1="250"
	   y1="-0.0"
	   x2="250"
	   y2="-144.3375673" />
	<text
	   x="500"
	   y="-660"
	   text-anchor="middle"
	   id="up_3">29.4%</text>
	<text
	   y="-50"
	   x="70"
	   id="down_left_3">29.0%</text>
	<text
	   y="-50"
	   x="770"
	   id="down_right_3">24.2%</text>
	<text
	   x="500"
	   y="-50"
	   text-anchor="middle"
	   id="down_side_3">0.4%</text>
	<text
	   x="500"
	   y="-280"
	   text-anchor="middle"
	   id="center_3">15.2%</text>
	<text
	   x="685.0"
	   y="-390.8439"
	   text-anchor="middle"
	   transform="rotate(60,665.0,-380.8439)"
	   id="right_side_3">0.8%</text>
	<text
	   x="315.0"
	   y="-390.8439"
	   text-anchor="middle"
	   transform="rotate(-60,335.0,-380.8439)"
	   id="left_side_3">1.0%</text>
  </g>
</g></g>
</svg>
