<?xml version="1.0" encoding="UTF-8" standalone="no"?>
<!DOCTYPE svg PUBLIC "-//W3C//DTD SVG 1.1//EN" "http://www.w3.org/Graphics/SVG/1.1/DTD/svg11.dtd">
<svg
   xmlns:svg="http://www.w3.org/2000/svg"
   xmlns="http://www.w3.org/2000/svg"
   xmlns:xlink="http://www.w3.org/1999/xlink"
   version="1.1"
   baseProfile="full"
   id="body"
   width="800px"
   height="800px"
   viewBox="0 0 1000 1000"
   preserveAspectRatio="none">
  <defs>
    <style type="text/css"><![CDATA[
      circle{ stroke: none; }
      polygon{ stroke: black; stroke-width: 2px; fill: none; }
      line{ stroke: black; stroke-width: 2px; }
      text{ font-size:50px; }
    ]]></style>
  </defs>
  <title
     id="title1">SVG drawing</title>
<g transform="scale(0.45)"><g transform="translate(600,1050)">
  <g id="fig1">
	<polygon points="0.0,-0.0 1000.0,-0.0 500,-866.0254038" />
	<circle cx="499.7903152943" cy="-863.2250100382" r="2" />
	<circle cx="488.5023527035" cy="-597.6330082293" r="2" />
	<circle cx="58.9579354505" cy="-33.8217137922" r="2" />
	<circle cx="1000.0000000000" cy="-0.0000000000" r="2" />
	<circle cx="999.9999999999" cy="-0.0000000000" r="2" />
	<circle cx="499.9998508345" cy="-865.6153070187" r="2" />
	<circle cx="500.0000000000" cy="-866.0254038000" r="2" />
	<circle cx="1000.0000000000" cy="-0.0000000000" r="2" />
	<circle cx="0.0926045160" cy="-0.0493779619" r="2" />
	<circle cx="500.0000000000" cy="-866.0254038000" r="2" />
	<circle cx="500.0000008618" cy="-866.0253442083" r="2" />
	<circle cx="0.0000000000" cy="-0.0000000000" r="2" />
	<circle cx="500.0061134925" cy="-819.7056415567" r="2" />
	<circle cx="790.8528002421" cy="-50.2153650896" r="2" />
	<circle cx="830.3539248214" cy="-84.9000851040" r="2" />
	<circle cx="499.9999999994" cy="-866.0254037931" r="2" />
	<circle cx="499.9429616768" cy="-466.9297654864" r="2" />
	<circle cx="854.0527475355" cy="-119.9821237149" r="2" />
	<circle cx="995.1876872811" cy="-2.7770050331" r="2" />
	<circle cx="0.0000143483" cy="-0.0000082876" r="2" />
	<circle cx="1000.0000000000" cy="-0.0000000000" r="2" />
	<circle cx="500.0000000000" cy="-866.0254038000" r="2" />
	<circle cx="999.9991358585" cy="-0.0005871708" r="2" />
	<circle cx="999.9294217213" cy="-0.0565353268" r="2" />
	<circle cx="999.9999999988" cy="-0.0000000007" r="2" />
	<circle cx="1000.0000000000" cy="-0.0000000000" r="2" />
	<circle cx="199.9065891691" cy="-117.8601778292" r="2" />
	<circle cx="0.0000001073" cy="-0.0000000950" r="2" />
	<circle cx="0.0000000000" cy="-0.0000000000" r="2" />
	<circle cx="0.0000000000" cy="-0.0000000000" r="2" />
	<circle cx="500.0000000000" cy="-866.0254038000" r="2" />
	<circle cx="0.0000000000" cy="-0.0000000000" r="2" />
	<circle cx="500.0000000000" cy="-866.0254030270" r="2" />
	<circle cx="499.9999955888" cy="-865.8787204178" r="2" />
	<circle cx="0.0000000000" cy="-0.0000000000" r="2" />
	<circle cx="999.9999999998" cy="-0.0000000001" r="2" />
	<circle cx="500.0000112803" cy="-866.0253333564" r="2" />
	<circle cx="499.9999999753" cy="-866.0254035157" r="2" />
	<circle cx="0.0000000000" cy="-0.0000000000" r="2" />
	<circle cx="0.0000000000" cy="-0.0000000000" r="2" />
	<circle cx="844.8020141387" cy="-60.9838839151" r="2" />
	<circle cx="500.0003585469" cy="-849.9319865374" r="2" />
	<circle cx="1000.0000000000" cy="-0.0000000000" r="2" />
	<circle cx="500.0000000000" cy="-866.0254038000" r="2" />
	<circle cx="0.0000000000" cy="-0.0000000000" r="2" />
	<circle cx="1000.0000000000" cy="-0.0000000000" r="2" />
	<circle cx="500.0000000000" cy="-866.0254037050" r="2" />
	<circle cx="0.0000000000" cy="-0.0000000000" r="2" />
	<circle cx="483.0618275685" cy="-399.9791504575" r="2" />
	<circle cx="543.2312384291" cy="-266.8046577905" r="2" />
	<circle cx="832.1886637133" cy="-162.7161416808" r="2" />
	<circle cx="0.0000000000" cy="-0.0000000000" r="2" />
	<circle cx="0.0000000000" cy="-0.0000000000" r="2" />
	<circle cx="7.5979104164" cy="-3.4326213845" r="2" />
	<circle cx="1000.0000000000" cy="-0.0000000000" r="2" />
	<circle cx="0.0000000000" cy="-0.0000000000" r="2" />
	<circle cx="999.6939198349" cy="-0.1769023772" r="2" />
	<circle cx="931.9087891026" cy="-80.2118315128" r="2" />
	<circle cx="500.0000000000" cy="-866.0254038000" r="2" />
	<circle cx="500.0000000000" cy="-866.0254037999" r="2" />
	<circle cx="0.0000000000" cy="-0.0000000000" r="2" />
	<circle cx="500.0000000000" cy="-866.0254038000" r="2" />
	<circle cx="500.0000000000" cy="-866.0254038000" r="2" />
	<circle cx="1000.0000000000" cy="-0.0000000000" r="2" />
	<circle cx="0.0092759638" cy="-0.0053560605" r="2" />
	<circle cx="36.6709953377" cy="-21.1814480517" r="2" />
	<circle cx="999.9948502613" cy="-0.0029725975" r="2" />
	<circle cx="500.0000000000" cy="-866.0254038000" r="2" />
	<circle cx="999.9929152739" cy="-0.0050533690" r="2" />
	<circle cx="1000.0000000000" cy="-0.0000000000" r="2" />
	<circle cx="1000.0000000000" cy="-0.0000000000" r="2" />
	<circle cx="500.0000000000" cy="-866.0254038000" r="2" />
	<circle cx="500.0000000000" cy="-866.0254038000" r="2" />
	<circle cx="500.0000000000" cy="-866.0254038000" r="2" />
	<circle cx="1000.0000000000" cy="-0.0000000000" r="2" />
	<circle cx="0.0439917974" cy="-0.0254101233" r="2" />
	<circle cx="999.9999839946" cy="-0.0000092428" r="2" />
	<circle cx="499.9999999997" cy="-866.0253977591" r="2" />
	<circle cx="1000.0000000000" cy="-0.0000000000" r="2" />
	<circle cx="1000.0000000000" cy="-0.0000000000" r="2" />
	<circle cx="499.9999895285" cy="-865.5517123382" r="2" />
	<circle cx="0.0000000000" cy="-0.0000000000" r="2" />
	<circle cx="0.1801782693" cy="-0.1040885094" r="2" />
	<circle cx="0.0000000000" cy="-0.0000000000" r="2" />
	<circle cx="744.1945563522" cy="-87.0950928102" r="2" />
	<circle cx="999.9999999872" cy="-0.0000000093" r="2" />
	<circle cx="0.0000000000" cy="-0.0000000000" r="2" />
	<circle cx="0.0000000000" cy="-0.0000000000" r="2" />
	<circle cx="25.1412838326" cy="-11.6034782235" r="2" />
	<circle cx="0.0000001139" cy="-0.0000000658" r="2" />
	<circle cx="999.9996556175" cy="-0.0001631763" r="2" />
	<circle cx="5.7278946865" cy="-3.3053248667" r="2" />
	<circle cx="499.9997327473" cy="-865.9549147282" r="2" />
	<circle cx="1000.0000000000" cy="-0.0000000000" r="2" />
	<circle cx="128.3560919573" cy="-97.4512944050" r="2" />
	<circle cx="1000.0000000000" cy="-0.0000000000" r="2" />
	<circle cx="1000.0000000000" cy="-0.0000000000" r="2" />
	<circle cx="1000.0000000000" cy="-0.0000000000" r="2" />
	<circle cx="999.9999999992" cy="-0.0000000004" r="2" />
	<circle cx="1000.0000000000" cy="-0.0000000000" r="2" />
	<circle cx="0.0000000000" cy="-0.0000000000" r="2" />
	<circle cx="1000.0000000000" cy="-0.0000000000" r="2" />
	<circle cx="0.0000000000" cy="-0.0000000000" r="2" />
	<circle cx="500.0000000000" cy="-866.0254038000" r="2" />
	<circle cx="500.5348778445" cy="-842.7768886292" r="2" />
	<circle cx="500.0000000000" cy="-866.0254038000" r="2" />
	<circle cx="500.0000000000" cy="-866.0254038000" r="2" />
	<circle cx="999.9980574977" cy="-0.0011221264" r="2" />
	<circle cx="999.9999644079" cy="-0.0000259498" r="2" />
	<circle cx="999.9999992415" cy="-0.0000004379" r="2" />
	<circle cx="486.4843548125" cy="-281.0017499743" r="2" />
	<circle cx="0.0000000000" cy="-0.0000000000" r="2" />
	<circle cx="1000.0000000000" cy="-0.0000000000" r="2" />
	<circle cx="1000.0000000000" cy="-0.0000000000" r="2" />
	<circle cx="500.0007808436" cy="-865.9578265287" r="2" />
	<circle cx="0.0000000347" cy="-0.0000000207" r="2" />
	<circle cx="0.0000000000" cy="-0.0000000000" r="2" />
	<circle cx="994.1776387613" cy="-3.3641328615" r="2" />
	<circle cx="0.0000000000" cy="-0.0000000000" r="2" />
	<circle cx="497.4442607872" cy="-634.3340494019" r="2" />
	<circle cx="500.0000000000" cy="-866.0254038000" r="2" />
	<circle cx="499.9999315588" cy="-866.0249400473" r="2" />
	<circle cx="0.0000000000" cy="-0.0000000000" r="2" />
	<circle cx="555.7763746808" cy="-322.7497692937" r="2" />
	<circle cx="999.9998929051" cy="-0.0000618205" r="2" />
	<circle cx="500.0000000000" cy="-866.0254038000" r="2" />
	<circle cx="407.8926336085" cy="-230.1021098693" r="2" />
	<circle cx="500.0000016083" cy="-866.0197865118" r="2" />
	<circle cx="1000.0000000000" cy="-0.0000000000" r="2" />
	<circle cx="1000.0000000000" cy="-0.0000000000" r="2" />
	<circle cx="500.0000000000" cy="-866.0254038000" r="2" />
	<circle cx="0.0000000000" cy="-0.0000000000" r="2" />
	<circle cx="6.9849967574" cy="-4.1012803786" r="2" />
	<circle cx="500.0000000017" cy="-866.0253120543" r="2" />
	<circle cx="499.9999970797" cy="-866.0122801640" r="2" />
	<circle cx="500.0000002651" cy="-866.0224672258" r="2" />
	<circle cx="500.0000000000" cy="-866.0254038000" r="2" />
	<circle cx="1000.0000000000" cy="-0.0000000000" r="2" />
	<circle cx="999.9999247971" cy="-0.0001073320" r="2" />
	<circle cx="1000.0000000000" cy="-0.0000000000" r="2" />
	<circle cx="0.0000016451" cy="-0.0000006436" r="2" />
	<circle cx="0.0001673585" cy="-0.0000968571" r="2" />
	<circle cx="999.9999905304" cy="-0.0000054622" r="2" />
	<circle cx="817.2119250732" cy="-105.5718807027" r="2" />
	<circle cx="999.9999999187" cy="-0.0000000386" r="2" />
	<circle cx="1000.0000000000" cy="-0.0000000000" r="2" />
	<circle cx="500.0000000000" cy="-866.0254038000" r="2" />
	<circle cx="500.0000000000" cy="-866.0254037999" r="2" />
	<circle cx="0.0000000000" cy="-0.0000000000" r="2" />
	<circle cx="1000.0000000000" cy="-0.0000000000" r="2" />
	<circle cx="500.0000000000" cy="-866.0254038000" r="2" />
	<circle cx="0.7638178477" cy="-0.4406090863" r="2" />
	<circle cx="0.0000515347" cy="-0.0000347128" r="2" />
	<circle cx="206.6004889771" cy="-163.6622671600" r="2" />
	<circle cx="3.3619017349" cy="-1.9414733659" r="2" />
	<circle cx="988.8897906045" cy="-5.4680291968" r="2" />
	<circle cx="1000.0000000000" cy="-0.0000000000" r="2" />
	<circle cx="0.0000000832" cy="-0.0000000480" r="2" />
	<circle cx="862.1087665214" cy="-79.6595504031" r="2" />
	<circle cx="500.0000000000" cy="-866.0254038000" r="2" />
	<circle cx="499.9999659018" cy="-865.8131839328" r="2" />
	<circle cx="500.0000000000" cy="-866.0254038000" r="2" />
	<circle cx="1000.0000000000" cy="-0.0000000000" r="2" />
	<circle cx="1000.0000000000" cy="-0.0000000000" r="2" />
	<circle cx="500.0000000000" cy="-866.0254038000" r="2" />
	<circle cx="0.0000000001" cy="-0.0000000001" r="2" />
	<circle cx="89.6709451890" cy="-51.8196289619" r="2" />
	<circle cx="0.0062237153" cy="-0.0035899938" r="2" />
	<circle cx="1000.0000000000" cy="-0.0000000000" r="2" />
	<circle cx="500.0000000000" cy="-866.0254038000" r="2" />
	<circle cx="500.0000000000" cy="-866.0254037999" r="2" />
	<circle cx="500.0000000001" cy="-866.0254037763" r="2" />
	<circle cx="464.5456690383" cy="-323.0280562586" r="2" />
	<circle cx="363.9854477232" cy="-210.1913924154" r="2" />
	<circle cx="0.0000000000" cy="-0.0000000000" r="2" />
	<circle cx="1000.0000000000" cy="-0.0000000000" r="2" />
	<circle cx="500.0000000969" cy="-866.0249216040" r="2" />
	<circle cx="707.1279505920" cy="-448.8772878215" r="2" />
	<circle cx="0.0142670820" cy="-0.0082293332" r="2" />
	<circle cx="0.0000000002" cy="-0.0000000001" r="2" />
	<circle cx="0.0000011535" cy="-0.0000006659" r="2" />
	<circle cx="1000.0000000000" cy="-0.0000000000" r="2" />
	<circle cx="973.6704642543" cy="-15.2015025655" r="2" />
	<circle cx="0.0000000000" cy="-0.0000000000" r="2" />
	<circle cx="999.9999999970" cy="-0.0000000014" r="2" />
	<circle cx="1000.0000000000" cy="-0.0000000000" r="2" />
	<circle cx="499.9999999600" cy="-866.0253988601" r="2" />
	<circle cx="0.0000001646" cy="-0.0000000951" r="2" />
	<circle cx="0.0000000000" cy="-0.0000000000" r="2" />
	<circle cx="0.0003607473" cy="-0.0002081926" r="2" />
	<circle cx="999.9999999438" cy="-0.0000000117" r="2" />
	<circle cx="499.9879389962" cy="-764.2763319130" r="2" />
	<circle cx="500.0000000000" cy="-866.0254038000" r="2" />
	<circle cx="0.0000000000" cy="-0.0000000000" r="2" />
	<circle cx="0.0016401788" cy="-0.0010784729" r="2" />
	<circle cx="499.9978005603" cy="-862.3661060862" r="2" />
	<circle cx="495.9705293455" cy="-828.3022407250" r="2" />
	<circle cx="1000.0000000000" cy="-0.0000000000" r="2" />
	<circle cx="499.9975576064" cy="-859.2598741006" r="2" />
	<circle cx="500.0000000000" cy="-866.0254038000" r="2" />
	<circle cx="0.0000000000" cy="-0.0000000000" r="2" />
	<circle cx="500.0000000000" cy="-866.0254038000" r="2" />
	<circle cx="0.0000000000" cy="-0.0000000000" r="2" />
	<circle cx="500.0000000009" cy="-866.0253919696" r="2" />
	<circle cx="0.0000000000" cy="-0.0000000000" r="2" />
	<circle cx="549.9588609132" cy="-283.9713445292" r="2" />
	<circle cx="1000.0000000000" cy="-0.0000000000" r="2" />
	<circle cx="1000.0000000000" cy="-0.0000000000" r="2" />
	<circle cx="0.0000046823" cy="-0.0000027022" r="2" />
	<circle cx="0.0000000000" cy="-0.0000000000" r="2" />
	<circle cx="500.0000000000" cy="-866.0254037999" r="2" />
	<circle cx="0.0000630915" cy="-0.0000461611" r="2" />
	<circle cx="0.0000000000" cy="-0.0000000000" r="2" />
	<circle cx="0.0000000000" cy="-0.0000000000" r="2" />
	<circle cx="716.8448934833" cy="-144.7319895084" r="2" />
	<circle cx="0.0000000000" cy="-0.0000000000" r="2" />
	<circle cx="995.7966212424" cy="-2.4286954687" r="2" />
	<circle cx="500.0000000000" cy="-866.0254038000" r="2" />
	<circle cx="1000.0000000000" cy="-0.0000000000" r="2" />
	<circle cx="870.5367594512" cy="-74.6266325592" r="2" />
	<circle cx="148.8847582550" cy="-94.8640731113" r="2" />
	<circle cx="1000.0000000000" cy="-0.0000000000" r="2" />
	<circle cx="0.0002571276" cy="-0.0001483716" r="2" />
	<circle cx="1000.0000000000" cy="-0.0000000000" r="2" />
	<circle cx="0.0000000000" cy="-0.0000000000" r="2" />
	<circle cx="1000.0000000000" cy="-0.0000000000" r="2" />
	<circle cx="0.0000000000" cy="-0.0000000000" r="2" />
	<circle cx="999.9999999955" cy="-0.0000000026" r="2" />
	<circle cx="0.0000000000" cy="-0.0000000000" r="2" />
	<circle cx="500.0000000000" cy="-866.0254038000" r="2" />
	<circle cx="999.9997853920" cy="-0.0001239523" r="2" />
	<circle cx="1000.0000000000" cy="-0.0000000000" r="2" />
	<circle cx="0.0350461118" cy="-0.0202287053" r="2" />
	<circle cx="0.0000000000" cy="-0.0000000000" r="2" />
	<circle cx="0.0000000000" cy="-0.0000000000" r="2" />
	<circle cx="999.9999999884" cy="-0.0000000067" r="2" />
	<circle cx="1000.0000000000" cy="-0.0000000000" r="2" />
	<circle cx="500.0000000000" cy="-866.0254038000" r="2" />
	<circle cx="499.9999999994" cy="-866.0254037918" r="2" />
	<circle cx="990.6447558751" cy="-5.3995452552" r="2" />
	<circle cx="999.9999993363" cy="-0.0000003923" r="2" />
	<circle cx="500.0000000000" cy="-866.0254038000" r="2" />
	<circle cx="0.0000053763" cy="-0.0000031619" r="2" />
	<circle cx="22.1799379875" cy="-14.8398906454" r="2" />
	<circle cx="499.9999979455" cy="-866.0156400569" r="2" />
	<circle cx="999.9999830628" cy="-0.0000059325" r="2" />
	<circle cx="0.0000000000" cy="-0.0000000000" r="2" />
	<circle cx="412.8996089468" cy="-607.5230113869" r="2" />
	<circle cx="1000.0000000000" cy="-0.0000000000" r="2" />
	<circle cx="500.0000000000" cy="-866.0254038000" r="2" />
	<circle cx="775.6228090633" cy="-175.6557736217" r="2" />
	<circle cx="500.6869291165" cy="-759.7916941174" r="2" />
	<circle cx="500.0000000000" cy="-866.0254038000" r="2" />
	<circle cx="1000.0000000000" cy="-0.0000000000" r="2" />
	<circle cx="999.9999999998" cy="-0.0000000001" r="2" />
	<circle cx="500.0000000000" cy="-866.0254038000" r="2" />
	<circle cx="0.0000000000" cy="-0.0000000000" r="2" />
	<circle cx="0.0000000000" cy="-0.0000000000" r="2" />
	<circle cx="609.6416024130" cy="-547.2323383323" r="2" />
	<circle cx="999.9930136033" cy="-0.0036255876" r="2" />
	<circle cx="499.9999999983" cy="-866.0254037940" r="2" />
	<circle cx="0.0000000000" cy="-0.0000000000" r="2" />
	<circle cx="500.3941497412" cy="-857.1633359056" r="2" />
	<circle cx="0.0000000000" cy="-0.0000000000" r="2" />
	<circle cx="0.0000669855" cy="-0.0000387106" r="2" />
	<circle cx="827.0589330973" cy="-109.1550758586" r="2" />
	<circle cx="0.0000101483" cy="-0.0000043727" r="2" />
	<circle cx="196.8032839106" cy="-97.7961585951" r="2" />
	<circle cx="0.0000000000" cy="-0.0000000000" r="2" />
	<circle cx="500.0014891478" cy="-861.1705934387" r="2" />
	<circle cx="1000.0000000000" cy="-0.0000000000" r="2" />
	<circle cx="999.9973082546" cy="-0.0015566591" r="2" />
	<circle cx="350.3122579362" cy="-202.2271024746" r="2" />
	<circle cx="0.0030636084" cy="-0.0017674438" r="2" />
	<circle cx="999.9999999885" cy="-0.0000000054" r="2" />
	<circle cx="1000.0000000000" cy="-0.0000000000" r="2" />
	<circle cx="500.0000000014" cy="-866.0254002439" r="2" />
	<circle cx="1000.0000000000" cy="-0.0000000000" r="2" />
	<circle cx="0.0003674951" cy="-0.0002912105" r="2" />
	<circle cx="0.0000000000" cy="-0.0000000000" r="2" />
	<circle cx="8.8574246723" cy="-4.0289467462" r="2" />
	<circle cx="1000.0000000000" cy="-0.0000000000" r="2" />
	<circle cx="0.0000000000" cy="-0.0000000000" r="2" />
	<circle cx="0.0000000000" cy="-0.0000000000" r="2" />
	<circle cx="0.0000000000" cy="-0.0000000000" r="2" />
	<circle cx="500.0000000000" cy="-866.0254038000" r="2" />
	<circle cx="1000.0000000000" cy="-0.0000000000" r="2" />
	<circle cx="500.0000000000" cy="-866.0254038000" r="2" />
	<circle cx="1000.0000000000" cy="-0.0000000000" r="2" />
	<circle cx="4.3004707188" cy="-3.6676855929" r="2" />
	<circle cx="500.0000000000" cy="-866.0254038000" r="2" />
	<circle cx="438.1399765759" cy="-139.6357842000" r="2" />
	<circle cx="500.0000000000" cy="-866.0254038000" r="2" />
	<circle cx="500.0000000000" cy="-866.0254038000" r="2" />
	<circle cx="0.0000000293" cy="-0.0000000169" r="2" />
	<circle cx="499.9999999385" cy="-866.0249331548" r="2" />
	<circle cx="667.7625512384" cy="-450.1695148031" r="2" />
	<circle cx="999.9999998879" cy="-0.0000000648" r="2" />
	<circle cx="0.0000152162" cy="-0.0000083488" r="2" />
	<circle cx="999.9999974180" cy="-0.0000008970" r="2" />
	<circle cx="500.0000000000" cy="-866.0254037918" r="2" />
	<circle cx="0.0000000000" cy="-0.0000000000" r="2" />
	<circle cx="500.0000000000" cy="-866.0254038000" r="2" />
	<circle cx="431.4886885297" cy="-278.3275736134" r="2" />
	<circle cx="0.0084552007" cy="-0.0048788396" r="2" />
	<circle cx="1000.0000000000" cy="-0.0000000000" r="2" />
	<circle cx="0.0000000000" cy="-0.0000000000" r="2" />
	<circle cx="0.0000000000" cy="-0.0000000000" r="2" />
	<circle cx="460.4403735735" cy="-580.8624882983" r="2" />
	<circle cx="499.9999999461" cy="-866.0254035368" r="2" />
	<circle cx="0.0000000000" cy="-0.0000000000" r="2" />
	<circle cx="0.0000000000" cy="-0.0000000000" r="2" />
	<circle cx="500.0000000000" cy="-866.0254037999" r="2" />
	<circle cx="999.9991358024" cy="-0.0005870331" r="2" />
	<circle cx="1000.0000000000" cy="-0.0000000000" r="2" />
	<circle cx="0.0000000000" cy="-0.0000000000" r="2" />
	<circle cx="500.0000000000" cy="-866.0254038000" r="2" />
	<circle cx="500.0037811106" cy="-864.9282893089" r="2" />
	<circle cx="999.9999473303" cy="-0.0000304549" r="2" />
	<circle cx="948.5471136967" cy="-29.7337729762" r="2" />
	<circle cx="0.0000030810" cy="-0.0000017773" r="2" />
	<circle cx="999.9999974129" cy="-0.0000013756" r="2" />
	<circle cx="500.0000000000" cy="-866.0254038000" r="2" />
	<circle cx="1000.0000000000" cy="-0.0000000000" r="2" />
	<circle cx="6.6473010808" cy="-3.7880349531" r="2" />
	<circle cx="1000.0000000000" cy="-0.0000000000" r="2" />
	<circle cx="0.0000000000" cy="-0.0000000000" r="2" />
	<circle cx="0.0000102437" cy="-0.0000059157" r="2" />
	<circle cx="0.0000000000" cy="-0.0000000000" r="2" />
	<circle cx="500.0000000000" cy="-866.0254003302" r="2" />
	<circle cx="0.0732829195" cy="-0.0541947769" r="2" />
	<circle cx="0.2065003481" cy="-0.1192688558" r="2" />
	<circle cx="735.7538384992" cy="-152.5692455819" r="2" />
	<circle cx="500.0000000000" cy="-866.0254038000" r="2" />
	<circle cx="999.9999999945" cy="-0.0000000023" r="2" />
	<circle cx="1000.0000000000" cy="-0.0000000000" r="2" />
	<circle cx="0.0000000000" cy="-0.0000000000" r="2" />
	<circle cx="1.0102248809" cy="-0.5830925273" r="2" />
	<circle cx="0.0000000000" cy="-0.0000000000" r="2" />
	<circle cx="715.3354557391" cy="-424.5917164001" r="2" />
	<circle cx="500.0136439923" cy="-865.9360828902" r="2" />
	<circle cx="1000.0000000000" cy="-0.0000000000" r="2" />
	<circle cx="999.9993978011" cy="-0.0003479377" r="2" />
	<circle cx="660.9750787835" cy="-295.0988354283" r="2" />
	<circle cx="999.9999585467" cy="-0.0000137250" r="2" />
	<circle cx="500.0000000000" cy="-866.0254037998" r="2" />
	<circle cx="999.3534699006" cy="-0.3732691317" r="2" />
	<circle cx="500.0000000000" cy="-866.0254037954" r="2" />
	<circle cx="1000.0000000000" cy="-0.0000000000" r="2" />
	<circle cx="500.0000000000" cy="-866.0254038000" r="2" />
	<circle cx="499.9999999973" cy="-866.0254031607" r="2" />
	<circle cx="427.4561194442" cy="-126.3378026668" r="2" />
	<circle cx="0.0000000000" cy="-0.0000000000" r="2" />
	<circle cx="500.0000000000" cy="-866.0254038000" r="2" />
	<circle cx="1000.0000000000" cy="-0.0000000000" r="2" />
	<circle cx="0.0000000000" cy="-0.0000000000" r="2" />
	<circle cx="0.0000000000" cy="-0.0000000000" r="2" />
	<circle cx="1000.0000000000" cy="-0.0000000000" r="2" />
	<circle cx="999.9999999998" cy="-0.0000000001" r="2" />
	<circle cx="0.0000919693" cy="-0.0000530446" r="2" />
	<circle cx="1000.0000000000" cy="-0.0000000000" r="2" />
	<circle cx="0.0000000000" cy="-0.0000000000" r="2" />
	<circle cx="0.0000000000" cy="-0.0000000000" r="2" />
	<circle cx="0.0000000931" cy="-0.0000000538" r="2" />
	<circle cx="499.9999999993" cy="-866.0254037980" r="2" />
	<circle cx="1000.0000000000" cy="-0.0000000000" r="2" />
	<circle cx="0.0000001590" cy="-0.0000000919" r="2" />
	<circle cx="999.9998794758" cy="-0.0001173403" r="2" />
	<circle cx="500.0000000000" cy="-866.0254038000" r="2" />
	<circle cx="402.5519756792" cy="-232.6421467078" r="2" />
	<circle cx="500.0000000063" cy="-866.0254037598" r="2" />
	<circle cx="0.1322371110" cy="-0.0762648391" r="2" />
	<circle cx="999.9999999999" cy="-0.0000000000" r="2" />
	<circle cx="500.0000000033" cy="-866.0254036384" r="2" />
	<circle cx="0.0031040443" cy="-0.0017913763" r="2" />
	<circle cx="1000.0000000000" cy="-0.0000000000" r="2" />
	<circle cx="500.0000000000" cy="-866.0254037981" r="2" />
	<circle cx="0.0000016934" cy="-0.0000009787" r="2" />
	<circle cx="0.0000000000" cy="-0.0000000000" r="2" />
	<circle cx="500.0000000000" cy="-866.0254038000" r="2" />
	<circle cx="999.9999999998" cy="-0.0000000001" r="2" />
	<circle cx="0.0000000000" cy="-0.0000000000" r="2" />
	<circle cx="0.0000000000" cy="-0.0000000000" r="2" />
	<circle cx="1000.0000000000" cy="-0.0000000000" r="2" />
	<circle cx="500.0163173413" cy="-506.5533761969" r="2" />
	<circle cx="499.9999999999" cy="-866.0254034960" r="2" />
	<circle cx="0.0000000000" cy="-0.0000000000" r="2" />
	<circle cx="500.0000000000" cy="-866.0254038000" r="2" />
	<circle cx="1000.0000000000" cy="-0.0000000000" r="2" />
	<circle cx="0.0000000000" cy="-0.0000000000" r="2" />
	<circle cx="500.0000000000" cy="-866.0254038000" r="2" />
	<circle cx="999.9999723688" cy="-0.0000159497" r="2" />
	<circle cx="1000.0000000000" cy="-0.0000000000" r="2" />
	<circle cx="455.4926178544" cy="-262.8177183146" r="2" />
	<circle cx="259.9467999312" cy="-142.6089710960" r="2" />
	<circle cx="1000.0000000000" cy="-0.0000000000" r="2" />
	<circle cx="0.0000000000" cy="-0.0000000000" r="2" />
	<circle cx="0.0000000000" cy="-0.0000000000" r="2" />
	<circle cx="500.0000000000" cy="-866.0254037993" r="2" />
	<circle cx="999.9966376648" cy="-0.0019401867" r="2" />
	<circle cx="500.0000000000" cy="-866.0254038000" r="2" />
	<circle cx="0.3588176179" cy="-0.2092733963" r="2" />
	<circle cx="0.0000000000" cy="-0.0000000000" r="2" />
	<circle cx="500.0000000000" cy="-866.0254038000" r="2" />
	<circle cx="1000.0000000000" cy="-0.0000000000" r="2" />
	<circle cx="0.0000000000" cy="-0.0000000000" r="2" />
	<circle cx="0.0000001806" cy="-0.0000001043" r="2" />
	<circle cx="0.0000000000" cy="-0.0000000000" r="2" />
	<circle cx="999.9773944668" cy="-0.0128265651" r="2" />
	<circle cx="500.0000000140" cy="-866.0250933412" r="2" />
	<circle cx="500.0000038551" cy="-866.0252402714" r="2" />
	<circle cx="999.9999992795" cy="-0.0000004264" r="2" />
	<circle cx="1000.0000000000" cy="-0.0000000000" r="2" />
	<circle cx="0.0000000000" cy="-0.0000000000" r="2" />
	<circle cx="500.0000000001" cy="-866.0254022633" r="2" />
	<circle cx="828.3464835367" cy="-89.7614206486" r="2" />
	<circle cx="0.0000000637" cy="-0.0000000388" r="2" />
	<circle cx="0.0000000127" cy="-0.0000000073" r="2" />
	<circle cx="998.6471620073" cy="-0.7806865442" r="2" />
	<circle cx="999.9999999931" cy="-0.0000000046" r="2" />
	<circle cx="94.7430300562" cy="-60.7814053282" r="2" />
	<circle cx="14.4622758637" cy="-8.3536528402" r="2" />
	<circle cx="1000.0000000000" cy="-0.0000000000" r="2" />
	<circle cx="999.9999788818" cy="-0.0000121830" r="2" />
	<circle cx="999.9999999801" cy="-0.0000000121" r="2" />
	<circle cx="499.9999982938" cy="-866.0253759844" r="2" />
	<circle cx="1000.0000000000" cy="-0.0000000000" r="2" />
	<circle cx="316.8937056781" cy="-393.4772649178" r="2" />
	<circle cx="0.0000000000" cy="-0.0000000000" r="2" />
	<circle cx="499.9999987230" cy="-866.0201572047" r="2" />
	<circle cx="0.0396442667" cy="-0.0228828291" r="2" />
	<circle cx="1000.0000000000" cy="-0.0000000000" r="2" />
	<circle cx="999.9999846590" cy="-0.0000106605" r="2" />
	<circle cx="999.9999999999" cy="-0.0000000001" r="2" />
	<circle cx="500.0000000090" cy="-866.0254029629" r="2" />
	<circle cx="0.0000000001" cy="-0.0000000000" r="2" />
	<circle cx="499.9999999993" cy="-866.0254037045" r="2" />
	<circle cx="500.0444763462" cy="-696.3937029635" r="2" />
	<circle cx="0.0000000000" cy="-0.0000000000" r="2" />
	<circle cx="500.0000000000" cy="-866.0254038000" r="2" />
	<circle cx="0.0000000006" cy="-0.0000000003" r="2" />
	<circle cx="133.5457465431" cy="-105.7067050096" r="2" />
	<circle cx="0.0000000000" cy="-0.0000000000" r="2" />
	<circle cx="1000.0000000000" cy="-0.0000000000" r="2" />
	<circle cx="0.0035052576" cy="-0.0020419905" r="2" />
	<circle cx="151.7823287128" cy="-86.6852399771" r="2" />
	<circle cx="1000.0000000000" cy="-0.0000000000" r="2" />
	<circle cx="499.9999999789" cy="-866.0251718787" r="2" />
	<circle cx="0.0000000000" cy="-0.0000000000" r="2" />
	<circle cx="0.0000000000" cy="-0.0000000000" r="2" />
	<circle cx="500.0000000000" cy="-866.0254038000" r="2" />
	<circle cx="999.9999876161" cy="-0.0000071546" r="2" />
	<circle cx="1000.0000000000" cy="-0.0000000000" r="2" />
	<circle cx="500.0000000000" cy="-866.0254038000" r="2" />
	<circle cx="999.9995925413" cy="-0.0002352882" r="2" />
	<circle cx="500.0000000000" cy="-866.0254038000" r="2" />
	<circle cx="0.0000000000" cy="-0.0000000000" r="2" />
	<circle cx="499.9999998294" cy="-866.0254022872" r="2" />
	<circle cx="500.0000000000" cy="-866.0254038000" r="2" />
	<circle cx="1000.0000000000" cy="-0.0000000000" r="2" />
	<circle cx="27.1987707153" cy="-18.5977901560" r="2" />
	<circle cx="0.0000002428" cy="-0.0000001736" r="2" />
	<circle cx="0.0000000007" cy="-0.0000000004" r="2" />
	<circle cx="499.9999996419" cy="-866.0253953432" r="2" />
	<circle cx="500.0000000000" cy="-866.0254038000" r="2" />
	<circle cx="500.0000000000" cy="-866.0254038000" r="2" />
	<circle cx="999.9998120481" cy="-0.0001083688" r="2" />
	<circle cx="500.0000000000" cy="-866.0254038000" r="2" />
	<circle cx="0.0000000000" cy="-0.0000000000" r="2" />
	<circle cx="1000.0000000000" cy="-0.0000000000" r="2" />
	<circle cx="720.1264730740" cy="-164.7422766505" r="2" />
	<circle cx="0.0134310400" cy="-0.0077594044" r="2" />
	<circle cx="1000.0000000000" cy="-0.0000000000" r="2" />
	<circle cx="499.8931133851" cy="-464.2043002942" r="2" />
	<circle cx="500.0000000000" cy="-866.0254038000" r="2" />
	<circle cx="961.2939309713" cy="-22.3678786658" r="2" />
	<circle cx="999.9999999861" cy="-0.0000000059" r="2" />
	<circle cx="1000.0000000000" cy="-0.0000000000" r="2" />
	<circle cx="996.8319247487" cy="-1.8315534706" r="2" />
	<circle cx="500.0000000000" cy="-866.0254038000" r="2" />
	<circle cx="999.9999962232" cy="-0.0000021793" r="2" />
	<circle cx="0.0062613840" cy="-0.0036167901" r="2" />
	<circle cx="500.2912236576" cy="-863.8479428647" r="2" />
	<circle cx="500.0000000000" cy="-866.0254038000" r="2" />
	<circle cx="500.0000000000" cy="-866.0254038000" r="2" />
	<circle cx="0.0002619161" cy="-0.0001357582" r="2" />
	<circle cx="1000.0000000000" cy="-0.0000000000" r="2" />
	<circle cx="999.9999999999" cy="-0.0000000001" r="2" />
	<circle cx="0.0000000000" cy="-0.0000000000" r="2" />
	<circle cx="999.9999993551" cy="-0.0000004018" r="2" />
	<circle cx="500.0000000000" cy="-866.0254038000" r="2" />
	<circle cx="500.0000000000" cy="-866.0254038000" r="2" />
	<circle cx="1000.0000000000" cy="-0.0000000000" r="2" />
	<circle cx="0.0000000000" cy="-0.0000000000" r="2" />
	<circle cx="500.0000000000" cy="-866.0254038000" r="2" />
	<circle cx="0.0000000015" cy="-0.0000000011" r="2" />
	<circle cx="0.0000414708" cy="-0.0000137280" r="2" />
	<circle cx="500.0000000000" cy="-866.0254038000" r="2" />
	<circle cx="0.0000000000" cy="-0.0000000000" r="2" />
	<circle cx="0.0000000000" cy="-0.0000000000" r="2" />
  </g>
  <g id="fig2" transform="translate(-550.0,1000)">
	<polygon points="0.0,-0.0 1000.0,-0.0 500.0,-866.0254038" />
	<line
	   id="line2-1"
	   y2="-0.0"
	   x2="500"
	   y1="-288.6751346"
	   x1="500" />
	<line
	   id="line2-2"
	   y2="-433.0127019"
	   x2="250"
	   y1="-288.6751346"
	   x1="500" />
	<line
	   id="line2-3"
	   y2="-433.0127019"
	   x2="750"
	   y1="-288.6751346"
	   x1="500" />
	<text
	   x="440"
	   y="-500"
	   id="up_2">30.2%</text>
	<text
	   x="250"
	   y="-150"
	   id="down_left_2">36.0%</text>
	<text
	   x="630"
	   y="-150"
	   id="down_right_2">33.8%</text>
  </g>
  <g id="fig3" transform="translate(550,1000)">
	<polygon points="0.0,-0.0 1000.0,-0.0 500.0,-866.0254038" />
	<polygon id="triangle3b" points="250,-144.3375673 750,-144.3375673 500,-577.3502692" />
	<line
	   id="line3-1"
	   x1="125"
	   y1="-216.5063509"
	   x2="250"
	   y2="-144.3375673" />
	<line
	   id="line3-2"
	   x1="375"
	   y1="-649.5190528"
	   x2="500"
	   y2="-577.3502692" />
	<line
	   id="line3-3"
	   x1="625"
	   y1="-649.5190528"
	   x2="500"
	   y2="-577.3502692" />
	<line
	   id="line3-4"
	   x1="875"
	   y1="-216.5063509"
	   x2="750"
	   y2="-144.3375673" />
	<line
	   id="line3-5"
	   x1="750"
	   y1="-0.0"
	   x2="750"
	   y2="-144.3375673" />
	<line
	   id="line3-6"
	   x1="250"
	   y1="-0.0"
	   x2="250"
	   y2="-144.3375673" />
	<text
	   x="500"
	   y="-660"
	   text-anchor="middle"
	   id="up_3">27.8%</text>
	<text
	   y="-50"
	   x="70"
	   id="down_left_3">33.8%</text>
	<text
	   y="-50"
	   x="770"
	   id="down_right_3">32.2%</text>
	<text
	   x="500"
	   y="-50"
	   text-anchor="middle"
	   id="down_side_3">0.8%</text>
	<text
	   x="500"
	   y="-280"
	   text-anchor="middle"
	   id="center_3">3.8%</text>
	<text
	   x="685.0"
	   y="-390.8439"
	   text-anchor="middle"
	   transform="rotate(60,665.0,-380.8439)"
	   id="right_side_3">1.0%</text>
	<text
	   x="315.0"
	   y="-390.8439"
	   text-anchor="middle"
	   transform="rotate(-60,335.0,-380.8439)"
	   id="left_side_3">0.6%</text>
  </g>
</g></g>
</svg>
