<?xml version="1.0" encoding="UTF-8" standalone="no"?>
<!DOCTYPE svg PUBLIC "-//W3C//DTD SVG 1.1//EN" "http://www.w3.org/Graphics/SVG/1.1/DTD/svg11.dtd">
<svg
   xmlns:svg="http://www.w3.org/2000/svg"
   xmlns="http://www.w3.org/2000/svg"
   xmlns:xlink="http://www.w3.org/1999/xlink"
   version="1.1"
   baseProfile="full"
   id="body"
   width="800px"
   height="800px"
   viewBox="0 0 1000 1000"
   preserveAspectRatio="none">
  <defs>
    <style type="text/css"><![CDATA[
      circle{ stroke: none; }
      polygon{ stroke: black; stroke-width: 2px; fill: none; }
      line{ stroke: black; stroke-width: 2px; }
      text{ font-size:50px; }
    ]]></style>
  </defs>
  <title
     id="title1">SVG drawing</title>
<g transform="scale(0.45)"><g transform="translate(600,1050)">
  <g id="fig1">
	<polygon points="0.0,-0.0 1000.0,-0.0 500,-866.0254038" />
	<circle cx="1000.0000000000" cy="-0.0000000000" r="2" />
	<circle cx="0.0000000001" cy="-0.0000000001" r="2" />
	<circle cx="500.0000000000" cy="-866.0254038000" r="2" />
	<circle cx="999.9971901701" cy="-0.0016354594" r="2" />
	<circle cx="0.0000000000" cy="-0.0000000000" r="2" />
	<circle cx="500.0000000000" cy="-866.0254038000" r="2" />
	<circle cx="1000.0000000000" cy="-0.0000000000" r="2" />
	<circle cx="499.9996337245" cy="-861.4968747618" r="2" />
	<circle cx="554.7912969163" cy="-249.3718538261" r="2" />
	<circle cx="499.9621131766" cy="-863.5644511020" r="2" />
	<circle cx="0.0000000000" cy="-0.0000000000" r="2" />
	<circle cx="500.0000000000" cy="-866.0254038000" r="2" />
	<circle cx="999.9999964952" cy="-0.0000022151" r="2" />
	<circle cx="1000.0000000000" cy="-0.0000000000" r="2" />
	<circle cx="500.0000000000" cy="-866.0254038000" r="2" />
	<circle cx="500.0000554991" cy="-865.7581196055" r="2" />
	<circle cx="499.3015945461" cy="-829.3780696168" r="2" />
	<circle cx="999.9946861927" cy="-0.0037425201" r="2" />
	<circle cx="1000.0000000000" cy="-0.0000000000" r="2" />
	<circle cx="500.0000000000" cy="-866.0254038000" r="2" />
	<circle cx="999.9998827559" cy="-0.0000674844" r="2" />
	<circle cx="410.7675040742" cy="-172.3890079612" r="2" />
	<circle cx="1000.0000000000" cy="-0.0000000000" r="2" />
	<circle cx="499.9715525797" cy="-725.1031936451" r="2" />
	<circle cx="0.0189663622" cy="-0.0105511978" r="2" />
	<circle cx="1000.0000000000" cy="-0.0000000000" r="2" />
	<circle cx="500.0632206356" cy="-865.7172227180" r="2" />
	<circle cx="500.0000000628" cy="-866.0251590011" r="2" />
	<circle cx="503.2262206434" cy="-841.3528887181" r="2" />
	<circle cx="0.0000000000" cy="-0.0000000000" r="2" />
	<circle cx="500.0000000000" cy="-866.0254038000" r="2" />
	<circle cx="500.0000000000" cy="-866.0254038000" r="2" />
	<circle cx="0.0000000000" cy="-0.0000000000" r="2" />
	<circle cx="941.2931527326" cy="-15.1873349365" r="2" />
	<circle cx="842.6482959073" cy="-94.7383801902" r="2" />
	<circle cx="1000.0000000000" cy="-0.0000000000" r="2" />
	<circle cx="500.0000000000" cy="-866.0254038000" r="2" />
	<circle cx="0.0000000000" cy="-0.0000000000" r="2" />
	<circle cx="529.3524747774" cy="-264.2822508783" r="2" />
	<circle cx="500.0000000000" cy="-866.0254038000" r="2" />
	<circle cx="0.0000000000" cy="-0.0000000000" r="2" />
	<circle cx="653.8803753972" cy="-122.7847928484" r="2" />
	<circle cx="499.9999999998" cy="-866.0254001263" r="2" />
	<circle cx="0.0000000000" cy="-0.0000000000" r="2" />
	<circle cx="1000.0000000000" cy="-0.0000000000" r="2" />
	<circle cx="999.9968262017" cy="-0.0018314537" r="2" />
	<circle cx="999.9863924265" cy="-0.0077732633" r="2" />
	<circle cx="826.0495581016" cy="-215.2178837242" r="2" />
	<circle cx="0.0000000000" cy="-0.0000000000" r="2" />
	<circle cx="499.8264495891" cy="-288.7711630121" r="2" />
	<circle cx="0.0158714036" cy="-0.0191601926" r="2" />
	<circle cx="999.9233522375" cy="-0.0442500163" r="2" />
	<circle cx="0.0000000000" cy="-0.0000000000" r="2" />
	<circle cx="500.0000000000" cy="-866.0254038000" r="2" />
	<circle cx="1000.0000000000" cy="-0.0000000000" r="2" />
	<circle cx="0.0000000000" cy="-0.0000000000" r="2" />
	<circle cx="0.0000000000" cy="-0.0000000000" r="2" />
	<circle cx="1000.0000000000" cy="-0.0000000000" r="2" />
	<circle cx="14.5220398286" cy="-8.3907129349" r="2" />
	<circle cx="499.9998493432" cy="-865.5776606083" r="2" />
	<circle cx="1000.0000000000" cy="-0.0000000000" r="2" />
	<circle cx="0.0000000000" cy="-0.0000000000" r="2" />
	<circle cx="0.0000000000" cy="-0.0000000000" r="2" />
	<circle cx="1000.0000000000" cy="-0.0000000000" r="2" />
	<circle cx="500.0000000000" cy="-866.0254038000" r="2" />
	<circle cx="0.0000003614" cy="-0.0000002088" r="2" />
	<circle cx="1000.0000000000" cy="-0.0000000000" r="2" />
	<circle cx="500.0000697740" cy="-866.0251744193" r="2" />
	<circle cx="0.0000000000" cy="-0.0000000000" r="2" />
	<circle cx="999.9937880262" cy="-0.0035868888" r="2" />
	<circle cx="17.5059995894" cy="-12.8197864037" r="2" />
	<circle cx="878.6449233027" cy="-70.0322733545" r="2" />
	<circle cx="1000.0000000000" cy="-0.0000000000" r="2" />
	<circle cx="507.5250776842" cy="-844.9822029556" r="2" />
	<circle cx="500.0000000000" cy="-866.0254038000" r="2" />
	<circle cx="1000.0000000000" cy="-0.0000000000" r="2" />
	<circle cx="500.0000000000" cy="-866.0254038000" r="2" />
	<circle cx="500.0000000000" cy="-866.0254038000" r="2" />
	<circle cx="134.1292586828" cy="-83.8665428628" r="2" />
	<circle cx="1000.0000000000" cy="-0.0000000000" r="2" />
	<circle cx="0.0000000000" cy="-0.0000000000" r="2" />
	<circle cx="961.3035549455" cy="-48.1120121612" r="2" />
	<circle cx="0.0000054871" cy="-0.0000031688" r="2" />
	<circle cx="0.0000002223" cy="-0.0000001284" r="2" />
	<circle cx="981.3920734005" cy="-15.3349065866" r="2" />
	<circle cx="500.0000000000" cy="-866.0254038000" r="2" />
	<circle cx="406.0038331327" cy="-586.6826746346" r="2" />
	<circle cx="545.3982362856" cy="-464.2432647494" r="2" />
	<circle cx="0.0000000000" cy="-0.0000000000" r="2" />
	<circle cx="0.0000000072" cy="-0.0000000041" r="2" />
	<circle cx="587.8226537105" cy="-237.9386486013" r="2" />
	<circle cx="1000.0000000000" cy="-0.0000000000" r="2" />
	<circle cx="1000.0000000000" cy="-0.0000000000" r="2" />
	<circle cx="999.9925446507" cy="-0.0043597556" r="2" />
	<circle cx="1000.0000000000" cy="-0.0000000000" r="2" />
	<circle cx="500.0000000000" cy="-866.0254038000" r="2" />
	<circle cx="0.0000000000" cy="-0.0000000000" r="2" />
	<circle cx="0.0000000000" cy="-0.0000000000" r="2" />
	<circle cx="1000.0000000000" cy="-0.0000000000" r="2" />
	<circle cx="500.0000000000" cy="-866.0254038000" r="2" />
	<circle cx="757.0901866785" cy="-140.5353944384" r="2" />
	<circle cx="10.9934764285" cy="-6.3511583092" r="2" />
	<circle cx="0.0000000000" cy="-0.0000000000" r="2" />
	<circle cx="999.9378319163" cy="-0.0358888555" r="2" />
	<circle cx="0.2286890112" cy="-0.1320342398" r="2" />
	<circle cx="500.0000000000" cy="-866.0254037974" r="2" />
	<circle cx="454.0317740046" cy="-334.7634406083" r="2" />
	<circle cx="1000.0000000000" cy="-0.0000000000" r="2" />
	<circle cx="1000.0000000000" cy="-0.0000000000" r="2" />
	<circle cx="164.8180745909" cy="-96.4748849026" r="2" />
	<circle cx="1000.0000000000" cy="-0.0000000000" r="2" />
	<circle cx="0.0008220074" cy="-0.0005070441" r="2" />
	<circle cx="505.8463299429" cy="-606.9533322139" r="2" />
	<circle cx="499.9999590031" cy="-865.8946922556" r="2" />
	<circle cx="999.9981881968" cy="-0.0010451712" r="2" />
	<circle cx="0.0000000000" cy="-0.0000000000" r="2" />
	<circle cx="500.0000000000" cy="-866.0254038000" r="2" />
	<circle cx="0.0000000000" cy="-0.0000000000" r="2" />
	<circle cx="502.8958964537" cy="-492.2854430925" r="2" />
	<circle cx="500.0000000000" cy="-866.0254038000" r="2" />
	<circle cx="500.0005706705" cy="-863.4273113519" r="2" />
	<circle cx="0.0023955365" cy="-0.0013827503" r="2" />
	<circle cx="1000.0000000000" cy="-0.0000000000" r="2" />
	<circle cx="325.6681718754" cy="-26.8740003504" r="2" />
	<circle cx="995.0045305272" cy="-4.1308896119" r="2" />
	<circle cx="1000.0000000000" cy="-0.0000000000" r="2" />
	<circle cx="0.0000000000" cy="-0.0000000000" r="2" />
	<circle cx="980.6931758885" cy="-10.4864380180" r="2" />
	<circle cx="298.6765386551" cy="-172.6525869646" r="2" />
	<circle cx="500.0000000000" cy="-866.0254038000" r="2" />
	<circle cx="0.0000000000" cy="-0.0000000000" r="2" />
	<circle cx="999.6650666400" cy="-0.1932945318" r="2" />
	<circle cx="0.0000000000" cy="-0.0000000000" r="2" />
	<circle cx="999.6060791761" cy="-0.2274285225" r="2" />
	<circle cx="500.0000000000" cy="-866.0254038000" r="2" />
	<circle cx="500.0000000000" cy="-866.0254038000" r="2" />
	<circle cx="500.0001706310" cy="-865.7616367937" r="2" />
	<circle cx="0.0000000000" cy="-0.0000000000" r="2" />
	<circle cx="0.0000000000" cy="-0.0000000000" r="2" />
	<circle cx="558.3163688790" cy="-255.5655988724" r="2" />
	<circle cx="0.0000000000" cy="-0.0000000000" r="2" />
	<circle cx="0.0000000000" cy="-0.0000000000" r="2" />
	<circle cx="499.4203712200" cy="-288.5149492691" r="2" />
	<circle cx="500.1252439434" cy="-864.2632552288" r="2" />
	<circle cx="500.0000000000" cy="-866.0254038000" r="2" />
	<circle cx="998.5315844217" cy="-0.0318665698" r="2" />
	<circle cx="0.0000000000" cy="-0.0000000000" r="2" />
	<circle cx="0.0000000000" cy="-0.0000000000" r="2" />
	<circle cx="1000.0000000000" cy="-0.0000000000" r="2" />
	<circle cx="0.0000000000" cy="-0.0000000000" r="2" />
	<circle cx="1000.0000000000" cy="-0.0000000000" r="2" />
	<circle cx="0.0000013570" cy="-0.0000007832" r="2" />
	<circle cx="5.2024765147" cy="-0.9217361434" r="2" />
	<circle cx="500.0017635659" cy="-866.0034482966" r="2" />
	<circle cx="0.0000000000" cy="-0.0000000000" r="2" />
	<circle cx="825.8234174407" cy="-100.6444115578" r="2" />
	<circle cx="500.0000000000" cy="-866.0254038000" r="2" />
	<circle cx="499.9474602927" cy="-674.4212200659" r="2" />
	<circle cx="0.0000000000" cy="-0.0000000000" r="2" />
	<circle cx="499.6921859328" cy="-712.2592354031" r="2" />
	<circle cx="476.3282082732" cy="-794.1942823154" r="2" />
	<circle cx="1000.0000000000" cy="-0.0000000000" r="2" />
	<circle cx="21.3534776237" cy="-16.8212215464" r="2" />
	<circle cx="1000.0000000000" cy="-0.0000000000" r="2" />
	<circle cx="1000.0000000000" cy="-0.0000000000" r="2" />
	<circle cx="500.0000000000" cy="-866.0254038000" r="2" />
	<circle cx="0.0000000000" cy="-0.0000000000" r="2" />
	<circle cx="1000.0000000000" cy="-0.0000000000" r="2" />
	<circle cx="0.0000180877" cy="-0.0000104401" r="2" />
	<circle cx="179.6284473351" cy="-103.6883856044" r="2" />
	<circle cx="1000.0000000000" cy="-0.0000000000" r="2" />
	<circle cx="499.9999999043" cy="-866.0225187505" r="2" />
	<circle cx="500.0000000000" cy="-866.0254038000" r="2" />
	<circle cx="500.0000000000" cy="-866.0254038000" r="2" />
	<circle cx="0.0000000000" cy="-0.0000000000" r="2" />
	<circle cx="499.9999931489" cy="-866.0151289392" r="2" />
	<circle cx="500.0000000000" cy="-866.0254038000" r="2" />
	<circle cx="1000.0000000000" cy="-0.0000000000" r="2" />
	<circle cx="505.8861442207" cy="-824.7944364631" r="2" />
	<circle cx="499.9999999041" cy="-866.0229284637" r="2" />
	<circle cx="1000.0000000000" cy="-0.0000000000" r="2" />
	<circle cx="500.0000000000" cy="-866.0254038000" r="2" />
	<circle cx="0.0000000000" cy="-0.0000000000" r="2" />
	<circle cx="1000.0000000000" cy="-0.0000000000" r="2" />
	<circle cx="500.0000000000" cy="-866.0254038000" r="2" />
	<circle cx="986.9355295096" cy="-7.5388880106" r="2" />
	<circle cx="0.0000000000" cy="-0.0000000000" r="2" />
	<circle cx="500.0000000000" cy="-866.0254038000" r="2" />
	<circle cx="499.9954045221" cy="-826.5099991717" r="2" />
	<circle cx="500.1086833894" cy="-289.0590690227" r="2" />
	<circle cx="999.9375770413" cy="-0.0517280403" r="2" />
	<circle cx="500.0026856738" cy="-855.1181133989" r="2" />
	<circle cx="0.0000000000" cy="-0.0000000000" r="2" />
	<circle cx="0.0000000000" cy="-0.0000000000" r="2" />
	<circle cx="0.0598841061" cy="-0.1009221814" r="2" />
	<circle cx="999.9983402842" cy="-0.0009573560" r="2" />
	<circle cx="500.0314795737" cy="-865.5898632973" r="2" />
	<circle cx="500.0000000000" cy="-866.0254038000" r="2" />
	<circle cx="1000.0000000000" cy="-0.0000000000" r="2" />
	<circle cx="999.9837335843" cy="-0.0093800730" r="2" />
	<circle cx="0.0000000000" cy="-0.0000000000" r="2" />
	<circle cx="499.9989940523" cy="-866.0156504278" r="2" />
	<circle cx="0.0000000000" cy="-0.0000000000" r="2" />
	<circle cx="999.9999747301" cy="-0.0000145904" r="2" />
	<circle cx="500.0000000000" cy="-866.0254038000" r="2" />
	<circle cx="0.0000000004" cy="-0.0000000002" r="2" />
	<circle cx="499.9798214054" cy="-865.7612571128" r="2" />
	<circle cx="500.0000000000" cy="-866.0254038000" r="2" />
	<circle cx="499.7493422874" cy="-825.6774820060" r="2" />
	<circle cx="436.0100012475" cy="-595.5996838745" r="2" />
	<circle cx="0.0000000000" cy="-0.0000000000" r="2" />
	<circle cx="921.6994528218" cy="-59.8606627879" r="2" />
	<circle cx="1000.0000000000" cy="-0.0000000000" r="2" />
	<circle cx="999.9999793914" cy="-0.0000118918" r="2" />
	<circle cx="0.0000000000" cy="-0.0000000000" r="2" />
	<circle cx="638.5259914945" cy="-519.4848982560" r="2" />
	<circle cx="0.0000000000" cy="-0.0000000000" r="2" />
	<circle cx="999.9809852360" cy="-0.0018837189" r="2" />
	<circle cx="0.0000000000" cy="-0.0000000000" r="2" />
	<circle cx="500.0000323853" cy="-866.0245218446" r="2" />
	<circle cx="1000.0000000000" cy="-0.0000000000" r="2" />
	<circle cx="953.5013422843" cy="-15.6976250479" r="2" />
	<circle cx="230.4781627164" cy="-101.6124458498" r="2" />
	<circle cx="500.0277977917" cy="-861.2256852682" r="2" />
	<circle cx="0.0000000000" cy="-0.0000000000" r="2" />
	<circle cx="500.0000333038" cy="-866.0239843615" r="2" />
	<circle cx="0.0000000000" cy="-0.0000000000" r="2" />
	<circle cx="252.3281959396" cy="-145.6589299003" r="2" />
	<circle cx="1000.0000000000" cy="-0.0000000000" r="2" />
	<circle cx="499.9999992583" cy="-866.0107952808" r="2" />
	<circle cx="1.6144055131" cy="-0.8909334109" r="2" />
	<circle cx="1000.0000000000" cy="-0.0000000000" r="2" />
	<circle cx="0.0000000000" cy="-0.0000000000" r="2" />
	<circle cx="0.0000002743" cy="-0.0000001582" r="2" />
	<circle cx="0.0000000000" cy="-0.0000000000" r="2" />
	<circle cx="500.0000000000" cy="-866.0254038000" r="2" />
	<circle cx="0.2116694681" cy="-0.1220856233" r="2" />
	<circle cx="499.9996517211" cy="-864.8752173588" r="2" />
	<circle cx="500.0000000013" cy="-866.0254015534" r="2" />
	<circle cx="111.3594202822" cy="-64.2564850579" r="2" />
	<circle cx="0.0000000000" cy="-0.0000000000" r="2" />
	<circle cx="0.0000000000" cy="-0.0000000000" r="2" />
	<circle cx="1000.0000000000" cy="-0.0000000000" r="2" />
	<circle cx="999.9130254556" cy="-0.0620682222" r="2" />
	<circle cx="999.9987973657" cy="-0.0001981386" r="2" />
	<circle cx="500.2041915193" cy="-832.9993172264" r="2" />
	<circle cx="0.0000000000" cy="-0.0000000000" r="2" />
	<circle cx="0.0233081403" cy="-0.0134437500" r="2" />
	<circle cx="13.0535834904" cy="-0.6955436407" r="2" />
	<circle cx="1000.0000000000" cy="-0.0000000000" r="2" />
	<circle cx="999.9999971739" cy="-0.0000016286" r="2" />
	<circle cx="0.0000000000" cy="-0.0000000000" r="2" />
	<circle cx="879.4980632437" cy="-58.7964879665" r="2" />
	<circle cx="1000.0000000000" cy="-0.0000000000" r="2" />
	<circle cx="741.6601195048" cy="-188.2458619029" r="2" />
	<circle cx="499.9978534500" cy="-866.0145871989" r="2" />
	<circle cx="499.9988167912" cy="-866.0108947824" r="2" />
	<circle cx="500.0000000000" cy="-866.0254038000" r="2" />
	<circle cx="530.4929034096" cy="-270.0691317735" r="2" />
	<circle cx="0.0772891761" cy="-0.0390960493" r="2" />
	<circle cx="499.8603862253" cy="-415.8029601602" r="2" />
	<circle cx="998.7913087735" cy="-0.8063124247" r="2" />
	<circle cx="500.0000000000" cy="-866.0254038000" r="2" />
	<circle cx="999.4927972637" cy="-0.6944264400" r="2" />
	<circle cx="499.8120351282" cy="-864.7843094355" r="2" />
	<circle cx="1000.0000000000" cy="-0.0000000000" r="2" />
	<circle cx="1000.0000000000" cy="-0.0000000000" r="2" />
	<circle cx="1.0248173184" cy="-0.5915696991" r="2" />
	<circle cx="496.1019703683" cy="-835.9078691168" r="2" />
	<circle cx="999.9981880961" cy="-0.0010467852" r="2" />
	<circle cx="1000.0000000000" cy="-0.0000000000" r="2" />
	<circle cx="999.1526912113" cy="-0.4796105727" r="2" />
	<circle cx="499.9778211725" cy="-613.8618826266" r="2" />
	<circle cx="1000.0000000000" cy="-0.0000000000" r="2" />
	<circle cx="967.2758007997" cy="-30.9218392230" r="2" />
	<circle cx="0.0079385203" cy="-0.0125227331" r="2" />
	<circle cx="0.0000000000" cy="-0.0000000000" r="2" />
	<circle cx="0.0000000000" cy="-0.0000000000" r="2" />
	<circle cx="499.9987017871" cy="-866.0228247273" r="2" />
	<circle cx="500.0000000000" cy="-866.0254038000" r="2" />
	<circle cx="998.2283667475" cy="-1.0228197139" r="2" />
	<circle cx="967.9564218995" cy="-17.6947844178" r="2" />
	<circle cx="500.0000561509" cy="-865.8669605303" r="2" />
	<circle cx="271.6565728804" cy="-106.1029284033" r="2" />
	<circle cx="999.9999999999" cy="-0.0000000000" r="2" />
	<circle cx="994.8842721833" cy="-2.0029669061" r="2" />
	<circle cx="1000.0000000000" cy="-0.0000000000" r="2" />
	<circle cx="500.0000000000" cy="-866.0254038000" r="2" />
	<circle cx="1000.0000000000" cy="-0.0000000000" r="2" />
	<circle cx="0.0000000000" cy="-0.0000000000" r="2" />
	<circle cx="0.0000000000" cy="-0.0000000000" r="2" />
	<circle cx="733.8070062054" cy="-79.8019266005" r="2" />
	<circle cx="1000.0000000000" cy="-0.0000000000" r="2" />
	<circle cx="557.0336043122" cy="-256.0886474310" r="2" />
	<circle cx="1.3255224684" cy="-0.7654101298" r="2" />
	<circle cx="500.0000000000" cy="-866.0254038000" r="2" />
	<circle cx="0.0002059694" cy="-0.0001187877" r="2" />
	<circle cx="0.0022146923" cy="-0.0034557917" r="2" />
	<circle cx="500.0681362095" cy="-288.7030570831" r="2" />
	<circle cx="0.0000000000" cy="-0.0000000000" r="2" />
	<circle cx="500.0000002306" cy="-866.0242573748" r="2" />
	<circle cx="500.0000000000" cy="-866.0254038000" r="2" />
	<circle cx="500.0000000000" cy="-866.0254038000" r="2" />
	<circle cx="1000.0000000000" cy="-0.0000000000" r="2" />
	<circle cx="376.3999884516" cy="-82.7591316782" r="2" />
	<circle cx="0.0000000000" cy="-0.0000000000" r="2" />
	<circle cx="500.0000000000" cy="-866.0254038000" r="2" />
	<circle cx="14.1368022259" cy="-9.1882131413" r="2" />
	<circle cx="1000.0000000000" cy="-0.0000000000" r="2" />
	<circle cx="500.0000000000" cy="-866.0254038000" r="2" />
	<circle cx="499.8927479960" cy="-864.7156269474" r="2" />
	<circle cx="499.9999214749" cy="-865.3499708662" r="2" />
	<circle cx="0.4031711342" cy="-0.2327195479" r="2" />
	<circle cx="500.0000000000" cy="-866.0254038000" r="2" />
	<circle cx="1000.0000000000" cy="-0.0000000000" r="2" />
	<circle cx="499.9985916055" cy="-866.0013062446" r="2" />
	<circle cx="15.6574626647" cy="-8.5487930826" r="2" />
	<circle cx="0.9958041069" cy="-0.5754474725" r="2" />
	<circle cx="482.2264839262" cy="-278.4247136954" r="2" />
	<circle cx="0.1130646052" cy="-0.0658210193" r="2" />
	<circle cx="208.4806587891" cy="-53.5275028864" r="2" />
	<circle cx="500.0277945590" cy="-861.2192197237" r="2" />
	<circle cx="500.0000000000" cy="-866.0254038000" r="2" />
	<circle cx="999.9363982662" cy="-0.0368243386" r="2" />
	<circle cx="499.1874674197" cy="-862.9467300826" r="2" />
	<circle cx="716.7973237298" cy="-175.7189790853" r="2" />
	<circle cx="177.3232662373" cy="-109.5246326668" r="2" />
	<circle cx="454.0330851526" cy="-334.7661537349" r="2" />
	<circle cx="0.0000734042" cy="-0.0000424352" r="2" />
	<circle cx="500.0000000000" cy="-866.0254038000" r="2" />
	<circle cx="500.0047808531" cy="-836.1219906983" r="2" />
	<circle cx="1000.0000000000" cy="-0.0000000000" r="2" />
	<circle cx="0.0000000000" cy="-0.0000000000" r="2" />
	<circle cx="0.0000005208" cy="-0.0000003007" r="2" />
	<circle cx="1000.0000000000" cy="-0.0000000000" r="2" />
	<circle cx="1000.0000000000" cy="-0.0000000000" r="2" />
	<circle cx="0.0000000000" cy="-0.0000000000" r="2" />
	<circle cx="899.7252937728" cy="-75.5372318731" r="2" />
	<circle cx="500.0000000000" cy="-866.0254038000" r="2" />
	<circle cx="0.0382503860" cy="-0.0220579107" r="2" />
	<circle cx="1000.0000000000" cy="-0.0000000000" r="2" />
	<circle cx="499.9999302260" cy="-866.0251744193" r="2" />
	<circle cx="996.0439832980" cy="-2.2802845668" r="2" />
	<circle cx="500.0000000000" cy="-866.0254038000" r="2" />
	<circle cx="500.0000000000" cy="-866.0254038000" r="2" />
	<circle cx="494.9079478017" cy="-789.2710940466" r="2" />
	<circle cx="500.4384366298" cy="-659.0923441731" r="2" />
	<circle cx="0.2018940572" cy="-0.1181021410" r="2" />
	<circle cx="212.1619939982" cy="-193.5532465044" r="2" />
	<circle cx="0.0000000000" cy="-0.0000000000" r="2" />
	<circle cx="1000.0000000000" cy="-0.0000000000" r="2" />
	<circle cx="1000.0000000000" cy="-0.0000000000" r="2" />
	<circle cx="499.9991804492" cy="-863.9939922708" r="2" />
	<circle cx="1000.0000000000" cy="-0.0000000000" r="2" />
	<circle cx="1000.0000000000" cy="-0.0000000000" r="2" />
	<circle cx="1000.0000000000" cy="-0.0000000000" r="2" />
	<circle cx="500.0000000000" cy="-866.0254038000" r="2" />
	<circle cx="0.0000000000" cy="-0.0000000000" r="2" />
	<circle cx="7.0747880054" cy="-2.1691503887" r="2" />
	<circle cx="500.0000000000" cy="-866.0254038000" r="2" />
	<circle cx="999.9999999999" cy="-0.0000000001" r="2" />
	<circle cx="500.0000000000" cy="-866.0254038000" r="2" />
	<circle cx="0.0000000000" cy="-0.0000000000" r="2" />
	<circle cx="0.0000000000" cy="-0.0000000000" r="2" />
	<circle cx="999.9988162418" cy="-0.0009383677" r="2" />
	<circle cx="500.0000000000" cy="-866.0254038000" r="2" />
	<circle cx="500.3208957090" cy="-864.3014791509" r="2" />
	<circle cx="36.2268927273" cy="-13.7614560348" r="2" />
	<circle cx="0.0000000000" cy="-0.0000000000" r="2" />
	<circle cx="500.0000000000" cy="-866.0254037598" r="2" />
	<circle cx="500.9030621097" cy="-840.9358756972" r="2" />
	<circle cx="1000.0000000000" cy="-0.0000000000" r="2" />
	<circle cx="1000.0000000000" cy="-0.0000000000" r="2" />
	<circle cx="1000.0000000000" cy="-0.0000000000" r="2" />
	<circle cx="0.0446361348" cy="-0.0615390761" r="2" />
	<circle cx="1000.0000000000" cy="-0.0000000000" r="2" />
	<circle cx="499.9965987371" cy="-847.4725776394" r="2" />
	<circle cx="500.0000000000" cy="-866.0254038000" r="2" />
	<circle cx="0.0000000000" cy="-0.0000000000" r="2" />
	<circle cx="148.8877720985" cy="-1.0828515434" r="2" />
	<circle cx="1000.0000000000" cy="-0.0000000000" r="2" />
	<circle cx="79.2091904102" cy="-45.4801737667" r="2" />
	<circle cx="500.0000000000" cy="-866.0254038000" r="2" />
	<circle cx="500.0011534978" cy="-860.9372097179" r="2" />
	<circle cx="661.2038043138" cy="-475.9121497423" r="2" />
	<circle cx="500.0000000000" cy="-866.0254038000" r="2" />
	<circle cx="1000.0000000000" cy="-0.0000000000" r="2" />
	<circle cx="500.0000000248" cy="-866.0252950978" r="2" />
	<circle cx="500.0000000000" cy="-866.0254038000" r="2" />
	<circle cx="1000.0000000000" cy="-0.0000000000" r="2" />
	<circle cx="500.0004761225" cy="-850.4769299342" r="2" />
	<circle cx="0.0000000000" cy="-0.0000000000" r="2" />
	<circle cx="0.0000287142" cy="-0.0000160794" r="2" />
	<circle cx="0.0000000000" cy="-0.0000000000" r="2" />
	<circle cx="500.0000000000" cy="-866.0254038000" r="2" />
	<circle cx="500.0298414124" cy="-434.9368292637" r="2" />
	<circle cx="500.0000000000" cy="-866.0254038000" r="2" />
	<circle cx="986.6587869445" cy="-5.9841701657" r="2" />
	<circle cx="83.0754407022" cy="-64.5676614965" r="2" />
	<circle cx="999.9272156277" cy="-0.0420257692" r="2" />
	<circle cx="999.6405835518" cy="-0.0653120962" r="2" />
	<circle cx="500.0000000000" cy="-866.0254038000" r="2" />
	<circle cx="718.4681355975" cy="-212.5306414591" r="2" />
	<circle cx="1000.0000000000" cy="-0.0000000000" r="2" />
	<circle cx="0.0000000000" cy="-0.0000000000" r="2" />
	<circle cx="0.0000000000" cy="-0.0000000000" r="2" />
	<circle cx="500.0000015813" cy="-866.0055962207" r="2" />
	<circle cx="1000.0000000000" cy="-0.0000000000" r="2" />
	<circle cx="0.1447044163" cy="-0.0819190796" r="2" />
	<circle cx="498.5117986147" cy="-753.0479194032" r="2" />
	<circle cx="500.0000000000" cy="-866.0254038000" r="2" />
	<circle cx="5.5955840250" cy="-4.4651453372" r="2" />
	<circle cx="500.0000000000" cy="-866.0254038000" r="2" />
	<circle cx="0.0000000000" cy="-0.0000000000" r="2" />
	<circle cx="499.9918267795" cy="-866.0033904956" r="2" />
	<circle cx="500.0000001735" cy="-866.0236628550" r="2" />
	<circle cx="0.0000000000" cy="-0.0000000000" r="2" />
	<circle cx="0.0000000000" cy="-0.0000000000" r="2" />
	<circle cx="0.0000000000" cy="-0.0000000000" r="2" />
	<circle cx="0.0000000000" cy="-0.0000000000" r="2" />
	<circle cx="0.0000000000" cy="-0.0000000000" r="2" />
	<circle cx="1000.0000000000" cy="-0.0000000000" r="2" />
	<circle cx="552.9267850748" cy="-765.7993770805" r="2" />
	<circle cx="0.0000000000" cy="-0.0000000000" r="2" />
	<circle cx="997.2457262533" cy="-1.4422228351" r="2" />
	<circle cx="0.0002688696" cy="-0.0001552271" r="2" />
	<circle cx="442.2368521889" cy="-254.7656059425" r="2" />
	<circle cx="519.1605008452" cy="-379.0811056102" r="2" />
	<circle cx="998.4387935233" cy="-0.8549994100" r="2" />
	<circle cx="402.8518268715" cy="-331.9810598298" r="2" />
	<circle cx="500.0000000000" cy="-866.0254038000" r="2" />
	<circle cx="3.3609389239" cy="-1.9527462226" r="2" />
	<circle cx="500.0246703472" cy="-865.9408523745" r="2" />
	<circle cx="0.0000000000" cy="-0.0000000000" r="2" />
	<circle cx="500.0000000000" cy="-866.0254038000" r="2" />
	<circle cx="998.7990364038" cy="-0.6927088763" r="2" />
	<circle cx="0.0000000000" cy="-0.0000000000" r="2" />
	<circle cx="428.7393603388" cy="-177.2967402941" r="2" />
	<circle cx="0.0000000296" cy="-0.0000000189" r="2" />
	<circle cx="17.4261792832" cy="-10.0523800009" r="2" />
	<circle cx="1000.0000000000" cy="-0.0000000000" r="2" />
	<circle cx="413.5573703415" cy="-235.2189318040" r="2" />
	<circle cx="500.0000000000" cy="-866.0254038000" r="2" />
	<circle cx="445.6293581026" cy="-617.5498662326" r="2" />
	<circle cx="500.0000000000" cy="-866.0254038000" r="2" />
	<circle cx="177.6904762746" cy="-102.5171243709" r="2" />
	<circle cx="0.0000000000" cy="-0.0000000000" r="2" />
	<circle cx="0.0000000000" cy="-0.0000000000" r="2" />
	<circle cx="999.9669279384" cy="-0.0011744281" r="2" />
	<circle cx="0.0000161421" cy="-0.0000093169" r="2" />
	<circle cx="1000.0000000000" cy="-0.0000000000" r="2" />
	<circle cx="998.4174570803" cy="-0.8521712702" r="2" />
	<circle cx="1000.0000000000" cy="-0.0000000000" r="2" />
	<circle cx="999.4542361329" cy="-0.5110387734" r="2" />
	<circle cx="500.1911696582" cy="-864.5502080342" r="2" />
	<circle cx="981.9826893133" cy="-10.4084225729" r="2" />
	<circle cx="500.0280388332" cy="-865.1923095602" r="2" />
	<circle cx="0.0000000000" cy="-0.0000000000" r="2" />
	<circle cx="500.0000000000" cy="-866.0254038000" r="2" />
	<circle cx="201.3168147790" cy="-143.8217725495" r="2" />
	<circle cx="500.0000000000" cy="-866.0254038000" r="2" />
	<circle cx="1000.0000000000" cy="-0.0000000000" r="2" />
	<circle cx="500.0000000000" cy="-866.0254038000" r="2" />
	<circle cx="989.4974181088" cy="-8.0636386454" r="2" />
	<circle cx="0.5023421455" cy="-0.2897270042" r="2" />
	<circle cx="1.0119857999" cy="-0.4292953954" r="2" />
	<circle cx="499.3035446788" cy="-863.2116959865" r="2" />
	<circle cx="999.9996397231" cy="-0.0002155869" r="2" />
	<circle cx="500.0000000000" cy="-866.0254038000" r="2" />
	<circle cx="626.1418505070" cy="-42.8566435414" r="2" />
	<circle cx="0.0000000000" cy="-0.0000000000" r="2" />
	<circle cx="500.0000000000" cy="-866.0254038000" r="2" />
	<circle cx="500.0000000000" cy="-866.0254038000" r="2" />
	<circle cx="500.0000000000" cy="-866.0254038000" r="2" />
	<circle cx="499.9894303243" cy="-827.1330598830" r="2" />
	<circle cx="500.0016514442" cy="-866.0209248092" r="2" />
	<circle cx="500.0000000000" cy="-866.0254038000" r="2" />
	<circle cx="500.0000000000" cy="-866.0254038000" r="2" />
	<circle cx="500.0102615988" cy="-865.9190915803" r="2" />
	<circle cx="1000.0000000000" cy="-0.0000000000" r="2" />
	<circle cx="500.0000000001" cy="-866.0254033928" r="2" />
	<circle cx="500.0004007182" cy="-865.0674925262" r="2" />
	<circle cx="0.0000000000" cy="-0.0000000000" r="2" />
	<circle cx="0.0741045827" cy="-0.0428387907" r="2" />
	<circle cx="1000.0000000000" cy="-0.0000000000" r="2" />
	<circle cx="1000.0000000000" cy="-0.0000000000" r="2" />
	<circle cx="0.0000000000" cy="-0.0000000000" r="2" />
	<circle cx="1000.0000000000" cy="-0.0000000000" r="2" />
	<circle cx="500.0000000000" cy="-866.0254038000" r="2" />
	<circle cx="340.9774145209" cy="-196.9198698437" r="2" />
	<circle cx="999.9760984431" cy="-0.0137883546" r="2" />
	<circle cx="1.4631777266" cy="-0.9895364353" r="2" />
	<circle cx="500.0000000000" cy="-866.0254038000" r="2" />
	<circle cx="0.0035353825" cy="-0.0020388057" r="2" />
	<circle cx="0.0000000000" cy="-0.0000000000" r="2" />
	<circle cx="5.8118436155" cy="-4.7560740822" r="2" />
	<circle cx="500.0000000000" cy="-866.0254038000" r="2" />
	<circle cx="500.0000000000" cy="-866.0254037999" r="2" />
	<circle cx="1000.0000000000" cy="-0.0000000000" r="2" />
	<circle cx="500.4430006202" cy="-659.0770576215" r="2" />
  </g>
  <g id="fig2" transform="translate(-550.0,1000)">
	<polygon points="0.0,-0.0 1000.0,-0.0 500.0,-866.0254038" />
	<line
	   id="line2-1"
	   y2="-0.0"
	   x2="500"
	   y1="-288.6751346"
	   x1="500" />
	<line
	   id="line2-2"
	   y2="-433.0127019"
	   x2="250"
	   y1="-288.6751346"
	   x1="500" />
	<line
	   id="line2-3"
	   y2="-433.0127019"
	   x2="750"
	   y1="-288.6751346"
	   x1="500" />
	<text
	   x="440"
	   y="-500"
	   id="up_2">34.4%</text>
	<text
	   x="250"
	   y="-150"
	   id="down_left_2">34.0%</text>
	<text
	   x="630"
	   y="-150"
	   id="down_right_2">31.6%</text>
  </g>
  <g id="fig3" transform="translate(550,1000)">
	<polygon points="0.0,-0.0 1000.0,-0.0 500.0,-866.0254038" />
	<polygon id="triangle3b" points="250,-144.3375673 750,-144.3375673 500,-577.3502692" />
	<line
	   id="line3-1"
	   x1="125"
	   y1="-216.5063509"
	   x2="250"
	   y2="-144.3375673" />
	<line
	   id="line3-2"
	   x1="375"
	   y1="-649.5190528"
	   x2="500"
	   y2="-577.3502692" />
	<line
	   id="line3-3"
	   x1="625"
	   y1="-649.5190528"
	   x2="500"
	   y2="-577.3502692" />
	<line
	   id="line3-4"
	   x1="875"
	   y1="-216.5063509"
	   x2="750"
	   y2="-144.3375673" />
	<line
	   id="line3-5"
	   x1="750"
	   y1="-0.0"
	   x2="750"
	   y2="-144.3375673" />
	<line
	   id="line3-6"
	   x1="250"
	   y1="-0.0"
	   x2="250"
	   y2="-144.3375673" />
	<text
	   x="500"
	   y="-660"
	   text-anchor="middle"
	   id="up_3">32.0%</text>
	<text
	   y="-50"
	   x="70"
	   id="down_left_3">31.0%</text>
	<text
	   y="-50"
	   x="770"
	   id="down_right_3">28.8%</text>
	<text
	   x="500"
	   y="-50"
	   text-anchor="middle"
	   id="down_side_3">1.2%</text>
	<text
	   x="500"
	   y="-280"
	   text-anchor="middle"
	   id="center_3">5.4%</text>
	<text
	   x="685.0"
	   y="-390.8439"
	   text-anchor="middle"
	   transform="rotate(60,665.0,-380.8439)"
	   id="right_side_3">1.0%</text>
	<text
	   x="315.0"
	   y="-390.8439"
	   text-anchor="middle"
	   transform="rotate(-60,335.0,-380.8439)"
	   id="left_side_3">0.6%</text>
  </g>
</g></g>
</svg>
