<?xml version="1.0" encoding="UTF-8" standalone="no"?>
<!DOCTYPE svg PUBLIC "-//W3C//DTD SVG 1.1//EN" "http://www.w3.org/Graphics/SVG/1.1/DTD/svg11.dtd">
<svg
   xmlns:svg="http://www.w3.org/2000/svg"
   xmlns="http://www.w3.org/2000/svg"
   xmlns:xlink="http://www.w3.org/1999/xlink"
   version="1.1"
   baseProfile="full"
   id="body"
   width="800px"
   height="800px"
   viewBox="0 0 1000 1000"
   preserveAspectRatio="none">
  <defs>
    <style type="text/css"><![CDATA[
      circle{ stroke: none; }
      polygon{ stroke: black; stroke-width: 2px; fill: none; }
      line{ stroke: black; stroke-width: 2px; }
      text{ font-size:50px; }
    ]]></style>
  </defs>
  <title
     id="title1">SVG drawing</title>
<g transform="scale(0.45)"><g transform="translate(600,1050)">
  <g id="fig1">
	<polygon points="0.0,-0.0 1000.0,-0.0 500,-866.0254038" />
	<circle cx="500.0000013489" cy="-866.0251400787" r="2" />
	<circle cx="499.9995183438" cy="-864.4343763786" r="2" />
	<circle cx="500.0000000000" cy="-866.0254038000" r="2" />
	<circle cx="281.2380963807" cy="-103.1729671213" r="2" />
	<circle cx="0.0000401139" cy="-0.0000693379" r="2" />
	<circle cx="943.5992538838" cy="-32.5728228380" r="2" />
	<circle cx="485.0632921362" cy="-244.5157448295" r="2" />
	<circle cx="645.9323899702" cy="-204.0916143559" r="2" />
	<circle cx="487.3663938350" cy="-813.5568909869" r="2" />
	<circle cx="985.4546544703" cy="-8.3969549137" r="2" />
	<circle cx="1.6142780097" cy="-0.9599374848" r="2" />
	<circle cx="500.0000000000" cy="-866.0254038000" r="2" />
	<circle cx="86.2381925888" cy="-49.9401490551" r="2" />
	<circle cx="676.6698265888" cy="-139.9036767980" r="2" />
	<circle cx="448.6446634683" cy="-246.0079519570" r="2" />
	<circle cx="499.9999986908" cy="-866.0253446969" r="2" />
	<circle cx="0.0000000000" cy="-0.0000000000" r="2" />
	<circle cx="419.7498982405" cy="-240.2156392361" r="2" />
	<circle cx="448.1457558593" cy="-258.7000872299" r="2" />
	<circle cx="1000.0000000000" cy="-0.0000000000" r="2" />
	<circle cx="500.0000000000" cy="-866.0254037937" r="2" />
	<circle cx="499.8007794885" cy="-288.6298799295" r="2" />
	<circle cx="0.0000000000" cy="-0.0000000000" r="2" />
	<circle cx="500.0000000000" cy="-866.0254038000" r="2" />
	<circle cx="999.4513903058" cy="-0.1491977686" r="2" />
	<circle cx="0.0000000000" cy="-0.0000000000" r="2" />
	<circle cx="499.9720343241" cy="-861.6853696330" r="2" />
	<circle cx="401.9300975373" cy="-153.7659900239" r="2" />
	<circle cx="500.3240494955" cy="-288.8650714750" r="2" />
	<circle cx="0.0000000000" cy="-0.0000000000" r="2" />
	<circle cx="186.9746970196" cy="-122.1035869555" r="2" />
	<circle cx="4.0776581526" cy="-3.2968055720" r="2" />
	<circle cx="0.0106964422" cy="-0.0078750763" r="2" />
	<circle cx="999.9999687124" cy="-0.0000180481" r="2" />
	<circle cx="0.0000000000" cy="-0.0000000000" r="2" />
	<circle cx="1000.0000000000" cy="-0.0000000000" r="2" />
	<circle cx="482.9543692962" cy="-254.6452436461" r="2" />
	<circle cx="6.9134462703" cy="-4.3512492754" r="2" />
	<circle cx="1000.0000000000" cy="-0.0000000000" r="2" />
	<circle cx="0.0000000000" cy="-0.0000000000" r="2" />
	<circle cx="40.8314058395" cy="-22.2850002688" r="2" />
	<circle cx="889.4287258602" cy="-64.4712751998" r="2" />
	<circle cx="814.2975271787" cy="-107.2310690149" r="2" />
	<circle cx="0.0000000000" cy="-0.0000000000" r="2" />
	<circle cx="523.3092945071" cy="-471.2703124575" r="2" />
	<circle cx="500.0000000000" cy="-866.0254038000" r="2" />
	<circle cx="496.2226531335" cy="-307.3319887168" r="2" />
	<circle cx="500.0000000001" cy="-866.0254037997" r="2" />
	<circle cx="499.9440877317" cy="-288.8082464721" r="2" />
	<circle cx="499.8425586575" cy="-288.7058588852" r="2" />
	<circle cx="0.0006461466" cy="-0.0003646316" r="2" />
	<circle cx="0.0000000000" cy="-0.0000000000" r="2" />
	<circle cx="523.4709600398" cy="-411.3214930104" r="2" />
	<circle cx="859.4680065847" cy="-81.1574895368" r="2" />
	<circle cx="499.9916838338" cy="-865.9436719679" r="2" />
	<circle cx="499.9944487571" cy="-795.6065334691" r="2" />
	<circle cx="500.0000000000" cy="-866.0254038000" r="2" />
	<circle cx="431.5261974620" cy="-82.2769693740" r="2" />
	<circle cx="500.0000000000" cy="-866.0254038000" r="2" />
	<circle cx="0.0000000000" cy="-0.0000000000" r="2" />
	<circle cx="999.9999790107" cy="-0.0000121134" r="2" />
	<circle cx="500.0179390593" cy="-808.6594784328" r="2" />
	<circle cx="500.0245216747" cy="-544.4325471684" r="2" />
	<circle cx="103.0068178857" cy="-108.7556223296" r="2" />
	<circle cx="500.0000000000" cy="-866.0254038000" r="2" />
	<circle cx="1000.0000000000" cy="-0.0000000000" r="2" />
	<circle cx="506.9336604506" cy="-284.9373530949" r="2" />
	<circle cx="500.0000000000" cy="-866.0254038000" r="2" />
	<circle cx="496.8516803650" cy="-813.3484613980" r="2" />
	<circle cx="499.9897457651" cy="-586.6499634824" r="2" />
	<circle cx="353.5245671943" cy="-177.1999129010" r="2" />
	<circle cx="217.5450193003" cy="-76.5999035246" r="2" />
	<circle cx="495.7344765544" cy="-652.9065579550" r="2" />
	<circle cx="500.0000000000" cy="-866.0254038000" r="2" />
	<circle cx="523.7759418899" cy="-346.6499610980" r="2" />
	<circle cx="515.6795598541" cy="-277.9020249750" r="2" />
	<circle cx="999.9979700041" cy="-0.0021472308" r="2" />
	<circle cx="499.9519146591" cy="-482.4811250463" r="2" />
	<circle cx="500.0000000000" cy="-866.0254038000" r="2" />
	<circle cx="1000.0000000000" cy="-0.0000000000" r="2" />
	<circle cx="999.9999999997" cy="-0.0000000002" r="2" />
	<circle cx="492.1339927984" cy="-170.2011316059" r="2" />
	<circle cx="0.0000000000" cy="-0.0000000000" r="2" />
	<circle cx="862.8739727523" cy="-128.4256322575" r="2" />
	<circle cx="825.4594117898" cy="-172.7973376713" r="2" />
	<circle cx="446.9553977876" cy="-191.2486389005" r="2" />
	<circle cx="3.8348892228" cy="-2.2136524310" r="2" />
	<circle cx="500.0000000000" cy="-866.0254037999" r="2" />
	<circle cx="999.9999999998" cy="-0.0000000001" r="2" />
	<circle cx="500.0016802069" cy="-866.0185352354" r="2" />
	<circle cx="507.4871161735" cy="-822.1647074717" r="2" />
	<circle cx="275.8747225044" cy="-328.7170342803" r="2" />
	<circle cx="500.0000000000" cy="-866.0254038000" r="2" />
	<circle cx="17.3327325033" cy="-17.7780117507" r="2" />
	<circle cx="500.1057758287" cy="-470.7266240730" r="2" />
	<circle cx="887.8477846657" cy="-64.7703267043" r="2" />
	<circle cx="865.4376599699" cy="-80.5365617434" r="2" />
	<circle cx="499.9857112943" cy="-540.1990985461" r="2" />
	<circle cx="0.0000000000" cy="-0.0000000000" r="2" />
	<circle cx="1000.0000000000" cy="-0.0000000000" r="2" />
	<circle cx="488.3012389153" cy="-285.0146481036" r="2" />
	<circle cx="418.8720040947" cy="-259.6791590497" r="2" />
	<circle cx="1000.0000000000" cy="-0.0000000000" r="2" />
	<circle cx="80.4885427847" cy="-60.2867729576" r="2" />
	<circle cx="500.0997534082" cy="-288.7106672000" r="2" />
	<circle cx="501.6834689237" cy="-860.7833692090" r="2" />
	<circle cx="999.9981580379" cy="-0.0011708989" r="2" />
	<circle cx="1000.0000000000" cy="-0.0000000000" r="2" />
	<circle cx="0.0000014381" cy="-0.0000008301" r="2" />
	<circle cx="0.0000000000" cy="-0.0000000000" r="2" />
	<circle cx="1000.0000000000" cy="-0.0000000000" r="2" />
	<circle cx="0.0000000000" cy="-0.0000000000" r="2" />
	<circle cx="0.0000000000" cy="-0.0000000000" r="2" />
	<circle cx="999.6197662572" cy="-0.2197564868" r="2" />
	<circle cx="554.5500864168" cy="-352.9233392678" r="2" />
	<circle cx="172.3246054092" cy="-84.7970595176" r="2" />
	<circle cx="525.9780728566" cy="-273.6745551050" r="2" />
	<circle cx="508.3492128152" cy="-271.8257907280" r="2" />
	<circle cx="500.0000000000" cy="-866.0254038000" r="2" />
	<circle cx="1000.0000000000" cy="-0.0000000000" r="2" />
	<circle cx="1000.0000000000" cy="-0.0000000000" r="2" />
	<circle cx="438.6617133578" cy="-253.3655558228" r="2" />
	<circle cx="624.4144617692" cy="-493.8207277719" r="2" />
	<circle cx="500.0016795958" cy="-866.0185377220" r="2" />
	<circle cx="1000.0000000000" cy="-0.0000000000" r="2" />
	<circle cx="500.0000000000" cy="-866.0254031388" r="2" />
	<circle cx="5.9936342260" cy="-3.1204887097" r="2" />
	<circle cx="500.0000000000" cy="-866.0254038000" r="2" />
	<circle cx="1000.0000000000" cy="-0.0000000000" r="2" />
	<circle cx="500.0000000000" cy="-866.0254038000" r="2" />
	<circle cx="500.0000000000" cy="-866.0254038000" r="2" />
	<circle cx="0.0000000000" cy="-0.0000000000" r="2" />
	<circle cx="1000.0000000000" cy="-0.0000000000" r="2" />
	<circle cx="500.0000000000" cy="-866.0254038000" r="2" />
	<circle cx="1000.0000000000" cy="-0.0000000000" r="2" />
	<circle cx="500.0000000000" cy="-866.0254037965" r="2" />
	<circle cx="0.0000000000" cy="-0.0000000000" r="2" />
	<circle cx="946.5739113345" cy="-30.8535509859" r="2" />
	<circle cx="1000.0000000000" cy="-0.0000000000" r="2" />
	<circle cx="29.3697161870" cy="-17.5054592684" r="2" />
	<circle cx="500.0000000000" cy="-866.0254038000" r="2" />
	<circle cx="814.2564935822" cy="-155.1477185271" r="2" />
	<circle cx="500.0000000000" cy="-866.0254038000" r="2" />
	<circle cx="581.3204506481" cy="-241.5253340001" r="2" />
	<circle cx="591.0895181769" cy="-236.0243187386" r="2" />
	<circle cx="0.0000000000" cy="-0.0000000000" r="2" />
	<circle cx="999.9999999999" cy="-0.0000000000" r="2" />
	<circle cx="0.0000000000" cy="-0.0000000000" r="2" />
	<circle cx="499.8416702557" cy="-288.5921910774" r="2" />
	<circle cx="500.0000000000" cy="-866.0254038000" r="2" />
	<circle cx="1000.0000000000" cy="-0.0000000000" r="2" />
	<circle cx="1000.0000000000" cy="-0.0000000000" r="2" />
	<circle cx="499.8438272237" cy="-496.0706803146" r="2" />
	<circle cx="0.0000000000" cy="-0.0000000000" r="2" />
	<circle cx="0.0000000000" cy="-0.0000000000" r="2" />
	<circle cx="586.0183848660" cy="-275.3970361935" r="2" />
	<circle cx="1000.0000000000" cy="-0.0000000000" r="2" />
	<circle cx="0.0000000000" cy="-0.0000000000" r="2" />
	<circle cx="999.9999999993" cy="-0.0000000003" r="2" />
	<circle cx="496.6626679340" cy="-390.7062068663" r="2" />
	<circle cx="434.9752331629" cy="-379.7616208755" r="2" />
	<circle cx="0.1082882298" cy="-0.0541371549" r="2" />
	<circle cx="0.0000000000" cy="-0.0000000000" r="2" />
	<circle cx="956.6313625180" cy="-25.5082891008" r="2" />
	<circle cx="500.0030329883" cy="-865.9958164251" r="2" />
	<circle cx="0.0000000000" cy="-0.0000000000" r="2" />
	<circle cx="0.2164245666" cy="-0.0848452416" r="2" />
	<circle cx="500.4465327159" cy="-862.7676376403" r="2" />
	<circle cx="31.9459416465" cy="-18.4406652633" r="2" />
	<circle cx="1.4102861180" cy="-0.8140602771" r="2" />
	<circle cx="164.3677293751" cy="-86.9796852279" r="2" />
	<circle cx="614.4474015486" cy="-222.4171175465" r="2" />
	<circle cx="1000.0000000000" cy="-0.0000000000" r="2" />
	<circle cx="997.9749782055" cy="-1.1691004301" r="2" />
	<circle cx="995.6953447862" cy="-2.4900265018" r="2" />
	<circle cx="232.6316918265" cy="-168.2476941370" r="2" />
	<circle cx="366.2074581106" cy="-211.3787130410" r="2" />
	<circle cx="500.0000000000" cy="-866.0254038000" r="2" />
	<circle cx="1.1971777368" cy="-0.6654477726" r="2" />
	<circle cx="1000.0000000000" cy="-0.0000000000" r="2" />
	<circle cx="498.1109077713" cy="-755.8249833709" r="2" />
	<circle cx="499.8798741103" cy="-864.9148277260" r="2" />
	<circle cx="500.0000000000" cy="-866.0254038000" r="2" />
	<circle cx="500.0000000000" cy="-866.0254038000" r="2" />
	<circle cx="1000.0000000000" cy="-0.0000000000" r="2" />
	<circle cx="500.1700654447" cy="-288.8024197093" r="2" />
	<circle cx="54.0162722147" cy="-29.0491916833" r="2" />
	<circle cx="500.0000000000" cy="-866.0254035920" r="2" />
	<circle cx="997.6792692201" cy="-1.3401213669" r="2" />
	<circle cx="261.3050121029" cy="-137.0633037636" r="2" />
	<circle cx="13.1022488154" cy="-7.5643741482" r="2" />
	<circle cx="500.0000000000" cy="-866.0254038000" r="2" />
	<circle cx="401.9041629471" cy="-296.5187579686" r="2" />
	<circle cx="999.9999999987" cy="-0.0000000008" r="2" />
	<circle cx="608.4216076271" cy="-218.5646170977" r="2" />
	<circle cx="0.0000000000" cy="-0.0000000000" r="2" />
	<circle cx="374.9456222910" cy="-265.5038906606" r="2" />
	<circle cx="999.9999999941" cy="-0.0000000034" r="2" />
	<circle cx="0.0000000000" cy="-0.0000000000" r="2" />
	<circle cx="0.0000000000" cy="-0.0000000000" r="2" />
	<circle cx="0.0000000000" cy="-0.0000000000" r="2" />
	<circle cx="549.1032792792" cy="-260.3478050227" r="2" />
	<circle cx="500.0000000000" cy="-866.0254038000" r="2" />
	<circle cx="0.0000000000" cy="-0.0000000000" r="2" />
	<circle cx="500.0000000000" cy="-866.0254038000" r="2" />
	<circle cx="999.9999999996" cy="-0.0000000002" r="2" />
	<circle cx="500.0000000000" cy="-866.0254038000" r="2" />
	<circle cx="500.0801197556" cy="-288.6721961736" r="2" />
	<circle cx="1000.0000000000" cy="-0.0000000000" r="2" />
	<circle cx="1000.0000000000" cy="-0.0000000000" r="2" />
	<circle cx="548.6488196552" cy="-394.5457267794" r="2" />
	<circle cx="505.7335433775" cy="-670.1477974754" r="2" />
	<circle cx="499.9999999997" cy="-866.0254017115" r="2" />
	<circle cx="497.6304786602" cy="-338.0916634081" r="2" />
	<circle cx="1000.0000000000" cy="-0.0000000000" r="2" />
	<circle cx="669.2195388498" cy="-176.5722408268" r="2" />
	<circle cx="604.3861094812" cy="-228.2728863947" r="2" />
	<circle cx="0.0000000000" cy="-0.0000000000" r="2" />
	<circle cx="592.8005808283" cy="-342.1594679206" r="2" />
	<circle cx="0.0000000000" cy="-0.0000000000" r="2" />
	<circle cx="900.3343667547" cy="-57.5203370467" r="2" />
	<circle cx="149.3717154015" cy="-89.4215328460" r="2" />
	<circle cx="589.3983974304" cy="-236.8851708404" r="2" />
	<circle cx="282.6946500339" cy="-165.8626348912" r="2" />
	<circle cx="1000.0000000000" cy="-0.0000000000" r="2" />
	<circle cx="999.9999999671" cy="-0.0000000202" r="2" />
	<circle cx="210.4757316359" cy="-121.5457523620" r="2" />
	<circle cx="923.1057963059" cy="-44.3893436103" r="2" />
	<circle cx="683.1570528662" cy="-192.9654524672" r="2" />
	<circle cx="480.2566396224" cy="-235.7346429706" r="2" />
	<circle cx="136.6523608606" cy="-78.9184918788" r="2" />
	<circle cx="507.3041937863" cy="-284.5431135028" r="2" />
	<circle cx="0.0000000000" cy="-0.0000000000" r="2" />
	<circle cx="1000.0000000000" cy="-0.0000000000" r="2" />
	<circle cx="999.9999999945" cy="-0.0000000032" r="2" />
	<circle cx="0.0000000000" cy="-0.0000000000" r="2" />
	<circle cx="497.7154967084" cy="-287.1717183409" r="2" />
	<circle cx="608.3184478852" cy="-226.9184276698" r="2" />
	<circle cx="1000.0000000000" cy="-0.0000000000" r="2" />
	<circle cx="0.0000000000" cy="-0.0000000000" r="2" />
	<circle cx="293.7595568208" cy="-151.8512673136" r="2" />
	<circle cx="1000.0000000000" cy="-0.0000000000" r="2" />
	<circle cx="503.2263716491" cy="-437.2394877842" r="2" />
	<circle cx="500.0000001019" cy="-866.0243464153" r="2" />
	<circle cx="999.7618789687" cy="-0.4107449928" r="2" />
	<circle cx="0.0000000000" cy="-0.0000000000" r="2" />
	<circle cx="999.5708522639" cy="-0.0194119703" r="2" />
	<circle cx="500.0000000000" cy="-866.0254038000" r="2" />
	<circle cx="88.9423097748" cy="-60.6827726985" r="2" />
	<circle cx="0.0000000000" cy="-0.0000000000" r="2" />
	<circle cx="500.0000000000" cy="-866.0254038000" r="2" />
	<circle cx="0.0000000043" cy="-0.0000000025" r="2" />
	<circle cx="780.8219664986" cy="-71.8412677097" r="2" />
	<circle cx="500.0000000000" cy="-866.0254038000" r="2" />
	<circle cx="462.1959726969" cy="-600.6653815529" r="2" />
	<circle cx="500.0000000000" cy="-866.0254038000" r="2" />
	<circle cx="999.9999999999" cy="-0.0000000001" r="2" />
	<circle cx="0.0000000000" cy="-0.0000000000" r="2" />
	<circle cx="500.1151089513" cy="-865.2127414075" r="2" />
	<circle cx="440.5894794252" cy="-265.3976026679" r="2" />
	<circle cx="0.0000425111" cy="-0.0000197354" r="2" />
	<circle cx="499.9526824869" cy="-288.6702564298" r="2" />
	<circle cx="1000.0000000000" cy="-0.0000000000" r="2" />
	<circle cx="999.9999999995" cy="-0.0000000003" r="2" />
	<circle cx="500.0000000000" cy="-866.0254038000" r="2" />
	<circle cx="998.3622338063" cy="-0.9176070925" r="2" />
	<circle cx="500.0000000009" cy="-866.0254018303" r="2" />
	<circle cx="486.0161904092" cy="-670.7997573656" r="2" />
	<circle cx="0.0000000000" cy="-0.0000000000" r="2" />
	<circle cx="17.3752565664" cy="-10.0287144946" r="2" />
	<circle cx="1000.0000000000" cy="-0.0000000000" r="2" />
	<circle cx="101.7706152679" cy="-88.1776445493" r="2" />
	<circle cx="500.0000000000" cy="-866.0254037989" r="2" />
	<circle cx="0.0000000000" cy="-0.0000000000" r="2" />
	<circle cx="500.0000000000" cy="-866.0254038000" r="2" />
	<circle cx="800.7918306456" cy="-100.7501966240" r="2" />
	<circle cx="0.0000000000" cy="-0.0000000000" r="2" />
	<circle cx="1000.0000000000" cy="-0.0000000000" r="2" />
	<circle cx="825.7329734740" cy="-84.7239002285" r="2" />
	<circle cx="500.0000000000" cy="-866.0254038000" r="2" />
	<circle cx="999.9999687150" cy="-0.0000180758" r="2" />
	<circle cx="524.7072999434" cy="-365.5747069088" r="2" />
	<circle cx="536.7647415054" cy="-577.3418159539" r="2" />
	<circle cx="0.0000000000" cy="-0.0000000000" r="2" />
	<circle cx="500.0000000000" cy="-866.0254038000" r="2" />
	<circle cx="992.0707207912" cy="-4.6563514676" r="2" />
	<circle cx="999.9999975974" cy="-0.0000013990" r="2" />
	<circle cx="989.9191565803" cy="-2.7958696720" r="2" />
	<circle cx="0.0000000000" cy="-0.0000000000" r="2" />
	<circle cx="1000.0000000000" cy="-0.0000000000" r="2" />
	<circle cx="498.3904583114" cy="-495.4445608352" r="2" />
	<circle cx="0.0000000000" cy="-0.0000000000" r="2" />
	<circle cx="1000.0000000000" cy="-0.0000000000" r="2" />
	<circle cx="500.0000000000" cy="-866.0254038000" r="2" />
	<circle cx="0.0000000000" cy="-0.0000000000" r="2" />
	<circle cx="1000.0000000000" cy="-0.0000000000" r="2" />
	<circle cx="1000.0000000000" cy="-0.0000000000" r="2" />
	<circle cx="755.8667754415" cy="-302.7225768451" r="2" />
	<circle cx="532.5001223698" cy="-431.5883873289" r="2" />
	<circle cx="1000.0000000000" cy="-0.0000000000" r="2" />
	<circle cx="1000.0000000000" cy="-0.0000000000" r="2" />
	<circle cx="979.3218277661" cy="-11.9391933273" r="2" />
	<circle cx="530.0800632292" cy="-177.9845306364" r="2" />
	<circle cx="1000.0000000000" cy="-0.0000000000" r="2" />
	<circle cx="0.0000399957" cy="-0.0000230999" r="2" />
	<circle cx="1000.0000000000" cy="-0.0000000000" r="2" />
	<circle cx="1000.0000000000" cy="-0.0000000000" r="2" />
	<circle cx="0.0702521942" cy="-0.0557679015" r="2" />
	<circle cx="497.4416914097" cy="-287.2559765882" r="2" />
	<circle cx="187.5687468510" cy="-108.9971669200" r="2" />
	<circle cx="683.9984559041" cy="-186.9597212725" r="2" />
	<circle cx="525.5707982820" cy="-483.7298171328" r="2" />
	<circle cx="0.0078198369" cy="-0.0045129750" r="2" />
	<circle cx="500.0000000000" cy="-866.0254038000" r="2" />
	<circle cx="23.1666419968" cy="-7.5909725164" r="2" />
	<circle cx="618.3353441860" cy="-220.3729034966" r="2" />
	<circle cx="537.8041941700" cy="-97.6305347048" r="2" />
	<circle cx="3.0631798781" cy="-1.9628088443" r="2" />
	<circle cx="0.0000000123" cy="-0.0000000066" r="2" />
	<circle cx="500.0000000000" cy="-866.0254038000" r="2" />
	<circle cx="1000.0000000000" cy="-0.0000000000" r="2" />
	<circle cx="0.0000000000" cy="-0.0000000000" r="2" />
	<circle cx="0.7723805407" cy="-0.4243914640" r="2" />
	<circle cx="369.9887878419" cy="-266.3866415793" r="2" />
	<circle cx="1000.0000000000" cy="-0.0000000000" r="2" />
	<circle cx="1000.0000000000" cy="-0.0000000000" r="2" />
	<circle cx="330.7789025275" cy="-176.5695711135" r="2" />
	<circle cx="500.0000000000" cy="-866.0254038000" r="2" />
	<circle cx="446.6095676980" cy="-257.7543535732" r="2" />
	<circle cx="390.8653902507" cy="-225.9356544648" r="2" />
	<circle cx="0.0000000000" cy="-0.0000000000" r="2" />
	<circle cx="999.9933671757" cy="-0.0041252682" r="2" />
	<circle cx="500.0000000000" cy="-866.0254038000" r="2" />
	<circle cx="0.0000000000" cy="-0.0000000000" r="2" />
	<circle cx="351.1283464996" cy="-203.5872669544" r="2" />
	<circle cx="543.8424407329" cy="-264.3595796046" r="2" />
	<circle cx="549.1231123690" cy="-241.5294956904" r="2" />
	<circle cx="0.0000000000" cy="-0.0000000000" r="2" />
	<circle cx="823.0105923747" cy="-96.5767768495" r="2" />
	<circle cx="457.9337209527" cy="-207.0530302011" r="2" />
	<circle cx="999.9999515702" cy="-0.0000279554" r="2" />
	<circle cx="63.1891963129" cy="-36.4737393321" r="2" />
	<circle cx="807.5586676047" cy="-111.3176037995" r="2" />
	<circle cx="499.9999618204" cy="-866.0251145960" r="2" />
	<circle cx="499.8231863255" cy="-321.3186950414" r="2" />
	<circle cx="500.0002396351" cy="-857.4785986760" r="2" />
	<circle cx="999.9978291059" cy="-0.0000008644" r="2" />
	<circle cx="811.8089020822" cy="-107.9368371475" r="2" />
	<circle cx="502.5655942986" cy="-287.2642693206" r="2" />
	<circle cx="216.4197338558" cy="-124.9481698796" r="2" />
	<circle cx="499.9999999973" cy="-866.0253925131" r="2" />
	<circle cx="0.0000312820" cy="-0.0000180758" r="2" />
	<circle cx="500.1574672089" cy="-288.7864854194" r="2" />
	<circle cx="1000.0000000000" cy="-0.0000000000" r="2" />
	<circle cx="1000.0000000000" cy="-0.0000000000" r="2" />
	<circle cx="1000.0000000000" cy="-0.0000000000" r="2" />
	<circle cx="431.2665507338" cy="-82.3120239381" r="2" />
	<circle cx="500.0000000000" cy="-866.0254038000" r="2" />
	<circle cx="500.0000000000" cy="-866.0254038000" r="2" />
	<circle cx="999.9999992005" cy="-0.0000004295" r="2" />
	<circle cx="499.8852440798" cy="-529.5036387146" r="2" />
	<circle cx="500.0000000000" cy="-866.0254038000" r="2" />
	<circle cx="8.8910277326" cy="-5.1318928031" r="2" />
	<circle cx="425.3201620045" cy="-300.3727456775" r="2" />
	<circle cx="495.6074279785" cy="-286.1031845610" r="2" />
	<circle cx="0.0000000000" cy="-0.0000000000" r="2" />
	<circle cx="0.0000000000" cy="-0.0000000000" r="2" />
	<circle cx="458.1031111335" cy="-438.9366530917" r="2" />
	<circle cx="1000.0000000000" cy="-0.0000000000" r="2" />
	<circle cx="1000.0000000000" cy="-0.0000000000" r="2" />
	<circle cx="0.0000000000" cy="-0.0000000000" r="2" />
	<circle cx="507.1584478272" cy="-274.9822583081" r="2" />
	<circle cx="500.0000000000" cy="-866.0254038000" r="2" />
	<circle cx="0.0000000000" cy="-0.0000000000" r="2" />
	<circle cx="411.9000008026" cy="-204.4802754685" r="2" />
	<circle cx="285.6736983408" cy="-197.1336280686" r="2" />
	<circle cx="999.9895490252" cy="-0.0076545944" r="2" />
	<circle cx="536.7293409621" cy="-577.6242040164" r="2" />
	<circle cx="0.0000000000" cy="-0.0000000000" r="2" />
	<circle cx="3.3928126588" cy="-1.9582323266" r="2" />
	<circle cx="660.8866800476" cy="-369.9676377851" r="2" />
	<circle cx="444.2160376842" cy="-723.0150804742" r="2" />
	<circle cx="500.0000000000" cy="-866.0254038000" r="2" />
	<circle cx="1000.0000000000" cy="-0.0000000000" r="2" />
	<circle cx="500.0000000000" cy="-866.0254038000" r="2" />
	<circle cx="404.3248329296" cy="-248.9554043230" r="2" />
	<circle cx="1000.0000000000" cy="-0.0000000000" r="2" />
	<circle cx="1000.0000000000" cy="-0.0000000000" r="2" />
	<circle cx="999.9999996606" cy="-0.0000001959" r="2" />
	<circle cx="500.0000000000" cy="-866.0254038000" r="2" />
	<circle cx="0.0000000000" cy="-0.0000000000" r="2" />
	<circle cx="0.0000000000" cy="-0.0000000000" r="2" />
	<circle cx="691.4279760392" cy="-178.1622890854" r="2" />
	<circle cx="500.0000000000" cy="-866.0254038000" r="2" />
	<circle cx="989.3087120225" cy="-7.0845879043" r="2" />
	<circle cx="0.0000000000" cy="-0.0000000000" r="2" />
	<circle cx="500.0000000000" cy="-866.0254038000" r="2" />
	<circle cx="512.1836648856" cy="-281.2918968679" r="2" />
	<circle cx="456.1932974869" cy="-263.8551624445" r="2" />
	<circle cx="1000.0000000000" cy="-0.0000000000" r="2" />
	<circle cx="1000.0000000000" cy="-0.0000000000" r="2" />
	<circle cx="999.9999791422" cy="-0.0000120369" r="2" />
	<circle cx="500.0000000000" cy="-866.0254038000" r="2" />
	<circle cx="1000.0000000000" cy="-0.0000000000" r="2" />
	<circle cx="0.0000004463" cy="-0.0000002083" r="2" />
	<circle cx="999.9999974391" cy="-0.0000014776" r="2" />
	<circle cx="0.1018484445" cy="-0.0384067371" r="2" />
	<circle cx="1000.0000000000" cy="-0.0000000000" r="2" />
	<circle cx="469.5112714396" cy="-228.2528701002" r="2" />
	<circle cx="997.7943830422" cy="-1.2500909795" r="2" />
	<circle cx="0.7262166192" cy="-0.4193776611" r="2" />
	<circle cx="0.0000000000" cy="-0.0000000000" r="2" />
	<circle cx="0.0000002870" cy="-0.0000001657" r="2" />
	<circle cx="500.0000000000" cy="-866.0254038000" r="2" />
	<circle cx="0.0000000000" cy="-0.0000000000" r="2" />
	<circle cx="500.0000000000" cy="-866.0254038000" r="2" />
	<circle cx="999.9997722481" cy="-0.0001315249" r="2" />
	<circle cx="500.0000000000" cy="-866.0254038000" r="2" />
	<circle cx="999.9815262913" cy="-0.0110195126" r="2" />
	<circle cx="0.0000000000" cy="-0.0000000000" r="2" />
	<circle cx="161.1683989371" cy="-93.0357179793" r="2" />
	<circle cx="1000.0000000000" cy="-0.0000000000" r="2" />
	<circle cx="499.9999999755" cy="-866.0254036341" r="2" />
	<circle cx="0.0000000000" cy="-0.0000000000" r="2" />
	<circle cx="0.0000000000" cy="-0.0000000000" r="2" />
	<circle cx="1000.0000000000" cy="-0.0000000000" r="2" />
	<circle cx="499.9965203742" cy="-844.2473087365" r="2" />
	<circle cx="1000.0000000000" cy="-0.0000000000" r="2" />
	<circle cx="500.0000000000" cy="-866.0254038000" r="2" />
	<circle cx="531.4330317252" cy="-256.1132872004" r="2" />
	<circle cx="1000.0000000000" cy="-0.0000000000" r="2" />
	<circle cx="1000.0000000000" cy="-0.0000000000" r="2" />
	<circle cx="499.9383427435" cy="-288.8059060124" r="2" />
	<circle cx="57.4301731563" cy="-17.5017245847" r="2" />
	<circle cx="517.7636985323" cy="-276.1543416310" r="2" />
	<circle cx="980.9972375766" cy="-10.9665570631" r="2" />
	<circle cx="549.8754805971" cy="-386.1363889205" r="2" />
	<circle cx="999.8772493662" cy="-0.0692474095" r="2" />
	<circle cx="0.0000007550" cy="-0.0000005687" r="2" />
	<circle cx="0.0000000000" cy="-0.0000000000" r="2" />
	<circle cx="500.0000000000" cy="-866.0254038000" r="2" />
	<circle cx="657.8159828739" cy="-267.5163858939" r="2" />
	<circle cx="3.0849445483" cy="-1.1832966210" r="2" />
	<circle cx="499.9938286033" cy="-288.6649643044" r="2" />
	<circle cx="0.0000000000" cy="-0.0000000000" r="2" />
	<circle cx="1.4389929207" cy="-0.8312017735" r="2" />
	<circle cx="1000.0000000000" cy="-0.0000000000" r="2" />
	<circle cx="1000.0000000000" cy="-0.0000000000" r="2" />
	<circle cx="1000.0000000000" cy="-0.0000000000" r="2" />
	<circle cx="0.0000000000" cy="-0.0000000000" r="2" />
	<circle cx="591.4510433088" cy="-293.2736106813" r="2" />
	<circle cx="529.4591258594" cy="-271.5757140641" r="2" />
	<circle cx="666.1287403312" cy="-221.7745049556" r="2" />
	<circle cx="500.0000000000" cy="-866.0254038000" r="2" />
	<circle cx="601.1899159474" cy="-245.7781115259" r="2" />
	<circle cx="500.0000000000" cy="-866.0254038000" r="2" />
	<circle cx="1000.0000000000" cy="-0.0000000000" r="2" />
	<circle cx="0.0000000000" cy="-0.0000000000" r="2" />
	<circle cx="359.7874170887" cy="-264.8703501358" r="2" />
	<circle cx="0.0000000981" cy="-0.0000000540" r="2" />
	<circle cx="1000.0000000000" cy="-0.0000000000" r="2" />
	<circle cx="0.0000000000" cy="-0.0000000000" r="2" />
	<circle cx="1000.0000000000" cy="-0.0000000001" r="2" />
	<circle cx="177.4910172261" cy="-102.4767171337" r="2" />
	<circle cx="415.1273896145" cy="-243.3243221174" r="2" />
	<circle cx="991.5884903234" cy="-4.3869051875" r="2" />
	<circle cx="343.2326553183" cy="-213.4761038322" r="2" />
	<circle cx="0.0000000000" cy="-0.0000000000" r="2" />
	<circle cx="999.9999981917" cy="-0.0000010445" r="2" />
	<circle cx="600.7856562311" cy="-594.8815786298" r="2" />
	<circle cx="500.0000000406" cy="-866.0254035156" r="2" />
	<circle cx="0.0492780970" cy="-0.0000007268" r="2" />
	<circle cx="492.2624294981" cy="-831.9154052159" r="2" />
	<circle cx="0.0000000000" cy="-0.0000000000" r="2" />
	<circle cx="1000.0000000000" cy="-0.0000000000" r="2" />
	<circle cx="99.9043582104" cy="-57.3909717747" r="2" />
	<circle cx="0.0000000000" cy="-0.0000000000" r="2" />
	<circle cx="0.0000000000" cy="-0.0000000000" r="2" />
	<circle cx="0.0000000000" cy="-0.0000000000" r="2" />
	<circle cx="499.9870643030" cy="-638.7938816489" r="2" />
	<circle cx="0.0000000000" cy="-0.0000000000" r="2" />
	<circle cx="1000.0000000000" cy="-0.0000000000" r="2" />
	<circle cx="1000.0000000000" cy="-0.0000000000" r="2" />
	<circle cx="0.0000000000" cy="-0.0000000000" r="2" />
	<circle cx="1.1163663978" cy="-0.2035602505" r="2" />
	<circle cx="0.2371747132" cy="-0.1435665192" r="2" />
	<circle cx="1000.0000000000" cy="-0.0000000000" r="2" />
	<circle cx="500.0000000000" cy="-866.0254038000" r="2" />
	<circle cx="499.9703296140" cy="-506.0399827036" r="2" />
	<circle cx="1000.0000000000" cy="-0.0000000000" r="2" />
	<circle cx="336.1589993136" cy="-175.6158069887" r="2" />
	<circle cx="999.9999997767" cy="-0.0000001208" r="2" />
	<circle cx="999.4179214174" cy="-0.3362671620" r="2" />
	<circle cx="551.6592347605" cy="-433.7214317741" r="2" />
	<circle cx="558.0074468301" cy="-383.1767097351" r="2" />
	<circle cx="500.0000000000" cy="-866.0254038000" r="2" />
	<circle cx="652.0711125907" cy="-201.0015388140" r="2" />
	<circle cx="761.9608288794" cy="-411.3262939041" r="2" />
	<circle cx="499.9999671043" cy="-865.0170752269" r="2" />
	<circle cx="1000.0000000000" cy="-0.0000000000" r="2" />
  </g>
  <g id="fig2" transform="translate(-550.0,1000)">
	<polygon points="0.0,-0.0 1000.0,-0.0 500.0,-866.0254038" />
	<line
	   id="line2-1"
	   y2="-0.0"
	   x2="500"
	   y1="-288.6751346"
	   x1="500" />
	<line
	   id="line2-2"
	   y2="-433.0127019"
	   x2="250"
	   y1="-288.6751346"
	   x1="500" />
	<line
	   id="line2-3"
	   y2="-433.0127019"
	   x2="750"
	   y1="-288.6751346"
	   x1="500" />
	<text
	   x="440"
	   y="-500"
	   id="up_2">27.2%</text>
	<text
	   x="250"
	   y="-150"
	   id="down_left_2">36.6%</text>
	<text
	   x="630"
	   y="-150"
	   id="down_right_2">36.2%</text>
  </g>
  <g id="fig3" transform="translate(550,1000)">
	<polygon points="0.0,-0.0 1000.0,-0.0 500.0,-866.0254038" />
	<polygon id="triangle3b" points="250,-144.3375673 750,-144.3375673 500,-577.3502692" />
	<line
	   id="line3-1"
	   x1="125"
	   y1="-216.5063509"
	   x2="250"
	   y2="-144.3375673" />
	<line
	   id="line3-2"
	   x1="375"
	   y1="-649.5190528"
	   x2="500"
	   y2="-577.3502692" />
	<line
	   id="line3-3"
	   x1="625"
	   y1="-649.5190528"
	   x2="500"
	   y2="-577.3502692" />
	<line
	   id="line3-4"
	   x1="875"
	   y1="-216.5063509"
	   x2="750"
	   y2="-144.3375673" />
	<line
	   id="line3-5"
	   x1="750"
	   y1="-0.0"
	   x2="750"
	   y2="-144.3375673" />
	<line
	   id="line3-6"
	   x1="250"
	   y1="-0.0"
	   x2="250"
	   y2="-144.3375673" />
	<text
	   x="500"
	   y="-660"
	   text-anchor="middle"
	   id="up_3">20.2%</text>
	<text
	   y="-50"
	   x="70"
	   id="down_left_3">26.8%</text>
	<text
	   y="-50"
	   x="770"
	   id="down_right_3">27.8%</text>
	<text
	   x="500"
	   y="-50"
	   text-anchor="middle"
	   id="down_side_3">1.2%</text>
	<text
	   x="500"
	   y="-280"
	   text-anchor="middle"
	   id="center_3">22.2%</text>
	<text
	   x="685.0"
	   y="-390.8439"
	   text-anchor="middle"
	   transform="rotate(60,665.0,-380.8439)"
	   id="right_side_3">1.4%</text>
	<text
	   x="315.0"
	   y="-390.8439"
	   text-anchor="middle"
	   transform="rotate(-60,335.0,-380.8439)"
	   id="left_side_3">0.4%</text>
  </g>
</g></g>
</svg>
