<?xml version="1.0" encoding="UTF-8" standalone="no"?>
<!DOCTYPE svg PUBLIC "-//W3C//DTD SVG 1.1//EN" "http://www.w3.org/Graphics/SVG/1.1/DTD/svg11.dtd">
<svg
   xmlns:svg="http://www.w3.org/2000/svg"
   xmlns="http://www.w3.org/2000/svg"
   xmlns:xlink="http://www.w3.org/1999/xlink"
   version="1.1"
   baseProfile="full"
   id="body"
   width="800px"
   height="800px"
   viewBox="0 0 1000 1000"
   preserveAspectRatio="none">
  <defs>
    <style type="text/css"><![CDATA[
      circle{ stroke: none; }
      polygon{ stroke: black; stroke-width: 2px; fill: none; }
      line{ stroke: black; stroke-width: 2px; }
      text{ font-size:50px; }
    ]]></style>
  </defs>
  <title
     id="title1">SVG drawing</title>
<g transform="scale(0.45)"><g transform="translate(600,1050)">
  <g id="fig1">
	<polygon points="0.0,-0.0 1000.0,-0.0 500,-866.0254038" />
	<circle cx="500.0000000000" cy="-866.0254038000" r="2" />
	<circle cx="500.0000000000" cy="-866.0254038000" r="2" />
	<circle cx="500.0000000000" cy="-866.0254037996" r="2" />
	<circle cx="1000.0000000000" cy="-0.0000000000" r="2" />
	<circle cx="999.9995733663" cy="-0.0002459389" r="2" />
	<circle cx="999.9992770654" cy="-0.0004185827" r="2" />
	<circle cx="503.1302630700" cy="-826.9332794394" r="2" />
	<circle cx="116.8574822756" cy="-67.4615430946" r="2" />
	<circle cx="0.0000000000" cy="-0.0000000000" r="2" />
	<circle cx="1000.0000000000" cy="-0.0000000000" r="2" />
	<circle cx="1000.0000000000" cy="-0.0000000000" r="2" />
	<circle cx="499.9434364724" cy="-288.8426343337" r="2" />
	<circle cx="500.0000000000" cy="-866.0254038000" r="2" />
	<circle cx="500.0000000001" cy="-866.0254037995" r="2" />
	<circle cx="533.8752142545" cy="-269.2147128914" r="2" />
	<circle cx="1000.0000000000" cy="-0.0000000000" r="2" />
	<circle cx="0.0000000000" cy="-0.0000000000" r="2" />
	<circle cx="500.0000000000" cy="-866.0254038000" r="2" />
	<circle cx="500.0000000000" cy="-866.0254037976" r="2" />
	<circle cx="387.3111790965" cy="-223.5227479446" r="2" />
	<circle cx="500.0001165949" cy="-865.9659081487" r="2" />
	<circle cx="500.0000000000" cy="-866.0254038000" r="2" />
	<circle cx="499.8734235332" cy="-301.5635391708" r="2" />
	<circle cx="0.0028311494" cy="-0.0016343497" r="2" />
	<circle cx="631.8181147196" cy="-212.4852655315" r="2" />
	<circle cx="495.8558937287" cy="-286.2606640307" r="2" />
	<circle cx="1000.0000000000" cy="-0.0000000000" r="2" />
	<circle cx="999.9999985330" cy="-0.0000009221" r="2" />
	<circle cx="0.0000000000" cy="-0.0000000000" r="2" />
	<circle cx="500.0000000000" cy="-866.0254037995" r="2" />
	<circle cx="500.0000000000" cy="-866.0254038000" r="2" />
	<circle cx="500.0000000000" cy="-866.0254038000" r="2" />
	<circle cx="0.0000000000" cy="-0.0000000000" r="2" />
	<circle cx="500.0000000000" cy="-866.0254038000" r="2" />
	<circle cx="1000.0000000000" cy="-0.0000000000" r="2" />
	<circle cx="998.0474631067" cy="-1.1279388763" r="2" />
	<circle cx="999.7520992259" cy="-0.1431980490" r="2" />
	<circle cx="1000.0000000000" cy="-0.0000000000" r="2" />
	<circle cx="424.4842201895" cy="-244.9821772187" r="2" />
	<circle cx="368.5997678036" cy="-234.8107760429" r="2" />
	<circle cx="386.2368005986" cy="-228.1792984159" r="2" />
	<circle cx="1000.0000000000" cy="-0.0000000000" r="2" />
	<circle cx="499.8132398930" cy="-288.6445912750" r="2" />
	<circle cx="836.6136425948" cy="-71.2639158791" r="2" />
	<circle cx="500.0269997397" cy="-288.6474548213" r="2" />
	<circle cx="999.8926070351" cy="-0.0622379267" r="2" />
	<circle cx="1000.0000000000" cy="-0.0000000000" r="2" />
	<circle cx="500.0000000000" cy="-866.0254037988" r="2" />
	<circle cx="763.9153178439" cy="-136.1998328317" r="2" />
	<circle cx="1000.0000000000" cy="-0.0000000000" r="2" />
	<circle cx="0.0000000474" cy="-0.0000000274" r="2" />
	<circle cx="500.0013883914" cy="-866.0203214601" r="2" />
	<circle cx="1000.0000000000" cy="-0.0000000000" r="2" />
	<circle cx="407.6698376952" cy="-331.3088584110" r="2" />
	<circle cx="1000.0000000000" cy="-0.0000000000" r="2" />
	<circle cx="661.1093265204" cy="-257.1118354824" r="2" />
	<circle cx="0.0000000000" cy="-0.0000000000" r="2" />
	<circle cx="0.0000000000" cy="-0.0000000000" r="2" />
	<circle cx="500.0000000000" cy="-866.0254038000" r="2" />
	<circle cx="499.9999925965" cy="-865.9892582505" r="2" />
	<circle cx="999.9995412425" cy="-0.0002979025" r="2" />
	<circle cx="476.7704237581" cy="-166.4596836989" r="2" />
	<circle cx="1000.0000000000" cy="-0.0000000000" r="2" />
	<circle cx="0.0000000000" cy="-0.0000000000" r="2" />
	<circle cx="500.0000000000" cy="-866.0254038000" r="2" />
	<circle cx="490.5896658012" cy="-283.1856340131" r="2" />
	<circle cx="500.0000000000" cy="-866.0254038000" r="2" />
	<circle cx="500.0000000000" cy="-866.0254038000" r="2" />
	<circle cx="999.9997365185" cy="-0.0001520561" r="2" />
	<circle cx="1000.0000000000" cy="-0.0000000000" r="2" />
	<circle cx="0.0000000000" cy="-0.0000000000" r="2" />
	<circle cx="0.0000000000" cy="-0.0000000000" r="2" />
	<circle cx="246.3083656007" cy="-120.9871733681" r="2" />
	<circle cx="556.6004214880" cy="-255.8434608518" r="2" />
	<circle cx="499.9847791336" cy="-304.2187747759" r="2" />
	<circle cx="500.0000000000" cy="-866.0254038000" r="2" />
	<circle cx="999.9999990031" cy="-0.0000005338" r="2" />
	<circle cx="499.9917069472" cy="-787.4087097375" r="2" />
	<circle cx="500.0000000000" cy="-866.0254038000" r="2" />
	<circle cx="590.1232538677" cy="-236.7867771389" r="2" />
	<circle cx="500.0000000000" cy="-866.0254037981" r="2" />
	<circle cx="0.0216711296" cy="-0.0124794863" r="2" />
	<circle cx="999.9987126262" cy="-0.0007428963" r="2" />
	<circle cx="797.6633374993" cy="-116.8387753117" r="2" />
	<circle cx="500.0031091247" cy="-552.0229632073" r="2" />
	<circle cx="800.3972970908" cy="-115.0886410076" r="2" />
	<circle cx="695.4468621424" cy="-36.9132432930" r="2" />
	<circle cx="0.4405715640" cy="-0.2408511741" r="2" />
	<circle cx="365.7293105664" cy="-475.6838348169" r="2" />
	<circle cx="982.0373797213" cy="-9.5748106686" r="2" />
	<circle cx="999.9753958800" cy="-0.0108026754" r="2" />
	<circle cx="887.7027998224" cy="-64.8781088656" r="2" />
	<circle cx="1000.0000000000" cy="-0.0000000000" r="2" />
	<circle cx="0.0000000000" cy="-0.0000000000" r="2" />
	<circle cx="497.3645553512" cy="-774.1429864917" r="2" />
	<circle cx="217.8932699620" cy="-128.1483467566" r="2" />
	<circle cx="500.0436886562" cy="-517.1098499392" r="2" />
	<circle cx="1000.0000000000" cy="-0.0000000000" r="2" />
	<circle cx="499.6248107172" cy="-293.3710563684" r="2" />
	<circle cx="272.0199446299" cy="-140.8859361271" r="2" />
	<circle cx="499.9963798562" cy="-849.1830651909" r="2" />
	<circle cx="500.0000000000" cy="-866.0254038000" r="2" />
	<circle cx="999.9999999711" cy="-0.0000000167" r="2" />
	<circle cx="1000.0000000000" cy="-0.0000000000" r="2" />
	<circle cx="999.9956840041" cy="-0.0024880647" r="2" />
	<circle cx="500.0000000000" cy="-866.0254038000" r="2" />
	<circle cx="0.0000000000" cy="-0.0000000000" r="2" />
	<circle cx="8.0594374752" cy="-4.6398480348" r="2" />
	<circle cx="481.4894645250" cy="-677.6898302208" r="2" />
	<circle cx="1000.0000000000" cy="-0.0000000000" r="2" />
	<circle cx="1000.0000000000" cy="-0.0000000000" r="2" />
	<circle cx="999.9999998932" cy="-0.0000000617" r="2" />
	<circle cx="498.2393946821" cy="-847.3878226544" r="2" />
	<circle cx="536.5363218212" cy="-306.0238704251" r="2" />
	<circle cx="999.9999999999" cy="-0.0000000000" r="2" />
	<circle cx="497.5334304985" cy="-284.4872515677" r="2" />
	<circle cx="1000.0000000000" cy="-0.0000000000" r="2" />
	<circle cx="0.0000000000" cy="-0.0000000000" r="2" />
	<circle cx="22.5064666644" cy="-14.4924347423" r="2" />
	<circle cx="500.0000000000" cy="-866.0254038000" r="2" />
	<circle cx="0.0251673031" cy="-0.0188246950" r="2" />
	<circle cx="1000.0000000000" cy="-0.0000000000" r="2" />
	<circle cx="999.0610047073" cy="-0.5403471686" r="2" />
	<circle cx="897.9750797398" cy="-59.6534853907" r="2" />
	<circle cx="1000.0000000000" cy="-0.0000000000" r="2" />
	<circle cx="502.5927643393" cy="-338.8795520898" r="2" />
	<circle cx="0.1222574254" cy="-0.0709590305" r="2" />
	<circle cx="500.0000000000" cy="-866.0254036815" r="2" />
	<circle cx="500.1649156319" cy="-399.5600483694" r="2" />
	<circle cx="573.0338267251" cy="-246.6072379434" r="2" />
	<circle cx="496.8872715137" cy="-748.9767067359" r="2" />
	<circle cx="0.0000000000" cy="-0.0000000000" r="2" />
	<circle cx="289.6349382148" cy="-61.9084210199" r="2" />
	<circle cx="0.0030114059" cy="-0.0017461274" r="2" />
	<circle cx="521.7875715925" cy="-393.8172434180" r="2" />
	<circle cx="642.7279270464" cy="-236.0690371436" r="2" />
	<circle cx="0.0000000000" cy="-0.0000000000" r="2" />
	<circle cx="530.3737488766" cy="-271.1409279185" r="2" />
	<circle cx="659.3565784650" cy="-196.3467666859" r="2" />
	<circle cx="0.0000000000" cy="-0.0000000000" r="2" />
	<circle cx="1000.0000000000" cy="-0.0000000000" r="2" />
	<circle cx="499.9999999930" cy="-866.0250077793" r="2" />
	<circle cx="999.9968379086" cy="-0.0018250241" r="2" />
	<circle cx="0.0000000000" cy="-0.0000000000" r="2" />
	<circle cx="486.8529608660" cy="-280.9222207705" r="2" />
	<circle cx="999.9493026032" cy="-0.0292817553" r="2" />
	<circle cx="1000.0000000000" cy="-0.0000000000" r="2" />
	<circle cx="500.0000000000" cy="-866.0254038000" r="2" />
	<circle cx="499.9999766761" cy="-865.8438351441" r="2" />
	<circle cx="0.0000000000" cy="-0.0000000000" r="2" />
	<circle cx="499.1585631393" cy="-830.6419653430" r="2" />
	<circle cx="0.0000003626" cy="-0.0000002095" r="2" />
	<circle cx="648.8853848542" cy="-563.5623672491" r="2" />
	<circle cx="500.0000000000" cy="-866.0254038000" r="2" />
	<circle cx="499.9999999828" cy="-866.0254036942" r="2" />
	<circle cx="0.0000120454" cy="-0.0000069537" r="2" />
	<circle cx="999.6825751048" cy="-0.1832382277" r="2" />
	<circle cx="1000.0000000000" cy="-0.0000000000" r="2" />
	<circle cx="576.9322746890" cy="-244.2323677769" r="2" />
	<circle cx="803.0410898092" cy="-113.6459262358" r="2" />
	<circle cx="0.0000000000" cy="-0.0000000000" r="2" />
	<circle cx="505.5940493025" cy="-426.3359980896" r="2" />
	<circle cx="0.0000000000" cy="-0.0000000000" r="2" />
	<circle cx="500.0000021742" cy="-866.0247278625" r="2" />
	<circle cx="999.9999999997" cy="-0.0000000002" r="2" />
	<circle cx="0.2647240947" cy="-0.1438589371" r="2" />
	<circle cx="498.2517157269" cy="-762.9299624963" r="2" />
	<circle cx="1000.0000000000" cy="-0.0000000000" r="2" />
	<circle cx="500.0000000000" cy="-866.0254038000" r="2" />
	<circle cx="1000.0000000000" cy="-0.0000000000" r="2" />
	<circle cx="976.6792360737" cy="-13.4655446140" r="2" />
	<circle cx="0.0000000000" cy="-0.0000000000" r="2" />
	<circle cx="1000.0000000000" cy="-0.0000000000" r="2" />
	<circle cx="1000.0000000000" cy="-0.0000000000" r="2" />
	<circle cx="865.6520056436" cy="-82.9033237242" r="2" />
	<circle cx="0.0001253838" cy="-0.0000723965" r="2" />
	<circle cx="500.0344883737" cy="-289.4976614749" r="2" />
	<circle cx="994.4549890152" cy="-3.2015458837" r="2" />
	<circle cx="0.0000000000" cy="-0.0000000000" r="2" />
	<circle cx="500.0000000000" cy="-866.0254038000" r="2" />
	<circle cx="499.9985945741" cy="-865.7425045659" r="2" />
	<circle cx="1000.0000000000" cy="-0.0000000000" r="2" />
	<circle cx="594.6078303303" cy="-234.0951836589" r="2" />
	<circle cx="999.9999999670" cy="-0.0000000191" r="2" />
	<circle cx="666.8411895070" cy="-199.5676126291" r="2" />
	<circle cx="371.1223675188" cy="-635.4374309773" r="2" />
	<circle cx="500.0000000000" cy="-866.0254038000" r="2" />
	<circle cx="457.8282127221" cy="-656.1974800255" r="2" />
	<circle cx="999.9999999977" cy="-0.0000000013" r="2" />
	<circle cx="171.3494762564" cy="-107.5667024086" r="2" />
	<circle cx="1000.0000000000" cy="-0.0000000000" r="2" />
	<circle cx="0.0000000000" cy="-0.0000000000" r="2" />
	<circle cx="500.0000000000" cy="-866.0254038000" r="2" />
	<circle cx="1000.0000000000" cy="-0.0000000000" r="2" />
	<circle cx="999.9999998983" cy="-0.0000000587" r="2" />
	<circle cx="500.0000000000" cy="-866.0254038000" r="2" />
	<circle cx="999.9997413003" cy="-0.0001122898" r="2" />
	<circle cx="500.0000000000" cy="-866.0254038000" r="2" />
	<circle cx="500.0000000000" cy="-866.0254038000" r="2" />
	<circle cx="4.6824170931" cy="-2.6753813428" r="2" />
	<circle cx="500.0000000000" cy="-866.0254038000" r="2" />
	<circle cx="0.0000000000" cy="-0.0000000000" r="2" />
	<circle cx="0.0000000000" cy="-0.0000000000" r="2" />
	<circle cx="505.2203861716" cy="-285.8854620778" r="2" />
	<circle cx="999.8073206256" cy="-0.0501157921" r="2" />
	<circle cx="1000.0000000000" cy="-0.0000000000" r="2" />
	<circle cx="906.2520651761" cy="-54.1004998517" r="2" />
	<circle cx="500.0000000000" cy="-866.0254038000" r="2" />
	<circle cx="500.0089772462" cy="-828.2800872747" r="2" />
	<circle cx="999.9999976533" cy="-0.0000013559" r="2" />
	<circle cx="262.9667351729" cy="-151.7730344365" r="2" />
	<circle cx="527.7872674959" cy="-320.1758571268" r="2" />
	<circle cx="846.4168609177" cy="-88.6571859024" r="2" />
	<circle cx="712.6919228002" cy="-166.2295962477" r="2" />
	<circle cx="500.0000000000" cy="-866.0254038000" r="2" />
	<circle cx="500.0000004978" cy="-866.0232888274" r="2" />
	<circle cx="0.0000000000" cy="-0.0000000000" r="2" />
	<circle cx="518.1856485135" cy="-379.3638532942" r="2" />
	<circle cx="661.7611012867" cy="-197.6499770823" r="2" />
	<circle cx="0.0213731074" cy="-0.0123441758" r="2" />
	<circle cx="506.3259687374" cy="-474.3512380596" r="2" />
	<circle cx="0.0758935923" cy="-0.0438352359" r="2" />
	<circle cx="499.9999919410" cy="-866.0253245490" r="2" />
	<circle cx="499.9260437342" cy="-288.6344754924" r="2" />
	<circle cx="1000.0000000000" cy="-0.0000000000" r="2" />
	<circle cx="0.0025728157" cy="-0.0014857124" r="2" />
	<circle cx="1000.0000000000" cy="-0.0000000000" r="2" />
	<circle cx="500.0958780193" cy="-445.9052234496" r="2" />
	<circle cx="499.9999999162" cy="-866.0254036549" r="2" />
	<circle cx="0.0000000000" cy="-0.0000000000" r="2" />
	<circle cx="0.0000000000" cy="-0.0000000000" r="2" />
	<circle cx="0.0000000000" cy="-0.0000000000" r="2" />
	<circle cx="0.0000000000" cy="-0.0000000000" r="2" />
	<circle cx="1000.0000000000" cy="-0.0000000000" r="2" />
	<circle cx="996.7673847476" cy="-2.6397101195" r="2" />
	<circle cx="1000.0000000000" cy="-0.0000000000" r="2" />
	<circle cx="587.3777169140" cy="-181.4671816867" r="2" />
	<circle cx="500.0000000000" cy="-866.0254038000" r="2" />
	<circle cx="510.9899010840" cy="-423.0797302113" r="2" />
	<circle cx="2.0024501942" cy="-3.2974100872" r="2" />
	<circle cx="0.0000071432" cy="-0.0000000025" r="2" />
	<circle cx="500.0000000000" cy="-866.0254038000" r="2" />
	<circle cx="536.1384610545" cy="-617.2748907465" r="2" />
	<circle cx="444.3376370396" cy="-324.4205825033" r="2" />
	<circle cx="1000.0000000000" cy="-0.0000000000" r="2" />
	<circle cx="382.3895861993" cy="-478.0612310057" r="2" />
	<circle cx="499.9939842803" cy="-336.1497290241" r="2" />
	<circle cx="863.8363476932" cy="-79.7978755805" r="2" />
	<circle cx="500.0010380282" cy="-824.0382745218" r="2" />
	<circle cx="389.3014836095" cy="-114.4605560107" r="2" />
	<circle cx="1000.0000000000" cy="-0.0000000000" r="2" />
	<circle cx="500.0000000000" cy="-866.0254038000" r="2" />
	<circle cx="51.7242003800" cy="-29.8847604373" r="2" />
	<circle cx="499.9991724384" cy="-866.0110595121" r="2" />
	<circle cx="875.6122298478" cy="-63.7365901289" r="2" />
	<circle cx="0.7492174554" cy="-0.4324502090" r="2" />
	<circle cx="999.9992328613" cy="-0.0003365637" r="2" />
	<circle cx="0.0001542708" cy="-0.0000913538" r="2" />
	<circle cx="999.9999999996" cy="-0.0000000002" r="2" />
	<circle cx="848.1237024146" cy="-84.7492673537" r="2" />
	<circle cx="1000.0000000000" cy="-0.0000000000" r="2" />
	<circle cx="310.5704778439" cy="-175.9513048166" r="2" />
	<circle cx="338.4648357416" cy="-467.3397057635" r="2" />
	<circle cx="500.0000000000" cy="-866.0254038000" r="2" />
	<circle cx="1000.0000000000" cy="-0.0000000000" r="2" />
	<circle cx="500.0000286669" cy="-865.7294750403" r="2" />
	<circle cx="416.1242365578" cy="-240.1616233962" r="2" />
	<circle cx="988.3319300834" cy="-6.7390086094" r="2" />
	<circle cx="270.1614150429" cy="-74.4544978921" r="2" />
	<circle cx="500.0000000000" cy="-866.0254038000" r="2" />
	<circle cx="510.2758773607" cy="-541.3132042418" r="2" />
	<circle cx="0.4640684570" cy="-0.2680276072" r="2" />
	<circle cx="501.4877232290" cy="-211.8878097035" r="2" />
	<circle cx="500.0000000000" cy="-866.0254038000" r="2" />
	<circle cx="0.0006207039" cy="-0.0003577168" r="2" />
	<circle cx="510.5410502041" cy="-282.6302015441" r="2" />
	<circle cx="500.0479869009" cy="-289.0136858384" r="2" />
	<circle cx="500.0000000000" cy="-866.0254038000" r="2" />
	<circle cx="500.0000000000" cy="-866.0254038000" r="2" />
	<circle cx="705.8872649378" cy="-208.6265632125" r="2" />
	<circle cx="499.9987342615" cy="-839.8788504449" r="2" />
	<circle cx="0.0000000000" cy="-0.0000000000" r="2" />
	<circle cx="500.0000000000" cy="-866.0254037898" r="2" />
	<circle cx="0.0000327145" cy="-0.0000188710" r="2" />
	<circle cx="500.0000014313" cy="-866.0018840681" r="2" />
	<circle cx="499.9644532772" cy="-714.1501084741" r="2" />
	<circle cx="499.9999982754" cy="-866.0196869303" r="2" />
	<circle cx="0.0000000000" cy="-0.0000000000" r="2" />
	<circle cx="0.0015958949" cy="-0.0009495226" r="2" />
	<circle cx="525.5604340883" cy="-397.0484624941" r="2" />
	<circle cx="999.9999999996" cy="-0.0000000002" r="2" />
	<circle cx="999.8185453304" cy="-0.1046319474" r="2" />
	<circle cx="999.9999998312" cy="-0.0000000975" r="2" />
	<circle cx="0.0005103211" cy="-0.0002948570" r="2" />
	<circle cx="500.0000000000" cy="-866.0254038000" r="2" />
	<circle cx="0.4587714278" cy="-0.2658047864" r="2" />
	<circle cx="502.7888151446" cy="-509.1879086206" r="2" />
	<circle cx="0.0000000000" cy="-0.0000000000" r="2" />
	<circle cx="1000.0000000000" cy="-0.0000000000" r="2" />
	<circle cx="999.9999999761" cy="-0.0000000140" r="2" />
	<circle cx="964.7901202852" cy="-20.3227191095" r="2" />
	<circle cx="500.0002196864" cy="-864.9615912077" r="2" />
	<circle cx="500.0000000000" cy="-866.0254038000" r="2" />
	<circle cx="499.9999642365" cy="-866.0233389261" r="2" />
	<circle cx="997.2330709422" cy="-1.5967072218" r="2" />
	<circle cx="500.0000000000" cy="-866.0254038000" r="2" />
	<circle cx="999.9981218477" cy="-0.0010850525" r="2" />
	<circle cx="1000.0000000000" cy="-0.0000000000" r="2" />
	<circle cx="1000.0000000000" cy="-0.0000000000" r="2" />
	<circle cx="500.0000000000" cy="-866.0254038000" r="2" />
	<circle cx="630.7943607533" cy="-140.2426013848" r="2" />
	<circle cx="446.2149632614" cy="-166.6332031142" r="2" />
	<circle cx="1000.0000000000" cy="-0.0000000000" r="2" />
	<circle cx="16.1456745697" cy="-8.5745324846" r="2" />
	<circle cx="947.2550006122" cy="-27.9598269211" r="2" />
	<circle cx="0.0000000000" cy="-0.0000000000" r="2" />
	<circle cx="424.4974446341" cy="-245.0008124599" r="2" />
	<circle cx="623.5763271733" cy="-541.3998770482" r="2" />
	<circle cx="438.1571014485" cy="-252.8576604488" r="2" />
	<circle cx="1000.0000000000" cy="-0.0000000000" r="2" />
	<circle cx="500.0112103805" cy="-812.1080255097" r="2" />
	<circle cx="262.5084274078" cy="-149.1530305526" r="2" />
	<circle cx="0.0000000000" cy="-0.0000000000" r="2" />
	<circle cx="999.9994892282" cy="-0.0002345495" r="2" />
	<circle cx="0.0000000000" cy="-0.0000000000" r="2" />
	<circle cx="500.0089489469" cy="-312.6295407875" r="2" />
	<circle cx="397.8174061577" cy="-229.6502688689" r="2" />
	<circle cx="396.7954712393" cy="-229.2335383283" r="2" />
	<circle cx="499.9765423130" cy="-865.0121614174" r="2" />
	<circle cx="499.9468682095" cy="-288.5019257694" r="2" />
	<circle cx="499.9999999951" cy="-866.0253844708" r="2" />
	<circle cx="1000.0000000000" cy="-0.0000000000" r="2" />
	<circle cx="500.0000000000" cy="-866.0254038000" r="2" />
	<circle cx="1000.0000000000" cy="-0.0000000000" r="2" />
	<circle cx="0.0000000245" cy="-0.0000000142" r="2" />
	<circle cx="0.0001695647" cy="-0.0000979861" r="2" />
	<circle cx="8.4275921611" cy="-4.9650373112" r="2" />
	<circle cx="500.0000000000" cy="-866.0254038000" r="2" />
	<circle cx="999.9998903404" cy="-0.0000635276" r="2" />
	<circle cx="491.1352802821" cy="-737.7943408743" r="2" />
	<circle cx="0.0214561486" cy="-0.0123875531" r="2" />
	<circle cx="971.2258768735" cy="-23.6573384441" r="2" />
	<circle cx="509.8581991295" cy="-839.7459905192" r="2" />
	<circle cx="500.0000000000" cy="-866.0254038000" r="2" />
	<circle cx="0.0000758356" cy="-0.0000438361" r="2" />
	<circle cx="533.9064648258" cy="-269.1256107267" r="2" />
	<circle cx="511.3891541646" cy="-276.9262093538" r="2" />
	<circle cx="477.0715322344" cy="-321.6207572770" r="2" />
	<circle cx="500.0000000000" cy="-866.0254038000" r="2" />
	<circle cx="470.4545997835" cy="-807.1790151482" r="2" />
	<circle cx="499.9297026907" cy="-326.7828484693" r="2" />
	<circle cx="1000.0000000000" cy="-0.0000000000" r="2" />
	<circle cx="999.9999999955" cy="-0.0000000025" r="2" />
	<circle cx="1000.0000000000" cy="-0.0000000000" r="2" />
	<circle cx="0.0000000000" cy="-0.0000000000" r="2" />
	<circle cx="473.7235934185" cy="-246.1527238514" r="2" />
	<circle cx="992.0274245268" cy="-4.6182661561" r="2" />
	<circle cx="1000.0000000000" cy="-0.0000000000" r="2" />
	<circle cx="49.4556281596" cy="-28.5769285282" r="2" />
	<circle cx="249.3038397773" cy="-215.2666101593" r="2" />
	<circle cx="500.0030214767" cy="-863.4505794912" r="2" />
	<circle cx="500.0000000001" cy="-866.0254036844" r="2" />
	<circle cx="499.5584193145" cy="-826.6561075260" r="2" />
	<circle cx="499.9999692194" cy="-866.0031873441" r="2" />
	<circle cx="500.0000000000" cy="-866.0254038000" r="2" />
	<circle cx="500.0000000000" cy="-866.0254037619" r="2" />
	<circle cx="999.9686911194" cy="-0.0180866382" r="2" />
	<circle cx="138.3388577587" cy="-129.6344842584" r="2" />
	<circle cx="4.1960788837" cy="-2.4236949094" r="2" />
	<circle cx="1000.0000000000" cy="-0.0000000000" r="2" />
	<circle cx="499.9880173382" cy="-859.5639678710" r="2" />
	<circle cx="0.0000000000" cy="-0.0000000000" r="2" />
	<circle cx="500.0000000000" cy="-866.0254038000" r="2" />
	<circle cx="167.8127979802" cy="-96.9160609711" r="2" />
	<circle cx="86.9304461091" cy="-50.2122593859" r="2" />
	<circle cx="500.0000000000" cy="-866.0254038000" r="2" />
	<circle cx="1000.0000000000" cy="-0.0000000000" r="2" />
	<circle cx="500.0000000000" cy="-866.0254038000" r="2" />
	<circle cx="1000.0000000000" cy="-0.0000000000" r="2" />
	<circle cx="500.0035008103" cy="-693.8246159055" r="2" />
	<circle cx="558.8626777582" cy="-237.6243913382" r="2" />
	<circle cx="500.0000631985" cy="-865.6779343823" r="2" />
	<circle cx="441.5877009290" cy="-254.8679946231" r="2" />
	<circle cx="500.0000000000" cy="-866.0254037998" r="2" />
	<circle cx="513.0081072276" cy="-837.9584231752" r="2" />
	<circle cx="500.0000000000" cy="-866.0254038000" r="2" />
	<circle cx="500.0000000000" cy="-866.0254037588" r="2" />
	<circle cx="499.9243640412" cy="-307.0109150656" r="2" />
	<circle cx="0.0000000000" cy="-0.0000000000" r="2" />
	<circle cx="539.4816840083" cy="-265.5958741078" r="2" />
	<circle cx="999.9997237717" cy="-0.0001594364" r="2" />
	<circle cx="0.0000000000" cy="-0.0000000000" r="2" />
	<circle cx="515.0032995571" cy="-644.8029888148" r="2" />
	<circle cx="500.0000000000" cy="-866.0254038000" r="2" />
	<circle cx="500.0180193086" cy="-788.6456716421" r="2" />
	<circle cx="499.9999999152" cy="-866.0253650448" r="2" />
	<circle cx="0.0000000000" cy="-0.0000000000" r="2" />
	<circle cx="471.7039363884" cy="-276.3161465140" r="2" />
	<circle cx="925.6065254664" cy="-38.5656520693" r="2" />
	<circle cx="0.0000000000" cy="-0.0000000000" r="2" />
	<circle cx="499.9322453860" cy="-485.8840479074" r="2" />
	<circle cx="1.2531120430" cy="-0.7235757855" r="2" />
	<circle cx="399.0583116175" cy="-230.5828118587" r="2" />
	<circle cx="991.3137009600" cy="-1.9830965045" r="2" />
	<circle cx="500.0000000000" cy="-866.0254038000" r="2" />
	<circle cx="997.6589395612" cy="-1.3984002561" r="2" />
	<circle cx="1000.0000000000" cy="-0.0000000000" r="2" />
	<circle cx="499.9999993383" cy="-866.0253874077" r="2" />
	<circle cx="21.3792286021" cy="-12.0822054114" r="2" />
	<circle cx="18.5204016439" cy="-10.6475894876" r="2" />
	<circle cx="1000.0000000000" cy="-0.0000000000" r="2" />
	<circle cx="0.0000000000" cy="-0.0000000000" r="2" />
	<circle cx="631.7357910080" cy="-212.5799589520" r="2" />
	<circle cx="0.0000000000" cy="-0.0000000000" r="2" />
	<circle cx="491.8501012411" cy="-283.7259590698" r="2" />
	<circle cx="1000.0000000000" cy="-0.0000000000" r="2" />
	<circle cx="500.1262706619" cy="-334.2660153680" r="2" />
	<circle cx="621.8938112481" cy="-230.9907664584" r="2" />
	<circle cx="0.0000000000" cy="-0.0000000000" r="2" />
	<circle cx="999.5322826335" cy="-0.2702993336" r="2" />
	<circle cx="504.6500211596" cy="-856.4277597164" r="2" />
	<circle cx="500.0414729917" cy="-288.7078274996" r="2" />
	<circle cx="486.5115016895" cy="-280.8071719767" r="2" />
	<circle cx="498.4370637649" cy="-559.6058395677" r="2" />
	<circle cx="0.0000000000" cy="-0.0000000000" r="2" />
	<circle cx="6.0974860940" cy="-3.5207326041" r="2" />
	<circle cx="995.2536548805" cy="-8.1294309138" r="2" />
	<circle cx="1000.0000000000" cy="-0.0000000000" r="2" />
	<circle cx="0.0000000000" cy="-0.0000000000" r="2" />
	<circle cx="1000.0000000000" cy="-0.0000000000" r="2" />
	<circle cx="500.0000000000" cy="-866.0254038000" r="2" />
	<circle cx="500.0000000000" cy="-866.0254038000" r="2" />
	<circle cx="0.0000000000" cy="-0.0000000000" r="2" />
	<circle cx="433.3629450340" cy="-250.4045062777" r="2" />
	<circle cx="500.0000049274" cy="-865.9673636016" r="2" />
	<circle cx="482.8182547903" cy="-278.6767361282" r="2" />
	<circle cx="1000.0000000000" cy="-0.0000000000" r="2" />
	<circle cx="0.0000000000" cy="-0.0000000000" r="2" />
	<circle cx="1000.0000000000" cy="-0.0000000000" r="2" />
	<circle cx="999.9962407460" cy="-0.0022879622" r="2" />
	<circle cx="500.0000000000" cy="-866.0254038000" r="2" />
	<circle cx="0.0000000000" cy="-0.0000000000" r="2" />
	<circle cx="501.1058635516" cy="-288.2133029060" r="2" />
	<circle cx="1000.0000000000" cy="-0.0000000000" r="2" />
	<circle cx="0.0000000000" cy="-0.0000000000" r="2" />
	<circle cx="500.0042740625" cy="-288.5041843236" r="2" />
	<circle cx="499.5129393650" cy="-486.7536483092" r="2" />
	<circle cx="499.9999997542" cy="-866.0239189180" r="2" />
	<circle cx="500.0403692066" cy="-486.1664413850" r="2" />
	<circle cx="0.0000000000" cy="-0.0000000000" r="2" />
	<circle cx="500.9859560503" cy="-864.1063590742" r="2" />
	<circle cx="393.4143893546" cy="-383.1857563356" r="2" />
	<circle cx="1000.0000000000" cy="-0.0000000000" r="2" />
	<circle cx="500.0000000370" cy="-866.0252653253" r="2" />
	<circle cx="1000.0000000000" cy="-0.0000000000" r="2" />
	<circle cx="514.3004876103" cy="-332.9967124302" r="2" />
	<circle cx="173.5171823882" cy="-99.6161536050" r="2" />
	<circle cx="500.0000000000" cy="-866.0254038000" r="2" />
	<circle cx="0.0000000000" cy="-0.0000000000" r="2" />
	<circle cx="999.9999900852" cy="-0.0000057643" r="2" />
	<circle cx="500.0000000000" cy="-866.0254038000" r="2" />
	<circle cx="999.9686999720" cy="-0.0180809354" r="2" />
	<circle cx="1000.0000000000" cy="-0.0000000000" r="2" />
	<circle cx="4.4998291313" cy="-2.5980251073" r="2" />
	<circle cx="0.0000000000" cy="-0.0000000000" r="2" />
	<circle cx="191.7570219774" cy="-91.8939724935" r="2" />
	<circle cx="499.9809647904" cy="-814.0026408736" r="2" />
	<circle cx="307.9145107970" cy="-493.5740862031" r="2" />
	<circle cx="999.9998900989" cy="-0.0000632232" r="2" />
	<circle cx="0.5195356434" cy="-0.2999323999" r="2" />
	<circle cx="388.7445506644" cy="-36.5253618528" r="2" />
	<circle cx="999.9999999444" cy="-0.0000000327" r="2" />
	<circle cx="1000.0000000000" cy="-0.0000000000" r="2" />
	<circle cx="500.0000000000" cy="-866.0254038000" r="2" />
	<circle cx="995.3500474863" cy="-2.6881780442" r="2" />
	<circle cx="1000.0000000000" cy="-0.0000000000" r="2" />
	<circle cx="456.9449020720" cy="-263.8346050076" r="2" />
	<circle cx="0.0000000000" cy="-0.0000000000" r="2" />
	<circle cx="999.9999880785" cy="-0.0000054882" r="2" />
	<circle cx="500.0000000000" cy="-866.0254038000" r="2" />
	<circle cx="500.0000000000" cy="-866.0254038000" r="2" />
	<circle cx="500.0000000061" cy="-866.0254032291" r="2" />
	<circle cx="0.0000000000" cy="-0.0000000000" r="2" />
	<circle cx="0.0000000000" cy="-0.0000000000" r="2" />
	<circle cx="0.0000000000" cy="-0.0000000000" r="2" />
	<circle cx="0.0000000000" cy="-0.0000000000" r="2" />
	<circle cx="999.9999879551" cy="-0.0000069548" r="2" />
	<circle cx="1000.0000000000" cy="-0.0000000000" r="2" />
	<circle cx="499.9648232658" cy="-288.6366530956" r="2" />
	<circle cx="0.0000000000" cy="-0.0000000000" r="2" />
	<circle cx="0.0229187972" cy="-0.0096596140" r="2" />
	<circle cx="1.1922617407" cy="-0.6885870191" r="2" />
	<circle cx="0.0000000000" cy="-0.0000000000" r="2" />
	<circle cx="501.5191632543" cy="-863.3564839436" r="2" />
	<circle cx="508.3598320550" cy="-284.0825869651" r="2" />
	<circle cx="497.9733729067" cy="-287.6378954303" r="2" />
	<circle cx="526.3627774904" cy="-341.2560224192" r="2" />
	<circle cx="454.0926037635" cy="-262.0435791841" r="2" />
	<circle cx="505.6341926074" cy="-394.7716137798" r="2" />
	<circle cx="504.1709179661" cy="-518.4137801550" r="2" />
  </g>
  <g id="fig2" transform="translate(-550.0,1000)">
	<polygon points="0.0,-0.0 1000.0,-0.0 500.0,-866.0254038" />
	<line
	   id="line2-1"
	   y2="-0.0"
	   x2="500"
	   y1="-288.6751346"
	   x1="500" />
	<line
	   id="line2-2"
	   y2="-433.0127019"
	   x2="250"
	   y1="-288.6751346"
	   x1="500" />
	<line
	   id="line2-3"
	   y2="-433.0127019"
	   x2="750"
	   y1="-288.6751346"
	   x1="500" />
	<text
	   x="440"
	   y="-500"
	   id="up_2">34.6%</text>
	<text
	   x="250"
	   y="-150"
	   id="down_left_2">30.6%</text>
	<text
	   x="630"
	   y="-150"
	   id="down_right_2">34.8%</text>
  </g>
  <g id="fig3" transform="translate(550,1000)">
	<polygon points="0.0,-0.0 1000.0,-0.0 500.0,-866.0254038" />
	<polygon id="triangle3b" points="250,-144.3375673 750,-144.3375673 500,-577.3502692" />
	<line
	   id="line3-1"
	   x1="125"
	   y1="-216.5063509"
	   x2="250"
	   y2="-144.3375673" />
	<line
	   id="line3-2"
	   x1="375"
	   y1="-649.5190528"
	   x2="500"
	   y2="-577.3502692" />
	<line
	   id="line3-3"
	   x1="625"
	   y1="-649.5190528"
	   x2="500"
	   y2="-577.3502692" />
	<line
	   id="line3-4"
	   x1="875"
	   y1="-216.5063509"
	   x2="750"
	   y2="-144.3375673" />
	<line
	   id="line3-5"
	   x1="750"
	   y1="-0.0"
	   x2="750"
	   y2="-144.3375673" />
	<line
	   id="line3-6"
	   x1="250"
	   y1="-0.0"
	   x2="250"
	   y2="-144.3375673" />
	<text
	   x="500"
	   y="-660"
	   text-anchor="middle"
	   id="up_3">25.8%</text>
	<text
	   y="-50"
	   x="70"
	   id="down_left_3">22.6%</text>
	<text
	   y="-50"
	   x="770"
	   id="down_right_3">28.4%</text>
	<text
	   x="500"
	   y="-50"
	   text-anchor="middle"
	   id="down_side_3">1.4%</text>
	<text
	   x="500"
	   y="-280"
	   text-anchor="middle"
	   id="center_3">20.2%</text>
	<text
	   x="685.0"
	   y="-390.8439"
	   text-anchor="middle"
	   transform="rotate(60,665.0,-380.8439)"
	   id="right_side_3">0.4%</text>
	<text
	   x="315.0"
	   y="-390.8439"
	   text-anchor="middle"
	   transform="rotate(-60,335.0,-380.8439)"
	   id="left_side_3">1.2%</text>
  </g>
</g></g>
</svg>
