<?xml version="1.0" encoding="UTF-8" standalone="no"?>
<!DOCTYPE svg PUBLIC "-//W3C//DTD SVG 1.1//EN" "http://www.w3.org/Graphics/SVG/1.1/DTD/svg11.dtd">
<svg
   xmlns:svg="http://www.w3.org/2000/svg"
   xmlns="http://www.w3.org/2000/svg"
   xmlns:xlink="http://www.w3.org/1999/xlink"
   version="1.1"
   baseProfile="full"
   id="body"
   width="800px"
   height="800px"
   viewBox="0 0 1000 1000"
   preserveAspectRatio="none">
  <defs>
    <style type="text/css"><![CDATA[
      circle{ stroke: none; }
      polygon{ stroke: black; stroke-width: 2px; fill: none; }
      line{ stroke: black; stroke-width: 2px; }
      text{ font-size:50px; }
    ]]></style>
  </defs>
  <title
     id="title1">SVG drawing</title>
<g transform="scale(0.45)"><g transform="translate(600,1050)">
  <g id="fig1">
	<polygon points="0.0,-0.0 1000.0,-0.0 500,-866.0254038" />
	<circle cx="1.1472280194" cy="-0.6760901389" r="2" />
	<circle cx="0.0004146890" cy="-0.0003204658" r="2" />
	<circle cx="0.0000000000" cy="-0.0000000000" r="2" />
	<circle cx="729.6916710218" cy="-461.8217727906" r="2" />
	<circle cx="0.0095943576" cy="-0.0165612528" r="2" />
	<circle cx="500.0000000000" cy="-866.0254038000" r="2" />
	<circle cx="0.0000000000" cy="-0.0000000000" r="2" />
	<circle cx="0.0000000007" cy="-0.0000000004" r="2" />
	<circle cx="499.9995186788" cy="-865.9969256238" r="2" />
	<circle cx="0.0000000000" cy="-0.0000000000" r="2" />
	<circle cx="500.0000546920" cy="-865.7125348649" r="2" />
	<circle cx="999.9755583124" cy="-0.0136008806" r="2" />
	<circle cx="0.0000000988" cy="-0.0000000570" r="2" />
	<circle cx="0.0820648485" cy="-0.0662386150" r="2" />
	<circle cx="708.3349669182" cy="-183.8958021061" r="2" />
	<circle cx="499.9997837438" cy="-866.0215198564" r="2" />
	<circle cx="499.9999973284" cy="-866.0253423116" r="2" />
	<circle cx="1000.0000000000" cy="-0.0000000000" r="2" />
	<circle cx="0.0000000003" cy="-0.0000000004" r="2" />
	<circle cx="287.9537492330" cy="-334.5986819160" r="2" />
	<circle cx="517.4348592462" cy="-265.5980240116" r="2" />
	<circle cx="1000.0000000000" cy="-0.0000000000" r="2" />
	<circle cx="500.0037825495" cy="-288.5282282936" r="2" />
	<circle cx="1000.0000000000" cy="-0.0000000000" r="2" />
	<circle cx="499.9999994166" cy="-866.0142035889" r="2" />
	<circle cx="1000.0000000000" cy="-0.0000000000" r="2" />
	<circle cx="999.9999982437" cy="-0.0000010129" r="2" />
	<circle cx="500.0000000000" cy="-866.0254038000" r="2" />
	<circle cx="0.0000344904" cy="-0.0000183366" r="2" />
	<circle cx="574.6881663354" cy="-729.0432520184" r="2" />
	<circle cx="1000.0000000000" cy="-0.0000000000" r="2" />
	<circle cx="0.0000000000" cy="-0.0000000000" r="2" />
	<circle cx="500.0000000000" cy="-866.0254038000" r="2" />
	<circle cx="999.9935912358" cy="-0.0036993233" r="2" />
	<circle cx="500.0000000000" cy="-866.0254038000" r="2" />
	<circle cx="1000.0000000000" cy="-0.0000000000" r="2" />
	<circle cx="0.0160317659" cy="-0.0092483010" r="2" />
	<circle cx="0.0000000000" cy="-0.0000000000" r="2" />
	<circle cx="499.9999965702" cy="-866.0192116007" r="2" />
	<circle cx="500.0050513667" cy="-863.2029022468" r="2" />
	<circle cx="1000.0000000000" cy="-0.0000000000" r="2" />
	<circle cx="999.9999999675" cy="-0.0000000014" r="2" />
	<circle cx="999.9324766268" cy="-0.0362124968" r="2" />
	<circle cx="1000.0000000000" cy="-0.0000000000" r="2" />
	<circle cx="0.0518706773" cy="-0.0294532383" r="2" />
	<circle cx="500.0000000000" cy="-866.0254037998" r="2" />
	<circle cx="500.0000000000" cy="-866.0254037999" r="2" />
	<circle cx="500.0000000000" cy="-866.0254038000" r="2" />
	<circle cx="999.6320444676" cy="-0.1988643958" r="2" />
	<circle cx="499.9948323649" cy="-865.8818385730" r="2" />
	<circle cx="500.0000000000" cy="-866.0254038000" r="2" />
	<circle cx="1000.0000000000" cy="-0.0000000000" r="2" />
	<circle cx="500.0000000000" cy="-866.0254038000" r="2" />
	<circle cx="989.2028259232" cy="-18.2184414789" r="2" />
	<circle cx="999.7555105931" cy="-0.1453384512" r="2" />
	<circle cx="0.0004817249" cy="-0.0002781184" r="2" />
	<circle cx="500.0443771913" cy="-392.5096827341" r="2" />
	<circle cx="0.0000000000" cy="-0.0000000000" r="2" />
	<circle cx="500.1108286194" cy="-417.7343796388" r="2" />
	<circle cx="499.9979379005" cy="-866.0119430921" r="2" />
	<circle cx="1000.0000000000" cy="-0.0000000000" r="2" />
	<circle cx="1000.0000000000" cy="-0.0000000000" r="2" />
	<circle cx="0.0000000000" cy="-0.0000000000" r="2" />
	<circle cx="1000.0000000000" cy="-0.0000000000" r="2" />
	<circle cx="500.0000000000" cy="-866.0254038000" r="2" />
	<circle cx="500.0175927432" cy="-865.6392846965" r="2" />
	<circle cx="0.0000000000" cy="-0.0000000000" r="2" />
	<circle cx="999.9871287440" cy="-0.0093886235" r="2" />
	<circle cx="999.9999999973" cy="-0.0000000016" r="2" />
	<circle cx="0.0000000000" cy="-0.0000000000" r="2" />
	<circle cx="1000.0000000000" cy="-0.0000000000" r="2" />
	<circle cx="500.0000000000" cy="-866.0254038000" r="2" />
	<circle cx="499.9999413542" cy="-865.6131683789" r="2" />
	<circle cx="0.0000000000" cy="-0.0000000000" r="2" />
	<circle cx="500.0000000000" cy="-866.0254038000" r="2" />
	<circle cx="1000.0000000000" cy="-0.0000000000" r="2" />
	<circle cx="1000.0000000000" cy="-0.0000000000" r="2" />
	<circle cx="999.9628537192" cy="-0.0001930035" r="2" />
	<circle cx="500.0001917547" cy="-861.6205081206" r="2" />
	<circle cx="0.0000000000" cy="-0.0000000000" r="2" />
	<circle cx="0.0000000000" cy="-0.0000000000" r="2" />
	<circle cx="500.0000000035" cy="-866.0254037939" r="2" />
	<circle cx="500.0000000000" cy="-866.0254038000" r="2" />
	<circle cx="1000.0000000000" cy="-0.0000000000" r="2" />
	<circle cx="0.0000000102" cy="-0.0000000078" r="2" />
	<circle cx="499.9985914151" cy="-865.9700554314" r="2" />
	<circle cx="0.0000000000" cy="-0.0000000000" r="2" />
	<circle cx="0.0003264519" cy="-0.0001886626" r="2" />
	<circle cx="1000.0000000000" cy="-0.0000000000" r="2" />
	<circle cx="0.0000000000" cy="-0.0000000000" r="2" />
	<circle cx="999.9995906844" cy="-0.0002361681" r="2" />
	<circle cx="0.0339251133" cy="-0.0178736032" r="2" />
	<circle cx="0.0000000000" cy="-0.0000000000" r="2" />
	<circle cx="500.0000000000" cy="-866.0254038000" r="2" />
	<circle cx="0.0000000000" cy="-0.0000000000" r="2" />
	<circle cx="500.0000000000" cy="-866.0254037976" r="2" />
	<circle cx="1000.0000000000" cy="-0.0000000000" r="2" />
	<circle cx="500.0000000000" cy="-866.0254038000" r="2" />
	<circle cx="843.5575681331" cy="-5.4735309023" r="2" />
	<circle cx="1000.0000000000" cy="-0.0000000000" r="2" />
	<circle cx="1000.0000000000" cy="-0.0000000000" r="2" />
	<circle cx="0.0000000000" cy="-0.0000000000" r="2" />
	<circle cx="1000.0000000000" cy="-0.0000000000" r="2" />
	<circle cx="385.9820196284" cy="-222.7182209027" r="2" />
	<circle cx="1000.0000000000" cy="-0.0000000000" r="2" />
	<circle cx="499.9934521403" cy="-288.3117861237" r="2" />
	<circle cx="500.0000000000" cy="-866.0254037794" r="2" />
	<circle cx="999.9998442559" cy="-0.0000871193" r="2" />
	<circle cx="500.0000000000" cy="-866.0254038000" r="2" />
	<circle cx="1000.0000000000" cy="-0.0000000000" r="2" />
	<circle cx="1000.0000000000" cy="-0.0000000000" r="2" />
	<circle cx="0.0002665451" cy="-0.0001348717" r="2" />
	<circle cx="999.9999998901" cy="-0.0000000632" r="2" />
	<circle cx="500.0000000000" cy="-866.0254038000" r="2" />
	<circle cx="999.6924814010" cy="-0.1737146114" r="2" />
	<circle cx="999.3524977304" cy="-0.3738145333" r="2" />
	<circle cx="0.0000000000" cy="-0.0000000000" r="2" />
	<circle cx="999.9657181276" cy="-0.0198009908" r="2" />
	<circle cx="500.0000000000" cy="-866.0254038000" r="2" />
	<circle cx="500.0000000000" cy="-866.0254038000" r="2" />
	<circle cx="0.0000000000" cy="-0.0000000000" r="2" />
	<circle cx="500.0000000000" cy="-866.0254038000" r="2" />
	<circle cx="500.0000000000" cy="-866.0254037930" r="2" />
	<circle cx="998.9276932674" cy="-0.4902861188" r="2" />
	<circle cx="0.0000000000" cy="-0.0000000000" r="2" />
	<circle cx="500.0000000000" cy="-866.0254038000" r="2" />
	<circle cx="500.0000000000" cy="-866.0254038000" r="2" />
	<circle cx="500.0000000001" cy="-866.0254037999" r="2" />
	<circle cx="996.1852928678" cy="-2.2026137904" r="2" />
	<circle cx="999.9999991426" cy="-0.0000004948" r="2" />
	<circle cx="500.0647241328" cy="-301.5499783191" r="2" />
	<circle cx="499.9999900529" cy="-866.0006460902" r="2" />
	<circle cx="0.0676511692" cy="-0.0390825672" r="2" />
	<circle cx="0.3851380224" cy="-0.2354940735" r="2" />
	<circle cx="999.9999934686" cy="-0.0000071565" r="2" />
	<circle cx="984.4663987556" cy="-0.1137372077" r="2" />
	<circle cx="1000.0000000000" cy="-0.0000000000" r="2" />
	<circle cx="999.9782548828" cy="-0.0104547930" r="2" />
	<circle cx="500.0000000000" cy="-866.0254038000" r="2" />
	<circle cx="0.0000000000" cy="-0.0000000000" r="2" />
	<circle cx="500.0000000000" cy="-866.0254038000" r="2" />
	<circle cx="0.0480228400" cy="-0.0276442563" r="2" />
	<circle cx="499.9999999999" cy="-866.0254037828" r="2" />
	<circle cx="500.0000000000" cy="-866.0254038000" r="2" />
	<circle cx="999.9999999696" cy="-0.0000000175" r="2" />
	<circle cx="1000.0000000000" cy="-0.0000000000" r="2" />
	<circle cx="0.0000000000" cy="-0.0000000000" r="2" />
	<circle cx="0.0000000000" cy="-0.0000000000" r="2" />
	<circle cx="0.0000000000" cy="-0.0000000000" r="2" />
	<circle cx="1000.0000000000" cy="-0.0000000000" r="2" />
	<circle cx="500.0000000000" cy="-866.0254038000" r="2" />
	<circle cx="0.0000000000" cy="-0.0000000000" r="2" />
	<circle cx="1000.0000000000" cy="-0.0000000000" r="2" />
	<circle cx="500.0000000014" cy="-866.0254037958" r="2" />
	<circle cx="999.9999587155" cy="-0.0000238298" r="2" />
	<circle cx="0.0000000000" cy="-0.0000000000" r="2" />
	<circle cx="1000.0000000000" cy="-0.0000000000" r="2" />
	<circle cx="24.1333547473" cy="-41.7997863148" r="2" />
	<circle cx="0.4372398017" cy="-0.2526736981" r="2" />
	<circle cx="500.0000001419" cy="-866.0246799790" r="2" />
	<circle cx="499.5586239304" cy="-865.2609180222" r="2" />
	<circle cx="500.0000000000" cy="-866.0254038000" r="2" />
	<circle cx="500.0329868752" cy="-538.9483322040" r="2" />
	<circle cx="500.0000000000" cy="-866.0254038000" r="2" />
	<circle cx="500.0000000212" cy="-866.0254021668" r="2" />
	<circle cx="98.6595904494" cy="-1.7451171884" r="2" />
	<circle cx="999.9999242386" cy="-0.0000436414" r="2" />
	<circle cx="499.9998778634" cy="-865.9844079155" r="2" />
	<circle cx="500.0000000000" cy="-866.0254038000" r="2" />
	<circle cx="1000.0000000000" cy="-0.0000000000" r="2" />
	<circle cx="0.0006653975" cy="-0.0004052466" r="2" />
	<circle cx="999.7384736070" cy="-0.1506642370" r="2" />
	<circle cx="500.0000000000" cy="-866.0254038000" r="2" />
	<circle cx="0.0245352146" cy="-0.0141792924" r="2" />
	<circle cx="499.9999990956" cy="-866.0175189350" r="2" />
	<circle cx="500.0000000000" cy="-866.0254038000" r="2" />
	<circle cx="0.0000000000" cy="-0.0000000000" r="2" />
	<circle cx="0.0000000000" cy="-0.0000000000" r="2" />
	<circle cx="500.0000000000" cy="-866.0254038000" r="2" />
	<circle cx="499.9662554673" cy="-865.1201692412" r="2" />
	<circle cx="999.9739661926" cy="-0.0150276435" r="2" />
	<circle cx="0.0000000000" cy="-0.0000000000" r="2" />
	<circle cx="500.0000000000" cy="-866.0254038000" r="2" />
	<circle cx="500.0000000000" cy="-866.0254038000" r="2" />
	<circle cx="500.0000000000" cy="-866.0254038000" r="2" />
	<circle cx="0.0000000000" cy="-0.0000000000" r="2" />
	<circle cx="0.4694414165" cy="-0.2711650771" r="2" />
	<circle cx="500.0000000000" cy="-866.0254038000" r="2" />
	<circle cx="499.9999885577" cy="-288.6838268435" r="2" />
	<circle cx="0.4605200966" cy="-0.2697679196" r="2" />
	<circle cx="500.0052457345" cy="-866.0163179208" r="2" />
	<circle cx="1000.0000000000" cy="-0.0000000000" r="2" />
	<circle cx="500.0002372427" cy="-866.0206245081" r="2" />
	<circle cx="1000.0000000000" cy="-0.0000000000" r="2" />
	<circle cx="999.9956548543" cy="-0.0025243228" r="2" />
	<circle cx="499.8596276149" cy="-345.2526306083" r="2" />
	<circle cx="0.0000000000" cy="-0.0000000000" r="2" />
	<circle cx="500.0000214379" cy="-866.0214104239" r="2" />
	<circle cx="500.0000000000" cy="-866.0254038000" r="2" />
	<circle cx="0.0005647653" cy="-0.0003259156" r="2" />
	<circle cx="500.0000000000" cy="-866.0254038000" r="2" />
	<circle cx="1000.0000000000" cy="-0.0000000000" r="2" />
	<circle cx="0.9269828091" cy="-0.5347902994" r="2" />
	<circle cx="500.0000000000" cy="-866.0254038000" r="2" />
	<circle cx="2.1563911766" cy="-1.2445834317" r="2" />
	<circle cx="999.9831765230" cy="-0.0096885934" r="2" />
	<circle cx="534.7840319192" cy="-280.7302729212" r="2" />
	<circle cx="500.0000000000" cy="-866.0254038000" r="2" />
	<circle cx="1000.0000000000" cy="-0.0000000000" r="2" />
	<circle cx="500.0000064919" cy="-865.9379887572" r="2" />
	<circle cx="999.9763634168" cy="-0.0408857872" r="2" />
	<circle cx="500.0000000000" cy="-866.0254038000" r="2" />
	<circle cx="500.0000000000" cy="-866.0254038000" r="2" />
	<circle cx="0.0000000383" cy="-0.0000000183" r="2" />
	<circle cx="499.9999791524" cy="-865.9729401047" r="2" />
	<circle cx="0.0000000000" cy="-0.0000000000" r="2" />
	<circle cx="1000.0000000000" cy="-0.0000000000" r="2" />
	<circle cx="0.0000000000" cy="-0.0000000000" r="2" />
	<circle cx="999.9894107746" cy="-0.0061142945" r="2" />
	<circle cx="554.3154588649" cy="-769.8752517354" r="2" />
	<circle cx="0.0000182417" cy="-0.0000000076" r="2" />
	<circle cx="1000.0000000000" cy="-0.0000000000" r="2" />
	<circle cx="0.0094807800" cy="-0.0054734198" r="2" />
	<circle cx="0.0073048507" cy="-0.0042145260" r="2" />
	<circle cx="1000.0000000000" cy="-0.0000000000" r="2" />
	<circle cx="999.9999935608" cy="-0.0000111120" r="2" />
	<circle cx="0.0183330010" cy="-0.0105804049" r="2" />
	<circle cx="0.0002516227" cy="-0.0001381074" r="2" />
	<circle cx="0.0126902055" cy="-0.0073267165" r="2" />
	<circle cx="500.0000000000" cy="-866.0254038000" r="2" />
	<circle cx="500.0000000000" cy="-866.0254038000" r="2" />
	<circle cx="0.0000059021" cy="-0.0000037304" r="2" />
	<circle cx="999.9999999937" cy="-0.0000000036" r="2" />
	<circle cx="255.4781069555" cy="-0.8725439936" r="2" />
	<circle cx="500.0041339525" cy="-865.9945079191" r="2" />
	<circle cx="500.0000000000" cy="-866.0254038000" r="2" />
	<circle cx="500.0000000000" cy="-866.0254038000" r="2" />
	<circle cx="500.0000000000" cy="-866.0254038000" r="2" />
	<circle cx="0.0000000000" cy="-0.0000000000" r="2" />
	<circle cx="411.9507929511" cy="-227.8717634220" r="2" />
	<circle cx="1000.0000000000" cy="-0.0000000000" r="2" />
	<circle cx="500.0000000000" cy="-866.0254038000" r="2" />
	<circle cx="0.0000192398" cy="-0.0000111094" r="2" />
	<circle cx="500.0000000000" cy="-866.0254038000" r="2" />
	<circle cx="0.0000000000" cy="-0.0000000000" r="2" />
	<circle cx="0.2174708839" cy="-0.1256933096" r="2" />
	<circle cx="500.0000000000" cy="-866.0254038000" r="2" />
	<circle cx="494.1286755524" cy="-851.8360475167" r="2" />
	<circle cx="1000.0000000000" cy="-0.0000000000" r="2" />
	<circle cx="500.0000000000" cy="-866.0254038000" r="2" />
	<circle cx="999.9998240076" cy="-0.0001266805" r="2" />
	<circle cx="500.0001143634" cy="-865.7142209356" r="2" />
	<circle cx="499.9717279259" cy="-865.4042545444" r="2" />
	<circle cx="1000.0000000000" cy="-0.0000000000" r="2" />
	<circle cx="500.0000000000" cy="-866.0254038000" r="2" />
	<circle cx="0.0000000000" cy="-0.0000000000" r="2" />
	<circle cx="499.9999999982" cy="-866.0253971868" r="2" />
	<circle cx="46.7107805913" cy="-80.9053222436" r="2" />
	<circle cx="494.1393540366" cy="-394.2100523152" r="2" />
	<circle cx="0.0014881997" cy="-0.0008455640" r="2" />
	<circle cx="0.1362062153" cy="-0.0786865110" r="2" />
	<circle cx="892.0011121835" cy="-49.9324780457" r="2" />
	<circle cx="498.0761089863" cy="-295.9078659783" r="2" />
	<circle cx="999.9999999929" cy="-0.0000000000" r="2" />
	<circle cx="394.6115263952" cy="-679.7016006403" r="2" />
	<circle cx="500.1681275545" cy="-406.7028253994" r="2" />
	<circle cx="499.9999589042" cy="-865.9418816432" r="2" />
	<circle cx="494.5608545463" cy="-311.6905376730" r="2" />
	<circle cx="500.0000000000" cy="-866.0254038000" r="2" />
	<circle cx="999.9929656939" cy="-0.0040612681" r="2" />
	<circle cx="999.9767668856" cy="-0.0133894531" r="2" />
	<circle cx="0.0000000045" cy="-0.0000000026" r="2" />
	<circle cx="999.7302783458" cy="-0.1948280979" r="2" />
	<circle cx="1000.0000000000" cy="-0.0000000000" r="2" />
	<circle cx="500.1046585597" cy="-288.6910813657" r="2" />
	<circle cx="999.9995182683" cy="-0.0008336790" r="2" />
	<circle cx="500.0120256877" cy="-288.8142280304" r="2" />
	<circle cx="500.0000000000" cy="-866.0254038000" r="2" />
	<circle cx="500.0000000000" cy="-866.0254038000" r="2" />
	<circle cx="0.0000000000" cy="-0.0000000000" r="2" />
	<circle cx="500.0000131499" cy="-865.9695440312" r="2" />
	<circle cx="999.9999999999" cy="-0.0000000001" r="2" />
	<circle cx="500.0000168676" cy="-866.0231054655" r="2" />
	<circle cx="611.5535259163" cy="-4.8218754243" r="2" />
	<circle cx="0.0000000000" cy="-0.0000000000" r="2" />
	<circle cx="500.0000000000" cy="-866.0254038000" r="2" />
	<circle cx="1000.0000000000" cy="-0.0000000000" r="2" />
	<circle cx="0.0000001096" cy="-0.0000000636" r="2" />
	<circle cx="0.0000161160" cy="-0.0000039717" r="2" />
	<circle cx="506.1472873394" cy="-281.4601566042" r="2" />
	<circle cx="0.0000000000" cy="-0.0000000000" r="2" />
	<circle cx="495.1142867057" cy="-290.5762407833" r="2" />
	<circle cx="500.0000000000" cy="-866.0254038000" r="2" />
	<circle cx="500.0000000000" cy="-866.0254038000" r="2" />
	<circle cx="0.0014427818" cy="-0.0008326294" r="2" />
	<circle cx="500.0000000000" cy="-866.0254038000" r="2" />
	<circle cx="500.0000000000" cy="-866.0254038000" r="2" />
	<circle cx="500.0000000000" cy="-866.0254038000" r="2" />
	<circle cx="1000.0000000000" cy="-0.0000000000" r="2" />
	<circle cx="486.3995261161" cy="-838.9026846658" r="2" />
	<circle cx="1000.0000000000" cy="-0.0000000000" r="2" />
	<circle cx="999.9038645501" cy="-0.1665114836" r="2" />
	<circle cx="999.9695068358" cy="-0.0176277677" r="2" />
	<circle cx="999.9835593603" cy="-0.0094935496" r="2" />
	<circle cx="500.0140431925" cy="-865.9396413964" r="2" />
	<circle cx="500.0000000000" cy="-866.0254036860" r="2" />
	<circle cx="0.0000004035" cy="-0.0000001178" r="2" />
	<circle cx="0.3830534419" cy="-0.2571425271" r="2" />
	<circle cx="999.7290234165" cy="-0.1563875136" r="2" />
	<circle cx="21.3028288788" cy="-12.2950709555" r="2" />
	<circle cx="1000.0000000000" cy="-0.0000000000" r="2" />
	<circle cx="999.8643626955" cy="-0.0723110813" r="2" />
	<circle cx="999.9824723819" cy="-0.0101172260" r="2" />
	<circle cx="500.0000000000" cy="-866.0254038000" r="2" />
	<circle cx="0.0966665730" cy="-0.0000000000" r="2" />
	<circle cx="0.0023453939" cy="-0.0013551158" r="2" />
	<circle cx="999.5141909942" cy="-0.3781233556" r="2" />
	<circle cx="1000.0000000000" cy="-0.0000000000" r="2" />
	<circle cx="500.0000000000" cy="-866.0254038000" r="2" />
	<circle cx="500.0000000000" cy="-866.0254037994" r="2" />
	<circle cx="453.6110783804" cy="-242.6625992881" r="2" />
	<circle cx="0.4442334319" cy="-0.2566727160" r="2" />
	<circle cx="0.0000542672" cy="-0.0000313261" r="2" />
	<circle cx="32.5860909429" cy="-54.9431056612" r="2" />
	<circle cx="0.0000000000" cy="-0.0000000000" r="2" />
	<circle cx="500.0000000000" cy="-866.0254038000" r="2" />
	<circle cx="511.6573268330" cy="-281.9648507596" r="2" />
	<circle cx="499.9999999999" cy="-866.0254035231" r="2" />
	<circle cx="0.0000000000" cy="-0.0000000000" r="2" />
	<circle cx="0.0000130430" cy="-0.0000089257" r="2" />
	<circle cx="0.9262990884" cy="-0.5353243296" r="2" />
	<circle cx="0.4308170704" cy="-0.4841058823" r="2" />
	<circle cx="899.5671696191" cy="-169.8953031670" r="2" />
	<circle cx="0.0929166771" cy="-0.0536726776" r="2" />
	<circle cx="0.0000000000" cy="-0.0000000000" r="2" />
	<circle cx="999.6030284457" cy="-0.1788368699" r="2" />
	<circle cx="1000.0000000000" cy="-0.0000000000" r="2" />
	<circle cx="0.0000000000" cy="-0.0000000000" r="2" />
	<circle cx="13.6503440022" cy="-0.0000000000" r="2" />
	<circle cx="500.0000000000" cy="-866.0254038000" r="2" />
	<circle cx="1000.0000000000" cy="-0.0000000000" r="2" />
	<circle cx="999.9999492006" cy="-0.0000364522" r="2" />
	<circle cx="500.0000006251" cy="-866.0237917882" r="2" />
	<circle cx="499.9997934529" cy="-865.5204411589" r="2" />
	<circle cx="1000.0000000000" cy="-0.0000000000" r="2" />
	<circle cx="500.0000000000" cy="-866.0254038000" r="2" />
	<circle cx="1000.0000000000" cy="-0.0000000000" r="2" />
	<circle cx="500.0000000000" cy="-866.0254038000" r="2" />
	<circle cx="499.6129112045" cy="-307.7470984793" r="2" />
	<circle cx="999.8794744522" cy="-0.0695710552" r="2" />
	<circle cx="1000.0000000000" cy="-0.0000000000" r="2" />
	<circle cx="0.0737122388" cy="-0.0000219775" r="2" />
	<circle cx="500.0000000000" cy="-866.0254038000" r="2" />
	<circle cx="1000.0000000000" cy="-0.0000000000" r="2" />
	<circle cx="495.6038914115" cy="-858.4094806833" r="2" />
	<circle cx="0.0999356797" cy="-0.0663036542" r="2" />
	<circle cx="1.0570581830" cy="-0.6101776089" r="2" />
	<circle cx="474.7648120892" cy="-822.3154714306" r="2" />
	<circle cx="0.0000002418" cy="-0.0000001056" r="2" />
	<circle cx="0.0000000000" cy="-0.0000000000" r="2" />
	<circle cx="999.9999221393" cy="-0.0000449266" r="2" />
	<circle cx="0.0000000000" cy="-0.0000000000" r="2" />
	<circle cx="0.0000000000" cy="-0.0000000000" r="2" />
	<circle cx="1000.0000000000" cy="-0.0000000000" r="2" />
	<circle cx="1000.0000000000" cy="-0.0000000000" r="2" />
	<circle cx="500.0000000000" cy="-866.0254038000" r="2" />
	<circle cx="0.0075195365" cy="-0.0130241509" r="2" />
	<circle cx="999.9999997873" cy="-0.0000000887" r="2" />
	<circle cx="500.0000005457" cy="-866.0254028548" r="2" />
	<circle cx="27.9866409718" cy="-16.1688373955" r="2" />
	<circle cx="999.9996647376" cy="-0.0002371015" r="2" />
	<circle cx="499.9987650345" cy="-866.0232647770" r="2" />
	<circle cx="500.0000000009" cy="-866.0254016716" r="2" />
	<circle cx="0.1105416539" cy="-0.0644209367" r="2" />
	<circle cx="500.0000000000" cy="-866.0254038000" r="2" />
	<circle cx="0.0000000000" cy="-0.0000000000" r="2" />
	<circle cx="0.6419735287" cy="-0.2506250706" r="2" />
	<circle cx="500.0000003904" cy="-866.0252150779" r="2" />
	<circle cx="0.0000000000" cy="-0.0000000000" r="2" />
	<circle cx="0.0000476597" cy="-0.0000281954" r="2" />
	<circle cx="0.1338818737" cy="-0.2308620474" r="2" />
	<circle cx="500.0000000000" cy="-866.0254038000" r="2" />
	<circle cx="499.9996551082" cy="-865.9930941577" r="2" />
	<circle cx="0.0000000000" cy="-0.0000000000" r="2" />
	<circle cx="0.4046064608" cy="-0.2720041353" r="2" />
	<circle cx="0.0000000000" cy="-0.0000000000" r="2" />
	<circle cx="1000.0000000000" cy="-0.0000000000" r="2" />
	<circle cx="500.0000002436" cy="-866.0142143714" r="2" />
	<circle cx="500.0000189224" cy="-865.4767393267" r="2" />
	<circle cx="500.0000000000" cy="-866.0254038000" r="2" />
	<circle cx="0.0000000000" cy="-0.0000000000" r="2" />
	<circle cx="518.7129110523" cy="-286.3656890909" r="2" />
	<circle cx="435.4064836390" cy="-251.3098409606" r="2" />
	<circle cx="0.0000117944" cy="-0.0000068059" r="2" />
	<circle cx="0.0000005454" cy="-0.0000009447" r="2" />
	<circle cx="458.8571171387" cy="-263.6360605839" r="2" />
	<circle cx="1000.0000000000" cy="-0.0000000000" r="2" />
	<circle cx="0.0000000000" cy="-0.0000000000" r="2" />
	<circle cx="0.0042569530" cy="-0.0021844270" r="2" />
	<circle cx="500.0000000000" cy="-866.0254038000" r="2" />
	<circle cx="0.0046779942" cy="-0.0027022412" r="2" />
	<circle cx="500.0011957848" cy="-865.9063387463" r="2" />
	<circle cx="500.0000000000" cy="-866.0254038000" r="2" />
	<circle cx="548.3540983798" cy="-260.6649681283" r="2" />
	<circle cx="999.9999999982" cy="-0.0000000011" r="2" />
	<circle cx="999.9920363399" cy="-0.0000000000" r="2" />
	<circle cx="1000.0000000000" cy="-0.0000000000" r="2" />
	<circle cx="500.0000000000" cy="-866.0254037996" r="2" />
	<circle cx="0.1013060862" cy="-0.0585609922" r="2" />
	<circle cx="500.0000000000" cy="-866.0254038000" r="2" />
	<circle cx="0.0000000000" cy="-0.0000000000" r="2" />
	<circle cx="0.1911510477" cy="-0.0045106633" r="2" />
	<circle cx="500.0000000000" cy="-866.0254038000" r="2" />
	<circle cx="500.0000000000" cy="-866.0254037999" r="2" />
	<circle cx="500.0000000000" cy="-866.0254038000" r="2" />
	<circle cx="1000.0000000000" cy="-0.0000000000" r="2" />
	<circle cx="500.0000000000" cy="-866.0254038000" r="2" />
	<circle cx="388.1416233293" cy="-224.2710657044" r="2" />
	<circle cx="500.0000000000" cy="-866.0254038000" r="2" />
	<circle cx="0.0000000000" cy="-0.0000000000" r="2" />
	<circle cx="0.0000000000" cy="-0.0000000000" r="2" />
	<circle cx="500.0000000000" cy="-866.0254038000" r="2" />
	<circle cx="509.3847398422" cy="-283.2355404184" r="2" />
	<circle cx="0.0000000000" cy="-0.0000000000" r="2" />
	<circle cx="0.0000000000" cy="-0.0000000000" r="2" />
	<circle cx="500.0000000000" cy="-866.0254038000" r="2" />
	<circle cx="0.0395915088" cy="-0.0228768435" r="2" />
	<circle cx="0.0399872752" cy="-0.0231019602" r="2" />
	<circle cx="999.9998852501" cy="-0.0001987526" r="2" />
	<circle cx="0.0000000000" cy="-0.0000000000" r="2" />
	<circle cx="1000.0000000000" cy="-0.0000000000" r="2" />
	<circle cx="999.9999963064" cy="-0.0000021571" r="2" />
	<circle cx="0.0000000000" cy="-0.0000000000" r="2" />
	<circle cx="500.0000059857" cy="-866.0080151414" r="2" />
	<circle cx="0.0300369659" cy="-0.0173314305" r="2" />
	<circle cx="1000.0000000000" cy="-0.0000000000" r="2" />
	<circle cx="0.0000000000" cy="-0.0000000000" r="2" />
	<circle cx="500.0000000000" cy="-866.0254038000" r="2" />
	<circle cx="500.0000000374" cy="-866.0253190908" r="2" />
	<circle cx="449.6206380398" cy="-337.7329190021" r="2" />
	<circle cx="636.8789949372" cy="-156.3145242144" r="2" />
	<circle cx="522.8347573141" cy="-275.4258870067" r="2" />
	<circle cx="489.0694513516" cy="-282.3340951751" r="2" />
	<circle cx="386.5893696845" cy="-223.1519569731" r="2" />
	<circle cx="1000.0000000000" cy="-0.0000000000" r="2" />
	<circle cx="1000.0000000000" cy="-0.0000000000" r="2" />
	<circle cx="1000.0000000000" cy="-0.0000000000" r="2" />
	<circle cx="500.0000000642" cy="-866.0254032676" r="2" />
	<circle cx="325.8320314939" cy="-188.1034593325" r="2" />
	<circle cx="511.4800913095" cy="-321.3368749417" r="2" />
	<circle cx="994.3535831670" cy="-0.0000000000" r="2" />
	<circle cx="500.0000000000" cy="-866.0254038000" r="2" />
	<circle cx="0.5681466632" cy="-0.3305771145" r="2" />
	<circle cx="0.3075428985" cy="-0.1737567168" r="2" />
	<circle cx="1000.0000000000" cy="-0.0000000000" r="2" />
	<circle cx="1000.0000000000" cy="-0.0000000000" r="2" />
	<circle cx="0.0000000000" cy="-0.0000000000" r="2" />
	<circle cx="0.0000000000" cy="-0.0000000000" r="2" />
	<circle cx="500.0000000000" cy="-866.0254038000" r="2" />
	<circle cx="0.0000778529" cy="-0.0000449661" r="2" />
	<circle cx="1000.0000000000" cy="-0.0000000000" r="2" />
	<circle cx="1000.0000000000" cy="-0.0000000000" r="2" />
	<circle cx="220.6682385159" cy="-104.0664673694" r="2" />
	<circle cx="500.0000000000" cy="-866.0254038000" r="2" />
	<circle cx="0.1912335571" cy="-0.0045114939" r="2" />
	<circle cx="502.7938409676" cy="-860.7035280311" r="2" />
	<circle cx="499.9996649066" cy="-865.4074085466" r="2" />
	<circle cx="0.0000002128" cy="-0.0000000888" r="2" />
	<circle cx="586.5786774681" cy="-239.0757568072" r="2" />
	<circle cx="500.0000000000" cy="-866.0254038000" r="2" />
	<circle cx="0.0000000000" cy="-0.0000000000" r="2" />
	<circle cx="1000.0000000000" cy="-0.0000000000" r="2" />
	<circle cx="500.0000000000" cy="-866.0254038000" r="2" />
	<circle cx="335.6341658389" cy="-13.4516313894" r="2" />
	<circle cx="0.0009849073" cy="-0.0005698972" r="2" />
	<circle cx="512.7298090219" cy="-312.5900213822" r="2" />
	<circle cx="500.0000000000" cy="-866.0254038000" r="2" />
	<circle cx="56.5233702404" cy="-1.0225200995" r="2" />
	<circle cx="0.0000000000" cy="-0.0000000000" r="2" />
	<circle cx="535.9268952085" cy="-277.1560060854" r="2" />
	<circle cx="0.0000058886" cy="-0.0000035217" r="2" />
	<circle cx="1000.0000000000" cy="-0.0000000000" r="2" />
	<circle cx="999.9972185425" cy="-0.0016005823" r="2" />
	<circle cx="500.0000000000" cy="-866.0254038000" r="2" />
	<circle cx="998.7343305582" cy="-2.1920233096" r="2" />
	<circle cx="1000.0000000000" cy="-0.0000000000" r="2" />
	<circle cx="1000.0000000000" cy="-0.0000000000" r="2" />
	<circle cx="0.1286086453" cy="-0.1014065874" r="2" />
	<circle cx="0.0000000000" cy="-0.0000000000" r="2" />
	<circle cx="1000.0000000000" cy="-0.0000000000" r="2" />
	<circle cx="0.0000000001" cy="-0.0000000001" r="2" />
	<circle cx="1000.0000000000" cy="-0.0000000000" r="2" />
	<circle cx="0.0000033658" cy="-0.0000019448" r="2" />
	<circle cx="999.9997546178" cy="-0.0001488594" r="2" />
	<circle cx="0.0000000000" cy="-0.0000000000" r="2" />
	<circle cx="500.0000000000" cy="-866.0254038000" r="2" />
	<circle cx="999.6551631252" cy="-0.1991639569" r="2" />
	<circle cx="1000.0000000000" cy="-0.0000000000" r="2" />
	<circle cx="1000.0000000000" cy="-0.0000000000" r="2" />
	<circle cx="0.1659180100" cy="-0.2868021331" r="2" />
  </g>
  <g id="fig2" transform="translate(-550.0,1000)">
	<polygon points="0.0,-0.0 1000.0,-0.0 500.0,-866.0254038" />
	<line
	   id="line2-1"
	   y2="-0.0"
	   x2="500"
	   y1="-288.6751346"
	   x1="500" />
	<line
	   id="line2-2"
	   y2="-433.0127019"
	   x2="250"
	   y1="-288.6751346"
	   x1="500" />
	<line
	   id="line2-3"
	   y2="-433.0127019"
	   x2="750"
	   y1="-288.6751346"
	   x1="500" />
	<text
	   x="440"
	   y="-500"
	   id="up_2">34.6%</text>
	<text
	   x="250"
	   y="-150"
	   id="down_left_2">34.2%</text>
	<text
	   x="630"
	   y="-150"
	   id="down_right_2">31.2%</text>
  </g>
  <g id="fig3" transform="translate(550,1000)">
	<polygon points="0.0,-0.0 1000.0,-0.0 500.0,-866.0254038" />
	<polygon id="triangle3b" points="250,-144.3375673 750,-144.3375673 500,-577.3502692" />
	<line
	   id="line3-1"
	   x1="125"
	   y1="-216.5063509"
	   x2="250"
	   y2="-144.3375673" />
	<line
	   id="line3-2"
	   x1="375"
	   y1="-649.5190528"
	   x2="500"
	   y2="-577.3502692" />
	<line
	   id="line3-3"
	   x1="625"
	   y1="-649.5190528"
	   x2="500"
	   y2="-577.3502692" />
	<line
	   id="line3-4"
	   x1="875"
	   y1="-216.5063509"
	   x2="750"
	   y2="-144.3375673" />
	<line
	   id="line3-5"
	   x1="750"
	   y1="-0.0"
	   x2="750"
	   y2="-144.3375673" />
	<line
	   id="line3-6"
	   x1="250"
	   y1="-0.0"
	   x2="250"
	   y2="-144.3375673" />
	<text
	   x="500"
	   y="-660"
	   text-anchor="middle"
	   id="up_3">31.4%</text>
	<text
	   y="-50"
	   x="70"
	   id="down_left_3">31.4%</text>
	<text
	   y="-50"
	   x="770"
	   id="down_right_3">28.2%</text>
	<text
	   x="500"
	   y="-50"
	   text-anchor="middle"
	   id="down_side_3">0.6%</text>
	<text
	   x="500"
	   y="-280"
	   text-anchor="middle"
	   id="center_3">8.0%</text>
	<text
	   x="685.0"
	   y="-390.8439"
	   text-anchor="middle"
	   transform="rotate(60,665.0,-380.8439)"
	   id="right_side_3">0.2%</text>
	<text
	   x="315.0"
	   y="-390.8439"
	   text-anchor="middle"
	   transform="rotate(-60,335.0,-380.8439)"
	   id="left_side_3">0.2%</text>
  </g>
</g></g>
</svg>
