<?xml version="1.0" encoding="UTF-8" standalone="no"?>
<!DOCTYPE svg PUBLIC "-//W3C//DTD SVG 1.1//EN" "http://www.w3.org/Graphics/SVG/1.1/DTD/svg11.dtd">
<svg
   xmlns:svg="http://www.w3.org/2000/svg"
   xmlns="http://www.w3.org/2000/svg"
   xmlns:xlink="http://www.w3.org/1999/xlink"
   version="1.1"
   baseProfile="full"
   id="body"
   width="800px"
   height="800px"
   viewBox="0 0 1000 1000"
   preserveAspectRatio="none">
  <defs>
    <style type="text/css"><![CDATA[
      circle{ stroke: none; }
      polygon{ stroke: black; stroke-width: 2px; fill: none; }
      line{ stroke: black; stroke-width: 2px; }
      text{ font-size:50px; }
    ]]></style>
  </defs>
  <title
     id="title1">SVG drawing</title>
<g transform="scale(0.45)"><g transform="translate(600,1050)">
  <g id="fig1">
	<polygon points="0.0,-0.0 1000.0,-0.0 500,-866.0254038" />
	<circle cx="500.0000000000" cy="-866.0254038000" r="2" />
	<circle cx="0.0000000043" cy="-0.0000000037" r="2" />
	<circle cx="499.9884980978" cy="-861.1737387385" r="2" />
	<circle cx="999.9999998350" cy="-0.0000000039" r="2" />
	<circle cx="999.9999998293" cy="-0.0000001292" r="2" />
	<circle cx="1000.0000000000" cy="-0.0000000000" r="2" />
	<circle cx="0.6434017720" cy="-0.3975398924" r="2" />
	<circle cx="1000.0000000000" cy="-0.0000000000" r="2" />
	<circle cx="0.0000000000" cy="-0.0000000000" r="2" />
	<circle cx="0.1444990604" cy="-0.0840782001" r="2" />
	<circle cx="1.9035848577" cy="-1.0957277014" r="2" />
	<circle cx="499.9999998974" cy="-866.0253669644" r="2" />
	<circle cx="499.9999925733" cy="-866.0247917906" r="2" />
	<circle cx="0.0000000007" cy="-0.0000000005" r="2" />
	<circle cx="499.8137394796" cy="-863.1149787216" r="2" />
	<circle cx="999.9999981352" cy="-0.0000010766" r="2" />
	<circle cx="1000.0000000000" cy="-0.0000000000" r="2" />
	<circle cx="0.0000000000" cy="-0.0000000000" r="2" />
	<circle cx="16.8010937687" cy="-0.5034143035" r="2" />
	<circle cx="0.0142933244" cy="-0.0081622256" r="2" />
	<circle cx="989.9672289367" cy="-1.8248716927" r="2" />
	<circle cx="500.0000000000" cy="-866.0254038000" r="2" />
	<circle cx="0.0000000000" cy="-0.0000000000" r="2" />
	<circle cx="0.0000000000" cy="-0.0000000000" r="2" />
	<circle cx="499.9999388347" cy="-866.0251171850" r="2" />
	<circle cx="500.0000000000" cy="-866.0254038000" r="2" />
	<circle cx="973.4779085165" cy="-30.0779192562" r="2" />
	<circle cx="0.0000000000" cy="-0.0000000000" r="2" />
	<circle cx="499.9999998987" cy="-866.0254011532" r="2" />
	<circle cx="1000.0000000000" cy="-0.0000000000" r="2" />
	<circle cx="294.6852633755" cy="-345.3561118732" r="2" />
	<circle cx="41.1907788152" cy="-20.9395497394" r="2" />
	<circle cx="1000.0000000000" cy="-0.0000000000" r="2" />
	<circle cx="999.9999994504" cy="-0.0000001450" r="2" />
	<circle cx="999.9999999947" cy="-0.0000000030" r="2" />
	<circle cx="622.6221085508" cy="-477.7727287845" r="2" />
	<circle cx="1000.0000000000" cy="-0.0000000000" r="2" />
	<circle cx="0.0000000314" cy="-0.0000000002" r="2" />
	<circle cx="568.6176489807" cy="-372.5147180386" r="2" />
	<circle cx="482.2746389990" cy="-736.7013724560" r="2" />
	<circle cx="998.1721470068" cy="-0.6784164819" r="2" />
	<circle cx="500.0000523979" cy="-859.9765972733" r="2" />
	<circle cx="0.0000000000" cy="-0.0000000000" r="2" />
	<circle cx="0.2615626023" cy="-0.2891857254" r="2" />
	<circle cx="0.0000041212" cy="-0.0000000334" r="2" />
	<circle cx="972.3179263242" cy="-46.9813875115" r="2" />
	<circle cx="500.0000000000" cy="-866.0254038000" r="2" />
	<circle cx="999.9999970135" cy="-0.0000017219" r="2" />
	<circle cx="0.0000000000" cy="-0.0000000000" r="2" />
	<circle cx="999.9995333591" cy="-0.0002681468" r="2" />
	<circle cx="705.3364000177" cy="-118.2201835845" r="2" />
	<circle cx="34.2871127741" cy="-15.7420705580" r="2" />
	<circle cx="0.0000005684" cy="-0.0000000002" r="2" />
	<circle cx="500.0000000000" cy="-866.0254037999" r="2" />
	<circle cx="0.1587486728" cy="-0.0407493835" r="2" />
	<circle cx="500.0000000000" cy="-866.0254036367" r="2" />
	<circle cx="0.0051172413" cy="-0.0038221923" r="2" />
	<circle cx="500.0000000000" cy="-866.0254038000" r="2" />
	<circle cx="475.2027110252" cy="-775.2853254386" r="2" />
	<circle cx="500.0000000000" cy="-866.0254038000" r="2" />
	<circle cx="999.9999999937" cy="-0.0000000035" r="2" />
	<circle cx="692.7754186946" cy="-35.2393713476" r="2" />
	<circle cx="0.0000000000" cy="-0.0000000000" r="2" />
	<circle cx="0.0000206537" cy="-0.0000120108" r="2" />
	<circle cx="500.0000000000" cy="-866.0254038000" r="2" />
	<circle cx="0.0000000000" cy="-0.0000000000" r="2" />
	<circle cx="247.1882276685" cy="-160.0612770321" r="2" />
	<circle cx="1000.0000000000" cy="-0.0000000000" r="2" />
	<circle cx="499.8799486551" cy="-865.6547131736" r="2" />
	<circle cx="0.0000000000" cy="-0.0000000000" r="2" />
	<circle cx="499.2164285122" cy="-859.4976389758" r="2" />
	<circle cx="0.0000000000" cy="-0.0000000000" r="2" />
	<circle cx="398.0245236816" cy="-251.7892102689" r="2" />
	<circle cx="500.0000002246" cy="-866.0254032384" r="2" />
	<circle cx="0.0000001129" cy="-0.0000000652" r="2" />
	<circle cx="999.3342630626" cy="-0.3582623362" r="2" />
	<circle cx="0.9004593228" cy="-0.5724134338" r="2" />
	<circle cx="500.0000000000" cy="-866.0254038000" r="2" />
	<circle cx="1000.0000000000" cy="-0.0000000000" r="2" />
	<circle cx="999.9978307388" cy="-0.0001447923" r="2" />
	<circle cx="0.0091105167" cy="-0.0068218950" r="2" />
	<circle cx="37.1478635412" cy="-16.6094487621" r="2" />
	<circle cx="1000.0000000000" cy="-0.0000000000" r="2" />
	<circle cx="306.0435655082" cy="-303.9711317819" r="2" />
	<circle cx="500.0000000000" cy="-866.0254038000" r="2" />
	<circle cx="500.0000544530" cy="-866.0247018842" r="2" />
	<circle cx="999.9981063346" cy="-0.0010891686" r="2" />
	<circle cx="500.1253904011" cy="-858.4015753357" r="2" />
	<circle cx="998.5395910462" cy="-0.8211200248" r="2" />
	<circle cx="483.9362577758" cy="-831.6532570944" r="2" />
	<circle cx="999.9999999596" cy="-0.0000000294" r="2" />
	<circle cx="999.9446246539" cy="-0.0100302694" r="2" />
	<circle cx="1000.0000000000" cy="-0.0000000000" r="2" />
	<circle cx="23.3228299989" cy="-11.1010610362" r="2" />
	<circle cx="999.9999959647" cy="-0.0000023303" r="2" />
	<circle cx="500.0000000000" cy="-866.0254038000" r="2" />
	<circle cx="304.2910598353" cy="-362.4814651797" r="2" />
	<circle cx="483.3612710237" cy="-321.4047878932" r="2" />
	<circle cx="232.8639062526" cy="-155.1099074283" r="2" />
	<circle cx="0.0000000000" cy="-0.0000000000" r="2" />
	<circle cx="0.0234118351" cy="-0.0020793571" r="2" />
	<circle cx="1000.0000000000" cy="-0.0000000000" r="2" />
	<circle cx="1000.0000000000" cy="-0.0000000000" r="2" />
	<circle cx="715.8144135628" cy="-399.7416945208" r="2" />
	<circle cx="0.0000000000" cy="-0.0000000000" r="2" />
	<circle cx="0.0000000000" cy="-0.0000000000" r="2" />
	<circle cx="500.0000000000" cy="-866.0254038000" r="2" />
	<circle cx="140.0201927433" cy="-45.9073063527" r="2" />
	<circle cx="988.0923475571" cy="-10.0791920061" r="2" />
	<circle cx="0.0000000000" cy="-0.0000000000" r="2" />
	<circle cx="546.0237026922" cy="-746.2224060690" r="2" />
	<circle cx="500.0000000000" cy="-866.0254038000" r="2" />
	<circle cx="0.0000000000" cy="-0.0000000000" r="2" />
	<circle cx="500.0000000000" cy="-866.0254036480" r="2" />
	<circle cx="999.9999996111" cy="-0.0000000001" r="2" />
	<circle cx="522.1595827113" cy="-175.5120010532" r="2" />
	<circle cx="500.0000000000" cy="-866.0254038000" r="2" />
	<circle cx="500.0000000000" cy="-866.0254038000" r="2" />
	<circle cx="999.9947025677" cy="-0.0030584251" r="2" />
	<circle cx="499.9999999999" cy="-866.0253991187" r="2" />
	<circle cx="500.9588344536" cy="-861.2173274773" r="2" />
	<circle cx="0.0000000000" cy="-0.0000000000" r="2" />
	<circle cx="1000.0000000000" cy="-0.0000000000" r="2" />
	<circle cx="943.6654302815" cy="-5.9105770293" r="2" />
	<circle cx="50.2062546741" cy="-19.9598157055" r="2" />
	<circle cx="500.0000000000" cy="-866.0254038000" r="2" />
	<circle cx="1000.0000000000" cy="-0.0000000000" r="2" />
	<circle cx="997.5390301665" cy="-2.1161306099" r="2" />
	<circle cx="0.0000000000" cy="-0.0000000000" r="2" />
	<circle cx="1000.0000000000" cy="-0.0000000000" r="2" />
	<circle cx="7.5352117122" cy="-4.5869918540" r="2" />
	<circle cx="0.0000000000" cy="-0.0000000000" r="2" />
	<circle cx="0.1576715329" cy="-0.2730613965" r="2" />
	<circle cx="999.7059570157" cy="-0.1671065340" r="2" />
	<circle cx="0.0000280819" cy="-0.0000110105" r="2" />
	<circle cx="999.9955264575" cy="-0.0025829295" r="2" />
	<circle cx="1000.0000000000" cy="-0.0000000000" r="2" />
	<circle cx="500.0000000000" cy="-866.0254038000" r="2" />
	<circle cx="500.0000000000" cy="-866.0254038000" r="2" />
	<circle cx="999.9946367668" cy="-0.0031249366" r="2" />
	<circle cx="1000.0000000000" cy="-0.0000000000" r="2" />
	<circle cx="0.0000345019" cy="-0.0000199196" r="2" />
	<circle cx="1000.0000000000" cy="-0.0000000000" r="2" />
	<circle cx="0.0000000000" cy="-0.0000000000" r="2" />
	<circle cx="500.0000000000" cy="-866.0254038000" r="2" />
	<circle cx="500.0000000000" cy="-866.0254038000" r="2" />
	<circle cx="500.9310377442" cy="-857.6749554437" r="2" />
	<circle cx="1000.0000000000" cy="-0.0000000000" r="2" />
	<circle cx="0.0000000000" cy="-0.0000000000" r="2" />
	<circle cx="282.4991375256" cy="-98.8853548296" r="2" />
	<circle cx="1000.0000000000" cy="-0.0000000000" r="2" />
	<circle cx="659.5308332693" cy="-87.5563510468" r="2" />
	<circle cx="500.0000000000" cy="-866.0254038000" r="2" />
	<circle cx="0.0000000000" cy="-0.0000000000" r="2" />
	<circle cx="13.2925772532" cy="-7.6301369371" r="2" />
	<circle cx="1000.0000000000" cy="-0.0000000000" r="2" />
	<circle cx="490.2138898496" cy="-583.3187120095" r="2" />
	<circle cx="0.0000000000" cy="-0.0000000000" r="2" />
	<circle cx="499.9999999985" cy="-866.0253979701" r="2" />
	<circle cx="499.9998768410" cy="-865.9981136785" r="2" />
	<circle cx="999.9878531377" cy="-0.0014993644" r="2" />
	<circle cx="500.0000000000" cy="-866.0254037974" r="2" />
	<circle cx="7.0944167594" cy="-3.1354657484" r="2" />
	<circle cx="51.4866620193" cy="-0.4329837672" r="2" />
	<circle cx="7.9169136096" cy="-4.5430373891" r="2" />
	<circle cx="499.8757887234" cy="-865.2353471952" r="2" />
	<circle cx="33.0295002392" cy="-18.4300236538" r="2" />
	<circle cx="499.9684293216" cy="-860.3060920591" r="2" />
	<circle cx="0.0001008616" cy="-0.0000582299" r="2" />
	<circle cx="500.0000000000" cy="-866.0254038000" r="2" />
	<circle cx="500.3347039699" cy="-858.1830842686" r="2" />
	<circle cx="503.3664128209" cy="-801.4100062078" r="2" />
	<circle cx="516.4360659842" cy="-793.9384723957" r="2" />
	<circle cx="1000.0000000000" cy="-0.0000000000" r="2" />
	<circle cx="0.0000673589" cy="-0.0000436089" r="2" />
	<circle cx="999.9355196644" cy="-0.0263143447" r="2" />
	<circle cx="55.2180291636" cy="-56.9167488125" r="2" />
	<circle cx="500.0017584459" cy="-865.6836654007" r="2" />
	<circle cx="500.0000000000" cy="-866.0254038000" r="2" />
	<circle cx="0.0000000000" cy="-0.0000000000" r="2" />
	<circle cx="501.2337527646" cy="-863.4368919145" r="2" />
	<circle cx="500.0000000000" cy="-866.0254038000" r="2" />
	<circle cx="1000.0000000000" cy="-0.0000000000" r="2" />
	<circle cx="1000.0000000000" cy="-0.0000000000" r="2" />
	<circle cx="500.0000000000" cy="-866.0254038000" r="2" />
	<circle cx="988.3262675681" cy="-5.2745320424" r="2" />
	<circle cx="500.0038831033" cy="-865.7760307232" r="2" />
	<circle cx="1000.0000000000" cy="-0.0000000000" r="2" />
	<circle cx="1000.0000000000" cy="-0.0000000000" r="2" />
	<circle cx="1000.0000000000" cy="-0.0000000000" r="2" />
	<circle cx="959.6090584133" cy="-23.3214549806" r="2" />
	<circle cx="496.7107140390" cy="-842.7672817476" r="2" />
	<circle cx="500.0000000000" cy="-866.0254038000" r="2" />
	<circle cx="973.1350166514" cy="-10.7703031385" r="2" />
	<circle cx="0.0000000000" cy="-0.0000000000" r="2" />
	<circle cx="959.3957132648" cy="-25.0112616280" r="2" />
	<circle cx="500.0000000000" cy="-866.0254038000" r="2" />
	<circle cx="499.9999999835" cy="-866.0220347282" r="2" />
	<circle cx="495.5370372711" cy="-854.9099162448" r="2" />
	<circle cx="500.0000000000" cy="-866.0254038000" r="2" />
	<circle cx="1000.0000000000" cy="-0.0000000000" r="2" />
	<circle cx="0.0000217576" cy="-0.0000124703" r="2" />
	<circle cx="65.0269868662" cy="-49.2202959664" r="2" />
	<circle cx="500.0000000000" cy="-866.0254038000" r="2" />
	<circle cx="0.1221664193" cy="-0.0526988286" r="2" />
	<circle cx="0.0000000000" cy="-0.0000000000" r="2" />
	<circle cx="500.0016790599" cy="-819.3863223172" r="2" />
	<circle cx="0.0072156768" cy="-0.0041682151" r="2" />
	<circle cx="992.6326589177" cy="-4.7510798775" r="2" />
	<circle cx="26.1492076527" cy="-11.2485906399" r="2" />
	<circle cx="500.0000000000" cy="-866.0254038000" r="2" />
	<circle cx="29.4667046436" cy="-17.0763202625" r="2" />
	<circle cx="500.0000000000" cy="-866.0254038000" r="2" />
	<circle cx="0.0000747116" cy="-0.0000271739" r="2" />
	<circle cx="0.0001745680" cy="-0.0001008563" r="2" />
	<circle cx="186.8977009602" cy="-289.0305981987" r="2" />
	<circle cx="507.5259960705" cy="-852.9898910647" r="2" />
	<circle cx="990.8792767015" cy="-13.5956668456" r="2" />
	<circle cx="0.0000000000" cy="-0.0000000000" r="2" />
	<circle cx="524.2851717314" cy="-811.1366125598" r="2" />
	<circle cx="0.0000028823" cy="-0.0000016642" r="2" />
	<circle cx="744.4729619415" cy="-293.8268141196" r="2" />
	<circle cx="1000.0000000000" cy="-0.0000000000" r="2" />
	<circle cx="500.0000000000" cy="-866.0254038000" r="2" />
	<circle cx="0.0000000000" cy="-0.0000000000" r="2" />
	<circle cx="480.5246854621" cy="-603.3988353579" r="2" />
	<circle cx="499.9999999852" cy="-866.0254022544" r="2" />
	<circle cx="614.1750791813" cy="-329.4640321352" r="2" />
	<circle cx="500.0000000000" cy="-866.0254038000" r="2" />
	<circle cx="600.5695261611" cy="-153.7134540206" r="2" />
	<circle cx="953.4346683049" cy="-26.0096927609" r="2" />
	<circle cx="435.7568412369" cy="-448.6550040776" r="2" />
	<circle cx="1.1434066497" cy="-0.2301631082" r="2" />
	<circle cx="46.7717932411" cy="-25.3769204219" r="2" />
	<circle cx="500.0000000000" cy="-866.0254038000" r="2" />
	<circle cx="999.9989766727" cy="-0.0009892465" r="2" />
	<circle cx="10.7253288758" cy="-6.6282372030" r="2" />
	<circle cx="1.8300255481" cy="-0.6782608882" r="2" />
	<circle cx="1000.0000000000" cy="-0.0000000000" r="2" />
	<circle cx="499.9995913302" cy="-866.0245730982" r="2" />
	<circle cx="500.0000000000" cy="-866.0254038000" r="2" />
	<circle cx="500.3855517129" cy="-858.7010509536" r="2" />
	<circle cx="501.6220893806" cy="-808.2275788410" r="2" />
	<circle cx="1000.0000000000" cy="-0.0000000000" r="2" />
	<circle cx="124.4695011740" cy="-183.5249724503" r="2" />
	<circle cx="0.0000399533" cy="-0.0000230985" r="2" />
	<circle cx="0.0000000015" cy="-0.0000000009" r="2" />
	<circle cx="0.0000000000" cy="-0.0000000000" r="2" />
	<circle cx="501.2303491588" cy="-160.5700004728" r="2" />
	<circle cx="0.0000000000" cy="-0.0000000000" r="2" />
	<circle cx="498.8867218934" cy="-848.7983227690" r="2" />
	<circle cx="999.9994438174" cy="-0.0003153817" r="2" />
	<circle cx="500.0000000000" cy="-866.0254038000" r="2" />
	<circle cx="500.0000000000" cy="-866.0254038000" r="2" />
	<circle cx="1000.0000000000" cy="-0.0000000000" r="2" />
	<circle cx="113.4410708919" cy="-59.9122484188" r="2" />
	<circle cx="6.8209071706" cy="-3.5807203355" r="2" />
	<circle cx="500.0000000000" cy="-866.0254038000" r="2" />
	<circle cx="396.9510221003" cy="-595.8785777878" r="2" />
	<circle cx="500.0000000000" cy="-866.0254038000" r="2" />
	<circle cx="0.3122637606" cy="-0.1811685545" r="2" />
	<circle cx="0.0000027725" cy="-0.0000016007" r="2" />
	<circle cx="500.6775457001" cy="-859.7926722485" r="2" />
	<circle cx="509.5035216538" cy="-720.3943339092" r="2" />
	<circle cx="500.0000000000" cy="-866.0254037999" r="2" />
	<circle cx="1000.0000000000" cy="-0.0000000000" r="2" />
	<circle cx="500.0000000000" cy="-866.0254038000" r="2" />
	<circle cx="0.0000000001" cy="-0.0000000000" r="2" />
	<circle cx="1000.0000000000" cy="-0.0000000000" r="2" />
	<circle cx="494.5323549772" cy="-825.8822038200" r="2" />
	<circle cx="499.9999999999" cy="-866.0254037986" r="2" />
	<circle cx="999.9999999996" cy="-0.0000000001" r="2" />
	<circle cx="1000.0000000000" cy="-0.0000000000" r="2" />
	<circle cx="996.0190842289" cy="-1.4132094246" r="2" />
	<circle cx="500.0000000000" cy="-866.0254038000" r="2" />
	<circle cx="80.3630162133" cy="-46.1127377196" r="2" />
	<circle cx="0.0000000000" cy="-0.0000000000" r="2" />
	<circle cx="540.2217008831" cy="-707.7106587162" r="2" />
	<circle cx="1000.0000000000" cy="-0.0000000000" r="2" />
	<circle cx="0.0000094915" cy="-0.0000059942" r="2" />
	<circle cx="0.0000000725" cy="-0.0000000235" r="2" />
	<circle cx="500.0009184519" cy="-865.8380863037" r="2" />
	<circle cx="1000.0000000000" cy="-0.0000000000" r="2" />
	<circle cx="999.9999032502" cy="-0.0000498798" r="2" />
	<circle cx="0.0000493928" cy="-0.0000285777" r="2" />
	<circle cx="999.5940010297" cy="-0.2344674480" r="2" />
	<circle cx="174.8236096161" cy="-188.9960980287" r="2" />
	<circle cx="500.0000000000" cy="-866.0254038000" r="2" />
	<circle cx="999.9995665538" cy="-0.0002504630" r="2" />
	<circle cx="0.0000000000" cy="-0.0000000000" r="2" />
	<circle cx="250.0228392610" cy="-40.5851223673" r="2" />
	<circle cx="0.0000000000" cy="-0.0000000000" r="2" />
	<circle cx="500.0000000000" cy="-866.0254026488" r="2" />
	<circle cx="0.0048586498" cy="-0.0028130666" r="2" />
	<circle cx="0.0000000000" cy="-0.0000000000" r="2" />
	<circle cx="999.2931841183" cy="-0.4570413291" r="2" />
	<circle cx="999.9990238474" cy="-0.0005634448" r="2" />
	<circle cx="999.9999974263" cy="-0.0000004005" r="2" />
	<circle cx="500.0000000000" cy="-866.0254038000" r="2" />
	<circle cx="500.0000000000" cy="-866.0254038000" r="2" />
	<circle cx="1000.0000000000" cy="-0.0000000000" r="2" />
	<circle cx="999.9999949815" cy="-0.0000029305" r="2" />
	<circle cx="999.8720387542" cy="-0.0110349632" r="2" />
	<circle cx="1000.0000000000" cy="-0.0000000000" r="2" />
	<circle cx="382.5147177281" cy="-526.0351296813" r="2" />
	<circle cx="500.0000000000" cy="-866.0254038000" r="2" />
	<circle cx="0.0002164100" cy="-0.0001248008" r="2" />
	<circle cx="0.0000000000" cy="-0.0000000000" r="2" />
	<circle cx="0.0000003860" cy="-0.0000002263" r="2" />
	<circle cx="529.8621005125" cy="-784.1220057327" r="2" />
	<circle cx="0.0000000000" cy="-0.0000000000" r="2" />
	<circle cx="998.0132951019" cy="-1.0215823744" r="2" />
	<circle cx="499.9999984380" cy="-866.0230414116" r="2" />
	<circle cx="500.0000000000" cy="-866.0254038000" r="2" />
	<circle cx="500.0000000000" cy="-866.0254038000" r="2" />
	<circle cx="189.5392333365" cy="-234.2679550943" r="2" />
	<circle cx="1000.0000000000" cy="-0.0000000000" r="2" />
	<circle cx="2.0159711559" cy="-0.8608276920" r="2" />
	<circle cx="999.4209033995" cy="-0.1440188610" r="2" />
	<circle cx="500.3938921897" cy="-854.2685890333" r="2" />
	<circle cx="960.8496084370" cy="-22.5809213750" r="2" />
	<circle cx="0.0000000000" cy="-0.0000000000" r="2" />
	<circle cx="500.0001085215" cy="-865.9436158846" r="2" />
	<circle cx="954.6810206914" cy="-27.9398613311" r="2" />
	<circle cx="500.0000000000" cy="-866.0254038000" r="2" />
	<circle cx="499.9999867504" cy="-866.0248766154" r="2" />
	<circle cx="227.5791073867" cy="-351.0458422239" r="2" />
	<circle cx="999.6179263641" cy="-0.2822247610" r="2" />
	<circle cx="999.9999999997" cy="-0.0000000002" r="2" />
	<circle cx="0.0000000000" cy="-0.0000000000" r="2" />
	<circle cx="500.0000000000" cy="-866.0254038000" r="2" />
	<circle cx="499.9999999722" cy="-866.0254034205" r="2" />
	<circle cx="500.0000000000" cy="-866.0254038000" r="2" />
	<circle cx="499.9896477262" cy="-863.2525140713" r="2" />
	<circle cx="0.0000000000" cy="-0.0000000000" r="2" />
	<circle cx="0.5038108720" cy="-0.2612601718" r="2" />
	<circle cx="500.0001885149" cy="-866.0222231884" r="2" />
	<circle cx="1000.0000000000" cy="-0.0000000000" r="2" />
	<circle cx="500.0000014446" cy="-865.9431671119" r="2" />
	<circle cx="999.9999537614" cy="-0.0000298316" r="2" />
	<circle cx="500.0000000000" cy="-866.0254038000" r="2" />
	<circle cx="999.9999999901" cy="-0.0000000057" r="2" />
	<circle cx="999.9999999704" cy="-0.0000000171" r="2" />
	<circle cx="999.9247822579" cy="-0.1048700873" r="2" />
	<circle cx="1000.0000000000" cy="-0.0000000000" r="2" />
	<circle cx="981.4995174986" cy="-14.4746254315" r="2" />
	<circle cx="1000.0000000000" cy="-0.0000000000" r="2" />
	<circle cx="457.9899836683" cy="-789.8120133859" r="2" />
	<circle cx="458.6463927712" cy="-554.9806047489" r="2" />
	<circle cx="1000.0000000000" cy="-0.0000000000" r="2" />
	<circle cx="1000.0000000000" cy="-0.0000000000" r="2" />
	<circle cx="499.9999999997" cy="-866.0254001751" r="2" />
	<circle cx="1000.0000000000" cy="-0.0000000000" r="2" />
	<circle cx="852.7822966774" cy="-253.2267646010" r="2" />
	<circle cx="32.8898309536" cy="-18.2352063400" r="2" />
	<circle cx="999.9999999310" cy="-0.0000000398" r="2" />
	<circle cx="500.0000000000" cy="-866.0254038000" r="2" />
	<circle cx="0.0000000000" cy="-0.0000000000" r="2" />
	<circle cx="499.9088914850" cy="-648.1974805686" r="2" />
	<circle cx="447.6751464190" cy="-98.2847703368" r="2" />
	<circle cx="500.0000000000" cy="-866.0254038000" r="2" />
	<circle cx="1000.0000000000" cy="-0.0000000000" r="2" />
	<circle cx="0.0005270514" cy="-0.0003132958" r="2" />
	<circle cx="1000.0000000000" cy="-0.0000000000" r="2" />
	<circle cx="0.0000051976" cy="-0.0000030019" r="2" />
	<circle cx="521.0764127655" cy="-598.8682874885" r="2" />
	<circle cx="999.4568024778" cy="-0.0896787025" r="2" />
	<circle cx="1000.0000000000" cy="-0.0000000000" r="2" />
	<circle cx="0.0000000000" cy="-0.0000000000" r="2" />
	<circle cx="500.0000130334" cy="-859.8526456460" r="2" />
	<circle cx="999.9403537744" cy="-0.0342372231" r="2" />
	<circle cx="1000.0000000000" cy="-0.0000000000" r="2" />
	<circle cx="499.9998698094" cy="-866.0155948069" r="2" />
	<circle cx="0.0000000008" cy="-0.0000000003" r="2" />
	<circle cx="0.0000000000" cy="-0.0000000000" r="2" />
	<circle cx="1000.0000000000" cy="-0.0000000000" r="2" />
	<circle cx="1000.0000000000" cy="-0.0000000000" r="2" />
	<circle cx="0.0000000000" cy="-0.0000000000" r="2" />
	<circle cx="986.6410770656" cy="-5.5822511002" r="2" />
	<circle cx="0.0000000007" cy="-0.0000000004" r="2" />
	<circle cx="602.9459614831" cy="-596.1121441617" r="2" />
	<circle cx="494.2352411914" cy="-854.0439244450" r="2" />
	<circle cx="500.0000000000" cy="-866.0254038000" r="2" />
	<circle cx="1000.0000000000" cy="-0.0000000000" r="2" />
	<circle cx="5.7150949859" cy="-2.5293046250" r="2" />
	<circle cx="499.9993843936" cy="-866.0155619913" r="2" />
	<circle cx="500.0000000000" cy="-866.0254038000" r="2" />
	<circle cx="0.0000000000" cy="-0.0000000000" r="2" />
	<circle cx="0.0000000000" cy="-0.0000000000" r="2" />
	<circle cx="499.2579531120" cy="-861.7243740643" r="2" />
	<circle cx="17.0310627397" cy="-2.2814241821" r="2" />
	<circle cx="499.9999160597" cy="-865.7513805130" r="2" />
	<circle cx="991.7727264376" cy="-4.7945188289" r="2" />
	<circle cx="1000.0000000000" cy="-0.0000000000" r="2" />
	<circle cx="999.9999945015" cy="-0.0000031746" r="2" />
	<circle cx="999.9998153546" cy="-0.0001117189" r="2" />
	<circle cx="0.0064656394" cy="-0.0037256904" r="2" />
	<circle cx="1000.0000000000" cy="-0.0000000000" r="2" />
	<circle cx="1000.0000000000" cy="-0.0000000000" r="2" />
	<circle cx="7.0004780385" cy="-3.5061967970" r="2" />
	<circle cx="801.0277359264" cy="-326.4424825452" r="2" />
	<circle cx="0.0004093778" cy="-0.0002363850" r="2" />
	<circle cx="1000.0000000000" cy="-0.0000000000" r="2" />
	<circle cx="2.0508004005" cy="-2.2235933850" r="2" />
	<circle cx="500.0000000000" cy="-866.0254038000" r="2" />
	<circle cx="0.0000000000" cy="-0.0000000000" r="2" />
	<circle cx="0.8108897104" cy="-0.2462121877" r="2" />
	<circle cx="979.8376894646" cy="-2.4375573460" r="2" />
	<circle cx="0.0000892437" cy="-0.0000409420" r="2" />
	<circle cx="500.0000188162" cy="-866.0056987972" r="2" />
	<circle cx="500.0000000000" cy="-866.0254038000" r="2" />
	<circle cx="1000.0000000000" cy="-0.0000000000" r="2" />
	<circle cx="1000.0000000000" cy="-0.0000000000" r="2" />
	<circle cx="499.9999941111" cy="-866.0247622294" r="2" />
	<circle cx="999.9989735721" cy="-0.0008998943" r="2" />
	<circle cx="500.0000000000" cy="-866.0254038000" r="2" />
	<circle cx="500.0563153817" cy="-858.5179462757" r="2" />
	<circle cx="2.7370212596" cy="-3.5680203012" r="2" />
	<circle cx="500.0000000000" cy="-866.0254038000" r="2" />
	<circle cx="0.0020422804" cy="-0.0011701458" r="2" />
	<circle cx="990.2462185979" cy="-8.3517690787" r="2" />
	<circle cx="500.0000000000" cy="-866.0254038000" r="2" />
	<circle cx="997.4503695191" cy="-1.4619348041" r="2" />
	<circle cx="0.0000823378" cy="-0.0000475388" r="2" />
	<circle cx="0.0000000000" cy="-0.0000000000" r="2" />
	<circle cx="860.0689180552" cy="-86.2035301841" r="2" />
	<circle cx="935.3261229485" cy="-35.3870637706" r="2" />
	<circle cx="1000.0000000000" cy="-0.0000000000" r="2" />
	<circle cx="999.9999684162" cy="-0.0000182372" r="2" />
	<circle cx="500.0000000000" cy="-866.0254038000" r="2" />
	<circle cx="1000.0000000000" cy="-0.0000000000" r="2" />
	<circle cx="1.4139893882" cy="-0.8136620769" r="2" />
	<circle cx="278.4466809043" cy="-80.7014731024" r="2" />
	<circle cx="0.0000000000" cy="-0.0000000000" r="2" />
	<circle cx="505.3566582066" cy="-794.0957172196" r="2" />
	<circle cx="999.7737268134" cy="-0.1617916673" r="2" />
	<circle cx="500.0000000000" cy="-866.0254038000" r="2" />
	<circle cx="339.3379785399" cy="-125.2276058699" r="2" />
	<circle cx="0.0000000000" cy="-0.0000000000" r="2" />
	<circle cx="0.0000000000" cy="-0.0000000000" r="2" />
	<circle cx="974.4805498438" cy="-44.0922550313" r="2" />
	<circle cx="0.0000000000" cy="-0.0000000000" r="2" />
	<circle cx="1000.0000000000" cy="-0.0000000000" r="2" />
	<circle cx="994.1991541930" cy="-3.6383305591" r="2" />
	<circle cx="1000.0000000000" cy="-0.0000000000" r="2" />
	<circle cx="500.0000000000" cy="-866.0254038000" r="2" />
	<circle cx="213.9462964305" cy="-224.7102949231" r="2" />
	<circle cx="0.0000000000" cy="-0.0000000000" r="2" />
	<circle cx="0.0000000000" cy="-0.0000000000" r="2" />
	<circle cx="999.5640962529" cy="-0.1913198295" r="2" />
	<circle cx="0.0000000000" cy="-0.0000000000" r="2" />
	<circle cx="1000.0000000000" cy="-0.0000000000" r="2" />
	<circle cx="117.4875496502" cy="-169.7015373859" r="2" />
	<circle cx="1000.0000000000" cy="-0.0000000000" r="2" />
	<circle cx="469.1132522518" cy="-747.9967042710" r="2" />
	<circle cx="999.9721250502" cy="-0.0162477452" r="2" />
	<circle cx="868.2192733394" cy="-46.5976167754" r="2" />
	<circle cx="0.0000000000" cy="-0.0000000000" r="2" />
	<circle cx="999.9970531071" cy="-0.0017554175" r="2" />
	<circle cx="999.9999801299" cy="-0.0000113904" r="2" />
	<circle cx="97.9239637539" cy="-70.9637588260" r="2" />
	<circle cx="0.0000000000" cy="-0.0000000000" r="2" />
	<circle cx="0.6468506981" cy="-0.8959318880" r="2" />
	<circle cx="0.0005595320" cy="-0.0003230393" r="2" />
	<circle cx="1000.0000000000" cy="-0.0000000000" r="2" />
	<circle cx="1000.0000000000" cy="-0.0000000000" r="2" />
	<circle cx="500.0000000047" cy="-866.0254032345" r="2" />
	<circle cx="500.0000000000" cy="-866.0254038000" r="2" />
	<circle cx="500.0000000000" cy="-866.0254038000" r="2" />
	<circle cx="500.6565999514" cy="-846.0705033972" r="2" />
	<circle cx="500.0000000000" cy="-866.0254038000" r="2" />
	<circle cx="0.0000000000" cy="-0.0000000000" r="2" />
	<circle cx="992.4054205260" cy="-3.2264544442" r="2" />
	<circle cx="0.0000604497" cy="-0.0000347242" r="2" />
	<circle cx="0.0000000003" cy="-0.0000000002" r="2" />
	<circle cx="499.2957229204" cy="-861.1132022467" r="2" />
	<circle cx="500.0000000000" cy="-866.0254038000" r="2" />
	<circle cx="80.4610855011" cy="-112.8475030958" r="2" />
	<circle cx="0.0000000000" cy="-0.0000000000" r="2" />
	<circle cx="987.9867876189" cy="-8.4255969389" r="2" />
	<circle cx="0.7295514351" cy="-0.3950311887" r="2" />
	<circle cx="500.0000000000" cy="-866.0254037999" r="2" />
	<circle cx="500.0000000000" cy="-866.0254038000" r="2" />
	<circle cx="1000.0000000000" cy="-0.0000000000" r="2" />
	<circle cx="997.6650615124" cy="-1.3688714047" r="2" />
	<circle cx="500.0298164817" cy="-865.9376450722" r="2" />
	<circle cx="0.0000000000" cy="-0.0000000000" r="2" />
	<circle cx="0.0000000000" cy="-0.0000000000" r="2" />
	<circle cx="500.0000000000" cy="-866.0254038000" r="2" />
	<circle cx="0.0000000000" cy="-0.0000000000" r="2" />
	<circle cx="500.0000000000" cy="-866.0254038000" r="2" />
	<circle cx="1000.0000000000" cy="-0.0000000000" r="2" />
	<circle cx="998.8685228381" cy="-0.6561012287" r="2" />
	<circle cx="434.6047921621" cy="-446.6003447802" r="2" />
	<circle cx="500.0000000000" cy="-866.0254038000" r="2" />
	<circle cx="499.9992257053" cy="-866.0227371827" r="2" />
	<circle cx="499.0302273789" cy="-851.7959314652" r="2" />
	<circle cx="0.0000000000" cy="-0.0000000000" r="2" />
	<circle cx="499.9983646258" cy="-865.7355905890" r="2" />
	<circle cx="0.0000001590" cy="-0.0000000788" r="2" />
  </g>
  <g id="fig2" transform="translate(-550.0,1000)">
	<polygon points="0.0,-0.0 1000.0,-0.0 500.0,-866.0254038" />
	<line
	   id="line2-1"
	   y2="-0.0"
	   x2="500"
	   y1="-288.6751346"
	   x1="500" />
	<line
	   id="line2-2"
	   y2="-433.0127019"
	   x2="250"
	   y1="-288.6751346"
	   x1="500" />
	<line
	   id="line2-3"
	   y2="-433.0127019"
	   x2="750"
	   y1="-288.6751346"
	   x1="500" />
	<text
	   x="440"
	   y="-500"
	   id="up_2">33.0%</text>
	<text
	   x="250"
	   y="-150"
	   id="down_left_2">34.0%</text>
	<text
	   x="630"
	   y="-150"
	   id="down_right_2">33.0%</text>
  </g>
  <g id="fig3" transform="translate(550,1000)">
	<polygon points="0.0,-0.0 1000.0,-0.0 500.0,-866.0254038" />
	<polygon id="triangle3b" points="250,-144.3375673 750,-144.3375673 500,-577.3502692" />
	<line
	   id="line3-1"
	   x1="125"
	   y1="-216.5063509"
	   x2="250"
	   y2="-144.3375673" />
	<line
	   id="line3-2"
	   x1="375"
	   y1="-649.5190528"
	   x2="500"
	   y2="-577.3502692" />
	<line
	   id="line3-3"
	   x1="625"
	   y1="-649.5190528"
	   x2="500"
	   y2="-577.3502692" />
	<line
	   id="line3-4"
	   x1="875"
	   y1="-216.5063509"
	   x2="750"
	   y2="-144.3375673" />
	<line
	   id="line3-5"
	   x1="750"
	   y1="-0.0"
	   x2="750"
	   y2="-144.3375673" />
	<line
	   id="line3-6"
	   x1="250"
	   y1="-0.0"
	   x2="250"
	   y2="-144.3375673" />
	<text
	   x="500"
	   y="-660"
	   text-anchor="middle"
	   id="up_3">31.2%</text>
	<text
	   y="-50"
	   x="70"
	   id="down_left_3">30.8%</text>
	<text
	   y="-50"
	   x="770"
	   id="down_right_3">30.8%</text>
	<text
	   x="500"
	   y="-50"
	   text-anchor="middle"
	   id="down_side_3">1.6%</text>
	<text
	   x="500"
	   y="-280"
	   text-anchor="middle"
	   id="center_3">1.8%</text>
	<text
	   x="685.0"
	   y="-390.8439"
	   text-anchor="middle"
	   transform="rotate(60,665.0,-380.8439)"
	   id="right_side_3">1.2%</text>
	<text
	   x="315.0"
	   y="-390.8439"
	   text-anchor="middle"
	   transform="rotate(-60,335.0,-380.8439)"
	   id="left_side_3">2.6%</text>
  </g>
</g></g>
</svg>
