<?xml version="1.0" encoding="UTF-8" standalone="no"?>
<!DOCTYPE svg PUBLIC "-//W3C//DTD SVG 1.1//EN" "http://www.w3.org/Graphics/SVG/1.1/DTD/svg11.dtd">
<svg
   xmlns:svg="http://www.w3.org/2000/svg"
   xmlns="http://www.w3.org/2000/svg"
   xmlns:xlink="http://www.w3.org/1999/xlink"
   version="1.1"
   baseProfile="full"
   id="body"
   width="800px"
   height="800px"
   viewBox="0 0 1000 1000"
   preserveAspectRatio="none">
  <defs>
    <style type="text/css"><![CDATA[
      circle{ stroke: none; }
      polygon{ stroke: black; stroke-width: 2px; fill: none; }
      line{ stroke: black; stroke-width: 2px; }
      text{ font-size:50px; }
    ]]></style>
  </defs>
  <title
     id="title1">SVG drawing</title>
<g transform="scale(0.45)"><g transform="translate(600,1050)">
  <g id="fig1">
	<polygon points="0.0,-0.0 1000.0,-0.0 500,-866.0254038" />
	<circle cx="0.0001668189" cy="-0.0000962938" r="2" />
	<circle cx="499.9937903278" cy="-305.2199896984" r="2" />
	<circle cx="498.0075500728" cy="-704.4454465746" r="2" />
	<circle cx="0.0000000000" cy="-0.0000000000" r="2" />
	<circle cx="457.7070752140" cy="-280.4152141408" r="2" />
	<circle cx="500.0000000000" cy="-866.0254038000" r="2" />
	<circle cx="499.2407635327" cy="-288.2620672738" r="2" />
	<circle cx="0.0029820968" cy="-0.0017215260" r="2" />
	<circle cx="496.2817535596" cy="-309.5302590728" r="2" />
	<circle cx="1000.0000000000" cy="-0.0000000000" r="2" />
	<circle cx="500.0000000000" cy="-866.0254038000" r="2" />
	<circle cx="53.7137164710" cy="-31.0139755689" r="2" />
	<circle cx="999.9999976736" cy="-0.0000013439" r="2" />
	<circle cx="500.0000000000" cy="-866.0254038000" r="2" />
	<circle cx="500.0000000000" cy="-866.0254038000" r="2" />
	<circle cx="507.6594335077" cy="-733.3995111970" r="2" />
	<circle cx="827.0069886003" cy="-98.7011369850" r="2" />
	<circle cx="181.6320031160" cy="-104.9079431832" r="2" />
	<circle cx="499.9999999995" cy="-866.0253476460" r="2" />
	<circle cx="928.3924893269" cy="-41.3123119654" r="2" />
	<circle cx="497.9151058037" cy="-760.0533729842" r="2" />
	<circle cx="0.0000000000" cy="-0.0000000000" r="2" />
	<circle cx="999.0276305291" cy="-0.5613602777" r="2" />
	<circle cx="500.0000000000" cy="-866.0254038000" r="2" />
	<circle cx="500.0000000000" cy="-866.0254038000" r="2" />
	<circle cx="506.4561193768" cy="-352.3295457152" r="2" />
	<circle cx="0.0000000906" cy="-0.0000000523" r="2" />
	<circle cx="500.0000000000" cy="-866.0254037767" r="2" />
	<circle cx="500.0000000002" cy="-866.0253925130" r="2" />
	<circle cx="434.1867889544" cy="-398.3503016366" r="2" />
	<circle cx="1000.0000000000" cy="-0.0000000000" r="2" />
	<circle cx="0.0000000000" cy="-0.0000000000" r="2" />
	<circle cx="0.0000061501" cy="-0.0000035508" r="2" />
	<circle cx="0.0000000000" cy="-0.0000000000" r="2" />
	<circle cx="999.9981593626" cy="-0.0010629258" r="2" />
	<circle cx="0.0112858814" cy="-0.0065156076" r="2" />
	<circle cx="0.0000000000" cy="-0.0000000000" r="2" />
	<circle cx="500.0000000000" cy="-866.0254038000" r="2" />
	<circle cx="499.9999999770" cy="-866.0237100684" r="2" />
	<circle cx="500.0002136182" cy="-865.1232328737" r="2" />
	<circle cx="500.0000000000" cy="-866.0254038000" r="2" />
	<circle cx="999.5117498978" cy="-0.2812879378" r="2" />
	<circle cx="0.0000000000" cy="-0.0000000000" r="2" />
	<circle cx="1000.0000000000" cy="-0.0000000000" r="2" />
	<circle cx="5.1898815289" cy="-2.9961890571" r="2" />
	<circle cx="1000.0000000000" cy="-0.0000000000" r="2" />
	<circle cx="500.0000000000" cy="-866.0254037896" r="2" />
	<circle cx="500.0000000000" cy="-866.0254038000" r="2" />
	<circle cx="1000.0000000000" cy="-0.0000000000" r="2" />
	<circle cx="418.1753194492" cy="-317.4224043521" r="2" />
	<circle cx="500.0000000000" cy="-866.0254038000" r="2" />
	<circle cx="0.0003105004" cy="-0.0001792643" r="2" />
	<circle cx="500.0000248385" cy="-865.9830167447" r="2" />
	<circle cx="999.9999999911" cy="-0.0000000052" r="2" />
	<circle cx="496.8412669507" cy="-285.9962360122" r="2" />
	<circle cx="0.0000000000" cy="-0.0000000000" r="2" />
	<circle cx="16.9113094881" cy="-9.7673893596" r="2" />
	<circle cx="1000.0000000000" cy="-0.0000000000" r="2" />
	<circle cx="0.0000000000" cy="-0.0000000000" r="2" />
	<circle cx="0.0000000000" cy="-0.0000000000" r="2" />
	<circle cx="999.9947712256" cy="-0.0030179049" r="2" />
	<circle cx="999.9999958157" cy="-0.0000024239" r="2" />
	<circle cx="0.0000000000" cy="-0.0000000000" r="2" />
	<circle cx="999.9999999998" cy="-0.0000000001" r="2" />
	<circle cx="500.0902954655" cy="-389.4211316977" r="2" />
	<circle cx="0.0000000919" cy="-0.0000000530" r="2" />
	<circle cx="498.5489259940" cy="-365.3863516098" r="2" />
	<circle cx="501.1385585306" cy="-587.3561302718" r="2" />
	<circle cx="500.0000000000" cy="-866.0254038000" r="2" />
	<circle cx="999.9999999995" cy="-0.0000000003" r="2" />
	<circle cx="499.7348222788" cy="-851.8577206870" r="2" />
	<circle cx="500.0000000000" cy="-866.0254038000" r="2" />
	<circle cx="500.0000000000" cy="-866.0254038000" r="2" />
	<circle cx="995.1887939908" cy="-2.7777036321" r="2" />
	<circle cx="0.0021107153" cy="-0.0012209301" r="2" />
	<circle cx="0.0000000000" cy="-0.0000000000" r="2" />
	<circle cx="499.9999991372" cy="-865.9869367064" r="2" />
	<circle cx="500.0000000000" cy="-866.0254038000" r="2" />
	<circle cx="500.0000000000" cy="-866.0254038000" r="2" />
	<circle cx="0.0000000000" cy="-0.0000000000" r="2" />
	<circle cx="0.0226214473" cy="-0.0129592134" r="2" />
	<circle cx="499.9999998127" cy="-866.0213610012" r="2" />
	<circle cx="999.9879859159" cy="-0.0069363796" r="2" />
	<circle cx="0.0000000000" cy="-0.0000000000" r="2" />
	<circle cx="499.9999999346" cy="-866.0253810868" r="2" />
	<circle cx="1000.0000000000" cy="-0.0000000000" r="2" />
	<circle cx="500.0000000000" cy="-866.0254038000" r="2" />
	<circle cx="0.0000000481" cy="-0.0000000278" r="2" />
	<circle cx="0.0000000058" cy="-0.0000000032" r="2" />
	<circle cx="500.0000000000" cy="-866.0254037412" r="2" />
	<circle cx="500.0000000000" cy="-866.0254038000" r="2" />
	<circle cx="500.0000000000" cy="-866.0254038000" r="2" />
	<circle cx="500.0000000000" cy="-866.0254038000" r="2" />
	<circle cx="813.9695903957" cy="-107.3443925237" r="2" />
	<circle cx="0.0285579474" cy="-0.0164889052" r="2" />
	<circle cx="999.9999994270" cy="-0.0000003311" r="2" />
	<circle cx="0.0088503392" cy="-0.0051102986" r="2" />
	<circle cx="0.0000000000" cy="-0.0000000000" r="2" />
	<circle cx="500.0000010048" cy="-865.9829167694" r="2" />
	<circle cx="0.5786340944" cy="-0.3340436641" r="2" />
	<circle cx="499.9999910284" cy="-865.3403610651" r="2" />
	<circle cx="500.0000000000" cy="-866.0254038000" r="2" />
	<circle cx="500.0000000000" cy="-866.0254038000" r="2" />
	<circle cx="499.9961631545" cy="-557.3017419080" r="2" />
	<circle cx="0.0035883080" cy="-0.0020724528" r="2" />
	<circle cx="999.9919237998" cy="-0.0046626428" r="2" />
	<circle cx="500.0000006371" cy="-865.9857834419" r="2" />
	<circle cx="840.2141402556" cy="-97.8257671731" r="2" />
	<circle cx="0.0000000000" cy="-0.0000000000" r="2" />
	<circle cx="1000.0000000000" cy="-0.0000000000" r="2" />
	<circle cx="499.9998557924" cy="-865.9211836381" r="2" />
	<circle cx="500.0000000000" cy="-866.0254038000" r="2" />
	<circle cx="1000.0000000000" cy="-0.0000000000" r="2" />
	<circle cx="500.0000000000" cy="-866.0254038000" r="2" />
	<circle cx="0.0000000000" cy="-0.0000000000" r="2" />
	<circle cx="999.9999999999" cy="-0.0000000000" r="2" />
	<circle cx="499.9999998741" cy="-866.0253844570" r="2" />
	<circle cx="1000.0000000000" cy="-0.0000000000" r="2" />
	<circle cx="1000.0000000000" cy="-0.0000000000" r="2" />
	<circle cx="0.0000000000" cy="-0.0000000000" r="2" />
	<circle cx="999.9984033973" cy="-0.0009232111" r="2" />
	<circle cx="999.9999999995" cy="-0.0000000003" r="2" />
	<circle cx="549.3025485064" cy="-575.3356869158" r="2" />
	<circle cx="1000.0000000000" cy="-0.0000000000" r="2" />
	<circle cx="500.0000000000" cy="-866.0254038000" r="2" />
	<circle cx="964.0579843181" cy="-20.7493613777" r="2" />
	<circle cx="500.0000000001" cy="-866.0254009854" r="2" />
	<circle cx="0.0287332247" cy="-0.0169350064" r="2" />
	<circle cx="500.0000000000" cy="-866.0254038000" r="2" />
	<circle cx="42.9945765457" cy="-29.1303440238" r="2" />
	<circle cx="503.1680419208" cy="-287.0105469944" r="2" />
	<circle cx="0.0000020944" cy="-0.0000012092" r="2" />
	<circle cx="0.0000000006" cy="-0.0000000003" r="2" />
	<circle cx="1000.0000000000" cy="-0.0000000000" r="2" />
	<circle cx="500.0000015962" cy="-865.9524001758" r="2" />
	<circle cx="499.9999996958" cy="-866.0178527020" r="2" />
	<circle cx="1000.0000000000" cy="-0.0000000000" r="2" />
	<circle cx="799.3643225517" cy="-207.1700261231" r="2" />
	<circle cx="1000.0000000000" cy="-0.0000000000" r="2" />
	<circle cx="500.0000000000" cy="-866.0254038000" r="2" />
	<circle cx="0.0000000000" cy="-0.0000000000" r="2" />
	<circle cx="500.1112817367" cy="-288.7194073776" r="2" />
	<circle cx="999.9999999033" cy="-0.0000000558" r="2" />
	<circle cx="0.0000000000" cy="-0.0000000000" r="2" />
	<circle cx="0.0000000000" cy="-0.0000000000" r="2" />
	<circle cx="999.9994212882" cy="-0.0003341922" r="2" />
	<circle cx="500.0000000000" cy="-866.0254038000" r="2" />
	<circle cx="500.0000000000" cy="-866.0254038000" r="2" />
	<circle cx="1000.0000000000" cy="-0.0000000000" r="2" />
	<circle cx="1000.0000000000" cy="-0.0000000000" r="2" />
	<circle cx="0.0000000003" cy="-0.0000000002" r="2" />
	<circle cx="1000.0000000000" cy="-0.0000000000" r="2" />
	<circle cx="999.8647733922" cy="-0.0752942528" r="2" />
	<circle cx="0.0000145478" cy="-0.0000084014" r="2" />
	<circle cx="1000.0000000000" cy="-0.0000000000" r="2" />
	<circle cx="22.5912648473" cy="-13.0420684155" r="2" />
	<circle cx="499.9994482658" cy="-862.6697138113" r="2" />
	<circle cx="1000.0000000000" cy="-0.0000000000" r="2" />
	<circle cx="0.0000000000" cy="-0.0000000000" r="2" />
	<circle cx="500.0000000000" cy="-866.0254038000" r="2" />
	<circle cx="0.0000000000" cy="-0.0000000000" r="2" />
	<circle cx="1000.0000000000" cy="-0.0000000000" r="2" />
	<circle cx="0.0000000000" cy="-0.0000000000" r="2" />
	<circle cx="343.8504257216" cy="-198.8510761073" r="2" />
	<circle cx="1000.0000000000" cy="-0.0000000000" r="2" />
	<circle cx="500.2759811655" cy="-286.7627396395" r="2" />
	<circle cx="0.0000000000" cy="-0.0000000000" r="2" />
	<circle cx="500.0000000000" cy="-866.0254038000" r="2" />
	<circle cx="0.0000216374" cy="-0.0000124913" r="2" />
	<circle cx="999.7190189357" cy="-0.1668686011" r="2" />
	<circle cx="499.9999948947" cy="-866.0088402475" r="2" />
	<circle cx="719.8604188761" cy="-161.5972742525" r="2" />
	<circle cx="1000.0000000000" cy="-0.0000000000" r="2" />
	<circle cx="501.4041397262" cy="-336.9197685494" r="2" />
	<circle cx="1000.0000000000" cy="-0.0000000000" r="2" />
	<circle cx="0.0000000025" cy="-0.0000000014" r="2" />
	<circle cx="998.1565356610" cy="-1.0644012812" r="2" />
	<circle cx="992.7407167601" cy="-4.1070367339" r="2" />
	<circle cx="444.5645456159" cy="-298.1507609407" r="2" />
	<circle cx="1000.0000000000" cy="-0.0000000000" r="2" />
	<circle cx="0.0000000000" cy="-0.0000000000" r="2" />
	<circle cx="0.0000000000" cy="-0.0000000000" r="2" />
	<circle cx="1000.0000000000" cy="-0.0000000000" r="2" />
	<circle cx="500.0000000000" cy="-866.0254031646" r="2" />
	<circle cx="1000.0000000000" cy="-0.0000000000" r="2" />
	<circle cx="996.3282568012" cy="-2.8647202622" r="2" />
	<circle cx="0.0000000000" cy="-0.0000000000" r="2" />
	<circle cx="999.9997329322" cy="-0.0001542030" r="2" />
	<circle cx="0.0000000000" cy="-0.0000000000" r="2" />
	<circle cx="500.0000341065" cy="-865.8683181933" r="2" />
	<circle cx="1000.0000000000" cy="-0.0000000000" r="2" />
	<circle cx="1000.0000000000" cy="-0.0000000000" r="2" />
	<circle cx="500.0003293777" cy="-860.8171202516" r="2" />
	<circle cx="500.0000000001" cy="-866.0254022151" r="2" />
	<circle cx="0.0000000000" cy="-0.0000000000" r="2" />
	<circle cx="321.1931810804" cy="-185.4322043821" r="2" />
	<circle cx="1000.0000000000" cy="-0.0000000000" r="2" />
	<circle cx="499.9999999598" cy="-866.0253665855" r="2" />
	<circle cx="1000.0000000000" cy="-0.0000000000" r="2" />
	<circle cx="499.4341107051" cy="-289.0453869065" r="2" />
	<circle cx="500.0000000000" cy="-866.0254038000" r="2" />
	<circle cx="0.0000000000" cy="-0.0000000000" r="2" />
	<circle cx="500.0000000000" cy="-866.0254038000" r="2" />
	<circle cx="500.0000000000" cy="-866.0254037992" r="2" />
	<circle cx="0.0005958305" cy="-0.0003438870" r="2" />
	<circle cx="998.9967061869" cy="-0.5789782432" r="2" />
	<circle cx="499.9832909664" cy="-288.6909341953" r="2" />
	<circle cx="1000.0000000000" cy="-0.0000000000" r="2" />
	<circle cx="499.9999999996" cy="-866.0253561491" r="2" />
	<circle cx="1000.0000000000" cy="-0.0000000000" r="2" />
	<circle cx="500.0000000000" cy="-866.0254038000" r="2" />
	<circle cx="500.0000000000" cy="-866.0254038000" r="2" />
	<circle cx="0.3788094268" cy="-0.2187093678" r="2" />
	<circle cx="500.0000000000" cy="-866.0254038000" r="2" />
	<circle cx="1.2830845711" cy="-0.7404059499" r="2" />
	<circle cx="1000.0000000000" cy="-0.0000000000" r="2" />
	<circle cx="0.0007181320" cy="-0.0003756555" r="2" />
	<circle cx="500.0000004861" cy="-866.0157770097" r="2" />
	<circle cx="87.6940997649" cy="-50.6317659543" r="2" />
	<circle cx="999.9971535233" cy="-0.0016432335" r="2" />
	<circle cx="563.4839131022" cy="-209.4477400419" r="2" />
	<circle cx="500.0000000000" cy="-866.0254038000" r="2" />
	<circle cx="1000.0000000000" cy="-0.0000000000" r="2" />
	<circle cx="0.0000000000" cy="-0.0000000000" r="2" />
	<circle cx="992.7442316378" cy="-4.1891805262" r="2" />
	<circle cx="500.0000000000" cy="-866.0254038000" r="2" />
	<circle cx="0.0000000000" cy="-0.0000000000" r="2" />
	<circle cx="1000.0000000000" cy="-0.0000000000" r="2" />
	<circle cx="611.3415671073" cy="-265.5572063130" r="2" />
	<circle cx="0.0000000000" cy="-0.0000000000" r="2" />
	<circle cx="500.0000000000" cy="-866.0254037994" r="2" />
	<circle cx="935.6093542888" cy="-37.1757262859" r="2" />
	<circle cx="645.8912466316" cy="-204.4530261715" r="2" />
	<circle cx="500.0000000000" cy="-866.0254038000" r="2" />
	<circle cx="500.0000000000" cy="-866.0254038000" r="2" />
	<circle cx="356.3031959691" cy="-205.7065206422" r="2" />
	<circle cx="91.3463011947" cy="-54.6255591013" r="2" />
	<circle cx="0.0000000000" cy="-0.0000000000" r="2" />
	<circle cx="500.0000000002" cy="-866.0254023092" r="2" />
	<circle cx="0.0000000000" cy="-0.0000000000" r="2" />
	<circle cx="1000.0000000000" cy="-0.0000000000" r="2" />
	<circle cx="999.9848402601" cy="-0.0087412145" r="2" />
	<circle cx="500.0000000000" cy="-866.0254038000" r="2" />
	<circle cx="500.0000000000" cy="-866.0254038000" r="2" />
	<circle cx="500.0000000000" cy="-866.0254038000" r="2" />
	<circle cx="0.0000021671" cy="-0.0000012513" r="2" />
	<circle cx="649.7386422910" cy="-338.6378162064" r="2" />
	<circle cx="1000.0000000000" cy="-0.0000000000" r="2" />
	<circle cx="0.0000000000" cy="-0.0000000000" r="2" />
	<circle cx="500.0000228544" cy="-865.7728654959" r="2" />
	<circle cx="831.6843201745" cy="-113.5001016236" r="2" />
	<circle cx="0.0000000000" cy="-0.0000000000" r="2" />
	<circle cx="500.0000000000" cy="-866.0254038000" r="2" />
	<circle cx="499.9999888969" cy="-865.5720185639" r="2" />
	<circle cx="500.2428466098" cy="-291.6299113236" r="2" />
	<circle cx="500.0000000000" cy="-866.0254038000" r="2" />
	<circle cx="499.3776790521" cy="-375.0479049751" r="2" />
	<circle cx="500.0000000000" cy="-866.0254038000" r="2" />
	<circle cx="0.0000000076" cy="-0.0000000044" r="2" />
	<circle cx="1000.0000000000" cy="-0.0000000000" r="2" />
	<circle cx="0.0000000000" cy="-0.0000000000" r="2" />
	<circle cx="279.3095729260" cy="-256.9111157946" r="2" />
	<circle cx="0.0000000000" cy="-0.0000000000" r="2" />
	<circle cx="314.0781500365" cy="-185.3349427189" r="2" />
	<circle cx="1000.0000000000" cy="-0.0000000000" r="2" />
	<circle cx="0.0000000674" cy="-0.0000000389" r="2" />
	<circle cx="31.3069051753" cy="-18.2947176805" r="2" />
	<circle cx="0.0000000000" cy="-0.0000000000" r="2" />
	<circle cx="0.0000000000" cy="-0.0000000000" r="2" />
	<circle cx="1000.0000000000" cy="-0.0000000000" r="2" />
	<circle cx="1000.0000000000" cy="-0.0000000000" r="2" />
	<circle cx="500.0000057106" cy="-865.8733796368" r="2" />
	<circle cx="1000.0000000000" cy="-0.0000000000" r="2" />
	<circle cx="0.0000001315" cy="-0.0000000759" r="2" />
	<circle cx="999.9764307865" cy="-0.0136069077" r="2" />
	<circle cx="500.0000000000" cy="-866.0254038000" r="2" />
	<circle cx="0.0000000000" cy="-0.0000000000" r="2" />
	<circle cx="1000.0000000000" cy="-0.0000000000" r="2" />
	<circle cx="999.9919350847" cy="-0.0046542506" r="2" />
	<circle cx="499.9997632088" cy="-861.5958965397" r="2" />
	<circle cx="0.0000000000" cy="-0.0000000000" r="2" />
	<circle cx="403.3893046235" cy="-381.6443887555" r="2" />
	<circle cx="499.9772992317" cy="-521.5446809480" r="2" />
	<circle cx="1000.0000000000" cy="-0.0000000000" r="2" />
	<circle cx="488.8321016412" cy="-278.8159917705" r="2" />
	<circle cx="0.0000859963" cy="-0.0000496474" r="2" />
	<circle cx="891.6990454864" cy="-62.5280473220" r="2" />
	<circle cx="847.0025330247" cy="-101.1056188735" r="2" />
	<circle cx="500.0000000000" cy="-866.0254037543" r="2" />
	<circle cx="612.5356566971" cy="-215.3699835703" r="2" />
	<circle cx="998.8891252960" cy="-0.6425265175" r="2" />
	<circle cx="0.0000000000" cy="-0.0000000000" r="2" />
	<circle cx="1000.0000000000" cy="-0.0000000000" r="2" />
	<circle cx="1000.0000000000" cy="-0.0000000000" r="2" />
	<circle cx="493.6648009295" cy="-621.0255075735" r="2" />
	<circle cx="999.9944703930" cy="-0.0031921987" r="2" />
	<circle cx="991.7232625055" cy="-4.7763824242" r="2" />
	<circle cx="500.0000000000" cy="-866.0254038000" r="2" />
	<circle cx="546.3294793019" cy="-332.6366394724" r="2" />
	<circle cx="0.0000000275" cy="-0.0000000159" r="2" />
	<circle cx="999.9999937782" cy="-0.0000035944" r="2" />
	<circle cx="0.0000007196" cy="-0.0000004154" r="2" />
	<circle cx="293.4626818507" cy="-172.3314366550" r="2" />
	<circle cx="500.0000000000" cy="-866.0254038000" r="2" />
	<circle cx="0.0000000000" cy="-0.0000000000" r="2" />
	<circle cx="499.8907724325" cy="-820.0521005550" r="2" />
	<circle cx="0.0000000000" cy="-0.0000000000" r="2" />
	<circle cx="999.9999999081" cy="-0.0000000530" r="2" />
	<circle cx="236.1954276077" cy="-136.3737410908" r="2" />
	<circle cx="0.0000000000" cy="-0.0000000000" r="2" />
	<circle cx="500.0000000000" cy="-866.0254038000" r="2" />
	<circle cx="0.0000000000" cy="-0.0000000000" r="2" />
	<circle cx="500.0000000000" cy="-866.0254038000" r="2" />
	<circle cx="500.0080419597" cy="-769.2322458981" r="2" />
	<circle cx="0.0000000000" cy="-0.0000000000" r="2" />
	<circle cx="500.0000000000" cy="-866.0254038000" r="2" />
	<circle cx="1000.0000000000" cy="-0.0000000000" r="2" />
	<circle cx="499.5718694999" cy="-862.8120600430" r="2" />
	<circle cx="345.4422485364" cy="-192.4639703842" r="2" />
	<circle cx="1000.0000000000" cy="-0.0000000000" r="2" />
	<circle cx="471.4254053646" cy="-259.1222383669" r="2" />
	<circle cx="1000.0000000000" cy="-0.0000000000" r="2" />
	<circle cx="999.9946163073" cy="-0.0031148448" r="2" />
	<circle cx="514.0444651955" cy="-235.9534815558" r="2" />
	<circle cx="1000.0000000000" cy="-0.0000000000" r="2" />
	<circle cx="0.0000000000" cy="-0.0000000000" r="2" />
	<circle cx="515.2164226603" cy="-368.6051281032" r="2" />
	<circle cx="999.9999999999" cy="-0.0000000001" r="2" />
	<circle cx="875.3558497888" cy="-71.9615336898" r="2" />
	<circle cx="500.0000000000" cy="-866.0254038000" r="2" />
	<circle cx="999.9999570442" cy="-0.0000249158" r="2" />
	<circle cx="500.0000000000" cy="-866.0254038000" r="2" />
	<circle cx="0.0000000000" cy="-0.0000000000" r="2" />
	<circle cx="0.0000000000" cy="-0.0000000000" r="2" />
	<circle cx="0.0000000000" cy="-0.0000000000" r="2" />
	<circle cx="499.9999987298" cy="-865.9626513088" r="2" />
	<circle cx="0.0000167884" cy="-0.0000097605" r="2" />
	<circle cx="804.5118306394" cy="-111.4003857364" r="2" />
	<circle cx="999.9999999960" cy="-0.0000000023" r="2" />
	<circle cx="999.9999999778" cy="-0.0000000128" r="2" />
	<circle cx="999.9999999771" cy="-0.0000000132" r="2" />
	<circle cx="477.6933578147" cy="-269.9992397917" r="2" />
	<circle cx="1000.0000000000" cy="-0.0000000000" r="2" />
	<circle cx="0.0000000000" cy="-0.0000000000" r="2" />
	<circle cx="1000.0000000000" cy="-0.0000000000" r="2" />
	<circle cx="500.0000000000" cy="-866.0254038000" r="2" />
	<circle cx="669.4784552246" cy="-186.1898039007" r="2" />
	<circle cx="500.0000000739" cy="-866.0248903368" r="2" />
	<circle cx="500.0000000000" cy="-866.0254038000" r="2" />
	<circle cx="1000.0000000000" cy="-0.0000000000" r="2" />
	<circle cx="0.1200779264" cy="-0.0693205061" r="2" />
	<circle cx="999.9991537333" cy="-0.0004882384" r="2" />
	<circle cx="1000.0000000000" cy="-0.0000000000" r="2" />
	<circle cx="326.6584719035" cy="-234.8221552700" r="2" />
	<circle cx="999.9999967011" cy="-0.0000019044" r="2" />
	<circle cx="0.0000000000" cy="-0.0000000000" r="2" />
	<circle cx="500.0000000000" cy="-866.0254038000" r="2" />
	<circle cx="1000.0000000000" cy="-0.0000000000" r="2" />
	<circle cx="0.0000000000" cy="-0.0000000000" r="2" />
	<circle cx="500.0000000005" cy="-866.0254000823" r="2" />
	<circle cx="500.0000000000" cy="-866.0254038000" r="2" />
	<circle cx="499.9133075956" cy="-288.7532715233" r="2" />
	<circle cx="994.9916150852" cy="-1.2509909420" r="2" />
	<circle cx="499.9999721658" cy="-865.9637203496" r="2" />
	<circle cx="228.0200968270" cy="-163.2662515324" r="2" />
	<circle cx="0.0000000000" cy="-0.0000000000" r="2" />
	<circle cx="999.9930818700" cy="-0.0039948479" r="2" />
	<circle cx="1000.0000000000" cy="-0.0000000000" r="2" />
	<circle cx="1000.0000000000" cy="-0.0000000000" r="2" />
	<circle cx="500.0000000000" cy="-866.0254038000" r="2" />
	<circle cx="40.6542545611" cy="-20.6622938693" r="2" />
	<circle cx="1000.0000000000" cy="-0.0000000000" r="2" />
	<circle cx="500.0000000000" cy="-866.0254037999" r="2" />
	<circle cx="500.0000009911" cy="-866.0117531891" r="2" />
	<circle cx="500.0000000000" cy="-866.0254038000" r="2" />
	<circle cx="1000.0000000000" cy="-0.0000000000" r="2" />
	<circle cx="0.0000000000" cy="-0.0000000000" r="2" />
	<circle cx="855.1067212421" cy="-83.6539430615" r="2" />
	<circle cx="0.0000000000" cy="-0.0000000000" r="2" />
	<circle cx="500.0000000000" cy="-866.0254038000" r="2" />
	<circle cx="500.0000000000" cy="-866.0254038000" r="2" />
	<circle cx="0.0001968865" cy="-0.0001136617" r="2" />
	<circle cx="500.0000000000" cy="-866.0254038000" r="2" />
	<circle cx="996.9606871322" cy="-2.0376719648" r="2" />
	<circle cx="500.0000000000" cy="-866.0254038000" r="2" />
	<circle cx="776.0168572592" cy="-129.4483379605" r="2" />
	<circle cx="499.9999999996" cy="-866.0247801802" r="2" />
	<circle cx="0.0019882375" cy="-0.0011478940" r="2" />
	<circle cx="1000.0000000000" cy="-0.0000000000" r="2" />
	<circle cx="1000.0000000000" cy="-0.0000000000" r="2" />
	<circle cx="633.3279503667" cy="-209.7610435903" r="2" />
	<circle cx="0.0000000000" cy="-0.0000000000" r="2" />
	<circle cx="999.9994204523" cy="-0.0003346381" r="2" />
	<circle cx="500.0000000005" cy="-866.0254012999" r="2" />
	<circle cx="997.3546116722" cy="-1.5274110362" r="2" />
	<circle cx="500.0000000000" cy="-866.0254038000" r="2" />
	<circle cx="500.0000000000" cy="-866.0254037909" r="2" />
	<circle cx="499.9956070844" cy="-864.9017394529" r="2" />
	<circle cx="0.0000000000" cy="-0.0000000000" r="2" />
	<circle cx="999.9999945866" cy="-0.0000031255" r="2" />
	<circle cx="999.8685454629" cy="-0.0758884068" r="2" />
	<circle cx="0.0000000000" cy="-0.0000000000" r="2" />
	<circle cx="0.0000000000" cy="-0.0000000000" r="2" />
	<circle cx="999.9999992618" cy="-0.0000004263" r="2" />
	<circle cx="0.5971149402" cy="-0.3447916979" r="2" />
	<circle cx="499.9999985801" cy="-866.0230587178" r="2" />
	<circle cx="909.3807002087" cy="-52.3040623866" r="2" />
	<circle cx="395.9737305934" cy="-229.4220570569" r="2" />
	<circle cx="499.9999990079" cy="-865.9830587203" r="2" />
	<circle cx="999.9999999058" cy="-0.0000000544" r="2" />
	<circle cx="0.2070526052" cy="-0.1202803521" r="2" />
	<circle cx="0.0000000000" cy="-0.0000000000" r="2" />
	<circle cx="999.9913173521" cy="-0.0050129740" r="2" />
	<circle cx="1000.0000000000" cy="-0.0000000000" r="2" />
	<circle cx="1000.0000000000" cy="-0.0000000000" r="2" />
	<circle cx="0.0000000000" cy="-0.0000000000" r="2" />
	<circle cx="500.0000000000" cy="-866.0254037999" r="2" />
	<circle cx="500.0000000000" cy="-866.0254038000" r="2" />
	<circle cx="0.0000000000" cy="-0.0000000000" r="2" />
	<circle cx="0.0000000000" cy="-0.0000000000" r="2" />
	<circle cx="999.9999999999" cy="-0.0000000001" r="2" />
	<circle cx="996.9643666588" cy="-1.7522356734" r="2" />
	<circle cx="500.0000000000" cy="-866.0254038000" r="2" />
	<circle cx="0.0000000000" cy="-0.0000000000" r="2" />
	<circle cx="500.0000000000" cy="-866.0254038000" r="2" />
	<circle cx="1000.0000000000" cy="-0.0000000000" r="2" />
	<circle cx="0.0000000000" cy="-0.0000000000" r="2" />
	<circle cx="1.8410576102" cy="-1.0628087331" r="2" />
	<circle cx="500.0000000000" cy="-866.0254038000" r="2" />
	<circle cx="1000.0000000000" cy="-0.0000000000" r="2" />
	<circle cx="500.0000000000" cy="-866.0254038000" r="2" />
	<circle cx="1000.0000000000" cy="-0.0000000000" r="2" />
	<circle cx="0.0000000000" cy="-0.0000000000" r="2" />
	<circle cx="500.0000000000" cy="-866.0254038000" r="2" />
	<circle cx="500.0000000041" cy="-866.0253958785" r="2" />
	<circle cx="1000.0000000000" cy="-0.0000000000" r="2" />
	<circle cx="500.0000000000" cy="-866.0254038000" r="2" />
	<circle cx="0.0000000000" cy="-0.0000000000" r="2" />
	<circle cx="1000.0000000000" cy="-0.0000000000" r="2" />
	<circle cx="0.0000000000" cy="-0.0000000000" r="2" />
	<circle cx="0.0000000000" cy="-0.0000000000" r="2" />
	<circle cx="499.9999999976" cy="-866.0252966822" r="2" />
	<circle cx="500.0000000000" cy="-866.0254038000" r="2" />
	<circle cx="500.0000000000" cy="-866.0254038000" r="2" />
	<circle cx="0.0011228242" cy="-0.0006483122" r="2" />
	<circle cx="500.0000000000" cy="-866.0254038000" r="2" />
	<circle cx="499.9999999999" cy="-866.0253806151" r="2" />
	<circle cx="1000.0000000000" cy="-0.0000000000" r="2" />
	<circle cx="1000.0000000000" cy="-0.0000000000" r="2" />
	<circle cx="0.0000000041" cy="-0.0000000024" r="2" />
	<circle cx="376.0892344980" cy="-217.2576203430" r="2" />
	<circle cx="0.0000000000" cy="-0.0000000000" r="2" />
	<circle cx="999.9999999980" cy="-0.0000000011" r="2" />
	<circle cx="499.9999995213" cy="-866.0253943448" r="2" />
	<circle cx="999.8322420885" cy="-0.0968788463" r="2" />
	<circle cx="485.8736614892" cy="-280.4508925281" r="2" />
	<circle cx="0.0000000000" cy="-0.0000000000" r="2" />
	<circle cx="500.0000000000" cy="-866.0254038000" r="2" />
	<circle cx="287.5431660136" cy="-166.4717547906" r="2" />
	<circle cx="500.0000000000" cy="-866.0254038000" r="2" />
	<circle cx="1000.0000000000" cy="-0.0000000000" r="2" />
	<circle cx="157.4218942097" cy="-90.8746411698" r="2" />
	<circle cx="500.0000000000" cy="-866.0254038000" r="2" />
	<circle cx="596.1860058510" cy="-249.3666530699" r="2" />
	<circle cx="0.0000121404" cy="-0.0000070093" r="2" />
	<circle cx="500.0000000000" cy="-866.0254038000" r="2" />
	<circle cx="534.7546563080" cy="-277.7634400519" r="2" />
	<circle cx="500.0000000000" cy="-866.0254037989" r="2" />
	<circle cx="1000.0000000000" cy="-0.0000000000" r="2" />
	<circle cx="724.8170776960" cy="-102.5739191790" r="2" />
	<circle cx="500.0143421917" cy="-286.4732841488" r="2" />
	<circle cx="26.7931339527" cy="-15.4689358482" r="2" />
	<circle cx="1000.0000000000" cy="-0.0000000000" r="2" />
	<circle cx="0.0000000000" cy="-0.0000000000" r="2" />
	<circle cx="0.0000000000" cy="-0.0000000000" r="2" />
	<circle cx="500.0000000000" cy="-866.0254038000" r="2" />
	<circle cx="0.0000000000" cy="-0.0000000000" r="2" />
	<circle cx="1000.0000000000" cy="-0.0000000000" r="2" />
	<circle cx="1000.0000000000" cy="-0.0000000000" r="2" />
	<circle cx="999.7848146931" cy="-0.1241334182" r="2" />
	<circle cx="500.0000000000" cy="-866.0254038000" r="2" />
	<circle cx="999.9999971808" cy="-0.0000016276" r="2" />
	<circle cx="994.8099169721" cy="-2.9965405039" r="2" />
	<circle cx="500.0000000000" cy="-866.0254038000" r="2" />
	<circle cx="500.0477612761" cy="-367.2980585810" r="2" />
	<circle cx="349.1133426371" cy="-159.0146051992" r="2" />
	<circle cx="999.8038708240" cy="-0.1131845663" r="2" />
	<circle cx="500.0000000000" cy="-866.0254038000" r="2" />
	<circle cx="0.0000000000" cy="-0.0000000000" r="2" />
	<circle cx="1000.0000000000" cy="-0.0000000000" r="2" />
	<circle cx="999.9999999999" cy="-0.0000000000" r="2" />
	<circle cx="571.5267672715" cy="-247.3544669247" r="2" />
	<circle cx="499.9999999914" cy="-866.0254026107" r="2" />
	<circle cx="500.0000000000" cy="-866.0254038000" r="2" />
	<circle cx="48.3314907312" cy="-27.9019739192" r="2" />
	<circle cx="607.3600122181" cy="-409.7187699955" r="2" />
	<circle cx="998.4436127486" cy="-0.8985712718" r="2" />
	<circle cx="1000.0000000000" cy="-0.0000000000" r="2" />
	<circle cx="500.0000000000" cy="-866.0254038000" r="2" />
	<circle cx="1000.0000000000" cy="-0.0000000000" r="2" />
  </g>
  <g id="fig2" transform="translate(-550.0,1000)">
	<polygon points="0.0,-0.0 1000.0,-0.0 500.0,-866.0254038" />
	<line
	   id="line2-1"
	   y2="-0.0"
	   x2="500"
	   y1="-288.6751346"
	   x1="500" />
	<line
	   id="line2-2"
	   y2="-433.0127019"
	   x2="250"
	   y1="-288.6751346"
	   x1="500" />
	<line
	   id="line2-3"
	   y2="-433.0127019"
	   x2="750"
	   y1="-288.6751346"
	   x1="500" />
	<text
	   x="440"
	   y="-500"
	   id="up_2">33.6%</text>
	<text
	   x="250"
	   y="-150"
	   id="down_left_2">31.6%</text>
	<text
	   x="630"
	   y="-150"
	   id="down_right_2">34.8%</text>
  </g>
  <g id="fig3" transform="translate(550,1000)">
	<polygon points="0.0,-0.0 1000.0,-0.0 500.0,-866.0254038" />
	<polygon id="triangle3b" points="250,-144.3375673 750,-144.3375673 500,-577.3502692" />
	<line
	   id="line3-1"
	   x1="125"
	   y1="-216.5063509"
	   x2="250"
	   y2="-144.3375673" />
	<line
	   id="line3-2"
	   x1="375"
	   y1="-649.5190528"
	   x2="500"
	   y2="-577.3502692" />
	<line
	   id="line3-3"
	   x1="625"
	   y1="-649.5190528"
	   x2="500"
	   y2="-577.3502692" />
	<line
	   id="line3-4"
	   x1="875"
	   y1="-216.5063509"
	   x2="750"
	   y2="-144.3375673" />
	<line
	   id="line3-5"
	   x1="750"
	   y1="-0.0"
	   x2="750"
	   y2="-144.3375673" />
	<line
	   id="line3-6"
	   x1="250"
	   y1="-0.0"
	   x2="250"
	   y2="-144.3375673" />
	<text
	   x="500"
	   y="-660"
	   text-anchor="middle"
	   id="up_3">29.6%</text>
	<text
	   y="-50"
	   x="70"
	   id="down_left_3">27.2%</text>
	<text
	   y="-50"
	   x="770"
	   id="down_right_3">31.2%</text>
	<text
	   x="500"
	   y="-50"
	   text-anchor="middle"
	   id="down_side_3">0.2%</text>
	<text
	   x="500"
	   y="-280"
	   text-anchor="middle"
	   id="center_3">10.6%</text>
	<text
	   x="685.0"
	   y="-390.8439"
	   text-anchor="middle"
	   transform="rotate(60,665.0,-380.8439)"
	   id="right_side_3">0.8%</text>
	<text
	   x="315.0"
	   y="-390.8439"
	   text-anchor="middle"
	   transform="rotate(-60,335.0,-380.8439)"
	   id="left_side_3">0.4%</text>
  </g>
</g></g>
</svg>
