<?xml version="1.0" encoding="UTF-8" standalone="no"?>
<!DOCTYPE svg PUBLIC "-//W3C//DTD SVG 1.1//EN" "http://www.w3.org/Graphics/SVG/1.1/DTD/svg11.dtd">
<svg
   xmlns:svg="http://www.w3.org/2000/svg"
   xmlns="http://www.w3.org/2000/svg"
   xmlns:xlink="http://www.w3.org/1999/xlink"
   version="1.1"
   baseProfile="full"
   id="body"
   width="800px"
   height="800px"
   viewBox="0 0 1000 1000"
   preserveAspectRatio="none">
  <defs>
    <style type="text/css"><![CDATA[
      circle{ stroke: none; }
      polygon{ stroke: black; stroke-width: 2px; fill: none; }
      line{ stroke: black; stroke-width: 2px; }
      text{ font-size:50px; }
    ]]></style>
  </defs>
  <title
     id="title1">SVG drawing</title>
<g transform="scale(0.45)"><g transform="translate(600,1050)">
  <g id="fig1">
	<polygon points="0.0,-0.0 1000.0,-0.0 500,-866.0254038" />
	<circle cx="999.9999994351" cy="-0.0000003259" r="2" />
	<circle cx="499.9999999948" cy="-866.0254014187" r="2" />
	<circle cx="500.0009149174" cy="-865.4159661768" r="2" />
	<circle cx="499.9999807700" cy="-865.9867272774" r="2" />
	<circle cx="1000.0000000000" cy="-0.0000000000" r="2" />
	<circle cx="0.0000100603" cy="-0.0000049180" r="2" />
	<circle cx="499.9999999806" cy="-866.0254035910" r="2" />
	<circle cx="500.0000000000" cy="-866.0254038000" r="2" />
	<circle cx="999.9999998981" cy="-0.0000000592" r="2" />
	<circle cx="999.9999999874" cy="-0.0000000073" r="2" />
	<circle cx="0.0000000000" cy="-0.0000000000" r="2" />
	<circle cx="1000.0000000000" cy="-0.0000000000" r="2" />
	<circle cx="0.0000000000" cy="-0.0000000000" r="2" />
	<circle cx="1000.0000000000" cy="-0.0000000000" r="2" />
	<circle cx="500.0000000000" cy="-866.0254038000" r="2" />
	<circle cx="500.0000000000" cy="-866.0254038000" r="2" />
	<circle cx="1000.0000000000" cy="-0.0000000000" r="2" />
	<circle cx="999.9999999999" cy="-0.0000000001" r="2" />
	<circle cx="500.0000000000" cy="-866.0254038000" r="2" />
	<circle cx="500.0000000000" cy="-866.0254038000" r="2" />
	<circle cx="1000.0000000000" cy="-0.0000000000" r="2" />
	<circle cx="500.0000000000" cy="-866.0254037996" r="2" />
	<circle cx="500.0000000000" cy="-866.0254038000" r="2" />
	<circle cx="694.6262461918" cy="-0.0059791530" r="2" />
	<circle cx="1000.0000000000" cy="-0.0000000000" r="2" />
	<circle cx="0.0000416691" cy="-0.0000240595" r="2" />
	<circle cx="999.9999999999" cy="-0.0000000001" r="2" />
	<circle cx="500.0000000000" cy="-866.0254038000" r="2" />
	<circle cx="499.9999999999" cy="-866.0254035526" r="2" />
	<circle cx="1000.0000000000" cy="-0.0000000000" r="2" />
	<circle cx="0.0000000000" cy="-0.0000000000" r="2" />
	<circle cx="0.0000002320" cy="-0.0000001579" r="2" />
	<circle cx="500.0000000176" cy="-866.0254020899" r="2" />
	<circle cx="0.0000232202" cy="-0.0000122171" r="2" />
	<circle cx="999.9896145163" cy="-0.0059932738" r="2" />
	<circle cx="1000.0000000000" cy="-0.0000000000" r="2" />
	<circle cx="500.0000000000" cy="-866.0254038000" r="2" />
	<circle cx="1000.0000000000" cy="-0.0000000000" r="2" />
	<circle cx="0.0000000000" cy="-0.0000000000" r="2" />
	<circle cx="499.9999832308" cy="-865.8467013937" r="2" />
	<circle cx="500.0000000000" cy="-866.0254038000" r="2" />
	<circle cx="500.0000000000" cy="-866.0254038000" r="2" />
	<circle cx="0.0000000000" cy="-0.0000000000" r="2" />
	<circle cx="499.9999999269" cy="-866.0248765961" r="2" />
	<circle cx="999.9995699808" cy="-0.0002467028" r="2" />
	<circle cx="1000.0000000000" cy="-0.0000000000" r="2" />
	<circle cx="113.3127095807" cy="-65.4476414203" r="2" />
	<circle cx="1000.0000000000" cy="-0.0000000000" r="2" />
	<circle cx="500.0000000000" cy="-866.0254038000" r="2" />
	<circle cx="498.4798338605" cy="-848.5027636339" r="2" />
	<circle cx="500.0000000000" cy="-866.0254038000" r="2" />
	<circle cx="500.0000000000" cy="-866.0254038000" r="2" />
	<circle cx="1000.0000000000" cy="-0.0000000000" r="2" />
	<circle cx="500.0000000000" cy="-866.0254038000" r="2" />
	<circle cx="1000.0000000000" cy="-0.0000000000" r="2" />
	<circle cx="0.0000000000" cy="-0.0000000000" r="2" />
	<circle cx="1000.0000000000" cy="-0.0000000000" r="2" />
	<circle cx="500.0000000000" cy="-866.0254038000" r="2" />
	<circle cx="500.0000000000" cy="-866.0254038000" r="2" />
	<circle cx="500.0000000000" cy="-866.0254038000" r="2" />
	<circle cx="500.0000000005" cy="-866.0254037977" r="2" />
	<circle cx="500.0000000000" cy="-866.0254038000" r="2" />
	<circle cx="1000.0000000000" cy="-0.0000000000" r="2" />
	<circle cx="999.9999999986" cy="-0.0000000012" r="2" />
	<circle cx="999.9999956949" cy="-0.0000024827" r="2" />
	<circle cx="0.0000000000" cy="-0.0000000000" r="2" />
	<circle cx="999.9999999883" cy="-0.0000000067" r="2" />
	<circle cx="500.0000000000" cy="-866.0254038000" r="2" />
	<circle cx="1000.0000000000" cy="-0.0000000000" r="2" />
	<circle cx="500.0000000000" cy="-866.0254038000" r="2" />
	<circle cx="1000.0000000000" cy="-0.0000000000" r="2" />
	<circle cx="500.0000000000" cy="-866.0254038000" r="2" />
	<circle cx="0.0000000000" cy="-0.0000000000" r="2" />
	<circle cx="499.8685354611" cy="-833.2478758190" r="2" />
	<circle cx="999.9987631322" cy="-0.0009864997" r="2" />
	<circle cx="1000.0000000000" cy="-0.0000000000" r="2" />
	<circle cx="0.0000000000" cy="-0.0000000000" r="2" />
	<circle cx="1000.0000000000" cy="-0.0000000000" r="2" />
	<circle cx="500.0000000000" cy="-866.0254038000" r="2" />
	<circle cx="500.0000000000" cy="-866.0254037896" r="2" />
	<circle cx="1000.0000000000" cy="-0.0000000000" r="2" />
	<circle cx="1000.0000000000" cy="-0.0000000000" r="2" />
	<circle cx="500.0000000000" cy="-866.0254038000" r="2" />
	<circle cx="1000.0000000000" cy="-0.0000000000" r="2" />
	<circle cx="500.0000000010" cy="-866.0254007685" r="2" />
	<circle cx="999.9999999985" cy="-0.0000000009" r="2" />
	<circle cx="1000.0000000000" cy="-0.0000000000" r="2" />
	<circle cx="0.0000035780" cy="-0.0000020683" r="2" />
	<circle cx="0.0000010006" cy="-0.0000005642" r="2" />
	<circle cx="0.0000000000" cy="-0.0000000000" r="2" />
	<circle cx="1000.0000000000" cy="-0.0000000000" r="2" />
	<circle cx="0.0000000000" cy="-0.0000000000" r="2" />
	<circle cx="0.0000000000" cy="-0.0000000000" r="2" />
	<circle cx="1000.0000000000" cy="-0.0000000000" r="2" />
	<circle cx="500.0000000000" cy="-866.0254037995" r="2" />
	<circle cx="1000.0000000000" cy="-0.0000000000" r="2" />
	<circle cx="999.9999949960" cy="-0.0000016475" r="2" />
	<circle cx="1000.0000000000" cy="-0.0000000000" r="2" />
	<circle cx="0.0000000000" cy="-0.0000000000" r="2" />
	<circle cx="500.0000000000" cy="-866.0254038000" r="2" />
	<circle cx="999.9999999489" cy="-0.0000000301" r="2" />
	<circle cx="1000.0000000000" cy="-0.0000000000" r="2" />
	<circle cx="0.0000000000" cy="-0.0000000000" r="2" />
	<circle cx="1000.0000000000" cy="-0.0000000000" r="2" />
	<circle cx="1000.0000000000" cy="-0.0000000000" r="2" />
	<circle cx="1000.0000000000" cy="-0.0000000000" r="2" />
	<circle cx="999.9787355474" cy="-0.0104977829" r="2" />
	<circle cx="1000.0000000000" cy="-0.0000000000" r="2" />
	<circle cx="0.0000000000" cy="-0.0000000000" r="2" />
	<circle cx="1000.0000000000" cy="-0.0000000000" r="2" />
	<circle cx="500.0000000000" cy="-866.0254038000" r="2" />
	<circle cx="0.0000000000" cy="-0.0000000000" r="2" />
	<circle cx="500.0000000000" cy="-866.0254038000" r="2" />
	<circle cx="500.0000000000" cy="-866.0253975658" r="2" />
	<circle cx="1000.0000000000" cy="-0.0000000000" r="2" />
	<circle cx="0.0000000000" cy="-0.0000000000" r="2" />
	<circle cx="0.0000684890" cy="-0.0000395444" r="2" />
	<circle cx="499.9999978942" cy="-866.0018078739" r="2" />
	<circle cx="0.0000000000" cy="-0.0000000000" r="2" />
	<circle cx="0.0000000000" cy="-0.0000000000" r="2" />
	<circle cx="1000.0000000000" cy="-0.0000000000" r="2" />
	<circle cx="500.0000000000" cy="-866.0254038000" r="2" />
	<circle cx="9.6410526184" cy="-5.9146088060" r="2" />
	<circle cx="0.0000000000" cy="-0.0000000000" r="2" />
	<circle cx="0.0000000000" cy="-0.0000000000" r="2" />
	<circle cx="500.0000000000" cy="-866.0254038000" r="2" />
	<circle cx="0.0000000000" cy="-0.0000000000" r="2" />
	<circle cx="500.0000000000" cy="-866.0254038000" r="2" />
	<circle cx="1000.0000000000" cy="-0.0000000000" r="2" />
	<circle cx="0.0000000000" cy="-0.0000000000" r="2" />
	<circle cx="0.0000000099" cy="-0.0000000094" r="2" />
	<circle cx="0.0000000121" cy="-0.0000000070" r="2" />
	<circle cx="999.0797194993" cy="-0.5314359766" r="2" />
	<circle cx="0.0000000000" cy="-0.0000000000" r="2" />
	<circle cx="0.0000000000" cy="-0.0000000000" r="2" />
	<circle cx="0.0000000000" cy="-0.0000000000" r="2" />
	<circle cx="999.7782816048" cy="-0.1272118715" r="2" />
	<circle cx="0.0000000000" cy="-0.0000000000" r="2" />
	<circle cx="1000.0000000000" cy="-0.0000000000" r="2" />
	<circle cx="0.0000000000" cy="-0.0000000000" r="2" />
	<circle cx="495.5276633699" cy="-814.9964733274" r="2" />
	<circle cx="500.0000000000" cy="-866.0254038000" r="2" />
	<circle cx="0.0000000000" cy="-0.0000000000" r="2" />
	<circle cx="500.0000000000" cy="-866.0254037931" r="2" />
	<circle cx="499.9999992071" cy="-866.0253160634" r="2" />
	<circle cx="0.0000000000" cy="-0.0000000000" r="2" />
	<circle cx="1000.0000000000" cy="-0.0000000000" r="2" />
	<circle cx="0.0000000000" cy="-0.0000000000" r="2" />
	<circle cx="500.0000000000" cy="-866.0254038000" r="2" />
	<circle cx="1000.0000000000" cy="-0.0000000000" r="2" />
	<circle cx="996.1971884617" cy="-3.2250803503" r="2" />
	<circle cx="500.0000000000" cy="-866.0254038000" r="2" />
	<circle cx="999.9999992274" cy="-0.0000005113" r="2" />
	<circle cx="0.0010193246" cy="-0.0008731413" r="2" />
	<circle cx="0.0000000000" cy="-0.0000000000" r="2" />
	<circle cx="1000.0000000000" cy="-0.0000000000" r="2" />
	<circle cx="500.0000000000" cy="-866.0254038000" r="2" />
	<circle cx="500.0000000000" cy="-866.0254038000" r="2" />
	<circle cx="0.0000004076" cy="-0.0000002347" r="2" />
	<circle cx="1000.0000000000" cy="-0.0000000000" r="2" />
	<circle cx="0.0000000000" cy="-0.0000000000" r="2" />
	<circle cx="1000.0000000000" cy="-0.0000000000" r="2" />
	<circle cx="500.0000000000" cy="-866.0254038000" r="2" />
	<circle cx="500.0000000000" cy="-866.0254037999" r="2" />
	<circle cx="500.0000000000" cy="-866.0254038000" r="2" />
	<circle cx="500.0905876453" cy="-863.9683266104" r="2" />
	<circle cx="999.4344040644" cy="-0.3265072607" r="2" />
	<circle cx="1000.0000000000" cy="-0.0000000000" r="2" />
	<circle cx="1000.0000000000" cy="-0.0000000000" r="2" />
	<circle cx="500.0000000000" cy="-866.0254038000" r="2" />
	<circle cx="0.0000000000" cy="-0.0000000000" r="2" />
	<circle cx="0.0000000000" cy="-0.0000000000" r="2" />
	<circle cx="1000.0000000000" cy="-0.0000000000" r="2" />
	<circle cx="0.0000000000" cy="-0.0000000000" r="2" />
	<circle cx="0.0000168345" cy="-0.0000097238" r="2" />
	<circle cx="500.0000000000" cy="-866.0254037792" r="2" />
	<circle cx="1000.0000000000" cy="-0.0000000000" r="2" />
	<circle cx="1000.0000000000" cy="-0.0000000000" r="2" />
	<circle cx="500.0000000000" cy="-866.0254038000" r="2" />
	<circle cx="499.9999996314" cy="-866.0252559950" r="2" />
	<circle cx="999.9999889317" cy="-0.0000063920" r="2" />
	<circle cx="0.0000000044" cy="-0.0000000029" r="2" />
	<circle cx="999.9999971998" cy="-0.0000016805" r="2" />
	<circle cx="1000.0000000000" cy="-0.0000000000" r="2" />
	<circle cx="0.0000522477" cy="-0.0000284698" r="2" />
	<circle cx="0.0000000000" cy="-0.0000000000" r="2" />
	<circle cx="500.0000000000" cy="-866.0254038000" r="2" />
	<circle cx="500.0000000000" cy="-866.0254038000" r="2" />
	<circle cx="480.2372787045" cy="-831.5256625307" r="2" />
	<circle cx="500.0000000000" cy="-866.0254038000" r="2" />
	<circle cx="500.0000000000" cy="-866.0254038000" r="2" />
	<circle cx="1000.0000000000" cy="-0.0000000000" r="2" />
	<circle cx="0.0000000000" cy="-0.0000000000" r="2" />
	<circle cx="0.0000000000" cy="-0.0000000000" r="2" />
	<circle cx="999.9999999999" cy="-0.0000000000" r="2" />
	<circle cx="1000.0000000000" cy="-0.0000000000" r="2" />
	<circle cx="0.0000000000" cy="-0.0000000000" r="2" />
	<circle cx="0.0002180399" cy="-0.0001472945" r="2" />
	<circle cx="999.9998202282" cy="-0.0001037255" r="2" />
	<circle cx="1000.0000000000" cy="-0.0000000000" r="2" />
	<circle cx="0.0305023226" cy="-0.0375539486" r="2" />
	<circle cx="499.9999984861" cy="-866.0104695846" r="2" />
	<circle cx="999.9999999994" cy="-0.0000000003" r="2" />
	<circle cx="999.9999839038" cy="-0.0000092929" r="2" />
	<circle cx="500.0000000000" cy="-866.0254038000" r="2" />
	<circle cx="500.0000000000" cy="-866.0254038000" r="2" />
	<circle cx="500.0000000000" cy="-866.0254038000" r="2" />
	<circle cx="90.4311055677" cy="-59.9611203418" r="2" />
	<circle cx="999.9999988202" cy="-0.0000007346" r="2" />
	<circle cx="499.9999999438" cy="-866.0252167542" r="2" />
	<circle cx="999.9999999277" cy="-0.0000000443" r="2" />
	<circle cx="500.0000000000" cy="-866.0254038000" r="2" />
	<circle cx="1000.0000000000" cy="-0.0000000000" r="2" />
	<circle cx="499.9999994112" cy="-866.0253956250" r="2" />
	<circle cx="500.0000000000" cy="-866.0254038000" r="2" />
	<circle cx="0.0000000000" cy="-0.0000000000" r="2" />
	<circle cx="0.0000000000" cy="-0.0000000000" r="2" />
	<circle cx="999.9999962015" cy="-0.0000021922" r="2" />
	<circle cx="500.0000000000" cy="-866.0254038000" r="2" />
	<circle cx="0.0000000000" cy="-0.0000000000" r="2" />
	<circle cx="0.0000077083" cy="-0.0000044773" r="2" />
	<circle cx="0.0000000232" cy="-0.0000000110" r="2" />
	<circle cx="500.0000000140" cy="-866.0253699215" r="2" />
	<circle cx="0.0000000000" cy="-0.0000000000" r="2" />
	<circle cx="0.0000000000" cy="-0.0000000000" r="2" />
	<circle cx="499.9999991654" cy="-866.0228869220" r="2" />
	<circle cx="499.9999999991" cy="-866.0253942181" r="2" />
	<circle cx="1000.0000000000" cy="-0.0000000000" r="2" />
	<circle cx="1000.0000000000" cy="-0.0000000000" r="2" />
	<circle cx="1000.0000000000" cy="-0.0000000000" r="2" />
	<circle cx="500.0000000000" cy="-866.0254038000" r="2" />
	<circle cx="0.0000000000" cy="-0.0000000000" r="2" />
	<circle cx="500.0000000000" cy="-866.0254037258" r="2" />
	<circle cx="1000.0000000000" cy="-0.0000000000" r="2" />
	<circle cx="500.0000000000" cy="-866.0254038000" r="2" />
	<circle cx="0.0000000000" cy="-0.0000000000" r="2" />
	<circle cx="923.3930080561" cy="-54.1265976265" r="2" />
	<circle cx="0.0000000000" cy="-0.0000000000" r="2" />
	<circle cx="500.0000000000" cy="-866.0254038000" r="2" />
	<circle cx="1000.0000000000" cy="-0.0000000000" r="2" />
	<circle cx="999.9705000405" cy="-0.0170231548" r="2" />
	<circle cx="901.9204993046" cy="-68.2259701708" r="2" />
	<circle cx="999.9999756434" cy="-0.0000140580" r="2" />
	<circle cx="148.1254890222" cy="-86.2286064763" r="2" />
	<circle cx="0.0000000000" cy="-0.0000000000" r="2" />
	<circle cx="500.0006992302" cy="-866.0099024763" r="2" />
	<circle cx="0.0000000000" cy="-0.0000000000" r="2" />
	<circle cx="500.0000000000" cy="-866.0254037982" r="2" />
	<circle cx="0.0000000000" cy="-0.0000000000" r="2" />
	<circle cx="500.0000000000" cy="-866.0254037994" r="2" />
	<circle cx="1000.0000000000" cy="-0.0000000000" r="2" />
	<circle cx="1000.0000000000" cy="-0.0000000000" r="2" />
	<circle cx="1000.0000000000" cy="-0.0000000000" r="2" />
	<circle cx="999.9999992459" cy="-0.0000002099" r="2" />
	<circle cx="500.0000000000" cy="-866.0254038000" r="2" />
	<circle cx="500.0081605822" cy="-865.8991464446" r="2" />
	<circle cx="499.9999994647" cy="-866.0253868525" r="2" />
	<circle cx="500.0000000000" cy="-866.0254038000" r="2" />
	<circle cx="999.9999999988" cy="-0.0000000008" r="2" />
	<circle cx="500.0000000000" cy="-866.0254038000" r="2" />
	<circle cx="500.0000000000" cy="-866.0254037997" r="2" />
	<circle cx="500.0000000000" cy="-866.0254038000" r="2" />
	<circle cx="0.0000000000" cy="-0.0000000000" r="2" />
	<circle cx="0.0000000044" cy="-0.0000000025" r="2" />
	<circle cx="0.0000000000" cy="-0.0000000000" r="2" />
	<circle cx="352.8759257138" cy="-203.7165830376" r="2" />
	<circle cx="500.0000000000" cy="-866.0254038000" r="2" />
	<circle cx="500.0000000000" cy="-866.0254038000" r="2" />
	<circle cx="0.0000000000" cy="-0.0000000000" r="2" />
	<circle cx="0.0000000000" cy="-0.0000000000" r="2" />
	<circle cx="0.0000000177" cy="-0.0000000102" r="2" />
	<circle cx="0.0015945639" cy="-0.0009080456" r="2" />
	<circle cx="999.9795545949" cy="-0.0118048822" r="2" />
	<circle cx="500.0000000266" cy="-866.0252982375" r="2" />
	<circle cx="500.0000000000" cy="-866.0254038000" r="2" />
	<circle cx="0.0000000000" cy="-0.0000000000" r="2" />
	<circle cx="1000.0000000000" cy="-0.0000000000" r="2" />
	<circle cx="999.9999999999" cy="-0.0000000000" r="2" />
	<circle cx="0.0000000000" cy="-0.0000000000" r="2" />
	<circle cx="500.0000000000" cy="-866.0254038000" r="2" />
	<circle cx="500.0000000000" cy="-866.0254038000" r="2" />
	<circle cx="1000.0000000000" cy="-0.0000000000" r="2" />
	<circle cx="500.0000000066" cy="-866.0253826365" r="2" />
	<circle cx="999.9999999986" cy="-0.0000000009" r="2" />
	<circle cx="999.9999999813" cy="-0.0000000092" r="2" />
	<circle cx="1000.0000000000" cy="-0.0000000000" r="2" />
	<circle cx="500.0000009938" cy="-866.0220906916" r="2" />
	<circle cx="499.9990884789" cy="-865.9791435116" r="2" />
	<circle cx="500.0000000000" cy="-866.0254038000" r="2" />
	<circle cx="999.9997667212" cy="-0.0001346856" r="2" />
	<circle cx="999.9999344431" cy="-0.0000378838" r="2" />
	<circle cx="999.9999999743" cy="-0.0000000136" r="2" />
	<circle cx="0.0000005981" cy="-0.0000002931" r="2" />
	<circle cx="0.0000000000" cy="-0.0000000000" r="2" />
	<circle cx="499.9999999732" cy="-866.0251797963" r="2" />
	<circle cx="500.0000000000" cy="-866.0254038000" r="2" />
	<circle cx="500.0000000000" cy="-866.0254038000" r="2" />
	<circle cx="966.2950645301" cy="-18.8463680389" r="2" />
	<circle cx="999.9999993695" cy="-0.0000003639" r="2" />
	<circle cx="999.9968668855" cy="-0.0018116852" r="2" />
	<circle cx="500.0000003773" cy="-866.0253997526" r="2" />
	<circle cx="999.9584640121" cy="-0.0239693434" r="2" />
	<circle cx="0.0020964447" cy="-0.0011968896" r="2" />
	<circle cx="499.9999999994" cy="-866.0254035857" r="2" />
	<circle cx="999.9999466582" cy="-0.0000307674" r="2" />
	<circle cx="0.0000000000" cy="-0.0000000000" r="2" />
	<circle cx="999.9999999999" cy="-0.0000000000" r="2" />
	<circle cx="1000.0000000000" cy="-0.0000000000" r="2" />
	<circle cx="500.0001495140" cy="-865.9965176709" r="2" />
	<circle cx="0.0000000000" cy="-0.0000000000" r="2" />
	<circle cx="499.9999988329" cy="-866.0237201855" r="2" />
	<circle cx="1000.0000000000" cy="-0.0000000000" r="2" />
	<circle cx="999.9997850580" cy="-0.0000790200" r="2" />
	<circle cx="156.9977897987" cy="-90.6695173256" r="2" />
	<circle cx="999.9999999933" cy="-0.0000000039" r="2" />
	<circle cx="500.0000000000" cy="-866.0254038000" r="2" />
	<circle cx="500.0000000000" cy="-866.0254038000" r="2" />
	<circle cx="0.0000000000" cy="-0.0000000000" r="2" />
	<circle cx="0.0000000000" cy="-0.0000000000" r="2" />
	<circle cx="500.0000000000" cy="-866.0254038000" r="2" />
	<circle cx="0.0012648382" cy="-0.0007296909" r="2" />
	<circle cx="1000.0000000000" cy="-0.0000000000" r="2" />
	<circle cx="500.0000000000" cy="-866.0254038000" r="2" />
	<circle cx="999.9999999998" cy="-0.0000000001" r="2" />
	<circle cx="0.0000000000" cy="-0.0000000000" r="2" />
	<circle cx="999.9999999755" cy="-0.0000000141" r="2" />
	<circle cx="999.9999998129" cy="-0.0000001186" r="2" />
	<circle cx="0.0000000745" cy="-0.0000000405" r="2" />
	<circle cx="999.9998463510" cy="-0.0000887562" r="2" />
	<circle cx="0.0000000003" cy="-0.0000000002" r="2" />
	<circle cx="1000.0000000000" cy="-0.0000000000" r="2" />
	<circle cx="500.0000000000" cy="-866.0254038000" r="2" />
	<circle cx="1000.0000000000" cy="-0.0000000000" r="2" />
	<circle cx="499.9999999957" cy="-866.0252492935" r="2" />
	<circle cx="0.0000000000" cy="-0.0000000000" r="2" />
	<circle cx="500.0000000000" cy="-866.0254038000" r="2" />
	<circle cx="500.0000000000" cy="-866.0254037994" r="2" />
	<circle cx="1000.0000000000" cy="-0.0000000000" r="2" />
	<circle cx="0.0001471702" cy="-0.0000849511" r="2" />
	<circle cx="1000.0000000000" cy="-0.0000000000" r="2" />
	<circle cx="999.9999987119" cy="-0.0000007436" r="2" />
	<circle cx="500.0000000000" cy="-866.0254038000" r="2" />
	<circle cx="0.0000000000" cy="-0.0000000000" r="2" />
	<circle cx="1000.0000000000" cy="-0.0000000000" r="2" />
	<circle cx="500.0000000000" cy="-866.0254037985" r="2" />
	<circle cx="500.0000000000" cy="-866.0254038000" r="2" />
	<circle cx="500.0000000000" cy="-866.0254038000" r="2" />
	<circle cx="1000.0000000000" cy="-0.0000000000" r="2" />
	<circle cx="500.0000000000" cy="-866.0254038000" r="2" />
	<circle cx="1000.0000000000" cy="-0.0000000000" r="2" />
	<circle cx="500.0000000000" cy="-866.0254038000" r="2" />
	<circle cx="999.9999417021" cy="-0.0000336412" r="2" />
	<circle cx="1000.0000000000" cy="-0.0000000000" r="2" />
	<circle cx="0.0000000001" cy="-0.0000000001" r="2" />
	<circle cx="1000.0000000000" cy="-0.0000000000" r="2" />
	<circle cx="0.0223965544" cy="-0.0155079367" r="2" />
	<circle cx="0.0000000000" cy="-0.0000000000" r="2" />
	<circle cx="0.0000000000" cy="-0.0000000000" r="2" />
	<circle cx="0.0000763418" cy="-0.0000431591" r="2" />
	<circle cx="1000.0000000000" cy="-0.0000000000" r="2" />
	<circle cx="0.0000000000" cy="-0.0000000000" r="2" />
	<circle cx="999.9862257933" cy="-0.0083208727" r="2" />
	<circle cx="0.0000000000" cy="-0.0000000000" r="2" />
	<circle cx="1000.0000000000" cy="-0.0000000000" r="2" />
	<circle cx="1000.0000000000" cy="-0.0000000000" r="2" />
	<circle cx="500.0000000397" cy="-866.0253995639" r="2" />
	<circle cx="1000.0000000000" cy="-0.0000000000" r="2" />
	<circle cx="1000.0000000000" cy="-0.0000000000" r="2" />
	<circle cx="500.0000000000" cy="-866.0254038000" r="2" />
	<circle cx="999.9999974810" cy="-0.0000014541" r="2" />
	<circle cx="499.9999999952" cy="-866.0253676926" r="2" />
	<circle cx="1000.0000000000" cy="-0.0000000000" r="2" />
	<circle cx="500.0000000000" cy="-866.0254038000" r="2" />
	<circle cx="0.0000000000" cy="-0.0000000000" r="2" />
	<circle cx="0.0000000000" cy="-0.0000000000" r="2" />
	<circle cx="1000.0000000000" cy="-0.0000000000" r="2" />
	<circle cx="0.0000000000" cy="-0.0000000000" r="2" />
	<circle cx="500.0000000000" cy="-866.0254038000" r="2" />
	<circle cx="0.0000000000" cy="-0.0000000000" r="2" />
	<circle cx="0.0000000000" cy="-0.0000000000" r="2" />
	<circle cx="999.9999999990" cy="-0.0000000003" r="2" />
	<circle cx="500.0000000000" cy="-866.0254038000" r="2" />
	<circle cx="0.0000000000" cy="-0.0000000000" r="2" />
	<circle cx="500.0000000000" cy="-866.0254038000" r="2" />
	<circle cx="0.0000000000" cy="-0.0000000000" r="2" />
	<circle cx="0.0000650935" cy="-0.0000375922" r="2" />
	<circle cx="500.0000000000" cy="-866.0254038000" r="2" />
	<circle cx="500.0000000000" cy="-866.0254038000" r="2" />
	<circle cx="999.9995938115" cy="-0.0002347149" r="2" />
	<circle cx="999.9999123360" cy="-0.0000505994" r="2" />
	<circle cx="999.9999623903" cy="-0.0000217429" r="2" />
	<circle cx="500.0000000000" cy="-866.0254038000" r="2" />
	<circle cx="2.7709894241" cy="-1.6034606337" r="2" />
	<circle cx="500.0000000203" cy="-866.0253969124" r="2" />
	<circle cx="0.0000000000" cy="-0.0000000000" r="2" />
	<circle cx="500.0000000000" cy="-866.0254037984" r="2" />
	<circle cx="500.0000000000" cy="-866.0254038000" r="2" />
	<circle cx="500.0000000000" cy="-866.0254038000" r="2" />
	<circle cx="1000.0000000000" cy="-0.0000000000" r="2" />
	<circle cx="500.0000000000" cy="-866.0254038000" r="2" />
	<circle cx="1000.0000000000" cy="-0.0000000000" r="2" />
	<circle cx="1000.0000000000" cy="-0.0000000000" r="2" />
	<circle cx="1000.0000000000" cy="-0.0000000000" r="2" />
	<circle cx="1000.0000000000" cy="-0.0000000000" r="2" />
	<circle cx="0.0014340245" cy="-0.0008280150" r="2" />
	<circle cx="500.0000000000" cy="-866.0254038000" r="2" />
	<circle cx="999.9997817623" cy="-0.0001295930" r="2" />
	<circle cx="1000.0000000000" cy="-0.0000000000" r="2" />
	<circle cx="0.0000000660" cy="-0.0000000381" r="2" />
	<circle cx="1000.0000000000" cy="-0.0000000000" r="2" />
	<circle cx="500.0000000000" cy="-866.0254038000" r="2" />
	<circle cx="0.0000000000" cy="-0.0000000000" r="2" />
	<circle cx="500.0000000000" cy="-866.0254037975" r="2" />
	<circle cx="1000.0000000000" cy="-0.0000000000" r="2" />
	<circle cx="0.0000000000" cy="-0.0000000000" r="2" />
	<circle cx="999.9999992616" cy="-0.0000004469" r="2" />
	<circle cx="0.0000000000" cy="-0.0000000000" r="2" />
	<circle cx="500.0000000000" cy="-866.0254038000" r="2" />
	<circle cx="500.0000000000" cy="-866.0254038000" r="2" />
	<circle cx="1000.0000000000" cy="-0.0000000000" r="2" />
	<circle cx="500.0000000000" cy="-866.0254038000" r="2" />
	<circle cx="500.0000000000" cy="-866.0254037524" r="2" />
	<circle cx="499.9999999964" cy="-866.0253785027" r="2" />
	<circle cx="0.0000509509" cy="-0.0000288627" r="2" />
	<circle cx="0.0000000000" cy="-0.0000000000" r="2" />
	<circle cx="499.9999164200" cy="-866.0247121269" r="2" />
	<circle cx="0.0001842624" cy="-0.0002891293" r="2" />
	<circle cx="1000.0000000000" cy="-0.0000000000" r="2" />
	<circle cx="0.0000000000" cy="-0.0000000000" r="2" />
	<circle cx="1000.0000000000" cy="-0.0000000000" r="2" />
	<circle cx="500.0000000000" cy="-866.0254038000" r="2" />
	<circle cx="1000.0000000000" cy="-0.0000000000" r="2" />
	<circle cx="500.0000041726" cy="-865.6612019681" r="2" />
	<circle cx="500.0000000063" cy="-866.0253352256" r="2" />
	<circle cx="4.0772833502" cy="-0.7178465937" r="2" />
	<circle cx="500.0000000000" cy="-866.0254038000" r="2" />
	<circle cx="500.0000890550" cy="-866.0206641847" r="2" />
	<circle cx="500.0000000000" cy="-866.0254038000" r="2" />
	<circle cx="0.0000000000" cy="-0.0000000000" r="2" />
	<circle cx="985.9527041220" cy="-22.8476737709" r="2" />
	<circle cx="1000.0000000000" cy="-0.0000000000" r="2" />
	<circle cx="999.9999976314" cy="-0.0000013594" r="2" />
	<circle cx="500.0000000000" cy="-866.0254038000" r="2" />
	<circle cx="0.0000000000" cy="-0.0000000000" r="2" />
	<circle cx="1000.0000000000" cy="-0.0000000000" r="2" />
	<circle cx="500.0000000000" cy="-866.0254038000" r="2" />
	<circle cx="0.0000348061" cy="-0.0000200939" r="2" />
	<circle cx="0.0000000000" cy="-0.0000000000" r="2" />
	<circle cx="0.0000000000" cy="-0.0000000000" r="2" />
	<circle cx="997.8206655700" cy="-1.3547938210" r="2" />
	<circle cx="500.0000739930" cy="-866.0234533950" r="2" />
	<circle cx="0.0016943556" cy="-0.0009781151" r="2" />
	<circle cx="500.0000000000" cy="-866.0254038000" r="2" />
	<circle cx="1000.0000000000" cy="-0.0000000000" r="2" />
	<circle cx="1000.0000000000" cy="-0.0000000000" r="2" />
	<circle cx="0.0000000003" cy="-0.0000000002" r="2" />
	<circle cx="0.0000000000" cy="-0.0000000000" r="2" />
	<circle cx="0.0000000436" cy="-0.0000000252" r="2" />
	<circle cx="0.0000000000" cy="-0.0000000000" r="2" />
	<circle cx="0.0000000000" cy="-0.0000000000" r="2" />
	<circle cx="500.0000000000" cy="-866.0254038000" r="2" />
	<circle cx="0.0000000000" cy="-0.0000000000" r="2" />
	<circle cx="0.0000000000" cy="-0.0000000000" r="2" />
	<circle cx="0.0000000000" cy="-0.0000000000" r="2" />
	<circle cx="0.0000000000" cy="-0.0000000000" r="2" />
	<circle cx="0.0000000000" cy="-0.0000000000" r="2" />
	<circle cx="500.0000000000" cy="-866.0254038000" r="2" />
	<circle cx="1.6023359131" cy="-0.7031891326" r="2" />
	<circle cx="500.0000000000" cy="-866.0254038000" r="2" />
	<circle cx="500.0000000000" cy="-866.0254038000" r="2" />
	<circle cx="0.0264378671" cy="-0.0152638081" r="2" />
	<circle cx="992.5568256498" cy="-4.2987651814" r="2" />
	<circle cx="999.8773641025" cy="-0.0730840489" r="2" />
	<circle cx="999.9685501012" cy="-0.0277553557" r="2" />
	<circle cx="999.9968662124" cy="-0.0018116817" r="2" />
	<circle cx="1000.0000000000" cy="-0.0000000000" r="2" />
	<circle cx="0.0003117313" cy="-0.0002219783" r="2" />
	<circle cx="0.0000080806" cy="-0.0000046638" r="2" />
	<circle cx="1000.0000000000" cy="-0.0000000000" r="2" />
	<circle cx="0.0000000000" cy="-0.0000000000" r="2" />
	<circle cx="500.0000000000" cy="-866.0254038000" r="2" />
	<circle cx="1000.0000000000" cy="-0.0000000000" r="2" />
	<circle cx="0.0000572719" cy="-0.0000330917" r="2" />
	<circle cx="1000.0000000000" cy="-0.0000000000" r="2" />
	<circle cx="0.1206056865" cy="-0.0697565397" r="2" />
	<circle cx="500.0000000000" cy="-866.0254038000" r="2" />
	<circle cx="0.0000000000" cy="-0.0000000000" r="2" />
	<circle cx="0.0000000067" cy="-0.0000000040" r="2" />
	<circle cx="500.0000000000" cy="-866.0254038000" r="2" />
	<circle cx="500.0000000000" cy="-866.0254038000" r="2" />
	<circle cx="0.0000000000" cy="-0.0000000000" r="2" />
	<circle cx="500.0000000000" cy="-866.0254038000" r="2" />
	<circle cx="0.0000000000" cy="-0.0000000000" r="2" />
	<circle cx="0.0000000000" cy="-0.0000000000" r="2" />
	<circle cx="0.0000000000" cy="-0.0000000000" r="2" />
	<circle cx="1000.0000000000" cy="-0.0000000000" r="2" />
	<circle cx="0.0000000000" cy="-0.0000000000" r="2" />
	<circle cx="499.9999999583" cy="-866.0254025118" r="2" />
	<circle cx="500.0000000000" cy="-866.0254038000" r="2" />
	<circle cx="500.0000000000" cy="-866.0254037994" r="2" />
  </g>
  <g id="fig2" transform="translate(-550.0,1000)">
	<polygon points="0.0,-0.0 1000.0,-0.0 500.0,-866.0254038" />
	<line
	   id="line2-1"
	   y2="-0.0"
	   x2="500"
	   y1="-288.6751346"
	   x1="500" />
	<line
	   id="line2-2"
	   y2="-433.0127019"
	   x2="250"
	   y1="-288.6751346"
	   x1="500" />
	<line
	   id="line2-3"
	   y2="-433.0127019"
	   x2="750"
	   y1="-288.6751346"
	   x1="500" />
	<text
	   x="440"
	   y="-500"
	   id="up_2">34.0%</text>
	<text
	   x="250"
	   y="-150"
	   id="down_left_2">31.0%</text>
	<text
	   x="630"
	   y="-150"
	   id="down_right_2">35.0%</text>
  </g>
  <g id="fig3" transform="translate(550,1000)">
	<polygon points="0.0,-0.0 1000.0,-0.0 500.0,-866.0254038" />
	<polygon id="triangle3b" points="250,-144.3375673 750,-144.3375673 500,-577.3502692" />
	<line
	   id="line3-1"
	   x1="125"
	   y1="-216.5063509"
	   x2="250"
	   y2="-144.3375673" />
	<line
	   id="line3-2"
	   x1="375"
	   y1="-649.5190528"
	   x2="500"
	   y2="-577.3502692" />
	<line
	   id="line3-3"
	   x1="625"
	   y1="-649.5190528"
	   x2="500"
	   y2="-577.3502692" />
	<line
	   id="line3-4"
	   x1="875"
	   y1="-216.5063509"
	   x2="750"
	   y2="-144.3375673" />
	<line
	   id="line3-5"
	   x1="750"
	   y1="-0.0"
	   x2="750"
	   y2="-144.3375673" />
	<line
	   id="line3-6"
	   x1="250"
	   y1="-0.0"
	   x2="250"
	   y2="-144.3375673" />
	<text
	   x="500"
	   y="-660"
	   text-anchor="middle"
	   id="up_3">34.0%</text>
	<text
	   y="-50"
	   x="70"
	   id="down_left_3">30.8%</text>
	<text
	   y="-50"
	   x="770"
	   id="down_right_3">34.8%</text>
	<text
	   x="500"
	   y="-50"
	   text-anchor="middle"
	   id="down_side_3">0.2%</text>
	<text
	   x="500"
	   y="-280"
	   text-anchor="middle"
	   id="center_3">0.2%</text>
	<text
	   x="685.0"
	   y="-390.8439"
	   text-anchor="middle"
	   transform="rotate(60,665.0,-380.8439)"
	   id="right_side_3">0.0%</text>
	<text
	   x="315.0"
	   y="-390.8439"
	   text-anchor="middle"
	   transform="rotate(-60,335.0,-380.8439)"
	   id="left_side_3">0.0%</text>
  </g>
</g></g>
</svg>
