<?xml version="1.0" encoding="UTF-8" standalone="no"?>
<!DOCTYPE svg PUBLIC "-//W3C//DTD SVG 1.1//EN" "http://www.w3.org/Graphics/SVG/1.1/DTD/svg11.dtd">
<svg
   xmlns:svg="http://www.w3.org/2000/svg"
   xmlns="http://www.w3.org/2000/svg"
   xmlns:xlink="http://www.w3.org/1999/xlink"
   version="1.1"
   baseProfile="full"
   id="body"
   width="800px"
   height="800px"
   viewBox="0 0 1000 1000"
   preserveAspectRatio="none">
  <defs>
    <style type="text/css"><![CDATA[
      circle{ stroke: none; }
      polygon{ stroke: black; stroke-width: 2px; fill: none; }
      line{ stroke: black; stroke-width: 2px; }
      text{ font-size:50px; }
    ]]></style>
  </defs>
  <title
     id="title1">SVG drawing</title>
<g transform="scale(0.45)"><g transform="translate(600,1050)">
  <g id="fig1">
	<polygon points="0.0,-0.0 1000.0,-0.0 500,-866.0254038" />
	<circle cx="328.3679961576" cy="-393.4120523462" r="2" />
	<circle cx="718.8569728163" cy="-214.5231542479" r="2" />
	<circle cx="775.5334941244" cy="-129.6314755910" r="2" />
	<circle cx="546.0152114704" cy="-129.3748650137" r="2" />
	<circle cx="497.7878019855" cy="-842.1498211882" r="2" />
	<circle cx="30.0834612586" cy="-15.0728991738" r="2" />
	<circle cx="260.1293784766" cy="-126.4670601803" r="2" />
	<circle cx="332.7066133747" cy="-350.1538234079" r="2" />
	<circle cx="348.1440548566" cy="-7.0265278080" r="2" />
	<circle cx="995.5001405197" cy="-2.7357705517" r="2" />
	<circle cx="403.2739220947" cy="-180.6002035645" r="2" />
	<circle cx="528.7469914929" cy="-682.1650378025" r="2" />
	<circle cx="499.8507567071" cy="-864.5254722825" r="2" />
	<circle cx="500.0035366620" cy="-662.8974583789" r="2" />
	<circle cx="44.6988851890" cy="-19.1195696447" r="2" />
	<circle cx="485.0461864693" cy="-510.9861068507" r="2" />
	<circle cx="354.0602825164" cy="-204.4205050058" r="2" />
	<circle cx="504.3628155282" cy="-653.9041426653" r="2" />
	<circle cx="430.6356545321" cy="-314.8131331791" r="2" />
	<circle cx="32.2417891167" cy="-18.6161557646" r="2" />
	<circle cx="922.8705716679" cy="-48.7245516939" r="2" />
	<circle cx="499.9634826948" cy="-464.6755645255" r="2" />
	<circle cx="218.9247466138" cy="-27.1928818942" r="2" />
	<circle cx="487.9435177898" cy="-521.9930283894" r="2" />
	<circle cx="218.5683739116" cy="-108.5813235544" r="2" />
	<circle cx="999.0736162889" cy="-0.5352712706" r="2" />
	<circle cx="309.0361191171" cy="-60.0054759319" r="2" />
	<circle cx="449.0136677932" cy="-641.0535813058" r="2" />
	<circle cx="135.7792278025" cy="-78.1909477861" r="2" />
	<circle cx="500.0000000000" cy="-828.5406360721" r="2" />
	<circle cx="183.8545784197" cy="-80.9329327789" r="2" />
	<circle cx="754.7731037860" cy="-66.6382321106" r="2" />
	<circle cx="239.4731579662" cy="-175.4166334096" r="2" />
	<circle cx="404.8507883192" cy="-233.7408256995" r="2" />
	<circle cx="162.2393616993" cy="-114.7309496006" r="2" />
	<circle cx="679.1279198150" cy="-169.4311417856" r="2" />
	<circle cx="500.0003529455" cy="-856.9505792443" r="2" />
	<circle cx="684.6506530980" cy="-186.2063573908" r="2" />
	<circle cx="499.8333085077" cy="-556.1095788996" r="2" />
	<circle cx="521.7950972718" cy="-213.4930252286" r="2" />
	<circle cx="423.1147438041" cy="-334.3709317617" r="2" />
	<circle cx="520.1548812219" cy="-596.9923515941" r="2" />
	<circle cx="79.2848269139" cy="-62.2910574881" r="2" />
	<circle cx="793.9242639428" cy="-237.1496774524" r="2" />
	<circle cx="231.7477315483" cy="-146.9518756724" r="2" />
	<circle cx="595.6901535621" cy="-233.4234559170" r="2" />
	<circle cx="499.9497920782" cy="-781.3759185089" r="2" />
	<circle cx="823.9447073761" cy="-101.7458144707" r="2" />
	<circle cx="819.9260798814" cy="-121.0874480763" r="2" />
	<circle cx="499.8548677518" cy="-864.5797119347" r="2" />
	<circle cx="499.9998892819" cy="-856.5210054487" r="2" />
	<circle cx="999.4256774251" cy="-0.3315364155" r="2" />
	<circle cx="499.9998657230" cy="-862.9363267258" r="2" />
	<circle cx="298.3109776355" cy="-172.2295572520" r="2" />
	<circle cx="385.2484645816" cy="-407.8868031651" r="2" />
	<circle cx="636.7922679480" cy="-413.8430490946" r="2" />
	<circle cx="695.4089815566" cy="-368.9201535346" r="2" />
	<circle cx="385.8424260393" cy="-106.0758936092" r="2" />
	<circle cx="24.6250192528" cy="-14.2288026927" r="2" />
	<circle cx="499.8035893826" cy="-556.7703610654" r="2" />
	<circle cx="499.9855027455" cy="-858.3284876830" r="2" />
	<circle cx="496.5628032830" cy="-285.6723340812" r="2" />
	<circle cx="43.5158978829" cy="-29.3348349395" r="2" />
	<circle cx="957.4063462822" cy="-24.3372342161" r="2" />
	<circle cx="3.5680885419" cy="-2.0628830708" r="2" />
	<circle cx="999.9604627749" cy="-0.0228212008" r="2" />
	<circle cx="500.0000514101" cy="-545.3211862143" r="2" />
	<circle cx="543.9550497018" cy="-341.7259358485" r="2" />
	<circle cx="998.8087663322" cy="-0.6881031289" r="2" />
	<circle cx="283.2581007804" cy="-178.2434359182" r="2" />
	<circle cx="755.4791640110" cy="-246.8577719171" r="2" />
	<circle cx="646.0838398136" cy="-203.3953236370" r="2" />
	<circle cx="241.9380629761" cy="-139.6715492116" r="2" />
	<circle cx="662.4409754532" cy="-194.8953484133" r="2" />
	<circle cx="221.2098113371" cy="-127.7152114104" r="2" />
	<circle cx="452.4518553495" cy="-311.9403700373" r="2" />
	<circle cx="1.1359794641" cy="-0.6559522888" r="2" />
	<circle cx="519.8552140566" cy="-235.4662396156" r="2" />
	<circle cx="489.9747357212" cy="-383.7747537623" r="2" />
	<circle cx="473.4540587366" cy="-218.9983904758" r="2" />
	<circle cx="16.8411433115" cy="-9.2587008202" r="2" />
	<circle cx="682.3537513758" cy="-429.6589117488" r="2" />
	<circle cx="262.5923403533" cy="-151.6513543642" r="2" />
	<circle cx="585.0811775764" cy="-74.8477348634" r="2" />
	<circle cx="500.4383913694" cy="-552.5101836929" r="2" />
	<circle cx="214.6067196329" cy="-131.0925081337" r="2" />
	<circle cx="500.0081152285" cy="-288.6585876685" r="2" />
	<circle cx="984.2681359872" cy="-9.0886963959" r="2" />
	<circle cx="499.9889789532" cy="-816.7272911837" r="2" />
	<circle cx="459.4580410611" cy="-642.8898980729" r="2" />
	<circle cx="516.1876240525" cy="-54.3659054979" r="2" />
	<circle cx="362.1355140887" cy="-237.2320842935" r="2" />
	<circle cx="370.6391162631" cy="-213.9570436631" r="2" />
	<circle cx="723.8330586853" cy="-133.5099662996" r="2" />
	<circle cx="495.1455883254" cy="-533.2392131720" r="2" />
	<circle cx="502.1308518138" cy="-784.2100099156" r="2" />
	<circle cx="476.0940847198" cy="-793.9707453871" r="2" />
	<circle cx="529.8721377414" cy="-798.4995476042" r="2" />
	<circle cx="541.0872997100" cy="-602.9180438148" r="2" />
	<circle cx="569.3194734364" cy="-314.7880200404" r="2" />
	<circle cx="12.7542383206" cy="-7.3620872826" r="2" />
	<circle cx="21.4234254015" cy="-12.3727149532" r="2" />
	<circle cx="499.9992180371" cy="-668.1880217944" r="2" />
	<circle cx="142.9792945927" cy="-82.5479605983" r="2" />
	<circle cx="890.6866712946" cy="-61.6962379382" r="2" />
	<circle cx="998.7425381519" cy="-0.7259634123" r="2" />
	<circle cx="336.0531312299" cy="-415.5618460324" r="2" />
	<circle cx="14.3332505309" cy="-8.2748666425" r="2" />
	<circle cx="526.7293795564" cy="-614.7109082737" r="2" />
	<circle cx="693.2654771871" cy="-361.0994135739" r="2" />
	<circle cx="499.9849340483" cy="-739.6219826218" r="2" />
	<circle cx="500.0000008762" cy="-865.8524706082" r="2" />
	<circle cx="740.6515160856" cy="-149.8737288006" r="2" />
	<circle cx="500.9207542324" cy="-823.5852403617" r="2" />
	<circle cx="379.5815280203" cy="-465.8034024659" r="2" />
	<circle cx="499.9999959514" cy="-864.9026158339" r="2" />
	<circle cx="556.0793563488" cy="-256.2940871983" r="2" />
	<circle cx="495.7109749630" cy="-233.6429682052" r="2" />
	<circle cx="470.4942945677" cy="-83.2530247562" r="2" />
	<circle cx="672.6434284713" cy="-172.1684377196" r="2" />
	<circle cx="612.5779515455" cy="-36.9909375498" r="2" />
	<circle cx="629.1433421219" cy="-44.6567297864" r="2" />
	<circle cx="513.5965287804" cy="-782.8762591702" r="2" />
	<circle cx="39.1538978467" cy="-22.6046111611" r="2" />
	<circle cx="499.9949186993" cy="-323.6245556059" r="2" />
	<circle cx="336.7281167980" cy="-472.1514455139" r="2" />
	<circle cx="930.0709603982" cy="-42.7466224950" r="2" />
	<circle cx="514.1834183003" cy="-764.0815066380" r="2" />
	<circle cx="634.3806068019" cy="-211.1076726686" r="2" />
	<circle cx="47.9176970254" cy="-29.9452494898" r="2" />
	<circle cx="499.9989817790" cy="-846.2381059385" r="2" />
	<circle cx="500.0050254659" cy="-439.9375442558" r="2" />
	<circle cx="4.7905014634" cy="-2.7650932022" r="2" />
	<circle cx="483.1531828159" cy="-622.5386687103" r="2" />
	<circle cx="793.7444741043" cy="-119.0619538447" r="2" />
	<circle cx="496.9772638565" cy="-813.1384182535" r="2" />
	<circle cx="4.1799791906" cy="-2.4138188865" r="2" />
	<circle cx="471.0309786924" cy="-586.5321402715" r="2" />
	<circle cx="477.6683659404" cy="-118.1507619616" r="2" />
	<circle cx="603.3880065363" cy="-228.9509262081" r="2" />
	<circle cx="500.0168399710" cy="-288.6826914790" r="2" />
	<circle cx="1.6789425325" cy="-0.9691293185" r="2" />
	<circle cx="896.6450290305" cy="-18.4248501101" r="2" />
	<circle cx="971.3042985603" cy="-16.5174598828" r="2" />
	<circle cx="533.1265990032" cy="-195.2700226364" r="2" />
	<circle cx="885.1567724555" cy="-66.3163990942" r="2" />
	<circle cx="348.5631333084" cy="-471.5318982393" r="2" />
	<circle cx="848.2214589613" cy="-105.0889462401" r="2" />
	<circle cx="241.2985236532" cy="-152.0873158789" r="2" />
	<circle cx="521.3964494195" cy="-74.5425648934" r="2" />
	<circle cx="109.3863725336" cy="-38.8696928616" r="2" />
	<circle cx="199.5064607504" cy="-99.4233319326" r="2" />
	<circle cx="501.7476599915" cy="-808.9374885505" r="2" />
	<circle cx="518.6625882505" cy="-712.6863660295" r="2" />
	<circle cx="495.9326466961" cy="-846.2005424710" r="2" />
	<circle cx="499.9977020914" cy="-828.7883374414" r="2" />
	<circle cx="510.9718036359" cy="-297.5583774546" r="2" />
	<circle cx="993.4376128741" cy="-3.7901110447" r="2" />
	<circle cx="982.5038071514" cy="-10.0969819842" r="2" />
	<circle cx="475.9852233894" cy="-535.5358592989" r="2" />
	<circle cx="499.9927086652" cy="-288.6776682794" r="2" />
	<circle cx="489.6315016230" cy="-615.3322794676" r="2" />
	<circle cx="99.0850651333" cy="-48.0225439302" r="2" />
	<circle cx="500.1414518984" cy="-726.4302340497" r="2" />
	<circle cx="500.0016503689" cy="-368.4830587750" r="2" />
	<circle cx="390.4745969541" cy="-225.4459004136" r="2" />
	<circle cx="502.0535788102" cy="-813.0749279515" r="2" />
	<circle cx="999.9977852520" cy="-0.0012786500" r="2" />
	<circle cx="723.7530357369" cy="-182.7154282869" r="2" />
	<circle cx="498.0698953195" cy="-772.0641162805" r="2" />
	<circle cx="988.0114985810" cy="-6.9221956886" r="2" />
	<circle cx="500.0056792571" cy="-834.4483165534" r="2" />
	<circle cx="827.6169151084" cy="-72.7633145667" r="2" />
	<circle cx="278.8300880244" cy="-164.4792770332" r="2" />
	<circle cx="544.6417986626" cy="-317.2230812184" r="2" />
	<circle cx="158.3304328997" cy="-62.9173944924" r="2" />
	<circle cx="25.3104884065" cy="-39.7811158308" r="2" />
	<circle cx="557.9948930836" cy="-674.8524598981" r="2" />
	<circle cx="41.7757786434" cy="-24.1195533984" r="2" />
	<circle cx="512.1194093328" cy="-723.8809952285" r="2" />
	<circle cx="499.9945154613" cy="-740.7677007916" r="2" />
	<circle cx="151.8200630548" cy="-70.7064824060" r="2" />
	<circle cx="850.6605006272" cy="-86.2213017395" r="2" />
	<circle cx="162.1756297232" cy="-176.5146262288" r="2" />
	<circle cx="437.8559579722" cy="-381.1755579166" r="2" />
	<circle cx="473.0530769975" cy="-127.9097342662" r="2" />
	<circle cx="782.6232722803" cy="-148.6015891692" r="2" />
	<circle cx="492.8821669350" cy="-140.3814579947" r="2" />
	<circle cx="5.6084689366" cy="-3.4060388191" r="2" />
	<circle cx="615.2622627481" cy="-222.1103151448" r="2" />
	<circle cx="500.3212362616" cy="-290.9044974742" r="2" />
	<circle cx="500.0000398126" cy="-808.8264899601" r="2" />
	<circle cx="4.9409365850" cy="-7.2869606775" r="2" />
	<circle cx="623.6069513473" cy="-406.9121204528" r="2" />
	<circle cx="370.0781446571" cy="-469.7426359570" r="2" />
	<circle cx="574.0690766208" cy="-300.8252591208" r="2" />
	<circle cx="3.9864209943" cy="-1.6664746711" r="2" />
	<circle cx="499.6564990922" cy="-527.9784382734" r="2" />
	<circle cx="256.6242991106" cy="-159.5690374789" r="2" />
	<circle cx="594.3732136993" cy="-332.9922466164" r="2" />
	<circle cx="809.2049681414" cy="-125.6949481465" r="2" />
	<circle cx="530.5228105405" cy="-301.9442368257" r="2" />
	<circle cx="881.9006301490" cy="-67.9979207397" r="2" />
	<circle cx="0.9174434264" cy="-0.5296853553" r="2" />
	<circle cx="500.0991825000" cy="-865.7533282818" r="2" />
	<circle cx="21.6221305712" cy="-19.4748640146" r="2" />
	<circle cx="459.4651679138" cy="-775.5172485457" r="2" />
	<circle cx="457.9483508047" cy="-553.3773202134" r="2" />
	<circle cx="11.3349021155" cy="-6.5530887265" r="2" />
	<circle cx="500.0006463586" cy="-555.9378345968" r="2" />
	<circle cx="504.7865484627" cy="-259.2852048886" r="2" />
	<circle cx="344.2035287690" cy="-431.8728250445" r="2" />
	<circle cx="22.4098855921" cy="-18.0201556323" r="2" />
	<circle cx="254.8124075367" cy="-272.4679936918" r="2" />
	<circle cx="92.9118842948" cy="-53.6091794153" r="2" />
	<circle cx="12.3611492005" cy="-7.1366669504" r="2" />
	<circle cx="462.1324534216" cy="-266.8081897898" r="2" />
	<circle cx="772.4087954715" cy="-164.8090254427" r="2" />
	<circle cx="955.9239133147" cy="-48.7006471999" r="2" />
	<circle cx="500.9899475592" cy="-858.1365514184" r="2" />
	<circle cx="209.9379219126" cy="-121.2071465685" r="2" />
	<circle cx="555.0879997793" cy="-664.6620029568" r="2" />
	<circle cx="295.5258116515" cy="-106.8893388099" r="2" />
	<circle cx="809.5860388057" cy="-91.4926754883" r="2" />
	<circle cx="389.6440638558" cy="-344.9915863638" r="2" />
	<circle cx="486.1701508649" cy="-682.5189427821" r="2" />
	<circle cx="524.7711819557" cy="-274.3780259435" r="2" />
	<circle cx="329.4912969563" cy="-190.2301199986" r="2" />
	<circle cx="503.9600864429" cy="-354.2326788576" r="2" />
	<circle cx="761.0347009882" cy="-175.5869320697" r="2" />
	<circle cx="129.4165091374" cy="-122.0033713463" r="2" />
	<circle cx="972.4805645660" cy="-16.4407572083" r="2" />
	<circle cx="499.9957214322" cy="-332.4659757413" r="2" />
	<circle cx="498.0080702812" cy="-823.5023659547" r="2" />
	<circle cx="944.9540355179" cy="-30.3669149398" r="2" />
	<circle cx="568.6568604409" cy="-326.4132228945" r="2" />
	<circle cx="421.1978651149" cy="-642.9961655924" r="2" />
	<circle cx="500.0380820298" cy="-387.3109113653" r="2" />
	<circle cx="498.0756654147" cy="-842.3239910573" r="2" />
	<circle cx="500.0011025735" cy="-864.0220169740" r="2" />
	<circle cx="436.3931178937" cy="-305.6673392276" r="2" />
	<circle cx="843.7726010842" cy="-90.2200341604" r="2" />
	<circle cx="891.1429776960" cy="-62.8310979593" r="2" />
	<circle cx="884.7833493309" cy="-66.7186322092" r="2" />
	<circle cx="90.5303767056" cy="-91.2058561520" r="2" />
	<circle cx="721.6319229049" cy="-445.7455626069" r="2" />
	<circle cx="109.2876754204" cy="-63.1061739281" r="2" />
	<circle cx="164.6869852904" cy="-87.0392150962" r="2" />
	<circle cx="505.5332724720" cy="-838.5611009722" r="2" />
	<circle cx="484.9178016093" cy="-828.9059237584" r="2" />
	<circle cx="995.6765209195" cy="-2.4962020248" r="2" />
	<circle cx="500.0004933329" cy="-560.0279721690" r="2" />
	<circle cx="529.8344671995" cy="-387.1136017158" r="2" />
	<circle cx="4.3232162664" cy="-2.4958447629" r="2" />
	<circle cx="132.9904739360" cy="-206.6332251123" r="2" />
	<circle cx="500.0001030959" cy="-864.6032935231" r="2" />
	<circle cx="976.7951842463" cy="-13.3991972566" r="2" />
	<circle cx="273.6709240990" cy="-157.5468251098" r="2" />
	<circle cx="414.9529587711" cy="-239.5729216002" r="2" />
	<circle cx="494.3544481540" cy="-620.8782698688" r="2" />
	<circle cx="979.6353364127" cy="-9.6450652923" r="2" />
	<circle cx="146.9155916939" cy="-148.3381374889" r="2" />
	<circle cx="585.4248637022" cy="-239.3058261397" r="2" />
	<circle cx="812.7639687097" cy="-108.3883270666" r="2" />
	<circle cx="43.8533751976" cy="-14.5559893642" r="2" />
	<circle cx="499.9967980996" cy="-534.5417895295" r="2" />
	<circle cx="693.3479845658" cy="-326.7206609417" r="2" />
	<circle cx="434.3160225229" cy="-490.5744873758" r="2" />
	<circle cx="492.0337191794" cy="-703.4830139177" r="2" />
	<circle cx="500.0835813656" cy="-278.2183386308" r="2" />
	<circle cx="967.0414694790" cy="-19.0031990013" r="2" />
	<circle cx="500.0154519280" cy="-863.3772465482" r="2" />
	<circle cx="520.1093514874" cy="-307.2920837329" r="2" />
	<circle cx="570.2145215068" cy="-456.2870937685" r="2" />
	<circle cx="168.9489108647" cy="-3.7584854500" r="2" />
	<circle cx="273.2989148303" cy="-423.2620699287" r="2" />
	<circle cx="730.9149460991" cy="-376.5989580968" r="2" />
	<circle cx="143.5775277901" cy="-59.0922990192" r="2" />
	<circle cx="500.0000147012" cy="-865.7721639453" r="2" />
	<circle cx="501.4106939125" cy="-522.7512730555" r="2" />
	<circle cx="27.8528257932" cy="-15.8891853952" r="2" />
	<circle cx="299.7938664014" cy="-170.7540014462" r="2" />
	<circle cx="500.0000628848" cy="-865.5367852918" r="2" />
	<circle cx="460.5063178105" cy="-100.3192356989" r="2" />
	<circle cx="499.9154067801" cy="-865.3134567469" r="2" />
	<circle cx="521.4663863371" cy="-485.8715675648" r="2" />
	<circle cx="548.8733762628" cy="-260.4619986489" r="2" />
	<circle cx="250.6001985090" cy="-39.2481391482" r="2" />
	<circle cx="993.8562807136" cy="-3.1669512888" r="2" />
	<circle cx="510.2853681686" cy="-211.0065974171" r="2" />
	<circle cx="606.2701372015" cy="-28.3671104056" r="2" />
	<circle cx="48.1189854974" cy="-42.6860980945" r="2" />
	<circle cx="26.3126751127" cy="-8.8922805636" r="2" />
	<circle cx="667.4174614348" cy="-111.0288028095" r="2" />
	<circle cx="932.2543193473" cy="-41.9833117666" r="2" />
	<circle cx="619.0828757272" cy="-99.3185601314" r="2" />
	<circle cx="999.9982921619" cy="-0.0009858810" r="2" />
	<circle cx="499.9997972183" cy="-422.8778721883" r="2" />
	<circle cx="500.0000664870" cy="-858.8569569187" r="2" />
	<circle cx="500.7644469911" cy="-286.3236309615" r="2" />
	<circle cx="456.7534640609" cy="-313.2455849315" r="2" />
	<circle cx="502.8986467405" cy="-272.1964819514" r="2" />
	<circle cx="788.9960779745" cy="-133.7768808135" r="2" />
	<circle cx="977.1790677387" cy="-13.1789582341" r="2" />
	<circle cx="999.9823634615" cy="-0.0101890781" r="2" />
	<circle cx="982.5375691678" cy="-10.0780370582" r="2" />
	<circle cx="603.9907311890" cy="-349.0215694129" r="2" />
	<circle cx="936.4927402399" cy="-37.3528658950" r="2" />
	<circle cx="43.1403978015" cy="-24.9073317122" r="2" />
	<circle cx="290.3563824479" cy="-162.0313309799" r="2" />
	<circle cx="455.2946924330" cy="-277.8080899890" r="2" />
	<circle cx="209.9921591388" cy="-172.5578989998" r="2" />
	<circle cx="519.8510817528" cy="-653.2014393107" r="2" />
	<circle cx="637.0922745332" cy="-417.0694312681" r="2" />
	<circle cx="560.3096643229" cy="-253.8601368069" r="2" />
	<circle cx="480.4936307888" cy="-593.7976011204" r="2" />
	<circle cx="499.9998539869" cy="-856.3288237898" r="2" />
	<circle cx="40.8606841027" cy="-26.7808018172" r="2" />
	<circle cx="479.1373406955" cy="-805.5957774091" r="2" />
	<circle cx="500.4474857602" cy="-289.4564782876" r="2" />
	<circle cx="500.0585258101" cy="-562.6809788890" r="2" />
	<circle cx="92.4144342007" cy="-53.3781198133" r="2" />
	<circle cx="427.9225614619" cy="-636.9423465420" r="2" />
	<circle cx="861.3522038160" cy="-80.3938810344" r="2" />
	<circle cx="978.7244804638" cy="-5.9264697554" r="2" />
	<circle cx="542.2267057452" cy="-632.2858410680" r="2" />
	<circle cx="373.5872580987" cy="-250.5252814017" r="2" />
	<circle cx="500.0132038132" cy="-288.6727345041" r="2" />
	<circle cx="674.8048392163" cy="-184.9316214527" r="2" />
	<circle cx="1.6475513004" cy="-0.9513761492" r="2" />
	<circle cx="701.2561501004" cy="-174.0268024741" r="2" />
	<circle cx="56.1719249324" cy="-44.2466498184" r="2" />
	<circle cx="500.1694157560" cy="-426.1008096591" r="2" />
	<circle cx="965.1166858585" cy="-28.3694709209" r="2" />
	<circle cx="500.0000339074" cy="-865.9052255820" r="2" />
	<circle cx="809.0637073833" cy="-132.4222368784" r="2" />
	<circle cx="242.2583171105" cy="-139.8413107528" r="2" />
	<circle cx="340.3615166880" cy="-348.2460679831" r="2" />
	<circle cx="1.1099733831" cy="-0.8473479014" r="2" />
	<circle cx="995.3793405184" cy="-2.4215334393" r="2" />
	<circle cx="499.9993947818" cy="-619.2097369337" r="2" />
	<circle cx="499.9918648199" cy="-629.8272865740" r="2" />
	<circle cx="684.9430715672" cy="-259.6303126817" r="2" />
	<circle cx="852.4822732059" cy="-85.1773425139" r="2" />
	<circle cx="306.3173377609" cy="-204.4775136648" r="2" />
	<circle cx="867.3913718463" cy="-76.7094993979" r="2" />
	<circle cx="143.0279026803" cy="-63.0029884624" r="2" />
	<circle cx="550.7600321521" cy="-504.1779611367" r="2" />
	<circle cx="559.6985823456" cy="-327.2188525759" r="2" />
	<circle cx="433.9755154106" cy="-252.0962137217" r="2" />
	<circle cx="499.9997847976" cy="-794.1153791565" r="2" />
	<circle cx="867.6177103170" cy="-197.8657831045" r="2" />
	<circle cx="711.9798143205" cy="-170.0929951970" r="2" />
	<circle cx="526.9055983366" cy="-521.4414044321" r="2" />
	<circle cx="234.8779828790" cy="-135.6197903521" r="2" />
	<circle cx="536.6409738462" cy="-143.4920905111" r="2" />
	<circle cx="499.9801841452" cy="-316.3246673368" r="2" />
	<circle cx="0.0928189359" cy="-0.0535744618" r="2" />
	<circle cx="999.9977851511" cy="-0.0012791257" r="2" />
	<circle cx="139.5430061044" cy="-170.6987964662" r="2" />
	<circle cx="896.3008858896" cy="-40.9165238234" r="2" />
	<circle cx="467.0916104301" cy="-605.5395760133" r="2" />
	<circle cx="221.6764753823" cy="-147.5345823365" r="2" />
	<circle cx="309.4162037972" cy="-439.9617934797" r="2" />
	<circle cx="294.3789813877" cy="-170.0560399220" r="2" />
	<circle cx="899.0736950235" cy="-114.9271000302" r="2" />
	<circle cx="492.8131163618" cy="-479.2801029120" r="2" />
	<circle cx="745.2993051854" cy="-146.6825338449" r="2" />
	<circle cx="0.0743468652" cy="-0.0429246560" r="2" />
	<circle cx="973.2411528988" cy="-41.6555956613" r="2" />
	<circle cx="837.5203607966" cy="-93.8071101355" r="2" />
	<circle cx="536.1637976283" cy="-332.4744405820" r="2" />
	<circle cx="17.8636778459" cy="-9.1731090812" r="2" />
	<circle cx="556.7680374590" cy="-107.8629179464" r="2" />
	<circle cx="228.9801068007" cy="-273.0098364456" r="2" />
	<circle cx="499.9990079202" cy="-827.9459922577" r="2" />
	<circle cx="969.2992692002" cy="-17.7213755809" r="2" />
	<circle cx="143.3694270824" cy="-82.7725655695" r="2" />
	<circle cx="499.2560731184" cy="-280.9164861320" r="2" />
	<circle cx="500.6663155798" cy="-202.6308915920" r="2" />
	<circle cx="867.9288830900" cy="-105.2365390158" r="2" />
	<circle cx="109.0215163165" cy="-62.8969830867" r="2" />
	<circle cx="463.7173393831" cy="-272.9357333560" r="2" />
	<circle cx="2.2664416133" cy="-1.6288989409" r="2" />
	<circle cx="214.0061816115" cy="-154.3104078300" r="2" />
	<circle cx="587.8216968041" cy="-136.0093022027" r="2" />
	<circle cx="494.8217741639" cy="-375.7317737237" r="2" />
	<circle cx="999.9047014177" cy="-0.0550232243" r="2" />
	<circle cx="494.2196298428" cy="-558.4855196556" r="2" />
	<circle cx="500.0005005777" cy="-641.7430814592" r="2" />
	<circle cx="42.9946813479" cy="-24.8232075082" r="2" />
	<circle cx="525.9087433376" cy="-688.4875333259" r="2" />
	<circle cx="927.4605684651" cy="-92.8875663919" r="2" />
	<circle cx="999.9300178927" cy="-0.0404050924" r="2" />
	<circle cx="495.3011922345" cy="-837.5134336667" r="2" />
	<circle cx="0.3047745101" cy="-0.1759496609" r="2" />
	<circle cx="482.8525398228" cy="-738.7723822394" r="2" />
	<circle cx="324.3444696689" cy="-401.4212069032" r="2" />
	<circle cx="983.1139372476" cy="-10.9041099663" r="2" />
	<circle cx="263.0840151189" cy="-94.1127701577" r="2" />
	<circle cx="499.9791972800" cy="-534.7956541113" r="2" />
	<circle cx="122.2927673884" cy="-70.6006663040" r="2" />
	<circle cx="758.9415869103" cy="-151.9331563473" r="2" />
	<circle cx="598.8187929291" cy="-168.5479905157" r="2" />
	<circle cx="33.8344026007" cy="-19.5383235824" r="2" />
	<circle cx="499.9922181119" cy="-689.9793169063" r="2" />
	<circle cx="864.4749286025" cy="-136.5662006610" r="2" />
	<circle cx="963.3899742796" cy="-20.6048797075" r="2" />
	<circle cx="499.2895283962" cy="-231.5632879204" r="2" />
	<circle cx="51.3849646052" cy="-86.4514260687" r="2" />
	<circle cx="499.9999647382" cy="-861.1988356347" r="2" />
	<circle cx="622.8865628868" cy="-217.7203986835" r="2" />
	<circle cx="909.0242596865" cy="-37.5920418530" r="2" />
	<circle cx="524.6066943325" cy="-187.6890712104" r="2" />
	<circle cx="500.0282818155" cy="-862.0959968750" r="2" />
	<circle cx="499.9980250332" cy="-433.1824432639" r="2" />
	<circle cx="809.1405429561" cy="-92.5313729160" r="2" />
	<circle cx="13.1771083780" cy="-7.6080405705" r="2" />
	<circle cx="513.2189036372" cy="-397.0158730708" r="2" />
	<circle cx="499.8122153042" cy="-860.8321810319" r="2" />
	<circle cx="55.0089647495" cy="-33.4417417292" r="2" />
	<circle cx="58.4534643485" cy="-33.7546690327" r="2" />
	<circle cx="595.4651234316" cy="-676.2802873251" r="2" />
	<circle cx="544.2351916130" cy="-735.0839425428" r="2" />
	<circle cx="24.4074617709" cy="-10.0578901561" r="2" />
	<circle cx="810.6136311155" cy="-105.3469339935" r="2" />
	<circle cx="499.9880080016" cy="-549.4448980681" r="2" />
	<circle cx="511.5424510742" cy="-726.8725362718" r="2" />
	<circle cx="990.4134043374" cy="-5.2082173357" r="2" />
	<circle cx="130.9242617061" cy="-59.5260398383" r="2" />
	<circle cx="352.2732262887" cy="-389.0369538098" r="2" />
	<circle cx="497.0595838286" cy="-834.4470989740" r="2" />
	<circle cx="321.6601553395" cy="-207.5066597948" r="2" />
	<circle cx="434.3992502961" cy="-526.7863662185" r="2" />
	<circle cx="772.7169272776" cy="-98.4473356284" r="2" />
	<circle cx="473.9275778355" cy="-273.6230503023" r="2" />
	<circle cx="96.1346658543" cy="-55.4954474644" r="2" />
	<circle cx="417.6755382054" cy="-241.1518264784" r="2" />
	<circle cx="0.5406681338" cy="-0.3121465943" r="2" />
	<circle cx="495.7825331944" cy="-309.5848750562" r="2" />
	<circle cx="331.2487110027" cy="-191.2608395052" r="2" />
	<circle cx="687.7791812431" cy="-108.9066266991" r="2" />
	<circle cx="538.4612097396" cy="-266.4680883608" r="2" />
	<circle cx="13.6954652229" cy="-9.7412771030" r="2" />
	<circle cx="998.6143151556" cy="-0.8000734707" r="2" />
	<circle cx="870.3277546713" cy="-75.7179984688" r="2" />
	<circle cx="515.8290954392" cy="-555.2584961662" r="2" />
	<circle cx="636.4000503573" cy="-228.0463103054" r="2" />
	<circle cx="7.1206503220" cy="-4.1111506387" r="2" />
	<circle cx="500.2869871462" cy="-211.8550092789" r="2" />
	<circle cx="500.0164388059" cy="-288.6762084706" r="2" />
	<circle cx="500.0137080613" cy="-379.3440413701" r="2" />
	<circle cx="294.6819144858" cy="-180.6687355731" r="2" />
	<circle cx="71.3386514782" cy="-41.3916943123" r="2" />
	<circle cx="477.0101550576" cy="-707.1884611126" r="2" />
	<circle cx="953.9274527280" cy="-26.6105995850" r="2" />
	<circle cx="793.7050735274" cy="-99.7645478411" r="2" />
	<circle cx="499.9891550104" cy="-288.6769961140" r="2" />
	<circle cx="500.0000200610" cy="-830.8490184046" r="2" />
	<circle cx="477.7813047785" cy="-605.1252585670" r="2" />
	<circle cx="6.8213719924" cy="-3.4432698775" r="2" />
	<circle cx="394.3182659118" cy="-331.4860897925" r="2" />
	<circle cx="591.9271239222" cy="-235.5994905723" r="2" />
	<circle cx="557.8462563270" cy="-349.7916739197" r="2" />
	<circle cx="500.1826823278" cy="-865.0207883581" r="2" />
	<circle cx="180.7608780434" cy="-294.4201109361" r="2" />
	<circle cx="834.3373232822" cy="-96.1822564700" r="2" />
	<circle cx="401.2776736411" cy="-138.4800473258" r="2" />
	<circle cx="809.6677627412" cy="-41.2511123318" r="2" />
	<circle cx="496.8680219436" cy="-293.6947318520" r="2" />
	<circle cx="523.6740071351" cy="-797.8064379015" r="2" />
	<circle cx="0.3348802727" cy="-0.1933380171" r="2" />
	<circle cx="938.4220405609" cy="-20.5560074878" r="2" />
	<circle cx="784.8045474066" cy="-121.2565937844" r="2" />
	<circle cx="470.2022302899" cy="-387.0806070357" r="2" />
	<circle cx="500.0048631578" cy="-865.9799574804" r="2" />
	<circle cx="500.2604365780" cy="-697.4611249731" r="2" />
	<circle cx="441.3281400449" cy="-254.7988221750" r="2" />
	<circle cx="257.1735529834" cy="-148.4492336447" r="2" />
	<circle cx="172.4668403173" cy="-99.5735620971" r="2" />
	<circle cx="551.1312066779" cy="-389.2261749642" r="2" />
	<circle cx="943.0899340105" cy="-36.0206023501" r="2" />
	<circle cx="282.3920111485" cy="-112.4579258736" r="2" />
	<circle cx="500.0013379796" cy="-836.3742466169" r="2" />
	<circle cx="497.3337832196" cy="-275.3733635927" r="2" />
	<circle cx="33.9511996136" cy="-19.6022362717" r="2" />
	<circle cx="732.0384365387" cy="-172.5519893812" r="2" />
	<circle cx="470.3814108383" cy="-64.5123453037" r="2" />
	<circle cx="518.4437853999" cy="-723.8826225782" r="2" />
	<circle cx="457.1524152991" cy="-124.9878993463" r="2" />
	<circle cx="864.2300448252" cy="-78.1708904578" r="2" />
	<circle cx="382.6717061704" cy="-220.9390983857" r="2" />
	<circle cx="0.2193655485" cy="-0.1266667144" r="2" />
	<circle cx="380.6869379518" cy="-322.7935577865" r="2" />
	<circle cx="961.8864550436" cy="-3.3829895635" r="2" />
	<circle cx="484.6798921215" cy="-416.9163042917" r="2" />
	<circle cx="824.3322612033" cy="-101.5399707252" r="2" />
	<circle cx="472.5460949345" cy="-231.9616980299" r="2" />
	<circle cx="227.2909681922" cy="-133.6881642520" r="2" />
	<circle cx="980.5053905027" cy="-20.4710969214" r="2" />
  </g>
  <g id="fig2" transform="translate(-550.0,1000)">
	<polygon points="0.0,-0.0 1000.0,-0.0 500.0,-866.0254038" />
	<line
	   id="line2-1"
	   y2="-0.0"
	   x2="500"
	   y1="-288.6751346"
	   x1="500" />
	<line
	   id="line2-2"
	   y2="-433.0127019"
	   x2="250"
	   y1="-288.6751346"
	   x1="500" />
	<line
	   id="line2-3"
	   y2="-433.0127019"
	   x2="750"
	   y1="-288.6751346"
	   x1="500" />
	<text
	   x="440"
	   y="-500"
	   id="up_2">34.6%</text>
	<text
	   x="250"
	   y="-150"
	   id="down_left_2">33.6%</text>
	<text
	   x="630"
	   y="-150"
	   id="down_right_2">31.8%</text>
  </g>
  <g id="fig3" transform="translate(550,1000)">
	<polygon points="0.0,-0.0 1000.0,-0.0 500.0,-866.0254038" />
	<polygon id="triangle3b" points="250,-144.3375673 750,-144.3375673 500,-577.3502692" />
	<line
	   id="line3-1"
	   x1="125"
	   y1="-216.5063509"
	   x2="250"
	   y2="-144.3375673" />
	<line
	   id="line3-2"
	   x1="375"
	   y1="-649.5190528"
	   x2="500"
	   y2="-577.3502692" />
	<line
	   id="line3-3"
	   x1="625"
	   y1="-649.5190528"
	   x2="500"
	   y2="-577.3502692" />
	<line
	   id="line3-4"
	   x1="875"
	   y1="-216.5063509"
	   x2="750"
	   y2="-144.3375673" />
	<line
	   id="line3-5"
	   x1="750"
	   y1="-0.0"
	   x2="750"
	   y2="-144.3375673" />
	<line
	   id="line3-6"
	   x1="250"
	   y1="-0.0"
	   x2="250"
	   y2="-144.3375673" />
	<text
	   x="500"
	   y="-660"
	   text-anchor="middle"
	   id="up_3">19.2%</text>
	<text
	   y="-50"
	   x="70"
	   id="down_left_3">19.4%</text>
	<text
	   y="-50"
	   x="770"
	   id="down_right_3">17.6%</text>
	<text
	   x="500"
	   y="-50"
	   text-anchor="middle"
	   id="down_side_3">6.0%</text>
	<text
	   x="500"
	   y="-280"
	   text-anchor="middle"
	   id="center_3">29.0%</text>
	<text
	   x="685.0"
	   y="-390.8439"
	   text-anchor="middle"
	   transform="rotate(60,665.0,-380.8439)"
	   id="right_side_3">3.8%</text>
	<text
	   x="315.0"
	   y="-390.8439"
	   text-anchor="middle"
	   transform="rotate(-60,335.0,-380.8439)"
	   id="left_side_3">5.0%</text>
  </g>
</g></g>
</svg>
