<?xml version="1.0" encoding="UTF-8" standalone="no"?>
<!DOCTYPE svg PUBLIC "-//W3C//DTD SVG 1.1//EN" "http://www.w3.org/Graphics/SVG/1.1/DTD/svg11.dtd">
<svg
   xmlns:svg="http://www.w3.org/2000/svg"
   xmlns="http://www.w3.org/2000/svg"
   xmlns:xlink="http://www.w3.org/1999/xlink"
   version="1.1"
   baseProfile="full"
   id="body"
   width="800px"
   height="800px"
   viewBox="0 0 1000 1000"
   preserveAspectRatio="none">
  <defs>
    <style type="text/css"><![CDATA[
      circle{ stroke: none; }
      polygon{ stroke: black; stroke-width: 2px; fill: none; }
      line{ stroke: black; stroke-width: 2px; }
      text{ font-size:50px; }
    ]]></style>
  </defs>
  <title
     id="title1">SVG drawing</title>
<g transform="scale(0.45)"><g transform="translate(600,1050)">
  <g id="fig1">
	<polygon points="0.0,-0.0 1000.0,-0.0 500,-866.0254038" />
	<circle cx="500.0000000000" cy="-866.0254037981" r="2" />
	<circle cx="0.0000000000" cy="-0.0000000000" r="2" />
	<circle cx="5.0785808939" cy="-2.9323778016" r="2" />
	<circle cx="1000.0000000000" cy="-0.0000000000" r="2" />
	<circle cx="999.9999999995" cy="-0.0000000003" r="2" />
	<circle cx="1000.0000000000" cy="-0.0000000000" r="2" />
	<circle cx="999.9999999266" cy="-0.0000000424" r="2" />
	<circle cx="997.7244741895" cy="-1.3140518395" r="2" />
	<circle cx="500.0000000000" cy="-866.0254037906" r="2" />
	<circle cx="1000.0000000000" cy="-0.0000000000" r="2" />
	<circle cx="0.0000000000" cy="-0.0000000000" r="2" />
	<circle cx="500.0000000000" cy="-866.0254038000" r="2" />
	<circle cx="499.9999987227" cy="-866.0114862228" r="2" />
	<circle cx="0.0000000023" cy="-0.0000000013" r="2" />
	<circle cx="500.0000000000" cy="-866.0254038000" r="2" />
	<circle cx="0.0000000000" cy="-0.0000000000" r="2" />
	<circle cx="999.9832340978" cy="-0.0096809187" r="2" />
	<circle cx="1000.0000000000" cy="-0.0000000000" r="2" />
	<circle cx="0.0058713856" cy="-0.0034340624" r="2" />
	<circle cx="495.1485786324" cy="-357.0763637704" r="2" />
	<circle cx="996.6232091110" cy="-1.9003298639" r="2" />
	<circle cx="471.9728121368" cy="-589.8210937544" r="2" />
	<circle cx="0.0000000000" cy="-0.0000000000" r="2" />
	<circle cx="0.0000000002" cy="-0.0000000001" r="2" />
	<circle cx="0.0000000141" cy="-0.0000000021" r="2" />
	<circle cx="996.1314986433" cy="-2.2335405809" r="2" />
	<circle cx="999.9999999997" cy="-0.0000000001" r="2" />
	<circle cx="999.9486921246" cy="-0.0296276204" r="2" />
	<circle cx="563.7314423909" cy="-86.2188909424" r="2" />
	<circle cx="1000.0000000000" cy="-0.0000000000" r="2" />
	<circle cx="500.0000539836" cy="-865.9797240483" r="2" />
	<circle cx="0.0000000000" cy="-0.0000000000" r="2" />
	<circle cx="500.0000000000" cy="-866.0254038000" r="2" />
	<circle cx="500.0000000005" cy="-866.0253837393" r="2" />
	<circle cx="500.0006867691" cy="-393.2119670730" r="2" />
	<circle cx="0.0000000000" cy="-0.0000000000" r="2" />
	<circle cx="999.9999999999" cy="-0.0000000001" r="2" />
	<circle cx="499.9565690780" cy="-865.3821776704" r="2" />
	<circle cx="1000.0000000000" cy="-0.0000000000" r="2" />
	<circle cx="500.0000000000" cy="-866.0254038000" r="2" />
	<circle cx="0.0000000000" cy="-0.0000000000" r="2" />
	<circle cx="0.0406778849" cy="-0.0234859104" r="2" />
	<circle cx="999.9958015238" cy="-0.0024236976" r="2" />
	<circle cx="0.0000008544" cy="-0.0000003417" r="2" />
	<circle cx="0.0000000000" cy="-0.0000000000" r="2" />
	<circle cx="0.0000000000" cy="-0.0000000000" r="2" />
	<circle cx="999.9999932730" cy="-0.0000056200" r="2" />
	<circle cx="0.0000000627" cy="-0.0000000362" r="2" />
	<circle cx="500.0000000000" cy="-866.0254038000" r="2" />
	<circle cx="1000.0000000000" cy="-0.0000000000" r="2" />
	<circle cx="0.0000000000" cy="-0.0000000000" r="2" />
	<circle cx="500.0000149932" cy="-865.9963997672" r="2" />
	<circle cx="0.2730603834" cy="-0.1576434323" r="2" />
	<circle cx="10.6263214037" cy="-10.4182465375" r="2" />
	<circle cx="500.0000000043" cy="-866.0253794197" r="2" />
	<circle cx="1000.0000000000" cy="-0.0000000000" r="2" />
	<circle cx="0.0000000000" cy="-0.0000000000" r="2" />
	<circle cx="0.0000000000" cy="-0.0000000000" r="2" />
	<circle cx="1000.0000000000" cy="-0.0000000000" r="2" />
	<circle cx="999.9999976031" cy="-0.0000013840" r="2" />
	<circle cx="0.0000000000" cy="-0.0000000000" r="2" />
	<circle cx="500.0000000000" cy="-866.0254038000" r="2" />
	<circle cx="0.0015619408" cy="-0.0009017247" r="2" />
	<circle cx="500.0000000000" cy="-866.0254038000" r="2" />
	<circle cx="500.0000000000" cy="-866.0254038000" r="2" />
	<circle cx="499.9999999957" cy="-866.0253499941" r="2" />
	<circle cx="0.0000000000" cy="-0.0000000000" r="2" />
	<circle cx="500.0000000000" cy="-866.0254038000" r="2" />
	<circle cx="0.0000000000" cy="-0.0000000000" r="2" />
	<circle cx="500.0000000000" cy="-866.0254038000" r="2" />
	<circle cx="495.5880050392" cy="-827.1510590669" r="2" />
	<circle cx="2.2775567392" cy="-1.3150316924" r="2" />
	<circle cx="1000.0000000000" cy="-0.0000000000" r="2" />
	<circle cx="999.9999999979" cy="-0.0000000012" r="2" />
	<circle cx="0.0004614157" cy="-0.0002664441" r="2" />
	<circle cx="500.0000000000" cy="-866.0254038000" r="2" />
	<circle cx="999.9934350810" cy="-0.0037902294" r="2" />
	<circle cx="500.0000000000" cy="-866.0254038000" r="2" />
	<circle cx="0.0000000000" cy="-0.0000000000" r="2" />
	<circle cx="0.0000000000" cy="-0.0000000000" r="2" />
	<circle cx="0.8063010825" cy="-0.4655672219" r="2" />
	<circle cx="981.9411959885" cy="-10.4245306797" r="2" />
	<circle cx="500.0000000000" cy="-866.0254038000" r="2" />
	<circle cx="21.0969944128" cy="-16.3233648855" r="2" />
	<circle cx="500.0000000000" cy="-866.0254038000" r="2" />
	<circle cx="0.0000000838" cy="-0.0000000486" r="2" />
	<circle cx="1000.0000000000" cy="-0.0000000000" r="2" />
	<circle cx="1000.0000000000" cy="-0.0000000000" r="2" />
	<circle cx="1000.0000000000" cy="-0.0000000000" r="2" />
	<circle cx="502.3073513480" cy="-857.3516376328" r="2" />
	<circle cx="484.8395884689" cy="-333.9769336437" r="2" />
	<circle cx="1000.0000000000" cy="-0.0000000000" r="2" />
	<circle cx="455.5970592410" cy="-262.9835321731" r="2" />
	<circle cx="999.9999999996" cy="-0.0000000002" r="2" />
	<circle cx="0.0234308635" cy="-0.0104888129" r="2" />
	<circle cx="500.0000000000" cy="-866.0254037820" r="2" />
	<circle cx="999.9999781145" cy="-0.0000126380" r="2" />
	<circle cx="0.0000000000" cy="-0.0000000000" r="2" />
	<circle cx="0.0000000003" cy="-0.0000000002" r="2" />
	<circle cx="999.9963435498" cy="-0.0021108304" r="2" />
	<circle cx="500.0000000000" cy="-866.0254038000" r="2" />
	<circle cx="0.0000000000" cy="-0.0000000000" r="2" />
	<circle cx="0.0000000000" cy="-0.0000000000" r="2" />
	<circle cx="500.0000002483" cy="-866.0232144747" r="2" />
	<circle cx="499.9998131837" cy="-865.9651409274" r="2" />
	<circle cx="1000.0000000000" cy="-0.0000000000" r="2" />
	<circle cx="500.0000000000" cy="-866.0254038000" r="2" />
	<circle cx="999.9999999900" cy="-0.0000000058" r="2" />
	<circle cx="994.8286582284" cy="-2.9854119977" r="2" />
	<circle cx="1000.0000000000" cy="-0.0000000000" r="2" />
	<circle cx="386.2904424775" cy="-223.0267372516" r="2" />
	<circle cx="0.0002591246" cy="-0.0001496322" r="2" />
	<circle cx="499.9792805979" cy="-726.3839197147" r="2" />
	<circle cx="1000.0000000000" cy="-0.0000000000" r="2" />
	<circle cx="616.1753898759" cy="-393.9202175700" r="2" />
	<circle cx="1000.0000000000" cy="-0.0000000000" r="2" />
	<circle cx="500.0000677958" cy="-866.0196024966" r="2" />
	<circle cx="1000.0000000000" cy="-0.0000000000" r="2" />
	<circle cx="500.0000000000" cy="-866.0254038000" r="2" />
	<circle cx="0.0000000000" cy="-0.0000000000" r="2" />
	<circle cx="500.0000000000" cy="-866.0254038000" r="2" />
	<circle cx="1000.0000000000" cy="-0.0000000000" r="2" />
	<circle cx="500.0000051566" cy="-865.9305897778" r="2" />
	<circle cx="1.5518570208" cy="-0.8958329995" r="2" />
	<circle cx="0.0010305981" cy="-0.0005962240" r="2" />
	<circle cx="0.0000000000" cy="-0.0000000000" r="2" />
	<circle cx="0.0000000002" cy="-0.0000000001" r="2" />
	<circle cx="663.1891880993" cy="-194.4423084652" r="2" />
	<circle cx="0.0351141595" cy="-0.0211493011" r="2" />
	<circle cx="0.0000002912" cy="-0.0000001682" r="2" />
	<circle cx="0.0000725420" cy="-0.0000418862" r="2" />
	<circle cx="999.9901125181" cy="-0.0057091078" r="2" />
	<circle cx="0.0032666122" cy="-0.0018860275" r="2" />
	<circle cx="1000.0000000000" cy="-0.0000000000" r="2" />
	<circle cx="0.0000525784" cy="-0.0000303547" r="2" />
	<circle cx="500.0000006918" cy="-866.0171569894" r="2" />
	<circle cx="0.0011453422" cy="-0.0006610529" r="2" />
	<circle cx="1000.0000000000" cy="-0.0000000000" r="2" />
	<circle cx="500.0000000000" cy="-866.0254038000" r="2" />
	<circle cx="499.9999999999" cy="-866.0253638688" r="2" />
	<circle cx="500.0000000010" cy="-866.0253137569" r="2" />
	<circle cx="1000.0000000000" cy="-0.0000000000" r="2" />
	<circle cx="0.0000000000" cy="-0.0000000000" r="2" />
	<circle cx="7.0765524059" cy="-4.0857562757" r="2" />
	<circle cx="0.0000000000" cy="-0.0000000000" r="2" />
	<circle cx="500.0000016115" cy="-866.0057592286" r="2" />
	<circle cx="499.9999542467" cy="-860.5259937484" r="2" />
	<circle cx="1000.0000000000" cy="-0.0000000000" r="2" />
	<circle cx="1000.0000000000" cy="-0.0000000000" r="2" />
	<circle cx="1.4268910633" cy="-0.8238031869" r="2" />
	<circle cx="500.0000000000" cy="-866.0254038000" r="2" />
	<circle cx="631.7667024816" cy="-241.6317362888" r="2" />
	<circle cx="500.0000000037" cy="-866.0253603503" r="2" />
	<circle cx="499.9970202598" cy="-864.7709780690" r="2" />
	<circle cx="500.0000000000" cy="-866.0254038000" r="2" />
	<circle cx="1000.0000000000" cy="-0.0000000000" r="2" />
	<circle cx="0.0000000000" cy="-0.0000000000" r="2" />
	<circle cx="999.9932484919" cy="-0.0038973016" r="2" />
	<circle cx="1.0556746727" cy="-0.6094884033" r="2" />
	<circle cx="0.0000000000" cy="-0.0000000000" r="2" />
	<circle cx="499.9999881930" cy="-865.1987797898" r="2" />
	<circle cx="1000.0000000000" cy="-0.0000000000" r="2" />
	<circle cx="997.3179790569" cy="-1.5482410365" r="2" />
	<circle cx="500.0000000003" cy="-866.0254022154" r="2" />
	<circle cx="613.6913484161" cy="-223.0319568157" r="2" />
	<circle cx="500.0000000000" cy="-866.0254038000" r="2" />
	<circle cx="999.9999741356" cy="-0.0000156410" r="2" />
	<circle cx="5.7421390790" cy="-3.3148889028" r="2" />
	<circle cx="999.9999974107" cy="-0.0000011899" r="2" />
	<circle cx="500.0000000000" cy="-866.0254038000" r="2" />
	<circle cx="490.9251688009" cy="-283.9310933905" r="2" />
	<circle cx="0.0000000012" cy="-0.0000000007" r="2" />
	<circle cx="312.4620209773" cy="-180.5571208578" r="2" />
	<circle cx="0.0000000000" cy="-0.0000000000" r="2" />
	<circle cx="500.0000000000" cy="-866.0254038000" r="2" />
	<circle cx="499.9999901733" cy="-863.7540585606" r="2" />
	<circle cx="997.2572505738" cy="-1.5832203513" r="2" />
	<circle cx="0.1977570123" cy="-0.1141466204" r="2" />
	<circle cx="66.1106153285" cy="-28.7180782248" r="2" />
	<circle cx="500.0000360552" cy="-865.1408581977" r="2" />
	<circle cx="6.0239010450" cy="-3.4779193524" r="2" />
	<circle cx="500.0000001149" cy="-866.0162097614" r="2" />
	<circle cx="26.9828557825" cy="-15.5797638627" r="2" />
	<circle cx="0.0000023508" cy="-0.0000013575" r="2" />
	<circle cx="0.0400579439" cy="-0.0231319709" r="2" />
	<circle cx="0.0000000000" cy="-0.0000000000" r="2" />
	<circle cx="0.0000000000" cy="-0.0000000000" r="2" />
	<circle cx="17.2756568466" cy="-9.9121912272" r="2" />
	<circle cx="500.0000000000" cy="-866.0254036553" r="2" />
	<circle cx="0.0000000000" cy="-0.0000000000" r="2" />
	<circle cx="0.0000000187" cy="-0.0000000108" r="2" />
	<circle cx="0.2270151023" cy="-0.1331500118" r="2" />
	<circle cx="500.0000000000" cy="-866.0254038000" r="2" />
	<circle cx="0.0000654150" cy="-0.0000377661" r="2" />
	<circle cx="0.0003236499" cy="-0.0001862177" r="2" />
	<circle cx="0.0000000703" cy="-0.0000000410" r="2" />
	<circle cx="500.0000000000" cy="-866.0254038000" r="2" />
	<circle cx="999.9646840067" cy="-0.0611690308" r="2" />
	<circle cx="1000.0000000000" cy="-0.0000000000" r="2" />
	<circle cx="0.0000000000" cy="-0.0000000000" r="2" />
	<circle cx="999.9999993322" cy="-0.0000003860" r="2" />
	<circle cx="0.0000000000" cy="-0.0000000000" r="2" />
	<circle cx="1000.0000000000" cy="-0.0000000000" r="2" />
	<circle cx="500.0000034124" cy="-866.0246208807" r="2" />
	<circle cx="205.7996851640" cy="-118.8070019703" r="2" />
	<circle cx="500.1252468618" cy="-847.9403124236" r="2" />
	<circle cx="500.0000000011" cy="-866.0253947799" r="2" />
	<circle cx="0.0000000000" cy="-0.0000000000" r="2" />
	<circle cx="1000.0000000000" cy="-0.0000000000" r="2" />
	<circle cx="0.0000000000" cy="-0.0000000000" r="2" />
	<circle cx="500.0000000000" cy="-866.0254038000" r="2" />
	<circle cx="0.0000000000" cy="-0.0000000000" r="2" />
	<circle cx="500.0000000000" cy="-866.0254038000" r="2" />
	<circle cx="500.0000000000" cy="-866.0254038000" r="2" />
	<circle cx="0.0000005709" cy="-0.0000003297" r="2" />
	<circle cx="500.0000000000" cy="-866.0254038000" r="2" />
	<circle cx="0.0000000000" cy="-0.0000000000" r="2" />
	<circle cx="500.0000000000" cy="-866.0254037546" r="2" />
	<circle cx="658.1979649806" cy="-118.7207127829" r="2" />
	<circle cx="957.6558826752" cy="-16.3561106495" r="2" />
	<circle cx="343.2331620109" cy="-360.4132518441" r="2" />
	<circle cx="0.0000000391" cy="-0.0000000226" r="2" />
	<circle cx="386.7791925838" cy="-277.2153520901" r="2" />
	<circle cx="1.5931723420" cy="-0.9198812965" r="2" />
	<circle cx="499.9999993210" cy="-866.0202029609" r="2" />
	<circle cx="23.5210501766" cy="-13.5797875085" r="2" />
	<circle cx="1000.0000000000" cy="-0.0000000000" r="2" />
	<circle cx="0.0000000000" cy="-0.0000000000" r="2" />
	<circle cx="488.4848634675" cy="-408.9501093974" r="2" />
	<circle cx="1000.0000000000" cy="-0.0000000000" r="2" />
	<circle cx="0.0174030715" cy="-0.0100464375" r="2" />
	<circle cx="500.1257506324" cy="-865.5517233788" r="2" />
	<circle cx="999.9992305939" cy="-0.0004442388" r="2" />
	<circle cx="1000.0000000000" cy="-0.0000000000" r="2" />
	<circle cx="999.6241988112" cy="-0.2170168553" r="2" />
	<circle cx="0.0000000000" cy="-0.0000000000" r="2" />
	<circle cx="0.0000000000" cy="-0.0000000000" r="2" />
	<circle cx="500.0000000000" cy="-866.0254037306" r="2" />
	<circle cx="0.0000000000" cy="-0.0000000000" r="2" />
	<circle cx="1000.0000000000" cy="-0.0000000000" r="2" />
	<circle cx="1000.0000000000" cy="-0.0000000000" r="2" />
	<circle cx="0.0233684288" cy="-0.0139134553" r="2" />
	<circle cx="0.0000000000" cy="-0.0000000000" r="2" />
	<circle cx="965.0989590223" cy="-20.1530257665" r="2" />
	<circle cx="500.0000000000" cy="-866.0254038000" r="2" />
	<circle cx="500.0000000000" cy="-866.0254038000" r="2" />
	<circle cx="499.9997504494" cy="-862.1690488390" r="2" />
	<circle cx="0.0000000000" cy="-0.0000000000" r="2" />
	<circle cx="991.5567429117" cy="-4.8745840467" r="2" />
	<circle cx="0.0000000000" cy="-0.0000000000" r="2" />
	<circle cx="500.0000000000" cy="-866.0254038000" r="2" />
	<circle cx="999.9931769653" cy="-0.0039392783" r="2" />
	<circle cx="499.9527705049" cy="-318.2458654342" r="2" />
	<circle cx="999.8486192513" cy="-0.0737536609" r="2" />
	<circle cx="997.5263397419" cy="-1.4279119295" r="2" />
	<circle cx="499.9851834786" cy="-819.3355582531" r="2" />
	<circle cx="0.0007220821" cy="-0.0004169168" r="2" />
	<circle cx="0.0000000000" cy="-0.0000000000" r="2" />
	<circle cx="500.0001248788" cy="-865.3462761894" r="2" />
	<circle cx="1000.0000000000" cy="-0.0000000000" r="2" />
	<circle cx="0.0000002596" cy="-0.0000001499" r="2" />
	<circle cx="0.0426457275" cy="-0.0372989246" r="2" />
	<circle cx="455.8548601839" cy="-508.9329832700" r="2" />
	<circle cx="1000.0000000000" cy="-0.0000000000" r="2" />
	<circle cx="0.0000000000" cy="-0.0000000000" r="2" />
	<circle cx="126.9335970447" cy="-71.8109024356" r="2" />
	<circle cx="1000.0000000000" cy="-0.0000000000" r="2" />
	<circle cx="1000.0000000000" cy="-0.0000000000" r="2" />
	<circle cx="500.0000000000" cy="-866.0254038000" r="2" />
	<circle cx="499.9999884644" cy="-866.0248855020" r="2" />
	<circle cx="500.0000000000" cy="-866.0254038000" r="2" />
	<circle cx="0.2329390112" cy="-0.1385033735" r="2" />
	<circle cx="696.2452189308" cy="-190.3894603959" r="2" />
	<circle cx="999.9999764236" cy="-0.0000136122" r="2" />
	<circle cx="1000.0000000000" cy="-0.0000000000" r="2" />
	<circle cx="0.0000000017" cy="-0.0000000010" r="2" />
	<circle cx="500.0078575757" cy="-494.0369460847" r="2" />
	<circle cx="999.9999998915" cy="-0.0000000276" r="2" />
	<circle cx="1000.0000000000" cy="-0.0000000000" r="2" />
	<circle cx="79.5611995373" cy="-45.9320009847" r="2" />
	<circle cx="0.0000000000" cy="-0.0000000000" r="2" />
	<circle cx="500.0000000000" cy="-866.0254038000" r="2" />
	<circle cx="0.0000000000" cy="-0.0000000000" r="2" />
	<circle cx="500.0000000000" cy="-866.0254038000" r="2" />
	<circle cx="1000.0000000000" cy="-0.0000000000" r="2" />
	<circle cx="1000.0000000000" cy="-0.0000000000" r="2" />
	<circle cx="500.0000000000" cy="-866.0254038000" r="2" />
	<circle cx="1000.0000000000" cy="-0.0000000000" r="2" />
	<circle cx="500.0000000000" cy="-866.0254037998" r="2" />
	<circle cx="500.0000000000" cy="-866.0254037941" r="2" />
	<circle cx="0.0000481183" cy="-0.0000279310" r="2" />
	<circle cx="0.0028066650" cy="-0.0016204695" r="2" />
	<circle cx="500.0000397735" cy="-861.1764314160" r="2" />
	<circle cx="1000.0000000000" cy="-0.0000000000" r="2" />
	<circle cx="1000.0000000000" cy="-0.0000000000" r="2" />
	<circle cx="887.8181342197" cy="-64.7625147707" r="2" />
	<circle cx="999.9852101947" cy="-0.0086161997" r="2" />
	<circle cx="2.5786642731" cy="-2.0350380147" r="2" />
	<circle cx="499.9998398707" cy="-856.2777870485" r="2" />
	<circle cx="1000.0000000000" cy="-0.0000000000" r="2" />
	<circle cx="999.9999968833" cy="-0.0000017997" r="2" />
	<circle cx="999.9999985560" cy="-0.0000008338" r="2" />
	<circle cx="0.0000000000" cy="-0.0000000000" r="2" />
	<circle cx="500.0000000000" cy="-866.0254038000" r="2" />
	<circle cx="1000.0000000000" cy="-0.0000000000" r="2" />
	<circle cx="999.9690758782" cy="-0.0178512085" r="2" />
	<circle cx="500.0000000000" cy="-866.0254038000" r="2" />
	<circle cx="500.0000000000" cy="-866.0254038000" r="2" />
	<circle cx="500.0000868369" cy="-863.2784627748" r="2" />
	<circle cx="0.0069245421" cy="-0.0039975081" r="2" />
	<circle cx="30.1039646202" cy="-17.7990276549" r="2" />
	<circle cx="0.0000000000" cy="-0.0000000000" r="2" />
	<circle cx="3.9273982545" cy="-2.2680247505" r="2" />
	<circle cx="500.0000000000" cy="-866.0254038000" r="2" />
	<circle cx="499.9997721080" cy="-828.0806022245" r="2" />
	<circle cx="510.4456557658" cy="-282.6224175554" r="2" />
	<circle cx="546.7426996501" cy="-392.7863707428" r="2" />
	<circle cx="999.9637825399" cy="-0.0209134382" r="2" />
	<circle cx="0.0000000000" cy="-0.0000000000" r="2" />
	<circle cx="0.0000000000" cy="-0.0000000000" r="2" />
	<circle cx="0.0000000000" cy="-0.0000000000" r="2" />
	<circle cx="0.0812796895" cy="-0.0469334221" r="2" />
	<circle cx="999.9998958142" cy="-0.0000601519" r="2" />
	<circle cx="1000.0000000000" cy="-0.0000000000" r="2" />
	<circle cx="500.0000000000" cy="-866.0254038000" r="2" />
	<circle cx="500.0000000000" cy="-866.0254038000" r="2" />
	<circle cx="1000.0000000000" cy="-0.0000000000" r="2" />
	<circle cx="0.0000000000" cy="-0.0000000000" r="2" />
	<circle cx="500.0000000000" cy="-866.0254038000" r="2" />
	<circle cx="1000.0000000000" cy="-0.0000000000" r="2" />
	<circle cx="1000.0000000000" cy="-0.0000000000" r="2" />
	<circle cx="500.0000000510" cy="-866.0231936595" r="2" />
	<circle cx="500.0000000000" cy="-866.0254038000" r="2" />
	<circle cx="499.9999263491" cy="-859.1445034309" r="2" />
	<circle cx="500.0000014435" cy="-866.0253952737" r="2" />
	<circle cx="0.0016330701" cy="-0.0009427062" r="2" />
	<circle cx="0.3282838499" cy="-0.1895405601" r="2" />
	<circle cx="0.0000000155" cy="-0.0000000089" r="2" />
	<circle cx="500.0000000000" cy="-866.0254038000" r="2" />
	<circle cx="0.0406526883" cy="-0.0234718012" r="2" />
	<circle cx="1000.0000000000" cy="-0.0000000000" r="2" />
	<circle cx="1000.0000000000" cy="-0.0000000000" r="2" />
	<circle cx="0.0000000000" cy="-0.0000000000" r="2" />
	<circle cx="0.0000000000" cy="-0.0000000000" r="2" />
	<circle cx="1000.0000000000" cy="-0.0000000000" r="2" />
	<circle cx="0.0000000000" cy="-0.0000000000" r="2" />
	<circle cx="499.9974252879" cy="-865.8977943147" r="2" />
	<circle cx="0.0000000000" cy="-0.0000000000" r="2" />
	<circle cx="1000.0000000000" cy="-0.0000000000" r="2" />
	<circle cx="0.0000000000" cy="-0.0000000000" r="2" />
	<circle cx="1000.0000000000" cy="-0.0000000000" r="2" />
	<circle cx="63.4715626580" cy="-41.5118497747" r="2" />
	<circle cx="500.0000800256" cy="-864.5872246475" r="2" />
	<circle cx="1000.0000000000" cy="-0.0000000000" r="2" />
	<circle cx="999.9999999337" cy="-0.0000000383" r="2" />
	<circle cx="0.0000000000" cy="-0.0000000000" r="2" />
	<circle cx="999.9999999995" cy="-0.0000000003" r="2" />
	<circle cx="985.7236747447" cy="-8.2423606104" r="2" />
	<circle cx="0.0000000009" cy="-0.0000000005" r="2" />
	<circle cx="0.0000000000" cy="-0.0000000000" r="2" />
	<circle cx="0.0000000000" cy="-0.0000000000" r="2" />
	<circle cx="0.0000000000" cy="-0.0000000000" r="2" />
	<circle cx="500.0000000000" cy="-866.0254038000" r="2" />
	<circle cx="1000.0000000000" cy="-0.0000000000" r="2" />
	<circle cx="1000.0000000000" cy="-0.0000000000" r="2" />
	<circle cx="0.0000000000" cy="-0.0000000000" r="2" />
	<circle cx="2.6689007746" cy="-4.5723548196" r="2" />
	<circle cx="1000.0000000000" cy="-0.0000000000" r="2" />
	<circle cx="1.2577794975" cy="-0.7262224823" r="2" />
	<circle cx="717.2177576253" cy="-163.2521323919" r="2" />
	<circle cx="500.0000016372" cy="-866.0224905705" r="2" />
	<circle cx="1000.0000000000" cy="-0.0000000000" r="2" />
	<circle cx="0.0001413783" cy="-0.0000816063" r="2" />
	<circle cx="500.0000000000" cy="-866.0254036005" r="2" />
	<circle cx="1000.0000000000" cy="-0.0000000000" r="2" />
	<circle cx="986.0817802252" cy="-6.7831565525" r="2" />
	<circle cx="999.9999992091" cy="-0.0000004564" r="2" />
	<circle cx="670.3005668866" cy="-147.4232359133" r="2" />
	<circle cx="0.0389170439" cy="-0.0224667273" r="2" />
	<circle cx="500.0000000000" cy="-866.0254038000" r="2" />
	<circle cx="500.0000000000" cy="-866.0254037637" r="2" />
	<circle cx="0.0047104786" cy="-0.0027191212" r="2" />
	<circle cx="499.9094621746" cy="-804.1194739649" r="2" />
	<circle cx="500.0000480036" cy="-860.6379648794" r="2" />
	<circle cx="1000.0000000000" cy="-0.0000000000" r="2" />
	<circle cx="0.0000000000" cy="-0.0000000000" r="2" />
	<circle cx="0.0000000000" cy="-0.0000000000" r="2" />
	<circle cx="999.9999999984" cy="-0.0000000009" r="2" />
	<circle cx="500.0000000000" cy="-866.0254038000" r="2" />
	<circle cx="499.9998511158" cy="-866.0251458433" r="2" />
	<circle cx="999.9999999980" cy="-0.0000000011" r="2" />
	<circle cx="0.0000000000" cy="-0.0000000000" r="2" />
	<circle cx="0.0000000000" cy="-0.0000000000" r="2" />
	<circle cx="1000.0000000000" cy="-0.0000000000" r="2" />
	<circle cx="0.0000000111" cy="-0.0000000064" r="2" />
	<circle cx="500.0000000000" cy="-866.0254037995" r="2" />
	<circle cx="0.0000017864" cy="-0.0000010315" r="2" />
	<circle cx="943.2232838264" cy="-32.7783449732" r="2" />
	<circle cx="68.8101637439" cy="-39.7234035420" r="2" />
	<circle cx="0.0000064118" cy="-0.0000037021" r="2" />
	<circle cx="0.0000000000" cy="-0.0000000000" r="2" />
	<circle cx="500.0006069909" cy="-830.5766270590" r="2" />
	<circle cx="499.9812074761" cy="-425.0291185458" r="2" />
	<circle cx="957.5740924656" cy="-20.3638598302" r="2" />
	<circle cx="500.0000000000" cy="-866.0254037985" r="2" />
	<circle cx="10.1947705140" cy="-5.8331347912" r="2" />
	<circle cx="0.0000000007" cy="-0.0000000004" r="2" />
	<circle cx="500.0000000000" cy="-866.0254037998" r="2" />
	<circle cx="1000.0000000000" cy="-0.0000000000" r="2" />
	<circle cx="500.0000000000" cy="-866.0254038000" r="2" />
	<circle cx="0.0368265487" cy="-0.0211608718" r="2" />
	<circle cx="1000.0000000000" cy="-0.0000000000" r="2" />
	<circle cx="8.0643131722" cy="-4.6565948151" r="2" />
	<circle cx="0.0000000000" cy="-0.0000000000" r="2" />
	<circle cx="999.9999999882" cy="-0.0000000126" r="2" />
	<circle cx="500.0000000000" cy="-866.0254037997" r="2" />
	<circle cx="862.0175027801" cy="-79.6529059809" r="2" />
	<circle cx="988.4576918088" cy="-6.6659071619" r="2" />
	<circle cx="999.3980673688" cy="-0.3473901084" r="2" />
	<circle cx="500.0000000000" cy="-866.0254038000" r="2" />
	<circle cx="1.3895084360" cy="-0.8023488146" r="2" />
	<circle cx="0.0000000031" cy="-0.0000000029" r="2" />
	<circle cx="500.0000000000" cy="-866.0254038000" r="2" />
	<circle cx="999.9936215416" cy="-0.0036231742" r="2" />
	<circle cx="0.0000000000" cy="-0.0000000000" r="2" />
	<circle cx="1000.0000000000" cy="-0.0000000000" r="2" />
	<circle cx="1000.0000000000" cy="-0.0000000000" r="2" />
	<circle cx="498.8868569272" cy="-850.5318430975" r="2" />
	<circle cx="0.0000001744" cy="-0.0000001007" r="2" />
	<circle cx="997.9960392417" cy="-1.1569427752" r="2" />
	<circle cx="499.9999999351" cy="-866.0254035950" r="2" />
	<circle cx="499.9999998787" cy="-866.0253732616" r="2" />
	<circle cx="500.0013717299" cy="-861.1245739037" r="2" />
	<circle cx="1000.0000000000" cy="-0.0000000000" r="2" />
	<circle cx="0.0000000214" cy="-0.0000000123" r="2" />
	<circle cx="1000.0000000000" cy="-0.0000000000" r="2" />
	<circle cx="516.5682526554" cy="-822.7788269152" r="2" />
	<circle cx="998.5807632926" cy="-0.8192940786" r="2" />
	<circle cx="500.0000000008" cy="-866.0254008676" r="2" />
	<circle cx="999.9999999999" cy="-0.0000000001" r="2" />
	<circle cx="1000.0000000000" cy="-0.0000000000" r="2" />
	<circle cx="500.0000000000" cy="-866.0254037660" r="2" />
	<circle cx="1.8318008876" cy="-1.0576980561" r="2" />
	<circle cx="18.0518445389" cy="-11.0518667192" r="2" />
	<circle cx="0.0000054739" cy="-0.0000031613" r="2" />
	<circle cx="0.0000000000" cy="-0.0000000000" r="2" />
	<circle cx="500.0000000000" cy="-866.0254038000" r="2" />
	<circle cx="500.0000000000" cy="-866.0254009633" r="2" />
	<circle cx="256.4182367347" cy="-148.0441606728" r="2" />
	<circle cx="978.6478783277" cy="-12.3284461774" r="2" />
	<circle cx="106.8183948166" cy="-48.9488910955" r="2" />
	<circle cx="499.9990966671" cy="-860.6932576653" r="2" />
	<circle cx="0.0000000003" cy="-0.0000000002" r="2" />
	<circle cx="999.9921484699" cy="-0.0044698994" r="2" />
	<circle cx="499.9818096300" cy="-856.2009596467" r="2" />
	<circle cx="0.0068445334" cy="-0.0039518331" r="2" />
	<circle cx="1000.0000000000" cy="-0.0000000000" r="2" />
	<circle cx="0.6764660128" cy="-0.3905087429" r="2" />
	<circle cx="500.0000000000" cy="-866.0254038000" r="2" />
	<circle cx="0.1560649833" cy="-0.0901374152" r="2" />
	<circle cx="499.9993535582" cy="-863.6987473245" r="2" />
	<circle cx="500.0000000000" cy="-866.0254038000" r="2" />
	<circle cx="0.0000000000" cy="-0.0000000000" r="2" />
	<circle cx="0.0016819715" cy="-0.0009710146" r="2" />
	<circle cx="500.0020235848" cy="-795.8457052921" r="2" />
	<circle cx="999.9999999999" cy="-0.0000000000" r="2" />
	<circle cx="1000.0000000000" cy="-0.0000000000" r="2" />
	<circle cx="0.0000003262" cy="-0.0000001918" r="2" />
	<circle cx="499.8615125381" cy="-864.4825933891" r="2" />
	<circle cx="500.0000000000" cy="-866.0254038000" r="2" />
	<circle cx="999.8940768278" cy="-0.0611361923" r="2" />
	<circle cx="499.9999997522" cy="-866.0209151964" r="2" />
	<circle cx="0.0000000000" cy="-0.0000000000" r="2" />
	<circle cx="999.6792092200" cy="-0.1851679831" r="2" />
	<circle cx="999.7686688268" cy="-0.1334779050" r="2" />
	<circle cx="0.0000000000" cy="-0.0000000000" r="2" />
	<circle cx="0.0000000000" cy="-0.0000000000" r="2" />
	<circle cx="999.9999999998" cy="-0.0000000001" r="2" />
	<circle cx="0.0000004719" cy="-0.0000002725" r="2" />
	<circle cx="1000.0000000000" cy="-0.0000000000" r="2" />
	<circle cx="0.2737814306" cy="-0.1674058011" r="2" />
	<circle cx="0.0000000000" cy="-0.0000000000" r="2" />
	<circle cx="500.0000000000" cy="-866.0254038000" r="2" />
	<circle cx="499.9999990872" cy="-866.0253993299" r="2" />
	<circle cx="500.0083496503" cy="-615.3698470290" r="2" />
	<circle cx="1000.0000000000" cy="-0.0000000000" r="2" />
	<circle cx="500.0000000000" cy="-866.0254037941" r="2" />
	<circle cx="499.9991090147" cy="-860.9221878757" r="2" />
	<circle cx="1000.0000000000" cy="-0.0000000000" r="2" />
	<circle cx="0.0189421772" cy="-0.0109371703" r="2" />
	<circle cx="386.3077283428" cy="-222.9981576271" r="2" />
	<circle cx="500.0000001075" cy="-866.0254025062" r="2" />
	<circle cx="1000.0000000000" cy="-0.0000000000" r="2" />
	<circle cx="977.7762320807" cy="-15.4225268970" r="2" />
	<circle cx="0.1343642704" cy="-0.0775327862" r="2" />
	<circle cx="499.9143350926" cy="-456.3304259593" r="2" />
	<circle cx="1000.0000000000" cy="-0.0000000000" r="2" />
	<circle cx="500.0000000000" cy="-866.0254038000" r="2" />
	<circle cx="500.0000067718" cy="-865.9029532243" r="2" />
	<circle cx="499.9995693348" cy="-838.4563283393" r="2" />
  </g>
  <g id="fig2" transform="translate(-550.0,1000)">
	<polygon points="0.0,-0.0 1000.0,-0.0 500.0,-866.0254038" />
	<line
	   id="line2-1"
	   y2="-0.0"
	   x2="500"
	   y1="-288.6751346"
	   x1="500" />
	<line
	   id="line2-2"
	   y2="-433.0127019"
	   x2="250"
	   y1="-288.6751346"
	   x1="500" />
	<line
	   id="line2-3"
	   y2="-433.0127019"
	   x2="750"
	   y1="-288.6751346"
	   x1="500" />
	<text
	   x="440"
	   y="-500"
	   id="up_2">31.0%</text>
	<text
	   x="250"
	   y="-150"
	   id="down_left_2">37.4%</text>
	<text
	   x="630"
	   y="-150"
	   id="down_right_2">31.6%</text>
  </g>
  <g id="fig3" transform="translate(550,1000)">
	<polygon points="0.0,-0.0 1000.0,-0.0 500.0,-866.0254038" />
	<polygon id="triangle3b" points="250,-144.3375673 750,-144.3375673 500,-577.3502692" />
	<line
	   id="line3-1"
	   x1="125"
	   y1="-216.5063509"
	   x2="250"
	   y2="-144.3375673" />
	<line
	   id="line3-2"
	   x1="375"
	   y1="-649.5190528"
	   x2="500"
	   y2="-577.3502692" />
	<line
	   id="line3-3"
	   x1="625"
	   y1="-649.5190528"
	   x2="500"
	   y2="-577.3502692" />
	<line
	   id="line3-4"
	   x1="875"
	   y1="-216.5063509"
	   x2="750"
	   y2="-144.3375673" />
	<line
	   id="line3-5"
	   x1="750"
	   y1="-0.0"
	   x2="750"
	   y2="-144.3375673" />
	<line
	   id="line3-6"
	   x1="250"
	   y1="-0.0"
	   x2="250"
	   y2="-144.3375673" />
	<text
	   x="500"
	   y="-660"
	   text-anchor="middle"
	   id="up_3">28.6%</text>
	<text
	   y="-50"
	   x="70"
	   id="down_left_3">35.8%</text>
	<text
	   y="-50"
	   x="770"
	   id="down_right_3">29.8%</text>
	<text
	   x="500"
	   y="-50"
	   text-anchor="middle"
	   id="down_side_3">0.4%</text>
	<text
	   x="500"
	   y="-280"
	   text-anchor="middle"
	   id="center_3">4.6%</text>
	<text
	   x="685.0"
	   y="-390.8439"
	   text-anchor="middle"
	   transform="rotate(60,665.0,-380.8439)"
	   id="right_side_3">0.2%</text>
	<text
	   x="315.0"
	   y="-390.8439"
	   text-anchor="middle"
	   transform="rotate(-60,335.0,-380.8439)"
	   id="left_side_3">0.6%</text>
  </g>
</g></g>
</svg>
