<?xml version="1.0" encoding="UTF-8" standalone="no"?>
<!DOCTYPE svg PUBLIC "-//W3C//DTD SVG 1.1//EN" "http://www.w3.org/Graphics/SVG/1.1/DTD/svg11.dtd">
<svg
   xmlns:svg="http://www.w3.org/2000/svg"
   xmlns="http://www.w3.org/2000/svg"
   xmlns:xlink="http://www.w3.org/1999/xlink"
   version="1.1"
   baseProfile="full"
   id="body"
   width="800px"
   height="800px"
   viewBox="0 0 1000 1000"
   preserveAspectRatio="none">
  <defs>
    <style type="text/css"><![CDATA[
      circle{ stroke: none; }
      polygon{ stroke: black; stroke-width: 2px; fill: none; }
      line{ stroke: black; stroke-width: 2px; }
      text{ font-size:50px; }
    ]]></style>
  </defs>
  <title
     id="title1">SVG drawing</title>
<g transform="scale(0.45)"><g transform="translate(600,1050)">
  <g id="fig1">
	<polygon points="0.0,-0.0 1000.0,-0.0 500,-866.0254038" />
	<circle cx="480.1772391980" cy="-501.5818758012" r="2" />
	<circle cx="0.0000000000" cy="-0.0000000000" r="2" />
	<circle cx="767.0878712194" cy="-125.6376603012" r="2" />
	<circle cx="999.9899847026" cy="-0.0024745639" r="2" />
	<circle cx="999.9999987403" cy="-0.0000001128" r="2" />
	<circle cx="700.2990371334" cy="-112.1763380148" r="2" />
	<circle cx="534.8163315350" cy="-790.4017876545" r="2" />
	<circle cx="906.6362988191" cy="-95.1424804480" r="2" />
	<circle cx="0.0000000001" cy="-0.0000000000" r="2" />
	<circle cx="258.6642553369" cy="-270.4217632455" r="2" />
	<circle cx="165.0307972481" cy="-186.2524801569" r="2" />
	<circle cx="612.5476191934" cy="-294.2098091720" r="2" />
	<circle cx="0.0000000000" cy="-0.0000000000" r="2" />
	<circle cx="745.8413653508" cy="-186.4196994988" r="2" />
	<circle cx="520.1283799698" cy="-714.8988585465" r="2" />
	<circle cx="777.9160237153" cy="-100.4239189713" r="2" />
	<circle cx="0.0000000000" cy="-0.0000000000" r="2" />
	<circle cx="513.1280501736" cy="-775.5511967140" r="2" />
	<circle cx="500.0889033162" cy="-865.4815862419" r="2" />
	<circle cx="557.9805032290" cy="-294.1408439423" r="2" />
	<circle cx="85.1220517055" cy="-49.0549492005" r="2" />
	<circle cx="212.5286946538" cy="-114.0236213185" r="2" />
	<circle cx="4.8894127310" cy="-3.0337899418" r="2" />
	<circle cx="481.2581565027" cy="-646.9009052021" r="2" />
	<circle cx="999.9999998627" cy="-0.0000000749" r="2" />
	<circle cx="290.7846955685" cy="-326.6839669222" r="2" />
	<circle cx="9.2386270061" cy="-6.3837500854" r="2" />
	<circle cx="108.3769564069" cy="-68.2705514756" r="2" />
	<circle cx="491.8255277582" cy="-829.4314045500" r="2" />
	<circle cx="486.8904554388" cy="-447.1933508999" r="2" />
	<circle cx="540.2432790472" cy="-678.8968319975" r="2" />
	<circle cx="528.3167234667" cy="-398.1146688772" r="2" />
	<circle cx="500.1836688099" cy="-865.4045355808" r="2" />
	<circle cx="203.5543812071" cy="-117.9221176671" r="2" />
	<circle cx="502.2084706526" cy="-795.3700306836" r="2" />
	<circle cx="23.0771951485" cy="-6.6787833214" r="2" />
	<circle cx="681.6180745248" cy="-255.0161112198" r="2" />
	<circle cx="500.5871082693" cy="-847.6624153707" r="2" />
	<circle cx="664.4572886380" cy="-306.5368806653" r="2" />
	<circle cx="323.1979689209" cy="-302.9770641976" r="2" />
	<circle cx="636.1022192850" cy="-394.4480487883" r="2" />
	<circle cx="0.0000000000" cy="-0.0000000000" r="2" />
	<circle cx="374.0451458255" cy="-246.9032408978" r="2" />
	<circle cx="518.4554526214" cy="-662.6871226265" r="2" />
	<circle cx="513.9405510366" cy="-800.0344506271" r="2" />
	<circle cx="503.8786664619" cy="-316.3026279290" r="2" />
	<circle cx="955.7150672139" cy="-9.8089957728" r="2" />
	<circle cx="548.6063375003" cy="-268.2913150381" r="2" />
	<circle cx="845.8909903801" cy="-52.4006445037" r="2" />
	<circle cx="437.4683810707" cy="-402.2129034862" r="2" />
	<circle cx="497.4575143247" cy="-336.5203580172" r="2" />
	<circle cx="251.9489201200" cy="-114.0225599449" r="2" />
	<circle cx="666.1988043814" cy="-125.9825246148" r="2" />
	<circle cx="658.1383555513" cy="-160.0456922463" r="2" />
	<circle cx="999.9999999900" cy="-0.0000000011" r="2" />
	<circle cx="33.6763467977" cy="-23.0352104215" r="2" />
	<circle cx="16.1291270152" cy="-23.4204783987" r="2" />
	<circle cx="4.7251211257" cy="-3.3211984037" r="2" />
	<circle cx="437.4847597141" cy="-367.0149166344" r="2" />
	<circle cx="663.4119580834" cy="-45.2281067583" r="2" />
	<circle cx="418.4981888094" cy="-179.3629407988" r="2" />
	<circle cx="501.1409947435" cy="-863.0881916588" r="2" />
	<circle cx="999.9999999987" cy="-0.0000000007" r="2" />
	<circle cx="490.5734197886" cy="-198.8441668032" r="2" />
	<circle cx="999.9921024368" cy="-0.0034092606" r="2" />
	<circle cx="694.4092782577" cy="-124.6103872656" r="2" />
	<circle cx="469.7282148561" cy="-591.5740284003" r="2" />
	<circle cx="0.0000025839" cy="-0.0000015051" r="2" />
	<circle cx="121.4306106532" cy="-16.6927997824" r="2" />
	<circle cx="494.8741009767" cy="-801.9003651090" r="2" />
	<circle cx="392.3327008633" cy="-528.8623610436" r="2" />
	<circle cx="508.8652691064" cy="-596.8261409621" r="2" />
	<circle cx="159.3632778519" cy="-178.7075413904" r="2" />
	<circle cx="216.7611086773" cy="-131.8003593646" r="2" />
	<circle cx="1000.0000000000" cy="-0.0000000000" r="2" />
	<circle cx="834.8637915283" cy="-212.1123254800" r="2" />
	<circle cx="1000.0000000000" cy="-0.0000000000" r="2" />
	<circle cx="500.0000000000" cy="-866.0254038000" r="2" />
	<circle cx="623.2977226662" cy="-223.5778661502" r="2" />
	<circle cx="412.5756474050" cy="-406.9349388749" r="2" />
	<circle cx="999.9844614680" cy="-0.0094387443" r="2" />
	<circle cx="473.0390028246" cy="-404.1758829532" r="2" />
	<circle cx="385.6298366426" cy="-439.6141121083" r="2" />
	<circle cx="338.4629862444" cy="-318.0454131552" r="2" />
	<circle cx="551.3205188291" cy="-428.8507971994" r="2" />
	<circle cx="180.1001320541" cy="-59.8013612500" r="2" />
	<circle cx="728.5143069648" cy="-234.6476414319" r="2" />
	<circle cx="216.8920922049" cy="-197.3325161479" r="2" />
	<circle cx="500.0000000312" cy="-866.0254035375" r="2" />
	<circle cx="0.0000000000" cy="-0.0000000000" r="2" />
	<circle cx="999.9929243118" cy="-0.0020947372" r="2" />
	<circle cx="448.1120733148" cy="-392.9464570684" r="2" />
	<circle cx="0.0000064648" cy="-0.0000042314" r="2" />
	<circle cx="742.9660226579" cy="-148.6055532616" r="2" />
	<circle cx="500.2835468213" cy="-836.8748319723" r="2" />
	<circle cx="999.9264418559" cy="-0.0338182159" r="2" />
	<circle cx="900.7398633391" cy="-72.4304432787" r="2" />
	<circle cx="3.0250690666" cy="-1.5540989044" r="2" />
	<circle cx="376.8826081483" cy="-181.2278872966" r="2" />
	<circle cx="0.6429851827" cy="-0.3995751813" r="2" />
	<circle cx="529.3292661061" cy="-674.2637118748" r="2" />
	<circle cx="464.0709283587" cy="-297.6475946754" r="2" />
	<circle cx="729.4136056151" cy="-284.8037485590" r="2" />
	<circle cx="382.6335343557" cy="-142.4151276137" r="2" />
	<circle cx="938.3454487699" cy="-37.2997274406" r="2" />
	<circle cx="499.9999999853" cy="-866.0254026798" r="2" />
	<circle cx="500.0000000000" cy="-866.0254038000" r="2" />
	<circle cx="948.6126474889" cy="-29.1716123534" r="2" />
	<circle cx="751.9111002660" cy="-279.6501272949" r="2" />
	<circle cx="497.7504131542" cy="-388.6724434738" r="2" />
	<circle cx="150.2706289223" cy="-81.7608412963" r="2" />
	<circle cx="499.9999998466" cy="-866.0253971491" r="2" />
	<circle cx="499.9998674037" cy="-866.0249664723" r="2" />
	<circle cx="281.0761222003" cy="-75.2170542546" r="2" />
	<circle cx="499.9999985025" cy="-866.0253669828" r="2" />
	<circle cx="500.0000000964" cy="-866.0254022121" r="2" />
	<circle cx="578.2732909882" cy="-200.3892037884" r="2" />
	<circle cx="621.0618277227" cy="-115.4221957926" r="2" />
	<circle cx="159.5166519518" cy="-187.6389486848" r="2" />
	<circle cx="500.0000000000" cy="-866.0254038000" r="2" />
	<circle cx="0.0000912720" cy="-0.0000306041" r="2" />
	<circle cx="412.1556814974" cy="-33.6887474654" r="2" />
	<circle cx="999.7673202948" cy="-0.1519031276" r="2" />
	<circle cx="999.9999164136" cy="-0.0000845225" r="2" />
	<circle cx="143.5323398068" cy="-66.3759550858" r="2" />
	<circle cx="178.8001066314" cy="-171.8374665449" r="2" />
	<circle cx="251.9834847505" cy="-295.8968111548" r="2" />
	<circle cx="164.8295213782" cy="-95.3777563646" r="2" />
	<circle cx="39.5362026848" cy="-12.3302651354" r="2" />
	<circle cx="474.3797764020" cy="-257.4327463042" r="2" />
	<circle cx="499.7640351666" cy="-865.2621942988" r="2" />
	<circle cx="500.0000000000" cy="-866.0254038000" r="2" />
	<circle cx="0.0003050340" cy="-0.0001532079" r="2" />
	<circle cx="39.0261260056" cy="-23.3565149760" r="2" />
	<circle cx="500.0000000000" cy="-866.0254038000" r="2" />
	<circle cx="500.0000000000" cy="-866.0254038000" r="2" />
	<circle cx="0.0001926393" cy="-0.0002567314" r="2" />
	<circle cx="448.5724099610" cy="-478.0443609022" r="2" />
	<circle cx="695.4370378621" cy="-176.9552366032" r="2" />
	<circle cx="500.0000000001" cy="-866.0254037996" r="2" />
	<circle cx="29.4813823938" cy="-25.4879131781" r="2" />
	<circle cx="699.8351970730" cy="-214.7709728790" r="2" />
	<circle cx="500.0000000000" cy="-866.0254038000" r="2" />
	<circle cx="390.3347566839" cy="-255.9848565377" r="2" />
	<circle cx="551.3452123737" cy="-478.5117313156" r="2" />
	<circle cx="72.6110435474" cy="-9.1446947638" r="2" />
	<circle cx="652.3837124362" cy="-123.6125056776" r="2" />
	<circle cx="816.6859826753" cy="-317.5091916832" r="2" />
	<circle cx="0.0000000019" cy="-0.0000000012" r="2" />
	<circle cx="858.6079508021" cy="-18.5471346528" r="2" />
	<circle cx="940.2945668442" cy="-21.1542221621" r="2" />
	<circle cx="504.5744596514" cy="-457.5807783512" r="2" />
	<circle cx="500.0000000000" cy="-866.0254037968" r="2" />
	<circle cx="996.7764870486" cy="-1.4691461459" r="2" />
	<circle cx="999.9999999999" cy="-0.0000000000" r="2" />
	<circle cx="0.0000000004" cy="-0.0000000003" r="2" />
	<circle cx="582.0987664137" cy="-393.5684834121" r="2" />
	<circle cx="563.0214951430" cy="-285.4912038204" r="2" />
	<circle cx="494.7401600048" cy="-354.9054371337" r="2" />
	<circle cx="849.0559966936" cy="-89.6078717837" r="2" />
	<circle cx="464.8277265655" cy="-303.2102237954" r="2" />
	<circle cx="112.6962000602" cy="-23.5271413384" r="2" />
	<circle cx="792.2156444689" cy="-79.1727119887" r="2" />
	<circle cx="498.4195957408" cy="-757.1918203784" r="2" />
	<circle cx="591.5060689987" cy="-156.6993588044" r="2" />
	<circle cx="771.3956272984" cy="-99.3534267499" r="2" />
	<circle cx="0.0000287969" cy="-0.0000160481" r="2" />
	<circle cx="499.9973205290" cy="-866.0115223209" r="2" />
	<circle cx="272.0070657019" cy="-157.1258312459" r="2" />
	<circle cx="837.2402392331" cy="-89.1350530374" r="2" />
	<circle cx="693.8571500507" cy="-178.6658693658" r="2" />
	<circle cx="499.9998796546" cy="-866.0249888353" r="2" />
	<circle cx="500.0000000000" cy="-866.0254038000" r="2" />
	<circle cx="0.0016015812" cy="-0.0009780039" r="2" />
	<circle cx="232.8114742952" cy="-129.5113673789" r="2" />
	<circle cx="880.9086844394" cy="-37.8801305391" r="2" />
	<circle cx="0.1179956490" cy="-0.0676258280" r="2" />
	<circle cx="999.6781544261" cy="-0.5425772580" r="2" />
	<circle cx="519.0512003072" cy="-584.6157978380" r="2" />
	<circle cx="426.0168846925" cy="-354.7879562115" r="2" />
	<circle cx="499.4017654249" cy="-862.1353060352" r="2" />
	<circle cx="604.0092278971" cy="-251.5685756863" r="2" />
	<circle cx="650.8674301358" cy="-11.5490033025" r="2" />
	<circle cx="995.7799655670" cy="-2.4530601967" r="2" />
	<circle cx="870.7443237849" cy="-75.1003614930" r="2" />
	<circle cx="418.6357951255" cy="-124.5816467078" r="2" />
	<circle cx="0.0000163465" cy="-0.0000015418" r="2" />
	<circle cx="496.7142671365" cy="-562.5759385997" r="2" />
	<circle cx="684.4304595003" cy="-299.7410665852" r="2" />
	<circle cx="500.4553685268" cy="-781.3964418284" r="2" />
	<circle cx="0.0000000000" cy="-0.0000000000" r="2" />
	<circle cx="494.2749864365" cy="-225.8434467155" r="2" />
	<circle cx="897.6013380669" cy="-46.1695587076" r="2" />
	<circle cx="420.6063386327" cy="-176.5863690036" r="2" />
	<circle cx="697.3122704626" cy="-173.4230994569" r="2" />
	<circle cx="289.8256015953" cy="-18.1867791969" r="2" />
	<circle cx="650.2329589283" cy="-76.6599455469" r="2" />
	<circle cx="290.9718159720" cy="-142.4367551770" r="2" />
	<circle cx="464.2011374734" cy="-737.7408877632" r="2" />
	<circle cx="921.0837781132" cy="-6.7812314953" r="2" />
	<circle cx="0.0003067496" cy="-0.0002045986" r="2" />
	<circle cx="2.0562254915" cy="-0.9483931284" r="2" />
	<circle cx="987.0519280565" cy="-7.7560555900" r="2" />
	<circle cx="681.8991736583" cy="-97.8916380105" r="2" />
	<circle cx="500.0000000000" cy="-866.0254038000" r="2" />
	<circle cx="473.5857218502" cy="-567.4473574481" r="2" />
	<circle cx="0.9364759030" cy="-0.5701766625" r="2" />
	<circle cx="310.3250541749" cy="-236.7352655586" r="2" />
	<circle cx="1000.0000000000" cy="-0.0000000000" r="2" />
	<circle cx="432.8101103946" cy="-176.2149064640" r="2" />
	<circle cx="500.0000000000" cy="-866.0254038000" r="2" />
	<circle cx="380.0791504282" cy="-288.5960839679" r="2" />
	<circle cx="1000.0000000000" cy="-0.0000000000" r="2" />
	<circle cx="0.0000000111" cy="-0.0000000058" r="2" />
	<circle cx="499.9999274916" cy="-866.0246626383" r="2" />
	<circle cx="999.9999999836" cy="-0.0000000113" r="2" />
	<circle cx="0.0000000000" cy="-0.0000000000" r="2" />
	<circle cx="0.0000493249" cy="-0.0000833895" r="2" />
	<circle cx="505.9693821947" cy="-801.8572612106" r="2" />
	<circle cx="499.9999997462" cy="-866.0253007511" r="2" />
	<circle cx="504.8281467253" cy="-172.7066938233" r="2" />
	<circle cx="1.9768030257" cy="-1.1119244937" r="2" />
	<circle cx="999.9999891969" cy="-0.0000085049" r="2" />
	<circle cx="500.0000000000" cy="-866.0254037992" r="2" />
	<circle cx="692.5255811633" cy="-234.2762340546" r="2" />
	<circle cx="424.7735081637" cy="-457.2673416745" r="2" />
	<circle cx="805.0312220204" cy="-93.5885751348" r="2" />
	<circle cx="499.9999973156" cy="-866.0253880619" r="2" />
	<circle cx="0.0000000000" cy="-0.0000000000" r="2" />
	<circle cx="28.2278744726" cy="-32.4697842478" r="2" />
	<circle cx="182.0084666896" cy="-144.6564618087" r="2" />
	<circle cx="425.5954650684" cy="-154.7659989957" r="2" />
	<circle cx="517.5074116791" cy="-711.3265237863" r="2" />
	<circle cx="541.9937083072" cy="-669.9235205943" r="2" />
	<circle cx="85.7805373099" cy="-122.6433524353" r="2" />
	<circle cx="484.2140473613" cy="-733.7894215444" r="2" />
	<circle cx="817.5061851731" cy="-103.2547421279" r="2" />
	<circle cx="0.0000012097" cy="-0.0000004791" r="2" />
	<circle cx="500.0000000000" cy="-866.0254038000" r="2" />
	<circle cx="0.0000000000" cy="-0.0000000000" r="2" />
	<circle cx="891.7014766355" cy="-43.1659036124" r="2" />
	<circle cx="813.4512488559" cy="-252.6650454712" r="2" />
	<circle cx="270.4405449330" cy="-153.3342374995" r="2" />
	<circle cx="571.7496062226" cy="-361.3720129699" r="2" />
	<circle cx="355.2679865270" cy="-279.9882426705" r="2" />
	<circle cx="332.2552049498" cy="-243.8599081123" r="2" />
	<circle cx="499.9999645937" cy="-864.7240633797" r="2" />
	<circle cx="1000.0000000000" cy="-0.0000000000" r="2" />
	<circle cx="443.3206142189" cy="-175.6051176320" r="2" />
	<circle cx="487.7166230013" cy="-799.7425661559" r="2" />
	<circle cx="286.7809047990" cy="-284.5724046540" r="2" />
	<circle cx="986.9867497485" cy="-8.2913624309" r="2" />
	<circle cx="499.9999999927" cy="-866.0254037834" r="2" />
	<circle cx="630.6267461565" cy="-241.9799156534" r="2" />
	<circle cx="0.0050059455" cy="-0.0026146824" r="2" />
	<circle cx="1.1326287551" cy="-0.6535556181" r="2" />
	<circle cx="647.9820300471" cy="-212.1807345064" r="2" />
	<circle cx="275.0359877337" cy="-174.4507650544" r="2" />
	<circle cx="397.0264002611" cy="-342.5248213450" r="2" />
	<circle cx="500.0000000141" cy="-866.0254037661" r="2" />
	<circle cx="550.9746368419" cy="-724.2163349277" r="2" />
	<circle cx="495.5927958527" cy="-572.0663839225" r="2" />
	<circle cx="999.9999757679" cy="-0.0000097271" r="2" />
	<circle cx="0.0000000000" cy="-0.0000000000" r="2" />
	<circle cx="456.3332662288" cy="-244.5275120936" r="2" />
	<circle cx="0.0000001184" cy="-0.0000000793" r="2" />
	<circle cx="500.0000000000" cy="-866.0254037986" r="2" />
	<circle cx="498.3360882291" cy="-840.7037190885" r="2" />
	<circle cx="463.0565482752" cy="-154.5643563419" r="2" />
	<circle cx="499.9999999972" cy="-866.0254037295" r="2" />
	<circle cx="687.0674503006" cy="-103.3790643050" r="2" />
	<circle cx="0.0000043068" cy="-0.0000018074" r="2" />
	<circle cx="642.8270567986" cy="-141.0830461369" r="2" />
	<circle cx="499.9769273900" cy="-865.9371249530" r="2" />
	<circle cx="16.3295705337" cy="-9.2697285321" r="2" />
	<circle cx="488.8310613521" cy="-268.9604215701" r="2" />
	<circle cx="596.3705348032" cy="-536.8046945080" r="2" />
	<circle cx="962.6443499189" cy="-38.1841987037" r="2" />
	<circle cx="417.4536770100" cy="-231.5468609923" r="2" />
	<circle cx="15.9132070035" cy="-9.5309363115" r="2" />
	<circle cx="873.2814589964" cy="-96.3663605322" r="2" />
	<circle cx="499.9993020933" cy="-865.6931170902" r="2" />
	<circle cx="501.8898280161" cy="-689.1642478786" r="2" />
	<circle cx="135.2513674712" cy="-80.5491538512" r="2" />
	<circle cx="0.0007694390" cy="-0.0004724276" r="2" />
	<circle cx="243.2958963824" cy="-132.6798814561" r="2" />
	<circle cx="885.6957038271" cy="-67.5335262656" r="2" />
	<circle cx="1000.0000000000" cy="-0.0000000000" r="2" />
	<circle cx="0.0252095038" cy="-0.0066247166" r="2" />
	<circle cx="998.0668003769" cy="-0.2846516704" r="2" />
	<circle cx="0.0000000000" cy="-0.0000000000" r="2" />
	<circle cx="500.0000000000" cy="-866.0254037688" r="2" />
	<circle cx="227.0537585234" cy="-186.1172041725" r="2" />
	<circle cx="511.3879217569" cy="-795.6661268165" r="2" />
	<circle cx="499.9717046402" cy="-862.1948044080" r="2" />
	<circle cx="138.0578375112" cy="-99.9085996760" r="2" />
	<circle cx="472.0167175117" cy="-726.1124584369" r="2" />
	<circle cx="500.0000000005" cy="-866.0254037985" r="2" />
	<circle cx="677.3010162508" cy="-251.1571054444" r="2" />
	<circle cx="0.0000000341" cy="-0.0000000169" r="2" />
	<circle cx="347.3320861640" cy="-507.6790023210" r="2" />
	<circle cx="238.0943966536" cy="-363.8860339548" r="2" />
	<circle cx="500.0000000000" cy="-866.0254037993" r="2" />
	<circle cx="999.9999825278" cy="-0.0000114143" r="2" />
	<circle cx="762.1140307863" cy="-327.7233225162" r="2" />
	<circle cx="732.2137711844" cy="-137.4597993917" r="2" />
	<circle cx="154.3712434797" cy="-75.4388296424" r="2" />
	<circle cx="27.1745053263" cy="-6.6095015108" r="2" />
	<circle cx="0.0000000003" cy="-0.0000000002" r="2" />
	<circle cx="432.6669955358" cy="-24.1712507799" r="2" />
	<circle cx="565.8923441730" cy="-175.5387895973" r="2" />
	<circle cx="633.7725102292" cy="-75.0141204162" r="2" />
	<circle cx="129.8629391844" cy="-88.4232109582" r="2" />
	<circle cx="668.7882968483" cy="-472.8374546138" r="2" />
	<circle cx="285.9890494748" cy="-199.9881281897" r="2" />
	<circle cx="839.1532661296" cy="-88.5015718545" r="2" />
	<circle cx="528.9360537932" cy="-509.5452364441" r="2" />
	<circle cx="467.3805273534" cy="-288.5189418510" r="2" />
	<circle cx="847.6856856284" cy="-84.0654415329" r="2" />
	<circle cx="1000.0000000000" cy="-0.0000000000" r="2" />
	<circle cx="0.0000000000" cy="-0.0000000000" r="2" />
	<circle cx="217.4285861396" cy="-130.2556311822" r="2" />
	<circle cx="981.3675934093" cy="-8.3727672577" r="2" />
	<circle cx="731.4737582932" cy="-77.1481400441" r="2" />
	<circle cx="500.0000000000" cy="-866.0254038000" r="2" />
	<circle cx="538.5578389582" cy="-303.8870374402" r="2" />
	<circle cx="111.2460844885" cy="-22.1727750240" r="2" />
	<circle cx="457.1492286888" cy="-572.7705503450" r="2" />
	<circle cx="867.6509901085" cy="-41.5317314221" r="2" />
	<circle cx="4.2210273017" cy="-2.4325849013" r="2" />
	<circle cx="447.1323130589" cy="-318.0850648588" r="2" />
	<circle cx="571.3156578744" cy="-500.3760559640" r="2" />
	<circle cx="85.6885897749" cy="-122.2847312019" r="2" />
	<circle cx="386.1139352989" cy="-270.2529342868" r="2" />
	<circle cx="464.0127587468" cy="-390.2061047777" r="2" />
	<circle cx="941.0175614549" cy="-37.9159776942" r="2" />
	<circle cx="999.9984514978" cy="-0.0012380387" r="2" />
	<circle cx="462.0709680571" cy="-271.7445688641" r="2" />
	<circle cx="409.2343985116" cy="-364.1605388984" r="2" />
	<circle cx="509.1363873278" cy="-716.8898579073" r="2" />
	<circle cx="498.5231078815" cy="-570.5657664361" r="2" />
	<circle cx="0.0000029972" cy="-0.0000002436" r="2" />
	<circle cx="500.0000000005" cy="-866.0254037904" r="2" />
	<circle cx="77.2024043928" cy="-71.7979567104" r="2" />
	<circle cx="273.1896629763" cy="-116.1230996100" r="2" />
	<circle cx="999.9999994712" cy="-0.0000002685" r="2" />
	<circle cx="916.9892843035" cy="-62.5834001571" r="2" />
	<circle cx="0.0000000000" cy="-0.0000000000" r="2" />
	<circle cx="638.9228642325" cy="-115.8720243764" r="2" />
	<circle cx="568.5377659922" cy="-418.9961284436" r="2" />
	<circle cx="910.2546959628" cy="-41.5607524113" r="2" />
	<circle cx="532.3416581317" cy="-582.4481333518" r="2" />
	<circle cx="0.0000000000" cy="-0.0000000000" r="2" />
	<circle cx="944.7475166607" cy="-36.5106637844" r="2" />
	<circle cx="905.2202416645" cy="-50.0559315169" r="2" />
	<circle cx="0.2593519080" cy="-0.1569160589" r="2" />
	<circle cx="499.9999999993" cy="-866.0254037968" r="2" />
	<circle cx="661.6381781556" cy="-150.0358375842" r="2" />
	<circle cx="415.2228719028" cy="-166.5335668406" r="2" />
	<circle cx="786.0371201647" cy="-231.8681790236" r="2" />
	<circle cx="305.6184372112" cy="-198.9977280398" r="2" />
	<circle cx="499.9999952321" cy="-866.0253917283" r="2" />
	<circle cx="164.0634420321" cy="-104.9287764402" r="2" />
	<circle cx="441.3422253475" cy="-633.0385260684" r="2" />
	<circle cx="1000.0000000000" cy="-0.0000000000" r="2" />
	<circle cx="488.4071510158" cy="-682.9996895544" r="2" />
	<circle cx="549.6399108374" cy="-268.6964937794" r="2" />
	<circle cx="540.2944807709" cy="-569.9363726605" r="2" />
	<circle cx="604.6163655872" cy="-140.1705538016" r="2" />
	<circle cx="1000.0000000000" cy="-0.0000000000" r="2" />
	<circle cx="608.8208395773" cy="-153.1603905748" r="2" />
	<circle cx="214.5054718353" cy="-58.5008140294" r="2" />
	<circle cx="999.9999999998" cy="-0.0000000001" r="2" />
	<circle cx="638.8461648850" cy="-437.6919313901" r="2" />
	<circle cx="999.9999551099" cy="-0.0000003613" r="2" />
	<circle cx="466.4682344741" cy="-422.4543028078" r="2" />
	<circle cx="379.5788193177" cy="-562.7379736689" r="2" />
	<circle cx="633.3708771644" cy="-175.9384831705" r="2" />
	<circle cx="320.2467873066" cy="-343.6467070358" r="2" />
	<circle cx="497.5955355027" cy="-837.3435248165" r="2" />
	<circle cx="317.0698771563" cy="-300.4632837509" r="2" />
	<circle cx="468.3612317973" cy="-683.8170252094" r="2" />
	<circle cx="500.9668218919" cy="-859.8536635293" r="2" />
	<circle cx="969.1067329565" cy="-19.5388461899" r="2" />
	<circle cx="472.0581472567" cy="-800.4411601643" r="2" />
	<circle cx="418.7684669167" cy="-176.8083410666" r="2" />
	<circle cx="501.2592005582" cy="-651.5560720919" r="2" />
	<circle cx="375.9199696748" cy="-189.9021452372" r="2" />
	<circle cx="795.2056853906" cy="-153.1189936957" r="2" />
	<circle cx="585.1751401090" cy="-389.3874168113" r="2" />
	<circle cx="0.0005247673" cy="-0.0003762731" r="2" />
	<circle cx="393.9804127790" cy="-199.1583028557" r="2" />
	<circle cx="562.4933817651" cy="-613.0368502718" r="2" />
	<circle cx="500.4665711403" cy="-793.0872009686" r="2" />
	<circle cx="64.9132995827" cy="-55.1783273006" r="2" />
	<circle cx="441.3226172586" cy="-678.6533354161" r="2" />
	<circle cx="790.3856544642" cy="-251.5883763187" r="2" />
	<circle cx="294.5226862448" cy="-342.1165786421" r="2" />
	<circle cx="0.0000000016" cy="-0.0000000011" r="2" />
	<circle cx="436.4434049061" cy="-15.0742730487" r="2" />
	<circle cx="67.5362324615" cy="-16.9996343958" r="2" />
	<circle cx="762.1140307863" cy="-327.7233225162" r="2" />
	<circle cx="448.7683260690" cy="-618.6665471230" r="2" />
	<circle cx="413.0622217787" cy="-183.2972468549" r="2" />
	<circle cx="421.3949311714" cy="-47.5774279268" r="2" />
	<circle cx="0.0000000001" cy="-0.0000000000" r="2" />
	<circle cx="305.3998634927" cy="-496.7337338991" r="2" />
	<circle cx="396.0902957261" cy="-615.5826055324" r="2" />
	<circle cx="669.2299193822" cy="-207.6813567014" r="2" />
	<circle cx="996.9536737169" cy="-5.2754528167" r="2" />
	<circle cx="606.5715862028" cy="-598.8142139554" r="2" />
	<circle cx="443.3435829962" cy="-221.4234137123" r="2" />
	<circle cx="588.2992827880" cy="-23.2368030102" r="2" />
	<circle cx="494.6566923490" cy="-742.2086268635" r="2" />
	<circle cx="694.0361714610" cy="-167.9167264166" r="2" />
	<circle cx="798.1395702455" cy="-122.1809950425" r="2" />
	<circle cx="819.1292950714" cy="-82.0341940710" r="2" />
	<circle cx="307.9806079524" cy="-178.2048776718" r="2" />
	<circle cx="982.2733553686" cy="-11.6628881704" r="2" />
	<circle cx="465.0898451112" cy="-630.4895372354" r="2" />
	<circle cx="36.7279479039" cy="-17.5976673360" r="2" />
	<circle cx="404.8456757309" cy="-542.7487636969" r="2" />
	<circle cx="456.5466592827" cy="-453.6127665827" r="2" />
	<circle cx="999.9999999984" cy="-0.0000000009" r="2" />
	<circle cx="774.7384196403" cy="-160.7645917962" r="2" />
	<circle cx="1000.0000000000" cy="-0.0000000000" r="2" />
	<circle cx="636.0628119929" cy="-90.9308790352" r="2" />
	<circle cx="535.9441623824" cy="-390.7756888135" r="2" />
	<circle cx="257.8206318658" cy="-132.6119938133" r="2" />
	<circle cx="172.2576783493" cy="-167.0898038338" r="2" />
	<circle cx="519.8381476187" cy="-709.4182348075" r="2" />
	<circle cx="0.0000942024" cy="-0.0000703392" r="2" />
	<circle cx="636.3052725725" cy="-200.8894342024" r="2" />
	<circle cx="999.9999999777" cy="-0.0000000136" r="2" />
	<circle cx="513.7560677176" cy="-571.0031920656" r="2" />
	<circle cx="52.7449397025" cy="-34.4829373255" r="2" />
	<circle cx="642.2841640071" cy="-339.2006491967" r="2" />
	<circle cx="560.6362911070" cy="-370.5649767290" r="2" />
	<circle cx="643.5541164443" cy="-234.4529756222" r="2" />
	<circle cx="393.4826012815" cy="-113.2385918360" r="2" />
	<circle cx="813.4134695912" cy="-249.2062387131" r="2" />
	<circle cx="997.5334187257" cy="-1.7718563586" r="2" />
	<circle cx="483.9481467903" cy="-697.9760298461" r="2" />
	<circle cx="999.9999998919" cy="-0.0000000609" r="2" />
	<circle cx="202.8012741420" cy="-124.1649330455" r="2" />
	<circle cx="746.6112039800" cy="-231.6588682135" r="2" />
	<circle cx="89.1771864689" cy="-28.8911918094" r="2" />
	<circle cx="499.9999980573" cy="-866.0253956856" r="2" />
	<circle cx="512.5015716648" cy="-720.7819628681" r="2" />
	<circle cx="816.3150354258" cy="-174.8469818329" r="2" />
	<circle cx="785.6668093800" cy="-137.5267566231" r="2" />
	<circle cx="246.9620325882" cy="-96.2036072966" r="2" />
	<circle cx="591.9844228073" cy="-231.9007671464" r="2" />
	<circle cx="788.0868928115" cy="-86.2794422031" r="2" />
	<circle cx="638.8023350787" cy="-568.1953326921" r="2" />
	<circle cx="507.0257942546" cy="-786.2451257300" r="2" />
	<circle cx="304.2128431789" cy="-54.2434550099" r="2" />
	<circle cx="999.7499437034" cy="-0.2633190686" r="2" />
	<circle cx="888.8579223215" cy="-22.1065196755" r="2" />
	<circle cx="56.2262230353" cy="-39.2158713629" r="2" />
	<circle cx="451.9712326601" cy="-202.8226524733" r="2" />
	<circle cx="482.1118125048" cy="-753.5750555415" r="2" />
	<circle cx="999.9992174628" cy="-0.0004499887" r="2" />
	<circle cx="807.0329517079" cy="-40.8933108207" r="2" />
	<circle cx="968.8716305605" cy="-27.8444371211" r="2" />
	<circle cx="499.9999996653" cy="-866.0254026486" r="2" />
	<circle cx="892.8178486082" cy="-30.3405732662" r="2" />
	<circle cx="491.6318690735" cy="-801.7009827874" r="2" />
	<circle cx="0.0000430821" cy="-0.0000232045" r="2" />
	<circle cx="321.6437573130" cy="-254.4217923973" r="2" />
	<circle cx="611.4498817878" cy="-490.1462666138" r="2" />
	<circle cx="0.0000000000" cy="-0.0000000000" r="2" />
	<circle cx="414.7498777325" cy="-508.1578436146" r="2" />
	<circle cx="372.3528825729" cy="-266.3151466908" r="2" />
	<circle cx="162.4564473124" cy="-98.5924864905" r="2" />
	<circle cx="500.0417164101" cy="-823.5198995971" r="2" />
	<circle cx="0.6852983931" cy="-0.5256617228" r="2" />
	<circle cx="499.9835143710" cy="-860.5426270831" r="2" />
	<circle cx="499.9983738102" cy="-866.0202433713" r="2" />
	<circle cx="279.2095122518" cy="-433.3828136065" r="2" />
	<circle cx="999.1336603053" cy="-0.3995976922" r="2" />
	<circle cx="327.5162442784" cy="-352.8626044719" r="2" />
	<circle cx="509.3472889972" cy="-842.6930485436" r="2" />
	<circle cx="782.9944275167" cy="-120.8557894236" r="2" />
	<circle cx="999.9999989759" cy="-0.0000006298" r="2" />
	<circle cx="999.4953277969" cy="-0.1618878753" r="2" />
	<circle cx="535.3155283395" cy="-734.6805641128" r="2" />
	<circle cx="656.4217294138" cy="-244.6397598641" r="2" />
	<circle cx="800.9808211908" cy="-261.5679756889" r="2" />
	<circle cx="564.8353415690" cy="-248.1275253440" r="2" />
	<circle cx="678.9166646429" cy="-340.1160834148" r="2" />
	<circle cx="248.3216463496" cy="-279.8771516477" r="2" />
	<circle cx="690.1418558486" cy="-284.3926283579" r="2" />
	<circle cx="487.7482687646" cy="-292.5595934419" r="2" />
	<circle cx="999.9551269899" cy="-0.0281085476" r="2" />
	<circle cx="417.2510338400" cy="-611.0883364444" r="2" />
	<circle cx="244.9603127386" cy="-213.0545088246" r="2" />
	<circle cx="575.7435516486" cy="-243.9351496682" r="2" />
	<circle cx="470.6929545983" cy="-231.9310815173" r="2" />
	<circle cx="493.2604234999" cy="-632.0614517781" r="2" />
  </g>
  <g id="fig2" transform="translate(-550.0,1000)">
	<polygon points="0.0,-0.0 1000.0,-0.0 500.0,-866.0254038" />
	<line
	   id="line2-1"
	   y2="-0.0"
	   x2="500"
	   y1="-288.6751346"
	   x1="500" />
	<line
	   id="line2-2"
	   y2="-433.0127019"
	   x2="250"
	   y1="-288.6751346"
	   x1="500" />
	<line
	   id="line2-3"
	   y2="-433.0127019"
	   x2="750"
	   y1="-288.6751346"
	   x1="500" />
	<text
	   x="440"
	   y="-500"
	   id="up_2">31.4%</text>
	<text
	   x="250"
	   y="-150"
	   id="down_left_2">35.6%</text>
	<text
	   x="630"
	   y="-150"
	   id="down_right_2">33.0%</text>
  </g>
  <g id="fig3" transform="translate(550,1000)">
	<polygon points="0.0,-0.0 1000.0,-0.0 500.0,-866.0254038" />
	<polygon id="triangle3b" points="250,-144.3375673 750,-144.3375673 500,-577.3502692" />
	<line
	   id="line3-1"
	   x1="125"
	   y1="-216.5063509"
	   x2="250"
	   y2="-144.3375673" />
	<line
	   id="line3-2"
	   x1="375"
	   y1="-649.5190528"
	   x2="500"
	   y2="-577.3502692" />
	<line
	   id="line3-3"
	   x1="625"
	   y1="-649.5190528"
	   x2="500"
	   y2="-577.3502692" />
	<line
	   id="line3-4"
	   x1="875"
	   y1="-216.5063509"
	   x2="750"
	   y2="-144.3375673" />
	<line
	   id="line3-5"
	   x1="750"
	   y1="-0.0"
	   x2="750"
	   y2="-144.3375673" />
	<line
	   id="line3-6"
	   x1="250"
	   y1="-0.0"
	   x2="250"
	   y2="-144.3375673" />
	<text
	   x="500"
	   y="-660"
	   text-anchor="middle"
	   id="up_3">19.8%</text>
	<text
	   y="-50"
	   x="70"
	   id="down_left_3">21.2%</text>
	<text
	   y="-50"
	   x="770"
	   id="down_right_3">18.6%</text>
	<text
	   x="500"
	   y="-50"
	   text-anchor="middle"
	   id="down_side_3">6.4%</text>
	<text
	   x="500"
	   y="-280"
	   text-anchor="middle"
	   id="center_3">21.4%</text>
	<text
	   x="685.0"
	   y="-390.8439"
	   text-anchor="middle"
	   transform="rotate(60,665.0,-380.8439)"
	   id="right_side_3">6.6%</text>
	<text
	   x="315.0"
	   y="-390.8439"
	   text-anchor="middle"
	   transform="rotate(-60,335.0,-380.8439)"
	   id="left_side_3">6.0%</text>
  </g>
</g></g>
</svg>
